0
SECTION
2
HEADER
9
$ACADVER
1
AC1009
9
$INSUNITS
70
4
0
ENDSEC
0
SECTION
2
ENTITIES
0
POLYLINE
8
CUT_OUTER
66
1
70
1
0
VERTEX
8
CUT_OUTER
10
304.8000
20
152.4000
30
0.0
0
VERTEX
8
CUT_OUTER
10
304.7942
20
151.0701
30
0.0
0
VERTEX
8
CUT_OUTER
10
304.7768
20
149.7403
30
0.0
0
VERTEX
8
CUT_OUTER
10
304.7478
20
148.4106
30
0.0
0
VERTEX
8
CUT_OUTER
10
304.7072
20
147.0813
30
0.0
0
VERTEX
8
CUT_OUTER
10
304.6549
20
145.7524
30
0.0
0
VERTEX
8
CUT_OUTER
10
304.5911
20
144.4240
30
0.0
0
VERTEX
8
CUT_OUTER
10
304.5157
20
143.0962
30
0.0
0
VERTEX
8
CUT_OUTER
10
304.4288
20
141.7691
30
0.0
0
VERTEX
8
CUT_OUTER
10
304.3302
20
140.4428
30
0.0
0
VERTEX
8
CUT_OUTER
10
304.2201
20
139.1175
30
0.0
0
VERTEX
8
CUT_OUTER
10
304.0984
20
137.7931
30
0.0
0
VERTEX
8
CUT_OUTER
10
303.9651
20
136.4699
30
0.0
0
VERTEX
8
CUT_OUTER
10
303.8204
20
135.1478
30
0.0
0
VERTEX
8
CUT_OUTER
10
303.6640
20
133.8271
30
0.0
0
VERTEX
8
CUT_OUTER
10
303.4962
20
132.5078
30
0.0
0
VERTEX
8
CUT_OUTER
10
303.3169
20
131.1900
30
0.0
0
VERTEX
8
CUT_OUTER
10
303.1260
20
129.8738
30
0.0
0
VERTEX
8
CUT_OUTER
10
302.9237
20
128.5594
30
0.0
0
VERTEX
8
CUT_OUTER
10
302.7099
20
127.2467
30
0.0
0
VERTEX
8
CUT_OUTER
10
302.4847
20
125.9360
30
0.0
0
VERTEX
8
CUT_OUTER
10
302.2480
20
124.6273
30
0.0
0
VERTEX
8
CUT_OUTER
10
302.0000
20
123.3207
30
0.0
0
VERTEX
8
CUT_OUTER
10
301.7405
20
122.0163
30
0.0
0
VERTEX
8
CUT_OUTER
10
301.4697
20
120.7143
30
0.0
0
VERTEX
8
CUT_OUTER
10
301.1875
20
119.4146
30
0.0
0
VERTEX
8
CUT_OUTER
10
300.8940
20
118.1175
30
0.0
0
VERTEX
8
CUT_OUTER
10
300.5892
20
116.8229
30
0.0
0
VERTEX
8
CUT_OUTER
10
300.2731
20
115.5311
30
0.0
0
VERTEX
8
CUT_OUTER
10
299.9457
20
114.2421
30
0.0
0
VERTEX
8
CUT_OUTER
10
299.6071
20
112.9560
30
0.0
0
VERTEX
8
CUT_OUTER
10
299.2573
20
111.6729
30
0.0
0
VERTEX
8
CUT_OUTER
10
298.8963
20
110.3929
30
0.0
0
VERTEX
8
CUT_OUTER
10
298.5241
20
109.1161
30
0.0
0
VERTEX
8
CUT_OUTER
10
298.1408
20
107.8426
30
0.0
0
VERTEX
8
CUT_OUTER
10
297.7465
20
106.5724
30
0.0
0
VERTEX
8
CUT_OUTER
10
297.3410
20
105.3058
30
0.0
0
VERTEX
8
CUT_OUTER
10
296.9245
20
104.0428
30
0.0
0
VERTEX
8
CUT_OUTER
10
296.4970
20
102.7834
30
0.0
0
VERTEX
8
CUT_OUTER
10
296.0586
20
101.5278
30
0.0
0
VERTEX
8
CUT_OUTER
10
295.6092
20
100.2761
30
0.0
0
VERTEX
8
CUT_OUTER
10
295.1488
20
99.0284
30
0.0
0
VERTEX
8
CUT_OUTER
10
294.6777
20
97.7847
30
0.0
0
VERTEX
8
CUT_OUTER
10
294.1956
20
96.5452
30
0.0
0
VERTEX
8
CUT_OUTER
10
293.7028
20
95.3100
30
0.0
0
VERTEX
8
CUT_OUTER
10
293.1992
20
94.0790
30
0.0
0
VERTEX
8
CUT_OUTER
10
292.6849
20
92.8526
30
0.0
0
VERTEX
8
CUT_OUTER
10
292.1600
20
91.6306
30
0.0
0
VERTEX
8
CUT_OUTER
10
291.6243
20
90.4133
30
0.0
0
VERTEX
8
CUT_OUTER
10
291.0781
20
89.2007
30
0.0
0
VERTEX
8
CUT_OUTER
10
290.5213
20
87.9930
30
0.0
0
VERTEX
8
CUT_OUTER
10
289.9540
20
86.7901
30
0.0
0
VERTEX
8
CUT_OUTER
10
289.3762
20
85.5922
30
0.0
0
VERTEX
8
CUT_OUTER
10
288.7880
20
84.3995
30
0.0
0
VERTEX
8
CUT_OUTER
10
288.1894
20
83.2118
30
0.0
0
VERTEX
8
CUT_OUTER
10
287.5805
20
82.0295
30
0.0
0
VERTEX
8
CUT_OUTER
10
286.9612
20
80.8525
30
0.0
0
VERTEX
8
CUT_OUTER
10
286.3317
20
79.6810
30
0.0
0
VERTEX
8
CUT_OUTER
10
285.6920
20
78.5150
30
0.0
0
VERTEX
8
CUT_OUTER
10
285.0422
20
77.3546
30
0.0
0
VERTEX
8
CUT_OUTER
10
284.3823
20
76.2000
30
0.0
0
VERTEX
8
CUT_OUTER
10
283.7123
20
75.0512
30
0.0
0
VERTEX
8
CUT_OUTER
10
283.0323
20
73.9082
30
0.0
0
VERTEX
8
CUT_OUTER
10
282.3424
20
72.7712
30
0.0
0
VERTEX
8
CUT_OUTER
10
281.6425
20
71.6403
30
0.0
0
VERTEX
8
CUT_OUTER
10
280.9329
20
70.5155
30
0.0
0
VERTEX
8
CUT_OUTER
10
280.2134
20
69.3970
30
0.0
0
VERTEX
8
CUT_OUTER
10
279.4842
20
68.2848
30
0.0
0
VERTEX
8
CUT_OUTER
10
278.7453
20
67.1790
30
0.0
0
VERTEX
8
CUT_OUTER
10
277.9968
20
66.0797
30
0.0
0
VERTEX
8
CUT_OUTER
10
277.2388
20
64.9870
30
0.0
0
VERTEX
8
CUT_OUTER
10
276.4712
20
63.9009
30
0.0
0
VERTEX
8
CUT_OUTER
10
275.6942
20
62.8215
30
0.0
0
VERTEX
8
CUT_OUTER
10
274.9078
20
61.7490
30
0.0
0
VERTEX
8
CUT_OUTER
10
274.1121
20
60.6834
30
0.0
0
VERTEX
8
CUT_OUTER
10
273.3070
20
59.6248
30
0.0
0
VERTEX
8
CUT_OUTER
10
272.4928
20
58.5732
30
0.0
0
VERTEX
8
CUT_OUTER
10
271.6695
20
57.5288
30
0.0
0
VERTEX
8
CUT_OUTER
10
270.8370
20
56.4916
30
0.0
0
VERTEX
8
CUT_OUTER
10
269.9956
20
55.4617
30
0.0
0
VERTEX
8
CUT_OUTER
10
269.1452
20
54.4392
30
0.0
0
VERTEX
8
CUT_OUTER
10
268.2859
20
53.4241
30
0.0
0
VERTEX
8
CUT_OUTER
10
267.4177
20
52.4166
30
0.0
0
VERTEX
8
CUT_OUTER
10
266.5409
20
51.4167
30
0.0
0
VERTEX
8
CUT_OUTER
10
265.6553
20
50.4245
30
0.0
0
VERTEX
8
CUT_OUTER
10
264.7611
20
49.4401
30
0.0
0
VERTEX
8
CUT_OUTER
10
263.8583
20
48.4634
30
0.0
0
VERTEX
8
CUT_OUTER
10
262.9471
20
47.4948
30
0.0
0
VERTEX
8
CUT_OUTER
10
262.0274
20
46.5341
30
0.0
0
VERTEX
8
CUT_OUTER
10
261.0994
20
45.5814
30
0.0
0
VERTEX
8
CUT_OUTER
10
260.1631
20
44.6369
30
0.0
0
VERTEX
8
CUT_OUTER
10
259.2186
20
43.7006
30
0.0
0
VERTEX
8
CUT_OUTER
10
258.2659
20
42.7726
30
0.0
0
VERTEX
8
CUT_OUTER
10
257.3052
20
41.8529
30
0.0
0
VERTEX
8
CUT_OUTER
10
256.3366
20
40.9417
30
0.0
0
VERTEX
8
CUT_OUTER
10
255.3599
20
40.0389
30
0.0
0
VERTEX
8
CUT_OUTER
10
254.3755
20
39.1447
30
0.0
0
VERTEX
8
CUT_OUTER
10
253.3833
20
38.2591
30
0.0
0
VERTEX
8
CUT_OUTER
10
252.3834
20
37.3823
30
0.0
0
VERTEX
8
CUT_OUTER
10
251.3759
20
36.5141
30
0.0
0
VERTEX
8
CUT_OUTER
10
250.3608
20
35.6548
30
0.0
0
VERTEX
8
CUT_OUTER
10
249.3383
20
34.8044
30
0.0
0
VERTEX
8
CUT_OUTER
10
248.3084
20
33.9630
30
0.0
0
VERTEX
8
CUT_OUTER
10
247.2712
20
33.1305
30
0.0
0
VERTEX
8
CUT_OUTER
10
246.2268
20
32.3072
30
0.0
0
VERTEX
8
CUT_OUTER
10
245.1752
20
31.4930
30
0.0
0
VERTEX
8
CUT_OUTER
10
244.1166
20
30.6879
30
0.0
0
VERTEX
8
CUT_OUTER
10
243.0510
20
29.8922
30
0.0
0
VERTEX
8
CUT_OUTER
10
241.9785
20
29.1058
30
0.0
0
VERTEX
8
CUT_OUTER
10
240.8991
20
28.3288
30
0.0
0
VERTEX
8
CUT_OUTER
10
239.8130
20
27.5612
30
0.0
0
VERTEX
8
CUT_OUTER
10
238.7203
20
26.8032
30
0.0
0
VERTEX
8
CUT_OUTER
10
237.6210
20
26.0547
30
0.0
0
VERTEX
8
CUT_OUTER
10
236.5152
20
25.3158
30
0.0
0
VERTEX
8
CUT_OUTER
10
235.4030
20
24.5866
30
0.0
0
VERTEX
8
CUT_OUTER
10
234.2845
20
23.8671
30
0.0
0
VERTEX
8
CUT_OUTER
10
233.1597
20
23.1575
30
0.0
0
VERTEX
8
CUT_OUTER
10
232.0288
20
22.4576
30
0.0
0
VERTEX
8
CUT_OUTER
10
230.8918
20
21.7677
30
0.0
0
VERTEX
8
CUT_OUTER
10
229.7488
20
21.0877
30
0.0
0
VERTEX
8
CUT_OUTER
10
228.6000
20
20.4177
30
0.0
0
VERTEX
8
CUT_OUTER
10
227.4454
20
19.7578
30
0.0
0
VERTEX
8
CUT_OUTER
10
226.2850
20
19.1080
30
0.0
0
VERTEX
8
CUT_OUTER
10
225.1190
20
18.4683
30
0.0
0
VERTEX
8
CUT_OUTER
10
223.9475
20
17.8388
30
0.0
0
VERTEX
8
CUT_OUTER
10
222.7705
20
17.2195
30
0.0
0
VERTEX
8
CUT_OUTER
10
221.5882
20
16.6106
30
0.0
0
VERTEX
8
CUT_OUTER
10
220.4005
20
16.0120
30
0.0
0
VERTEX
8
CUT_OUTER
10
219.2078
20
15.4238
30
0.0
0
VERTEX
8
CUT_OUTER
10
218.0099
20
14.8460
30
0.0
0
VERTEX
8
CUT_OUTER
10
216.8070
20
14.2787
30
0.0
0
VERTEX
8
CUT_OUTER
10
215.5993
20
13.7219
30
0.0
0
VERTEX
8
CUT_OUTER
10
214.3867
20
13.1757
30
0.0
0
VERTEX
8
CUT_OUTER
10
213.1694
20
12.6400
30
0.0
0
VERTEX
8
CUT_OUTER
10
211.9474
20
12.1151
30
0.0
0
VERTEX
8
CUT_OUTER
10
210.7210
20
11.6008
30
0.0
0
VERTEX
8
CUT_OUTER
10
209.4900
20
11.0972
30
0.0
0
VERTEX
8
CUT_OUTER
10
208.2548
20
10.6044
30
0.0
0
VERTEX
8
CUT_OUTER
10
207.0153
20
10.1223
30
0.0
0
VERTEX
8
CUT_OUTER
10
205.7716
20
9.6512
30
0.0
0
VERTEX
8
CUT_OUTER
10
204.5239
20
9.1908
30
0.0
0
VERTEX
8
CUT_OUTER
10
203.2722
20
8.7414
30
0.0
0
VERTEX
8
CUT_OUTER
10
202.0166
20
8.3030
30
0.0
0
VERTEX
8
CUT_OUTER
10
200.7572
20
7.8755
30
0.0
0
VERTEX
8
CUT_OUTER
10
199.4942
20
7.4590
30
0.0
0
VERTEX
8
CUT_OUTER
10
198.2276
20
7.0535
30
0.0
0
VERTEX
8
CUT_OUTER
10
196.9574
20
6.6592
30
0.0
0
VERTEX
8
CUT_OUTER
10
195.6839
20
6.2759
30
0.0
0
VERTEX
8
CUT_OUTER
10
194.4071
20
5.9037
30
0.0
0
VERTEX
8
CUT_OUTER
10
193.1271
20
5.5427
30
0.0
0
VERTEX
8
CUT_OUTER
10
191.8440
20
5.1929
30
0.0
0
VERTEX
8
CUT_OUTER
10
190.5579
20
4.8543
30
0.0
0
VERTEX
8
CUT_OUTER
10
189.2689
20
4.5269
30
0.0
0
VERTEX
8
CUT_OUTER
10
187.9771
20
4.2108
30
0.0
0
VERTEX
8
CUT_OUTER
10
186.6825
20
3.9060
30
0.0
0
VERTEX
8
CUT_OUTER
10
185.3854
20
3.6125
30
0.0
0
VERTEX
8
CUT_OUTER
10
184.0857
20
3.3303
30
0.0
0
VERTEX
8
CUT_OUTER
10
182.7837
20
3.0595
30
0.0
0
VERTEX
8
CUT_OUTER
10
181.4793
20
2.8000
30
0.0
0
VERTEX
8
CUT_OUTER
10
180.1727
20
2.5520
30
0.0
0
VERTEX
8
CUT_OUTER
10
178.8640
20
2.3153
30
0.0
0
VERTEX
8
CUT_OUTER
10
177.5533
20
2.0901
30
0.0
0
VERTEX
8
CUT_OUTER
10
176.2406
20
1.8763
30
0.0
0
VERTEX
8
CUT_OUTER
10
174.9262
20
1.6740
30
0.0
0
VERTEX
8
CUT_OUTER
10
173.6100
20
1.4831
30
0.0
0
VERTEX
8
CUT_OUTER
10
172.2922
20
1.3038
30
0.0
0
VERTEX
8
CUT_OUTER
10
170.9729
20
1.1360
30
0.0
0
VERTEX
8
CUT_OUTER
10
169.6522
20
0.9796
30
0.0
0
VERTEX
8
CUT_OUTER
10
168.3301
20
0.8349
30
0.0
0
VERTEX
8
CUT_OUTER
10
167.0069
20
0.7016
30
0.0
0
VERTEX
8
CUT_OUTER
10
165.6825
20
0.5799
30
0.0
0
VERTEX
8
CUT_OUTER
10
164.3572
20
0.4698
30
0.0
0
VERTEX
8
CUT_OUTER
10
163.0309
20
0.3712
30
0.0
0
VERTEX
8
CUT_OUTER
10
161.7038
20
0.2843
30
0.0
0
VERTEX
8
CUT_OUTER
10
160.3760
20
0.2089
30
0.0
0
VERTEX
8
CUT_OUTER
10
159.0476
20
0.1451
30
0.0
0
VERTEX
8
CUT_OUTER
10
157.7187
20
0.0928
30
0.0
0
VERTEX
8
CUT_OUTER
10
156.3894
20
0.0522
30
0.0
0
VERTEX
8
CUT_OUTER
10
155.0597
20
0.0232
30
0.0
0
VERTEX
8
CUT_OUTER
10
153.7299
20
0.0058
30
0.0
0
VERTEX
8
CUT_OUTER
10
152.4000
20
0.0000
30
0.0
0
VERTEX
8
CUT_OUTER
10
151.0701
20
0.0058
30
0.0
0
VERTEX
8
CUT_OUTER
10
149.7403
20
0.0232
30
0.0
0
VERTEX
8
CUT_OUTER
10
148.4106
20
0.0522
30
0.0
0
VERTEX
8
CUT_OUTER
10
147.0813
20
0.0928
30
0.0
0
VERTEX
8
CUT_OUTER
10
145.7524
20
0.1451
30
0.0
0
VERTEX
8
CUT_OUTER
10
144.4240
20
0.2089
30
0.0
0
VERTEX
8
CUT_OUTER
10
143.0962
20
0.2843
30
0.0
0
VERTEX
8
CUT_OUTER
10
141.7691
20
0.3712
30
0.0
0
VERTEX
8
CUT_OUTER
10
140.4428
20
0.4698
30
0.0
0
VERTEX
8
CUT_OUTER
10
139.1175
20
0.5799
30
0.0
0
VERTEX
8
CUT_OUTER
10
137.7931
20
0.7016
30
0.0
0
VERTEX
8
CUT_OUTER
10
136.4699
20
0.8349
30
0.0
0
VERTEX
8
CUT_OUTER
10
135.1478
20
0.9796
30
0.0
0
VERTEX
8
CUT_OUTER
10
133.8271
20
1.1360
30
0.0
0
VERTEX
8
CUT_OUTER
10
132.5078
20
1.3038
30
0.0
0
VERTEX
8
CUT_OUTER
10
131.1900
20
1.4831
30
0.0
0
VERTEX
8
CUT_OUTER
10
129.8738
20
1.6740
30
0.0
0
VERTEX
8
CUT_OUTER
10
128.5594
20
1.8763
30
0.0
0
VERTEX
8
CUT_OUTER
10
127.2467
20
2.0901
30
0.0
0
VERTEX
8
CUT_OUTER
10
125.9360
20
2.3153
30
0.0
0
VERTEX
8
CUT_OUTER
10
124.6273
20
2.5520
30
0.0
0
VERTEX
8
CUT_OUTER
10
123.3207
20
2.8000
30
0.0
0
VERTEX
8
CUT_OUTER
10
122.0163
20
3.0595
30
0.0
0
VERTEX
8
CUT_OUTER
10
120.7143
20
3.3303
30
0.0
0
VERTEX
8
CUT_OUTER
10
119.4146
20
3.6125
30
0.0
0
VERTEX
8
CUT_OUTER
10
118.1175
20
3.9060
30
0.0
0
VERTEX
8
CUT_OUTER
10
116.8229
20
4.2108
30
0.0
0
VERTEX
8
CUT_OUTER
10
115.5311
20
4.5269
30
0.0
0
VERTEX
8
CUT_OUTER
10
114.2421
20
4.8543
30
0.0
0
VERTEX
8
CUT_OUTER
10
112.9560
20
5.1929
30
0.0
0
VERTEX
8
CUT_OUTER
10
111.6729
20
5.5427
30
0.0
0
VERTEX
8
CUT_OUTER
10
110.3929
20
5.9037
30
0.0
0
VERTEX
8
CUT_OUTER
10
109.1161
20
6.2759
30
0.0
0
VERTEX
8
CUT_OUTER
10
107.8426
20
6.6592
30
0.0
0
VERTEX
8
CUT_OUTER
10
106.5724
20
7.0535
30
0.0
0
VERTEX
8
CUT_OUTER
10
105.3058
20
7.4590
30
0.0
0
VERTEX
8
CUT_OUTER
10
104.0428
20
7.8755
30
0.0
0
VERTEX
8
CUT_OUTER
10
102.7834
20
8.3030
30
0.0
0
VERTEX
8
CUT_OUTER
10
101.5278
20
8.7414
30
0.0
0
VERTEX
8
CUT_OUTER
10
100.2761
20
9.1908
30
0.0
0
VERTEX
8
CUT_OUTER
10
99.0284
20
9.6512
30
0.0
0
VERTEX
8
CUT_OUTER
10
97.7847
20
10.1223
30
0.0
0
VERTEX
8
CUT_OUTER
10
96.5452
20
10.6044
30
0.0
0
VERTEX
8
CUT_OUTER
10
95.3100
20
11.0972
30
0.0
0
VERTEX
8
CUT_OUTER
10
94.0790
20
11.6008
30
0.0
0
VERTEX
8
CUT_OUTER
10
92.8526
20
12.1151
30
0.0
0
VERTEX
8
CUT_OUTER
10
91.6306
20
12.6400
30
0.0
0
VERTEX
8
CUT_OUTER
10
90.4133
20
13.1757
30
0.0
0
VERTEX
8
CUT_OUTER
10
89.2007
20
13.7219
30
0.0
0
VERTEX
8
CUT_OUTER
10
87.9930
20
14.2787
30
0.0
0
VERTEX
8
CUT_OUTER
10
86.7901
20
14.8460
30
0.0
0
VERTEX
8
CUT_OUTER
10
85.5922
20
15.4238
30
0.0
0
VERTEX
8
CUT_OUTER
10
84.3995
20
16.0120
30
0.0
0
VERTEX
8
CUT_OUTER
10
83.2118
20
16.6106
30
0.0
0
VERTEX
8
CUT_OUTER
10
82.0295
20
17.2195
30
0.0
0
VERTEX
8
CUT_OUTER
10
80.8525
20
17.8388
30
0.0
0
VERTEX
8
CUT_OUTER
10
79.6810
20
18.4683
30
0.0
0
VERTEX
8
CUT_OUTER
10
78.5150
20
19.1080
30
0.0
0
VERTEX
8
CUT_OUTER
10
77.3546
20
19.7578
30
0.0
0
VERTEX
8
CUT_OUTER
10
76.2000
20
20.4177
30
0.0
0
VERTEX
8
CUT_OUTER
10
75.0512
20
21.0877
30
0.0
0
VERTEX
8
CUT_OUTER
10
73.9082
20
21.7677
30
0.0
0
VERTEX
8
CUT_OUTER
10
72.7712
20
22.4576
30
0.0
0
VERTEX
8
CUT_OUTER
10
71.6403
20
23.1575
30
0.0
0
VERTEX
8
CUT_OUTER
10
70.5155
20
23.8671
30
0.0
0
VERTEX
8
CUT_OUTER
10
69.3970
20
24.5866
30
0.0
0
VERTEX
8
CUT_OUTER
10
68.2848
20
25.3158
30
0.0
0
VERTEX
8
CUT_OUTER
10
67.1790
20
26.0547
30
0.0
0
VERTEX
8
CUT_OUTER
10
66.0797
20
26.8032
30
0.0
0
VERTEX
8
CUT_OUTER
10
64.9870
20
27.5612
30
0.0
0
VERTEX
8
CUT_OUTER
10
63.9009
20
28.3288
30
0.0
0
VERTEX
8
CUT_OUTER
10
62.8215
20
29.1058
30
0.0
0
VERTEX
8
CUT_OUTER
10
61.7490
20
29.8922
30
0.0
0
VERTEX
8
CUT_OUTER
10
60.6834
20
30.6879
30
0.0
0
VERTEX
8
CUT_OUTER
10
59.6248
20
31.4930
30
0.0
0
VERTEX
8
CUT_OUTER
10
58.5732
20
32.3072
30
0.0
0
VERTEX
8
CUT_OUTER
10
57.5288
20
33.1305
30
0.0
0
VERTEX
8
CUT_OUTER
10
56.4916
20
33.9630
30
0.0
0
VERTEX
8
CUT_OUTER
10
55.4617
20
34.8044
30
0.0
0
VERTEX
8
CUT_OUTER
10
54.4392
20
35.6548
30
0.0
0
VERTEX
8
CUT_OUTER
10
53.4241
20
36.5141
30
0.0
0
VERTEX
8
CUT_OUTER
10
52.4166
20
37.3823
30
0.0
0
VERTEX
8
CUT_OUTER
10
51.4167
20
38.2591
30
0.0
0
VERTEX
8
CUT_OUTER
10
50.4245
20
39.1447
30
0.0
0
VERTEX
8
CUT_OUTER
10
49.4401
20
40.0389
30
0.0
0
VERTEX
8
CUT_OUTER
10
48.4634
20
40.9417
30
0.0
0
VERTEX
8
CUT_OUTER
10
47.4948
20
41.8529
30
0.0
0
VERTEX
8
CUT_OUTER
10
46.5341
20
42.7726
30
0.0
0
VERTEX
8
CUT_OUTER
10
45.5814
20
43.7006
30
0.0
0
VERTEX
8
CUT_OUTER
10
44.6369
20
44.6369
30
0.0
0
VERTEX
8
CUT_OUTER
10
43.7006
20
45.5814
30
0.0
0
VERTEX
8
CUT_OUTER
10
42.7726
20
46.5341
30
0.0
0
VERTEX
8
CUT_OUTER
10
41.8529
20
47.4948
30
0.0
0
VERTEX
8
CUT_OUTER
10
40.9417
20
48.4634
30
0.0
0
VERTEX
8
CUT_OUTER
10
40.0389
20
49.4401
30
0.0
0
VERTEX
8
CUT_OUTER
10
39.1447
20
50.4245
30
0.0
0
VERTEX
8
CUT_OUTER
10
38.2591
20
51.4167
30
0.0
0
VERTEX
8
CUT_OUTER
10
37.3823
20
52.4166
30
0.0
0
VERTEX
8
CUT_OUTER
10
36.5141
20
53.4241
30
0.0
0
VERTEX
8
CUT_OUTER
10
35.6548
20
54.4392
30
0.0
0
VERTEX
8
CUT_OUTER
10
34.8044
20
55.4617
30
0.0
0
VERTEX
8
CUT_OUTER
10
33.9630
20
56.4916
30
0.0
0
VERTEX
8
CUT_OUTER
10
33.1305
20
57.5288
30
0.0
0
VERTEX
8
CUT_OUTER
10
32.3072
20
58.5732
30
0.0
0
VERTEX
8
CUT_OUTER
10
31.4930
20
59.6248
30
0.0
0
VERTEX
8
CUT_OUTER
10
30.6879
20
60.6834
30
0.0
0
VERTEX
8
CUT_OUTER
10
29.8922
20
61.7490
30
0.0
0
VERTEX
8
CUT_OUTER
10
29.1058
20
62.8215
30
0.0
0
VERTEX
8
CUT_OUTER
10
28.3288
20
63.9009
30
0.0
0
VERTEX
8
CUT_OUTER
10
27.5612
20
64.9870
30
0.0
0
VERTEX
8
CUT_OUTER
10
26.8032
20
66.0797
30
0.0
0
VERTEX
8
CUT_OUTER
10
26.0547
20
67.1790
30
0.0
0
VERTEX
8
CUT_OUTER
10
25.3158
20
68.2848
30
0.0
0
VERTEX
8
CUT_OUTER
10
24.5866
20
69.3970
30
0.0
0
VERTEX
8
CUT_OUTER
10
23.8671
20
70.5155
30
0.0
0
VERTEX
8
CUT_OUTER
10
23.1575
20
71.6403
30
0.0
0
VERTEX
8
CUT_OUTER
10
22.4576
20
72.7712
30
0.0
0
VERTEX
8
CUT_OUTER
10
21.7677
20
73.9082
30
0.0
0
VERTEX
8
CUT_OUTER
10
21.0877
20
75.0512
30
0.0
0
VERTEX
8
CUT_OUTER
10
20.4177
20
76.2000
30
0.0
0
VERTEX
8
CUT_OUTER
10
19.7578
20
77.3546
30
0.0
0
VERTEX
8
CUT_OUTER
10
19.1080
20
78.5150
30
0.0
0
VERTEX
8
CUT_OUTER
10
18.4683
20
79.6810
30
0.0
0
VERTEX
8
CUT_OUTER
10
17.8388
20
80.8525
30
0.0
0
VERTEX
8
CUT_OUTER
10
17.2195
20
82.0295
30
0.0
0
VERTEX
8
CUT_OUTER
10
16.6106
20
83.2118
30
0.0
0
VERTEX
8
CUT_OUTER
10
16.0120
20
84.3995
30
0.0
0
VERTEX
8
CUT_OUTER
10
15.4238
20
85.5922
30
0.0
0
VERTEX
8
CUT_OUTER
10
14.8460
20
86.7901
30
0.0
0
VERTEX
8
CUT_OUTER
10
14.2787
20
87.9930
30
0.0
0
VERTEX
8
CUT_OUTER
10
13.7219
20
89.2007
30
0.0
0
VERTEX
8
CUT_OUTER
10
13.1757
20
90.4133
30
0.0
0
VERTEX
8
CUT_OUTER
10
12.6400
20
91.6306
30
0.0
0
VERTEX
8
CUT_OUTER
10
12.1151
20
92.8526
30
0.0
0
VERTEX
8
CUT_OUTER
10
11.6008
20
94.0790
30
0.0
0
VERTEX
8
CUT_OUTER
10
11.0972
20
95.3100
30
0.0
0
VERTEX
8
CUT_OUTER
10
10.6044
20
96.5452
30
0.0
0
VERTEX
8
CUT_OUTER
10
10.1223
20
97.7847
30
0.0
0
VERTEX
8
CUT_OUTER
10
9.6512
20
99.0284
30
0.0
0
VERTEX
8
CUT_OUTER
10
9.1908
20
100.2761
30
0.0
0
VERTEX
8
CUT_OUTER
10
8.7414
20
101.5278
30
0.0
0
VERTEX
8
CUT_OUTER
10
8.3030
20
102.7834
30
0.0
0
VERTEX
8
CUT_OUTER
10
7.8755
20
104.0428
30
0.0
0
VERTEX
8
CUT_OUTER
10
7.4590
20
105.3058
30
0.0
0
VERTEX
8
CUT_OUTER
10
7.0535
20
106.5724
30
0.0
0
VERTEX
8
CUT_OUTER
10
6.6592
20
107.8426
30
0.0
0
VERTEX
8
CUT_OUTER
10
6.2759
20
109.1161
30
0.0
0
VERTEX
8
CUT_OUTER
10
5.9037
20
110.3929
30
0.0
0
VERTEX
8
CUT_OUTER
10
5.5427
20
111.6729
30
0.0
0
VERTEX
8
CUT_OUTER
10
5.1929
20
112.9560
30
0.0
0
VERTEX
8
CUT_OUTER
10
4.8543
20
114.2421
30
0.0
0
VERTEX
8
CUT_OUTER
10
4.5269
20
115.5311
30
0.0
0
VERTEX
8
CUT_OUTER
10
4.2108
20
116.8229
30
0.0
0
VERTEX
8
CUT_OUTER
10
3.9060
20
118.1175
30
0.0
0
VERTEX
8
CUT_OUTER
10
3.6125
20
119.4146
30
0.0
0
VERTEX
8
CUT_OUTER
10
3.3303
20
120.7143
30
0.0
0
VERTEX
8
CUT_OUTER
10
3.0595
20
122.0163
30
0.0
0
VERTEX
8
CUT_OUTER
10
2.8000
20
123.3207
30
0.0
0
VERTEX
8
CUT_OUTER
10
2.5520
20
124.6273
30
0.0
0
VERTEX
8
CUT_OUTER
10
2.3153
20
125.9360
30
0.0
0
VERTEX
8
CUT_OUTER
10
2.0901
20
127.2467
30
0.0
0
VERTEX
8
CUT_OUTER
10
1.8763
20
128.5594
30
0.0
0
VERTEX
8
CUT_OUTER
10
1.6740
20
129.8738
30
0.0
0
VERTEX
8
CUT_OUTER
10
1.4831
20
131.1900
30
0.0
0
VERTEX
8
CUT_OUTER
10
1.3038
20
132.5078
30
0.0
0
VERTEX
8
CUT_OUTER
10
1.1360
20
133.8271
30
0.0
0
VERTEX
8
CUT_OUTER
10
0.9796
20
135.1478
30
0.0
0
VERTEX
8
CUT_OUTER
10
0.8349
20
136.4699
30
0.0
0
VERTEX
8
CUT_OUTER
10
0.7016
20
137.7931
30
0.0
0
VERTEX
8
CUT_OUTER
10
0.5799
20
139.1175
30
0.0
0
VERTEX
8
CUT_OUTER
10
0.4698
20
140.4428
30
0.0
0
VERTEX
8
CUT_OUTER
10
0.3712
20
141.7691
30
0.0
0
VERTEX
8
CUT_OUTER
10
0.2843
20
143.0962
30
0.0
0
VERTEX
8
CUT_OUTER
10
0.2089
20
144.4240
30
0.0
0
VERTEX
8
CUT_OUTER
10
0.1451
20
145.7524
30
0.0
0
VERTEX
8
CUT_OUTER
10
0.0928
20
147.0813
30
0.0
0
VERTEX
8
CUT_OUTER
10
0.0522
20
148.4106
30
0.0
0
VERTEX
8
CUT_OUTER
10
0.0232
20
149.7403
30
0.0
0
VERTEX
8
CUT_OUTER
10
0.0058
20
151.0701
30
0.0
0
VERTEX
8
CUT_OUTER
10
0.0000
20
152.4000
30
0.0
0
VERTEX
8
CUT_OUTER
10
0.0058
20
153.7299
30
0.0
0
VERTEX
8
CUT_OUTER
10
0.0232
20
155.0597
30
0.0
0
VERTEX
8
CUT_OUTER
10
0.0522
20
156.3894
30
0.0
0
VERTEX
8
CUT_OUTER
10
0.0928
20
157.7187
30
0.0
0
VERTEX
8
CUT_OUTER
10
0.1451
20
159.0476
30
0.0
0
VERTEX
8
CUT_OUTER
10
0.2089
20
160.3760
30
0.0
0
VERTEX
8
CUT_OUTER
10
0.2843
20
161.7038
30
0.0
0
VERTEX
8
CUT_OUTER
10
0.3712
20
163.0309
30
0.0
0
VERTEX
8
CUT_OUTER
10
0.4698
20
164.3572
30
0.0
0
VERTEX
8
CUT_OUTER
10
0.5799
20
165.6825
30
0.0
0
VERTEX
8
CUT_OUTER
10
0.7016
20
167.0069
30
0.0
0
VERTEX
8
CUT_OUTER
10
0.8349
20
168.3301
30
0.0
0
VERTEX
8
CUT_OUTER
10
0.9796
20
169.6522
30
0.0
0
VERTEX
8
CUT_OUTER
10
1.1360
20
170.9729
30
0.0
0
VERTEX
8
CUT_OUTER
10
1.3038
20
172.2922
30
0.0
0
VERTEX
8
CUT_OUTER
10
1.4831
20
173.6100
30
0.0
0
VERTEX
8
CUT_OUTER
10
1.6740
20
174.9262
30
0.0
0
VERTEX
8
CUT_OUTER
10
1.8763
20
176.2406
30
0.0
0
VERTEX
8
CUT_OUTER
10
2.0901
20
177.5533
30
0.0
0
VERTEX
8
CUT_OUTER
10
2.3153
20
178.8640
30
0.0
0
VERTEX
8
CUT_OUTER
10
2.5520
20
180.1727
30
0.0
0
VERTEX
8
CUT_OUTER
10
2.8000
20
181.4793
30
0.0
0
VERTEX
8
CUT_OUTER
10
3.0595
20
182.7837
30
0.0
0
VERTEX
8
CUT_OUTER
10
3.3303
20
184.0857
30
0.0
0
VERTEX
8
CUT_OUTER
10
3.6125
20
185.3854
30
0.0
0
VERTEX
8
CUT_OUTER
10
3.9060
20
186.6825
30
0.0
0
VERTEX
8
CUT_OUTER
10
4.2108
20
187.9771
30
0.0
0
VERTEX
8
CUT_OUTER
10
4.5269
20
189.2689
30
0.0
0
VERTEX
8
CUT_OUTER
10
4.8543
20
190.5579
30
0.0
0
VERTEX
8
CUT_OUTER
10
5.1929
20
191.8440
30
0.0
0
VERTEX
8
CUT_OUTER
10
5.5427
20
193.1271
30
0.0
0
VERTEX
8
CUT_OUTER
10
5.9037
20
194.4071
30
0.0
0
VERTEX
8
CUT_OUTER
10
6.2759
20
195.6839
30
0.0
0
VERTEX
8
CUT_OUTER
10
6.6592
20
196.9574
30
0.0
0
VERTEX
8
CUT_OUTER
10
7.0535
20
198.2276
30
0.0
0
VERTEX
8
CUT_OUTER
10
7.4590
20
199.4942
30
0.0
0
VERTEX
8
CUT_OUTER
10
7.8755
20
200.7572
30
0.0
0
VERTEX
8
CUT_OUTER
10
8.3030
20
202.0166
30
0.0
0
VERTEX
8
CUT_OUTER
10
8.7414
20
203.2722
30
0.0
0
VERTEX
8
CUT_OUTER
10
9.1908
20
204.5239
30
0.0
0
VERTEX
8
CUT_OUTER
10
9.6512
20
205.7716
30
0.0
0
VERTEX
8
CUT_OUTER
10
10.1223
20
207.0153
30
0.0
0
VERTEX
8
CUT_OUTER
10
10.6044
20
208.2548
30
0.0
0
VERTEX
8
CUT_OUTER
10
11.0972
20
209.4900
30
0.0
0
VERTEX
8
CUT_OUTER
10
11.6008
20
210.7210
30
0.0
0
VERTEX
8
CUT_OUTER
10
12.1151
20
211.9474
30
0.0
0
VERTEX
8
CUT_OUTER
10
12.6400
20
213.1694
30
0.0
0
VERTEX
8
CUT_OUTER
10
13.1757
20
214.3867
30
0.0
0
VERTEX
8
CUT_OUTER
10
13.7219
20
215.5993
30
0.0
0
VERTEX
8
CUT_OUTER
10
14.2787
20
216.8070
30
0.0
0
VERTEX
8
CUT_OUTER
10
14.8460
20
218.0099
30
0.0
0
VERTEX
8
CUT_OUTER
10
15.4238
20
219.2078
30
0.0
0
VERTEX
8
CUT_OUTER
10
16.0120
20
220.4005
30
0.0
0
VERTEX
8
CUT_OUTER
10
16.6106
20
221.5882
30
0.0
0
VERTEX
8
CUT_OUTER
10
17.2195
20
222.7705
30
0.0
0
VERTEX
8
CUT_OUTER
10
17.8388
20
223.9475
30
0.0
0
VERTEX
8
CUT_OUTER
10
18.4683
20
225.1190
30
0.0
0
VERTEX
8
CUT_OUTER
10
19.1080
20
226.2850
30
0.0
0
VERTEX
8
CUT_OUTER
10
19.7578
20
227.4454
30
0.0
0
VERTEX
8
CUT_OUTER
10
20.4177
20
228.6000
30
0.0
0
VERTEX
8
CUT_OUTER
10
21.0877
20
229.7488
30
0.0
0
VERTEX
8
CUT_OUTER
10
21.7677
20
230.8918
30
0.0
0
VERTEX
8
CUT_OUTER
10
22.4576
20
232.0288
30
0.0
0
VERTEX
8
CUT_OUTER
10
23.1575
20
233.1597
30
0.0
0
VERTEX
8
CUT_OUTER
10
23.8671
20
234.2845
30
0.0
0
VERTEX
8
CUT_OUTER
10
24.5866
20
235.4030
30
0.0
0
VERTEX
8
CUT_OUTER
10
25.3158
20
236.5152
30
0.0
0
VERTEX
8
CUT_OUTER
10
26.0547
20
237.6210
30
0.0
0
VERTEX
8
CUT_OUTER
10
26.8032
20
238.7203
30
0.0
0
VERTEX
8
CUT_OUTER
10
27.5612
20
239.8130
30
0.0
0
VERTEX
8
CUT_OUTER
10
28.3288
20
240.8991
30
0.0
0
VERTEX
8
CUT_OUTER
10
29.1058
20
241.9785
30
0.0
0
VERTEX
8
CUT_OUTER
10
29.8922
20
243.0510
30
0.0
0
VERTEX
8
CUT_OUTER
10
30.6879
20
244.1166
30
0.0
0
VERTEX
8
CUT_OUTER
10
31.4930
20
245.1752
30
0.0
0
VERTEX
8
CUT_OUTER
10
32.3072
20
246.2268
30
0.0
0
VERTEX
8
CUT_OUTER
10
33.1305
20
247.2712
30
0.0
0
VERTEX
8
CUT_OUTER
10
33.9630
20
248.3084
30
0.0
0
VERTEX
8
CUT_OUTER
10
34.8044
20
249.3383
30
0.0
0
VERTEX
8
CUT_OUTER
10
35.6548
20
250.3608
30
0.0
0
VERTEX
8
CUT_OUTER
10
36.5141
20
251.3759
30
0.0
0
VERTEX
8
CUT_OUTER
10
37.3823
20
252.3834
30
0.0
0
VERTEX
8
CUT_OUTER
10
38.2591
20
253.3833
30
0.0
0
VERTEX
8
CUT_OUTER
10
39.1447
20
254.3755
30
0.0
0
VERTEX
8
CUT_OUTER
10
40.0389
20
255.3599
30
0.0
0
VERTEX
8
CUT_OUTER
10
40.9417
20
256.3366
30
0.0
0
VERTEX
8
CUT_OUTER
10
41.8529
20
257.3052
30
0.0
0
VERTEX
8
CUT_OUTER
10
42.7726
20
258.2659
30
0.0
0
VERTEX
8
CUT_OUTER
10
43.7006
20
259.2186
30
0.0
0
VERTEX
8
CUT_OUTER
10
44.6369
20
260.1631
30
0.0
0
VERTEX
8
CUT_OUTER
10
45.5814
20
261.0994
30
0.0
0
VERTEX
8
CUT_OUTER
10
46.5341
20
262.0274
30
0.0
0
VERTEX
8
CUT_OUTER
10
47.4948
20
262.9471
30
0.0
0
VERTEX
8
CUT_OUTER
10
48.4634
20
263.8583
30
0.0
0
VERTEX
8
CUT_OUTER
10
49.4401
20
264.7611
30
0.0
0
VERTEX
8
CUT_OUTER
10
50.4245
20
265.6553
30
0.0
0
VERTEX
8
CUT_OUTER
10
51.4167
20
266.5409
30
0.0
0
VERTEX
8
CUT_OUTER
10
52.4166
20
267.4177
30
0.0
0
VERTEX
8
CUT_OUTER
10
53.4241
20
268.2859
30
0.0
0
VERTEX
8
CUT_OUTER
10
54.4392
20
269.1452
30
0.0
0
VERTEX
8
CUT_OUTER
10
55.4617
20
269.9956
30
0.0
0
VERTEX
8
CUT_OUTER
10
56.4916
20
270.8370
30
0.0
0
VERTEX
8
CUT_OUTER
10
57.5288
20
271.6695
30
0.0
0
VERTEX
8
CUT_OUTER
10
58.5732
20
272.4928
30
0.0
0
VERTEX
8
CUT_OUTER
10
59.6248
20
273.3070
30
0.0
0
VERTEX
8
CUT_OUTER
10
60.6834
20
274.1121
30
0.0
0
VERTEX
8
CUT_OUTER
10
61.7490
20
274.9078
30
0.0
0
VERTEX
8
CUT_OUTER
10
62.8215
20
275.6942
30
0.0
0
VERTEX
8
CUT_OUTER
10
63.9009
20
276.4712
30
0.0
0
VERTEX
8
CUT_OUTER
10
64.9870
20
277.2388
30
0.0
0
VERTEX
8
CUT_OUTER
10
66.0797
20
277.9968
30
0.0
0
VERTEX
8
CUT_OUTER
10
67.1790
20
278.7453
30
0.0
0
VERTEX
8
CUT_OUTER
10
68.2848
20
279.4842
30
0.0
0
VERTEX
8
CUT_OUTER
10
69.3970
20
280.2134
30
0.0
0
VERTEX
8
CUT_OUTER
10
70.5155
20
280.9329
30
0.0
0
VERTEX
8
CUT_OUTER
10
71.6403
20
281.6425
30
0.0
0
VERTEX
8
CUT_OUTER
10
72.7712
20
282.3424
30
0.0
0
VERTEX
8
CUT_OUTER
10
73.9082
20
283.0323
30
0.0
0
VERTEX
8
CUT_OUTER
10
75.0512
20
283.7123
30
0.0
0
VERTEX
8
CUT_OUTER
10
76.2000
20
284.3823
30
0.0
0
VERTEX
8
CUT_OUTER
10
77.3546
20
285.0422
30
0.0
0
VERTEX
8
CUT_OUTER
10
78.5150
20
285.6920
30
0.0
0
VERTEX
8
CUT_OUTER
10
79.6810
20
286.3317
30
0.0
0
VERTEX
8
CUT_OUTER
10
80.8525
20
286.9612
30
0.0
0
VERTEX
8
CUT_OUTER
10
82.0295
20
287.5805
30
0.0
0
VERTEX
8
CUT_OUTER
10
83.2118
20
288.1894
30
0.0
0
VERTEX
8
CUT_OUTER
10
84.3995
20
288.7880
30
0.0
0
VERTEX
8
CUT_OUTER
10
85.5922
20
289.3762
30
0.0
0
VERTEX
8
CUT_OUTER
10
86.7901
20
289.9540
30
0.0
0
VERTEX
8
CUT_OUTER
10
87.9930
20
290.5213
30
0.0
0
VERTEX
8
CUT_OUTER
10
89.2007
20
291.0781
30
0.0
0
VERTEX
8
CUT_OUTER
10
90.4133
20
291.6243
30
0.0
0
VERTEX
8
CUT_OUTER
10
91.6306
20
292.1600
30
0.0
0
VERTEX
8
CUT_OUTER
10
92.8526
20
292.6849
30
0.0
0
VERTEX
8
CUT_OUTER
10
94.0790
20
293.1992
30
0.0
0
VERTEX
8
CUT_OUTER
10
95.3100
20
293.7028
30
0.0
0
VERTEX
8
CUT_OUTER
10
96.5452
20
294.1956
30
0.0
0
VERTEX
8
CUT_OUTER
10
97.7847
20
294.6777
30
0.0
0
VERTEX
8
CUT_OUTER
10
99.0284
20
295.1488
30
0.0
0
VERTEX
8
CUT_OUTER
10
100.2761
20
295.6092
30
0.0
0
VERTEX
8
CUT_OUTER
10
101.5278
20
296.0586
30
0.0
0
VERTEX
8
CUT_OUTER
10
102.7834
20
296.4970
30
0.0
0
VERTEX
8
CUT_OUTER
10
104.0428
20
296.9245
30
0.0
0
VERTEX
8
CUT_OUTER
10
105.3058
20
297.3410
30
0.0
0
VERTEX
8
CUT_OUTER
10
106.5724
20
297.7465
30
0.0
0
VERTEX
8
CUT_OUTER
10
107.8426
20
298.1408
30
0.0
0
VERTEX
8
CUT_OUTER
10
109.1161
20
298.5241
30
0.0
0
VERTEX
8
CUT_OUTER
10
110.3929
20
298.8963
30
0.0
0
VERTEX
8
CUT_OUTER
10
111.6729
20
299.2573
30
0.0
0
VERTEX
8
CUT_OUTER
10
112.9560
20
299.6071
30
0.0
0
VERTEX
8
CUT_OUTER
10
114.2421
20
299.9457
30
0.0
0
VERTEX
8
CUT_OUTER
10
115.5311
20
300.2731
30
0.0
0
VERTEX
8
CUT_OUTER
10
116.8229
20
300.5892
30
0.0
0
VERTEX
8
CUT_OUTER
10
118.1175
20
300.8940
30
0.0
0
VERTEX
8
CUT_OUTER
10
119.4146
20
301.1875
30
0.0
0
VERTEX
8
CUT_OUTER
10
120.7143
20
301.4697
30
0.0
0
VERTEX
8
CUT_OUTER
10
122.0163
20
301.7405
30
0.0
0
VERTEX
8
CUT_OUTER
10
123.3207
20
302.0000
30
0.0
0
VERTEX
8
CUT_OUTER
10
124.6273
20
302.2480
30
0.0
0
VERTEX
8
CUT_OUTER
10
125.9360
20
302.4847
30
0.0
0
VERTEX
8
CUT_OUTER
10
127.2467
20
302.7099
30
0.0
0
VERTEX
8
CUT_OUTER
10
128.5594
20
302.9237
30
0.0
0
VERTEX
8
CUT_OUTER
10
129.8738
20
303.1260
30
0.0
0
VERTEX
8
CUT_OUTER
10
131.1900
20
303.3169
30
0.0
0
VERTEX
8
CUT_OUTER
10
132.5078
20
303.4962
30
0.0
0
VERTEX
8
CUT_OUTER
10
133.8271
20
303.6640
30
0.0
0
VERTEX
8
CUT_OUTER
10
135.1478
20
303.8204
30
0.0
0
VERTEX
8
CUT_OUTER
10
136.4699
20
303.9651
30
0.0
0
VERTEX
8
CUT_OUTER
10
137.7931
20
304.0984
30
0.0
0
VERTEX
8
CUT_OUTER
10
139.1175
20
304.2201
30
0.0
0
VERTEX
8
CUT_OUTER
10
140.4428
20
304.3302
30
0.0
0
VERTEX
8
CUT_OUTER
10
141.7691
20
304.4288
30
0.0
0
VERTEX
8
CUT_OUTER
10
143.0962
20
304.5157
30
0.0
0
VERTEX
8
CUT_OUTER
10
144.4240
20
304.5911
30
0.0
0
VERTEX
8
CUT_OUTER
10
145.7524
20
304.6549
30
0.0
0
VERTEX
8
CUT_OUTER
10
147.0813
20
304.7072
30
0.0
0
VERTEX
8
CUT_OUTER
10
148.4106
20
304.7478
30
0.0
0
VERTEX
8
CUT_OUTER
10
149.7403
20
304.7768
30
0.0
0
VERTEX
8
CUT_OUTER
10
151.0701
20
304.7942
30
0.0
0
VERTEX
8
CUT_OUTER
10
152.4000
20
304.8000
30
0.0
0
VERTEX
8
CUT_OUTER
10
153.7299
20
304.7942
30
0.0
0
VERTEX
8
CUT_OUTER
10
155.0597
20
304.7768
30
0.0
0
VERTEX
8
CUT_OUTER
10
156.3894
20
304.7478
30
0.0
0
VERTEX
8
CUT_OUTER
10
157.7187
20
304.7072
30
0.0
0
VERTEX
8
CUT_OUTER
10
159.0476
20
304.6549
30
0.0
0
VERTEX
8
CUT_OUTER
10
160.3760
20
304.5911
30
0.0
0
VERTEX
8
CUT_OUTER
10
161.7038
20
304.5157
30
0.0
0
VERTEX
8
CUT_OUTER
10
163.0309
20
304.4288
30
0.0
0
VERTEX
8
CUT_OUTER
10
164.3572
20
304.3302
30
0.0
0
VERTEX
8
CUT_OUTER
10
165.6825
20
304.2201
30
0.0
0
VERTEX
8
CUT_OUTER
10
167.0069
20
304.0984
30
0.0
0
VERTEX
8
CUT_OUTER
10
168.3301
20
303.9651
30
0.0
0
VERTEX
8
CUT_OUTER
10
169.6522
20
303.8204
30
0.0
0
VERTEX
8
CUT_OUTER
10
170.9729
20
303.6640
30
0.0
0
VERTEX
8
CUT_OUTER
10
172.2922
20
303.4962
30
0.0
0
VERTEX
8
CUT_OUTER
10
173.6100
20
303.3169
30
0.0
0
VERTEX
8
CUT_OUTER
10
174.9262
20
303.1260
30
0.0
0
VERTEX
8
CUT_OUTER
10
176.2406
20
302.9237
30
0.0
0
VERTEX
8
CUT_OUTER
10
177.5533
20
302.7099
30
0.0
0
VERTEX
8
CUT_OUTER
10
178.8640
20
302.4847
30
0.0
0
VERTEX
8
CUT_OUTER
10
180.1727
20
302.2480
30
0.0
0
VERTEX
8
CUT_OUTER
10
181.4793
20
302.0000
30
0.0
0
VERTEX
8
CUT_OUTER
10
182.7837
20
301.7405
30
0.0
0
VERTEX
8
CUT_OUTER
10
184.0857
20
301.4697
30
0.0
0
VERTEX
8
CUT_OUTER
10
185.3854
20
301.1875
30
0.0
0
VERTEX
8
CUT_OUTER
10
186.6825
20
300.8940
30
0.0
0
VERTEX
8
CUT_OUTER
10
187.9771
20
300.5892
30
0.0
0
VERTEX
8
CUT_OUTER
10
189.2689
20
300.2731
30
0.0
0
VERTEX
8
CUT_OUTER
10
190.5579
20
299.9457
30
0.0
0
VERTEX
8
CUT_OUTER
10
191.8440
20
299.6071
30
0.0
0
VERTEX
8
CUT_OUTER
10
193.1271
20
299.2573
30
0.0
0
VERTEX
8
CUT_OUTER
10
194.4071
20
298.8963
30
0.0
0
VERTEX
8
CUT_OUTER
10
195.6839
20
298.5241
30
0.0
0
VERTEX
8
CUT_OUTER
10
196.9574
20
298.1408
30
0.0
0
VERTEX
8
CUT_OUTER
10
198.2276
20
297.7465
30
0.0
0
VERTEX
8
CUT_OUTER
10
199.4942
20
297.3410
30
0.0
0
VERTEX
8
CUT_OUTER
10
200.7572
20
296.9245
30
0.0
0
VERTEX
8
CUT_OUTER
10
202.0166
20
296.4970
30
0.0
0
VERTEX
8
CUT_OUTER
10
203.2722
20
296.0586
30
0.0
0
VERTEX
8
CUT_OUTER
10
204.5239
20
295.6092
30
0.0
0
VERTEX
8
CUT_OUTER
10
205.7716
20
295.1488
30
0.0
0
VERTEX
8
CUT_OUTER
10
207.0153
20
294.6777
30
0.0
0
VERTEX
8
CUT_OUTER
10
208.2548
20
294.1956
30
0.0
0
VERTEX
8
CUT_OUTER
10
209.4900
20
293.7028
30
0.0
0
VERTEX
8
CUT_OUTER
10
210.7210
20
293.1992
30
0.0
0
VERTEX
8
CUT_OUTER
10
211.9474
20
292.6849
30
0.0
0
VERTEX
8
CUT_OUTER
10
213.1694
20
292.1600
30
0.0
0
VERTEX
8
CUT_OUTER
10
214.3867
20
291.6243
30
0.0
0
VERTEX
8
CUT_OUTER
10
215.5993
20
291.0781
30
0.0
0
VERTEX
8
CUT_OUTER
10
216.8070
20
290.5213
30
0.0
0
VERTEX
8
CUT_OUTER
10
218.0099
20
289.9540
30
0.0
0
VERTEX
8
CUT_OUTER
10
219.2078
20
289.3762
30
0.0
0
VERTEX
8
CUT_OUTER
10
220.4005
20
288.7880
30
0.0
0
VERTEX
8
CUT_OUTER
10
221.5882
20
288.1894
30
0.0
0
VERTEX
8
CUT_OUTER
10
222.7705
20
287.5805
30
0.0
0
VERTEX
8
CUT_OUTER
10
223.9475
20
286.9612
30
0.0
0
VERTEX
8
CUT_OUTER
10
225.1190
20
286.3317
30
0.0
0
VERTEX
8
CUT_OUTER
10
226.2850
20
285.6920
30
0.0
0
VERTEX
8
CUT_OUTER
10
227.4454
20
285.0422
30
0.0
0
VERTEX
8
CUT_OUTER
10
228.6000
20
284.3823
30
0.0
0
VERTEX
8
CUT_OUTER
10
229.7488
20
283.7123
30
0.0
0
VERTEX
8
CUT_OUTER
10
230.8918
20
283.0323
30
0.0
0
VERTEX
8
CUT_OUTER
10
232.0288
20
282.3424
30
0.0
0
VERTEX
8
CUT_OUTER
10
233.1597
20
281.6425
30
0.0
0
VERTEX
8
CUT_OUTER
10
234.2845
20
280.9329
30
0.0
0
VERTEX
8
CUT_OUTER
10
235.4030
20
280.2134
30
0.0
0
VERTEX
8
CUT_OUTER
10
236.5152
20
279.4842
30
0.0
0
VERTEX
8
CUT_OUTER
10
237.6210
20
278.7453
30
0.0
0
VERTEX
8
CUT_OUTER
10
238.7203
20
277.9968
30
0.0
0
VERTEX
8
CUT_OUTER
10
239.8130
20
277.2388
30
0.0
0
VERTEX
8
CUT_OUTER
10
240.8991
20
276.4712
30
0.0
0
VERTEX
8
CUT_OUTER
10
241.9785
20
275.6942
30
0.0
0
VERTEX
8
CUT_OUTER
10
243.0510
20
274.9078
30
0.0
0
VERTEX
8
CUT_OUTER
10
244.1166
20
274.1121
30
0.0
0
VERTEX
8
CUT_OUTER
10
245.1752
20
273.3070
30
0.0
0
VERTEX
8
CUT_OUTER
10
246.2268
20
272.4928
30
0.0
0
VERTEX
8
CUT_OUTER
10
247.2712
20
271.6695
30
0.0
0
VERTEX
8
CUT_OUTER
10
248.3084
20
270.8370
30
0.0
0
VERTEX
8
CUT_OUTER
10
249.3383
20
269.9956
30
0.0
0
VERTEX
8
CUT_OUTER
10
250.3608
20
269.1452
30
0.0
0
VERTEX
8
CUT_OUTER
10
251.3759
20
268.2859
30
0.0
0
VERTEX
8
CUT_OUTER
10
252.3834
20
267.4177
30
0.0
0
VERTEX
8
CUT_OUTER
10
253.3833
20
266.5409
30
0.0
0
VERTEX
8
CUT_OUTER
10
254.3755
20
265.6553
30
0.0
0
VERTEX
8
CUT_OUTER
10
255.3599
20
264.7611
30
0.0
0
VERTEX
8
CUT_OUTER
10
256.3366
20
263.8583
30
0.0
0
VERTEX
8
CUT_OUTER
10
257.3052
20
262.9471
30
0.0
0
VERTEX
8
CUT_OUTER
10
258.2659
20
262.0274
30
0.0
0
VERTEX
8
CUT_OUTER
10
259.2186
20
261.0994
30
0.0
0
VERTEX
8
CUT_OUTER
10
260.1631
20
260.1631
30
0.0
0
VERTEX
8
CUT_OUTER
10
261.0994
20
259.2186
30
0.0
0
VERTEX
8
CUT_OUTER
10
262.0274
20
258.2659
30
0.0
0
VERTEX
8
CUT_OUTER
10
262.9471
20
257.3052
30
0.0
0
VERTEX
8
CUT_OUTER
10
263.8583
20
256.3366
30
0.0
0
VERTEX
8
CUT_OUTER
10
264.7611
20
255.3599
30
0.0
0
VERTEX
8
CUT_OUTER
10
265.6553
20
254.3755
30
0.0
0
VERTEX
8
CUT_OUTER
10
266.5409
20
253.3833
30
0.0
0
VERTEX
8
CUT_OUTER
10
267.4177
20
252.3834
30
0.0
0
VERTEX
8
CUT_OUTER
10
268.2859
20
251.3759
30
0.0
0
VERTEX
8
CUT_OUTER
10
269.1452
20
250.3608
30
0.0
0
VERTEX
8
CUT_OUTER
10
269.9956
20
249.3383
30
0.0
0
VERTEX
8
CUT_OUTER
10
270.8370
20
248.3084
30
0.0
0
VERTEX
8
CUT_OUTER
10
271.6695
20
247.2712
30
0.0
0
VERTEX
8
CUT_OUTER
10
272.4928
20
246.2268
30
0.0
0
VERTEX
8
CUT_OUTER
10
273.3070
20
245.1752
30
0.0
0
VERTEX
8
CUT_OUTER
10
274.1121
20
244.1166
30
0.0
0
VERTEX
8
CUT_OUTER
10
274.9078
20
243.0510
30
0.0
0
VERTEX
8
CUT_OUTER
10
275.6942
20
241.9785
30
0.0
0
VERTEX
8
CUT_OUTER
10
276.4712
20
240.8991
30
0.0
0
VERTEX
8
CUT_OUTER
10
277.2388
20
239.8130
30
0.0
0
VERTEX
8
CUT_OUTER
10
277.9968
20
238.7203
30
0.0
0
VERTEX
8
CUT_OUTER
10
278.7453
20
237.6210
30
0.0
0
VERTEX
8
CUT_OUTER
10
279.4842
20
236.5152
30
0.0
0
VERTEX
8
CUT_OUTER
10
280.2134
20
235.4030
30
0.0
0
VERTEX
8
CUT_OUTER
10
280.9329
20
234.2845
30
0.0
0
VERTEX
8
CUT_OUTER
10
281.6425
20
233.1597
30
0.0
0
VERTEX
8
CUT_OUTER
10
282.3424
20
232.0288
30
0.0
0
VERTEX
8
CUT_OUTER
10
283.0323
20
230.8918
30
0.0
0
VERTEX
8
CUT_OUTER
10
283.7123
20
229.7488
30
0.0
0
VERTEX
8
CUT_OUTER
10
284.3823
20
228.6000
30
0.0
0
VERTEX
8
CUT_OUTER
10
285.0422
20
227.4454
30
0.0
0
VERTEX
8
CUT_OUTER
10
285.6920
20
226.2850
30
0.0
0
VERTEX
8
CUT_OUTER
10
286.3317
20
225.1190
30
0.0
0
VERTEX
8
CUT_OUTER
10
286.9612
20
223.9475
30
0.0
0
VERTEX
8
CUT_OUTER
10
287.5805
20
222.7705
30
0.0
0
VERTEX
8
CUT_OUTER
10
288.1894
20
221.5882
30
0.0
0
VERTEX
8
CUT_OUTER
10
288.7880
20
220.4005
30
0.0
0
VERTEX
8
CUT_OUTER
10
289.3762
20
219.2078
30
0.0
0
VERTEX
8
CUT_OUTER
10
289.9540
20
218.0099
30
0.0
0
VERTEX
8
CUT_OUTER
10
290.5213
20
216.8070
30
0.0
0
VERTEX
8
CUT_OUTER
10
291.0781
20
215.5993
30
0.0
0
VERTEX
8
CUT_OUTER
10
291.6243
20
214.3867
30
0.0
0
VERTEX
8
CUT_OUTER
10
292.1600
20
213.1694
30
0.0
0
VERTEX
8
CUT_OUTER
10
292.6849
20
211.9474
30
0.0
0
VERTEX
8
CUT_OUTER
10
293.1992
20
210.7210
30
0.0
0
VERTEX
8
CUT_OUTER
10
293.7028
20
209.4900
30
0.0
0
VERTEX
8
CUT_OUTER
10
294.1956
20
208.2548
30
0.0
0
VERTEX
8
CUT_OUTER
10
294.6777
20
207.0153
30
0.0
0
VERTEX
8
CUT_OUTER
10
295.1488
20
205.7716
30
0.0
0
VERTEX
8
CUT_OUTER
10
295.6092
20
204.5239
30
0.0
0
VERTEX
8
CUT_OUTER
10
296.0586
20
203.2722
30
0.0
0
VERTEX
8
CUT_OUTER
10
296.4970
20
202.0166
30
0.0
0
VERTEX
8
CUT_OUTER
10
296.9245
20
200.7572
30
0.0
0
VERTEX
8
CUT_OUTER
10
297.3410
20
199.4942
30
0.0
0
VERTEX
8
CUT_OUTER
10
297.7465
20
198.2276
30
0.0
0
VERTEX
8
CUT_OUTER
10
298.1408
20
196.9574
30
0.0
0
VERTEX
8
CUT_OUTER
10
298.5241
20
195.6839
30
0.0
0
VERTEX
8
CUT_OUTER
10
298.8963
20
194.4071
30
0.0
0
VERTEX
8
CUT_OUTER
10
299.2573
20
193.1271
30
0.0
0
VERTEX
8
CUT_OUTER
10
299.6071
20
191.8440
30
0.0
0
VERTEX
8
CUT_OUTER
10
299.9457
20
190.5579
30
0.0
0
VERTEX
8
CUT_OUTER
10
300.2731
20
189.2689
30
0.0
0
VERTEX
8
CUT_OUTER
10
300.5892
20
187.9771
30
0.0
0
VERTEX
8
CUT_OUTER
10
300.8940
20
186.6825
30
0.0
0
VERTEX
8
CUT_OUTER
10
301.1875
20
185.3854
30
0.0
0
VERTEX
8
CUT_OUTER
10
301.4697
20
184.0857
30
0.0
0
VERTEX
8
CUT_OUTER
10
301.7405
20
182.7837
30
0.0
0
VERTEX
8
CUT_OUTER
10
302.0000
20
181.4793
30
0.0
0
VERTEX
8
CUT_OUTER
10
302.2480
20
180.1727
30
0.0
0
VERTEX
8
CUT_OUTER
10
302.4847
20
178.8640
30
0.0
0
VERTEX
8
CUT_OUTER
10
302.7099
20
177.5533
30
0.0
0
VERTEX
8
CUT_OUTER
10
302.9237
20
176.2406
30
0.0
0
VERTEX
8
CUT_OUTER
10
303.1260
20
174.9262
30
0.0
0
VERTEX
8
CUT_OUTER
10
303.3169
20
173.6100
30
0.0
0
VERTEX
8
CUT_OUTER
10
303.4962
20
172.2922
30
0.0
0
VERTEX
8
CUT_OUTER
10
303.6640
20
170.9729
30
0.0
0
VERTEX
8
CUT_OUTER
10
303.8204
20
169.6522
30
0.0
0
VERTEX
8
CUT_OUTER
10
303.9651
20
168.3301
30
0.0
0
VERTEX
8
CUT_OUTER
10
304.0984
20
167.0069
30
0.0
0
VERTEX
8
CUT_OUTER
10
304.2201
20
165.6825
30
0.0
0
VERTEX
8
CUT_OUTER
10
304.3302
20
164.3572
30
0.0
0
VERTEX
8
CUT_OUTER
10
304.4288
20
163.0309
30
0.0
0
VERTEX
8
CUT_OUTER
10
304.5157
20
161.7038
30
0.0
0
VERTEX
8
CUT_OUTER
10
304.5911
20
160.3760
30
0.0
0
VERTEX
8
CUT_OUTER
10
304.6549
20
159.0476
30
0.0
0
VERTEX
8
CUT_OUTER
10
304.7072
20
157.7187
30
0.0
0
VERTEX
8
CUT_OUTER
10
304.7478
20
156.3894
30
0.0
0
VERTEX
8
CUT_OUTER
10
304.7768
20
155.0597
30
0.0
0
VERTEX
8
CUT_OUTER
10
304.7942
20
153.7299
30
0.0
0
SEQEND
8
CUT_OUTER
0
POLYLINE
8
CUT_INNER
66
1
70
1
0
VERTEX
8
CUT_INNER
10
152.7732
20
10.3739
30
0.0
0
VERTEX
8
CUT_INNER
10
165.9085
20
10.6725
30
0.0
0
VERTEX
8
CUT_INNER
10
174.7152
20
12.3144
30
0.0
0
VERTEX
8
CUT_INNER
10
158.7438
20
12.9115
30
0.0
0
VERTEX
8
CUT_INNER
10
154.2658
20
12.0159
30
0.0
0
SEQEND
8
CUT_INNER
0
POLYLINE
8
CUT_INNER
66
1
70
1
0
VERTEX
8
CUT_INNER
10
129.7863
20
12.6129
30
0.0
0
VERTEX
8
CUT_INNER
10
133.6672
20
11.2695
30
0.0
0
VERTEX
8
CUT_INNER
10
146.9518
20
10.3739
30
0.0
0
VERTEX
8
CUT_INNER
10
142.4738
20
12.9115
30
0.0
0
VERTEX
8
CUT_INNER
10
138.2944
20
13.8071
30
0.0
0
SEQEND
8
CUT_INNER
0
POLYLINE
8
CUT_INNER
66
1
70
1
0
VERTEX
8
CUT_INNER
10
197.4035
20
17.6880
30
0.0
0
VERTEX
8
CUT_INNER
10
189.1939
20
18.5835
30
0.0
0
VERTEX
8
CUT_INNER
10
182.0292
20
15.5982
30
0.0
0
VERTEX
8
CUT_INNER
10
180.5365
20
13.6578
30
0.0
0
VERTEX
8
CUT_INNER
10
186.2086
20
14.1056
30
0.0
0
SEQEND
8
CUT_INNER
0
POLYLINE
8
CUT_INNER
66
1
70
1
0
VERTEX
8
CUT_INNER
10
107.3965
20
18.5835
30
0.0
0
VERTEX
8
CUT_INNER
10
108.5906
20
16.9416
30
0.0
0
VERTEX
8
CUT_INNER
10
124.2635
20
13.0607
30
0.0
0
VERTEX
8
CUT_INNER
10
120.6811
20
16.4938
30
0.0
0
VERTEX
8
CUT_INNER
10
115.9046
20
18.5835
30
0.0
0
SEQEND
8
CUT_INNER
0
POLYLINE
8
CUT_INNER
66
1
70
1
0
VERTEX
8
CUT_INNER
10
125.3083
20
17.3894
30
0.0
0
VERTEX
8
CUT_INNER
10
127.9951
20
16.0460
30
0.0
0
VERTEX
8
CUT_INNER
10
137.1003
20
16.9416
30
0.0
0
VERTEX
8
CUT_INNER
10
145.9070
20
14.5534
30
0.0
0
VERTEX
8
CUT_INNER
10
155.4599
20
16.6431
30
0.0
0
VERTEX
8
CUT_INNER
10
171.7299
20
15.1504
30
0.0
0
VERTEX
8
CUT_INNER
10
178.5961
20
17.2402
30
0.0
0
VERTEX
8
CUT_INNER
10
182.7755
20
19.9269
30
0.0
0
VERTEX
8
CUT_INNER
10
179.3424
20
20.3747
30
0.0
0
VERTEX
8
CUT_INNER
10
171.1328
20
17.9865
30
0.0
0
VERTEX
8
CUT_INNER
10
166.5056
20
17.9865
30
0.0
0
VERTEX
8
CUT_INNER
10
157.2511
20
20.3747
30
0.0
0
VERTEX
8
CUT_INNER
10
146.2055
20
17.6880
30
0.0
0
VERTEX
8
CUT_INNER
10
134.8613
20
20.3747
30
0.0
0
SEQEND
8
CUT_INNER
0
POLYLINE
8
CUT_INNER
66
1
70
1
0
VERTEX
8
CUT_INNER
10
217.1066
20
25.8976
30
0.0
0
VERTEX
8
CUT_INNER
10
211.5837
20
26.6439
30
0.0
0
VERTEX
8
CUT_INNER
10
208.0014
20
25.7483
30
0.0
0
VERTEX
8
CUT_INNER
10
201.7322
20
22.1659
30
0.0
0
VERTEX
8
CUT_INNER
10
200.8366
20
20.2255
30
0.0
0
VERTEX
8
CUT_INNER
10
203.3741
20
19.4791
30
0.0
0
SEQEND
8
CUT_INNER
0
POLYLINE
8
CUT_INNER
66
1
70
1
0
VERTEX
8
CUT_INNER
10
86.2008
20
26.9424
30
0.0
0
VERTEX
8
CUT_INNER
10
92.9177
20
23.0615
30
0.0
0
VERTEX
8
CUT_INNER
10
102.4707
20
19.4791
30
0.0
0
VERTEX
8
CUT_INNER
10
99.4854
20
23.3600
30
0.0
0
VERTEX
8
CUT_INNER
10
95.0074
20
26.0468
30
0.0
0
VERTEX
8
CUT_INNER
10
90.2310
20
27.5395
30
0.0
0
SEQEND
8
CUT_INNER
0
POLYLINE
8
CUT_INNER
66
1
70
1
0
VERTEX
8
CUT_INNER
10
233.9736
20
36.0476
30
0.0
0
VERTEX
8
CUT_INNER
10
229.1971
20
35.8983
30
0.0
0
VERTEX
8
CUT_INNER
10
223.8235
20
33.5101
30
0.0
0
VERTEX
8
CUT_INNER
10
220.8382
20
31.1218
30
0.0
0
VERTEX
8
CUT_INNER
10
219.9426
20
28.8829
30
0.0
0
VERTEX
8
CUT_INNER
10
221.8831
20
28.1365
30
0.0
0
SEQEND
8
CUT_INNER
0
POLYLINE
8
CUT_INNER
66
1
70
1
0
VERTEX
8
CUT_INNER
10
67.0948
20
38.8836
30
0.0
0
VERTEX
8
CUT_INNER
10
80.9765
20
29.6292
30
0.0
0
VERTEX
8
CUT_INNER
10
76.4985
20
35.3013
30
0.0
0
VERTEX
8
CUT_INNER
10
70.8264
20
38.2866
30
0.0
0
SEQEND
8
CUT_INNER
0
POLYLINE
8
CUT_INNER
66
1
70
1
0
VERTEX
8
CUT_INNER
10
208.8970
20
43.9587
30
0.0
0
VERTEX
8
CUT_INNER
10
222.0323
20
38.4358
30
0.0
0
VERTEX
8
CUT_INNER
10
229.4956
20
39.9285
30
0.0
0
VERTEX
8
CUT_INNER
10
238.0037
20
38.7344
30
0.0
0
VERTEX
8
CUT_INNER
10
242.1832
20
42.0182
30
0.0
0
VERTEX
8
CUT_INNER
10
232.3316
20
44.2572
30
0.0
0
VERTEX
8
CUT_INNER
10
224.2713
20
42.4660
30
0.0
0
VERTEX
8
CUT_INNER
10
214.7183
20
44.8543
30
0.0
0
SEQEND
8
CUT_INNER
0
POLYLINE
8
CUT_INNER
66
1
70
1
0
VERTEX
8
CUT_INNER
10
113.0686
20
22.1659
30
0.0
0
VERTEX
8
CUT_INNER
10
126.3532
20
21.1211
30
0.0
0
VERTEX
8
CUT_INNER
10
133.0701
20
23.2108
30
0.0
0
VERTEX
8
CUT_INNER
10
137.9959
20
23.2108
30
0.0
0
VERTEX
8
CUT_INNER
10
144.7128
20
21.1211
30
0.0
0
VERTEX
8
CUT_INNER
10
149.3401
20
21.1211
30
0.0
0
VERTEX
8
CUT_INNER
10
155.7585
20
23.2108
30
0.0
0
VERTEX
8
CUT_INNER
10
160.3857
20
23.2108
30
0.0
0
VERTEX
8
CUT_INNER
10
166.8041
20
21.1211
30
0.0
0
VERTEX
8
CUT_INNER
10
171.1328
20
21.1211
30
0.0
0
VERTEX
8
CUT_INNER
10
177.5512
20
23.2108
30
0.0
0
VERTEX
8
CUT_INNER
10
186.3579
20
22.3152
30
0.0
0
VERTEX
8
CUT_INNER
10
194.7167
20
32.3160
30
0.0
0
VERTEX
8
CUT_INNER
10
172.1777
20
32.6145
30
0.0
0
VERTEX
8
CUT_INNER
10
166.6548
20
36.1969
30
0.0
0
VERTEX
8
CUT_INNER
10
149.6386
20
36.1969
30
0.0
0
VERTEX
8
CUT_INNER
10
149.7879
20
37.5403
30
0.0
0
VERTEX
8
CUT_INNER
10
161.8784
20
37.8388
30
0.0
0
VERTEX
8
CUT_INNER
10
162.1769
20
38.5851
30
0.0
0
VERTEX
8
CUT_INNER
10
159.1916
20
40.9734
30
0.0
0
VERTEX
8
CUT_INNER
10
150.0864
20
40.9734
30
0.0
0
VERTEX
8
CUT_INNER
10
146.3548
20
45.7499
30
0.0
0
VERTEX
8
CUT_INNER
10
142.0261
20
46.1976
30
0.0
0
VERTEX
8
CUT_INNER
10
143.2202
20
41.1226
30
0.0
0
VERTEX
8
CUT_INNER
10
133.9657
20
40.3763
30
0.0
0
VERTEX
8
CUT_INNER
10
132.4731
20
37.8388
30
0.0
0
VERTEX
8
CUT_INNER
10
136.3540
20
36.7939
30
0.0
0
VERTEX
8
CUT_INNER
10
132.0253
20
31.8682
30
0.0
0
VERTEX
8
CUT_INNER
10
122.9201
20
31.4204
30
0.0
0
VERTEX
8
CUT_INNER
10
119.1884
20
26.7931
30
0.0
0
VERTEX
8
CUT_INNER
10
115.4568
20
26.3453
30
0.0
0
SEQEND
8
CUT_INNER
0
POLYLINE
8
CUT_INNER
66
1
70
1
0
VERTEX
8
CUT_INNER
10
36.3461
20
72.9162
30
0.0
0
VERTEX
8
CUT_INNER
10
36.0476
20
70.3786
30
0.0
0
VERTEX
8
CUT_INNER
10
45.7499
20
58.8852
30
0.0
0
VERTEX
8
CUT_INNER
10
45.4513
20
62.4676
30
0.0
0
VERTEX
8
CUT_INNER
10
42.7645
20
68.1397
30
0.0
0
VERTEX
8
CUT_INNER
10
38.8836
20
72.0206
30
0.0
0
SEQEND
8
CUT_INNER
0
POLYLINE
8
CUT_INNER
66
1
70
1
0
VERTEX
8
CUT_INNER
10
122.7708
20
68.7367
30
0.0
0
VERTEX
8
CUT_INNER
10
118.8899
20
71.4235
30
0.0
0
VERTEX
8
CUT_INNER
10
110.2325
20
74.4088
30
0.0
0
VERTEX
8
CUT_INNER
10
102.7692
20
72.0206
30
0.0
0
VERTEX
8
CUT_INNER
10
91.5743
20
72.6176
30
0.0
0
VERTEX
8
CUT_INNER
10
84.4096
20
69.6323
30
0.0
0
VERTEX
8
CUT_INNER
10
78.7375
20
61.8705
30
0.0
0
VERTEX
8
CUT_INNER
10
76.6478
20
53.2131
30
0.0
0
VERTEX
8
CUT_INNER
10
73.9610
20
48.4366
30
0.0
0
VERTEX
8
CUT_INNER
10
74.2595
20
46.6454
30
0.0
0
VERTEX
8
CUT_INNER
10
76.4985
20
47.9888
30
0.0
0
VERTEX
8
CUT_INNER
10
78.5882
20
55.1536
30
0.0
0
VERTEX
8
CUT_INNER
10
79.6331
20
55.6014
30
0.0
0
VERTEX
8
CUT_INNER
10
80.8272
20
47.8396
30
0.0
0
VERTEX
8
CUT_INNER
10
77.8419
20
36.9432
30
0.0
0
VERTEX
8
CUT_INNER
10
79.3346
20
36.0476
30
0.0
0
VERTEX
8
CUT_INNER
10
85.1559
20
36.3461
30
0.0
0
VERTEX
8
CUT_INNER
10
84.2603
20
41.4212
30
0.0
0
VERTEX
8
CUT_INNER
10
88.2905
20
47.3918
30
0.0
0
VERTEX
8
CUT_INNER
10
89.7832
20
42.0182
30
0.0
0
VERTEX
8
CUT_INNER
10
89.7832
20
36.6447
30
0.0
0
VERTEX
8
CUT_INNER
10
97.0972
20
36.6447
30
0.0
0
VERTEX
8
CUT_INNER
10
95.0074
20
40.6748
30
0.0
0
VERTEX
8
CUT_INNER
10
94.4104
20
48.1381
30
0.0
0
VERTEX
8
CUT_INNER
10
93.3655
20
49.0337
30
0.0
0
VERTEX
8
CUT_INNER
10
101.4259
20
51.2727
30
0.0
0
VERTEX
8
CUT_INNER
10
101.7244
20
43.3616
30
0.0
0
VERTEX
8
CUT_INNER
10
100.5303
20
36.3461
30
0.0
0
VERTEX
8
CUT_INNER
10
107.8443
20
36.6447
30
0.0
0
VERTEX
8
CUT_INNER
10
106.3516
20
41.1226
30
0.0
0
VERTEX
8
CUT_INNER
10
108.1428
20
46.4962
30
0.0
0
VERTEX
8
CUT_INNER
10
111.2774
20
41.1226
30
0.0
0
VERTEX
8
CUT_INNER
10
110.6803
20
36.6447
30
0.0
0
VERTEX
8
CUT_INNER
10
117.6958
20
36.3461
30
0.0
0
VERTEX
8
CUT_INNER
10
117.9943
20
38.2866
30
0.0
0
VERTEX
8
CUT_INNER
10
116.2031
20
40.3763
30
0.0
0
VERTEX
8
CUT_INNER
10
112.9193
20
53.2131
30
0.0
0
VERTEX
8
CUT_INNER
10
112.9193
20
56.4970
30
0.0
0
VERTEX
8
CUT_INNER
10
118.5914
20
56.6462
30
0.0
0
VERTEX
8
CUT_INNER
10
122.0245
20
52.7653
30
0.0
0
VERTEX
8
CUT_INNER
10
122.6215
20
45.4513
30
0.0
0
VERTEX
8
CUT_INNER
10
121.2782
20
44.8543
30
0.0
0
VERTEX
8
CUT_INNER
10
120.0840
20
47.2425
30
0.0
0
VERTEX
8
CUT_INNER
10
118.4421
20
46.3469
30
0.0
0
VERTEX
8
CUT_INNER
10
118.7406
20
43.2123
30
0.0
0
VERTEX
8
CUT_INNER
10
120.8304
20
41.7197
30
0.0
0
VERTEX
8
CUT_INNER
10
125.1591
20
43.2123
30
0.0
0
VERTEX
8
CUT_INNER
10
126.6517
20
51.2727
30
0.0
0
VERTEX
8
CUT_INNER
10
130.5326
20
52.4668
30
0.0
0
VERTEX
8
CUT_INNER
10
126.3532
20
54.4072
30
0.0
0
VERTEX
8
CUT_INNER
10
124.8605
20
64.2588
30
0.0
0
SEQEND
8
CUT_INNER
0
POLYLINE
8
CUT_INNER
66
1
70
1
0
VERTEX
8
CUT_INNER
10
277.8576
20
85.4545
30
0.0
0
VERTEX
8
CUT_INNER
10
273.9767
20
83.9618
30
0.0
0
VERTEX
8
CUT_INNER
10
269.7973
20
80.0809
30
0.0
0
VERTEX
8
CUT_INNER
10
267.1105
20
74.1103
30
0.0
0
VERTEX
8
CUT_INNER
10
266.8119
20
70.0801
30
0.0
0
VERTEX
8
CUT_INNER
10
268.7524
20
70.3786
30
0.0
0
SEQEND
8
CUT_INNER
0
POLYLINE
8
CUT_INNER
66
1
70
1
0
VERTEX
8
CUT_INNER
10
163.8188
20
84.8574
30
0.0
0
VERTEX
8
CUT_INNER
10
164.1173
20
83.0662
30
0.0
0
VERTEX
8
CUT_INNER
10
160.5350
20
79.7824
30
0.0
0
VERTEX
8
CUT_INNER
10
160.5350
20
78.4390
30
0.0
0
VERTEX
8
CUT_INNER
10
166.8041
20
78.5882
30
0.0
0
VERTEX
8
CUT_INNER
10
170.9835
20
66.1992
30
0.0
0
VERTEX
8
CUT_INNER
10
170.9835
20
61.1242
30
0.0
0
VERTEX
8
CUT_INNER
10
173.0733
20
55.4521
30
0.0
0
VERTEX
8
CUT_INNER
10
173.0733
20
44.8543
30
0.0
0
VERTEX
8
CUT_INNER
10
171.8791
20
40.8241
30
0.0
0
VERTEX
8
CUT_INNER
10
174.7152
20
40.8241
30
0.0
0
VERTEX
8
CUT_INNER
10
176.3571
20
53.6609
30
0.0
0
VERTEX
8
CUT_INNER
10
178.4468
20
44.7050
30
0.0
0
VERTEX
8
CUT_INNER
10
177.5512
20
40.5256
30
0.0
0
VERTEX
8
CUT_INNER
10
180.6858
20
40.8241
30
0.0
0
VERTEX
8
CUT_INNER
10
180.3873
20
55.6014
30
0.0
0
VERTEX
8
CUT_INNER
10
182.6262
20
55.0043
30
0.0
0
VERTEX
8
CUT_INNER
10
184.7160
20
50.0786
30
0.0
0
VERTEX
8
CUT_INNER
10
182.6262
20
40.5256
30
0.0
0
VERTEX
8
CUT_INNER
10
185.4623
20
40.5256
30
0.0
0
VERTEX
8
CUT_INNER
10
188.1491
20
50.6756
30
0.0
0
VERTEX
8
CUT_INNER
10
190.0895
20
47.9888
30
0.0
0
VERTEX
8
CUT_INNER
10
190.3881
20
42.4660
30
0.0
0
VERTEX
8
CUT_INNER
10
189.4925
20
40.5256
30
0.0
0
VERTEX
8
CUT_INNER
10
192.3285
20
40.5256
30
0.0
0
VERTEX
8
CUT_INNER
10
192.4778
20
50.9741
30
0.0
0
VERTEX
8
CUT_INNER
10
190.8358
20
53.2131
30
0.0
0
VERTEX
8
CUT_INNER
10
190.8358
20
57.0940
30
0.0
0
VERTEX
8
CUT_INNER
10
191.8807
20
56.6462
30
0.0
0
VERTEX
8
CUT_INNER
10
193.2241
20
51.1234
30
0.0
0
VERTEX
8
CUT_INNER
10
195.1645
20
48.4366
30
0.0
0
VERTEX
8
CUT_INNER
10
195.9109
20
50.5263
30
0.0
0
VERTEX
8
CUT_INNER
10
193.2241
20
55.0043
30
0.0
0
VERTEX
8
CUT_INNER
10
191.7314
20
60.3779
30
0.0
0
VERTEX
8
CUT_INNER
10
188.7461
20
63.3632
30
0.0
0
VERTEX
8
CUT_INNER
10
182.3277
20
65.9007
30
0.0
0
VERTEX
8
CUT_INNER
10
175.6108
20
72.0206
30
0.0
0
VERTEX
8
CUT_INNER
10
169.3416
20
82.4691
30
0.0
0
VERTEX
8
CUT_INNER
10
169.9387
20
84.8574
30
0.0
0
VERTEX
8
CUT_INNER
10
167.8490
20
85.9023
30
0.0
0
SEQEND
8
CUT_INNER
0
POLYLINE
8
CUT_INNER
66
1
70
1
0
VERTEX
8
CUT_INNER
10
55.4521
20
87.2456
30
0.0
0
VERTEX
8
CUT_INNER
10
53.9595
20
86.2008
30
0.0
0
VERTEX
8
CUT_INNER
10
57.2433
20
83.8125
30
0.0
0
VERTEX
8
CUT_INNER
10
56.9448
20
82.6184
30
0.0
0
VERTEX
8
CUT_INNER
10
58.7359
20
79.9316
30
0.0
0
VERTEX
8
CUT_INNER
10
50.3771
20
80.0809
30
0.0
0
VERTEX
8
CUT_INNER
10
47.9888
20
78.8868
30
0.0
0
VERTEX
8
CUT_INNER
10
44.7050
20
74.4088
30
0.0
0
VERTEX
8
CUT_INNER
10
45.1528
20
73.5132
30
0.0
0
VERTEX
8
CUT_INNER
10
48.5859
20
75.4537
30
0.0
0
VERTEX
8
CUT_INNER
10
49.9293
20
74.7073
30
0.0
0
VERTEX
8
CUT_INNER
10
52.1683
20
75.9015
30
0.0
0
VERTEX
8
CUT_INNER
10
54.7058
20
75.0059
30
0.0
0
VERTEX
8
CUT_INNER
10
51.2727
20
72.0206
30
0.0
0
VERTEX
8
CUT_INNER
10
49.7800
20
69.0353
30
0.0
0
VERTEX
8
CUT_INNER
10
49.7800
20
64.7066
30
0.0
0
VERTEX
8
CUT_INNER
10
51.2727
20
62.4676
30
0.0
0
VERTEX
8
CUT_INNER
10
52.6161
20
66.6470
30
0.0
0
VERTEX
8
CUT_INNER
10
55.3028
20
69.1845
30
0.0
0
VERTEX
8
CUT_INNER
10
59.3330
20
70.8264
30
0.0
0
VERTEX
8
CUT_INNER
10
56.9448
20
63.6617
30
0.0
0
VERTEX
8
CUT_INNER
10
55.7506
20
53.0639
30
0.0
0
VERTEX
8
CUT_INNER
10
49.4815
20
54.1087
30
0.0
0
VERTEX
8
CUT_INNER
10
61.8705
20
42.6153
30
0.0
0
VERTEX
8
CUT_INNER
10
63.6617
20
43.5109
30
0.0
0
VERTEX
8
CUT_INNER
10
68.7367
20
42.3167
30
0.0
0
VERTEX
8
CUT_INNER
10
69.0353
20
43.0631
30
0.0
0
VERTEX
8
CUT_INNER
10
62.0198
20
48.2874
30
0.0
0
VERTEX
8
CUT_INNER
10
60.6764
20
50.5263
30
0.0
0
VERTEX
8
CUT_INNER
10
60.0793
20
60.8257
30
0.0
0
VERTEX
8
CUT_INNER
10
61.8705
20
69.1845
30
0.0
0
VERTEX
8
CUT_INNER
10
63.5124
20
70.6772
30
0.0
0
VERTEX
8
CUT_INNER
10
65.6022
20
68.4382
30
0.0
0
VERTEX
8
CUT_INNER
10
65.9007
20
66.1992
30
0.0
0
VERTEX
8
CUT_INNER
10
68.2889
20
66.1992
30
0.0
0
VERTEX
8
CUT_INNER
10
71.7220
20
60.0793
30
0.0
0
VERTEX
8
CUT_INNER
10
73.2147
20
62.9154
30
0.0
0
VERTEX
8
CUT_INNER
10
73.2147
20
66.9455
30
0.0
0
VERTEX
8
CUT_INNER
10
72.0206
20
70.2294
30
0.0
0
VERTEX
8
CUT_INNER
10
69.0353
20
73.5132
30
0.0
0
VERTEX
8
CUT_INNER
10
72.6176
20
72.9162
30
0.0
0
VERTEX
8
CUT_INNER
10
73.5132
20
73.6625
30
0.0
0
VERTEX
8
CUT_INNER
10
75.7522
20
72.3191
30
0.0
0
VERTEX
8
CUT_INNER
10
77.0956
20
73.2147
30
0.0
0
VERTEX
8
CUT_INNER
10
80.2302
20
71.1250
30
0.0
0
VERTEX
8
CUT_INNER
10
80.9765
20
72.6176
30
0.0
0
VERTEX
8
CUT_INNER
10
80.0809
20
74.7073
30
0.0
0
VERTEX
8
CUT_INNER
10
75.6029
20
77.9912
30
0.0
0
VERTEX
8
CUT_INNER
10
68.5875
20
78.4390
30
0.0
0
VERTEX
8
CUT_INNER
10
70.3786
20
80.6780
30
0.0
0
VERTEX
8
CUT_INNER
10
75.9015
20
83.0662
30
0.0
0
VERTEX
8
CUT_INNER
10
75.6029
20
83.9618
30
0.0
0
VERTEX
8
CUT_INNER
10
70.0801
20
84.8574
30
0.0
0
VERTEX
8
CUT_INNER
10
66.7963
20
83.3647
30
0.0
0
VERTEX
8
CUT_INNER
10
63.9602
20
80.3794
30
0.0
0
VERTEX
8
CUT_INNER
10
60.3779
20
85.7530
30
0.0
0
SEQEND
8
CUT_INNER
0
POLYLINE
8
CUT_INNER
66
1
70
1
0
VERTEX
8
CUT_INNER
10
236.8096
20
87.9920
30
0.0
0
VERTEX
8
CUT_INNER
10
220.5397
20
56.3477
30
0.0
0
VERTEX
8
CUT_INNER
10
237.1081
20
54.8550
30
0.0
0
SEQEND
8
CUT_INNER
0
POLYLINE
8
CUT_INNER
66
1
70
1
0
VERTEX
8
CUT_INNER
10
25.8976
20
91.7236
30
0.0
0
VERTEX
8
CUT_INNER
10
24.7034
20
89.4846
30
0.0
0
VERTEX
8
CUT_INNER
10
32.9130
20
75.3044
30
0.0
0
VERTEX
8
CUT_INNER
10
33.5101
20
80.3794
30
0.0
0
VERTEX
8
CUT_INNER
10
32.6145
20
83.9618
30
0.0
0
VERTEX
8
CUT_INNER
10
29.9277
20
88.4398
30
0.0
0
SEQEND
8
CUT_INNER
0
POLYLINE
8
CUT_INNER
66
1
70
1
0
VERTEX
8
CUT_INNER
10
125.3083
20
83.0662
30
0.0
0
VERTEX
8
CUT_INNER
10
125.0098
20
79.9316
30
0.0
0
VERTEX
8
CUT_INNER
10
122.9201
20
79.1853
30
0.0
0
VERTEX
8
CUT_INNER
10
122.9201
20
71.5728
30
0.0
0
VERTEX
8
CUT_INNER
10
126.8010
20
65.9007
30
0.0
0
VERTEX
8
CUT_INNER
10
128.2936
20
56.0492
30
0.0
0
VERTEX
8
CUT_INNER
10
132.0253
20
55.0043
30
0.0
0
VERTEX
8
CUT_INNER
10
133.0701
20
53.3624
30
0.0
0
VERTEX
8
CUT_INNER
10
131.8760
20
49.9293
30
0.0
0
VERTEX
8
CUT_INNER
10
169.0431
20
50.0786
30
0.0
0
VERTEX
8
CUT_INNER
10
169.0431
20
55.8999
30
0.0
0
VERTEX
8
CUT_INNER
10
165.7593
20
56.9448
30
0.0
0
VERTEX
8
CUT_INNER
10
165.7593
20
62.7661
30
0.0
0
VERTEX
8
CUT_INNER
10
161.2813
20
63.5124
30
0.0
0
VERTEX
8
CUT_INNER
10
161.2813
20
71.4235
30
0.0
0
VERTEX
8
CUT_INNER
10
159.4901
20
72.1698
30
0.0
0
VERTEX
8
CUT_INNER
10
158.8930
20
74.4088
30
0.0
0
VERTEX
8
CUT_INNER
10
153.0717
20
74.4088
30
0.0
0
VERTEX
8
CUT_INNER
10
152.4746
20
72.1698
30
0.0
0
VERTEX
8
CUT_INNER
10
150.6834
20
71.4235
30
0.0
0
VERTEX
8
CUT_INNER
10
150.6834
20
58.4374
30
0.0
0
VERTEX
8
CUT_INNER
10
148.4445
20
58.4374
30
0.0
0
VERTEX
8
CUT_INNER
10
148.4445
20
62.1690
30
0.0
0
VERTEX
8
CUT_INNER
10
146.0562
20
62.9154
30
0.0
0
VERTEX
8
CUT_INNER
10
146.0562
20
86.0515
30
0.0
0
VERTEX
8
CUT_INNER
10
144.2650
20
86.7978
30
0.0
0
VERTEX
8
CUT_INNER
10
142.7724
20
93.5148
30
0.0
0
VERTEX
8
CUT_INNER
10
141.4290
20
93.5148
30
0.0
0
VERTEX
8
CUT_INNER
10
139.9363
20
86.7978
30
0.0
0
VERTEX
8
CUT_INNER
10
138.1452
20
86.0515
30
0.0
0
VERTEX
8
CUT_INNER
10
137.2496
20
66.4977
30
0.0
0
VERTEX
8
CUT_INNER
10
133.2194
20
66.7963
30
0.0
0
VERTEX
8
CUT_INNER
10
133.2194
20
79.1853
30
0.0
0
VERTEX
8
CUT_INNER
10
130.5326
20
79.9316
30
0.0
0
VERTEX
8
CUT_INNER
10
130.5326
20
83.0662
30
0.0
0
SEQEND
8
CUT_INNER
0
POLYLINE
8
CUT_INNER
66
1
70
1
0
VERTEX
8
CUT_INNER
10
182.6262
20
88.7383
30
0.0
0
VERTEX
8
CUT_INNER
10
178.4468
20
85.4545
30
0.0
0
VERTEX
8
CUT_INNER
10
178.4468
20
83.8125
30
0.0
0
VERTEX
8
CUT_INNER
10
190.6866
20
80.8272
30
0.0
0
VERTEX
8
CUT_INNER
10
194.5675
20
84.1111
30
0.0
0
VERTEX
8
CUT_INNER
10
196.2094
20
82.9169
30
0.0
0
VERTEX
8
CUT_INNER
10
199.7918
20
84.7081
30
0.0
0
VERTEX
8
CUT_INNER
10
202.3293
20
83.5140
30
0.0
0
VERTEX
8
CUT_INNER
10
202.6278
20
77.6927
30
0.0
0
VERTEX
8
CUT_INNER
10
200.6874
20
74.7073
30
0.0
0
VERTEX
8
CUT_INNER
10
198.8962
20
76.7971
30
0.0
0
VERTEX
8
CUT_INNER
10
198.2991
20
79.9316
30
0.0
0
VERTEX
8
CUT_INNER
10
196.0601
20
79.0360
30
0.0
0
VERTEX
8
CUT_INNER
10
194.1197
20
80.3794
30
0.0
0
VERTEX
8
CUT_INNER
10
193.3734
20
79.0360
30
0.0
0
VERTEX
8
CUT_INNER
10
198.1499
20
72.7669
30
0.0
0
VERTEX
8
CUT_INNER
10
200.5381
20
60.5271
30
0.0
0
VERTEX
8
CUT_INNER
10
199.3440
20
48.4366
30
0.0
0
VERTEX
8
CUT_INNER
10
193.9704
20
36.4954
30
0.0
0
VERTEX
8
CUT_INNER
10
212.6286
20
36.4954
30
0.0
0
VERTEX
8
CUT_INNER
10
206.0609
20
43.0631
30
0.0
0
VERTEX
8
CUT_INNER
10
205.4639
20
58.1389
30
0.0
0
VERTEX
8
CUT_INNER
10
207.2550
20
63.2139
30
0.0
0
VERTEX
8
CUT_INNER
10
213.9720
20
69.1845
30
0.0
0
VERTEX
8
CUT_INNER
10
218.8977
20
70.3786
30
0.0
0
VERTEX
8
CUT_INNER
10
219.4948
20
71.7220
30
0.0
0
VERTEX
8
CUT_INNER
10
215.9124
20
74.1103
30
0.0
0
VERTEX
8
CUT_INNER
10
212.0315
20
75.0059
30
0.0
0
VERTEX
8
CUT_INNER
10
206.8072
20
73.5132
30
0.0
0
VERTEX
8
CUT_INNER
10
204.7175
20
70.9757
30
0.0
0
VERTEX
8
CUT_INNER
10
208.2999
20
68.4382
30
0.0
0
VERTEX
8
CUT_INNER
10
204.4190
20
63.3632
30
0.0
0
VERTEX
8
CUT_INNER
10
202.4786
20
67.5426
30
0.0
0
VERTEX
8
CUT_INNER
10
202.4786
20
72.1698
30
0.0
0
VERTEX
8
CUT_INNER
10
203.6727
20
74.5581
30
0.0
0
VERTEX
8
CUT_INNER
10
208.8970
20
78.8868
30
0.0
0
VERTEX
8
CUT_INNER
10
208.0014
20
79.9316
30
0.0
0
VERTEX
8
CUT_INNER
10
204.5683
20
78.7375
30
0.0
0
VERTEX
8
CUT_INNER
10
207.4043
20
83.6633
30
0.0
0
VERTEX
8
CUT_INNER
10
208.8970
20
83.6633
30
0.0
0
VERTEX
8
CUT_INNER
10
211.7330
20
80.5287
30
0.0
0
VERTEX
8
CUT_INNER
10
213.9720
20
81.7228
30
0.0
0
VERTEX
8
CUT_INNER
10
218.0022
20
81.1258
30
0.0
0
VERTEX
8
CUT_INNER
10
224.8684
20
82.6184
30
0.0
0
VERTEX
8
CUT_INNER
10
226.6595
20
83.8125
30
0.0
0
VERTEX
8
CUT_INNER
10
226.6595
20
85.1559
30
0.0
0
VERTEX
8
CUT_INNER
10
223.6742
20
88.1412
30
0.0
0
VERTEX
8
CUT_INNER
10
219.6441
20
89.4846
30
0.0
0
VERTEX
8
CUT_INNER
10
217.1066
20
91.7236
30
0.0
0
VERTEX
8
CUT_INNER
10
212.4793
20
92.0221
30
0.0
0
VERTEX
8
CUT_INNER
10
207.8521
20
94.1119
30
0.0
0
VERTEX
8
CUT_INNER
10
203.6727
20
93.2163
30
0.0
0
VERTEX
8
CUT_INNER
10
199.0454
20
94.1119
30
0.0
0
SEQEND
8
CUT_INNER
0
POLYLINE
8
CUT_INNER
66
1
70
1
0
VERTEX
8
CUT_INNER
10
239.4964
20
101.7244
30
0.0
0
VERTEX
8
CUT_INNER
10
238.4515
20
101.2766
30
0.0
0
VERTEX
8
CUT_INNER
10
238.7500
20
53.5117
30
0.0
0
VERTEX
8
CUT_INNER
10
212.4793
20
53.5117
30
0.0
0
VERTEX
8
CUT_INNER
10
214.8676
20
49.7800
30
0.0
0
VERTEX
8
CUT_INNER
10
219.9426
20
45.8991
30
0.0
0
VERTEX
8
CUT_INNER
10
223.6742
20
45.3021
30
0.0
0
VERTEX
8
CUT_INNER
10
232.3316
20
46.7947
30
0.0
0
VERTEX
8
CUT_INNER
10
241.5861
20
45.3021
30
0.0
0
VERTEX
8
CUT_INNER
10
246.9596
20
46.1976
30
0.0
0
VERTEX
8
CUT_INNER
10
253.6766
20
52.7653
30
0.0
0
VERTEX
8
CUT_INNER
10
241.8846
20
52.9146
30
0.0
0
VERTEX
8
CUT_INNER
10
241.2876
20
55.6014
30
0.0
0
VERTEX
8
CUT_INNER
10
256.5126
20
57.5418
30
0.0
0
VERTEX
8
CUT_INNER
10
255.9156
20
64.8558
30
0.0
0
VERTEX
8
CUT_INNER
10
252.6317
20
77.3941
30
0.0
0
VERTEX
8
CUT_INNER
10
246.6611
20
90.2310
30
0.0
0
SEQEND
8
CUT_INNER
0
POLYLINE
8
CUT_INNER
66
1
70
1
0
VERTEX
8
CUT_INNER
10
245.0192
20
101.1273
30
0.0
0
VERTEX
8
CUT_INNER
10
245.3177
20
100.3810
30
0.0
0
VERTEX
8
CUT_INNER
10
252.3332
20
100.5303
30
0.0
0
VERTEX
8
CUT_INNER
10
260.5428
20
97.8435
30
0.0
0
VERTEX
8
CUT_INNER
10
269.4987
20
100.2317
30
0.0
0
VERTEX
8
CUT_INNER
10
274.4245
20
100.3810
30
0.0
0
VERTEX
8
CUT_INNER
10
271.7377
20
102.1722
30
0.0
0
VERTEX
8
CUT_INNER
10
261.7369
20
100.9781
30
0.0
0
VERTEX
8
CUT_INNER
10
254.1244
20
103.3663
30
0.0
0
VERTEX
8
CUT_INNER
10
249.4972
20
103.0678
30
0.0
0
SEQEND
8
CUT_INNER
0
POLYLINE
8
CUT_INNER
66
1
70
1
0
VERTEX
8
CUT_INNER
10
203.8219
20
103.6648
30
0.0
0
VERTEX
8
CUT_INNER
10
202.0308
20
102.4707
30
0.0
0
VERTEX
8
CUT_INNER
10
201.7322
20
100.8288
30
0.0
0
VERTEX
8
CUT_INNER
10
204.2697
20
99.0376
30
0.0
0
VERTEX
8
CUT_INNER
10
206.0609
20
100.2317
30
0.0
0
VERTEX
8
CUT_INNER
10
206.3595
20
101.8737
30
0.0
0
SEQEND
8
CUT_INNER
0
POLYLINE
8
CUT_INNER
66
1
70
1
0
VERTEX
8
CUT_INNER
10
287.1120
20
106.6501
30
0.0
0
VERTEX
8
CUT_INNER
10
282.3356
20
103.9634
30
0.0
0
VERTEX
8
CUT_INNER
10
279.6488
20
100.9781
30
0.0
0
VERTEX
8
CUT_INNER
10
276.9620
20
94.1119
30
0.0
0
VERTEX
8
CUT_INNER
10
276.9620
20
89.7832
30
0.0
0
VERTEX
8
CUT_INNER
10
280.5444
20
90.3802
30
0.0
0
SEQEND
8
CUT_INNER
0
POLYLINE
8
CUT_INNER
66
1
70
1
0
VERTEX
8
CUT_INNER
10
218.4500
20
109.9340
30
0.0
0
VERTEX
8
CUT_INNER
10
218.7485
20
109.1877
30
0.0
0
VERTEX
8
CUT_INNER
10
229.6449
20
109.1877
30
0.0
0
VERTEX
8
CUT_INNER
10
241.1383
20
105.0082
30
0.0
0
VERTEX
8
CUT_INNER
10
251.2883
20
107.0979
30
0.0
0
VERTEX
8
CUT_INNER
10
266.0656
20
105.0082
30
0.0
0
VERTEX
8
CUT_INNER
10
273.6782
20
107.6950
30
0.0
0
VERTEX
8
CUT_INNER
10
279.2010
20
107.8443
30
0.0
0
VERTEX
8
CUT_INNER
10
275.0215
20
110.2325
30
0.0
0
VERTEX
8
CUT_INNER
10
263.5281
20
108.7399
30
0.0
0
VERTEX
8
CUT_INNER
10
255.6170
20
111.4266
30
0.0
0
VERTEX
8
CUT_INNER
10
240.8398
20
109.3369
30
0.0
0
VERTEX
8
CUT_INNER
10
229.6449
20
112.6208
30
0.0
0
VERTEX
8
CUT_INNER
10
224.1220
20
112.3222
30
0.0
0
SEQEND
8
CUT_INNER
0
POLYLINE
8
CUT_INNER
66
1
70
1
0
VERTEX
8
CUT_INNER
10
187.9998
20
113.8149
30
0.0
0
VERTEX
8
CUT_INNER
10
187.9998
20
108.8891
30
0.0
0
VERTEX
8
CUT_INNER
10
189.3432
20
108.8891
30
0.0
0
VERTEX
8
CUT_INNER
10
190.2388
20
111.5759
30
0.0
0
VERTEX
8
CUT_INNER
10
191.5822
20
111.7252
30
0.0
0
VERTEX
8
CUT_INNER
10
191.5822
20
101.8737
30
0.0
0
VERTEX
8
CUT_INNER
10
190.3881
20
99.6347
30
0.0
0
VERTEX
8
CUT_INNER
10
197.1050
20
99.6347
30
0.0
0
VERTEX
8
CUT_INNER
10
197.4035
20
100.6795
30
0.0
0
VERTEX
8
CUT_INNER
10
196.2094
20
101.5751
30
0.0
0
VERTEX
8
CUT_INNER
10
196.2094
20
111.4266
30
0.0
0
VERTEX
8
CUT_INNER
10
197.5528
20
111.2774
30
0.0
0
VERTEX
8
CUT_INNER
10
198.1499
20
108.8891
30
0.0
0
VERTEX
8
CUT_INNER
10
199.4932
20
108.8891
30
0.0
0
VERTEX
8
CUT_INNER
10
199.7918
20
113.8149
30
0.0
0
SEQEND
8
CUT_INNER
0
POLYLINE
8
CUT_INNER
66
1
70
1
0
VERTEX
8
CUT_INNER
10
166.5056
20
114.1134
30
0.0
0
VERTEX
8
CUT_INNER
10
165.6100
20
112.7700
30
0.0
0
VERTEX
8
CUT_INNER
10
166.8041
20
111.5759
30
0.0
0
VERTEX
8
CUT_INNER
10
166.8041
20
101.8737
30
0.0
0
VERTEX
8
CUT_INNER
10
165.6100
20
99.9332
30
0.0
0
VERTEX
8
CUT_INNER
10
171.7299
20
99.3361
30
0.0
0
VERTEX
8
CUT_INNER
10
172.6255
20
100.6795
30
0.0
0
VERTEX
8
CUT_INNER
10
171.4313
20
101.8737
30
0.0
0
VERTEX
8
CUT_INNER
10
171.4313
20
111.8744
30
0.0
0
VERTEX
8
CUT_INNER
10
172.6255
20
113.5164
30
0.0
0
SEQEND
8
CUT_INNER
0
POLYLINE
8
CUT_INNER
66
1
70
1
0
VERTEX
8
CUT_INNER
10
153.0717
20
113.8149
30
0.0
0
VERTEX
8
CUT_INNER
10
153.6688
20
101.5751
30
0.0
0
VERTEX
8
CUT_INNER
10
152.7732
20
99.6347
30
0.0
0
VERTEX
8
CUT_INNER
10
163.3710
20
99.6347
30
0.0
0
VERTEX
8
CUT_INNER
10
162.7739
20
104.7097
30
0.0
0
VERTEX
8
CUT_INNER
10
160.0872
20
101.4259
30
0.0
0
VERTEX
8
CUT_INNER
10
158.5945
20
101.4259
30
0.0
0
VERTEX
8
CUT_INNER
10
158.5945
20
111.8744
30
0.0
0
VERTEX
8
CUT_INNER
10
159.4901
20
113.8149
30
0.0
0
SEQEND
8
CUT_INNER
0
POLYLINE
8
CUT_INNER
66
1
70
1
0
VERTEX
8
CUT_INNER
10
131.2789
20
113.8149
30
0.0
0
VERTEX
8
CUT_INNER
10
134.8613
20
105.0082
30
0.0
0
VERTEX
8
CUT_INNER
10
133.6672
20
99.6347
30
0.0
0
VERTEX
8
CUT_INNER
10
140.6827
20
99.6347
30
0.0
0
VERTEX
8
CUT_INNER
10
139.4885
20
101.8737
30
0.0
0
VERTEX
8
CUT_INNER
10
139.1900
20
106.9487
30
0.0
0
VERTEX
8
CUT_INNER
10
140.3841
20
107.3965
30
0.0
0
VERTEX
8
CUT_INNER
10
143.6680
20
113.5164
30
0.0
0
VERTEX
8
CUT_INNER
10
139.3393
20
113.8149
30
0.0
0
VERTEX
8
CUT_INNER
10
140.2349
20
111.1281
30
0.0
0
VERTEX
8
CUT_INNER
10
138.7422
20
109.0384
30
0.0
0
VERTEX
8
CUT_INNER
10
137.3988
20
110.8296
30
0.0
0
VERTEX
8
CUT_INNER
10
137.6974
20
113.8149
30
0.0
0
SEQEND
8
CUT_INNER
0
POLYLINE
8
CUT_INNER
66
1
70
1
0
VERTEX
8
CUT_INNER
10
113.6656
20
113.5164
30
0.0
0
VERTEX
8
CUT_INNER
10
115.7553
20
109.7847
30
0.0
0
VERTEX
8
CUT_INNER
10
114.8597
20
108.4413
30
0.0
0
VERTEX
8
CUT_INNER
10
114.8597
20
101.8737
30
0.0
0
VERTEX
8
CUT_INNER
10
113.6656
20
99.6347
30
0.0
0
VERTEX
8
CUT_INNER
10
120.0840
20
99.6347
30
0.0
0
VERTEX
8
CUT_INNER
10
122.6215
20
106.2024
30
0.0
0
VERTEX
8
CUT_INNER
10
123.2186
20
101.8737
30
0.0
0
VERTEX
8
CUT_INNER
10
122.0245
20
99.9332
30
0.0
0
VERTEX
8
CUT_INNER
10
128.7414
20
99.6347
30
0.0
0
VERTEX
8
CUT_INNER
10
127.8458
20
101.5751
30
0.0
0
VERTEX
8
CUT_INNER
10
128.4429
20
113.8149
30
0.0
0
VERTEX
8
CUT_INNER
10
123.2186
20
113.8149
30
0.0
0
VERTEX
8
CUT_INNER
10
123.2186
20
110.2325
30
0.0
0
VERTEX
8
CUT_INNER
10
121.2782
20
109.6355
30
0.0
0
VERTEX
8
CUT_INNER
10
119.4870
20
113.8149
30
0.0
0
SEQEND
8
CUT_INNER
0
POLYLINE
8
CUT_INNER
66
1
70
1
0
VERTEX
8
CUT_INNER
10
18.4343
20
114.2627
30
0.0
0
VERTEX
8
CUT_INNER
10
16.1953
20
110.9788
30
0.0
0
VERTEX
8
CUT_INNER
10
22.4644
20
95.0074
30
0.0
0
VERTEX
8
CUT_INNER
10
23.9571
20
100.5303
30
0.0
0
VERTEX
8
CUT_INNER
10
23.6586
20
105.4560
30
0.0
0
VERTEX
8
CUT_INNER
10
20.9718
20
112.0237
30
0.0
0
SEQEND
8
CUT_INNER
0
POLYLINE
8
CUT_INNER
66
1
70
1
0
VERTEX
8
CUT_INNER
10
185.1638
20
113.8149
30
0.0
0
VERTEX
8
CUT_INNER
10
179.6409
20
114.4119
30
0.0
0
VERTEX
8
CUT_INNER
10
176.3571
20
112.9193
30
0.0
0
VERTEX
8
CUT_INNER
10
175.1630
20
110.5310
30
0.0
0
VERTEX
8
CUT_INNER
10
175.4615
20
107.3965
30
0.0
0
VERTEX
8
CUT_INNER
10
181.8799
20
102.0229
30
0.0
0
VERTEX
8
CUT_INNER
10
179.9395
20
100.3810
30
0.0
0
VERTEX
8
CUT_INNER
10
176.0586
20
104.8590
30
0.0
0
VERTEX
8
CUT_INNER
10
175.1630
20
104.2619
30
0.0
0
VERTEX
8
CUT_INNER
10
175.4615
20
99.3361
30
0.0
0
VERTEX
8
CUT_INNER
10
181.5814
20
99.0376
30
0.0
0
VERTEX
8
CUT_INNER
10
185.1638
20
101.1273
30
0.0
0
VERTEX
8
CUT_INNER
10
185.1638
20
106.9487
30
0.0
0
VERTEX
8
CUT_INNER
10
179.0439
20
111.2774
30
0.0
0
VERTEX
8
CUT_INNER
10
180.6858
20
113.0686
30
0.0
0
VERTEX
8
CUT_INNER
10
184.5667
20
108.8891
30
0.0
0
VERTEX
8
CUT_INNER
10
185.4623
20
109.7847
30
0.0
0
SEQEND
8
CUT_INNER
0
POLYLINE
8
CUT_INNER
66
1
70
1
0
VERTEX
8
CUT_INNER
10
30.9726
20
119.4870
30
0.0
0
VERTEX
8
CUT_INNER
10
29.4799
20
118.2929
30
0.0
0
VERTEX
8
CUT_INNER
10
29.4799
20
116.3524
30
0.0
0
VERTEX
8
CUT_INNER
10
30.9726
20
114.8597
30
0.0
0
VERTEX
8
CUT_INNER
10
33.6594
20
85.6037
30
0.0
0
VERTEX
8
CUT_INNER
10
34.8535
20
80.8272
30
0.0
0
VERTEX
8
CUT_INNER
10
35.8983
20
80.5287
30
0.0
0
VERTEX
8
CUT_INNER
10
36.4954
20
82.4691
30
0.0
0
VERTEX
8
CUT_INNER
10
34.1071
20
106.3516
30
0.0
0
VERTEX
8
CUT_INNER
10
35.4505
20
106.2024
30
0.0
0
VERTEX
8
CUT_INNER
10
35.5998
20
100.6795
30
0.0
0
VERTEX
8
CUT_INNER
10
36.6447
20
98.7391
30
0.0
0
VERTEX
8
CUT_INNER
10
42.7645
20
99.3361
30
0.0
0
VERTEX
8
CUT_INNER
10
49.4815
20
97.2464
30
0.0
0
VERTEX
8
CUT_INNER
10
54.1087
20
97.2464
30
0.0
0
VERTEX
8
CUT_INNER
10
57.6911
20
99.0376
30
0.0
0
VERTEX
8
CUT_INNER
10
56.4970
20
103.3663
30
0.0
0
VERTEX
8
CUT_INNER
10
57.3926
20
112.0237
30
0.0
0
VERTEX
8
CUT_INNER
10
49.7800
20
111.4266
30
0.0
0
VERTEX
8
CUT_INNER
10
41.2719
20
114.7105
30
0.0
0
VERTEX
8
CUT_INNER
10
36.3461
20
114.7105
30
0.0
0
VERTEX
8
CUT_INNER
10
34.5549
20
113.8149
30
0.0
0
VERTEX
8
CUT_INNER
10
34.5549
20
106.6501
30
0.0
0
VERTEX
8
CUT_INNER
10
33.2116
20
112.9193
30
0.0
0
VERTEX
8
CUT_INNER
10
33.8086
20
118.2929
30
0.0
0
SEQEND
8
CUT_INNER
0
POLYLINE
8
CUT_INNER
66
1
70
1
0
VERTEX
8
CUT_INNER
10
292.3363
20
128.7414
30
0.0
0
VERTEX
8
CUT_INNER
10
287.7091
20
125.1591
30
0.0
0
VERTEX
8
CUT_INNER
10
285.3209
20
121.2782
30
0.0
0
VERTEX
8
CUT_INNER
10
284.1267
20
117.0987
30
0.0
0
VERTEX
8
CUT_INNER
10
284.1267
20
110.9788
30
0.0
0
VERTEX
8
CUT_INNER
10
285.0223
20
110.0833
30
0.0
0
VERTEX
8
CUT_INNER
10
288.7540
20
111.5759
30
0.0
0
SEQEND
8
CUT_INNER
0
POLYLINE
8
CUT_INNER
66
1
70
1
0
VERTEX
8
CUT_INNER
10
208.2999
20
134.7120
30
0.0
0
VERTEX
8
CUT_INNER
10
210.2404
20
131.1297
30
0.0
0
VERTEX
8
CUT_INNER
10
208.2999
20
121.1289
30
0.0
0
VERTEX
8
CUT_INNER
10
212.3301
20
121.1289
30
0.0
0
VERTEX
8
CUT_INNER
10
210.8374
20
123.9649
30
0.0
0
VERTEX
8
CUT_INNER
10
211.4345
20
128.2936
30
0.0
0
VERTEX
8
CUT_INNER
10
215.7632
20
120.8304
30
0.0
0
VERTEX
8
CUT_INNER
10
218.8977
20
120.8304
30
0.0
0
VERTEX
8
CUT_INNER
10
218.4500
20
126.9502
30
0.0
0
VERTEX
8
CUT_INNER
10
220.3904
20
134.7120
30
0.0
0
VERTEX
8
CUT_INNER
10
216.3602
20
134.7120
30
0.0
0
VERTEX
8
CUT_INNER
10
217.5544
20
132.4731
30
0.0
0
VERTEX
8
CUT_INNER
10
216.9573
20
129.9356
30
0.0
0
VERTEX
8
CUT_INNER
10
213.8227
20
134.7120
30
0.0
0
SEQEND
8
CUT_INNER
0
POLYLINE
8
CUT_INNER
66
1
70
1
0
VERTEX
8
CUT_INNER
10
157.8482
20
134.7120
30
0.0
0
VERTEX
8
CUT_INNER
10
158.1467
20
130.0848
30
0.0
0
VERTEX
8
CUT_INNER
10
159.4901
20
130.0848
30
0.0
0
VERTEX
8
CUT_INNER
10
160.0872
20
132.4731
30
0.0
0
VERTEX
8
CUT_INNER
10
161.4306
20
132.6223
30
0.0
0
VERTEX
8
CUT_INNER
10
161.4306
20
123.0693
30
0.0
0
VERTEX
8
CUT_INNER
10
160.2364
20
121.1289
30
0.0
0
VERTEX
8
CUT_INNER
10
166.6548
20
120.8304
30
0.0
0
VERTEX
8
CUT_INNER
10
166.0578
20
132.0253
30
0.0
0
VERTEX
8
CUT_INNER
10
166.9534
20
132.3238
30
0.0
0
VERTEX
8
CUT_INNER
10
167.6997
20
130.0848
30
0.0
0
VERTEX
8
CUT_INNER
10
169.0431
20
130.0848
30
0.0
0
VERTEX
8
CUT_INNER
10
169.3416
20
134.7120
30
0.0
0
SEQEND
8
CUT_INNER
0
POLYLINE
8
CUT_INNER
66
1
70
1
0
VERTEX
8
CUT_INNER
10
150.6834
20
135.0106
30
0.0
0
VERTEX
8
CUT_INNER
10
149.7879
20
133.9657
30
0.0
0
VERTEX
8
CUT_INNER
10
150.9820
20
132.7716
30
0.0
0
VERTEX
8
CUT_INNER
10
150.9820
20
123.0693
30
0.0
0
VERTEX
8
CUT_INNER
10
149.7879
20
121.4274
30
0.0
0
VERTEX
8
CUT_INNER
10
155.3107
20
120.5318
30
0.0
0
VERTEX
8
CUT_INNER
10
156.5048
20
121.4274
30
0.0
0
VERTEX
8
CUT_INNER
10
155.3107
20
123.0693
30
0.0
0
VERTEX
8
CUT_INNER
10
155.3107
20
132.7716
30
0.0
0
VERTEX
8
CUT_INNER
10
156.5048
20
134.4135
30
0.0
0
SEQEND
8
CUT_INNER
0
POLYLINE
8
CUT_INNER
66
1
70
1
0
VERTEX
8
CUT_INNER
10
130.0848
20
134.7120
30
0.0
0
VERTEX
8
CUT_INNER
10
130.0848
20
130.0848
30
0.0
0
VERTEX
8
CUT_INNER
10
131.4282
20
130.0848
30
0.0
0
VERTEX
8
CUT_INNER
10
132.0253
20
132.1745
30
0.0
0
VERTEX
8
CUT_INNER
10
133.3687
20
132.3238
30
0.0
0
VERTEX
8
CUT_INNER
10
133.3687
20
123.0693
30
0.0
0
VERTEX
8
CUT_INNER
10
132.1745
20
121.4274
30
0.0
0
VERTEX
8
CUT_INNER
10
133.3687
20
120.5318
30
0.0
0
VERTEX
8
CUT_INNER
10
138.5929
20
120.8304
30
0.0
0
VERTEX
8
CUT_INNER
10
137.9959
20
132.3238
30
0.0
0
VERTEX
8
CUT_INNER
10
139.3393
20
132.1745
30
0.0
0
VERTEX
8
CUT_INNER
10
139.9363
20
130.0848
30
0.0
0
VERTEX
8
CUT_INNER
10
141.2797
20
130.0848
30
0.0
0
VERTEX
8
CUT_INNER
10
141.2797
20
134.7120
30
0.0
0
SEQEND
8
CUT_INNER
0
POLYLINE
8
CUT_INNER
66
1
70
1
0
VERTEX
8
CUT_INNER
10
116.3524
20
134.7120
30
0.0
0
VERTEX
8
CUT_INNER
10
117.5465
20
122.6215
30
0.0
0
VERTEX
8
CUT_INNER
10
120.8304
20
120.5318
30
0.0
0
VERTEX
8
CUT_INNER
10
125.7561
20
121.4274
30
0.0
0
VERTEX
8
CUT_INNER
10
127.2488
20
124.1142
30
0.0
0
VERTEX
8
CUT_INNER
10
127.2488
20
132.4731
30
0.0
0
VERTEX
8
CUT_INNER
10
128.4429
20
134.7120
30
0.0
0
VERTEX
8
CUT_INNER
10
124.4127
20
134.7120
30
0.0
0
VERTEX
8
CUT_INNER
10
125.6069
20
132.4731
30
0.0
0
VERTEX
8
CUT_INNER
10
125.6069
20
124.5620
30
0.0
0
VERTEX
8
CUT_INNER
10
123.3679
20
122.0245
30
0.0
0
VERTEX
8
CUT_INNER
10
121.8752
20
123.0693
30
0.0
0
VERTEX
8
CUT_INNER
10
121.8752
20
132.7716
30
0.0
0
VERTEX
8
CUT_INNER
10
122.7708
20
134.7120
30
0.0
0
SEQEND
8
CUT_INNER
0
POLYLINE
8
CUT_INNER
66
1
70
1
0
VERTEX
8
CUT_INNER
10
103.2170
20
134.7120
30
0.0
0
VERTEX
8
CUT_INNER
10
103.2170
20
121.1289
30
0.0
0
VERTEX
8
CUT_INNER
10
110.8296
20
120.5318
30
0.0
0
VERTEX
8
CUT_INNER
10
113.8149
20
121.7260
30
0.0
0
VERTEX
8
CUT_INNER
10
115.0090
20
125.7561
30
0.0
0
VERTEX
8
CUT_INNER
10
112.7700
20
128.4429
30
0.0
0
VERTEX
8
CUT_INNER
10
114.7105
20
130.3833
30
0.0
0
VERTEX
8
CUT_INNER
10
114.4119
20
133.2194
30
0.0
0
VERTEX
8
CUT_INNER
10
111.7252
20
135.0106
30
0.0
0
SEQEND
8
CUT_INNER
0
POLYLINE
8
CUT_INNER
66
1
70
1
0
VERTEX
8
CUT_INNER
10
202.1800
20
135.1598
30
0.0
0
VERTEX
8
CUT_INNER
10
201.1352
20
122.1738
30
0.0
0
VERTEX
8
CUT_INNER
10
199.4932
20
123.0693
30
0.0
0
VERTEX
8
CUT_INNER
10
199.0454
20
135.0106
30
0.0
0
VERTEX
8
CUT_INNER
10
196.3587
20
133.5179
30
0.0
0
VERTEX
8
CUT_INNER
10
194.8660
20
130.5326
30
0.0
0
VERTEX
8
CUT_INNER
10
195.1645
20
124.4127
30
0.0
0
VERTEX
8
CUT_INNER
10
196.6572
20
122.0245
30
0.0
0
VERTEX
8
CUT_INNER
10
199.6425
20
120.5318
30
0.0
0
VERTEX
8
CUT_INNER
10
203.9712
20
121.4274
30
0.0
0
VERTEX
8
CUT_INNER
10
206.6580
20
126.2039
30
0.0
0
VERTEX
8
CUT_INNER
10
206.0609
20
131.7267
30
0.0
0
SEQEND
8
CUT_INNER
0
POLYLINE
8
CUT_INNER
66
1
70
1
0
VERTEX
8
CUT_INNER
10
179.9395
20
135.3091
30
0.0
0
VERTEX
8
CUT_INNER
10
176.9542
20
133.2194
30
0.0
0
VERTEX
8
CUT_INNER
10
176.3571
20
129.4878
30
0.0
0
VERTEX
8
CUT_INNER
10
182.7755
20
123.2186
30
0.0
0
VERTEX
8
CUT_INNER
10
180.6858
20
121.8752
30
0.0
0
VERTEX
8
CUT_INNER
10
177.2527
20
126.0547
30
0.0
0
VERTEX
8
CUT_INNER
10
176.6556
20
120.8304
30
0.0
0
VERTEX
8
CUT_INNER
10
182.7755
20
120.5318
30
0.0
0
VERTEX
8
CUT_INNER
10
185.7608
20
122.3230
30
0.0
0
VERTEX
8
CUT_INNER
10
186.6564
20
126.0547
30
0.0
0
VERTEX
8
CUT_INNER
10
186.0594
20
127.8458
30
0.0
0
VERTEX
8
CUT_INNER
10
181.4321
20
130.6819
30
0.0
0
VERTEX
8
CUT_INNER
10
180.0887
20
132.7716
30
0.0
0
VERTEX
8
CUT_INNER
10
181.5814
20
133.9657
30
0.0
0
VERTEX
8
CUT_INNER
10
185.4623
20
130.0848
30
0.0
0
VERTEX
8
CUT_INNER
10
186.0594
20
134.7120
30
0.0
0
SEQEND
8
CUT_INNER
0
POLYLINE
8
CUT_INNER
66
1
70
1
0
VERTEX
8
CUT_INNER
10
172.9240
20
135.3091
30
0.0
0
VERTEX
8
CUT_INNER
10
170.6850
20
133.8165
30
0.0
0
VERTEX
8
CUT_INNER
10
172.1777
20
131.1297
30
0.0
0
VERTEX
8
CUT_INNER
10
170.9835
20
129.6370
30
0.0
0
VERTEX
8
CUT_INNER
10
171.5806
20
128.7414
30
0.0
0
VERTEX
8
CUT_INNER
10
175.0137
20
132.1745
30
0.0
0
VERTEX
8
CUT_INNER
10
174.7152
20
134.1150
30
0.0
0
SEQEND
8
CUT_INNER
0
POLYLINE
8
CUT_INNER
66
1
70
1
0
VERTEX
8
CUT_INNER
10
14.8519
20
136.5032
30
0.0
0
VERTEX
8
CUT_INNER
10
11.4188
20
132.6223
30
0.0
0
VERTEX
8
CUT_INNER
10
15.0012
20
116.2031
30
0.0
0
VERTEX
8
CUT_INNER
10
17.9865
20
121.7260
30
0.0
0
VERTEX
8
CUT_INNER
10
18.5835
20
127.5473
30
0.0
0
VERTEX
8
CUT_INNER
10
17.3894
20
132.9209
30
0.0
0
SEQEND
8
CUT_INNER
0
POLYLINE
8
CUT_INNER
66
1
70
1
0
VERTEX
8
CUT_INNER
10
74.8566
20
144.5636
30
0.0
0
VERTEX
8
CUT_INNER
10
72.1698
20
143.0709
30
0.0
0
VERTEX
8
CUT_INNER
10
71.5728
20
140.0856
30
0.0
0
VERTEX
8
CUT_INNER
10
70.0801
20
138.8915
30
0.0
0
VERTEX
8
CUT_INNER
10
72.4684
20
136.5032
30
0.0
0
VERTEX
8
CUT_INNER
10
64.4080
20
135.0106
30
0.0
0
VERTEX
8
CUT_INNER
10
62.3183
20
131.1297
30
0.0
0
VERTEX
8
CUT_INNER
10
62.9154
20
126.0547
30
0.0
0
VERTEX
8
CUT_INNER
10
61.4227
20
123.0693
30
0.0
0
VERTEX
8
CUT_INNER
10
61.7213
20
118.1436
30
0.0
0
VERTEX
8
CUT_INNER
10
62.9154
20
116.3524
30
0.0
0
VERTEX
8
CUT_INNER
10
67.6919
20
115.0090
30
0.0
0
VERTEX
8
CUT_INNER
10
68.5875
20
112.7700
30
0.0
0
VERTEX
8
CUT_INNER
10
67.9904
20
105.1575
30
0.0
0
VERTEX
8
CUT_INNER
10
65.6022
20
100.3810
30
0.0
0
VERTEX
8
CUT_INNER
10
63.8110
20
88.5890
30
0.0
0
VERTEX
8
CUT_INNER
10
72.6176
20
88.5890
30
0.0
0
VERTEX
8
CUT_INNER
10
72.6176
20
89.6339
30
0.0
0
VERTEX
8
CUT_INNER
10
69.0353
20
92.4699
30
0.0
0
VERTEX
8
CUT_INNER
10
71.1250
20
100.2317
30
0.0
0
VERTEX
8
CUT_INNER
10
74.7073
20
107.5457
30
0.0
0
VERTEX
8
CUT_INNER
10
77.2449
20
103.5156
30
0.0
0
VERTEX
8
CUT_INNER
10
77.2449
20
88.5890
30
0.0
0
VERTEX
8
CUT_INNER
10
84.8574
20
87.9920
30
0.0
0
VERTEX
8
CUT_INNER
10
86.3500
20
89.0368
30
0.0
0
VERTEX
8
CUT_INNER
10
82.0214
20
92.1714
30
0.0
0
VERTEX
8
CUT_INNER
10
82.1706
20
105.4560
30
0.0
0
VERTEX
8
CUT_INNER
10
79.1853
20
115.7553
30
0.0
0
VERTEX
8
CUT_INNER
10
79.7824
20
119.9348
30
0.0
0
VERTEX
8
CUT_INNER
10
86.7978
20
120.5318
30
0.0
0
VERTEX
8
CUT_INNER
10
87.3949
20
90.5295
30
0.0
0
VERTEX
8
CUT_INNER
10
86.6486
20
89.0368
30
0.0
0
VERTEX
8
CUT_INNER
10
90.8280
20
87.9920
30
0.0
0
VERTEX
8
CUT_INNER
10
91.7236
20
89.3354
30
0.0
0
VERTEX
8
CUT_INNER
10
89.0368
20
90.3802
30
0.0
0
VERTEX
8
CUT_INNER
10
89.0368
20
120.5318
30
0.0
0
VERTEX
8
CUT_INNER
10
90.2310
20
122.0245
30
0.0
0
VERTEX
8
CUT_INNER
10
89.3354
20
127.8458
30
0.0
0
VERTEX
8
CUT_INNER
10
87.3949
20
128.4429
30
0.0
0
VERTEX
8
CUT_INNER
10
87.0964
20
125.1591
30
0.0
0
VERTEX
8
CUT_INNER
10
85.6037
20
123.6664
30
0.0
0
VERTEX
8
CUT_INNER
10
80.3794
20
125.4576
30
0.0
0
VERTEX
8
CUT_INNER
10
79.1853
20
132.3238
30
0.0
0
VERTEX
8
CUT_INNER
10
77.2449
20
134.7120
30
0.0
0
VERTEX
8
CUT_INNER
10
79.4838
20
135.7569
30
0.0
0
VERTEX
8
CUT_INNER
10
79.7824
20
139.7871
30
0.0
0
VERTEX
8
CUT_INNER
10
82.1706
20
141.5783
30
0.0
0
VERTEX
8
CUT_INNER
10
76.7971
20
144.5636
30
0.0
0
SEQEND
8
CUT_INNER
0
POLYLINE
8
CUT_INNER
66
1
70
1
0
VERTEX
8
CUT_INNER
10
226.8088
20
145.4592
30
0.0
0
VERTEX
8
CUT_INNER
10
225.9132
20
143.9665
30
0.0
0
VERTEX
8
CUT_INNER
10
227.8537
20
141.5783
30
0.0
0
VERTEX
8
CUT_INNER
10
226.5103
20
140.0856
30
0.0
0
VERTEX
8
CUT_INNER
10
227.1073
20
139.0407
30
0.0
0
VERTEX
8
CUT_INNER
10
228.7493
20
139.6378
30
0.0
0
VERTEX
8
CUT_INNER
10
230.5405
20
142.3246
30
0.0
0
VERTEX
8
CUT_INNER
10
229.9434
20
145.1606
30
0.0
0
SEQEND
8
CUT_INNER
0
POLYLINE
8
CUT_INNER
66
1
70
1
0
VERTEX
8
CUT_INNER
10
294.4261
20
151.5790
30
0.0
0
VERTEX
8
CUT_INNER
10
290.3959
20
147.5489
30
0.0
0
VERTEX
8
CUT_INNER
10
288.3062
20
142.1753
30
0.0
0
VERTEX
8
CUT_INNER
10
288.3062
20
135.7569
30
0.0
0
VERTEX
8
CUT_INNER
10
290.0974
20
131.8760
30
0.0
0
VERTEX
8
CUT_INNER
10
293.5305
20
133.9657
30
0.0
0
SEQEND
8
CUT_INNER
0
POLYLINE
8
CUT_INNER
66
1
70
1
0
VERTEX
8
CUT_INNER
10
213.3749
20
156.2063
30
0.0
0
VERTEX
8
CUT_INNER
10
213.9720
20
144.2650
30
0.0
0
VERTEX
8
CUT_INNER
10
213.0764
20
142.6231
30
0.0
0
VERTEX
8
CUT_INNER
10
223.6742
20
142.3246
30
0.0
0
VERTEX
8
CUT_INNER
10
223.6742
20
146.6533
30
0.0
0
VERTEX
8
CUT_INNER
10
221.5845
20
147.1011
30
0.0
0
VERTEX
8
CUT_INNER
10
221.5845
20
151.7283
30
0.0
0
VERTEX
8
CUT_INNER
10
223.3757
20
152.1761
30
0.0
0
VERTEX
8
CUT_INNER
10
223.3757
20
156.2063
30
0.0
0
SEQEND
8
CUT_INNER
0
POLYLINE
8
CUT_INNER
66
1
70
1
0
VERTEX
8
CUT_INNER
10
198.7469
20
156.2063
30
0.0
0
VERTEX
8
CUT_INNER
10
199.6425
20
154.2658
30
0.0
0
VERTEX
8
CUT_INNER
10
199.6425
20
144.2650
30
0.0
0
VERTEX
8
CUT_INNER
10
198.7469
20
142.3246
30
0.0
0
VERTEX
8
CUT_INNER
10
204.2697
20
142.0261
30
0.0
0
VERTEX
8
CUT_INNER
10
205.7624
20
143.2202
30
0.0
0
VERTEX
8
CUT_INNER
10
209.3448
20
141.7275
30
0.0
0
VERTEX
8
CUT_INNER
10
211.1359
20
142.6231
30
0.0
0
VERTEX
8
CUT_INNER
10
211.7330
20
144.5636
30
0.0
0
VERTEX
8
CUT_INNER
10
210.2404
20
145.0114
30
0.0
0
VERTEX
8
CUT_INNER
10
210.2404
20
147.5489
30
0.0
0
VERTEX
8
CUT_INNER
10
208.5984
20
149.0415
30
0.0
0
VERTEX
8
CUT_INNER
10
210.5389
20
152.1761
30
0.0
0
VERTEX
8
CUT_INNER
10
209.9418
20
154.7136
30
0.0
0
VERTEX
8
CUT_INNER
10
206.9565
20
156.5048
30
0.0
0
SEQEND
8
CUT_INNER
0
POLYLINE
8
CUT_INNER
66
1
70
1
0
VERTEX
8
CUT_INNER
10
186.2086
20
156.2063
30
0.0
0
VERTEX
8
CUT_INNER
10
187.1042
20
154.2658
30
0.0
0
VERTEX
8
CUT_INNER
10
187.1042
20
144.2650
30
0.0
0
VERTEX
8
CUT_INNER
10
186.2086
20
142.3246
30
0.0
0
VERTEX
8
CUT_INNER
10
196.5079
20
142.3246
30
0.0
0
VERTEX
8
CUT_INNER
10
196.5079
20
146.6533
30
0.0
0
VERTEX
8
CUT_INNER
10
194.7167
20
147.2503
30
0.0
0
VERTEX
8
CUT_INNER
10
194.7167
20
151.7283
30
0.0
0
VERTEX
8
CUT_INNER
10
196.5079
20
152.1761
30
0.0
0
VERTEX
8
CUT_INNER
10
196.5079
20
156.2063
30
0.0
0
SEQEND
8
CUT_INNER
0
POLYLINE
8
CUT_INNER
66
1
70
1
0
VERTEX
8
CUT_INNER
10
171.2821
20
156.2063
30
0.0
0
VERTEX
8
CUT_INNER
10
171.8791
20
144.2650
30
0.0
0
VERTEX
8
CUT_INNER
10
170.9835
20
142.6231
30
0.0
0
VERTEX
8
CUT_INNER
10
183.9696
20
142.3246
30
0.0
0
VERTEX
8
CUT_INNER
10
183.3726
20
154.2658
30
0.0
0
VERTEX
8
CUT_INNER
10
184.2682
20
155.9077
30
0.0
0
SEQEND
8
CUT_INNER
0
POLYLINE
8
CUT_INNER
66
1
70
1
0
VERTEX
8
CUT_INNER
10
153.0717
20
156.2063
30
0.0
0
VERTEX
8
CUT_INNER
10
156.6541
20
142.3246
30
0.0
0
VERTEX
8
CUT_INNER
10
159.4901
20
142.3246
30
0.0
0
VERTEX
8
CUT_INNER
10
160.8335
20
145.6084
30
0.0
0
VERTEX
8
CUT_INNER
10
162.3262
20
142.3246
30
0.0
0
VERTEX
8
CUT_INNER
10
165.1622
20
142.3246
30
0.0
0
VERTEX
8
CUT_INNER
10
165.7593
20
147.9967
30
0.0
0
VERTEX
8
CUT_INNER
10
169.3416
20
155.9077
30
0.0
0
VERTEX
8
CUT_INNER
10
165.3115
20
156.2063
30
0.0
0
VERTEX
8
CUT_INNER
10
166.2071
20
153.5195
30
0.0
0
VERTEX
8
CUT_INNER
10
165.0129
20
152.0268
30
0.0
0
VERTEX
8
CUT_INNER
10
163.6695
20
155.9077
30
0.0
0
VERTEX
8
CUT_INNER
10
161.7291
20
156.5048
30
0.0
0
VERTEX
8
CUT_INNER
10
159.6394
20
152.0268
30
0.0
0
VERTEX
8
CUT_INNER
10
158.5945
20
153.8180
30
0.0
0
VERTEX
8
CUT_INNER
10
159.1916
20
156.2063
30
0.0
0
SEQEND
8
CUT_INNER
0
POLYLINE
8
CUT_INNER
66
1
70
1
0
VERTEX
8
CUT_INNER
10
139.6378
20
156.2063
30
0.0
0
VERTEX
8
CUT_INNER
10
142.9216
20
147.6981
30
0.0
0
VERTEX
8
CUT_INNER
10
142.9216
20
144.2650
30
0.0
0
VERTEX
8
CUT_INNER
10
141.7275
20
142.6231
30
0.0
0
VERTEX
8
CUT_INNER
10
148.4445
20
142.3246
30
0.0
0
VERTEX
8
CUT_INNER
10
147.3996
20
149.4893
30
0.0
0
VERTEX
8
CUT_INNER
10
151.4298
20
156.2063
30
0.0
0
SEQEND
8
CUT_INNER
0
POLYLINE
8
CUT_INNER
66
1
70
1
0
VERTEX
8
CUT_INNER
10
125.9054
20
156.2063
30
0.0
0
VERTEX
8
CUT_INNER
10
126.5024
20
144.2650
30
0.0
0
VERTEX
8
CUT_INNER
10
125.6069
20
142.6231
30
0.0
0
VERTEX
8
CUT_INNER
10
131.4282
20
142.0261
30
0.0
0
VERTEX
8
CUT_INNER
10
132.6223
20
143.5187
30
0.0
0
VERTEX
8
CUT_INNER
10
135.1598
20
141.7275
30
0.0
0
VERTEX
8
CUT_INNER
10
137.6974
20
142.3246
30
0.0
0
VERTEX
8
CUT_INNER
10
138.8915
20
144.5636
30
0.0
0
VERTEX
8
CUT_INNER
10
137.3988
20
145.3099
30
0.0
0
VERTEX
8
CUT_INNER
10
137.1003
20
147.8474
30
0.0
0
VERTEX
8
CUT_INNER
10
135.4584
20
149.0415
30
0.0
0
VERTEX
8
CUT_INNER
10
137.3988
20
151.5790
30
0.0
0
VERTEX
8
CUT_INNER
10
136.8018
20
155.0121
30
0.0
0
VERTEX
8
CUT_INNER
10
133.8165
20
156.5048
30
0.0
0
SEQEND
8
CUT_INNER
0
POLYLINE
8
CUT_INNER
66
1
70
1
0
VERTEX
8
CUT_INNER
10
113.3671
20
156.2063
30
0.0
0
VERTEX
8
CUT_INNER
10
113.9642
20
144.2650
30
0.0
0
VERTEX
8
CUT_INNER
10
113.0686
20
142.6231
30
0.0
0
VERTEX
8
CUT_INNER
10
123.6664
20
142.3246
30
0.0
0
VERTEX
8
CUT_INNER
10
123.6664
20
146.3548
30
0.0
0
VERTEX
8
CUT_INNER
10
121.5767
20
147.1011
30
0.0
0
VERTEX
8
CUT_INNER
10
121.5767
20
151.7283
30
0.0
0
VERTEX
8
CUT_INNER
10
123.3679
20
152.1761
30
0.0
0
VERTEX
8
CUT_INNER
10
123.3679
20
156.2063
30
0.0
0
SEQEND
8
CUT_INNER
0
POLYLINE
8
CUT_INNER
66
1
70
1
0
VERTEX
8
CUT_INNER
10
100.5303
20
156.5048
30
0.0
0
VERTEX
8
CUT_INNER
10
99.6347
20
154.8629
30
0.0
0
VERTEX
8
CUT_INNER
10
103.5156
20
142.9216
30
0.0
0
VERTEX
8
CUT_INNER
10
106.6501
20
142.0261
30
0.0
0
VERTEX
8
CUT_INNER
10
107.8443
20
144.4143
30
0.0
0
VERTEX
8
CUT_INNER
10
107.5457
20
147.1011
30
0.0
0
VERTEX
8
CUT_INNER
10
108.7399
20
147.6981
30
0.0
0
VERTEX
8
CUT_INNER
10
111.7252
20
156.2063
30
0.0
0
VERTEX
8
CUT_INNER
10
107.9935
20
156.5048
30
0.0
0
VERTEX
8
CUT_INNER
10
106.7994
20
155.6092
30
0.0
0
SEQEND
8
CUT_INNER
0
POLYLINE
8
CUT_INNER
66
1
70
1
0
VERTEX
8
CUT_INNER
10
87.6934
20
156.2063
30
0.0
0
VERTEX
8
CUT_INNER
10
88.2905
20
144.2650
30
0.0
0
VERTEX
8
CUT_INNER
10
87.3949
20
142.3246
30
0.0
0
VERTEX
8
CUT_INNER
10
97.6942
20
142.3246
30
0.0
0
VERTEX
8
CUT_INNER
10
97.6942
20
146.6533
30
0.0
0
VERTEX
8
CUT_INNER
10
95.9030
20
147.1011
30
0.0
0
VERTEX
8
CUT_INNER
10
95.9030
20
151.7283
30
0.0
0
VERTEX
8
CUT_INNER
10
97.6942
20
152.1761
30
0.0
0
VERTEX
8
CUT_INNER
10
97.6942
20
156.2063
30
0.0
0
SEQEND
8
CUT_INNER
0
POLYLINE
8
CUT_INNER
66
1
70
1
0
VERTEX
8
CUT_INNER
10
14.1056
20
158.5945
30
0.0
0
VERTEX
8
CUT_INNER
10
10.0754
20
155.6092
30
0.0
0
VERTEX
8
CUT_INNER
10
11.1203
20
138.2944
30
0.0
0
VERTEX
8
CUT_INNER
10
14.4041
20
142.6231
30
0.0
0
VERTEX
8
CUT_INNER
10
16.1953
20
147.6981
30
0.0
0
VERTEX
8
CUT_INNER
10
16.1953
20
154.1166
30
0.0
0
SEQEND
8
CUT_INNER
0
POLYLINE
8
CUT_INNER
66
1
70
1
0
VERTEX
8
CUT_INNER
10
292.4856
20
175.4615
30
0.0
0
VERTEX
8
CUT_INNER
10
290.3959
20
172.9240
30
0.0
0
VERTEX
8
CUT_INNER
10
288.0076
20
166.6548
30
0.0
0
VERTEX
8
CUT_INNER
10
288.6047
20
159.0423
30
0.0
0
VERTEX
8
CUT_INNER
10
291.2915
20
154.5643
30
0.0
0
VERTEX
8
CUT_INNER
10
294.5753
20
157.2511
30
0.0
0
SEQEND
8
CUT_INNER
0
POLYLINE
8
CUT_INNER
66
1
70
1
0
VERTEX
8
CUT_INNER
10
99.6347
20
177.1034
30
0.0
0
VERTEX
8
CUT_INNER
10
100.5303
20
175.1630
30
0.0
0
VERTEX
8
CUT_INNER
10
100.5303
20
165.4607
30
0.0
0
VERTEX
8
CUT_INNER
10
99.6347
20
163.5203
30
0.0
0
VERTEX
8
CUT_INNER
10
112.6208
20
163.5203
30
0.0
0
VERTEX
8
CUT_INNER
10
111.7252
20
165.4607
30
0.0
0
VERTEX
8
CUT_INNER
10
111.7252
20
175.1630
30
0.0
0
VERTEX
8
CUT_INNER
10
112.6208
20
177.1034
30
0.0
0
SEQEND
8
CUT_INNER
0
POLYLINE
8
CUT_INNER
66
1
70
1
0
VERTEX
8
CUT_INNER
10
228.6000
20
177.4020
30
0.0
0
VERTEX
8
CUT_INNER
10
228.3015
20
176.0586
30
0.0
0
VERTEX
8
CUT_INNER
10
230.2419
20
173.3718
30
0.0
0
VERTEX
8
CUT_INNER
10
228.3015
20
163.5203
30
0.0
0
VERTEX
8
CUT_INNER
10
232.3316
20
163.5203
30
0.0
0
VERTEX
8
CUT_INNER
10
231.1375
20
165.4607
30
0.0
0
VERTEX
8
CUT_INNER
10
231.7346
20
170.3865
30
0.0
0
VERTEX
8
CUT_INNER
10
235.7647
20
163.5203
30
0.0
0
VERTEX
8
CUT_INNER
10
238.8993
20
163.5203
30
0.0
0
VERTEX
8
CUT_INNER
10
238.1530
20
169.9387
30
0.0
0
VERTEX
8
CUT_INNER
10
240.0934
20
177.4020
30
0.0
0
VERTEX
8
CUT_INNER
10
236.0633
20
177.4020
30
0.0
0
VERTEX
8
CUT_INNER
10
237.2574
20
175.1630
30
0.0
0
VERTEX
8
CUT_INNER
10
236.6603
20
172.6255
30
0.0
0
VERTEX
8
CUT_INNER
10
233.8243
20
177.4020
30
0.0
0
SEQEND
8
CUT_INNER
0
POLYLINE
8
CUT_INNER
66
1
70
1
0
VERTEX
8
CUT_INNER
10
216.9573
20
177.4020
30
0.0
0
VERTEX
8
CUT_INNER
10
217.5544
20
165.4607
30
0.0
0
VERTEX
8
CUT_INNER
10
216.6588
20
163.5203
30
0.0
0
VERTEX
8
CUT_INNER
10
226.6595
20
163.5203
30
0.0
0
VERTEX
8
CUT_INNER
10
226.6595
20
167.8490
30
0.0
0
VERTEX
8
CUT_INNER
10
224.8684
20
168.2968
30
0.0
0
VERTEX
8
CUT_INNER
10
224.8684
20
172.6255
30
0.0
0
VERTEX
8
CUT_INNER
10
226.6595
20
173.0733
30
0.0
0
VERTEX
8
CUT_INNER
10
226.6595
20
177.4020
30
0.0
0
SEQEND
8
CUT_INNER
0
POLYLINE
8
CUT_INNER
66
1
70
1
0
VERTEX
8
CUT_INNER
10
205.3146
20
177.4020
30
0.0
0
VERTEX
8
CUT_INNER
10
205.9117
20
165.4607
30
0.0
0
VERTEX
8
CUT_INNER
10
205.0161
20
163.5203
30
0.0
0
VERTEX
8
CUT_INNER
10
215.3154
20
163.5203
30
0.0
0
VERTEX
8
CUT_INNER
10
215.3154
20
167.8490
30
0.0
0
VERTEX
8
CUT_INNER
10
213.2257
20
168.1475
30
0.0
0
VERTEX
8
CUT_INNER
10
213.2257
20
172.6255
30
0.0
0
VERTEX
8
CUT_INNER
10
215.0168
20
173.0733
30
0.0
0
VERTEX
8
CUT_INNER
10
215.0168
20
177.4020
30
0.0
0
SEQEND
8
CUT_INNER
0
POLYLINE
8
CUT_INNER
66
1
70
1
0
VERTEX
8
CUT_INNER
10
191.5822
20
177.4020
30
0.0
0
VERTEX
8
CUT_INNER
10
192.1792
20
165.4607
30
0.0
0
VERTEX
8
CUT_INNER
10
191.2836
20
163.5203
30
0.0
0
VERTEX
8
CUT_INNER
10
201.8815
20
163.8188
30
0.0
0
VERTEX
8
CUT_INNER
10
203.6727
20
166.5056
30
0.0
0
VERTEX
8
CUT_INNER
10
202.7771
20
169.6402
30
0.0
0
VERTEX
8
CUT_INNER
10
201.4337
20
170.5357
30
0.0
0
VERTEX
8
CUT_INNER
10
203.0756
20
172.4762
30
0.0
0
VERTEX
8
CUT_INNER
10
202.7771
20
175.9093
30
0.0
0
VERTEX
8
CUT_INNER
10
199.4932
20
177.7005
30
0.0
0
SEQEND
8
CUT_INNER
0
POLYLINE
8
CUT_INNER
66
1
70
1
0
VERTEX
8
CUT_INNER
10
171.5806
20
177.4020
30
0.0
0
VERTEX
8
CUT_INNER
10
171.8791
20
172.4762
30
0.0
0
VERTEX
8
CUT_INNER
10
173.2225
20
172.7747
30
0.0
0
VERTEX
8
CUT_INNER
10
173.9689
20
175.0137
30
0.0
0
VERTEX
8
CUT_INNER
10
174.8644
20
174.7152
30
0.0
0
VERTEX
8
CUT_INNER
10
174.8644
20
165.4607
30
0.0
0
VERTEX
8
CUT_INNER
10
173.6703
20
163.8188
30
0.0
0
VERTEX
8
CUT_INNER
10
180.6858
20
163.5203
30
0.0
0
VERTEX
8
CUT_INNER
10
179.4917
20
165.4607
30
0.0
0
VERTEX
8
CUT_INNER
10
179.4917
20
174.7152
30
0.0
0
VERTEX
8
CUT_INNER
10
180.3873
20
175.0137
30
0.0
0
VERTEX
8
CUT_INNER
10
181.1336
20
172.7747
30
0.0
0
VERTEX
8
CUT_INNER
10
182.4770
20
172.4762
30
0.0
0
VERTEX
8
CUT_INNER
10
182.7755
20
177.4020
30
0.0
0
SEQEND
8
CUT_INNER
0
POLYLINE
8
CUT_INNER
66
1
70
1
0
VERTEX
8
CUT_INNER
10
168.4460
20
177.7005
30
0.0
0
VERTEX
8
CUT_INNER
10
165.9085
20
176.2078
30
0.0
0
VERTEX
8
CUT_INNER
10
167.5504
20
173.8196
30
0.0
0
VERTEX
8
CUT_INNER
10
166.5056
20
172.3269
30
0.0
0
VERTEX
8
CUT_INNER
10
167.1026
20
171.4313
30
0.0
0
VERTEX
8
CUT_INNER
10
170.2372
20
174.5659
30
0.0
0
VERTEX
8
CUT_INNER
10
169.9387
20
176.8049
30
0.0
0
SEQEND
8
CUT_INNER
0
POLYLINE
8
CUT_INNER
66
1
70
1
0
VERTEX
8
CUT_INNER
10
153.0717
20
177.4020
30
0.0
0
VERTEX
8
CUT_INNER
10
152.7732
20
176.0586
30
0.0
0
VERTEX
8
CUT_INNER
10
154.7136
20
173.3718
30
0.0
0
VERTEX
8
CUT_INNER
10
153.9673
20
165.7593
30
0.0
0
VERTEX
8
CUT_INNER
10
152.7732
20
163.5203
30
0.0
0
VERTEX
8
CUT_INNER
10
156.8033
20
163.5203
30
0.0
0
VERTEX
8
CUT_INNER
10
155.6092
20
165.7593
30
0.0
0
VERTEX
8
CUT_INNER
10
156.2063
20
170.3865
30
0.0
0
VERTEX
8
CUT_INNER
10
160.2364
20
163.5203
30
0.0
0
VERTEX
8
CUT_INNER
10
163.6695
20
163.5203
30
0.0
0
VERTEX
8
CUT_INNER
10
163.0725
20
169.3416
30
0.0
0
VERTEX
8
CUT_INNER
10
163.6695
20
175.1630
30
0.0
0
VERTEX
8
CUT_INNER
10
164.8637
20
177.1034
30
0.0
0
VERTEX
8
CUT_INNER
10
160.5350
20
177.1034
30
0.0
0
VERTEX
8
CUT_INNER
10
162.0276
20
174.8644
30
0.0
0
VERTEX
8
CUT_INNER
10
161.4306
20
172.3269
30
0.0
0
VERTEX
8
CUT_INNER
10
158.2960
20
177.4020
30
0.0
0
SEQEND
8
CUT_INNER
0
POLYLINE
8
CUT_INNER
66
1
70
1
0
VERTEX
8
CUT_INNER
10
140.8319
20
177.4020
30
0.0
0
VERTEX
8
CUT_INNER
10
141.4290
20
165.4607
30
0.0
0
VERTEX
8
CUT_INNER
10
140.5334
20
163.5203
30
0.0
0
VERTEX
8
CUT_INNER
10
150.8327
20
163.5203
30
0.0
0
VERTEX
8
CUT_INNER
10
150.8327
20
167.8490
30
0.0
0
VERTEX
8
CUT_INNER
10
148.7430
20
168.1475
30
0.0
0
VERTEX
8
CUT_INNER
10
148.7430
20
172.7747
30
0.0
0
VERTEX
8
CUT_INNER
10
150.8327
20
173.3718
30
0.0
0
VERTEX
8
CUT_INNER
10
150.8327
20
177.4020
30
0.0
0
SEQEND
8
CUT_INNER
0
POLYLINE
8
CUT_INNER
66
1
70
1
0
VERTEX
8
CUT_INNER
10
127.9951
20
177.7005
30
0.0
0
VERTEX
8
CUT_INNER
10
127.0995
20
176.0586
30
0.0
0
VERTEX
8
CUT_INNER
10
130.9804
20
164.1173
30
0.0
0
VERTEX
8
CUT_INNER
10
134.1150
20
163.2217
30
0.0
0
VERTEX
8
CUT_INNER
10
135.3091
20
164.7144
30
0.0
0
VERTEX
8
CUT_INNER
10
134.7120
20
168.4460
30
0.0
0
VERTEX
8
CUT_INNER
10
136.2047
20
169.1924
30
0.0
0
VERTEX
8
CUT_INNER
10
139.1900
20
177.1034
30
0.0
0
SEQEND
8
CUT_INNER
0
POLYLINE
8
CUT_INNER
66
1
70
1
0
VERTEX
8
CUT_INNER
10
118.4421
20
177.4020
30
0.0
0
VERTEX
8
CUT_INNER
10
119.0392
20
174.2674
30
0.0
0
VERTEX
8
CUT_INNER
10
117.5465
20
173.2225
30
0.0
0
VERTEX
8
CUT_INNER
10
115.7553
20
165.7593
30
0.0
0
VERTEX
8
CUT_INNER
10
114.2627
20
163.8188
30
0.0
0
VERTEX
8
CUT_INNER
10
118.5914
20
163.5203
30
0.0
0
VERTEX
8
CUT_INNER
10
117.3973
20
165.4607
30
0.0
0
VERTEX
8
CUT_INNER
10
118.2929
20
167.2519
30
0.0
0
VERTEX
8
CUT_INNER
10
121.1289
20
166.2071
30
0.0
0
VERTEX
8
CUT_INNER
10
120.2333
20
164.2666
30
0.0
0
VERTEX
8
CUT_INNER
10
121.1289
20
163.2217
30
0.0
0
VERTEX
8
CUT_INNER
10
126.9502
20
163.5203
30
0.0
0
VERTEX
8
CUT_INNER
10
123.3679
20
177.4020
30
0.0
0
SEQEND
8
CUT_INNER
0
POLYLINE
8
CUT_INNER
66
1
70
1
0
VERTEX
8
CUT_INNER
10
85.0067
20
177.7005
30
0.0
0
VERTEX
8
CUT_INNER
10
84.1111
20
176.3571
30
0.0
0
VERTEX
8
CUT_INNER
10
85.3052
20
175.1630
30
0.0
0
VERTEX
8
CUT_INNER
10
85.3052
20
165.7593
30
0.0
0
VERTEX
8
CUT_INNER
10
84.1111
20
163.8188
30
0.0
0
VERTEX
8
CUT_INNER
10
90.2310
20
163.2217
30
0.0
0
VERTEX
8
CUT_INNER
10
89.9324
20
175.4615
30
0.0
0
VERTEX
8
CUT_INNER
10
90.8280
20
177.1034
30
0.0
0
SEQEND
8
CUT_INNER
0
POLYLINE
8
CUT_INNER
66
1
70
1
0
VERTEX
8
CUT_INNER
10
17.0909
20
180.6858
30
0.0
0
VERTEX
8
CUT_INNER
10
12.4637
20
178.4468
30
0.0
0
VERTEX
8
CUT_INNER
10
10.6725
20
161.2813
30
0.0
0
VERTEX
8
CUT_INNER
10
14.1056
20
164.1173
30
0.0
0
VERTEX
8
CUT_INNER
10
17.3894
20
169.7894
30
0.0
0
VERTEX
8
CUT_INNER
10
18.2850
20
177.4020
30
0.0
0
SEQEND
8
CUT_INNER
0
POLYLINE
8
CUT_INNER
66
1
70
1
0
VERTEX
8
CUT_INNER
10
278.0069
20
184.8652
30
0.0
0
VERTEX
8
CUT_INNER
10
273.0811
20
186.0594
30
0.0
0
VERTEX
8
CUT_INNER
10
268.6031
20
183.9696
30
0.0
0
VERTEX
8
CUT_INNER
10
266.2149
20
180.0887
30
0.0
0
VERTEX
8
CUT_INNER
10
265.3193
20
175.3122
30
0.0
0
VERTEX
8
CUT_INNER
10
260.9906
20
178.2976
30
0.0
0
VERTEX
8
CUT_INNER
10
257.8560
20
178.5961
30
0.0
0
VERTEX
8
CUT_INNER
10
254.2737
20
177.1034
30
0.0
0
VERTEX
8
CUT_INNER
10
251.2883
20
173.2225
30
0.0
0
VERTEX
8
CUT_INNER
10
252.0347
20
172.1777
30
0.0
0
VERTEX
8
CUT_INNER
10
254.8707
20
173.6703
30
0.0
0
VERTEX
8
CUT_INNER
10
255.7663
20
172.7747
30
0.0
0
VERTEX
8
CUT_INNER
10
257.5575
20
173.3718
30
0.0
0
VERTEX
8
CUT_INNER
10
260.3935
20
171.8791
30
0.0
0
VERTEX
8
CUT_INNER
10
253.0795
20
167.5504
30
0.0
0
VERTEX
8
CUT_INNER
10
251.5869
20
161.4306
30
0.0
0
VERTEX
8
CUT_INNER
10
252.9303
20
160.2364
30
0.0
0
VERTEX
8
CUT_INNER
10
254.7214
20
163.2217
30
0.0
0
VERTEX
8
CUT_INNER
10
260.5428
20
166.3563
30
0.0
0
VERTEX
8
CUT_INNER
10
258.4531
20
160.0872
30
0.0
0
VERTEX
8
CUT_INNER
10
260.5428
20
153.9673
30
0.0
0
VERTEX
8
CUT_INNER
10
261.5877
20
153.9673
30
0.0
0
VERTEX
8
CUT_INNER
10
262.1847
20
157.8482
30
0.0
0
VERTEX
8
CUT_INNER
10
266.0656
20
164.4159
30
0.0
0
VERTEX
8
CUT_INNER
10
267.2597
20
164.8637
30
0.0
0
VERTEX
8
CUT_INNER
10
268.6031
20
162.6247
30
0.0
0
VERTEX
8
CUT_INNER
10
270.6929
20
154.5643
30
0.0
0
VERTEX
8
CUT_INNER
10
270.9914
20
146.6533
30
0.0
0
VERTEX
8
CUT_INNER
10
269.4987
20
137.9959
30
0.0
0
VERTEX
8
CUT_INNER
10
266.5134
20
130.5326
30
0.0
0
VERTEX
8
CUT_INNER
10
255.3185
20
132.7716
30
0.0
0
VERTEX
8
CUT_INNER
10
252.0347
20
142.4738
30
0.0
0
VERTEX
8
CUT_INNER
10
253.9751
20
142.3246
30
0.0
0
VERTEX
8
CUT_INNER
10
257.7068
20
139.3393
30
0.0
0
VERTEX
8
CUT_INNER
10
257.1097
20
143.6680
30
0.0
0
VERTEX
8
CUT_INNER
10
253.6766
20
146.6533
30
0.0
0
VERTEX
8
CUT_INNER
10
260.3935
20
146.9518
30
0.0
0
VERTEX
8
CUT_INNER
10
256.5126
20
150.5342
30
0.0
0
VERTEX
8
CUT_INNER
10
251.4376
20
149.7879
30
0.0
0
VERTEX
8
CUT_INNER
10
251.4376
20
152.1761
30
0.0
0
VERTEX
8
CUT_INNER
10
254.4229
20
155.0121
30
0.0
0
VERTEX
8
CUT_INNER
10
250.9898
20
155.3107
30
0.0
0
VERTEX
8
CUT_INNER
10
248.0045
20
153.2210
30
0.0
0
VERTEX
8
CUT_INNER
10
246.8104
20
149.6386
30
0.0
0
VERTEX
8
CUT_INNER
10
242.0339
20
150.8327
30
0.0
0
VERTEX
8
CUT_INNER
10
237.8545
20
147.8474
30
0.0
0
VERTEX
8
CUT_INNER
10
238.1530
20
146.6533
30
0.0
0
VERTEX
8
CUT_INNER
10
239.6456
20
147.3996
30
0.0
0
VERTEX
8
CUT_INNER
10
243.9743
20
146.8025
30
0.0
0
VERTEX
8
CUT_INNER
10
239.9442
20
143.6680
30
0.0
0
VERTEX
8
CUT_INNER
10
239.3471
20
138.7422
30
0.0
0
VERTEX
8
CUT_INNER
10
244.1236
20
142.3246
30
0.0
0
VERTEX
8
CUT_INNER
10
244.1236
20
136.9510
30
0.0
0
VERTEX
8
CUT_INNER
10
245.7655
20
135.0106
30
0.0
0
VERTEX
8
CUT_INNER
10
247.2582
20
139.7871
30
0.0
0
VERTEX
8
CUT_INNER
10
249.1986
20
141.7275
30
0.0
0
VERTEX
8
CUT_INNER
10
250.9898
20
136.3540
30
0.0
0
VERTEX
8
CUT_INNER
10
250.9898
20
132.3238
30
0.0
0
VERTEX
8
CUT_INNER
10
241.1383
20
128.1444
30
0.0
0
VERTEX
8
CUT_INNER
10
236.8096
20
122.6215
30
0.0
0
VERTEX
8
CUT_INNER
10
230.3912
20
120.3826
30
0.0
0
VERTEX
8
CUT_INNER
10
227.1073
20
117.6958
30
0.0
0
VERTEX
8
CUT_INNER
10
226.5103
20
115.9046
30
0.0
0
VERTEX
8
CUT_INNER
10
232.9287
20
115.4568
30
0.0
0
VERTEX
8
CUT_INNER
10
242.9295
20
112.7700
30
0.0
0
VERTEX
8
CUT_INNER
10
251.5869
20
114.8597
30
0.0
0
VERTEX
8
CUT_INNER
10
256.5126
20
114.8597
30
0.0
0
VERTEX
8
CUT_INNER
10
265.7671
20
112.4715
30
0.0
0
VERTEX
8
CUT_INNER
10
281.2907
20
116.9495
30
0.0
0
VERTEX
8
CUT_INNER
10
280.6936
20
120.0840
30
0.0
0
VERTEX
8
CUT_INNER
10
272.9318
20
127.6966
30
0.0
0
VERTEX
8
CUT_INNER
10
275.6186
20
137.8466
30
0.0
0
VERTEX
8
CUT_INNER
10
276.2157
20
146.9518
30
0.0
0
VERTEX
8
CUT_INNER
10
274.7230
20
156.5048
30
0.0
0
VERTEX
8
CUT_INNER
10
270.8421
20
165.4607
30
0.0
0
VERTEX
8
CUT_INNER
10
271.4392
20
166.2071
30
0.0
0
VERTEX
8
CUT_INNER
10
276.6635
20
163.8188
30
0.0
0
VERTEX
8
CUT_INNER
10
280.5444
20
159.0423
30
0.0
0
VERTEX
8
CUT_INNER
10
281.5892
20
159.0423
30
0.0
0
VERTEX
8
CUT_INNER
10
281.8878
20
163.3710
30
0.0
0
VERTEX
8
CUT_INNER
10
280.6936
20
166.6548
30
0.0
0
VERTEX
8
CUT_INNER
10
273.3796
20
171.7299
30
0.0
0
VERTEX
8
CUT_INNER
10
277.7083
20
173.0733
30
0.0
0
VERTEX
8
CUT_INNER
10
283.9775
20
171.4313
30
0.0
0
VERTEX
8
CUT_INNER
10
283.0819
20
175.0137
30
0.0
0
VERTEX
8
CUT_INNER
10
277.7083
20
177.9990
30
0.0
0
VERTEX
8
CUT_INNER
10
270.8421
20
176.6556
30
0.0
0
VERTEX
8
CUT_INNER
10
271.7377
20
179.4917
30
0.0
0
VERTEX
8
CUT_INNER
10
274.8723
20
182.7755
30
0.0
0
VERTEX
8
CUT_INNER
10
278.3054
20
184.1189
30
0.0
0
SEQEND
8
CUT_INNER
0
POLYLINE
8
CUT_INNER
66
1
70
1
0
VERTEX
8
CUT_INNER
10
45.0035
20
192.6270
30
0.0
0
VERTEX
8
CUT_INNER
10
43.8094
20
191.7314
30
0.0
0
VERTEX
8
CUT_INNER
10
43.8094
20
189.4925
30
0.0
0
VERTEX
8
CUT_INNER
10
39.6300
20
188.4476
30
0.0
0
VERTEX
8
CUT_INNER
10
40.5256
20
185.9101
30
0.0
0
VERTEX
8
CUT_INNER
10
44.4065
20
186.8057
30
0.0
0
VERTEX
8
CUT_INNER
10
45.0035
20
185.1638
30
0.0
0
VERTEX
8
CUT_INNER
10
38.1373
20
182.4770
30
0.0
0
VERTEX
8
CUT_INNER
10
32.4652
20
177.9990
30
0.0
0
VERTEX
8
CUT_INNER
10
29.1814
20
172.9240
30
0.0
0
VERTEX
8
CUT_INNER
10
27.3902
20
165.4607
30
0.0
0
VERTEX
8
CUT_INNER
10
28.2858
20
158.1467
30
0.0
0
VERTEX
8
CUT_INNER
10
31.5696
20
151.5790
30
0.0
0
VERTEX
8
CUT_INNER
10
36.6447
20
146.8025
30
0.0
0
VERTEX
8
CUT_INNER
10
44.5557
20
143.6680
30
0.0
0
VERTEX
8
CUT_INNER
10
45.0035
20
141.7275
30
0.0
0
VERTEX
8
CUT_INNER
10
39.6300
20
142.1753
30
0.0
0
VERTEX
8
CUT_INNER
10
33.0623
20
145.9070
30
0.0
0
VERTEX
8
CUT_INNER
10
27.5395
20
152.3254
30
0.0
0
VERTEX
8
CUT_INNER
10
24.5542
20
160.6842
30
0.0
0
VERTEX
8
CUT_INNER
10
25.7483
20
172.1777
30
0.0
0
VERTEX
8
CUT_INNER
10
29.9277
20
179.0439
30
0.0
0
VERTEX
8
CUT_INNER
10
37.5403
20
184.8652
30
0.0
0
VERTEX
8
CUT_INNER
10
36.4954
20
187.1042
30
0.0
0
VERTEX
8
CUT_INNER
10
30.3755
20
183.3726
30
0.0
0
VERTEX
8
CUT_INNER
10
25.0020
20
176.8049
30
0.0
0
VERTEX
8
CUT_INNER
10
22.0167
20
168.7446
30
0.0
0
VERTEX
8
CUT_INNER
10
22.0167
20
159.3408
30
0.0
0
VERTEX
8
CUT_INNER
10
25.3005
20
150.6834
30
0.0
0
VERTEX
8
CUT_INNER
10
30.9726
20
144.1158
30
0.0
0
VERTEX
8
CUT_INNER
10
36.3461
20
140.8319
30
0.0
0
VERTEX
8
CUT_INNER
10
45.0035
20
137.9959
30
0.0
0
VERTEX
8
CUT_INNER
10
43.6601
20
134.8613
30
0.0
0
VERTEX
8
CUT_INNER
10
37.5403
20
132.9209
30
0.0
0
VERTEX
8
CUT_INNER
10
36.0476
20
129.1892
30
0.0
0
VERTEX
8
CUT_INNER
10
57.6911
20
128.8907
30
0.0
0
VERTEX
8
CUT_INNER
10
57.6911
20
132.0253
30
0.0
0
VERTEX
8
CUT_INNER
10
54.7058
20
134.1150
30
0.0
0
VERTEX
8
CUT_INNER
10
50.9741
20
134.8613
30
0.0
0
VERTEX
8
CUT_INNER
10
49.6308
20
138.1452
30
0.0
0
VERTEX
8
CUT_INNER
10
60.9749
20
142.3246
30
0.0
0
VERTEX
8
CUT_INNER
10
67.5426
20
147.9967
30
0.0
0
VERTEX
8
CUT_INNER
10
72.6176
20
158.4452
30
0.0
0
VERTEX
8
CUT_INNER
10
72.9162
20
168.4460
30
0.0
0
VERTEX
8
CUT_INNER
10
71.4235
20
173.8196
30
0.0
0
VERTEX
8
CUT_INNER
10
67.5426
20
180.3873
30
0.0
0
VERTEX
8
CUT_INNER
10
62.7661
20
184.8652
30
0.0
0
VERTEX
8
CUT_INNER
10
56.6462
20
187.9998
30
0.0
0
VERTEX
8
CUT_INNER
10
56.1984
20
185.6116
30
0.0
0
VERTEX
8
CUT_INNER
10
63.0646
20
181.2829
30
0.0
0
VERTEX
8
CUT_INNER
10
67.3933
20
176.0586
30
0.0
0
VERTEX
8
CUT_INNER
10
70.3786
20
167.9982
30
0.0
0
VERTEX
8
CUT_INNER
10
70.3786
20
160.6842
30
0.0
0
VERTEX
8
CUT_INNER
10
67.0948
20
152.0268
30
0.0
0
VERTEX
8
CUT_INNER
10
61.2735
20
145.6084
30
0.0
0
VERTEX
8
CUT_INNER
10
55.0043
20
142.1753
30
0.0
0
VERTEX
8
CUT_INNER
10
49.9293
20
141.4290
30
0.0
0
VERTEX
8
CUT_INNER
10
49.9293
20
143.3694
30
0.0
0
VERTEX
8
CUT_INNER
10
59.1837
20
146.5040
30
0.0
0
VERTEX
8
CUT_INNER
10
65.4529
20
152.4746
30
0.0
0
VERTEX
8
CUT_INNER
10
68.4382
20
159.6394
30
0.0
0
VERTEX
8
CUT_INNER
10
68.7367
20
167.2519
30
0.0
0
VERTEX
8
CUT_INNER
10
66.0500
20
175.0137
30
0.0
0
VERTEX
8
CUT_INNER
10
62.1690
20
179.7902
30
0.0
0
VERTEX
8
CUT_INNER
10
56.4970
20
183.3726
30
0.0
0
VERTEX
8
CUT_INNER
10
49.6308
20
185.4623
30
0.0
0
VERTEX
8
CUT_INNER
10
50.2278
20
186.9549
30
0.0
0
VERTEX
8
CUT_INNER
10
53.0639
20
186.5071
30
0.0
0
VERTEX
8
CUT_INNER
10
53.6609
20
189.0447
30
0.0
0
VERTEX
8
CUT_INNER
10
50.3771
20
189.6417
30
0.0
0
VERTEX
8
CUT_INNER
10
49.3322
20
192.6270
30
0.0
0
SEQEND
8
CUT_INNER
0
POLYLINE
8
CUT_INNER
66
1
70
1
0
VERTEX
8
CUT_INNER
10
287.1120
20
197.7021
30
0.0
0
VERTEX
8
CUT_INNER
10
284.4253
20
193.2241
30
0.0
0
VERTEX
8
CUT_INNER
10
283.5297
20
187.4027
30
0.0
0
VERTEX
8
CUT_INNER
10
284.7238
20
181.7307
30
0.0
0
VERTEX
8
CUT_INNER
10
288.4554
20
176.9542
30
0.0
0
VERTEX
8
CUT_INNER
10
291.7393
20
181.5814
30
0.0
0
SEQEND
8
CUT_INNER
0
POLYLINE
8
CUT_INNER
66
1
70
1
0
VERTEX
8
CUT_INNER
10
24.5542
20
202.1800
30
0.0
0
VERTEX
8
CUT_INNER
10
18.2850
20
199.9410
30
0.0
0
VERTEX
8
CUT_INNER
10
13.6578
20
183.6711
30
0.0
0
VERTEX
8
CUT_INNER
10
17.9865
20
185.9101
30
0.0
0
VERTEX
8
CUT_INNER
10
22.4644
20
190.6866
30
0.0
0
VERTEX
8
CUT_INNER
10
24.8527
20
197.2543
30
0.0
0
SEQEND
8
CUT_INNER
0
POLYLINE
8
CUT_INNER
66
1
70
1
0
VERTEX
8
CUT_INNER
10
192.7763
20
213.5242
30
0.0
0
VERTEX
8
CUT_INNER
10
191.2836
20
211.2852
30
0.0
0
VERTEX
8
CUT_INNER
10
195.3138
20
207.4043
30
0.0
0
VERTEX
8
CUT_INNER
10
192.4778
20
200.3888
30
0.0
0
VERTEX
8
CUT_INNER
10
190.6866
20
199.7918
30
0.0
0
VERTEX
8
CUT_INNER
10
188.5969
20
200.6874
30
0.0
0
VERTEX
8
CUT_INNER
10
186.8057
20
199.4932
30
0.0
0
VERTEX
8
CUT_INNER
10
187.1042
20
197.2543
30
0.0
0
VERTEX
8
CUT_INNER
10
192.4778
20
196.8065
30
0.0
0
VERTEX
8
CUT_INNER
10
193.0748
20
193.3734
30
0.0
0
VERTEX
8
CUT_INNER
10
195.3138
20
189.6417
30
0.0
0
VERTEX
8
CUT_INNER
10
191.8807
20
186.9549
30
0.0
0
VERTEX
8
CUT_INNER
10
192.1792
20
184.1189
30
0.0
0
VERTEX
8
CUT_INNER
10
194.7167
20
184.1189
30
0.0
0
VERTEX
8
CUT_INNER
10
197.7021
20
187.2535
30
0.0
0
VERTEX
8
CUT_INNER
10
205.7624
20
183.8204
30
0.0
0
VERTEX
8
CUT_INNER
10
205.9117
20
180.8351
30
0.0
0
VERTEX
8
CUT_INNER
10
208.1506
20
179.9395
30
0.0
0
VERTEX
8
CUT_INNER
10
209.6433
20
181.1336
30
0.0
0
VERTEX
8
CUT_INNER
10
209.7926
20
183.9696
30
0.0
0
VERTEX
8
CUT_INNER
10
217.8529
20
187.4027
30
0.0
0
VERTEX
8
CUT_INNER
10
221.4353
20
183.8204
30
0.0
0
VERTEX
8
CUT_INNER
10
223.6742
20
184.7160
30
0.0
0
VERTEX
8
CUT_INNER
10
223.6742
20
186.6564
30
0.0
0
VERTEX
8
CUT_INNER
10
220.0919
20
189.7910
30
0.0
0
VERTEX
8
CUT_INNER
10
222.7786
20
196.8065
30
0.0
0
VERTEX
8
CUT_INNER
10
226.9581
20
196.6572
30
0.0
0
VERTEX
8
CUT_INNER
10
228.4507
20
198.8962
30
0.0
0
VERTEX
8
CUT_INNER
10
226.3610
20
200.6874
30
0.0
0
VERTEX
8
CUT_INNER
10
223.0772
20
199.9410
30
0.0
0
VERTEX
8
CUT_INNER
10
219.7933
20
207.2550
30
0.0
0
VERTEX
8
CUT_INNER
10
223.6742
20
210.3896
30
0.0
0
VERTEX
8
CUT_INNER
10
223.3757
20
212.9271
30
0.0
0
VERTEX
8
CUT_INNER
10
220.8382
20
213.2257
30
0.0
0
VERTEX
8
CUT_INNER
10
218.0022
20
209.6433
30
0.0
0
VERTEX
8
CUT_INNER
10
213.2257
20
211.5837
30
0.0
0
VERTEX
8
CUT_INNER
10
212.0315
20
208.0014
30
0.0
0
VERTEX
8
CUT_INNER
10
216.3602
20
204.4190
30
0.0
0
VERTEX
8
CUT_INNER
10
217.8529
20
201.4337
30
0.0
0
VERTEX
8
CUT_INNER
10
217.2558
20
199.7918
30
0.0
0
VERTEX
8
CUT_INNER
10
214.1213
20
199.7918
30
0.0
0
VERTEX
8
CUT_INNER
10
214.1213
20
197.5528
30
0.0
0
VERTEX
8
CUT_INNER
10
217.4051
20
197.5528
30
0.0
0
VERTEX
8
CUT_INNER
10
218.0022
20
196.6572
30
0.0
0
VERTEX
8
CUT_INNER
10
216.6588
20
192.9256
30
0.0
0
VERTEX
8
CUT_INNER
10
212.6286
20
189.1939
30
0.0
0
VERTEX
8
CUT_INNER
10
208.7477
20
188.7461
30
0.0
0
VERTEX
8
CUT_INNER
10
208.7477
20
193.9704
30
0.0
0
VERTEX
8
CUT_INNER
10
211.2852
20
196.2094
30
0.0
0
VERTEX
8
CUT_INNER
10
211.2852
20
201.1352
30
0.0
0
VERTEX
8
CUT_INNER
10
208.7477
20
203.0756
30
0.0
0
VERTEX
8
CUT_INNER
10
208.7477
20
206.5087
30
0.0
0
VERTEX
8
CUT_INNER
10
206.5087
20
206.5087
30
0.0
0
VERTEX
8
CUT_INNER
10
206.5087
20
203.0756
30
0.0
0
VERTEX
8
CUT_INNER
10
203.2249
20
199.9410
30
0.0
0
VERTEX
8
CUT_INNER
10
199.4932
20
199.7918
30
0.0
0
VERTEX
8
CUT_INNER
10
199.4932
20
197.5528
30
0.0
0
VERTEX
8
CUT_INNER
10
202.9263
20
197.5528
30
0.0
0
VERTEX
8
CUT_INNER
10
206.5087
20
194.1197
30
0.0
0
VERTEX
8
CUT_INNER
10
206.5087
20
188.5969
30
0.0
0
VERTEX
8
CUT_INNER
10
205.6131
20
188.1491
30
0.0
0
VERTEX
8
CUT_INNER
10
200.8366
20
190.3881
30
0.0
0
VERTEX
8
CUT_INNER
10
196.3587
20
196.8065
30
0.0
0
VERTEX
8
CUT_INNER
10
196.2094
20
199.9410
30
0.0
0
VERTEX
8
CUT_INNER
10
200.2396
20
206.0609
30
0.0
0
VERTEX
8
CUT_INNER
10
205.7624
20
209.6433
30
0.0
0
VERTEX
8
CUT_INNER
10
209.1955
20
209.6433
30
0.0
0
VERTEX
8
CUT_INNER
10
210.2404
20
212.9271
30
0.0
0
VERTEX
8
CUT_INNER
10
207.4043
20
215.6139
30
0.0
0
VERTEX
8
CUT_INNER
10
205.6131
20
213.0764
30
0.0
0
VERTEX
8
CUT_INNER
10
197.5528
20
209.6433
30
0.0
0
VERTEX
8
CUT_INNER
10
194.7167
20
213.2257
30
0.0
0
SEQEND
8
CUT_INNER
0
POLYLINE
8
CUT_INNER
66
1
70
1
0
VERTEX
8
CUT_INNER
10
277.8576
20
219.1963
30
0.0
0
VERTEX
8
CUT_INNER
10
275.7679
20
214.1213
30
0.0
0
VERTEX
8
CUT_INNER
10
275.4693
20
208.5984
30
0.0
0
VERTEX
8
CUT_INNER
10
277.8576
20
202.0308
30
0.0
0
VERTEX
8
CUT_INNER
10
281.8878
20
197.8513
30
0.0
0
VERTEX
8
CUT_INNER
10
285.1716
20
203.6727
30
0.0
0
SEQEND
8
CUT_INNER
0
POLYLINE
8
CUT_INNER
66
1
70
1
0
VERTEX
8
CUT_INNER
10
34.1071
20
222.1816
30
0.0
0
VERTEX
8
CUT_INNER
10
27.5395
20
220.6889
30
0.0
0
VERTEX
8
CUT_INNER
10
20.6733
20
205.7624
30
0.0
0
VERTEX
8
CUT_INNER
10
29.9277
20
210.6881
30
0.0
0
VERTEX
8
CUT_INNER
10
33.5101
20
216.6588
30
0.0
0
SEQEND
8
CUT_INNER
0
POLYLINE
8
CUT_INNER
66
1
70
1
0
VERTEX
8
CUT_INNER
10
246.8104
20
232.3316
30
0.0
0
VERTEX
8
CUT_INNER
10
242.9295
20
230.5405
30
0.0
0
VERTEX
8
CUT_INNER
10
240.8398
20
226.6595
30
0.0
0
VERTEX
8
CUT_INNER
10
241.4368
20
222.6294
30
0.0
0
VERTEX
8
CUT_INNER
10
244.7207
20
219.3455
30
0.0
0
VERTEX
8
CUT_INNER
10
244.7207
20
217.8529
30
0.0
0
VERTEX
8
CUT_INNER
10
237.5559
20
218.0022
30
0.0
0
VERTEX
8
CUT_INNER
10
235.7647
20
216.2110
30
0.0
0
VERTEX
8
CUT_INNER
10
236.3618
20
213.6735
30
0.0
0
VERTEX
8
CUT_INNER
10
244.7207
20
212.9271
30
0.0
0
VERTEX
8
CUT_INNER
10
244.4221
20
194.4182
30
0.0
0
VERTEX
8
CUT_INNER
10
242.4817
20
192.3285
30
0.0
0
VERTEX
8
CUT_INNER
10
239.3471
20
193.0748
30
0.0
0
VERTEX
8
CUT_INNER
10
236.5111
20
195.9109
30
0.0
0
VERTEX
8
CUT_INNER
10
238.0037
20
197.2543
30
0.0
0
VERTEX
8
CUT_INNER
10
237.7052
20
198.5976
30
0.0
0
VERTEX
8
CUT_INNER
10
233.2272
20
204.4190
30
0.0
0
VERTEX
8
CUT_INNER
10
230.6897
20
199.7918
30
0.0
0
VERTEX
8
CUT_INNER
10
230.3912
20
194.5675
30
0.0
0
VERTEX
8
CUT_INNER
10
232.6302
20
195.0153
30
0.0
0
VERTEX
8
CUT_INNER
10
236.9589
20
188.5969
30
0.0
0
VERTEX
8
CUT_INNER
10
247.8552
20
181.8799
30
0.0
0
VERTEX
8
CUT_INNER
10
259.1994
20
188.8954
30
0.0
0
VERTEX
8
CUT_INNER
10
263.3788
20
195.3138
30
0.0
0
VERTEX
8
CUT_INNER
10
265.7671
20
194.8660
30
0.0
0
VERTEX
8
CUT_INNER
10
265.7671
20
197.7021
30
0.0
0
VERTEX
8
CUT_INNER
10
264.2744
20
202.7771
30
0.0
0
VERTEX
8
CUT_INNER
10
262.6325
20
204.4190
30
0.0
0
VERTEX
8
CUT_INNER
10
257.5575
20
198.0006
30
0.0
0
VERTEX
8
CUT_INNER
10
259.6472
20
196.5079
30
0.0
0
VERTEX
8
CUT_INNER
10
256.5126
20
193.0748
30
0.0
0
VERTEX
8
CUT_INNER
10
253.0795
20
192.3285
30
0.0
0
VERTEX
8
CUT_INNER
10
251.4376
20
193.8212
30
0.0
0
VERTEX
8
CUT_INNER
10
250.5420
20
212.7779
30
0.0
0
VERTEX
8
CUT_INNER
10
253.3781
20
213.6735
30
0.0
0
VERTEX
8
CUT_INNER
10
257.4082
20
213.0764
30
0.0
0
VERTEX
8
CUT_INNER
10
259.1994
20
214.2705
30
0.0
0
VERTEX
8
CUT_INNER
10
259.4979
20
215.9124
30
0.0
0
VERTEX
8
CUT_INNER
10
257.7068
20
218.0022
30
0.0
0
VERTEX
8
CUT_INNER
10
250.5420
20
217.8529
30
0.0
0
VERTEX
8
CUT_INNER
10
250.5420
20
219.6441
30
0.0
0
VERTEX
8
CUT_INNER
10
254.1244
20
223.8235
30
0.0
0
VERTEX
8
CUT_INNER
10
254.1244
20
227.5551
30
0.0
0
VERTEX
8
CUT_INNER
10
251.4376
20
231.1375
30
0.0
0
VERTEX
8
CUT_INNER
10
249.7957
20
227.7044
30
0.0
0
VERTEX
8
CUT_INNER
10
250.6913
20
225.9132
30
0.0
0
VERTEX
8
CUT_INNER
10
250.0942
20
223.9728
30
0.0
0
VERTEX
8
CUT_INNER
10
248.7508
20
222.7786
30
0.0
0
VERTEX
8
CUT_INNER
10
246.5119
20
222.7786
30
0.0
0
VERTEX
8
CUT_INNER
10
244.8699
20
224.2713
30
0.0
0
VERTEX
8
CUT_INNER
10
244.5714
20
226.2118
30
0.0
0
VERTEX
8
CUT_INNER
10
246.9596
20
228.6000
30
0.0
0
VERTEX
8
CUT_INNER
10
248.1538
20
232.0331
30
0.0
0
SEQEND
8
CUT_INNER
0
POLYLINE
8
CUT_INNER
66
1
70
1
0
VERTEX
8
CUT_INNER
10
203.5234
20
235.3169
30
0.0
0
VERTEX
8
CUT_INNER
10
201.7322
20
232.0331
30
0.0
0
VERTEX
8
CUT_INNER
10
203.5234
20
227.5551
30
0.0
0
VERTEX
8
CUT_INNER
10
199.9410
20
223.9728
30
0.0
0
VERTEX
8
CUT_INNER
10
200.5381
20
219.3455
30
0.0
0
VERTEX
8
CUT_INNER
10
203.5234
20
217.2558
30
0.0
0
VERTEX
8
CUT_INNER
10
207.7028
20
216.5095
30
0.0
0
VERTEX
8
CUT_INNER
10
207.1058
20
220.0919
30
0.0
0
VERTEX
8
CUT_INNER
10
204.5683
20
221.8831
30
0.0
0
VERTEX
8
CUT_INNER
10
204.5683
20
223.5250
30
0.0
0
VERTEX
8
CUT_INNER
10
206.2102
20
225.1669
30
0.0
0
VERTEX
8
CUT_INNER
10
210.0911
20
221.1367
30
0.0
0
VERTEX
8
CUT_INNER
10
210.8374
20
217.2558
30
0.0
0
VERTEX
8
CUT_INNER
10
212.7779
20
218.3007
30
0.0
0
VERTEX
8
CUT_INNER
10
214.5690
20
216.9573
30
0.0
0
VERTEX
8
CUT_INNER
10
219.1963
20
217.1066
30
0.0
0
VERTEX
8
CUT_INNER
10
216.2110
20
220.9875
30
0.0
0
VERTEX
8
CUT_INNER
10
218.0022
20
225.7640
30
0.0
0
VERTEX
8
CUT_INNER
10
214.5690
20
226.0625
30
0.0
0
VERTEX
8
CUT_INNER
10
212.9271
20
224.4206
30
0.0
0
VERTEX
8
CUT_INNER
10
210.2404
20
226.9581
30
0.0
0
VERTEX
8
CUT_INNER
10
214.1213
20
230.6897
30
0.0
0
VERTEX
8
CUT_INNER
10
213.5242
20
234.7199
30
0.0
0
VERTEX
8
CUT_INNER
10
209.9418
20
236.5111
30
0.0
0
SEQEND
8
CUT_INNER
0
POLYLINE
8
CUT_INNER
66
1
70
1
0
VERTEX
8
CUT_INNER
10
265.3193
20
238.7500
30
0.0
0
VERTEX
8
CUT_INNER
10
264.1252
20
235.0184
30
0.0
0
VERTEX
8
CUT_INNER
10
264.7222
20
227.4059
30
0.0
0
VERTEX
8
CUT_INNER
10
267.7075
20
222.0323
30
0.0
0
VERTEX
8
CUT_INNER
10
272.6333
20
218.4500
30
0.0
0
VERTEX
8
CUT_INNER
10
275.0215
20
224.7191
30
0.0
0
SEQEND
8
CUT_INNER
0
POLYLINE
8
CUT_INNER
66
1
70
1
0
VERTEX
8
CUT_INNER
10
47.5410
20
240.9890
30
0.0
0
VERTEX
8
CUT_INNER
10
40.6748
20
240.5412
30
0.0
0
VERTEX
8
CUT_INNER
10
30.8233
20
226.0625
30
0.0
0
VERTEX
8
CUT_INNER
10
34.4057
20
226.5103
30
0.0
0
VERTEX
8
CUT_INNER
10
41.2719
20
229.7941
30
0.0
0
VERTEX
8
CUT_INNER
10
45.7499
20
234.8691
30
0.0
0
SEQEND
8
CUT_INNER
0
POLYLINE
8
CUT_INNER
66
1
70
1
0
VERTEX
8
CUT_INNER
10
250.0942
20
255.3185
30
0.0
0
VERTEX
8
CUT_INNER
10
250.0942
20
249.1986
30
0.0
0
VERTEX
8
CUT_INNER
10
251.5869
20
244.7207
30
0.0
0
VERTEX
8
CUT_INNER
10
256.0648
20
239.3471
30
0.0
0
VERTEX
8
CUT_INNER
10
260.6921
20
237.5559
30
0.0
0
VERTEX
8
CUT_INNER
10
261.8862
20
243.3773
30
0.0
0
SEQEND
8
CUT_INNER
0
POLYLINE
8
CUT_INNER
66
1
70
1
0
VERTEX
8
CUT_INNER
10
63.6617
20
257.7068
30
0.0
0
VERTEX
8
CUT_INNER
10
57.5418
20
258.4531
30
0.0
0
VERTEX
8
CUT_INNER
10
45.0035
20
245.4670
30
0.0
0
VERTEX
8
CUT_INNER
10
50.2278
20
245.9148
30
0.0
0
VERTEX
8
CUT_INNER
10
56.4970
20
248.3030
30
0.0
0
VERTEX
8
CUT_INNER
10
60.6764
20
251.8854
30
0.0
0
SEQEND
8
CUT_INNER
0
POLYLINE
8
CUT_INNER
66
1
70
1
0
VERTEX
8
CUT_INNER
10
134.7120
20
199.4932
30
0.0
0
VERTEX
8
CUT_INNER
10
125.1591
20
204.8668
30
0.0
0
VERTEX
8
CUT_INNER
10
127.8458
20
207.2550
30
0.0
0
VERTEX
8
CUT_INNER
10
124.7113
20
210.0911
30
0.0
0
VERTEX
8
CUT_INNER
10
126.0547
20
212.0315
30
0.0
0
VERTEX
8
CUT_INNER
10
123.8157
20
214.5690
30
0.0
0
VERTEX
8
CUT_INNER
10
124.2635
20
216.8080
30
0.0
0
VERTEX
8
CUT_INNER
10
118.7406
20
215.6139
30
0.0
0
VERTEX
8
CUT_INNER
10
121.7260
20
212.3301
30
0.0
0
VERTEX
8
CUT_INNER
10
119.3377
20
209.7926
30
0.0
0
VERTEX
8
CUT_INNER
10
122.7708
20
207.2550
30
0.0
0
VERTEX
8
CUT_INNER
10
121.8752
20
206.0609
30
0.0
0
VERTEX
8
CUT_INNER
10
99.7839
20
203.6727
30
0.0
0
VERTEX
8
CUT_INNER
10
91.7236
20
205.1653
30
0.0
0
VERTEX
8
CUT_INNER
10
94.7089
20
208.2999
30
0.0
0
VERTEX
8
CUT_INNER
10
91.5743
20
210.5389
30
0.0
0
VERTEX
8
CUT_INNER
10
95.0074
20
213.6735
30
0.0
0
VERTEX
8
CUT_INNER
10
92.6192
20
215.4646
30
0.0
0
VERTEX
8
CUT_INNER
10
95.6045
20
218.4500
30
0.0
0
VERTEX
8
CUT_INNER
10
93.8133
20
220.5397
30
0.0
0
VERTEX
8
CUT_INNER
10
96.5001
20
223.5250
30
0.0
0
VERTEX
8
CUT_INNER
10
95.1567
20
225.4654
30
0.0
0
VERTEX
8
CUT_INNER
10
98.4405
20
231.4360
30
0.0
0
VERTEX
8
CUT_INNER
10
102.3214
20
225.6147
30
0.0
0
VERTEX
8
CUT_INNER
10
101.1273
20
223.5250
30
0.0
0
VERTEX
8
CUT_INNER
10
103.8141
20
220.5397
30
0.0
0
VERTEX
8
CUT_INNER
10
101.7244
20
218.7485
30
0.0
0
VERTEX
8
CUT_INNER
10
105.0082
20
215.7632
30
0.0
0
VERTEX
8
CUT_INNER
10
102.6200
20
214.2705
30
0.0
0
VERTEX
8
CUT_INNER
10
105.9038
20
210.5389
30
0.0
0
VERTEX
8
CUT_INNER
10
102.9185
20
209.0462
30
0.0
0
VERTEX
8
CUT_INNER
10
104.4112
20
206.8072
30
0.0
0
VERTEX
8
CUT_INNER
10
109.3369
20
207.7028
30
0.0
0
VERTEX
8
CUT_INNER
10
111.4266
20
209.7926
30
0.0
0
VERTEX
8
CUT_INNER
10
108.5906
20
212.0315
30
0.0
0
VERTEX
8
CUT_INNER
10
111.4266
20
214.5690
30
0.0
0
VERTEX
8
CUT_INNER
10
109.1877
20
216.8080
30
0.0
0
VERTEX
8
CUT_INNER
10
112.0237
20
219.6441
30
0.0
0
VERTEX
8
CUT_INNER
10
109.9340
20
221.4353
30
0.0
0
VERTEX
8
CUT_INNER
10
112.3222
20
224.1220
30
0.0
0
VERTEX
8
CUT_INNER
10
110.9788
20
226.0625
30
0.0
0
VERTEX
8
CUT_INNER
10
114.1134
20
231.8838
30
0.0
0
VERTEX
8
CUT_INNER
10
118.1436
20
226.5103
30
0.0
0
VERTEX
8
CUT_INNER
10
116.9495
20
224.4206
30
0.0
0
VERTEX
8
CUT_INNER
10
119.6362
20
221.5845
30
0.0
0
VERTEX
8
CUT_INNER
10
117.8451
20
220.2411
30
0.0
0
VERTEX
8
CUT_INNER
10
119.3377
20
218.1514
30
0.0
0
VERTEX
8
CUT_INNER
10
125.1591
20
220.5397
30
0.0
0
VERTEX
8
CUT_INNER
10
129.6370
20
226.2118
30
0.0
0
VERTEX
8
CUT_INNER
10
112.6208
20
249.6464
30
0.0
0
VERTEX
8
CUT_INNER
10
110.9788
20
249.9450
30
0.0
0
VERTEX
8
CUT_INNER
10
107.5457
20
246.6611
30
0.0
0
VERTEX
8
CUT_INNER
10
91.8729
20
268.3046
30
0.0
0
VERTEX
8
CUT_INNER
10
77.8419
20
247.2582
30
0.0
0
VERTEX
8
CUT_INNER
10
72.9162
20
252.0347
30
0.0
0
VERTEX
8
CUT_INNER
10
71.5728
20
251.4376
30
0.0
0
VERTEX
8
CUT_INNER
10
54.8550
20
226.9581
30
0.0
0
VERTEX
8
CUT_INNER
10
55.7506
20
223.2264
30
0.0
0
VERTEX
8
CUT_INNER
10
57.2433
20
222.0323
30
0.0
0
VERTEX
8
CUT_INNER
10
57.5418
20
217.5544
30
0.0
0
VERTEX
8
CUT_INNER
10
58.5867
20
216.8080
30
0.0
0
VERTEX
8
CUT_INNER
10
57.8404
20
215.3154
30
0.0
0
VERTEX
8
CUT_INNER
10
62.1690
20
216.0617
30
0.0
0
VERTEX
8
CUT_INNER
10
63.6617
20
218.5992
30
0.0
0
VERTEX
8
CUT_INNER
10
61.8705
20
219.9426
30
0.0
0
VERTEX
8
CUT_INNER
10
64.2588
20
222.6294
30
0.0
0
VERTEX
8
CUT_INNER
10
62.7661
20
224.4206
30
0.0
0
VERTEX
8
CUT_INNER
10
65.7514
20
230.3912
30
0.0
0
VERTEX
8
CUT_INNER
10
66.7963
20
230.6897
30
0.0
0
VERTEX
8
CUT_INNER
10
70.0801
20
224.7191
30
0.0
0
VERTEX
8
CUT_INNER
10
68.5875
20
222.9279
30
0.0
0
VERTEX
8
CUT_INNER
10
70.6772
20
220.2411
30
0.0
0
VERTEX
8
CUT_INNER
10
69.1845
20
218.1514
30
0.0
0
VERTEX
8
CUT_INNER
10
72.1698
20
215.1661
30
0.0
0
VERTEX
8
CUT_INNER
10
69.4831
20
213.5242
30
0.0
0
VERTEX
8
CUT_INNER
10
71.1250
20
211.1359
30
0.0
0
VERTEX
8
CUT_INNER
10
74.1103
20
212.9271
30
0.0
0
VERTEX
8
CUT_INNER
10
75.9015
20
212.7779
30
0.0
0
VERTEX
8
CUT_INNER
10
77.6927
20
214.5690
30
0.0
0
VERTEX
8
CUT_INNER
10
77.6927
20
215.6139
30
0.0
0
VERTEX
8
CUT_INNER
10
75.3044
20
216.6588
30
0.0
0
VERTEX
8
CUT_INNER
10
78.2897
20
220.2411
30
0.0
0
VERTEX
8
CUT_INNER
10
76.2000
20
222.0323
30
0.0
0
VERTEX
8
CUT_INNER
10
78.8868
20
225.0176
30
0.0
0
VERTEX
8
CUT_INNER
10
77.5434
20
226.9581
30
0.0
0
VERTEX
8
CUT_INNER
10
80.0809
20
231.8838
30
0.0
0
VERTEX
8
CUT_INNER
10
81.2750
20
232.3316
30
0.0
0
VERTEX
8
CUT_INNER
10
84.4096
20
227.1073
30
0.0
0
VERTEX
8
CUT_INNER
10
82.9169
20
225.3162
30
0.0
0
VERTEX
8
CUT_INNER
10
85.6037
20
222.0323
30
0.0
0
VERTEX
8
CUT_INNER
10
83.8125
20
220.2411
30
0.0
0
VERTEX
8
CUT_INNER
10
86.7978
20
217.1066
30
0.0
0
VERTEX
8
CUT_INNER
10
84.4096
20
214.8676
30
0.0
0
VERTEX
8
CUT_INNER
10
87.6934
20
211.8823
30
0.0
0
VERTEX
8
CUT_INNER
10
85.0067
20
209.4940
30
0.0
0
VERTEX
8
CUT_INNER
10
88.2905
20
206.0609
30
0.0
0
VERTEX
8
CUT_INNER
10
82.7677
20
204.2697
30
0.0
0
VERTEX
8
CUT_INNER
10
75.7522
20
204.8668
30
0.0
0
VERTEX
8
CUT_INNER
10
73.8118
20
206.3595
30
0.0
0
VERTEX
8
CUT_INNER
10
77.3941
20
209.4940
30
0.0
0
VERTEX
8
CUT_INNER
10
76.4985
20
210.5389
30
0.0
0
VERTEX
8
CUT_INNER
10
72.9162
20
208.4492
30
0.0
0
VERTEX
8
CUT_INNER
10
68.4382
20
207.8521
30
0.0
0
VERTEX
8
CUT_INNER
10
61.1242
20
208.8970
30
0.0
0
VERTEX
8
CUT_INNER
10
60.3779
20
210.0911
30
0.0
0
VERTEX
8
CUT_INNER
10
63.3632
20
213.5242
30
0.0
0
VERTEX
8
CUT_INNER
10
57.0940
20
212.0315
30
0.0
0
VERTEX
8
CUT_INNER
10
55.1536
20
213.3749
30
0.0
0
VERTEX
8
CUT_INNER
10
56.1984
20
215.0168
30
0.0
0
VERTEX
8
CUT_INNER
10
53.9595
20
217.2558
30
0.0
0
VERTEX
8
CUT_INNER
10
55.0043
20
218.8977
30
0.0
0
VERTEX
8
CUT_INNER
10
49.7800
20
227.7044
30
0.0
0
VERTEX
8
CUT_INNER
10
46.7947
20
222.7786
30
0.0
0
VERTEX
8
CUT_INNER
10
47.3918
20
220.9875
30
0.0
0
VERTEX
8
CUT_INNER
10
45.0035
20
218.3007
30
0.0
0
VERTEX
8
CUT_INNER
10
46.4962
20
217.1066
30
0.0
0
VERTEX
8
CUT_INNER
10
43.8094
20
213.8227
30
0.0
0
VERTEX
8
CUT_INNER
10
45.3021
20
211.7330
30
0.0
0
VERTEX
8
CUT_INNER
10
42.3167
20
208.7477
30
0.0
0
VERTEX
8
CUT_INNER
10
44.4065
20
207.2550
30
0.0
0
VERTEX
8
CUT_INNER
10
41.4212
20
203.8219
30
0.0
0
VERTEX
8
CUT_INNER
10
43.9587
20
202.4786
30
0.0
0
VERTEX
8
CUT_INNER
10
36.0476
20
196.8065
30
0.0
0
VERTEX
8
CUT_INNER
10
59.1837
20
196.0601
30
0.0
0
VERTEX
8
CUT_INNER
10
83.2155
20
189.7910
30
0.0
0
VERTEX
8
CUT_INNER
10
96.2016
20
189.1939
30
0.0
0
VERTEX
8
CUT_INNER
10
107.5457
20
190.9851
30
0.0
0
VERTEX
8
CUT_INNER
10
108.1428
20
191.8807
30
0.0
0
VERTEX
8
CUT_INNER
10
106.5009
20
193.5226
30
0.0
0
VERTEX
8
CUT_INNER
10
115.1583
20
196.0601
30
0.0
0
SEQEND
8
CUT_INNER
0
POLYLINE
8
CUT_INNER
66
1
70
1
0
VERTEX
8
CUT_INNER
10
232.7794
20
269.4987
30
0.0
0
VERTEX
8
CUT_INNER
10
233.3765
20
264.7222
30
0.0
0
VERTEX
8
CUT_INNER
10
235.4662
20
260.5428
30
0.0
0
VERTEX
8
CUT_INNER
10
240.2427
20
256.3634
30
0.0
0
VERTEX
8
CUT_INNER
10
244.7207
20
254.2737
30
0.0
0
VERTEX
8
CUT_INNER
10
246.3626
20
254.5722
30
0.0
0
VERTEX
8
CUT_INNER
10
246.6611
20
259.0501
30
0.0
0
SEQEND
8
CUT_INNER
0
POLYLINE
8
CUT_INNER
66
1
70
1
0
VERTEX
8
CUT_INNER
10
82.1706
20
270.5436
30
0.0
0
VERTEX
8
CUT_INNER
10
75.7522
20
272.3348
30
0.0
0
VERTEX
8
CUT_INNER
10
61.8705
20
261.8862
30
0.0
0
VERTEX
8
CUT_INNER
10
69.3338
20
261.4384
30
0.0
0
VERTEX
8
CUT_INNER
10
72.9162
20
262.3340
30
0.0
0
VERTEX
8
CUT_INNER
10
78.2897
20
265.3193
30
0.0
0
SEQEND
8
CUT_INNER
0
POLYLINE
8
CUT_INNER
66
1
70
1
0
VERTEX
8
CUT_INNER
10
189.7910
20
271.7377
30
0.0
0
VERTEX
8
CUT_INNER
10
189.7910
20
270.3943
30
0.0
0
VERTEX
8
CUT_INNER
10
204.2697
20
258.0053
30
0.0
0
VERTEX
8
CUT_INNER
10
195.3138
20
251.4376
30
0.0
0
VERTEX
8
CUT_INNER
10
190.5373
20
253.2288
30
0.0
0
VERTEX
8
CUT_INNER
10
187.9998
20
252.3332
30
0.0
0
VERTEX
8
CUT_INNER
10
190.9851
20
248.3030
30
0.0
0
VERTEX
8
CUT_INNER
10
190.0895
20
245.9148
30
0.0
0
VERTEX
8
CUT_INNER
10
193.0748
20
245.3177
30
0.0
0
VERTEX
8
CUT_INNER
10
194.8660
20
240.8398
30
0.0
0
VERTEX
8
CUT_INNER
10
195.9109
20
240.5412
30
0.0
0
VERTEX
8
CUT_INNER
10
198.0006
20
241.7354
30
0.0
0
VERTEX
8
CUT_INNER
10
198.7469
20
246.8104
30
0.0
0
VERTEX
8
CUT_INNER
10
209.0462
20
251.2883
30
0.0
0
VERTEX
8
CUT_INNER
10
215.7632
20
237.8545
30
0.0
0
VERTEX
8
CUT_INNER
10
217.1066
20
237.2574
30
0.0
0
VERTEX
8
CUT_INNER
10
219.4948
20
238.4515
30
0.0
0
VERTEX
8
CUT_INNER
10
219.4948
20
256.0648
30
0.0
0
VERTEX
8
CUT_INNER
10
226.0625
20
261.4384
30
0.0
0
VERTEX
8
CUT_INNER
10
226.6595
20
264.8715
30
0.0
0
VERTEX
8
CUT_INNER
10
222.6294
20
266.0656
30
0.0
0
VERTEX
8
CUT_INNER
10
214.5690
20
263.3788
30
0.0
0
VERTEX
8
CUT_INNER
10
194.1197
20
272.6333
30
0.0
0
VERTEX
8
CUT_INNER
10
191.8807
20
272.9318
30
0.0
0
SEQEND
8
CUT_INNER
0
POLYLINE
8
CUT_INNER
66
1
70
1
0
VERTEX
8
CUT_INNER
10
213.0764
20
280.8429
30
0.0
0
VERTEX
8
CUT_INNER
10
215.1661
20
275.4693
30
0.0
0
VERTEX
8
CUT_INNER
10
218.1514
20
271.8870
30
0.0
0
VERTEX
8
CUT_INNER
10
225.0176
20
268.6031
30
0.0
0
VERTEX
8
CUT_INNER
10
229.3463
20
268.3046
30
0.0
0
VERTEX
8
CUT_INNER
10
229.0478
20
272.3348
30
0.0
0
SEQEND
8
CUT_INNER
0
POLYLINE
8
CUT_INNER
66
1
70
1
0
VERTEX
8
CUT_INNER
10
101.2766
20
280.6936
30
0.0
0
VERTEX
8
CUT_INNER
10
96.0523
20
283.0819
30
0.0
0
VERTEX
8
CUT_INNER
10
80.6780
20
275.0215
30
0.0
0
VERTEX
8
CUT_INNER
10
85.6037
20
273.6782
30
0.0
0
VERTEX
8
CUT_INNER
10
91.7236
20
273.9767
30
0.0
0
VERTEX
8
CUT_INNER
10
98.5898
20
277.2605
30
0.0
0
SEQEND
8
CUT_INNER
0
POLYLINE
8
CUT_INNER
66
1
70
1
0
VERTEX
8
CUT_INNER
10
169.0431
20
284.5745
30
0.0
0
VERTEX
8
CUT_INNER
10
158.4452
20
283.0819
30
0.0
0
VERTEX
8
CUT_INNER
10
145.0114
20
277.7083
30
0.0
0
VERTEX
8
CUT_INNER
10
133.6672
20
270.2451
30
0.0
0
VERTEX
8
CUT_INNER
10
126.8010
20
263.0803
30
0.0
0
VERTEX
8
CUT_INNER
10
127.0995
20
259.9457
30
0.0
0
VERTEX
8
CUT_INNER
10
132.7716
20
255.4678
30
0.0
0
VERTEX
8
CUT_INNER
10
132.7716
20
250.3928
30
0.0
0
VERTEX
8
CUT_INNER
10
134.5628
20
246.2133
30
0.0
0
VERTEX
8
CUT_INNER
10
133.3687
20
243.2280
30
0.0
0
VERTEX
8
CUT_INNER
10
135.4584
20
242.3324
30
0.0
0
VERTEX
8
CUT_INNER
10
135.7569
20
239.9442
30
0.0
0
VERTEX
8
CUT_INNER
10
138.7422
20
237.8545
30
0.0
0
VERTEX
8
CUT_INNER
10
138.7422
20
235.4662
30
0.0
0
VERTEX
8
CUT_INNER
10
135.7569
20
233.8243
30
0.0
0
VERTEX
8
CUT_INNER
10
133.9657
20
226.9581
30
0.0
0
VERTEX
8
CUT_INNER
10
126.8010
20
216.6588
30
0.0
0
VERTEX
8
CUT_INNER
10
145.1606
20
208.1506
30
0.0
0
VERTEX
8
CUT_INNER
10
156.8033
20
199.7918
30
0.0
0
VERTEX
8
CUT_INNER
10
165.6100
20
191.7314
30
0.0
0
VERTEX
8
CUT_INNER
10
178.8946
20
210.9867
30
0.0
0
VERTEX
8
CUT_INNER
10
175.0137
20
215.9124
30
0.0
0
VERTEX
8
CUT_INNER
10
165.7593
20
223.3757
30
0.0
0
VERTEX
8
CUT_INNER
10
174.1181
20
222.0323
30
0.0
0
VERTEX
8
CUT_INNER
10
176.5064
20
223.5250
30
0.0
0
VERTEX
8
CUT_INNER
10
177.4020
20
226.8088
30
0.0
0
VERTEX
8
CUT_INNER
10
176.8049
20
232.7794
30
0.0
0
VERTEX
8
CUT_INNER
10
181.1336
20
229.7941
30
0.0
0
VERTEX
8
CUT_INNER
10
184.5667
20
229.1971
30
0.0
0
VERTEX
8
CUT_INNER
10
187.5520
20
230.3912
30
0.0
0
VERTEX
8
CUT_INNER
10
189.3432
20
233.0780
30
0.0
0
VERTEX
8
CUT_INNER
10
189.3432
20
238.6008
30
0.0
0
VERTEX
8
CUT_INNER
10
188.4476
20
239.4964
30
0.0
0
VERTEX
8
CUT_INNER
10
181.4321
20
239.1978
30
0.0
0
VERTEX
8
CUT_INNER
10
180.6858
20
234.4214
30
0.0
0
VERTEX
8
CUT_INNER
10
173.0733
20
239.3471
30
0.0
0
VERTEX
8
CUT_INNER
10
175.6108
20
241.4368
30
0.0
0
VERTEX
8
CUT_INNER
10
173.9689
20
244.5714
30
0.0
0
VERTEX
8
CUT_INNER
10
176.8049
20
246.5119
30
0.0
0
VERTEX
8
CUT_INNER
10
176.8049
20
247.5567
30
0.0
0
VERTEX
8
CUT_INNER
10
171.7299
20
253.8259
30
0.0
0
VERTEX
8
CUT_INNER
10
172.3269
20
258.3038
30
0.0
0
VERTEX
8
CUT_INNER
10
179.4917
20
259.9457
30
0.0
0
VERTEX
8
CUT_INNER
10
181.8799
20
261.8862
30
0.0
0
VERTEX
8
CUT_INNER
10
170.5357
20
265.3193
30
0.0
0
VERTEX
8
CUT_INNER
10
170.2372
20
270.9914
30
0.0
0
VERTEX
8
CUT_INNER
10
173.8196
20
279.0517
30
0.0
0
VERTEX
8
CUT_INNER
10
173.8196
20
282.1863
30
0.0
0
SEQEND
8
CUT_INNER
0
POLYLINE
8
CUT_INNER
66
1
70
1
0
VERTEX
8
CUT_INNER
10
191.8807
20
288.9032
30
0.0
0
VERTEX
8
CUT_INNER
10
193.9704
20
285.0223
30
0.0
0
VERTEX
8
CUT_INNER
10
198.7469
20
281.1414
30
0.0
0
VERTEX
8
CUT_INNER
10
205.6131
20
278.7532
30
0.0
0
VERTEX
8
CUT_INNER
10
209.9418
20
279.3502
30
0.0
0
VERTEX
8
CUT_INNER
10
208.7477
20
283.0819
30
0.0
0
SEQEND
8
CUT_INNER
0
POLYLINE
8
CUT_INNER
66
1
70
1
0
VERTEX
8
CUT_INNER
10
122.7708
20
287.2613
30
0.0
0
VERTEX
8
CUT_INNER
10
117.9943
20
290.5452
30
0.0
0
VERTEX
8
CUT_INNER
10
101.1273
20
284.7238
30
0.0
0
VERTEX
8
CUT_INNER
10
107.0979
20
282.3356
30
0.0
0
VERTEX
8
CUT_INNER
10
112.9193
20
282.0370
30
0.0
0
VERTEX
8
CUT_INNER
10
121.5767
20
285.3209
30
0.0
0
SEQEND
8
CUT_INNER
0
POLYLINE
8
CUT_INNER
66
1
70
1
0
VERTEX
8
CUT_INNER
10
169.4909
20
293.5305
30
0.0
0
VERTEX
8
CUT_INNER
10
171.2821
20
290.6944
30
0.0
0
VERTEX
8
CUT_INNER
10
177.5512
20
286.8135
30
0.0
0
VERTEX
8
CUT_INNER
10
181.1336
20
285.9179
30
0.0
0
VERTEX
8
CUT_INNER
10
188.4476
20
286.8135
30
0.0
0
VERTEX
8
CUT_INNER
10
186.6564
20
290.5452
30
0.0
0
SEQEND
8
CUT_INNER
0
POLYLINE
8
CUT_INNER
66
1
70
1
0
VERTEX
8
CUT_INNER
10
144.5636
20
290.6944
30
0.0
0
VERTEX
8
CUT_INNER
10
141.2797
20
294.2768
30
0.0
0
VERTEX
8
CUT_INNER
10
123.2186
20
291.5900
30
0.0
0
VERTEX
8
CUT_INNER
10
127.6966
20
288.6047
30
0.0
0
VERTEX
8
CUT_INNER
10
133.0701
20
287.1120
30
0.0
0
VERTEX
8
CUT_INNER
10
139.7871
20
288.0076
30
0.0
0
SEQEND
8
CUT_INNER
0
POLYLINE
8
CUT_INNER
66
1
70
1
0
VERTEX
8
CUT_INNER
10
146.5040
20
294.4261
30
0.0
0
VERTEX
8
CUT_INNER
10
149.7879
20
291.5900
30
0.0
0
VERTEX
8
CUT_INNER
10
155.1614
20
289.5003
30
0.0
0
VERTEX
8
CUT_INNER
10
160.6842
20
289.2018
30
0.0
0
VERTEX
8
CUT_INNER
10
166.3563
20
290.9929
30
0.0
0
VERTEX
8
CUT_INNER
10
164.1173
20
294.2768
30
0.0
0
SEQEND
8
CUT_INNER
0
ENDSEC
0
EOF
