0
SECTION
2
HEADER
9
$ACADVER
1
AC1009
9
$INSUNITS
70
4
0
ENDSEC
0
SECTION
2
ENTITIES
0
POLYLINE
8
CUT_OUTER
66
1
70
1
0
VERTEX
8
CUT_OUTER
10
304.8000
20
152.4000
30
0.0
0
VERTEX
8
CUT_OUTER
10
304.7942
20
151.0701
30
0.0
0
VERTEX
8
CUT_OUTER
10
304.7768
20
149.7403
30
0.0
0
VERTEX
8
CUT_OUTER
10
304.7478
20
148.4106
30
0.0
0
VERTEX
8
CUT_OUTER
10
304.7072
20
147.0813
30
0.0
0
VERTEX
8
CUT_OUTER
10
304.6549
20
145.7524
30
0.0
0
VERTEX
8
CUT_OUTER
10
304.5911
20
144.4240
30
0.0
0
VERTEX
8
CUT_OUTER
10
304.5157
20
143.0962
30
0.0
0
VERTEX
8
CUT_OUTER
10
304.4288
20
141.7691
30
0.0
0
VERTEX
8
CUT_OUTER
10
304.3302
20
140.4428
30
0.0
0
VERTEX
8
CUT_OUTER
10
304.2201
20
139.1175
30
0.0
0
VERTEX
8
CUT_OUTER
10
304.0984
20
137.7931
30
0.0
0
VERTEX
8
CUT_OUTER
10
303.9651
20
136.4699
30
0.0
0
VERTEX
8
CUT_OUTER
10
303.8204
20
135.1478
30
0.0
0
VERTEX
8
CUT_OUTER
10
303.6640
20
133.8271
30
0.0
0
VERTEX
8
CUT_OUTER
10
303.4962
20
132.5078
30
0.0
0
VERTEX
8
CUT_OUTER
10
303.3169
20
131.1900
30
0.0
0
VERTEX
8
CUT_OUTER
10
303.1260
20
129.8738
30
0.0
0
VERTEX
8
CUT_OUTER
10
302.9237
20
128.5594
30
0.0
0
VERTEX
8
CUT_OUTER
10
302.7099
20
127.2467
30
0.0
0
VERTEX
8
CUT_OUTER
10
302.4847
20
125.9360
30
0.0
0
VERTEX
8
CUT_OUTER
10
302.2480
20
124.6273
30
0.0
0
VERTEX
8
CUT_OUTER
10
302.0000
20
123.3207
30
0.0
0
VERTEX
8
CUT_OUTER
10
301.7405
20
122.0163
30
0.0
0
VERTEX
8
CUT_OUTER
10
301.4697
20
120.7143
30
0.0
0
VERTEX
8
CUT_OUTER
10
301.1875
20
119.4146
30
0.0
0
VERTEX
8
CUT_OUTER
10
300.8940
20
118.1175
30
0.0
0
VERTEX
8
CUT_OUTER
10
300.5892
20
116.8229
30
0.0
0
VERTEX
8
CUT_OUTER
10
300.2731
20
115.5311
30
0.0
0
VERTEX
8
CUT_OUTER
10
299.9457
20
114.2421
30
0.0
0
VERTEX
8
CUT_OUTER
10
299.6071
20
112.9560
30
0.0
0
VERTEX
8
CUT_OUTER
10
299.2573
20
111.6729
30
0.0
0
VERTEX
8
CUT_OUTER
10
298.8963
20
110.3929
30
0.0
0
VERTEX
8
CUT_OUTER
10
298.5241
20
109.1161
30
0.0
0
VERTEX
8
CUT_OUTER
10
298.1408
20
107.8426
30
0.0
0
VERTEX
8
CUT_OUTER
10
297.7465
20
106.5724
30
0.0
0
VERTEX
8
CUT_OUTER
10
297.3410
20
105.3058
30
0.0
0
VERTEX
8
CUT_OUTER
10
296.9245
20
104.0428
30
0.0
0
VERTEX
8
CUT_OUTER
10
296.4970
20
102.7834
30
0.0
0
VERTEX
8
CUT_OUTER
10
296.0586
20
101.5278
30
0.0
0
VERTEX
8
CUT_OUTER
10
295.6092
20
100.2761
30
0.0
0
VERTEX
8
CUT_OUTER
10
295.1488
20
99.0284
30
0.0
0
VERTEX
8
CUT_OUTER
10
294.6777
20
97.7847
30
0.0
0
VERTEX
8
CUT_OUTER
10
294.1956
20
96.5452
30
0.0
0
VERTEX
8
CUT_OUTER
10
293.7028
20
95.3100
30
0.0
0
VERTEX
8
CUT_OUTER
10
293.1992
20
94.0790
30
0.0
0
VERTEX
8
CUT_OUTER
10
292.6849
20
92.8526
30
0.0
0
VERTEX
8
CUT_OUTER
10
292.1600
20
91.6306
30
0.0
0
VERTEX
8
CUT_OUTER
10
291.6243
20
90.4133
30
0.0
0
VERTEX
8
CUT_OUTER
10
291.0781
20
89.2007
30
0.0
0
VERTEX
8
CUT_OUTER
10
290.5213
20
87.9930
30
0.0
0
VERTEX
8
CUT_OUTER
10
289.9540
20
86.7901
30
0.0
0
VERTEX
8
CUT_OUTER
10
289.3762
20
85.5922
30
0.0
0
VERTEX
8
CUT_OUTER
10
288.7880
20
84.3995
30
0.0
0
VERTEX
8
CUT_OUTER
10
288.1894
20
83.2118
30
0.0
0
VERTEX
8
CUT_OUTER
10
287.5805
20
82.0295
30
0.0
0
VERTEX
8
CUT_OUTER
10
286.9612
20
80.8525
30
0.0
0
VERTEX
8
CUT_OUTER
10
286.3317
20
79.6810
30
0.0
0
VERTEX
8
CUT_OUTER
10
285.6920
20
78.5150
30
0.0
0
VERTEX
8
CUT_OUTER
10
285.0422
20
77.3546
30
0.0
0
VERTEX
8
CUT_OUTER
10
284.3823
20
76.2000
30
0.0
0
VERTEX
8
CUT_OUTER
10
283.7123
20
75.0512
30
0.0
0
VERTEX
8
CUT_OUTER
10
283.0323
20
73.9082
30
0.0
0
VERTEX
8
CUT_OUTER
10
282.3424
20
72.7712
30
0.0
0
VERTEX
8
CUT_OUTER
10
281.6425
20
71.6403
30
0.0
0
VERTEX
8
CUT_OUTER
10
280.9329
20
70.5155
30
0.0
0
VERTEX
8
CUT_OUTER
10
280.2134
20
69.3970
30
0.0
0
VERTEX
8
CUT_OUTER
10
279.4842
20
68.2848
30
0.0
0
VERTEX
8
CUT_OUTER
10
278.7453
20
67.1790
30
0.0
0
VERTEX
8
CUT_OUTER
10
277.9968
20
66.0797
30
0.0
0
VERTEX
8
CUT_OUTER
10
277.2388
20
64.9870
30
0.0
0
VERTEX
8
CUT_OUTER
10
276.4712
20
63.9009
30
0.0
0
VERTEX
8
CUT_OUTER
10
275.6942
20
62.8215
30
0.0
0
VERTEX
8
CUT_OUTER
10
274.9078
20
61.7490
30
0.0
0
VERTEX
8
CUT_OUTER
10
274.1121
20
60.6834
30
0.0
0
VERTEX
8
CUT_OUTER
10
273.3070
20
59.6248
30
0.0
0
VERTEX
8
CUT_OUTER
10
272.4928
20
58.5732
30
0.0
0
VERTEX
8
CUT_OUTER
10
271.6695
20
57.5288
30
0.0
0
VERTEX
8
CUT_OUTER
10
270.8370
20
56.4916
30
0.0
0
VERTEX
8
CUT_OUTER
10
269.9956
20
55.4617
30
0.0
0
VERTEX
8
CUT_OUTER
10
269.1452
20
54.4392
30
0.0
0
VERTEX
8
CUT_OUTER
10
268.2859
20
53.4241
30
0.0
0
VERTEX
8
CUT_OUTER
10
267.4177
20
52.4166
30
0.0
0
VERTEX
8
CUT_OUTER
10
266.5409
20
51.4167
30
0.0
0
VERTEX
8
CUT_OUTER
10
265.6553
20
50.4245
30
0.0
0
VERTEX
8
CUT_OUTER
10
264.7611
20
49.4401
30
0.0
0
VERTEX
8
CUT_OUTER
10
263.8583
20
48.4634
30
0.0
0
VERTEX
8
CUT_OUTER
10
262.9471
20
47.4948
30
0.0
0
VERTEX
8
CUT_OUTER
10
262.0274
20
46.5341
30
0.0
0
VERTEX
8
CUT_OUTER
10
261.0994
20
45.5814
30
0.0
0
VERTEX
8
CUT_OUTER
10
260.1631
20
44.6369
30
0.0
0
VERTEX
8
CUT_OUTER
10
259.2186
20
43.7006
30
0.0
0
VERTEX
8
CUT_OUTER
10
258.2659
20
42.7726
30
0.0
0
VERTEX
8
CUT_OUTER
10
257.3052
20
41.8529
30
0.0
0
VERTEX
8
CUT_OUTER
10
256.3366
20
40.9417
30
0.0
0
VERTEX
8
CUT_OUTER
10
255.3599
20
40.0389
30
0.0
0
VERTEX
8
CUT_OUTER
10
254.3755
20
39.1447
30
0.0
0
VERTEX
8
CUT_OUTER
10
253.3833
20
38.2591
30
0.0
0
VERTEX
8
CUT_OUTER
10
252.3834
20
37.3823
30
0.0
0
VERTEX
8
CUT_OUTER
10
251.3759
20
36.5141
30
0.0
0
VERTEX
8
CUT_OUTER
10
250.3608
20
35.6548
30
0.0
0
VERTEX
8
CUT_OUTER
10
249.3383
20
34.8044
30
0.0
0
VERTEX
8
CUT_OUTER
10
248.3084
20
33.9630
30
0.0
0
VERTEX
8
CUT_OUTER
10
247.2712
20
33.1305
30
0.0
0
VERTEX
8
CUT_OUTER
10
246.2268
20
32.3072
30
0.0
0
VERTEX
8
CUT_OUTER
10
245.1752
20
31.4930
30
0.0
0
VERTEX
8
CUT_OUTER
10
244.1166
20
30.6879
30
0.0
0
VERTEX
8
CUT_OUTER
10
243.0510
20
29.8922
30
0.0
0
VERTEX
8
CUT_OUTER
10
241.9785
20
29.1058
30
0.0
0
VERTEX
8
CUT_OUTER
10
240.8991
20
28.3288
30
0.0
0
VERTEX
8
CUT_OUTER
10
239.8130
20
27.5612
30
0.0
0
VERTEX
8
CUT_OUTER
10
238.7203
20
26.8032
30
0.0
0
VERTEX
8
CUT_OUTER
10
237.6210
20
26.0547
30
0.0
0
VERTEX
8
CUT_OUTER
10
236.5152
20
25.3158
30
0.0
0
VERTEX
8
CUT_OUTER
10
235.4030
20
24.5866
30
0.0
0
VERTEX
8
CUT_OUTER
10
234.2845
20
23.8671
30
0.0
0
VERTEX
8
CUT_OUTER
10
233.1597
20
23.1575
30
0.0
0
VERTEX
8
CUT_OUTER
10
232.0288
20
22.4576
30
0.0
0
VERTEX
8
CUT_OUTER
10
230.8918
20
21.7677
30
0.0
0
VERTEX
8
CUT_OUTER
10
229.7488
20
21.0877
30
0.0
0
VERTEX
8
CUT_OUTER
10
228.6000
20
20.4177
30
0.0
0
VERTEX
8
CUT_OUTER
10
227.4454
20
19.7578
30
0.0
0
VERTEX
8
CUT_OUTER
10
226.2850
20
19.1080
30
0.0
0
VERTEX
8
CUT_OUTER
10
225.1190
20
18.4683
30
0.0
0
VERTEX
8
CUT_OUTER
10
223.9475
20
17.8388
30
0.0
0
VERTEX
8
CUT_OUTER
10
222.7705
20
17.2195
30
0.0
0
VERTEX
8
CUT_OUTER
10
221.5882
20
16.6106
30
0.0
0
VERTEX
8
CUT_OUTER
10
220.4005
20
16.0120
30
0.0
0
VERTEX
8
CUT_OUTER
10
219.2078
20
15.4238
30
0.0
0
VERTEX
8
CUT_OUTER
10
218.0099
20
14.8460
30
0.0
0
VERTEX
8
CUT_OUTER
10
216.8070
20
14.2787
30
0.0
0
VERTEX
8
CUT_OUTER
10
215.5993
20
13.7219
30
0.0
0
VERTEX
8
CUT_OUTER
10
214.3867
20
13.1757
30
0.0
0
VERTEX
8
CUT_OUTER
10
213.1694
20
12.6400
30
0.0
0
VERTEX
8
CUT_OUTER
10
211.9474
20
12.1151
30
0.0
0
VERTEX
8
CUT_OUTER
10
210.7210
20
11.6008
30
0.0
0
VERTEX
8
CUT_OUTER
10
209.4900
20
11.0972
30
0.0
0
VERTEX
8
CUT_OUTER
10
208.2548
20
10.6044
30
0.0
0
VERTEX
8
CUT_OUTER
10
207.0153
20
10.1223
30
0.0
0
VERTEX
8
CUT_OUTER
10
205.7716
20
9.6512
30
0.0
0
VERTEX
8
CUT_OUTER
10
204.5239
20
9.1908
30
0.0
0
VERTEX
8
CUT_OUTER
10
203.2722
20
8.7414
30
0.0
0
VERTEX
8
CUT_OUTER
10
202.0166
20
8.3030
30
0.0
0
VERTEX
8
CUT_OUTER
10
200.7572
20
7.8755
30
0.0
0
VERTEX
8
CUT_OUTER
10
199.4942
20
7.4590
30
0.0
0
VERTEX
8
CUT_OUTER
10
198.2276
20
7.0535
30
0.0
0
VERTEX
8
CUT_OUTER
10
196.9574
20
6.6592
30
0.0
0
VERTEX
8
CUT_OUTER
10
195.6839
20
6.2759
30
0.0
0
VERTEX
8
CUT_OUTER
10
194.4071
20
5.9037
30
0.0
0
VERTEX
8
CUT_OUTER
10
193.1271
20
5.5427
30
0.0
0
VERTEX
8
CUT_OUTER
10
191.8440
20
5.1929
30
0.0
0
VERTEX
8
CUT_OUTER
10
190.5579
20
4.8543
30
0.0
0
VERTEX
8
CUT_OUTER
10
189.2689
20
4.5269
30
0.0
0
VERTEX
8
CUT_OUTER
10
187.9771
20
4.2108
30
0.0
0
VERTEX
8
CUT_OUTER
10
186.6825
20
3.9060
30
0.0
0
VERTEX
8
CUT_OUTER
10
185.3854
20
3.6125
30
0.0
0
VERTEX
8
CUT_OUTER
10
184.0857
20
3.3303
30
0.0
0
VERTEX
8
CUT_OUTER
10
182.7837
20
3.0595
30
0.0
0
VERTEX
8
CUT_OUTER
10
181.4793
20
2.8000
30
0.0
0
VERTEX
8
CUT_OUTER
10
180.1727
20
2.5520
30
0.0
0
VERTEX
8
CUT_OUTER
10
178.8640
20
2.3153
30
0.0
0
VERTEX
8
CUT_OUTER
10
177.5533
20
2.0901
30
0.0
0
VERTEX
8
CUT_OUTER
10
176.2406
20
1.8763
30
0.0
0
VERTEX
8
CUT_OUTER
10
174.9262
20
1.6740
30
0.0
0
VERTEX
8
CUT_OUTER
10
173.6100
20
1.4831
30
0.0
0
VERTEX
8
CUT_OUTER
10
172.2922
20
1.3038
30
0.0
0
VERTEX
8
CUT_OUTER
10
170.9729
20
1.1360
30
0.0
0
VERTEX
8
CUT_OUTER
10
169.6522
20
0.9796
30
0.0
0
VERTEX
8
CUT_OUTER
10
168.3301
20
0.8349
30
0.0
0
VERTEX
8
CUT_OUTER
10
167.0069
20
0.7016
30
0.0
0
VERTEX
8
CUT_OUTER
10
165.6825
20
0.5799
30
0.0
0
VERTEX
8
CUT_OUTER
10
164.3572
20
0.4698
30
0.0
0
VERTEX
8
CUT_OUTER
10
163.0309
20
0.3712
30
0.0
0
VERTEX
8
CUT_OUTER
10
161.7038
20
0.2843
30
0.0
0
VERTEX
8
CUT_OUTER
10
160.3760
20
0.2089
30
0.0
0
VERTEX
8
CUT_OUTER
10
159.0476
20
0.1451
30
0.0
0
VERTEX
8
CUT_OUTER
10
157.7187
20
0.0928
30
0.0
0
VERTEX
8
CUT_OUTER
10
156.3894
20
0.0522
30
0.0
0
VERTEX
8
CUT_OUTER
10
155.0597
20
0.0232
30
0.0
0
VERTEX
8
CUT_OUTER
10
153.7299
20
0.0058
30
0.0
0
VERTEX
8
CUT_OUTER
10
152.4000
20
0.0000
30
0.0
0
VERTEX
8
CUT_OUTER
10
151.0701
20
0.0058
30
0.0
0
VERTEX
8
CUT_OUTER
10
149.7403
20
0.0232
30
0.0
0
VERTEX
8
CUT_OUTER
10
148.4106
20
0.0522
30
0.0
0
VERTEX
8
CUT_OUTER
10
147.0813
20
0.0928
30
0.0
0
VERTEX
8
CUT_OUTER
10
145.7524
20
0.1451
30
0.0
0
VERTEX
8
CUT_OUTER
10
144.4240
20
0.2089
30
0.0
0
VERTEX
8
CUT_OUTER
10
143.0962
20
0.2843
30
0.0
0
VERTEX
8
CUT_OUTER
10
141.7691
20
0.3712
30
0.0
0
VERTEX
8
CUT_OUTER
10
140.4428
20
0.4698
30
0.0
0
VERTEX
8
CUT_OUTER
10
139.1175
20
0.5799
30
0.0
0
VERTEX
8
CUT_OUTER
10
137.7931
20
0.7016
30
0.0
0
VERTEX
8
CUT_OUTER
10
136.4699
20
0.8349
30
0.0
0
VERTEX
8
CUT_OUTER
10
135.1478
20
0.9796
30
0.0
0
VERTEX
8
CUT_OUTER
10
133.8271
20
1.1360
30
0.0
0
VERTEX
8
CUT_OUTER
10
132.5078
20
1.3038
30
0.0
0
VERTEX
8
CUT_OUTER
10
131.1900
20
1.4831
30
0.0
0
VERTEX
8
CUT_OUTER
10
129.8738
20
1.6740
30
0.0
0
VERTEX
8
CUT_OUTER
10
128.5594
20
1.8763
30
0.0
0
VERTEX
8
CUT_OUTER
10
127.2467
20
2.0901
30
0.0
0
VERTEX
8
CUT_OUTER
10
125.9360
20
2.3153
30
0.0
0
VERTEX
8
CUT_OUTER
10
124.6273
20
2.5520
30
0.0
0
VERTEX
8
CUT_OUTER
10
123.3207
20
2.8000
30
0.0
0
VERTEX
8
CUT_OUTER
10
122.0163
20
3.0595
30
0.0
0
VERTEX
8
CUT_OUTER
10
120.7143
20
3.3303
30
0.0
0
VERTEX
8
CUT_OUTER
10
119.4146
20
3.6125
30
0.0
0
VERTEX
8
CUT_OUTER
10
118.1175
20
3.9060
30
0.0
0
VERTEX
8
CUT_OUTER
10
116.8229
20
4.2108
30
0.0
0
VERTEX
8
CUT_OUTER
10
115.5311
20
4.5269
30
0.0
0
VERTEX
8
CUT_OUTER
10
114.2421
20
4.8543
30
0.0
0
VERTEX
8
CUT_OUTER
10
112.9560
20
5.1929
30
0.0
0
VERTEX
8
CUT_OUTER
10
111.6729
20
5.5427
30
0.0
0
VERTEX
8
CUT_OUTER
10
110.3929
20
5.9037
30
0.0
0
VERTEX
8
CUT_OUTER
10
109.1161
20
6.2759
30
0.0
0
VERTEX
8
CUT_OUTER
10
107.8426
20
6.6592
30
0.0
0
VERTEX
8
CUT_OUTER
10
106.5724
20
7.0535
30
0.0
0
VERTEX
8
CUT_OUTER
10
105.3058
20
7.4590
30
0.0
0
VERTEX
8
CUT_OUTER
10
104.0428
20
7.8755
30
0.0
0
VERTEX
8
CUT_OUTER
10
102.7834
20
8.3030
30
0.0
0
VERTEX
8
CUT_OUTER
10
101.5278
20
8.7414
30
0.0
0
VERTEX
8
CUT_OUTER
10
100.2761
20
9.1908
30
0.0
0
VERTEX
8
CUT_OUTER
10
99.0284
20
9.6512
30
0.0
0
VERTEX
8
CUT_OUTER
10
97.7847
20
10.1223
30
0.0
0
VERTEX
8
CUT_OUTER
10
96.5452
20
10.6044
30
0.0
0
VERTEX
8
CUT_OUTER
10
95.3100
20
11.0972
30
0.0
0
VERTEX
8
CUT_OUTER
10
94.0790
20
11.6008
30
0.0
0
VERTEX
8
CUT_OUTER
10
92.8526
20
12.1151
30
0.0
0
VERTEX
8
CUT_OUTER
10
91.6306
20
12.6400
30
0.0
0
VERTEX
8
CUT_OUTER
10
90.4133
20
13.1757
30
0.0
0
VERTEX
8
CUT_OUTER
10
89.2007
20
13.7219
30
0.0
0
VERTEX
8
CUT_OUTER
10
87.9930
20
14.2787
30
0.0
0
VERTEX
8
CUT_OUTER
10
86.7901
20
14.8460
30
0.0
0
VERTEX
8
CUT_OUTER
10
85.5922
20
15.4238
30
0.0
0
VERTEX
8
CUT_OUTER
10
84.3995
20
16.0120
30
0.0
0
VERTEX
8
CUT_OUTER
10
83.2118
20
16.6106
30
0.0
0
VERTEX
8
CUT_OUTER
10
82.0295
20
17.2195
30
0.0
0
VERTEX
8
CUT_OUTER
10
80.8525
20
17.8388
30
0.0
0
VERTEX
8
CUT_OUTER
10
79.6810
20
18.4683
30
0.0
0
VERTEX
8
CUT_OUTER
10
78.5150
20
19.1080
30
0.0
0
VERTEX
8
CUT_OUTER
10
77.3546
20
19.7578
30
0.0
0
VERTEX
8
CUT_OUTER
10
76.2000
20
20.4177
30
0.0
0
VERTEX
8
CUT_OUTER
10
75.0512
20
21.0877
30
0.0
0
VERTEX
8
CUT_OUTER
10
73.9082
20
21.7677
30
0.0
0
VERTEX
8
CUT_OUTER
10
72.7712
20
22.4576
30
0.0
0
VERTEX
8
CUT_OUTER
10
71.6403
20
23.1575
30
0.0
0
VERTEX
8
CUT_OUTER
10
70.5155
20
23.8671
30
0.0
0
VERTEX
8
CUT_OUTER
10
69.3970
20
24.5866
30
0.0
0
VERTEX
8
CUT_OUTER
10
68.2848
20
25.3158
30
0.0
0
VERTEX
8
CUT_OUTER
10
67.1790
20
26.0547
30
0.0
0
VERTEX
8
CUT_OUTER
10
66.0797
20
26.8032
30
0.0
0
VERTEX
8
CUT_OUTER
10
64.9870
20
27.5612
30
0.0
0
VERTEX
8
CUT_OUTER
10
63.9009
20
28.3288
30
0.0
0
VERTEX
8
CUT_OUTER
10
62.8215
20
29.1058
30
0.0
0
VERTEX
8
CUT_OUTER
10
61.7490
20
29.8922
30
0.0
0
VERTEX
8
CUT_OUTER
10
60.6834
20
30.6879
30
0.0
0
VERTEX
8
CUT_OUTER
10
59.6248
20
31.4930
30
0.0
0
VERTEX
8
CUT_OUTER
10
58.5732
20
32.3072
30
0.0
0
VERTEX
8
CUT_OUTER
10
57.5288
20
33.1305
30
0.0
0
VERTEX
8
CUT_OUTER
10
56.4916
20
33.9630
30
0.0
0
VERTEX
8
CUT_OUTER
10
55.4617
20
34.8044
30
0.0
0
VERTEX
8
CUT_OUTER
10
54.4392
20
35.6548
30
0.0
0
VERTEX
8
CUT_OUTER
10
53.4241
20
36.5141
30
0.0
0
VERTEX
8
CUT_OUTER
10
52.4166
20
37.3823
30
0.0
0
VERTEX
8
CUT_OUTER
10
51.4167
20
38.2591
30
0.0
0
VERTEX
8
CUT_OUTER
10
50.4245
20
39.1447
30
0.0
0
VERTEX
8
CUT_OUTER
10
49.4401
20
40.0389
30
0.0
0
VERTEX
8
CUT_OUTER
10
48.4634
20
40.9417
30
0.0
0
VERTEX
8
CUT_OUTER
10
47.4948
20
41.8529
30
0.0
0
VERTEX
8
CUT_OUTER
10
46.5341
20
42.7726
30
0.0
0
VERTEX
8
CUT_OUTER
10
45.5814
20
43.7006
30
0.0
0
VERTEX
8
CUT_OUTER
10
44.6369
20
44.6369
30
0.0
0
VERTEX
8
CUT_OUTER
10
43.7006
20
45.5814
30
0.0
0
VERTEX
8
CUT_OUTER
10
42.7726
20
46.5341
30
0.0
0
VERTEX
8
CUT_OUTER
10
41.8529
20
47.4948
30
0.0
0
VERTEX
8
CUT_OUTER
10
40.9417
20
48.4634
30
0.0
0
VERTEX
8
CUT_OUTER
10
40.0389
20
49.4401
30
0.0
0
VERTEX
8
CUT_OUTER
10
39.1447
20
50.4245
30
0.0
0
VERTEX
8
CUT_OUTER
10
38.2591
20
51.4167
30
0.0
0
VERTEX
8
CUT_OUTER
10
37.3823
20
52.4166
30
0.0
0
VERTEX
8
CUT_OUTER
10
36.5141
20
53.4241
30
0.0
0
VERTEX
8
CUT_OUTER
10
35.6548
20
54.4392
30
0.0
0
VERTEX
8
CUT_OUTER
10
34.8044
20
55.4617
30
0.0
0
VERTEX
8
CUT_OUTER
10
33.9630
20
56.4916
30
0.0
0
VERTEX
8
CUT_OUTER
10
33.1305
20
57.5288
30
0.0
0
VERTEX
8
CUT_OUTER
10
32.3072
20
58.5732
30
0.0
0
VERTEX
8
CUT_OUTER
10
31.4930
20
59.6248
30
0.0
0
VERTEX
8
CUT_OUTER
10
30.6879
20
60.6834
30
0.0
0
VERTEX
8
CUT_OUTER
10
29.8922
20
61.7490
30
0.0
0
VERTEX
8
CUT_OUTER
10
29.1058
20
62.8215
30
0.0
0
VERTEX
8
CUT_OUTER
10
28.3288
20
63.9009
30
0.0
0
VERTEX
8
CUT_OUTER
10
27.5612
20
64.9870
30
0.0
0
VERTEX
8
CUT_OUTER
10
26.8032
20
66.0797
30
0.0
0
VERTEX
8
CUT_OUTER
10
26.0547
20
67.1790
30
0.0
0
VERTEX
8
CUT_OUTER
10
25.3158
20
68.2848
30
0.0
0
VERTEX
8
CUT_OUTER
10
24.5866
20
69.3970
30
0.0
0
VERTEX
8
CUT_OUTER
10
23.8671
20
70.5155
30
0.0
0
VERTEX
8
CUT_OUTER
10
23.1575
20
71.6403
30
0.0
0
VERTEX
8
CUT_OUTER
10
22.4576
20
72.7712
30
0.0
0
VERTEX
8
CUT_OUTER
10
21.7677
20
73.9082
30
0.0
0
VERTEX
8
CUT_OUTER
10
21.0877
20
75.0512
30
0.0
0
VERTEX
8
CUT_OUTER
10
20.4177
20
76.2000
30
0.0
0
VERTEX
8
CUT_OUTER
10
19.7578
20
77.3546
30
0.0
0
VERTEX
8
CUT_OUTER
10
19.1080
20
78.5150
30
0.0
0
VERTEX
8
CUT_OUTER
10
18.4683
20
79.6810
30
0.0
0
VERTEX
8
CUT_OUTER
10
17.8388
20
80.8525
30
0.0
0
VERTEX
8
CUT_OUTER
10
17.2195
20
82.0295
30
0.0
0
VERTEX
8
CUT_OUTER
10
16.6106
20
83.2118
30
0.0
0
VERTEX
8
CUT_OUTER
10
16.0120
20
84.3995
30
0.0
0
VERTEX
8
CUT_OUTER
10
15.4238
20
85.5922
30
0.0
0
VERTEX
8
CUT_OUTER
10
14.8460
20
86.7901
30
0.0
0
VERTEX
8
CUT_OUTER
10
14.2787
20
87.9930
30
0.0
0
VERTEX
8
CUT_OUTER
10
13.7219
20
89.2007
30
0.0
0
VERTEX
8
CUT_OUTER
10
13.1757
20
90.4133
30
0.0
0
VERTEX
8
CUT_OUTER
10
12.6400
20
91.6306
30
0.0
0
VERTEX
8
CUT_OUTER
10
12.1151
20
92.8526
30
0.0
0
VERTEX
8
CUT_OUTER
10
11.6008
20
94.0790
30
0.0
0
VERTEX
8
CUT_OUTER
10
11.0972
20
95.3100
30
0.0
0
VERTEX
8
CUT_OUTER
10
10.6044
20
96.5452
30
0.0
0
VERTEX
8
CUT_OUTER
10
10.1223
20
97.7847
30
0.0
0
VERTEX
8
CUT_OUTER
10
9.6512
20
99.0284
30
0.0
0
VERTEX
8
CUT_OUTER
10
9.1908
20
100.2761
30
0.0
0
VERTEX
8
CUT_OUTER
10
8.7414
20
101.5278
30
0.0
0
VERTEX
8
CUT_OUTER
10
8.3030
20
102.7834
30
0.0
0
VERTEX
8
CUT_OUTER
10
7.8755
20
104.0428
30
0.0
0
VERTEX
8
CUT_OUTER
10
7.4590
20
105.3058
30
0.0
0
VERTEX
8
CUT_OUTER
10
7.0535
20
106.5724
30
0.0
0
VERTEX
8
CUT_OUTER
10
6.6592
20
107.8426
30
0.0
0
VERTEX
8
CUT_OUTER
10
6.2759
20
109.1161
30
0.0
0
VERTEX
8
CUT_OUTER
10
5.9037
20
110.3929
30
0.0
0
VERTEX
8
CUT_OUTER
10
5.5427
20
111.6729
30
0.0
0
VERTEX
8
CUT_OUTER
10
5.1929
20
112.9560
30
0.0
0
VERTEX
8
CUT_OUTER
10
4.8543
20
114.2421
30
0.0
0
VERTEX
8
CUT_OUTER
10
4.5269
20
115.5311
30
0.0
0
VERTEX
8
CUT_OUTER
10
4.2108
20
116.8229
30
0.0
0
VERTEX
8
CUT_OUTER
10
3.9060
20
118.1175
30
0.0
0
VERTEX
8
CUT_OUTER
10
3.6125
20
119.4146
30
0.0
0
VERTEX
8
CUT_OUTER
10
3.3303
20
120.7143
30
0.0
0
VERTEX
8
CUT_OUTER
10
3.0595
20
122.0163
30
0.0
0
VERTEX
8
CUT_OUTER
10
2.8000
20
123.3207
30
0.0
0
VERTEX
8
CUT_OUTER
10
2.5520
20
124.6273
30
0.0
0
VERTEX
8
CUT_OUTER
10
2.3153
20
125.9360
30
0.0
0
VERTEX
8
CUT_OUTER
10
2.0901
20
127.2467
30
0.0
0
VERTEX
8
CUT_OUTER
10
1.8763
20
128.5594
30
0.0
0
VERTEX
8
CUT_OUTER
10
1.6740
20
129.8738
30
0.0
0
VERTEX
8
CUT_OUTER
10
1.4831
20
131.1900
30
0.0
0
VERTEX
8
CUT_OUTER
10
1.3038
20
132.5078
30
0.0
0
VERTEX
8
CUT_OUTER
10
1.1360
20
133.8271
30
0.0
0
VERTEX
8
CUT_OUTER
10
0.9796
20
135.1478
30
0.0
0
VERTEX
8
CUT_OUTER
10
0.8349
20
136.4699
30
0.0
0
VERTEX
8
CUT_OUTER
10
0.7016
20
137.7931
30
0.0
0
VERTEX
8
CUT_OUTER
10
0.5799
20
139.1175
30
0.0
0
VERTEX
8
CUT_OUTER
10
0.4698
20
140.4428
30
0.0
0
VERTEX
8
CUT_OUTER
10
0.3712
20
141.7691
30
0.0
0
VERTEX
8
CUT_OUTER
10
0.2843
20
143.0962
30
0.0
0
VERTEX
8
CUT_OUTER
10
0.2089
20
144.4240
30
0.0
0
VERTEX
8
CUT_OUTER
10
0.1451
20
145.7524
30
0.0
0
VERTEX
8
CUT_OUTER
10
0.0928
20
147.0813
30
0.0
0
VERTEX
8
CUT_OUTER
10
0.0522
20
148.4106
30
0.0
0
VERTEX
8
CUT_OUTER
10
0.0232
20
149.7403
30
0.0
0
VERTEX
8
CUT_OUTER
10
0.0058
20
151.0701
30
0.0
0
VERTEX
8
CUT_OUTER
10
0.0000
20
152.4000
30
0.0
0
VERTEX
8
CUT_OUTER
10
0.0058
20
153.7299
30
0.0
0
VERTEX
8
CUT_OUTER
10
0.0232
20
155.0597
30
0.0
0
VERTEX
8
CUT_OUTER
10
0.0522
20
156.3894
30
0.0
0
VERTEX
8
CUT_OUTER
10
0.0928
20
157.7187
30
0.0
0
VERTEX
8
CUT_OUTER
10
0.1451
20
159.0476
30
0.0
0
VERTEX
8
CUT_OUTER
10
0.2089
20
160.3760
30
0.0
0
VERTEX
8
CUT_OUTER
10
0.2843
20
161.7038
30
0.0
0
VERTEX
8
CUT_OUTER
10
0.3712
20
163.0309
30
0.0
0
VERTEX
8
CUT_OUTER
10
0.4698
20
164.3572
30
0.0
0
VERTEX
8
CUT_OUTER
10
0.5799
20
165.6825
30
0.0
0
VERTEX
8
CUT_OUTER
10
0.7016
20
167.0069
30
0.0
0
VERTEX
8
CUT_OUTER
10
0.8349
20
168.3301
30
0.0
0
VERTEX
8
CUT_OUTER
10
0.9796
20
169.6522
30
0.0
0
VERTEX
8
CUT_OUTER
10
1.1360
20
170.9729
30
0.0
0
VERTEX
8
CUT_OUTER
10
1.3038
20
172.2922
30
0.0
0
VERTEX
8
CUT_OUTER
10
1.4831
20
173.6100
30
0.0
0
VERTEX
8
CUT_OUTER
10
1.6740
20
174.9262
30
0.0
0
VERTEX
8
CUT_OUTER
10
1.8763
20
176.2406
30
0.0
0
VERTEX
8
CUT_OUTER
10
2.0901
20
177.5533
30
0.0
0
VERTEX
8
CUT_OUTER
10
2.3153
20
178.8640
30
0.0
0
VERTEX
8
CUT_OUTER
10
2.5520
20
180.1727
30
0.0
0
VERTEX
8
CUT_OUTER
10
2.8000
20
181.4793
30
0.0
0
VERTEX
8
CUT_OUTER
10
3.0595
20
182.7837
30
0.0
0
VERTEX
8
CUT_OUTER
10
3.3303
20
184.0857
30
0.0
0
VERTEX
8
CUT_OUTER
10
3.6125
20
185.3854
30
0.0
0
VERTEX
8
CUT_OUTER
10
3.9060
20
186.6825
30
0.0
0
VERTEX
8
CUT_OUTER
10
4.2108
20
187.9771
30
0.0
0
VERTEX
8
CUT_OUTER
10
4.5269
20
189.2689
30
0.0
0
VERTEX
8
CUT_OUTER
10
4.8543
20
190.5579
30
0.0
0
VERTEX
8
CUT_OUTER
10
5.1929
20
191.8440
30
0.0
0
VERTEX
8
CUT_OUTER
10
5.5427
20
193.1271
30
0.0
0
VERTEX
8
CUT_OUTER
10
5.9037
20
194.4071
30
0.0
0
VERTEX
8
CUT_OUTER
10
6.2759
20
195.6839
30
0.0
0
VERTEX
8
CUT_OUTER
10
6.6592
20
196.9574
30
0.0
0
VERTEX
8
CUT_OUTER
10
7.0535
20
198.2276
30
0.0
0
VERTEX
8
CUT_OUTER
10
7.4590
20
199.4942
30
0.0
0
VERTEX
8
CUT_OUTER
10
7.8755
20
200.7572
30
0.0
0
VERTEX
8
CUT_OUTER
10
8.3030
20
202.0166
30
0.0
0
VERTEX
8
CUT_OUTER
10
8.7414
20
203.2722
30
0.0
0
VERTEX
8
CUT_OUTER
10
9.1908
20
204.5239
30
0.0
0
VERTEX
8
CUT_OUTER
10
9.6512
20
205.7716
30
0.0
0
VERTEX
8
CUT_OUTER
10
10.1223
20
207.0153
30
0.0
0
VERTEX
8
CUT_OUTER
10
10.6044
20
208.2548
30
0.0
0
VERTEX
8
CUT_OUTER
10
11.0972
20
209.4900
30
0.0
0
VERTEX
8
CUT_OUTER
10
11.6008
20
210.7210
30
0.0
0
VERTEX
8
CUT_OUTER
10
12.1151
20
211.9474
30
0.0
0
VERTEX
8
CUT_OUTER
10
12.6400
20
213.1694
30
0.0
0
VERTEX
8
CUT_OUTER
10
13.1757
20
214.3867
30
0.0
0
VERTEX
8
CUT_OUTER
10
13.7219
20
215.5993
30
0.0
0
VERTEX
8
CUT_OUTER
10
14.2787
20
216.8070
30
0.0
0
VERTEX
8
CUT_OUTER
10
14.8460
20
218.0099
30
0.0
0
VERTEX
8
CUT_OUTER
10
15.4238
20
219.2078
30
0.0
0
VERTEX
8
CUT_OUTER
10
16.0120
20
220.4005
30
0.0
0
VERTEX
8
CUT_OUTER
10
16.6106
20
221.5882
30
0.0
0
VERTEX
8
CUT_OUTER
10
17.2195
20
222.7705
30
0.0
0
VERTEX
8
CUT_OUTER
10
17.8388
20
223.9475
30
0.0
0
VERTEX
8
CUT_OUTER
10
18.4683
20
225.1190
30
0.0
0
VERTEX
8
CUT_OUTER
10
19.1080
20
226.2850
30
0.0
0
VERTEX
8
CUT_OUTER
10
19.7578
20
227.4454
30
0.0
0
VERTEX
8
CUT_OUTER
10
20.4177
20
228.6000
30
0.0
0
VERTEX
8
CUT_OUTER
10
21.0877
20
229.7488
30
0.0
0
VERTEX
8
CUT_OUTER
10
21.7677
20
230.8918
30
0.0
0
VERTEX
8
CUT_OUTER
10
22.4576
20
232.0288
30
0.0
0
VERTEX
8
CUT_OUTER
10
23.1575
20
233.1597
30
0.0
0
VERTEX
8
CUT_OUTER
10
23.8671
20
234.2845
30
0.0
0
VERTEX
8
CUT_OUTER
10
24.5866
20
235.4030
30
0.0
0
VERTEX
8
CUT_OUTER
10
25.3158
20
236.5152
30
0.0
0
VERTEX
8
CUT_OUTER
10
26.0547
20
237.6210
30
0.0
0
VERTEX
8
CUT_OUTER
10
26.8032
20
238.7203
30
0.0
0
VERTEX
8
CUT_OUTER
10
27.5612
20
239.8130
30
0.0
0
VERTEX
8
CUT_OUTER
10
28.3288
20
240.8991
30
0.0
0
VERTEX
8
CUT_OUTER
10
29.1058
20
241.9785
30
0.0
0
VERTEX
8
CUT_OUTER
10
29.8922
20
243.0510
30
0.0
0
VERTEX
8
CUT_OUTER
10
30.6879
20
244.1166
30
0.0
0
VERTEX
8
CUT_OUTER
10
31.4930
20
245.1752
30
0.0
0
VERTEX
8
CUT_OUTER
10
32.3072
20
246.2268
30
0.0
0
VERTEX
8
CUT_OUTER
10
33.1305
20
247.2712
30
0.0
0
VERTEX
8
CUT_OUTER
10
33.9630
20
248.3084
30
0.0
0
VERTEX
8
CUT_OUTER
10
34.8044
20
249.3383
30
0.0
0
VERTEX
8
CUT_OUTER
10
35.6548
20
250.3608
30
0.0
0
VERTEX
8
CUT_OUTER
10
36.5141
20
251.3759
30
0.0
0
VERTEX
8
CUT_OUTER
10
37.3823
20
252.3834
30
0.0
0
VERTEX
8
CUT_OUTER
10
38.2591
20
253.3833
30
0.0
0
VERTEX
8
CUT_OUTER
10
39.1447
20
254.3755
30
0.0
0
VERTEX
8
CUT_OUTER
10
40.0389
20
255.3599
30
0.0
0
VERTEX
8
CUT_OUTER
10
40.9417
20
256.3366
30
0.0
0
VERTEX
8
CUT_OUTER
10
41.8529
20
257.3052
30
0.0
0
VERTEX
8
CUT_OUTER
10
42.7726
20
258.2659
30
0.0
0
VERTEX
8
CUT_OUTER
10
43.7006
20
259.2186
30
0.0
0
VERTEX
8
CUT_OUTER
10
44.6369
20
260.1631
30
0.0
0
VERTEX
8
CUT_OUTER
10
45.5814
20
261.0994
30
0.0
0
VERTEX
8
CUT_OUTER
10
46.5341
20
262.0274
30
0.0
0
VERTEX
8
CUT_OUTER
10
47.4948
20
262.9471
30
0.0
0
VERTEX
8
CUT_OUTER
10
48.4634
20
263.8583
30
0.0
0
VERTEX
8
CUT_OUTER
10
49.4401
20
264.7611
30
0.0
0
VERTEX
8
CUT_OUTER
10
50.4245
20
265.6553
30
0.0
0
VERTEX
8
CUT_OUTER
10
51.4167
20
266.5409
30
0.0
0
VERTEX
8
CUT_OUTER
10
52.4166
20
267.4177
30
0.0
0
VERTEX
8
CUT_OUTER
10
53.4241
20
268.2859
30
0.0
0
VERTEX
8
CUT_OUTER
10
54.4392
20
269.1452
30
0.0
0
VERTEX
8
CUT_OUTER
10
55.4617
20
269.9956
30
0.0
0
VERTEX
8
CUT_OUTER
10
56.4916
20
270.8370
30
0.0
0
VERTEX
8
CUT_OUTER
10
57.5288
20
271.6695
30
0.0
0
VERTEX
8
CUT_OUTER
10
58.5732
20
272.4928
30
0.0
0
VERTEX
8
CUT_OUTER
10
59.6248
20
273.3070
30
0.0
0
VERTEX
8
CUT_OUTER
10
60.6834
20
274.1121
30
0.0
0
VERTEX
8
CUT_OUTER
10
61.7490
20
274.9078
30
0.0
0
VERTEX
8
CUT_OUTER
10
62.8215
20
275.6942
30
0.0
0
VERTEX
8
CUT_OUTER
10
63.9009
20
276.4712
30
0.0
0
VERTEX
8
CUT_OUTER
10
64.9870
20
277.2388
30
0.0
0
VERTEX
8
CUT_OUTER
10
66.0797
20
277.9968
30
0.0
0
VERTEX
8
CUT_OUTER
10
67.1790
20
278.7453
30
0.0
0
VERTEX
8
CUT_OUTER
10
68.2848
20
279.4842
30
0.0
0
VERTEX
8
CUT_OUTER
10
69.3970
20
280.2134
30
0.0
0
VERTEX
8
CUT_OUTER
10
70.5155
20
280.9329
30
0.0
0
VERTEX
8
CUT_OUTER
10
71.6403
20
281.6425
30
0.0
0
VERTEX
8
CUT_OUTER
10
72.7712
20
282.3424
30
0.0
0
VERTEX
8
CUT_OUTER
10
73.9082
20
283.0323
30
0.0
0
VERTEX
8
CUT_OUTER
10
75.0512
20
283.7123
30
0.0
0
VERTEX
8
CUT_OUTER
10
76.2000
20
284.3823
30
0.0
0
VERTEX
8
CUT_OUTER
10
77.3546
20
285.0422
30
0.0
0
VERTEX
8
CUT_OUTER
10
78.5150
20
285.6920
30
0.0
0
VERTEX
8
CUT_OUTER
10
79.6810
20
286.3317
30
0.0
0
VERTEX
8
CUT_OUTER
10
80.8525
20
286.9612
30
0.0
0
VERTEX
8
CUT_OUTER
10
82.0295
20
287.5805
30
0.0
0
VERTEX
8
CUT_OUTER
10
83.2118
20
288.1894
30
0.0
0
VERTEX
8
CUT_OUTER
10
84.3995
20
288.7880
30
0.0
0
VERTEX
8
CUT_OUTER
10
85.5922
20
289.3762
30
0.0
0
VERTEX
8
CUT_OUTER
10
86.7901
20
289.9540
30
0.0
0
VERTEX
8
CUT_OUTER
10
87.9930
20
290.5213
30
0.0
0
VERTEX
8
CUT_OUTER
10
89.2007
20
291.0781
30
0.0
0
VERTEX
8
CUT_OUTER
10
90.4133
20
291.6243
30
0.0
0
VERTEX
8
CUT_OUTER
10
91.6306
20
292.1600
30
0.0
0
VERTEX
8
CUT_OUTER
10
92.8526
20
292.6849
30
0.0
0
VERTEX
8
CUT_OUTER
10
94.0790
20
293.1992
30
0.0
0
VERTEX
8
CUT_OUTER
10
95.3100
20
293.7028
30
0.0
0
VERTEX
8
CUT_OUTER
10
96.5452
20
294.1956
30
0.0
0
VERTEX
8
CUT_OUTER
10
97.7847
20
294.6777
30
0.0
0
VERTEX
8
CUT_OUTER
10
99.0284
20
295.1488
30
0.0
0
VERTEX
8
CUT_OUTER
10
100.2761
20
295.6092
30
0.0
0
VERTEX
8
CUT_OUTER
10
101.5278
20
296.0586
30
0.0
0
VERTEX
8
CUT_OUTER
10
102.7834
20
296.4970
30
0.0
0
VERTEX
8
CUT_OUTER
10
104.0428
20
296.9245
30
0.0
0
VERTEX
8
CUT_OUTER
10
105.3058
20
297.3410
30
0.0
0
VERTEX
8
CUT_OUTER
10
106.5724
20
297.7465
30
0.0
0
VERTEX
8
CUT_OUTER
10
107.8426
20
298.1408
30
0.0
0
VERTEX
8
CUT_OUTER
10
109.1161
20
298.5241
30
0.0
0
VERTEX
8
CUT_OUTER
10
110.3929
20
298.8963
30
0.0
0
VERTEX
8
CUT_OUTER
10
111.6729
20
299.2573
30
0.0
0
VERTEX
8
CUT_OUTER
10
112.9560
20
299.6071
30
0.0
0
VERTEX
8
CUT_OUTER
10
114.2421
20
299.9457
30
0.0
0
VERTEX
8
CUT_OUTER
10
115.5311
20
300.2731
30
0.0
0
VERTEX
8
CUT_OUTER
10
116.8229
20
300.5892
30
0.0
0
VERTEX
8
CUT_OUTER
10
118.1175
20
300.8940
30
0.0
0
VERTEX
8
CUT_OUTER
10
119.4146
20
301.1875
30
0.0
0
VERTEX
8
CUT_OUTER
10
120.7143
20
301.4697
30
0.0
0
VERTEX
8
CUT_OUTER
10
122.0163
20
301.7405
30
0.0
0
VERTEX
8
CUT_OUTER
10
123.3207
20
302.0000
30
0.0
0
VERTEX
8
CUT_OUTER
10
124.6273
20
302.2480
30
0.0
0
VERTEX
8
CUT_OUTER
10
125.9360
20
302.4847
30
0.0
0
VERTEX
8
CUT_OUTER
10
127.2467
20
302.7099
30
0.0
0
VERTEX
8
CUT_OUTER
10
128.5594
20
302.9237
30
0.0
0
VERTEX
8
CUT_OUTER
10
129.8738
20
303.1260
30
0.0
0
VERTEX
8
CUT_OUTER
10
131.1900
20
303.3169
30
0.0
0
VERTEX
8
CUT_OUTER
10
132.5078
20
303.4962
30
0.0
0
VERTEX
8
CUT_OUTER
10
133.8271
20
303.6640
30
0.0
0
VERTEX
8
CUT_OUTER
10
135.1478
20
303.8204
30
0.0
0
VERTEX
8
CUT_OUTER
10
136.4699
20
303.9651
30
0.0
0
VERTEX
8
CUT_OUTER
10
137.7931
20
304.0984
30
0.0
0
VERTEX
8
CUT_OUTER
10
139.1175
20
304.2201
30
0.0
0
VERTEX
8
CUT_OUTER
10
140.4428
20
304.3302
30
0.0
0
VERTEX
8
CUT_OUTER
10
141.7691
20
304.4288
30
0.0
0
VERTEX
8
CUT_OUTER
10
143.0962
20
304.5157
30
0.0
0
VERTEX
8
CUT_OUTER
10
144.4240
20
304.5911
30
0.0
0
VERTEX
8
CUT_OUTER
10
145.7524
20
304.6549
30
0.0
0
VERTEX
8
CUT_OUTER
10
147.0813
20
304.7072
30
0.0
0
VERTEX
8
CUT_OUTER
10
148.4106
20
304.7478
30
0.0
0
VERTEX
8
CUT_OUTER
10
149.7403
20
304.7768
30
0.0
0
VERTEX
8
CUT_OUTER
10
151.0701
20
304.7942
30
0.0
0
VERTEX
8
CUT_OUTER
10
152.4000
20
304.8000
30
0.0
0
VERTEX
8
CUT_OUTER
10
153.7299
20
304.7942
30
0.0
0
VERTEX
8
CUT_OUTER
10
155.0597
20
304.7768
30
0.0
0
VERTEX
8
CUT_OUTER
10
156.3894
20
304.7478
30
0.0
0
VERTEX
8
CUT_OUTER
10
157.7187
20
304.7072
30
0.0
0
VERTEX
8
CUT_OUTER
10
159.0476
20
304.6549
30
0.0
0
VERTEX
8
CUT_OUTER
10
160.3760
20
304.5911
30
0.0
0
VERTEX
8
CUT_OUTER
10
161.7038
20
304.5157
30
0.0
0
VERTEX
8
CUT_OUTER
10
163.0309
20
304.4288
30
0.0
0
VERTEX
8
CUT_OUTER
10
164.3572
20
304.3302
30
0.0
0
VERTEX
8
CUT_OUTER
10
165.6825
20
304.2201
30
0.0
0
VERTEX
8
CUT_OUTER
10
167.0069
20
304.0984
30
0.0
0
VERTEX
8
CUT_OUTER
10
168.3301
20
303.9651
30
0.0
0
VERTEX
8
CUT_OUTER
10
169.6522
20
303.8204
30
0.0
0
VERTEX
8
CUT_OUTER
10
170.9729
20
303.6640
30
0.0
0
VERTEX
8
CUT_OUTER
10
172.2922
20
303.4962
30
0.0
0
VERTEX
8
CUT_OUTER
10
173.6100
20
303.3169
30
0.0
0
VERTEX
8
CUT_OUTER
10
174.9262
20
303.1260
30
0.0
0
VERTEX
8
CUT_OUTER
10
176.2406
20
302.9237
30
0.0
0
VERTEX
8
CUT_OUTER
10
177.5533
20
302.7099
30
0.0
0
VERTEX
8
CUT_OUTER
10
178.8640
20
302.4847
30
0.0
0
VERTEX
8
CUT_OUTER
10
180.1727
20
302.2480
30
0.0
0
VERTEX
8
CUT_OUTER
10
181.4793
20
302.0000
30
0.0
0
VERTEX
8
CUT_OUTER
10
182.7837
20
301.7405
30
0.0
0
VERTEX
8
CUT_OUTER
10
184.0857
20
301.4697
30
0.0
0
VERTEX
8
CUT_OUTER
10
185.3854
20
301.1875
30
0.0
0
VERTEX
8
CUT_OUTER
10
186.6825
20
300.8940
30
0.0
0
VERTEX
8
CUT_OUTER
10
187.9771
20
300.5892
30
0.0
0
VERTEX
8
CUT_OUTER
10
189.2689
20
300.2731
30
0.0
0
VERTEX
8
CUT_OUTER
10
190.5579
20
299.9457
30
0.0
0
VERTEX
8
CUT_OUTER
10
191.8440
20
299.6071
30
0.0
0
VERTEX
8
CUT_OUTER
10
193.1271
20
299.2573
30
0.0
0
VERTEX
8
CUT_OUTER
10
194.4071
20
298.8963
30
0.0
0
VERTEX
8
CUT_OUTER
10
195.6839
20
298.5241
30
0.0
0
VERTEX
8
CUT_OUTER
10
196.9574
20
298.1408
30
0.0
0
VERTEX
8
CUT_OUTER
10
198.2276
20
297.7465
30
0.0
0
VERTEX
8
CUT_OUTER
10
199.4942
20
297.3410
30
0.0
0
VERTEX
8
CUT_OUTER
10
200.7572
20
296.9245
30
0.0
0
VERTEX
8
CUT_OUTER
10
202.0166
20
296.4970
30
0.0
0
VERTEX
8
CUT_OUTER
10
203.2722
20
296.0586
30
0.0
0
VERTEX
8
CUT_OUTER
10
204.5239
20
295.6092
30
0.0
0
VERTEX
8
CUT_OUTER
10
205.7716
20
295.1488
30
0.0
0
VERTEX
8
CUT_OUTER
10
207.0153
20
294.6777
30
0.0
0
VERTEX
8
CUT_OUTER
10
208.2548
20
294.1956
30
0.0
0
VERTEX
8
CUT_OUTER
10
209.4900
20
293.7028
30
0.0
0
VERTEX
8
CUT_OUTER
10
210.7210
20
293.1992
30
0.0
0
VERTEX
8
CUT_OUTER
10
211.9474
20
292.6849
30
0.0
0
VERTEX
8
CUT_OUTER
10
213.1694
20
292.1600
30
0.0
0
VERTEX
8
CUT_OUTER
10
214.3867
20
291.6243
30
0.0
0
VERTEX
8
CUT_OUTER
10
215.5993
20
291.0781
30
0.0
0
VERTEX
8
CUT_OUTER
10
216.8070
20
290.5213
30
0.0
0
VERTEX
8
CUT_OUTER
10
218.0099
20
289.9540
30
0.0
0
VERTEX
8
CUT_OUTER
10
219.2078
20
289.3762
30
0.0
0
VERTEX
8
CUT_OUTER
10
220.4005
20
288.7880
30
0.0
0
VERTEX
8
CUT_OUTER
10
221.5882
20
288.1894
30
0.0
0
VERTEX
8
CUT_OUTER
10
222.7705
20
287.5805
30
0.0
0
VERTEX
8
CUT_OUTER
10
223.9475
20
286.9612
30
0.0
0
VERTEX
8
CUT_OUTER
10
225.1190
20
286.3317
30
0.0
0
VERTEX
8
CUT_OUTER
10
226.2850
20
285.6920
30
0.0
0
VERTEX
8
CUT_OUTER
10
227.4454
20
285.0422
30
0.0
0
VERTEX
8
CUT_OUTER
10
228.6000
20
284.3823
30
0.0
0
VERTEX
8
CUT_OUTER
10
229.7488
20
283.7123
30
0.0
0
VERTEX
8
CUT_OUTER
10
230.8918
20
283.0323
30
0.0
0
VERTEX
8
CUT_OUTER
10
232.0288
20
282.3424
30
0.0
0
VERTEX
8
CUT_OUTER
10
233.1597
20
281.6425
30
0.0
0
VERTEX
8
CUT_OUTER
10
234.2845
20
280.9329
30
0.0
0
VERTEX
8
CUT_OUTER
10
235.4030
20
280.2134
30
0.0
0
VERTEX
8
CUT_OUTER
10
236.5152
20
279.4842
30
0.0
0
VERTEX
8
CUT_OUTER
10
237.6210
20
278.7453
30
0.0
0
VERTEX
8
CUT_OUTER
10
238.7203
20
277.9968
30
0.0
0
VERTEX
8
CUT_OUTER
10
239.8130
20
277.2388
30
0.0
0
VERTEX
8
CUT_OUTER
10
240.8991
20
276.4712
30
0.0
0
VERTEX
8
CUT_OUTER
10
241.9785
20
275.6942
30
0.0
0
VERTEX
8
CUT_OUTER
10
243.0510
20
274.9078
30
0.0
0
VERTEX
8
CUT_OUTER
10
244.1166
20
274.1121
30
0.0
0
VERTEX
8
CUT_OUTER
10
245.1752
20
273.3070
30
0.0
0
VERTEX
8
CUT_OUTER
10
246.2268
20
272.4928
30
0.0
0
VERTEX
8
CUT_OUTER
10
247.2712
20
271.6695
30
0.0
0
VERTEX
8
CUT_OUTER
10
248.3084
20
270.8370
30
0.0
0
VERTEX
8
CUT_OUTER
10
249.3383
20
269.9956
30
0.0
0
VERTEX
8
CUT_OUTER
10
250.3608
20
269.1452
30
0.0
0
VERTEX
8
CUT_OUTER
10
251.3759
20
268.2859
30
0.0
0
VERTEX
8
CUT_OUTER
10
252.3834
20
267.4177
30
0.0
0
VERTEX
8
CUT_OUTER
10
253.3833
20
266.5409
30
0.0
0
VERTEX
8
CUT_OUTER
10
254.3755
20
265.6553
30
0.0
0
VERTEX
8
CUT_OUTER
10
255.3599
20
264.7611
30
0.0
0
VERTEX
8
CUT_OUTER
10
256.3366
20
263.8583
30
0.0
0
VERTEX
8
CUT_OUTER
10
257.3052
20
262.9471
30
0.0
0
VERTEX
8
CUT_OUTER
10
258.2659
20
262.0274
30
0.0
0
VERTEX
8
CUT_OUTER
10
259.2186
20
261.0994
30
0.0
0
VERTEX
8
CUT_OUTER
10
260.1631
20
260.1631
30
0.0
0
VERTEX
8
CUT_OUTER
10
261.0994
20
259.2186
30
0.0
0
VERTEX
8
CUT_OUTER
10
262.0274
20
258.2659
30
0.0
0
VERTEX
8
CUT_OUTER
10
262.9471
20
257.3052
30
0.0
0
VERTEX
8
CUT_OUTER
10
263.8583
20
256.3366
30
0.0
0
VERTEX
8
CUT_OUTER
10
264.7611
20
255.3599
30
0.0
0
VERTEX
8
CUT_OUTER
10
265.6553
20
254.3755
30
0.0
0
VERTEX
8
CUT_OUTER
10
266.5409
20
253.3833
30
0.0
0
VERTEX
8
CUT_OUTER
10
267.4177
20
252.3834
30
0.0
0
VERTEX
8
CUT_OUTER
10
268.2859
20
251.3759
30
0.0
0
VERTEX
8
CUT_OUTER
10
269.1452
20
250.3608
30
0.0
0
VERTEX
8
CUT_OUTER
10
269.9956
20
249.3383
30
0.0
0
VERTEX
8
CUT_OUTER
10
270.8370
20
248.3084
30
0.0
0
VERTEX
8
CUT_OUTER
10
271.6695
20
247.2712
30
0.0
0
VERTEX
8
CUT_OUTER
10
272.4928
20
246.2268
30
0.0
0
VERTEX
8
CUT_OUTER
10
273.3070
20
245.1752
30
0.0
0
VERTEX
8
CUT_OUTER
10
274.1121
20
244.1166
30
0.0
0
VERTEX
8
CUT_OUTER
10
274.9078
20
243.0510
30
0.0
0
VERTEX
8
CUT_OUTER
10
275.6942
20
241.9785
30
0.0
0
VERTEX
8
CUT_OUTER
10
276.4712
20
240.8991
30
0.0
0
VERTEX
8
CUT_OUTER
10
277.2388
20
239.8130
30
0.0
0
VERTEX
8
CUT_OUTER
10
277.9968
20
238.7203
30
0.0
0
VERTEX
8
CUT_OUTER
10
278.7453
20
237.6210
30
0.0
0
VERTEX
8
CUT_OUTER
10
279.4842
20
236.5152
30
0.0
0
VERTEX
8
CUT_OUTER
10
280.2134
20
235.4030
30
0.0
0
VERTEX
8
CUT_OUTER
10
280.9329
20
234.2845
30
0.0
0
VERTEX
8
CUT_OUTER
10
281.6425
20
233.1597
30
0.0
0
VERTEX
8
CUT_OUTER
10
282.3424
20
232.0288
30
0.0
0
VERTEX
8
CUT_OUTER
10
283.0323
20
230.8918
30
0.0
0
VERTEX
8
CUT_OUTER
10
283.7123
20
229.7488
30
0.0
0
VERTEX
8
CUT_OUTER
10
284.3823
20
228.6000
30
0.0
0
VERTEX
8
CUT_OUTER
10
285.0422
20
227.4454
30
0.0
0
VERTEX
8
CUT_OUTER
10
285.6920
20
226.2850
30
0.0
0
VERTEX
8
CUT_OUTER
10
286.3317
20
225.1190
30
0.0
0
VERTEX
8
CUT_OUTER
10
286.9612
20
223.9475
30
0.0
0
VERTEX
8
CUT_OUTER
10
287.5805
20
222.7705
30
0.0
0
VERTEX
8
CUT_OUTER
10
288.1894
20
221.5882
30
0.0
0
VERTEX
8
CUT_OUTER
10
288.7880
20
220.4005
30
0.0
0
VERTEX
8
CUT_OUTER
10
289.3762
20
219.2078
30
0.0
0
VERTEX
8
CUT_OUTER
10
289.9540
20
218.0099
30
0.0
0
VERTEX
8
CUT_OUTER
10
290.5213
20
216.8070
30
0.0
0
VERTEX
8
CUT_OUTER
10
291.0781
20
215.5993
30
0.0
0
VERTEX
8
CUT_OUTER
10
291.6243
20
214.3867
30
0.0
0
VERTEX
8
CUT_OUTER
10
292.1600
20
213.1694
30
0.0
0
VERTEX
8
CUT_OUTER
10
292.6849
20
211.9474
30
0.0
0
VERTEX
8
CUT_OUTER
10
293.1992
20
210.7210
30
0.0
0
VERTEX
8
CUT_OUTER
10
293.7028
20
209.4900
30
0.0
0
VERTEX
8
CUT_OUTER
10
294.1956
20
208.2548
30
0.0
0
VERTEX
8
CUT_OUTER
10
294.6777
20
207.0153
30
0.0
0
VERTEX
8
CUT_OUTER
10
295.1488
20
205.7716
30
0.0
0
VERTEX
8
CUT_OUTER
10
295.6092
20
204.5239
30
0.0
0
VERTEX
8
CUT_OUTER
10
296.0586
20
203.2722
30
0.0
0
VERTEX
8
CUT_OUTER
10
296.4970
20
202.0166
30
0.0
0
VERTEX
8
CUT_OUTER
10
296.9245
20
200.7572
30
0.0
0
VERTEX
8
CUT_OUTER
10
297.3410
20
199.4942
30
0.0
0
VERTEX
8
CUT_OUTER
10
297.7465
20
198.2276
30
0.0
0
VERTEX
8
CUT_OUTER
10
298.1408
20
196.9574
30
0.0
0
VERTEX
8
CUT_OUTER
10
298.5241
20
195.6839
30
0.0
0
VERTEX
8
CUT_OUTER
10
298.8963
20
194.4071
30
0.0
0
VERTEX
8
CUT_OUTER
10
299.2573
20
193.1271
30
0.0
0
VERTEX
8
CUT_OUTER
10
299.6071
20
191.8440
30
0.0
0
VERTEX
8
CUT_OUTER
10
299.9457
20
190.5579
30
0.0
0
VERTEX
8
CUT_OUTER
10
300.2731
20
189.2689
30
0.0
0
VERTEX
8
CUT_OUTER
10
300.5892
20
187.9771
30
0.0
0
VERTEX
8
CUT_OUTER
10
300.8940
20
186.6825
30
0.0
0
VERTEX
8
CUT_OUTER
10
301.1875
20
185.3854
30
0.0
0
VERTEX
8
CUT_OUTER
10
301.4697
20
184.0857
30
0.0
0
VERTEX
8
CUT_OUTER
10
301.7405
20
182.7837
30
0.0
0
VERTEX
8
CUT_OUTER
10
302.0000
20
181.4793
30
0.0
0
VERTEX
8
CUT_OUTER
10
302.2480
20
180.1727
30
0.0
0
VERTEX
8
CUT_OUTER
10
302.4847
20
178.8640
30
0.0
0
VERTEX
8
CUT_OUTER
10
302.7099
20
177.5533
30
0.0
0
VERTEX
8
CUT_OUTER
10
302.9237
20
176.2406
30
0.0
0
VERTEX
8
CUT_OUTER
10
303.1260
20
174.9262
30
0.0
0
VERTEX
8
CUT_OUTER
10
303.3169
20
173.6100
30
0.0
0
VERTEX
8
CUT_OUTER
10
303.4962
20
172.2922
30
0.0
0
VERTEX
8
CUT_OUTER
10
303.6640
20
170.9729
30
0.0
0
VERTEX
8
CUT_OUTER
10
303.8204
20
169.6522
30
0.0
0
VERTEX
8
CUT_OUTER
10
303.9651
20
168.3301
30
0.0
0
VERTEX
8
CUT_OUTER
10
304.0984
20
167.0069
30
0.0
0
VERTEX
8
CUT_OUTER
10
304.2201
20
165.6825
30
0.0
0
VERTEX
8
CUT_OUTER
10
304.3302
20
164.3572
30
0.0
0
VERTEX
8
CUT_OUTER
10
304.4288
20
163.0309
30
0.0
0
VERTEX
8
CUT_OUTER
10
304.5157
20
161.7038
30
0.0
0
VERTEX
8
CUT_OUTER
10
304.5911
20
160.3760
30
0.0
0
VERTEX
8
CUT_OUTER
10
304.6549
20
159.0476
30
0.0
0
VERTEX
8
CUT_OUTER
10
304.7072
20
157.7187
30
0.0
0
VERTEX
8
CUT_OUTER
10
304.7478
20
156.3894
30
0.0
0
VERTEX
8
CUT_OUTER
10
304.7768
20
155.0597
30
0.0
0
VERTEX
8
CUT_OUTER
10
304.7942
20
153.7299
30
0.0
0
SEQEND
8
CUT_OUTER
0
POLYLINE
8
CUT_INNER
66
1
70
1
0
VERTEX
8
CUT_INNER
10
120.6811
20
15.2997
30
0.0
0
VERTEX
8
CUT_INNER
10
122.4723
20
13.9563
30
0.0
0
VERTEX
8
CUT_INNER
10
127.3980
20
13.9563
30
0.0
0
VERTEX
8
CUT_INNER
10
132.0253
20
11.8666
30
0.0
0
VERTEX
8
CUT_INNER
10
139.6378
20
13.3593
30
0.0
0
VERTEX
8
CUT_INNER
10
143.9665
20
11.5681
30
0.0
0
VERTEX
8
CUT_INNER
10
146.2055
20
11.5681
30
0.0
0
VERTEX
8
CUT_INNER
10
150.5342
20
13.3593
30
0.0
0
VERTEX
8
CUT_INNER
10
152.1761
20
13.3593
30
0.0
0
VERTEX
8
CUT_INNER
10
155.3107
20
11.8666
30
0.0
0
VERTEX
8
CUT_INNER
10
158.4452
20
11.8666
30
0.0
0
VERTEX
8
CUT_INNER
10
161.5798
20
13.3593
30
0.0
0
VERTEX
8
CUT_INNER
10
168.2968
20
12.1651
30
0.0
0
VERTEX
8
CUT_INNER
10
172.7747
20
14.8519
30
0.0
0
VERTEX
8
CUT_INNER
10
172.3269
20
15.2997
30
0.0
0
VERTEX
8
CUT_INNER
10
169.7894
20
14.4041
30
0.0
0
VERTEX
8
CUT_INNER
10
166.6548
20
14.4041
30
0.0
0
VERTEX
8
CUT_INNER
10
163.5203
20
15.8968
30
0.0
0
VERTEX
8
CUT_INNER
10
161.8784
20
15.8968
30
0.0
0
VERTEX
8
CUT_INNER
10
158.7438
20
14.4041
30
0.0
0
VERTEX
8
CUT_INNER
10
156.5048
20
14.1056
30
0.0
0
VERTEX
8
CUT_INNER
10
152.1761
20
15.8968
30
0.0
0
VERTEX
8
CUT_INNER
10
150.5342
20
15.8968
30
0.0
0
VERTEX
8
CUT_INNER
10
145.9070
20
14.1056
30
0.0
0
VERTEX
8
CUT_INNER
10
143.9665
20
14.1056
30
0.0
0
VERTEX
8
CUT_INNER
10
139.6378
20
15.8968
30
0.0
0
VERTEX
8
CUT_INNER
10
137.3988
20
15.8968
30
0.0
0
VERTEX
8
CUT_INNER
10
132.0253
20
14.1056
30
0.0
0
VERTEX
8
CUT_INNER
10
127.6966
20
15.8968
30
0.0
0
SEQEND
8
CUT_INNER
0
POLYLINE
8
CUT_INNER
66
1
70
1
0
VERTEX
8
CUT_INNER
10
107.0979
20
17.5387
30
0.0
0
VERTEX
8
CUT_INNER
10
118.4421
20
14.4041
30
0.0
0
VERTEX
8
CUT_INNER
10
112.4715
20
17.3894
30
0.0
0
SEQEND
8
CUT_INNER
0
POLYLINE
8
CUT_INNER
66
1
70
1
0
VERTEX
8
CUT_INNER
10
202.6278
20
19.3299
30
0.0
0
VERTEX
8
CUT_INNER
10
196.3587
20
21.2703
30
0.0
0
VERTEX
8
CUT_INNER
10
194.4182
20
21.2703
30
0.0
0
VERTEX
8
CUT_INNER
10
187.7013
20
18.8821
30
0.0
0
VERTEX
8
CUT_INNER
10
182.3277
20
20.0762
30
0.0
0
VERTEX
8
CUT_INNER
10
181.2829
20
19.7777
30
0.0
0
VERTEX
8
CUT_INNER
10
183.6711
20
17.8372
30
0.0
0
VERTEX
8
CUT_INNER
10
186.9549
20
16.6431
30
0.0
0
VERTEX
8
CUT_INNER
10
190.3881
20
16.9416
30
0.0
0
VERTEX
8
CUT_INNER
10
194.1197
20
18.4343
30
0.0
0
VERTEX
8
CUT_INNER
10
198.8962
20
17.8372
30
0.0
0
SEQEND
8
CUT_INNER
0
POLYLINE
8
CUT_INNER
66
1
70
1
0
VERTEX
8
CUT_INNER
10
169.1924
20
18.7328
30
0.0
0
VERTEX
8
CUT_INNER
10
167.6997
20
20.0762
30
0.0
0
VERTEX
8
CUT_INNER
10
161.4306
20
20.2255
30
0.0
0
VERTEX
8
CUT_INNER
10
161.2813
20
20.9718
30
0.0
0
VERTEX
8
CUT_INNER
10
163.3710
20
23.6586
30
0.0
0
VERTEX
8
CUT_INNER
10
162.6247
20
24.5542
30
0.0
0
VERTEX
8
CUT_INNER
10
114.1134
20
23.9571
30
0.0
0
VERTEX
8
CUT_INNER
10
113.6656
20
23.5093
30
0.0
0
VERTEX
8
CUT_INNER
10
120.9796
20
17.8372
30
0.0
0
VERTEX
8
CUT_INNER
10
124.1142
20
17.5387
30
0.0
0
VERTEX
8
CUT_INNER
10
127.6966
20
18.1357
30
0.0
0
VERTEX
8
CUT_INNER
10
131.4282
20
16.6431
30
0.0
0
VERTEX
8
CUT_INNER
10
133.6672
20
16.6431
30
0.0
0
VERTEX
8
CUT_INNER
10
137.6974
20
18.1357
30
0.0
0
VERTEX
8
CUT_INNER
10
139.9363
20
18.1357
30
0.0
0
VERTEX
8
CUT_INNER
10
143.6680
20
16.6431
30
0.0
0
VERTEX
8
CUT_INNER
10
146.2055
20
16.6431
30
0.0
0
VERTEX
8
CUT_INNER
10
150.2357
20
18.1357
30
0.0
0
VERTEX
8
CUT_INNER
10
158.1467
20
16.6431
30
0.0
0
VERTEX
8
CUT_INNER
10
162.1769
20
18.1357
30
0.0
0
VERTEX
8
CUT_INNER
10
167.4012
20
17.2402
30
0.0
0
SEQEND
8
CUT_INNER
0
POLYLINE
8
CUT_INNER
66
1
70
1
0
VERTEX
8
CUT_INNER
10
165.4607
20
27.8380
30
0.0
0
VERTEX
8
CUT_INNER
10
167.5504
20
25.8976
30
0.0
0
VERTEX
8
CUT_INNER
10
171.7299
20
23.8078
30
0.0
0
VERTEX
8
CUT_INNER
10
179.0439
20
24.1064
30
0.0
0
VERTEX
8
CUT_INNER
10
186.3579
20
21.4196
30
0.0
0
VERTEX
8
CUT_INNER
10
188.8954
20
21.7181
30
0.0
0
VERTEX
8
CUT_INNER
10
194.4182
20
23.8078
30
0.0
0
VERTEX
8
CUT_INNER
10
196.6572
20
23.8078
30
0.0
0
VERTEX
8
CUT_INNER
10
201.5830
20
22.0167
30
0.0
0
VERTEX
8
CUT_INNER
10
205.0161
20
22.0167
30
0.0
0
VERTEX
8
CUT_INNER
10
209.6433
20
24.1064
30
0.0
0
VERTEX
8
CUT_INNER
10
214.1213
20
24.1064
30
0.0
0
VERTEX
8
CUT_INNER
10
216.9573
20
25.5990
30
0.0
0
VERTEX
8
CUT_INNER
10
213.6735
20
26.9424
30
0.0
0
VERTEX
8
CUT_INNER
10
209.9418
20
26.9424
30
0.0
0
VERTEX
8
CUT_INNER
10
203.3741
20
24.8527
30
0.0
0
VERTEX
8
CUT_INNER
10
196.9557
20
26.9424
30
0.0
0
VERTEX
8
CUT_INNER
10
194.1197
20
26.9424
30
0.0
0
VERTEX
8
CUT_INNER
10
188.8954
20
24.8527
30
0.0
0
VERTEX
8
CUT_INNER
10
185.7608
20
24.5542
30
0.0
0
VERTEX
8
CUT_INNER
10
178.7453
20
26.9424
30
0.0
0
VERTEX
8
CUT_INNER
10
172.3269
20
26.0468
30
0.0
0
SEQEND
8
CUT_INNER
0
POLYLINE
8
CUT_INNER
66
1
70
1
0
VERTEX
8
CUT_INNER
10
116.2031
20
25.8976
30
0.0
0
VERTEX
8
CUT_INNER
10
135.4584
20
25.5990
30
0.0
0
VERTEX
8
CUT_INNER
10
138.7422
20
28.7336
30
0.0
0
VERTEX
8
CUT_INNER
10
122.4723
20
29.0321
30
0.0
0
VERTEX
8
CUT_INNER
10
118.5914
20
27.8380
30
0.0
0
SEQEND
8
CUT_INNER
0
POLYLINE
8
CUT_INNER
66
1
70
1
0
VERTEX
8
CUT_INNER
10
155.9077
20
27.2409
30
0.0
0
VERTEX
8
CUT_INNER
10
155.9077
20
27.9873
30
0.0
0
VERTEX
8
CUT_INNER
10
154.2658
20
29.0321
30
0.0
0
VERTEX
8
CUT_INNER
10
146.6533
20
29.3307
30
0.0
0
VERTEX
8
CUT_INNER
10
149.1908
20
33.0623
30
0.0
0
VERTEX
8
CUT_INNER
10
148.5937
20
33.8086
30
0.0
0
VERTEX
8
CUT_INNER
10
145.7577
20
34.1071
30
0.0
0
VERTEX
8
CUT_INNER
10
148.5937
20
38.1373
30
0.0
0
VERTEX
8
CUT_INNER
10
148.2952
20
38.5851
30
0.0
0
VERTEX
8
CUT_INNER
10
146.3548
20
37.9881
30
0.0
0
VERTEX
8
CUT_INNER
10
139.9363
20
33.5101
30
0.0
0
VERTEX
8
CUT_INNER
10
130.8311
20
33.5101
30
0.0
0
VERTEX
8
CUT_INNER
10
127.8458
20
32.6145
30
0.0
0
VERTEX
8
CUT_INNER
10
126.0547
20
31.1218
30
0.0
0
VERTEX
8
CUT_INNER
10
126.3532
20
30.6740
30
0.0
0
VERTEX
8
CUT_INNER
10
142.4738
20
30.5248
30
0.0
0
VERTEX
8
CUT_INNER
10
142.6231
20
30.0770
30
0.0
0
VERTEX
8
CUT_INNER
10
138.4437
20
26.1961
30
0.0
0
VERTEX
8
CUT_INNER
10
138.8915
20
25.5990
30
0.0
0
VERTEX
8
CUT_INNER
10
154.5643
20
25.8976
30
0.0
0
SEQEND
8
CUT_INNER
0
POLYLINE
8
CUT_INNER
66
1
70
1
0
VERTEX
8
CUT_INNER
10
157.4004
20
43.6601
30
0.0
0
VERTEX
8
CUT_INNER
10
172.0284
20
28.2858
30
0.0
0
VERTEX
8
CUT_INNER
10
178.7453
20
29.1814
30
0.0
0
VERTEX
8
CUT_INNER
10
184.8652
20
27.0917
30
0.0
0
VERTEX
8
CUT_INNER
10
188.5969
20
27.0917
30
0.0
0
VERTEX
8
CUT_INNER
10
193.2241
20
28.8829
30
0.0
0
VERTEX
8
CUT_INNER
10
196.6572
20
29.1814
30
0.0
0
VERTEX
8
CUT_INNER
10
202.1800
20
27.3902
30
0.0
0
VERTEX
8
CUT_INNER
10
205.3146
20
27.3902
30
0.0
0
VERTEX
8
CUT_INNER
10
210.5389
20
29.1814
30
0.0
0
VERTEX
8
CUT_INNER
10
213.3749
20
29.1814
30
0.0
0
VERTEX
8
CUT_INNER
10
220.3904
20
27.3902
30
0.0
0
VERTEX
8
CUT_INNER
10
234.5706
20
36.1969
30
0.0
0
VERTEX
8
CUT_INNER
10
233.6750
20
37.6895
30
0.0
0
VERTEX
8
CUT_INNER
10
208.1506
20
37.6895
30
0.0
0
VERTEX
8
CUT_INNER
10
202.0308
20
40.3763
30
0.0
0
VERTEX
8
CUT_INNER
10
178.8946
20
41.8690
30
0.0
0
VERTEX
8
CUT_INNER
10
160.5350
20
43.9587
30
0.0
0
SEQEND
8
CUT_INNER
0
POLYLINE
8
CUT_INNER
66
1
70
1
0
VERTEX
8
CUT_INNER
10
177.1034
20
44.2572
30
0.0
0
VERTEX
8
CUT_INNER
10
181.2829
20
43.2123
30
0.0
0
VERTEX
8
CUT_INNER
10
202.0308
20
42.0182
30
0.0
0
VERTEX
8
CUT_INNER
10
208.4492
20
39.3314
30
0.0
0
VERTEX
8
CUT_INNER
10
227.7044
20
39.0329
30
0.0
0
VERTEX
8
CUT_INNER
10
228.0029
20
39.4807
30
0.0
0
VERTEX
8
CUT_INNER
10
225.9132
20
42.1675
30
0.0
0
VERTEX
8
CUT_INNER
10
231.7346
20
42.7645
30
0.0
0
VERTEX
8
CUT_INNER
10
228.8985
20
44.5557
30
0.0
0
VERTEX
8
CUT_INNER
10
189.1939
20
46.0484
30
0.0
0
VERTEX
8
CUT_INNER
10
180.6858
20
45.7499
30
0.0
0
SEQEND
8
CUT_INNER
0
POLYLINE
8
CUT_INNER
66
1
70
1
0
VERTEX
8
CUT_INNER
10
234.1228
20
48.4366
30
0.0
0
VERTEX
8
CUT_INNER
10
237.1081
20
46.4962
30
0.0
0
VERTEX
8
CUT_INNER
10
242.9295
20
47.3918
30
0.0
0
VERTEX
8
CUT_INNER
10
246.0641
20
46.1976
30
0.0
0
VERTEX
8
CUT_INNER
10
247.1089
20
46.1976
30
0.0
0
VERTEX
8
CUT_INNER
10
249.3479
20
48.2874
30
0.0
0
VERTEX
8
CUT_INNER
10
245.7655
20
48.1381
30
0.0
0
VERTEX
8
CUT_INNER
10
243.8251
20
49.0337
30
0.0
0
VERTEX
8
CUT_INNER
10
241.5861
20
49.0337
30
0.0
0
VERTEX
8
CUT_INNER
10
239.0486
20
48.1381
30
0.0
0
SEQEND
8
CUT_INNER
0
POLYLINE
8
CUT_INNER
66
1
70
1
0
VERTEX
8
CUT_INNER
10
50.2278
20
53.3624
30
0.0
0
VERTEX
8
CUT_INNER
10
54.1087
20
49.4815
30
0.0
0
VERTEX
8
CUT_INNER
10
56.9448
20
49.0337
30
0.0
0
VERTEX
8
CUT_INNER
10
57.5418
20
47.9888
30
0.0
0
VERTEX
8
CUT_INNER
10
56.4970
20
47.2425
30
0.0
0
VERTEX
8
CUT_INNER
10
60.8257
20
43.5109
30
0.0
0
VERTEX
8
CUT_INNER
10
65.4529
20
47.5410
30
0.0
0
VERTEX
8
CUT_INNER
10
65.4529
20
48.8844
30
0.0
0
VERTEX
8
CUT_INNER
10
63.8110
20
50.5263
30
0.0
0
VERTEX
8
CUT_INNER
10
60.8257
20
52.0190
30
0.0
0
VERTEX
8
CUT_INNER
10
55.4521
20
53.2131
30
0.0
0
SEQEND
8
CUT_INNER
0
POLYLINE
8
CUT_INNER
66
1
70
1
0
VERTEX
8
CUT_INNER
10
227.4059
20
49.6308
30
0.0
0
VERTEX
8
CUT_INNER
10
224.7191
20
51.1234
30
0.0
0
VERTEX
8
CUT_INNER
10
215.3154
20
52.6161
30
0.0
0
VERTEX
8
CUT_INNER
10
217.4051
20
55.8999
30
0.0
0
VERTEX
8
CUT_INNER
10
221.1367
20
56.0492
30
0.0
0
VERTEX
8
CUT_INNER
10
223.0772
20
57.0940
30
0.0
0
VERTEX
8
CUT_INNER
10
222.6294
20
57.6911
30
0.0
0
VERTEX
8
CUT_INNER
10
218.3007
20
57.9896
30
0.0
0
VERTEX
8
CUT_INNER
10
218.3007
20
61.2735
30
0.0
0
VERTEX
8
CUT_INNER
10
218.8977
20
62.0198
30
0.0
0
VERTEX
8
CUT_INNER
10
218.3007
20
62.6168
30
0.0
0
VERTEX
8
CUT_INNER
10
217.8529
20
65.6022
30
0.0
0
VERTEX
8
CUT_INNER
10
217.5544
20
63.2139
30
0.0
0
VERTEX
8
CUT_INNER
10
216.5095
20
61.8705
30
0.0
0
VERTEX
8
CUT_INNER
10
216.9573
20
60.8257
30
0.0
0
VERTEX
8
CUT_INNER
10
216.0617
20
58.1389
30
0.0
0
VERTEX
8
CUT_INNER
10
211.7330
20
57.6911
30
0.0
0
VERTEX
8
CUT_INNER
10
211.2852
20
57.0940
30
0.0
0
VERTEX
8
CUT_INNER
10
212.0315
20
55.8999
30
0.0
0
VERTEX
8
CUT_INNER
10
207.7028
20
52.9146
30
0.0
0
VERTEX
8
CUT_INNER
10
203.6727
20
52.9146
30
0.0
0
VERTEX
8
CUT_INNER
10
200.3888
20
51.7205
30
0.0
0
VERTEX
8
CUT_INNER
10
200.9859
20
50.9741
30
0.0
0
VERTEX
8
CUT_INNER
10
211.8823
20
50.3771
30
0.0
0
VERTEX
8
CUT_INNER
10
212.4793
20
49.4815
30
0.0
0
VERTEX
8
CUT_INNER
10
196.5079
20
49.6308
30
0.0
0
VERTEX
8
CUT_INNER
10
194.1197
20
47.6903
30
0.0
0
VERTEX
8
CUT_INNER
10
194.7167
20
47.0932
30
0.0
0
VERTEX
8
CUT_INNER
10
220.8382
20
45.8991
30
0.0
0
VERTEX
8
CUT_INNER
10
221.1367
20
46.3469
30
0.0
0
VERTEX
8
CUT_INNER
10
219.6441
20
48.7352
30
0.0
0
VERTEX
8
CUT_INNER
10
226.8088
20
48.8844
30
0.0
0
SEQEND
8
CUT_INNER
0
POLYLINE
8
CUT_INNER
66
1
70
1
0
VERTEX
8
CUT_INNER
10
128.2936
20
48.7352
30
0.0
0
VERTEX
8
CUT_INNER
10
124.5620
20
49.6308
30
0.0
0
VERTEX
8
CUT_INNER
10
123.3679
20
50.6756
30
0.0
0
VERTEX
8
CUT_INNER
10
121.2782
20
61.4227
30
0.0
0
VERTEX
8
CUT_INNER
10
119.7855
20
64.1095
30
0.0
0
VERTEX
8
CUT_INNER
10
116.6509
20
66.6470
30
0.0
0
VERTEX
8
CUT_INNER
10
112.3222
20
67.2441
30
0.0
0
VERTEX
8
CUT_INNER
10
108.2921
20
69.0353
30
0.0
0
VERTEX
8
CUT_INNER
10
104.2619
20
69.0353
30
0.0
0
VERTEX
8
CUT_INNER
10
99.6347
20
66.6470
30
0.0
0
VERTEX
8
CUT_INNER
10
87.8427
20
67.5426
30
0.0
0
VERTEX
8
CUT_INNER
10
82.1706
20
65.7514
30
0.0
0
VERTEX
8
CUT_INNER
10
77.5434
20
61.4227
30
0.0
0
VERTEX
8
CUT_INNER
10
74.8566
20
55.1536
30
0.0
0
VERTEX
8
CUT_INNER
10
73.6625
20
48.5859
30
0.0
0
VERTEX
8
CUT_INNER
10
71.2742
20
45.8991
30
0.0
0
VERTEX
8
CUT_INNER
10
70.6772
20
42.7645
30
0.0
0
VERTEX
8
CUT_INNER
10
71.5728
20
42.3167
30
0.0
0
VERTEX
8
CUT_INNER
10
73.5132
20
43.9587
30
0.0
0
VERTEX
8
CUT_INNER
10
73.8118
20
46.9440
30
0.0
0
VERTEX
8
CUT_INNER
10
76.3493
20
52.4668
30
0.0
0
VERTEX
8
CUT_INNER
10
76.9463
20
52.0190
30
0.0
0
VERTEX
8
CUT_INNER
10
77.8419
20
44.1079
30
0.0
0
VERTEX
8
CUT_INNER
10
73.9610
20
33.6594
30
0.0
0
VERTEX
8
CUT_INNER
10
76.2000
20
32.1667
30
0.0
0
VERTEX
8
CUT_INNER
10
80.5287
20
32.1667
30
0.0
0
VERTEX
8
CUT_INNER
10
81.2750
20
32.9130
30
0.0
0
VERTEX
8
CUT_INNER
10
81.2750
20
33.9579
30
0.0
0
VERTEX
8
CUT_INNER
10
80.0809
20
35.1520
30
0.0
0
VERTEX
8
CUT_INNER
10
80.3794
20
37.3910
30
0.0
0
VERTEX
8
CUT_INNER
10
81.8721
20
40.0778
30
0.0
0
VERTEX
8
CUT_INNER
10
85.1559
20
43.2123
30
0.0
0
VERTEX
8
CUT_INNER
10
85.6037
20
42.6153
30
0.0
0
VERTEX
8
CUT_INNER
10
84.7081
20
41.2719
30
0.0
0
VERTEX
8
CUT_INNER
10
85.9023
20
36.4954
30
0.0
0
VERTEX
8
CUT_INNER
10
85.9023
20
32.9130
30
0.0
0
VERTEX
8
CUT_INNER
10
86.3500
20
32.4652
30
0.0
0
VERTEX
8
CUT_INNER
10
92.1714
20
32.4652
30
0.0
0
VERTEX
8
CUT_INNER
10
92.9177
20
33.6594
30
0.0
0
VERTEX
8
CUT_INNER
10
90.8280
20
36.0476
30
0.0
0
VERTEX
8
CUT_INNER
10
89.9324
20
43.8094
30
0.0
0
VERTEX
8
CUT_INNER
10
89.1861
20
44.7050
30
0.0
0
VERTEX
8
CUT_INNER
10
97.9928
20
47.8396
30
0.0
0
VERTEX
8
CUT_INNER
10
98.4405
20
47.5410
30
0.0
0
VERTEX
8
CUT_INNER
10
98.1420
20
39.6300
30
0.0
0
VERTEX
8
CUT_INNER
10
97.5450
20
35.7491
30
0.0
0
VERTEX
8
CUT_INNER
10
96.3508
20
33.6594
30
0.0
0
VERTEX
8
CUT_INNER
10
97.0972
20
32.4652
30
0.0
0
VERTEX
8
CUT_INNER
10
102.9185
20
32.4652
30
0.0
0
VERTEX
8
CUT_INNER
10
103.6648
20
33.2116
30
0.0
0
VERTEX
8
CUT_INNER
10
103.3663
20
34.5549
30
0.0
0
VERTEX
8
CUT_INNER
10
102.1722
20
35.7491
30
0.0
0
VERTEX
8
CUT_INNER
10
102.1722
20
37.0925
30
0.0
0
VERTEX
8
CUT_INNER
10
104.4112
20
44.4065
30
0.0
0
VERTEX
8
CUT_INNER
10
107.0979
20
40.3763
30
0.0
0
VERTEX
8
CUT_INNER
10
108.5906
20
36.7939
30
0.0
0
VERTEX
8
CUT_INNER
10
107.9935
20
32.9130
30
0.0
0
VERTEX
8
CUT_INNER
10
108.4413
20
32.4652
30
0.0
0
VERTEX
8
CUT_INNER
10
113.9642
20
32.4652
30
0.0
0
VERTEX
8
CUT_INNER
10
115.3075
20
33.2116
30
0.0
0
VERTEX
8
CUT_INNER
10
115.3075
20
34.2564
30
0.0
0
VERTEX
8
CUT_INNER
10
113.2178
20
36.6447
30
0.0
0
VERTEX
8
CUT_INNER
10
109.3369
20
50.3771
30
0.0
0
VERTEX
8
CUT_INNER
10
109.3369
20
52.0190
30
0.0
0
VERTEX
8
CUT_INNER
10
110.0833
20
52.6161
30
0.0
0
VERTEX
8
CUT_INNER
10
111.7252
20
51.5712
30
0.0
0
VERTEX
8
CUT_INNER
10
113.6656
20
52.6161
30
0.0
0
VERTEX
8
CUT_INNER
10
116.0539
20
52.1683
30
0.0
0
VERTEX
8
CUT_INNER
10
117.2480
20
50.2278
30
0.0
0
VERTEX
8
CUT_INNER
10
119.3377
20
48.7352
30
0.0
0
VERTEX
8
CUT_INNER
10
120.2333
20
44.2572
30
0.0
0
VERTEX
8
CUT_INNER
10
119.9348
20
41.7197
30
0.0
0
VERTEX
8
CUT_INNER
10
119.0392
20
40.9734
30
0.0
0
VERTEX
8
CUT_INNER
10
117.8451
20
41.1226
30
0.0
0
VERTEX
8
CUT_INNER
10
117.5465
20
43.6601
30
0.0
0
VERTEX
8
CUT_INNER
10
116.5017
20
43.6601
30
0.0
0
VERTEX
8
CUT_INNER
10
115.4568
20
42.6153
30
0.0
0
VERTEX
8
CUT_INNER
10
116.0539
20
39.4807
30
0.0
0
VERTEX
8
CUT_INNER
10
117.9943
20
38.1373
30
0.0
0
VERTEX
8
CUT_INNER
10
120.2333
20
38.1373
30
0.0
0
VERTEX
8
CUT_INNER
10
122.7708
20
40.3763
30
0.0
0
VERTEX
8
CUT_INNER
10
123.6664
20
43.0631
30
0.0
0
VERTEX
8
CUT_INNER
10
123.6664
20
47.3918
30
0.0
0
VERTEX
8
CUT_INNER
10
127.3980
20
47.6903
30
0.0
0
SEQEND
8
CUT_INNER
0
POLYLINE
8
CUT_INNER
66
1
70
1
0
VERTEX
8
CUT_INNER
10
45.1528
20
71.1250
30
0.0
0
VERTEX
8
CUT_INNER
10
44.7050
20
70.6772
30
0.0
0
VERTEX
8
CUT_INNER
10
44.7050
20
59.3330
30
0.0
0
VERTEX
8
CUT_INNER
10
46.1976
20
57.6911
30
0.0
0
VERTEX
8
CUT_INNER
10
46.4962
20
61.8705
30
0.0
0
VERTEX
8
CUT_INNER
10
47.5410
20
61.4227
30
0.0
0
VERTEX
8
CUT_INNER
10
50.3771
20
61.7213
30
0.0
0
VERTEX
8
CUT_INNER
10
56.6462
20
64.8558
30
0.0
0
VERTEX
8
CUT_INNER
10
47.9888
20
69.0353
30
0.0
0
VERTEX
8
CUT_INNER
10
46.7947
20
68.4382
30
0.0
0
VERTEX
8
CUT_INNER
10
47.0932
20
67.2441
30
0.0
0
VERTEX
8
CUT_INNER
10
46.3469
20
67.0948
30
0.0
0
VERTEX
8
CUT_INNER
10
46.3469
20
70.3786
30
0.0
0
SEQEND
8
CUT_INNER
0
POLYLINE
8
CUT_INNER
66
1
70
1
0
VERTEX
8
CUT_INNER
10
251.1391
20
80.8272
30
0.0
0
VERTEX
8
CUT_INNER
10
235.4662
20
57.5418
30
0.0
0
VERTEX
8
CUT_INNER
10
235.9140
20
56.9448
30
0.0
0
VERTEX
8
CUT_INNER
10
246.8104
20
56.9448
30
0.0
0
VERTEX
8
CUT_INNER
10
247.2582
20
57.3926
30
0.0
0
VERTEX
8
CUT_INNER
10
251.4376
20
79.7824
30
0.0
0
SEQEND
8
CUT_INNER
0
POLYLINE
8
CUT_INNER
66
1
70
1
0
VERTEX
8
CUT_INNER
10
279.2010
20
88.1412
30
0.0
0
VERTEX
8
CUT_INNER
10
277.4098
20
87.2456
30
0.0
0
VERTEX
8
CUT_INNER
10
274.8723
20
84.4096
30
0.0
0
VERTEX
8
CUT_INNER
10
273.0811
20
80.2302
30
0.0
0
VERTEX
8
CUT_INNER
10
272.9318
20
76.9463
30
0.0
0
SEQEND
8
CUT_INNER
0
POLYLINE
8
CUT_INNER
66
1
70
1
0
VERTEX
8
CUT_INNER
10
254.1244
20
89.7832
30
0.0
0
VERTEX
8
CUT_INNER
10
253.3781
20
88.5890
30
0.0
0
VERTEX
8
CUT_INNER
10
252.1839
20
73.9610
30
0.0
0
VERTEX
8
CUT_INNER
10
249.1986
20
56.0492
30
0.0
0
VERTEX
8
CUT_INNER
10
244.7207
20
55.3028
30
0.0
0
VERTEX
8
CUT_INNER
10
232.3316
20
55.3028
30
0.0
0
VERTEX
8
CUT_INNER
10
232.4809
20
54.1087
30
0.0
0
VERTEX
8
CUT_INNER
10
235.9140
20
50.9741
30
0.0
0
VERTEX
8
CUT_INNER
10
244.1236
20
50.9741
30
0.0
0
VERTEX
8
CUT_INNER
10
246.6611
20
50.3771
30
0.0
0
VERTEX
8
CUT_INNER
10
252.1839
20
50.9741
30
0.0
0
VERTEX
8
CUT_INNER
10
258.0053
20
56.9448
30
0.0
0
VERTEX
8
CUT_INNER
10
251.2883
20
56.7955
30
0.0
0
VERTEX
8
CUT_INNER
10
250.8405
20
57.9896
30
0.0
0
VERTEX
8
CUT_INNER
10
255.9156
20
59.0345
30
0.0
0
VERTEX
8
CUT_INNER
10
259.7965
20
59.0345
30
0.0
0
VERTEX
8
CUT_INNER
10
262.1847
20
61.8705
30
0.0
0
VERTEX
8
CUT_INNER
10
261.5877
20
68.5875
30
0.0
0
VERTEX
8
CUT_INNER
10
259.7965
20
76.0507
30
0.0
0
VERTEX
8
CUT_INNER
10
257.1097
20
83.8125
30
0.0
0
SEQEND
8
CUT_INNER
0
POLYLINE
8
CUT_INNER
66
1
70
1
0
VERTEX
8
CUT_INNER
10
274.5738
20
95.6045
30
0.0
0
VERTEX
8
CUT_INNER
10
271.7377
20
96.2016
30
0.0
0
VERTEX
8
CUT_INNER
10
265.9164
20
94.4104
30
0.0
0
VERTEX
8
CUT_INNER
10
263.6774
20
94.4104
30
0.0
0
VERTEX
8
CUT_INNER
10
257.8560
20
96.5001
30
0.0
0
VERTEX
8
CUT_INNER
10
253.8259
20
96.7986
30
0.0
0
VERTEX
8
CUT_INNER
10
247.4074
20
94.7089
30
0.0
0
VERTEX
8
CUT_INNER
10
243.6758
20
94.7089
30
0.0
0
VERTEX
8
CUT_INNER
10
238.7500
20
96.5001
30
0.0
0
VERTEX
8
CUT_INNER
10
234.7199
20
96.5001
30
0.0
0
VERTEX
8
CUT_INNER
10
232.9287
20
95.4552
30
0.0
0
VERTEX
8
CUT_INNER
10
237.5559
20
94.8582
30
0.0
0
VERTEX
8
CUT_INNER
10
242.4817
20
92.4699
30
0.0
0
VERTEX
8
CUT_INNER
10
245.1685
20
91.8729
30
0.0
0
VERTEX
8
CUT_INNER
10
248.9001
20
92.1714
30
0.0
0
VERTEX
8
CUT_INNER
10
253.2288
20
93.6641
30
0.0
0
VERTEX
8
CUT_INNER
10
256.9604
20
93.6641
30
0.0
0
VERTEX
8
CUT_INNER
10
261.5877
20
92.1714
30
0.0
0
VERTEX
8
CUT_INNER
10
265.3193
20
91.8729
30
0.0
0
VERTEX
8
CUT_INNER
10
271.7377
20
94.5596
30
0.0
0
VERTEX
8
CUT_INNER
10
273.9767
20
94.8582
30
0.0
0
SEQEND
8
CUT_INNER
0
POLYLINE
8
CUT_INNER
66
1
70
1
0
VERTEX
8
CUT_INNER
10
167.2519
20
96.2016
30
0.0
0
VERTEX
8
CUT_INNER
10
166.8041
20
95.6045
30
0.0
0
VERTEX
8
CUT_INNER
10
167.4012
20
94.2611
30
0.0
0
VERTEX
8
CUT_INNER
10
164.1173
20
91.2758
30
0.0
0
VERTEX
8
CUT_INNER
10
164.1173
20
90.2310
30
0.0
0
VERTEX
8
CUT_INNER
10
164.5651
20
89.7832
30
0.0
0
VERTEX
8
CUT_INNER
10
166.6548
20
90.3802
30
0.0
0
VERTEX
8
CUT_INNER
10
169.7894
20
90.2310
30
0.0
0
VERTEX
8
CUT_INNER
10
171.8791
20
79.1853
30
0.0
0
VERTEX
8
CUT_INNER
10
173.6703
20
75.0059
30
0.0
0
VERTEX
8
CUT_INNER
10
173.0733
20
69.6323
30
0.0
0
VERTEX
8
CUT_INNER
10
174.2674
20
67.2441
30
0.0
0
VERTEX
8
CUT_INNER
10
174.8644
20
63.3632
30
0.0
0
VERTEX
8
CUT_INNER
10
174.8644
20
55.1536
30
0.0
0
VERTEX
8
CUT_INNER
10
174.2674
20
51.5712
30
0.0
0
VERTEX
8
CUT_INNER
10
173.3718
20
50.2278
30
0.0
0
VERTEX
8
CUT_INNER
10
173.8196
20
49.7800
30
0.0
0
VERTEX
8
CUT_INNER
10
175.6108
20
50.2278
30
0.0
0
VERTEX
8
CUT_INNER
10
176.8049
20
62.1690
30
0.0
0
VERTEX
8
CUT_INNER
10
177.5512
20
63.5124
30
0.0
0
VERTEX
8
CUT_INNER
10
178.1483
20
63.0646
30
0.0
0
VERTEX
8
CUT_INNER
10
179.3424
20
51.8697
30
0.0
0
VERTEX
8
CUT_INNER
10
178.4468
20
50.2278
30
0.0
0
VERTEX
8
CUT_INNER
10
178.8946
20
49.7800
30
0.0
0
VERTEX
8
CUT_INNER
10
180.6858
20
50.2278
30
0.0
0
VERTEX
8
CUT_INNER
10
180.3873
20
64.7066
30
0.0
0
VERTEX
8
CUT_INNER
10
180.8351
20
65.0051
30
0.0
0
VERTEX
8
CUT_INNER
10
184.1189
20
64.4080
30
0.0
0
VERTEX
8
CUT_INNER
10
186.8057
20
58.5867
30
0.0
0
VERTEX
8
CUT_INNER
10
185.9101
20
53.0639
30
0.0
0
VERTEX
8
CUT_INNER
10
184.4174
20
50.2278
30
0.0
0
VERTEX
8
CUT_INNER
10
184.8652
20
49.7800
30
0.0
0
VERTEX
8
CUT_INNER
10
186.6564
20
50.2278
30
0.0
0
VERTEX
8
CUT_INNER
10
187.8505
20
55.6014
30
0.0
0
VERTEX
8
CUT_INNER
10
189.4925
20
59.6315
30
0.0
0
VERTEX
8
CUT_INNER
10
190.3881
20
58.5867
30
0.0
0
VERTEX
8
CUT_INNER
10
191.2836
20
54.4072
30
0.0
0
VERTEX
8
CUT_INNER
10
191.2836
20
51.5712
30
0.0
0
VERTEX
8
CUT_INNER
10
190.3881
20
50.2278
30
0.0
0
VERTEX
8
CUT_INNER
10
192.1792
20
49.7800
30
0.0
0
VERTEX
8
CUT_INNER
10
192.9256
20
51.7205
30
0.0
0
VERTEX
8
CUT_INNER
10
192.3285
20
55.1536
30
0.0
0
VERTEX
8
CUT_INNER
10
192.6270
20
59.0345
30
0.0
0
VERTEX
8
CUT_INNER
10
190.8358
20
62.6168
30
0.0
0
VERTEX
8
CUT_INNER
10
190.9851
20
66.6470
30
0.0
0
VERTEX
8
CUT_INNER
10
191.8807
20
66.3485
30
0.0
0
VERTEX
8
CUT_INNER
10
192.4778
20
63.6617
30
0.0
0
VERTEX
8
CUT_INNER
10
193.3734
20
62.4676
30
0.0
0
VERTEX
8
CUT_INNER
10
193.3734
20
60.6764
30
0.0
0
VERTEX
8
CUT_INNER
10
194.8660
20
58.8852
30
0.0
0
VERTEX
8
CUT_INNER
10
195.6123
20
60.3779
30
0.0
0
VERTEX
8
CUT_INNER
10
195.3138
20
62.0198
30
0.0
0
VERTEX
8
CUT_INNER
10
193.2241
20
63.8110
30
0.0
0
VERTEX
8
CUT_INNER
10
191.1344
20
69.4831
30
0.0
0
VERTEX
8
CUT_INNER
10
188.5969
20
72.0206
30
0.0
0
VERTEX
8
CUT_INNER
10
183.3726
20
74.2595
30
0.0
0
VERTEX
8
CUT_INNER
10
180.9843
20
77.5434
30
0.0
0
VERTEX
8
CUT_INNER
10
177.7005
20
80.5287
30
0.0
0
VERTEX
8
CUT_INNER
10
171.7299
20
93.3655
30
0.0
0
VERTEX
8
CUT_INNER
10
172.6255
20
95.7538
30
0.0
0
VERTEX
8
CUT_INNER
10
172.0284
20
96.2016
30
0.0
0
VERTEX
8
CUT_INNER
10
170.8343
20
95.6045
30
0.0
0
VERTEX
8
CUT_INNER
10
170.3865
20
97.0972
30
0.0
0
VERTEX
8
CUT_INNER
10
169.6402
20
96.5001
30
0.0
0
VERTEX
8
CUT_INNER
10
168.8938
20
96.9479
30
0.0
0
VERTEX
8
CUT_INNER
10
168.2968
20
95.6045
30
0.0
0
SEQEND
8
CUT_INNER
0
POLYLINE
8
CUT_INNER
66
1
70
1
0
VERTEX
8
CUT_INNER
10
228.0029
20
88.4398
30
0.0
0
VERTEX
8
CUT_INNER
10
224.4206
20
90.5295
30
0.0
0
VERTEX
8
CUT_INNER
10
221.1367
20
90.9773
30
0.0
0
VERTEX
8
CUT_INNER
10
220.9875
20
91.8729
30
0.0
0
VERTEX
8
CUT_INNER
10
219.0470
20
93.2163
30
0.0
0
VERTEX
8
CUT_INNER
10
215.9124
20
93.5148
30
0.0
0
VERTEX
8
CUT_INNER
10
213.0764
20
95.9030
30
0.0
0
VERTEX
8
CUT_INNER
10
210.3896
20
95.9030
30
0.0
0
VERTEX
8
CUT_INNER
10
209.1955
20
97.0972
30
0.0
0
VERTEX
8
CUT_INNER
10
205.6131
20
98.2913
30
0.0
0
VERTEX
8
CUT_INNER
10
202.4786
20
97.9928
30
0.0
0
VERTEX
8
CUT_INNER
10
198.2991
20
95.9030
30
0.0
0
VERTEX
8
CUT_INNER
10
192.6270
20
95.9030
30
0.0
0
VERTEX
8
CUT_INNER
10
189.6417
20
93.8133
30
0.0
0
VERTEX
8
CUT_INNER
10
186.3579
20
93.2163
30
0.0
0
VERTEX
8
CUT_INNER
10
185.0145
20
91.4251
30
0.0
0
VERTEX
8
CUT_INNER
10
182.1785
20
91.1265
30
0.0
0
VERTEX
8
CUT_INNER
10
179.3424
20
88.8876
30
0.0
0
VERTEX
8
CUT_INNER
10
180.0887
20
87.6934
30
0.0
0
VERTEX
8
CUT_INNER
10
182.4770
20
87.3949
30
0.0
0
VERTEX
8
CUT_INNER
10
183.9696
20
85.9023
30
0.0
0
VERTEX
8
CUT_INNER
10
187.1042
20
85.9023
30
0.0
0
VERTEX
8
CUT_INNER
10
193.3734
20
83.0662
30
0.0
0
VERTEX
8
CUT_INNER
10
197.5528
20
78.8868
30
0.0
0
VERTEX
8
CUT_INNER
10
201.7322
20
67.5426
30
0.0
0
VERTEX
8
CUT_INNER
10
201.7322
20
62.0198
30
0.0
0
VERTEX
8
CUT_INNER
10
201.1352
20
59.3330
30
0.0
0
VERTEX
8
CUT_INNER
10
199.7918
20
57.0940
30
0.0
0
VERTEX
8
CUT_INNER
10
200.0903
20
56.6462
30
0.0
0
VERTEX
8
CUT_INNER
10
206.8072
20
56.9448
30
0.0
0
VERTEX
8
CUT_INNER
10
205.4639
20
60.2286
30
0.0
0
VERTEX
8
CUT_INNER
10
205.4639
20
65.7514
30
0.0
0
VERTEX
8
CUT_INNER
10
206.6580
20
69.3338
30
0.0
0
VERTEX
8
CUT_INNER
10
208.7477
20
72.0206
30
0.0
0
VERTEX
8
CUT_INNER
10
216.2110
20
75.7522
30
0.0
0
VERTEX
8
CUT_INNER
10
218.4500
20
75.4537
30
0.0
0
VERTEX
8
CUT_INNER
10
221.7338
20
76.3493
30
0.0
0
VERTEX
8
CUT_INNER
10
222.4801
20
77.5434
30
0.0
0
VERTEX
8
CUT_INNER
10
220.2411
20
78.7375
30
0.0
0
VERTEX
8
CUT_INNER
10
219.6441
20
79.7824
30
0.0
0
VERTEX
8
CUT_INNER
10
217.1066
20
80.0809
30
0.0
0
VERTEX
8
CUT_INNER
10
214.5690
20
81.5736
30
0.0
0
VERTEX
8
CUT_INNER
10
210.5389
20
80.9765
30
0.0
0
VERTEX
8
CUT_INNER
10
206.9565
20
79.1853
30
0.0
0
VERTEX
8
CUT_INNER
10
204.7175
20
76.9463
30
0.0
0
VERTEX
8
CUT_INNER
10
205.4639
20
76.0507
30
0.0
0
VERTEX
8
CUT_INNER
10
208.5984
20
75.6029
30
0.0
0
VERTEX
8
CUT_INNER
10
208.2999
20
73.3640
30
0.0
0
VERTEX
8
CUT_INNER
10
204.7175
20
69.6323
30
0.0
0
VERTEX
8
CUT_INNER
10
202.4786
20
73.6625
30
0.0
0
VERTEX
8
CUT_INNER
10
202.4786
20
76.7971
30
0.0
0
VERTEX
8
CUT_INNER
10
204.8668
20
80.6780
30
0.0
0
VERTEX
8
CUT_INNER
10
207.1058
20
82.4691
30
0.0
0
VERTEX
8
CUT_INNER
10
206.3595
20
83.9618
30
0.0
0
VERTEX
8
CUT_INNER
10
204.7175
20
84.2603
30
0.0
0
VERTEX
8
CUT_INNER
10
204.1205
20
82.0214
30
0.0
0
VERTEX
8
CUT_INNER
10
200.5381
20
78.1405
30
0.0
0
VERTEX
8
CUT_INNER
10
199.1947
20
79.6331
30
0.0
0
VERTEX
8
CUT_INNER
10
199.4932
20
82.0214
30
0.0
0
VERTEX
8
CUT_INNER
10
198.1499
20
82.6184
30
0.0
0
VERTEX
8
CUT_INNER
10
197.4035
20
81.7228
30
0.0
0
VERTEX
8
CUT_INNER
10
195.0153
20
83.8125
30
0.0
0
VERTEX
8
CUT_INNER
10
194.4182
20
87.0964
30
0.0
0
VERTEX
8
CUT_INNER
10
194.8660
20
87.3949
30
0.0
0
VERTEX
8
CUT_INNER
10
198.0006
20
85.4545
30
0.0
0
VERTEX
8
CUT_INNER
10
200.0903
20
85.0067
30
0.0
0
VERTEX
8
CUT_INNER
10
202.1800
20
87.9920
30
0.0
0
VERTEX
8
CUT_INNER
10
203.6727
20
86.7978
30
0.0
0
VERTEX
8
CUT_INNER
10
209.1955
20
87.9920
30
0.0
0
VERTEX
8
CUT_INNER
10
210.0911
20
87.2456
30
0.0
0
VERTEX
8
CUT_INNER
10
209.0462
20
85.1559
30
0.0
0
VERTEX
8
CUT_INNER
10
210.0911
20
83.5140
30
0.0
0
VERTEX
8
CUT_INNER
10
215.1661
20
84.1111
30
0.0
0
VERTEX
8
CUT_INNER
10
219.4948
20
85.9023
30
0.0
0
VERTEX
8
CUT_INNER
10
222.9279
20
85.6037
30
0.0
0
VERTEX
8
CUT_INNER
10
224.2713
20
86.3500
30
0.0
0
VERTEX
8
CUT_INNER
10
227.4059
20
86.4993
30
0.0
0
VERTEX
8
CUT_INNER
10
228.4507
20
87.2456
30
0.0
0
SEQEND
8
CUT_INNER
0
POLYLINE
8
CUT_INNER
66
1
70
1
0
VERTEX
8
CUT_INNER
10
114.5612
20
76.9463
30
0.0
0
VERTEX
8
CUT_INNER
10
114.5612
20
69.6323
30
0.0
0
VERTEX
8
CUT_INNER
10
119.9348
20
67.5426
30
0.0
0
VERTEX
8
CUT_INNER
10
122.3230
20
64.8558
30
0.0
0
VERTEX
8
CUT_INNER
10
124.1142
20
60.3779
30
0.0
0
VERTEX
8
CUT_INNER
10
125.0098
20
54.7058
30
0.0
0
VERTEX
8
CUT_INNER
10
125.7561
20
53.3624
30
0.0
0
VERTEX
8
CUT_INNER
10
167.9982
20
53.3624
30
0.0
0
VERTEX
8
CUT_INNER
10
168.4460
20
53.8102
30
0.0
0
VERTEX
8
CUT_INNER
10
168.4460
20
55.1536
30
0.0
0
VERTEX
8
CUT_INNER
10
166.6548
20
56.0492
30
0.0
0
VERTEX
8
CUT_INNER
10
166.6548
20
60.2286
30
0.0
0
VERTEX
8
CUT_INNER
10
163.3710
20
60.9749
30
0.0
0
VERTEX
8
CUT_INNER
10
163.3710
20
69.7816
30
0.0
0
VERTEX
8
CUT_INNER
10
159.1916
20
70.2294
30
0.0
0
VERTEX
8
CUT_INNER
10
158.7438
20
69.7816
30
0.0
0
VERTEX
8
CUT_INNER
10
158.7438
20
65.1544
30
0.0
0
VERTEX
8
CUT_INNER
10
157.6989
20
65.1544
30
0.0
0
VERTEX
8
CUT_INNER
10
157.6989
20
82.6184
30
0.0
0
VERTEX
8
CUT_INNER
10
156.0570
20
83.3647
30
0.0
0
VERTEX
8
CUT_INNER
10
156.2063
20
86.4993
30
0.0
0
VERTEX
8
CUT_INNER
10
155.7585
20
86.9471
30
0.0
0
VERTEX
8
CUT_INNER
10
152.6239
20
86.9471
30
0.0
0
VERTEX
8
CUT_INNER
10
152.1761
20
83.3647
30
0.0
0
VERTEX
8
CUT_INNER
10
150.3849
20
82.6184
30
0.0
0
VERTEX
8
CUT_INNER
10
150.3849
20
60.3779
30
0.0
0
VERTEX
8
CUT_INNER
10
148.4445
20
60.3779
30
0.0
0
VERTEX
8
CUT_INNER
10
148.4445
20
75.4537
30
0.0
0
VERTEX
8
CUT_INNER
10
147.9967
20
75.9015
30
0.0
0
VERTEX
8
CUT_INNER
10
146.3548
20
75.9015
30
0.0
0
VERTEX
8
CUT_INNER
10
145.6084
20
75.1551
30
0.0
0
VERTEX
8
CUT_INNER
10
145.6084
20
66.3485
30
0.0
0
VERTEX
8
CUT_INNER
10
143.6680
20
66.3485
30
0.0
0
VERTEX
8
CUT_INNER
10
143.6680
20
94.5596
30
0.0
0
VERTEX
8
CUT_INNER
10
141.8768
20
95.4552
30
0.0
0
VERTEX
8
CUT_INNER
10
142.0261
20
98.2913
30
0.0
0
VERTEX
8
CUT_INNER
10
140.3841
20
99.1869
30
0.0
0
VERTEX
8
CUT_INNER
10
139.9363
20
103.3663
30
0.0
0
VERTEX
8
CUT_INNER
10
139.3393
20
102.9185
30
0.0
0
VERTEX
8
CUT_INNER
10
139.3393
20
99.1869
30
0.0
0
VERTEX
8
CUT_INNER
10
137.8466
20
98.4405
30
0.0
0
VERTEX
8
CUT_INNER
10
137.8466
20
95.4552
30
0.0
0
VERTEX
8
CUT_INNER
10
136.0554
20
94.5596
30
0.0
0
VERTEX
8
CUT_INNER
10
136.0554
20
72.9162
30
0.0
0
VERTEX
8
CUT_INNER
10
133.3687
20
72.1698
30
0.0
0
VERTEX
8
CUT_INNER
10
133.3687
20
62.7661
30
0.0
0
VERTEX
8
CUT_INNER
10
131.7267
20
62.7661
30
0.0
0
VERTEX
8
CUT_INNER
10
131.7267
20
84.7081
30
0.0
0
VERTEX
8
CUT_INNER
10
129.9356
20
85.4545
30
0.0
0
VERTEX
8
CUT_INNER
10
129.4878
20
88.4398
30
0.0
0
VERTEX
8
CUT_INNER
10
125.7561
20
88.4398
30
0.0
0
VERTEX
8
CUT_INNER
10
125.3083
20
85.4545
30
0.0
0
VERTEX
8
CUT_INNER
10
122.9201
20
84.7081
30
0.0
0
VERTEX
8
CUT_INNER
10
122.7708
20
73.9610
30
0.0
0
VERTEX
8
CUT_INNER
10
120.0840
20
74.1103
30
0.0
0
VERTEX
8
CUT_INNER
10
119.6362
20
77.3941
30
0.0
0
VERTEX
8
CUT_INNER
10
115.0090
20
77.3941
30
0.0
0
SEQEND
8
CUT_INNER
0
POLYLINE
8
CUT_INNER
66
1
70
1
0
VERTEX
8
CUT_INNER
10
220.3904
20
102.1722
30
0.0
0
VERTEX
8
CUT_INNER
10
224.8684
20
100.2317
30
0.0
0
VERTEX
8
CUT_INNER
10
234.5706
20
100.8288
30
0.0
0
VERTEX
8
CUT_INNER
10
242.4817
20
98.1420
30
0.0
0
VERTEX
8
CUT_INNER
10
246.5119
20
98.1420
30
0.0
0
VERTEX
8
CUT_INNER
10
251.4376
20
99.9332
30
0.0
0
VERTEX
8
CUT_INNER
10
255.1692
20
100.2317
30
0.0
0
VERTEX
8
CUT_INNER
10
262.4833
20
97.8435
30
0.0
0
VERTEX
8
CUT_INNER
10
266.8119
20
98.1420
30
0.0
0
VERTEX
8
CUT_INNER
10
272.6333
20
101.1273
30
0.0
0
VERTEX
8
CUT_INNER
10
275.7679
20
102.0229
30
0.0
0
VERTEX
8
CUT_INNER
10
274.5738
20
102.7692
30
0.0
0
VERTEX
8
CUT_INNER
10
271.7377
20
103.0678
30
0.0
0
VERTEX
8
CUT_INNER
10
265.6178
20
100.9781
30
0.0
0
VERTEX
8
CUT_INNER
10
262.7818
20
100.9781
30
0.0
0
VERTEX
8
CUT_INNER
10
256.0648
20
103.3663
30
0.0
0
VERTEX
8
CUT_INNER
10
252.0347
20
103.3663
30
0.0
0
VERTEX
8
CUT_INNER
10
245.9148
20
101.2766
30
0.0
0
VERTEX
8
CUT_INNER
10
242.4817
20
101.2766
30
0.0
0
VERTEX
8
CUT_INNER
10
233.9736
20
103.9634
30
0.0
0
VERTEX
8
CUT_INNER
10
226.5103
20
102.1722
30
0.0
0
SEQEND
8
CUT_INNER
0
POLYLINE
8
CUT_INNER
66
1
70
1
0
VERTEX
8
CUT_INNER
10
27.9873
20
93.2163
30
0.0
0
VERTEX
8
CUT_INNER
10
28.5843
20
90.0817
30
0.0
0
VERTEX
8
CUT_INNER
10
27.3902
20
85.7530
30
0.0
0
VERTEX
8
CUT_INNER
10
28.5843
20
82.3199
30
0.0
0
VERTEX
8
CUT_INNER
10
29.0321
20
86.9471
30
0.0
0
VERTEX
8
CUT_INNER
10
31.1218
20
90.5295
30
0.0
0
VERTEX
8
CUT_INNER
10
31.8682
20
90.3802
30
0.0
0
VERTEX
8
CUT_INNER
10
31.2711
20
85.7530
30
0.0
0
VERTEX
8
CUT_INNER
10
32.1667
20
84.1111
30
0.0
0
VERTEX
8
CUT_INNER
10
32.9130
20
84.4096
30
0.0
0
VERTEX
8
CUT_INNER
10
32.9130
20
87.2456
30
0.0
0
VERTEX
8
CUT_INNER
10
34.4057
20
90.9773
30
0.0
0
VERTEX
8
CUT_INNER
10
36.4954
20
91.4251
30
0.0
0
VERTEX
8
CUT_INNER
10
37.5403
20
89.9324
30
0.0
0
VERTEX
8
CUT_INNER
10
36.6447
20
79.1853
30
0.0
0
VERTEX
8
CUT_INNER
10
35.3013
20
79.0360
30
0.0
0
VERTEX
8
CUT_INNER
10
33.8086
20
81.5736
30
0.0
0
VERTEX
8
CUT_INNER
10
33.2116
20
81.4243
30
0.0
0
VERTEX
8
CUT_INNER
10
33.6594
20
79.1853
30
0.0
0
VERTEX
8
CUT_INNER
10
30.8233
20
78.4390
30
0.0
0
VERTEX
8
CUT_INNER
10
32.1667
20
76.3493
30
0.0
0
VERTEX
8
CUT_INNER
10
39.3314
20
76.3493
30
0.0
0
VERTEX
8
CUT_INNER
10
46.4962
20
75.4537
30
0.0
0
VERTEX
8
CUT_INNER
10
63.3632
20
70.3786
30
0.0
0
VERTEX
8
CUT_INNER
10
70.2294
20
69.1845
30
0.0
0
VERTEX
8
CUT_INNER
10
76.6478
20
69.4831
30
0.0
0
VERTEX
8
CUT_INNER
10
77.0956
20
70.0801
30
0.0
0
VERTEX
8
CUT_INNER
10
74.5581
20
71.5728
30
0.0
0
VERTEX
8
CUT_INNER
10
77.3941
20
72.4684
30
0.0
0
VERTEX
8
CUT_INNER
10
85.4545
20
73.3640
30
0.0
0
VERTEX
8
CUT_INNER
10
97.2464
20
73.6625
30
0.0
0
VERTEX
8
CUT_INNER
10
91.1265
20
75.9015
30
0.0
0
VERTEX
8
CUT_INNER
10
91.7236
20
84.4096
30
0.0
0
VERTEX
8
CUT_INNER
10
92.4699
20
84.5589
30
0.0
0
VERTEX
8
CUT_INNER
10
94.7089
20
82.1706
30
0.0
0
VERTEX
8
CUT_INNER
10
95.0074
20
83.8125
30
0.0
0
VERTEX
8
CUT_INNER
10
93.9626
20
85.7530
30
0.0
0
VERTEX
8
CUT_INNER
10
96.7986
20
86.0515
30
0.0
0
VERTEX
8
CUT_INNER
10
95.7538
20
87.5442
30
0.0
0
VERTEX
8
CUT_INNER
10
92.9177
20
88.1412
30
0.0
0
VERTEX
8
CUT_INNER
10
94.2611
20
90.0817
30
0.0
0
VERTEX
8
CUT_INNER
10
93.8133
20
90.6787
30
0.0
0
VERTEX
8
CUT_INNER
10
92.9177
20
90.5295
30
0.0
0
VERTEX
8
CUT_INNER
10
91.1265
20
88.7383
30
0.0
0
VERTEX
8
CUT_INNER
10
88.4398
20
90.2310
30
0.0
0
VERTEX
8
CUT_INNER
10
87.8427
20
89.4846
30
0.0
0
VERTEX
8
CUT_INNER
10
89.1861
20
88.1412
30
0.0
0
VERTEX
8
CUT_INNER
10
86.9471
20
87.2456
30
0.0
0
VERTEX
8
CUT_INNER
10
85.9023
20
85.9023
30
0.0
0
VERTEX
8
CUT_INNER
10
86.2008
20
85.4545
30
0.0
0
VERTEX
8
CUT_INNER
10
88.7383
20
85.7530
30
0.0
0
VERTEX
8
CUT_INNER
10
87.6934
20
84.1111
30
0.0
0
VERTEX
8
CUT_INNER
10
87.9920
20
82.4691
30
0.0
0
VERTEX
8
CUT_INNER
10
89.9324
20
84.4096
30
0.0
0
VERTEX
8
CUT_INNER
10
90.6787
20
84.2603
30
0.0
0
VERTEX
8
CUT_INNER
10
90.6787
20
80.5287
30
0.0
0
VERTEX
8
CUT_INNER
10
89.4846
20
76.4985
30
0.0
0
VERTEX
8
CUT_INNER
10
86.9471
20
76.2000
30
0.0
0
VERTEX
8
CUT_INNER
10
83.6633
20
76.7971
30
0.0
0
VERTEX
8
CUT_INNER
10
83.6633
20
83.5140
30
0.0
0
VERTEX
8
CUT_INNER
10
83.0662
20
84.1111
30
0.0
0
VERTEX
8
CUT_INNER
10
83.0662
20
89.9324
30
0.0
0
VERTEX
8
CUT_INNER
10
83.6633
20
90.9773
30
0.0
0
VERTEX
8
CUT_INNER
10
82.7677
20
91.7236
30
0.0
0
VERTEX
8
CUT_INNER
10
82.7677
20
95.6045
30
0.0
0
VERTEX
8
CUT_INNER
10
83.3647
20
96.3508
30
0.0
0
VERTEX
8
CUT_INNER
10
82.4691
20
97.0972
30
0.0
0
VERTEX
8
CUT_INNER
10
82.7677
20
99.6347
30
0.0
0
VERTEX
8
CUT_INNER
10
81.5736
20
101.1273
30
0.0
0
VERTEX
8
CUT_INNER
10
79.9316
20
99.3361
30
0.0
0
VERTEX
8
CUT_INNER
10
79.9316
20
91.5743
30
0.0
0
VERTEX
8
CUT_INNER
10
79.3346
20
90.9773
30
0.0
0
VERTEX
8
CUT_INNER
10
79.9316
20
89.6339
30
0.0
0
VERTEX
8
CUT_INNER
10
79.9316
20
83.6633
30
0.0
0
VERTEX
8
CUT_INNER
10
79.4838
20
83.3647
30
0.0
0
VERTEX
8
CUT_INNER
10
77.9912
20
84.8574
30
0.0
0
VERTEX
8
CUT_INNER
10
77.9912
20
87.0964
30
0.0
0
VERTEX
8
CUT_INNER
10
76.2000
20
89.1861
30
0.0
0
VERTEX
8
CUT_INNER
10
74.2595
20
87.0964
30
0.0
0
VERTEX
8
CUT_INNER
10
73.5132
20
87.2456
30
0.0
0
VERTEX
8
CUT_INNER
10
73.5132
20
87.9920
30
0.0
0
VERTEX
8
CUT_INNER
10
72.4684
20
88.7383
30
0.0
0
VERTEX
8
CUT_INNER
10
73.5132
20
90.8280
30
0.0
0
VERTEX
8
CUT_INNER
10
73.2147
20
92.4699
30
0.0
0
VERTEX
8
CUT_INNER
10
71.5728
20
94.7089
30
0.0
0
VERTEX
8
CUT_INNER
10
68.4382
20
96.9479
30
0.0
0
VERTEX
8
CUT_INNER
10
67.9904
20
98.2913
30
0.0
0
VERTEX
8
CUT_INNER
10
67.3933
20
97.8435
30
0.0
0
VERTEX
8
CUT_INNER
10
67.3933
20
96.6494
30
0.0
0
VERTEX
8
CUT_INNER
10
64.8558
20
95.0074
30
0.0
0
VERTEX
8
CUT_INNER
10
62.6168
20
92.1714
30
0.0
0
VERTEX
8
CUT_INNER
10
62.6168
20
89.9324
30
0.0
0
VERTEX
8
CUT_INNER
10
63.6617
20
89.0368
30
0.0
0
VERTEX
8
CUT_INNER
10
62.9154
20
88.4398
30
0.0
0
VERTEX
8
CUT_INNER
10
67.2441
20
84.2603
30
0.0
0
VERTEX
8
CUT_INNER
10
67.8411
20
84.7081
30
0.0
0
VERTEX
8
CUT_INNER
10
68.8860
20
84.2603
30
0.0
0
VERTEX
8
CUT_INNER
10
70.3786
20
82.4691
30
0.0
0
VERTEX
8
CUT_INNER
10
70.3786
20
76.7971
30
0.0
0
VERTEX
8
CUT_INNER
10
69.9309
20
76.4985
30
0.0
0
VERTEX
8
CUT_INNER
10
65.4529
20
76.7971
30
0.0
0
VERTEX
8
CUT_INNER
10
65.4529
20
82.1706
30
0.0
0
VERTEX
8
CUT_INNER
10
60.8257
20
86.6486
30
0.0
0
VERTEX
8
CUT_INNER
10
60.8257
20
87.8427
30
0.0
0
VERTEX
8
CUT_INNER
10
59.6315
20
88.7383
30
0.0
0
VERTEX
8
CUT_INNER
10
57.5418
20
86.7978
30
0.0
0
VERTEX
8
CUT_INNER
10
57.8404
20
84.8574
30
0.0
0
VERTEX
8
CUT_INNER
10
56.3477
20
83.9618
30
0.0
0
VERTEX
8
CUT_INNER
10
55.8999
20
84.2603
30
0.0
0
VERTEX
8
CUT_INNER
10
55.8999
20
89.3354
30
0.0
0
VERTEX
8
CUT_INNER
10
56.4970
20
90.3802
30
0.0
0
VERTEX
8
CUT_INNER
10
55.6014
20
91.1265
30
0.0
0
VERTEX
8
CUT_INNER
10
55.6014
20
98.4405
30
0.0
0
VERTEX
8
CUT_INNER
10
54.4072
20
99.9332
30
0.0
0
VERTEX
8
CUT_INNER
10
53.0639
20
98.7391
30
0.0
0
VERTEX
8
CUT_INNER
10
53.3624
20
96.2016
30
0.0
0
VERTEX
8
CUT_INNER
10
52.4668
20
95.4552
30
0.0
0
VERTEX
8
CUT_INNER
10
53.0639
20
94.4104
30
0.0
0
VERTEX
8
CUT_INNER
10
53.0639
20
91.2758
30
0.0
0
VERTEX
8
CUT_INNER
10
52.1683
20
90.3802
30
0.0
0
VERTEX
8
CUT_INNER
10
52.7653
20
89.3354
30
0.0
0
VERTEX
8
CUT_INNER
10
52.7653
20
77.6927
30
0.0
0
VERTEX
8
CUT_INNER
10
42.7645
20
78.5882
30
0.0
0
VERTEX
8
CUT_INNER
10
41.5704
20
79.6331
30
0.0
0
VERTEX
8
CUT_INNER
10
40.9734
20
81.4243
30
0.0
0
VERTEX
8
CUT_INNER
10
39.9285
20
81.1258
30
0.0
0
VERTEX
8
CUT_INNER
10
40.3763
20
79.0360
30
0.0
0
VERTEX
8
CUT_INNER
10
37.9881
20
79.3346
30
0.0
0
VERTEX
8
CUT_INNER
10
37.9881
20
84.2603
30
0.0
0
VERTEX
8
CUT_INNER
10
38.7344
20
85.0067
30
0.0
0
VERTEX
8
CUT_INNER
10
39.3314
20
83.9618
30
0.0
0
VERTEX
8
CUT_INNER
10
40.3763
20
84.2603
30
0.0
0
VERTEX
8
CUT_INNER
10
39.4807
20
88.2905
30
0.0
0
VERTEX
8
CUT_INNER
10
39.7792
20
91.1265
30
0.0
0
VERTEX
8
CUT_INNER
10
40.8241
20
92.6192
30
0.0
0
VERTEX
8
CUT_INNER
10
42.6153
20
93.0670
30
0.0
0
VERTEX
8
CUT_INNER
10
44.2572
20
94.7089
30
0.0
0
VERTEX
8
CUT_INNER
10
45.1528
20
96.7986
30
0.0
0
VERTEX
8
CUT_INNER
10
45.4513
20
100.3810
30
0.0
0
VERTEX
8
CUT_INNER
10
48.4366
20
101.5751
30
0.0
0
VERTEX
8
CUT_INNER
10
47.6903
20
103.0678
30
0.0
0
VERTEX
8
CUT_INNER
10
44.2572
20
104.2619
30
0.0
0
VERTEX
8
CUT_INNER
10
43.8094
20
103.8141
30
0.0
0
VERTEX
8
CUT_INNER
10
42.9138
20
98.4405
30
0.0
0
VERTEX
8
CUT_INNER
10
41.7197
20
96.9479
30
0.0
0
VERTEX
8
CUT_INNER
10
40.6748
20
97.2464
30
0.0
0
VERTEX
8
CUT_INNER
10
38.4358
20
99.7839
30
0.0
0
VERTEX
8
CUT_INNER
10
36.4954
20
100.0825
30
0.0
0
VERTEX
8
CUT_INNER
10
34.8535
20
101.5751
30
0.0
0
VERTEX
8
CUT_INNER
10
33.2116
20
101.8737
30
0.0
0
VERTEX
8
CUT_INNER
10
28.8829
20
97.5450
30
0.0
0
SEQEND
8
CUT_INNER
0
POLYLINE
8
CUT_INNER
66
1
70
1
0
VERTEX
8
CUT_INNER
10
18.7328
20
104.2619
30
0.0
0
VERTEX
8
CUT_INNER
10
23.2108
20
92.7685
30
0.0
0
VERTEX
8
CUT_INNER
10
23.3600
20
95.7538
30
0.0
0
VERTEX
8
CUT_INNER
10
22.4644
20
99.0376
30
0.0
0
VERTEX
8
CUT_INNER
10
20.3747
20
102.9185
30
0.0
0
SEQEND
8
CUT_INNER
0
POLYLINE
8
CUT_INNER
66
1
70
1
0
VERTEX
8
CUT_INNER
10
286.2165
20
104.4112
30
0.0
0
VERTEX
8
CUT_INNER
10
282.3356
20
101.1273
30
0.0
0
VERTEX
8
CUT_INNER
10
281.1414
20
99.0376
30
0.0
0
VERTEX
8
CUT_INNER
10
279.6488
20
93.9626
30
0.0
0
VERTEX
8
CUT_INNER
10
280.0966
20
91.8729
30
0.0
0
VERTEX
8
CUT_INNER
10
281.7385
20
92.9177
30
0.0
0
SEQEND
8
CUT_INNER
0
POLYLINE
8
CUT_INNER
66
1
70
1
0
VERTEX
8
CUT_INNER
10
199.7918
20
110.2325
30
0.0
0
VERTEX
8
CUT_INNER
10
198.1499
20
108.8891
30
0.0
0
VERTEX
8
CUT_INNER
10
198.1499
20
106.9487
30
0.0
0
VERTEX
8
CUT_INNER
10
200.2396
20
105.6053
30
0.0
0
VERTEX
8
CUT_INNER
10
201.8815
20
106.9487
30
0.0
0
VERTEX
8
CUT_INNER
10
202.1800
20
107.9935
30
0.0
0
VERTEX
8
CUT_INNER
10
201.1352
20
109.9340
30
0.0
0
SEQEND
8
CUT_INNER
0
POLYLINE
8
CUT_INNER
66
1
70
1
0
VERTEX
8
CUT_INNER
10
158.8930
20
111.5759
30
0.0
0
VERTEX
8
CUT_INNER
10
157.2511
20
108.5906
30
0.0
0
VERTEX
8
CUT_INNER
10
155.1614
20
107.0979
30
0.0
0
VERTEX
8
CUT_INNER
10
155.6092
20
105.9038
30
0.0
0
VERTEX
8
CUT_INNER
10
159.4901
20
106.3516
30
0.0
0
VERTEX
8
CUT_INNER
10
159.4901
20
110.9788
30
0.0
0
SEQEND
8
CUT_INNER
0
POLYLINE
8
CUT_INNER
66
1
70
1
0
VERTEX
8
CUT_INNER
10
172.0284
20
111.7252
30
0.0
0
VERTEX
8
CUT_INNER
10
171.2821
20
110.9788
30
0.0
0
VERTEX
8
CUT_INNER
10
171.2821
20
106.3516
30
0.0
0
VERTEX
8
CUT_INNER
10
172.1777
20
105.9038
30
0.0
0
VERTEX
8
CUT_INNER
10
173.5211
20
106.5009
30
0.0
0
VERTEX
8
CUT_INNER
10
175.4615
20
105.6053
30
0.0
0
VERTEX
8
CUT_INNER
10
175.9093
20
106.7994
30
0.0
0
VERTEX
8
CUT_INNER
10
173.8196
20
108.2921
30
0.0
0
VERTEX
8
CUT_INNER
10
172.9240
20
110.9788
30
0.0
0
SEQEND
8
CUT_INNER
0
POLYLINE
8
CUT_INNER
66
1
70
1
0
VERTEX
8
CUT_INNER
10
112.4715
20
115.4568
30
0.0
0
VERTEX
8
CUT_INNER
10
112.1730
20
108.2921
30
0.0
0
VERTEX
8
CUT_INNER
10
110.6803
20
106.6501
30
0.0
0
VERTEX
8
CUT_INNER
10
111.4266
20
105.9038
30
0.0
0
VERTEX
8
CUT_INNER
10
114.5612
20
105.9038
30
0.0
0
VERTEX
8
CUT_INNER
10
115.0090
20
106.7994
30
0.0
0
VERTEX
8
CUT_INNER
10
113.5164
20
108.2921
30
0.0
0
VERTEX
8
CUT_INNER
10
113.5164
20
113.3671
30
0.0
0
SEQEND
8
CUT_INNER
0
POLYLINE
8
CUT_INNER
66
1
70
1
0
VERTEX
8
CUT_INNER
10
290.8437
20
120.3826
30
0.0
0
VERTEX
8
CUT_INNER
10
288.9032
20
118.7406
30
0.0
0
VERTEX
8
CUT_INNER
10
286.5150
20
114.8597
30
0.0
0
VERTEX
8
CUT_INNER
10
285.6194
20
111.2774
30
0.0
0
VERTEX
8
CUT_INNER
10
286.0672
20
107.6950
30
0.0
0
VERTEX
8
CUT_INNER
10
287.7091
20
108.1428
30
0.0
0
SEQEND
8
CUT_INNER
0
POLYLINE
8
CUT_INNER
66
1
70
1
0
VERTEX
8
CUT_INNER
10
13.9563
20
120.5318
30
0.0
0
VERTEX
8
CUT_INNER
10
17.0909
20
108.4413
30
0.0
0
VERTEX
8
CUT_INNER
10
17.6880
20
109.9340
30
0.0
0
VERTEX
8
CUT_INNER
10
17.0909
20
115.7553
30
0.0
0
VERTEX
8
CUT_INNER
10
15.5982
20
119.0392
30
0.0
0
SEQEND
8
CUT_INNER
0
POLYLINE
8
CUT_INNER
66
1
70
1
0
VERTEX
8
CUT_INNER
10
193.5226
20
121.2782
30
0.0
0
VERTEX
8
CUT_INNER
10
193.0748
20
120.0840
30
0.0
0
VERTEX
8
CUT_INNER
10
195.1645
20
116.0539
30
0.0
0
VERTEX
8
CUT_INNER
10
195.9109
20
120.2333
30
0.0
0
VERTEX
8
CUT_INNER
10
195.1645
20
121.2782
30
0.0
0
SEQEND
8
CUT_INNER
0
POLYLINE
8
CUT_INNER
66
1
70
1
0
VERTEX
8
CUT_INNER
10
188.4476
20
121.2782
30
0.0
0
VERTEX
8
CUT_INNER
10
187.9998
20
120.8304
30
0.0
0
VERTEX
8
CUT_INNER
10
187.9998
20
107.8443
30
0.0
0
VERTEX
8
CUT_INNER
10
186.5071
20
106.6501
30
0.0
0
VERTEX
8
CUT_INNER
10
187.2535
20
105.9038
30
0.0
0
VERTEX
8
CUT_INNER
10
193.0748
20
105.9038
30
0.0
0
VERTEX
8
CUT_INNER
10
193.5226
20
106.7994
30
0.0
0
VERTEX
8
CUT_INNER
10
192.3285
20
107.6950
30
0.0
0
VERTEX
8
CUT_INNER
10
192.0300
20
120.8304
30
0.0
0
SEQEND
8
CUT_INNER
0
POLYLINE
8
CUT_INNER
66
1
70
1
0
VERTEX
8
CUT_INNER
10
186.8057
20
121.2782
30
0.0
0
VERTEX
8
CUT_INNER
10
184.4174
20
120.8304
30
0.0
0
VERTEX
8
CUT_INNER
10
184.4174
20
116.5017
30
0.0
0
VERTEX
8
CUT_INNER
10
184.8652
20
116.0539
30
0.0
0
VERTEX
8
CUT_INNER
10
185.7608
20
116.5017
30
0.0
0
VERTEX
8
CUT_INNER
10
186.0594
20
118.2929
30
0.0
0
VERTEX
8
CUT_INNER
10
187.2535
20
120.0840
30
0.0
0
SEQEND
8
CUT_INNER
0
POLYLINE
8
CUT_INNER
66
1
70
1
0
VERTEX
8
CUT_INNER
10
162.4754
20
121.2782
30
0.0
0
VERTEX
8
CUT_INNER
10
162.0276
20
120.3826
30
0.0
0
VERTEX
8
CUT_INNER
10
163.2217
20
119.6362
30
0.0
0
VERTEX
8
CUT_INNER
10
163.2217
20
107.8443
30
0.0
0
VERTEX
8
CUT_INNER
10
162.0276
20
106.3516
30
0.0
0
VERTEX
8
CUT_INNER
10
162.4754
20
105.9038
30
0.0
0
VERTEX
8
CUT_INNER
10
167.9982
20
105.9038
30
0.0
0
VERTEX
8
CUT_INNER
10
168.4460
20
106.7994
30
0.0
0
VERTEX
8
CUT_INNER
10
167.2519
20
107.9935
30
0.0
0
VERTEX
8
CUT_INNER
10
167.2519
20
119.4870
30
0.0
0
VERTEX
8
CUT_INNER
10
168.4460
20
120.8304
30
0.0
0
VERTEX
8
CUT_INNER
10
167.9982
20
121.2782
30
0.0
0
SEQEND
8
CUT_INNER
0
POLYLINE
8
CUT_INNER
66
1
70
1
0
VERTEX
8
CUT_INNER
10
149.3401
20
121.2782
30
0.0
0
VERTEX
8
CUT_INNER
10
148.8923
20
120.6811
30
0.0
0
VERTEX
8
CUT_INNER
10
150.0864
20
119.6362
30
0.0
0
VERTEX
8
CUT_INNER
10
150.0864
20
107.6950
30
0.0
0
VERTEX
8
CUT_INNER
10
148.8923
20
106.3516
30
0.0
0
VERTEX
8
CUT_INNER
10
149.3401
20
105.9038
30
0.0
0
VERTEX
8
CUT_INNER
10
153.9673
20
105.9038
30
0.0
0
VERTEX
8
CUT_INNER
10
154.4151
20
106.3516
30
0.0
0
VERTEX
8
CUT_INNER
10
154.4151
20
119.6362
30
0.0
0
VERTEX
8
CUT_INNER
10
155.6092
20
120.8304
30
0.0
0
VERTEX
8
CUT_INNER
10
155.1614
20
121.2782
30
0.0
0
SEQEND
8
CUT_INNER
0
POLYLINE
8
CUT_INNER
66
1
70
1
0
VERTEX
8
CUT_INNER
10
140.5334
20
121.2782
30
0.0
0
VERTEX
8
CUT_INNER
10
136.3540
20
120.8304
30
0.0
0
VERTEX
8
CUT_INNER
10
137.8466
20
119.1884
30
0.0
0
VERTEX
8
CUT_INNER
10
136.5032
20
115.9046
30
0.0
0
VERTEX
8
CUT_INNER
10
137.2496
20
114.7105
30
0.0
0
VERTEX
8
CUT_INNER
10
139.1900
20
118.8899
30
0.0
0
VERTEX
8
CUT_INNER
10
140.9812
20
120.6811
30
0.0
0
SEQEND
8
CUT_INNER
0
POLYLINE
8
CUT_INNER
66
1
70
1
0
VERTEX
8
CUT_INNER
10
128.7414
20
121.2782
30
0.0
0
VERTEX
8
CUT_INNER
10
128.2936
20
120.6811
30
0.0
0
VERTEX
8
CUT_INNER
10
129.4878
20
119.4870
30
0.0
0
VERTEX
8
CUT_INNER
10
132.4731
20
112.3222
30
0.0
0
VERTEX
8
CUT_INNER
10
132.4731
20
107.8443
30
0.0
0
VERTEX
8
CUT_INNER
10
131.2789
20
106.3516
30
0.0
0
VERTEX
8
CUT_INNER
10
131.7267
20
105.9038
30
0.0
0
VERTEX
8
CUT_INNER
10
137.5481
20
105.9038
30
0.0
0
VERTEX
8
CUT_INNER
10
137.9959
20
106.7994
30
0.0
0
VERTEX
8
CUT_INNER
10
136.8018
20
107.8443
30
0.0
0
VERTEX
8
CUT_INNER
10
136.8018
20
112.7700
30
0.0
0
VERTEX
8
CUT_INNER
10
134.1150
20
119.0392
30
0.0
0
VERTEX
8
CUT_INNER
10
135.0106
20
120.8304
30
0.0
0
VERTEX
8
CUT_INNER
10
134.5628
20
121.2782
30
0.0
0
SEQEND
8
CUT_INNER
0
POLYLINE
8
CUT_INNER
66
1
70
1
0
VERTEX
8
CUT_INNER
10
120.9796
20
121.2782
30
0.0
0
VERTEX
8
CUT_INNER
10
120.5318
20
120.8304
30
0.0
0
VERTEX
8
CUT_INNER
10
120.5318
20
107.8443
30
0.0
0
VERTEX
8
CUT_INNER
10
119.3377
20
106.3516
30
0.0
0
VERTEX
8
CUT_INNER
10
119.7855
20
105.9038
30
0.0
0
VERTEX
8
CUT_INNER
10
125.6069
20
105.9038
30
0.0
0
VERTEX
8
CUT_INNER
10
126.0547
20
106.7994
30
0.0
0
VERTEX
8
CUT_INNER
10
124.8605
20
107.8443
30
0.0
0
VERTEX
8
CUT_INNER
10
124.8605
20
119.6362
30
0.0
0
VERTEX
8
CUT_INNER
10
126.0547
20
120.8304
30
0.0
0
VERTEX
8
CUT_INNER
10
125.6069
20
121.2782
30
0.0
0
SEQEND
8
CUT_INNER
0
POLYLINE
8
CUT_INNER
66
1
70
1
0
VERTEX
8
CUT_INNER
10
111.1281
20
121.2782
30
0.0
0
VERTEX
8
CUT_INNER
10
110.6803
20
120.6811
30
0.0
0
VERTEX
8
CUT_INNER
10
112.4715
20
119.1884
30
0.0
0
VERTEX
8
CUT_INNER
10
116.3524
20
106.9487
30
0.0
0
VERTEX
8
CUT_INNER
10
116.9495
20
106.5009
30
0.0
0
VERTEX
8
CUT_INNER
10
119.7855
20
114.4119
30
0.0
0
VERTEX
8
CUT_INNER
10
119.7855
20
116.9495
30
0.0
0
VERTEX
8
CUT_INNER
10
119.3377
20
117.2480
30
0.0
0
VERTEX
8
CUT_INNER
10
118.5914
20
115.9046
30
0.0
0
VERTEX
8
CUT_INNER
10
117.9943
20
116.3524
30
0.0
0
VERTEX
8
CUT_INNER
10
116.8002
20
120.5318
30
0.0
0
VERTEX
8
CUT_INNER
10
116.0539
20
121.2782
30
0.0
0
SEQEND
8
CUT_INNER
0
POLYLINE
8
CUT_INNER
66
1
70
1
0
VERTEX
8
CUT_INNER
10
177.7005
20
121.5767
30
0.0
0
VERTEX
8
CUT_INNER
10
176.9542
20
120.6811
30
0.0
0
VERTEX
8
CUT_INNER
10
179.0439
20
119.1884
30
0.0
0
VERTEX
8
CUT_INNER
10
179.9395
20
116.5017
30
0.0
0
VERTEX
8
CUT_INNER
10
180.8351
20
116.0539
30
0.0
0
VERTEX
8
CUT_INNER
10
181.2829
20
116.5017
30
0.0
0
VERTEX
8
CUT_INNER
10
181.2829
20
121.1289
30
0.0
0
VERTEX
8
CUT_INNER
10
180.3873
20
121.5767
30
0.0
0
VERTEX
8
CUT_INNER
10
179.0439
20
120.9796
30
0.0
0
SEQEND
8
CUT_INNER
0
POLYLINE
8
CUT_INNER
66
1
70
1
0
VERTEX
8
CUT_INNER
10
174.7152
20
121.5767
30
0.0
0
VERTEX
8
CUT_INNER
10
173.2225
20
120.6811
30
0.0
0
VERTEX
8
CUT_INNER
10
171.5806
20
118.4421
30
0.0
0
VERTEX
8
CUT_INNER
10
171.5806
20
115.0090
30
0.0
0
VERTEX
8
CUT_INNER
10
173.2225
20
112.7700
30
0.0
0
VERTEX
8
CUT_INNER
10
178.1483
20
109.9340
30
0.0
0
VERTEX
8
CUT_INNER
10
178.1483
20
107.9935
30
0.0
0
VERTEX
8
CUT_INNER
10
176.6556
20
106.7994
30
0.0
0
VERTEX
8
CUT_INNER
10
176.6556
20
106.0531
30
0.0
0
VERTEX
8
CUT_INNER
10
177.5512
20
105.6053
30
0.0
0
VERTEX
8
CUT_INNER
10
179.6409
20
106.5009
30
0.0
0
VERTEX
8
CUT_INNER
10
181.2829
20
108.1428
30
0.0
0
VERTEX
8
CUT_INNER
10
181.8799
20
111.8744
30
0.0
0
VERTEX
8
CUT_INNER
10
181.2829
20
113.3671
30
0.0
0
VERTEX
8
CUT_INNER
10
179.3424
20
115.3075
30
0.0
0
VERTEX
8
CUT_INNER
10
175.3122
20
117.3973
30
0.0
0
VERTEX
8
CUT_INNER
10
175.0137
20
119.4870
30
0.0
0
VERTEX
8
CUT_INNER
10
176.2078
20
121.1289
30
0.0
0
SEQEND
8
CUT_INNER
0
POLYLINE
8
CUT_INNER
66
1
70
1
0
VERTEX
8
CUT_INNER
10
177.1034
20
132.3238
30
0.0
0
VERTEX
8
CUT_INNER
10
176.6556
20
131.8760
30
0.0
0
VERTEX
8
CUT_INNER
10
176.6556
20
127.2488
30
0.0
0
VERTEX
8
CUT_INNER
10
177.4020
20
126.5024
30
0.0
0
VERTEX
8
CUT_INNER
10
178.1483
20
127.0995
30
0.0
0
VERTEX
8
CUT_INNER
10
180.8351
20
126.5024
30
0.0
0
VERTEX
8
CUT_INNER
10
181.2829
20
127.3980
30
0.0
0
VERTEX
8
CUT_INNER
10
178.8946
20
129.4878
30
0.0
0
VERTEX
8
CUT_INNER
10
178.2976
20
131.8760
30
0.0
0
SEQEND
8
CUT_INNER
0
POLYLINE
8
CUT_INNER
66
1
70
1
0
VERTEX
8
CUT_INNER
10
293.6797
20
136.6525
30
0.0
0
VERTEX
8
CUT_INNER
10
291.8885
20
134.5628
30
0.0
0
VERTEX
8
CUT_INNER
10
290.3959
20
130.6819
30
0.0
0
VERTEX
8
CUT_INNER
10
290.0974
20
125.4576
30
0.0
0
VERTEX
8
CUT_INNER
10
290.9929
20
123.6664
30
0.0
0
VERTEX
8
CUT_INNER
10
291.8885
20
123.9649
30
0.0
0
SEQEND
8
CUT_INNER
0
POLYLINE
8
CUT_INNER
66
1
70
1
0
VERTEX
8
CUT_INNER
10
11.4188
20
137.3988
30
0.0
0
VERTEX
8
CUT_INNER
10
10.9710
20
136.9510
30
0.0
0
VERTEX
8
CUT_INNER
10
13.0607
20
124.4127
30
0.0
0
VERTEX
8
CUT_INNER
10
14.1056
20
127.2488
30
0.0
0
VERTEX
8
CUT_INNER
10
14.1056
20
131.8760
30
0.0
0
VERTEX
8
CUT_INNER
10
13.2100
20
135.1598
30
0.0
0
SEQEND
8
CUT_INNER
0
POLYLINE
8
CUT_INNER
66
1
70
1
0
VERTEX
8
CUT_INNER
10
210.9867
20
137.5481
30
0.0
0
VERTEX
8
CUT_INNER
10
210.6881
20
129.4878
30
0.0
0
VERTEX
8
CUT_INNER
10
209.1955
20
127.2488
30
0.0
0
VERTEX
8
CUT_INNER
10
213.0764
20
126.8010
30
0.0
0
VERTEX
8
CUT_INNER
10
213.5242
20
127.3980
30
0.0
0
VERTEX
8
CUT_INNER
10
212.0315
20
128.8907
30
0.0
0
VERTEX
8
CUT_INNER
10
212.0315
20
136.0554
30
0.0
0
SEQEND
8
CUT_INNER
0
POLYLINE
8
CUT_INNER
66
1
70
1
0
VERTEX
8
CUT_INNER
10
218.3007
20
142.4738
30
0.0
0
VERTEX
8
CUT_INNER
10
217.8529
20
141.5783
30
0.0
0
VERTEX
8
CUT_INNER
10
219.3455
20
139.7871
30
0.0
0
VERTEX
8
CUT_INNER
10
219.0470
20
135.9062
30
0.0
0
VERTEX
8
CUT_INNER
10
220.3904
20
133.8165
30
0.0
0
VERTEX
8
CUT_INNER
10
220.6889
20
140.3841
30
0.0
0
VERTEX
8
CUT_INNER
10
222.1816
20
142.0261
30
0.0
0
SEQEND
8
CUT_INNER
0
POLYLINE
8
CUT_INNER
66
1
70
1
0
VERTEX
8
CUT_INNER
10
209.6433
20
142.4738
30
0.0
0
VERTEX
8
CUT_INNER
10
209.1955
20
141.8768
30
0.0
0
VERTEX
8
CUT_INNER
10
210.6881
20
140.6827
30
0.0
0
VERTEX
8
CUT_INNER
10
217.2558
20
127.5473
30
0.0
0
VERTEX
8
CUT_INNER
10
218.0022
20
126.8010
30
0.0
0
VERTEX
8
CUT_INNER
10
220.2411
20
126.8010
30
0.0
0
VERTEX
8
CUT_INNER
10
220.6889
20
130.9804
30
0.0
0
VERTEX
8
CUT_INNER
10
214.5690
20
142.4738
30
0.0
0
SEQEND
8
CUT_INNER
0
POLYLINE
8
CUT_INNER
66
1
70
1
0
VERTEX
8
CUT_INNER
10
165.4607
20
142.4738
30
0.0
0
VERTEX
8
CUT_INNER
10
165.0129
20
140.9812
30
0.0
0
VERTEX
8
CUT_INNER
10
165.9085
20
139.7871
30
0.0
0
VERTEX
8
CUT_INNER
10
166.2071
20
137.6974
30
0.0
0
VERTEX
8
CUT_INNER
10
167.1026
20
136.9510
30
0.0
0
VERTEX
8
CUT_INNER
10
167.8490
20
138.5929
30
0.0
0
VERTEX
8
CUT_INNER
10
167.5504
20
142.0261
30
0.0
0
SEQEND
8
CUT_INNER
0
POLYLINE
8
CUT_INNER
66
1
70
1
0
VERTEX
8
CUT_INNER
10
160.3857
20
142.4738
30
0.0
0
VERTEX
8
CUT_INNER
10
159.9379
20
142.0261
30
0.0
0
VERTEX
8
CUT_INNER
10
159.9379
20
128.4429
30
0.0
0
VERTEX
8
CUT_INNER
10
158.7438
20
127.2488
30
0.0
0
VERTEX
8
CUT_INNER
10
159.1916
20
126.8010
30
0.0
0
VERTEX
8
CUT_INNER
10
165.0129
20
126.8010
30
0.0
0
VERTEX
8
CUT_INNER
10
165.4607
20
127.6966
30
0.0
0
VERTEX
8
CUT_INNER
10
164.2666
20
128.4429
30
0.0
0
VERTEX
8
CUT_INNER
10
164.2666
20
142.0261
30
0.0
0
SEQEND
8
CUT_INNER
0
POLYLINE
8
CUT_INNER
66
1
70
1
0
VERTEX
8
CUT_INNER
10
158.7438
20
142.4738
30
0.0
0
VERTEX
8
CUT_INNER
10
156.3555
20
142.0261
30
0.0
0
VERTEX
8
CUT_INNER
10
156.3555
20
137.3988
30
0.0
0
VERTEX
8
CUT_INNER
10
156.8033
20
136.9510
30
0.0
0
VERTEX
8
CUT_INNER
10
157.6989
20
137.3988
30
0.0
0
VERTEX
8
CUT_INNER
10
157.9975
20
139.4885
30
0.0
0
VERTEX
8
CUT_INNER
10
159.1916
20
140.9812
30
0.0
0
SEQEND
8
CUT_INNER
0
POLYLINE
8
CUT_INNER
66
1
70
1
0
VERTEX
8
CUT_INNER
10
147.8474
20
142.4738
30
0.0
0
VERTEX
8
CUT_INNER
10
147.3996
20
141.8768
30
0.0
0
VERTEX
8
CUT_INNER
10
148.5937
20
140.8319
30
0.0
0
VERTEX
8
CUT_INNER
10
148.5937
20
128.4429
30
0.0
0
VERTEX
8
CUT_INNER
10
147.3996
20
127.2488
30
0.0
0
VERTEX
8
CUT_INNER
10
147.8474
20
126.8010
30
0.0
0
VERTEX
8
CUT_INNER
10
153.6688
20
126.8010
30
0.0
0
VERTEX
8
CUT_INNER
10
154.1166
20
127.3980
30
0.0
0
VERTEX
8
CUT_INNER
10
152.9224
20
128.4429
30
0.0
0
VERTEX
8
CUT_INNER
10
152.9224
20
140.8319
30
0.0
0
VERTEX
8
CUT_INNER
10
154.1166
20
142.0261
30
0.0
0
VERTEX
8
CUT_INNER
10
153.6688
20
142.4738
30
0.0
0
SEQEND
8
CUT_INNER
0
POLYLINE
8
CUT_INNER
66
1
70
1
0
VERTEX
8
CUT_INNER
10
136.8018
20
142.4738
30
0.0
0
VERTEX
8
CUT_INNER
10
136.3540
20
140.9812
30
0.0
0
VERTEX
8
CUT_INNER
10
137.2496
20
139.7871
30
0.0
0
VERTEX
8
CUT_INNER
10
137.5481
20
137.6974
30
0.0
0
VERTEX
8
CUT_INNER
10
138.4437
20
136.9510
30
0.0
0
VERTEX
8
CUT_INNER
10
138.8915
20
137.3988
30
0.0
0
VERTEX
8
CUT_INNER
10
138.8915
20
142.0261
30
0.0
0
SEQEND
8
CUT_INNER
0
POLYLINE
8
CUT_INNER
66
1
70
1
0
VERTEX
8
CUT_INNER
10
131.7267
20
142.4738
30
0.0
0
VERTEX
8
CUT_INNER
10
131.2789
20
142.0261
30
0.0
0
VERTEX
8
CUT_INNER
10
131.2789
20
128.4429
30
0.0
0
VERTEX
8
CUT_INNER
10
129.9356
20
127.3980
30
0.0
0
VERTEX
8
CUT_INNER
10
130.5326
20
126.8010
30
0.0
0
VERTEX
8
CUT_INNER
10
136.3540
20
126.8010
30
0.0
0
VERTEX
8
CUT_INNER
10
136.8018
20
127.3980
30
0.0
0
VERTEX
8
CUT_INNER
10
135.3091
20
128.5922
30
0.0
0
VERTEX
8
CUT_INNER
10
135.6076
20
141.4290
30
0.0
0
VERTEX
8
CUT_INNER
10
134.8613
20
142.4738
30
0.0
0
SEQEND
8
CUT_INNER
0
POLYLINE
8
CUT_INNER
66
1
70
1
0
VERTEX
8
CUT_INNER
10
130.0848
20
142.4738
30
0.0
0
VERTEX
8
CUT_INNER
10
127.6966
20
142.0261
30
0.0
0
VERTEX
8
CUT_INNER
10
127.6966
20
137.3988
30
0.0
0
VERTEX
8
CUT_INNER
10
128.1444
20
136.9510
30
0.0
0
VERTEX
8
CUT_INNER
10
129.0400
20
137.3988
30
0.0
0
VERTEX
8
CUT_INNER
10
129.3385
20
139.4885
30
0.0
0
VERTEX
8
CUT_INNER
10
130.5326
20
141.2797
30
0.0
0
SEQEND
8
CUT_INNER
0
POLYLINE
8
CUT_INNER
66
1
70
1
0
VERTEX
8
CUT_INNER
10
125.0098
20
142.4738
30
0.0
0
VERTEX
8
CUT_INNER
10
120.8304
20
142.0261
30
0.0
0
VERTEX
8
CUT_INNER
10
122.6215
20
139.7871
30
0.0
0
VERTEX
8
CUT_INNER
10
122.3230
20
129.7863
30
0.0
0
VERTEX
8
CUT_INNER
10
119.9348
20
127.6966
30
0.0
0
VERTEX
8
CUT_INNER
10
120.3826
20
126.5024
30
0.0
0
VERTEX
8
CUT_INNER
10
122.0245
20
127.0995
30
0.0
0
VERTEX
8
CUT_INNER
10
123.6664
20
129.6370
30
0.0
0
VERTEX
8
CUT_INNER
10
123.9649
20
140.3841
30
0.0
0
VERTEX
8
CUT_INNER
10
125.4576
20
141.8768
30
0.0
0
SEQEND
8
CUT_INNER
0
POLYLINE
8
CUT_INNER
66
1
70
1
0
VERTEX
8
CUT_INNER
10
112.9193
20
142.4738
30
0.0
0
VERTEX
8
CUT_INNER
10
112.4715
20
141.5783
30
0.0
0
VERTEX
8
CUT_INNER
10
113.3671
20
140.8319
30
0.0
0
VERTEX
8
CUT_INNER
10
113.6656
20
129.3385
30
0.0
0
VERTEX
8
CUT_INNER
10
115.9046
20
126.8010
30
0.0
0
VERTEX
8
CUT_INNER
10
118.4421
20
126.2039
30
0.0
0
VERTEX
8
CUT_INNER
10
118.8899
20
127.6966
30
0.0
0
VERTEX
8
CUT_INNER
10
117.6958
20
129.4878
30
0.0
0
VERTEX
8
CUT_INNER
10
117.6958
20
140.6827
30
0.0
0
VERTEX
8
CUT_INNER
10
118.8899
20
142.0261
30
0.0
0
VERTEX
8
CUT_INNER
10
118.4421
20
142.4738
30
0.0
0
SEQEND
8
CUT_INNER
0
POLYLINE
8
CUT_INNER
66
1
70
1
0
VERTEX
8
CUT_INNER
10
104.2619
20
142.4738
30
0.0
0
VERTEX
8
CUT_INNER
10
103.8141
20
141.5783
30
0.0
0
VERTEX
8
CUT_INNER
10
105.6053
20
140.0856
30
0.0
0
VERTEX
8
CUT_INNER
10
105.6053
20
136.9510
30
0.0
0
VERTEX
8
CUT_INNER
10
103.8141
20
135.1598
30
0.0
0
VERTEX
8
CUT_INNER
10
103.8141
20
134.4135
30
0.0
0
VERTEX
8
CUT_INNER
10
105.6053
20
133.2194
30
0.0
0
VERTEX
8
CUT_INNER
10
105.9038
20
130.3833
30
0.0
0
VERTEX
8
CUT_INNER
10
105.6053
20
128.8907
30
0.0
0
VERTEX
8
CUT_INNER
10
103.8141
20
127.2488
30
0.0
0
VERTEX
8
CUT_INNER
10
107.0979
20
126.8010
30
0.0
0
VERTEX
8
CUT_INNER
10
108.5906
20
127.3980
30
0.0
0
VERTEX
8
CUT_INNER
10
110.2325
20
129.6370
30
0.0
0
VERTEX
8
CUT_INNER
10
109.9340
20
132.7716
30
0.0
0
VERTEX
8
CUT_INNER
10
107.2472
20
134.8613
30
0.0
0
VERTEX
8
CUT_INNER
10
109.3369
20
136.5032
30
0.0
0
VERTEX
8
CUT_INNER
10
109.9340
20
139.6378
30
0.0
0
VERTEX
8
CUT_INNER
10
108.2921
20
141.8768
30
0.0
0
VERTEX
8
CUT_INNER
10
107.0979
20
142.4738
30
0.0
0
SEQEND
8
CUT_INNER
0
POLYLINE
8
CUT_INNER
66
1
70
1
0
VERTEX
8
CUT_INNER
10
98.2913
20
142.4738
30
0.0
0
VERTEX
8
CUT_INNER
10
97.8435
20
141.5783
30
0.0
0
VERTEX
8
CUT_INNER
10
98.7391
20
140.8319
30
0.0
0
VERTEX
8
CUT_INNER
10
98.7391
20
128.4429
30
0.0
0
VERTEX
8
CUT_INNER
10
97.5450
20
127.2488
30
0.0
0
VERTEX
8
CUT_INNER
10
97.9928
20
126.8010
30
0.0
0
VERTEX
8
CUT_INNER
10
102.6200
20
126.8010
30
0.0
0
VERTEX
8
CUT_INNER
10
103.0678
20
127.2488
30
0.0
0
VERTEX
8
CUT_INNER
10
103.0678
20
142.0261
30
0.0
0
VERTEX
8
CUT_INNER
10
102.6200
20
142.4738
30
0.0
0
SEQEND
8
CUT_INNER
0
POLYLINE
8
CUT_INNER
66
1
70
1
0
VERTEX
8
CUT_INNER
10
202.4786
20
142.7724
30
0.0
0
VERTEX
8
CUT_INNER
10
202.0308
20
141.5783
30
0.0
0
VERTEX
8
CUT_INNER
10
202.9263
20
140.6827
30
0.0
0
VERTEX
8
CUT_INNER
10
202.9263
20
128.5922
30
0.0
0
VERTEX
8
CUT_INNER
10
202.0308
20
126.9502
30
0.0
0
VERTEX
8
CUT_INNER
10
203.2249
20
126.5024
30
0.0
0
VERTEX
8
CUT_INNER
10
206.6580
20
129.6370
30
0.0
0
VERTEX
8
CUT_INNER
10
207.5536
20
132.6223
30
0.0
0
VERTEX
8
CUT_INNER
10
207.5536
20
136.3540
30
0.0
0
VERTEX
8
CUT_INNER
10
206.0609
20
140.5334
30
0.0
0
VERTEX
8
CUT_INNER
10
203.8219
20
142.4738
30
0.0
0
SEQEND
8
CUT_INNER
0
POLYLINE
8
CUT_INNER
66
1
70
1
0
VERTEX
8
CUT_INNER
10
200.0903
20
142.7724
30
0.0
0
VERTEX
8
CUT_INNER
10
198.2991
20
141.8768
30
0.0
0
VERTEX
8
CUT_INNER
10
196.0601
20
138.7422
30
0.0
0
VERTEX
8
CUT_INNER
10
195.4631
20
132.9209
30
0.0
0
VERTEX
8
CUT_INNER
10
196.9557
20
128.7414
30
0.0
0
VERTEX
8
CUT_INNER
10
198.5976
20
127.0995
30
0.0
0
VERTEX
8
CUT_INNER
10
200.5381
20
126.5024
30
0.0
0
VERTEX
8
CUT_INNER
10
200.9859
20
127.6966
30
0.0
0
VERTEX
8
CUT_INNER
10
200.0903
20
128.5922
30
0.0
0
VERTEX
8
CUT_INNER
10
200.0903
20
140.6827
30
0.0
0
VERTEX
8
CUT_INNER
10
200.9859
20
142.3246
30
0.0
0
SEQEND
8
CUT_INNER
0
POLYLINE
8
CUT_INNER
66
1
70
1
0
VERTEX
8
CUT_INNER
10
182.7755
20
142.7724
30
0.0
0
VERTEX
8
CUT_INNER
10
182.3277
20
141.5783
30
0.0
0
VERTEX
8
CUT_INNER
10
184.7160
20
139.7871
30
0.0
0
VERTEX
8
CUT_INNER
10
185.3130
20
137.6974
30
0.0
0
VERTEX
8
CUT_INNER
10
186.2086
20
137.2496
30
0.0
0
VERTEX
8
CUT_INNER
10
186.6564
20
137.6974
30
0.0
0
VERTEX
8
CUT_INNER
10
186.6564
20
142.3246
30
0.0
0
VERTEX
8
CUT_INNER
10
186.0594
20
142.7724
30
0.0
0
VERTEX
8
CUT_INNER
10
184.7160
20
141.8768
30
0.0
0
SEQEND
8
CUT_INNER
0
POLYLINE
8
CUT_INNER
66
1
70
1
0
VERTEX
8
CUT_INNER
10
180.3873
20
142.7724
30
0.0
0
VERTEX
8
CUT_INNER
10
177.5512
20
140.5334
30
0.0
0
VERTEX
8
CUT_INNER
10
176.9542
20
139.3393
30
0.0
0
VERTEX
8
CUT_INNER
10
176.9542
20
136.2047
30
0.0
0
VERTEX
8
CUT_INNER
10
178.8946
20
133.3687
30
0.0
0
VERTEX
8
CUT_INNER
10
183.5218
20
130.5326
30
0.0
0
VERTEX
8
CUT_INNER
10
183.5218
20
128.8907
30
0.0
0
VERTEX
8
CUT_INNER
10
182.0292
20
127.3980
30
0.0
0
VERTEX
8
CUT_INNER
10
182.3277
20
126.3532
30
0.0
0
VERTEX
8
CUT_INNER
10
183.5218
20
126.5024
30
0.0
0
VERTEX
8
CUT_INNER
10
186.3579
20
128.4429
30
0.0
0
VERTEX
8
CUT_INNER
10
187.2535
20
130.5326
30
0.0
0
VERTEX
8
CUT_INNER
10
187.2535
20
132.7716
30
0.0
0
VERTEX
8
CUT_INNER
10
186.6564
20
134.2643
30
0.0
0
VERTEX
8
CUT_INNER
10
184.7160
20
136.2047
30
0.0
0
VERTEX
8
CUT_INNER
10
180.3873
20
138.7422
30
0.0
0
VERTEX
8
CUT_INNER
10
180.3873
20
140.3841
30
0.0
0
VERTEX
8
CUT_INNER
10
181.5814
20
141.5783
30
0.0
0
VERTEX
8
CUT_INNER
10
181.5814
20
142.3246
30
0.0
0
SEQEND
8
CUT_INNER
0
POLYLINE
8
CUT_INNER
66
1
70
1
0
VERTEX
8
CUT_INNER
10
173.0733
20
142.7724
30
0.0
0
VERTEX
8
CUT_INNER
10
171.7299
20
142.7724
30
0.0
0
VERTEX
8
CUT_INNER
10
170.3865
20
141.1305
30
0.0
0
VERTEX
8
CUT_INNER
10
170.9835
20
139.1900
30
0.0
0
VERTEX
8
CUT_INNER
10
172.4762
20
138.4437
30
0.0
0
VERTEX
8
CUT_INNER
10
170.5357
20
136.2047
30
0.0
0
VERTEX
8
CUT_INNER
10
171.1328
20
135.4584
30
0.0
0
VERTEX
8
CUT_INNER
10
173.2225
20
136.8018
30
0.0
0
VERTEX
8
CUT_INNER
10
174.4167
20
138.8915
30
0.0
0
VERTEX
8
CUT_INNER
10
174.4167
20
141.1305
30
0.0
0
SEQEND
8
CUT_INNER
0
POLYLINE
8
CUT_INNER
66
1
70
1
0
VERTEX
8
CUT_INNER
10
24.4049
20
144.4143
30
0.0
0
VERTEX
8
CUT_INNER
10
25.8976
20
130.5326
30
0.0
0
VERTEX
8
CUT_INNER
10
31.2711
20
130.9804
30
0.0
0
VERTEX
8
CUT_INNER
10
39.1822
20
127.6966
30
0.0
0
VERTEX
8
CUT_INNER
10
43.2123
20
127.6966
30
0.0
0
VERTEX
8
CUT_INNER
10
45.7499
20
128.7414
30
0.0
0
VERTEX
8
CUT_INNER
10
41.2719
20
133.9657
30
0.0
0
VERTEX
8
CUT_INNER
10
45.1528
20
140.0856
30
0.0
0
VERTEX
8
CUT_INNER
10
44.8543
20
140.5334
30
0.0
0
VERTEX
8
CUT_INNER
10
38.5851
20
140.6827
30
0.0
0
VERTEX
8
CUT_INNER
10
31.5696
20
144.2650
30
0.0
0
VERTEX
8
CUT_INNER
10
28.5843
20
145.1606
30
0.0
0
VERTEX
8
CUT_INNER
10
25.1512
20
145.1606
30
0.0
0
SEQEND
8
CUT_INNER
0
POLYLINE
8
CUT_INNER
66
1
70
1
0
VERTEX
8
CUT_INNER
10
21.8674
20
149.9371
30
0.0
0
VERTEX
8
CUT_INNER
10
20.8225
20
149.1908
30
0.0
0
VERTEX
8
CUT_INNER
10
20.5240
20
147.5489
30
0.0
0
VERTEX
8
CUT_INNER
10
21.4196
20
146.6533
30
0.0
0
VERTEX
8
CUT_INNER
10
24.7034
20
107.5457
30
0.0
0
VERTEX
8
CUT_INNER
10
25.4498
20
106.5009
30
0.0
0
VERTEX
8
CUT_INNER
10
26.1961
20
106.5009
30
0.0
0
VERTEX
8
CUT_INNER
10
26.9424
20
107.3965
30
0.0
0
VERTEX
8
CUT_INNER
10
23.0615
20
146.2055
30
0.0
0
VERTEX
8
CUT_INNER
10
23.9571
20
148.2952
30
0.0
0
VERTEX
8
CUT_INNER
10
22.9122
20
149.6386
30
0.0
0
SEQEND
8
CUT_INNER
0
POLYLINE
8
CUT_INNER
66
1
70
1
0
VERTEX
8
CUT_INNER
10
236.9589
20
152.3254
30
0.0
0
VERTEX
8
CUT_INNER
10
235.6155
20
152.3254
30
0.0
0
VERTEX
8
CUT_INNER
10
234.2721
20
150.6834
30
0.0
0
VERTEX
8
CUT_INNER
10
234.5706
20
149.0415
30
0.0
0
VERTEX
8
CUT_INNER
10
236.0633
20
147.9967
30
0.0
0
VERTEX
8
CUT_INNER
10
235.7647
20
146.8025
30
0.0
0
VERTEX
8
CUT_INNER
10
234.4214
20
145.7577
30
0.0
0
VERTEX
8
CUT_INNER
10
235.0184
20
145.0114
30
0.0
0
VERTEX
8
CUT_INNER
10
238.0037
20
148.1459
30
0.0
0
VERTEX
8
CUT_INNER
10
238.0037
20
150.9820
30
0.0
0
SEQEND
8
CUT_INNER
0
POLYLINE
8
CUT_INNER
66
1
70
1
0
VERTEX
8
CUT_INNER
10
294.5753
20
153.3702
30
0.0
0
VERTEX
8
CUT_INNER
10
292.4856
20
150.0864
30
0.0
0
VERTEX
8
CUT_INNER
10
291.8885
20
147.6981
30
0.0
0
VERTEX
8
CUT_INNER
10
291.8885
20
143.6680
30
0.0
0
VERTEX
8
CUT_INNER
10
293.2319
20
140.2349
30
0.0
0
VERTEX
8
CUT_INNER
10
294.2768
20
140.6827
30
0.0
0
SEQEND
8
CUT_INNER
0
POLYLINE
8
CUT_INNER
66
1
70
1
0
VERTEX
8
CUT_INNER
10
230.9882
20
153.5195
30
0.0
0
VERTEX
8
CUT_INNER
10
229.1971
20
150.6834
30
0.0
0
VERTEX
8
CUT_INNER
10
227.1073
20
149.4893
30
0.0
0
VERTEX
8
CUT_INNER
10
227.5551
20
148.2952
30
0.0
0
VERTEX
8
CUT_INNER
10
231.4360
20
148.7430
30
0.0
0
VERTEX
8
CUT_INNER
10
231.4360
20
153.0717
30
0.0
0
SEQEND
8
CUT_INNER
0
POLYLINE
8
CUT_INNER
66
1
70
1
0
VERTEX
8
CUT_INNER
10
123.3679
20
153.6688
30
0.0
0
VERTEX
8
CUT_INNER
10
121.7260
20
150.9820
30
0.0
0
VERTEX
8
CUT_INNER
10
119.3377
20
149.4893
30
0.0
0
VERTEX
8
CUT_INNER
10
119.7855
20
148.2952
30
0.0
0
VERTEX
8
CUT_INNER
10
123.9649
20
148.7430
30
0.0
0
VERTEX
8
CUT_INNER
10
123.9649
20
153.0717
30
0.0
0
SEQEND
8
CUT_INNER
0
POLYLINE
8
CUT_INNER
66
1
70
1
0
VERTEX
8
CUT_INNER
10
94.7089
20
153.6688
30
0.0
0
VERTEX
8
CUT_INNER
10
93.3655
20
151.2805
30
0.0
0
VERTEX
8
CUT_INNER
10
90.6787
20
149.4893
30
0.0
0
VERTEX
8
CUT_INNER
10
91.1265
20
148.2952
30
0.0
0
VERTEX
8
CUT_INNER
10
95.3060
20
148.7430
30
0.0
0
VERTEX
8
CUT_INNER
10
95.3060
20
153.0717
30
0.0
0
SEQEND
8
CUT_INNER
0
POLYLINE
8
CUT_INNER
66
1
70
1
0
VERTEX
8
CUT_INNER
10
202.3293
20
153.8180
30
0.0
0
VERTEX
8
CUT_INNER
10
200.8366
20
151.2805
30
0.0
0
VERTEX
8
CUT_INNER
10
198.1499
20
149.4893
30
0.0
0
VERTEX
8
CUT_INNER
10
198.5976
20
148.2952
30
0.0
0
VERTEX
8
CUT_INNER
10
202.7771
20
148.7430
30
0.0
0
VERTEX
8
CUT_INNER
10
202.7771
20
153.3702
30
0.0
0
SEQEND
8
CUT_INNER
0
POLYLINE
8
CUT_INNER
66
1
70
1
0
VERTEX
8
CUT_INNER
10
10.9710
20
154.1166
30
0.0
0
VERTEX
8
CUT_INNER
10
10.0754
20
153.6688
30
0.0
0
VERTEX
8
CUT_INNER
10
10.6725
20
140.8319
30
0.0
0
VERTEX
8
CUT_INNER
10
12.6129
20
145.1606
30
0.0
0
VERTEX
8
CUT_INNER
10
12.6129
20
150.3849
30
0.0
0
SEQEND
8
CUT_INNER
0
POLYLINE
8
CUT_INNER
66
1
70
1
0
VERTEX
8
CUT_INNER
10
63.3632
20
158.2960
30
0.0
0
VERTEX
8
CUT_INNER
10
61.1242
20
156.6541
30
0.0
0
VERTEX
8
CUT_INNER
10
60.8257
20
154.2658
30
0.0
0
VERTEX
8
CUT_INNER
10
59.6315
20
153.3702
30
0.0
0
VERTEX
8
CUT_INNER
10
61.1242
20
152.4746
30
0.0
0
VERTEX
8
CUT_INNER
10
61.5720
20
150.9820
30
0.0
0
VERTEX
8
CUT_INNER
10
59.6315
20
150.0864
30
0.0
0
VERTEX
8
CUT_INNER
10
57.8404
20
151.1312
30
0.0
0
VERTEX
8
CUT_INNER
10
56.1984
20
151.1312
30
0.0
0
VERTEX
8
CUT_INNER
10
54.4072
20
150.2357
30
0.0
0
VERTEX
8
CUT_INNER
10
53.0639
20
148.8923
30
0.0
0
VERTEX
8
CUT_INNER
10
53.3624
20
148.1459
30
0.0
0
VERTEX
8
CUT_INNER
10
51.8697
20
146.8025
30
0.0
0
VERTEX
8
CUT_INNER
10
51.5712
20
143.6680
30
0.0
0
VERTEX
8
CUT_INNER
10
52.3175
20
141.5783
30
0.0
0
VERTEX
8
CUT_INNER
10
50.9741
20
139.6378
30
0.0
0
VERTEX
8
CUT_INNER
10
50.9741
20
134.7120
30
0.0
0
VERTEX
8
CUT_INNER
10
53.2131
20
132.1745
30
0.0
0
VERTEX
8
CUT_INNER
10
56.7955
20
131.7267
30
0.0
0
VERTEX
8
CUT_INNER
10
57.5418
20
128.8907
30
0.0
0
VERTEX
8
CUT_INNER
10
56.6462
20
122.9201
30
0.0
0
VERTEX
8
CUT_INNER
10
53.9595
20
118.4421
30
0.0
0
VERTEX
8
CUT_INNER
10
53.0639
20
114.8597
30
0.0
0
VERTEX
8
CUT_INNER
10
51.5712
20
112.4715
30
0.0
0
VERTEX
8
CUT_INNER
10
52.1683
20
111.2774
30
0.0
0
VERTEX
8
CUT_INNER
10
50.9741
20
107.8443
30
0.0
0
VERTEX
8
CUT_INNER
10
52.0190
20
107.0979
30
0.0
0
VERTEX
8
CUT_INNER
10
58.1389
20
106.7994
30
0.0
0
VERTEX
8
CUT_INNER
10
60.3779
20
108.1428
30
0.0
0
VERTEX
8
CUT_INNER
10
59.6315
20
109.3369
30
0.0
0
VERTEX
8
CUT_INNER
10
56.7955
20
110.0833
30
0.0
0
VERTEX
8
CUT_INNER
10
56.4970
20
111.1281
30
0.0
0
VERTEX
8
CUT_INNER
10
58.5867
20
117.0987
30
0.0
0
VERTEX
8
CUT_INNER
10
60.9749
20
120.0840
30
0.0
0
VERTEX
8
CUT_INNER
10
63.2139
20
125.1591
30
0.0
0
VERTEX
8
CUT_INNER
10
65.9007
20
120.9796
30
0.0
0
VERTEX
8
CUT_INNER
10
65.6022
20
112.7700
30
0.0
0
VERTEX
8
CUT_INNER
10
65.0051
20
111.8744
30
0.0
0
VERTEX
8
CUT_INNER
10
65.7514
20
110.6803
30
0.0
0
VERTEX
8
CUT_INNER
10
65.3036
20
107.5457
30
0.0
0
VERTEX
8
CUT_INNER
10
71.5728
20
106.7994
30
0.0
0
VERTEX
8
CUT_INNER
10
73.5132
20
107.8443
30
0.0
0
VERTEX
8
CUT_INNER
10
72.4684
20
109.6355
30
0.0
0
VERTEX
8
CUT_INNER
10
71.1250
20
109.6355
30
0.0
0
VERTEX
8
CUT_INNER
10
69.7816
20
110.8296
30
0.0
0
VERTEX
8
CUT_INNER
10
70.5279
20
122.6215
30
0.0
0
VERTEX
8
CUT_INNER
10
67.2441
20
131.8760
30
0.0
0
VERTEX
8
CUT_INNER
10
67.8411
20
133.5179
30
0.0
0
VERTEX
8
CUT_INNER
10
67.2441
20
136.5032
30
0.0
0
VERTEX
8
CUT_INNER
10
72.7669
20
136.0554
30
0.0
0
VERTEX
8
CUT_INNER
10
74.8566
20
136.6525
30
0.0
0
VERTEX
8
CUT_INNER
10
75.4537
20
136.2047
30
0.0
0
VERTEX
8
CUT_INNER
10
75.4537
20
108.5906
30
0.0
0
VERTEX
8
CUT_INNER
10
74.8566
20
107.5457
30
0.0
0
VERTEX
8
CUT_INNER
10
78.1405
20
107.0979
30
0.0
0
VERTEX
8
CUT_INNER
10
78.8868
20
107.9935
30
0.0
0
VERTEX
8
CUT_INNER
10
76.7971
20
108.7399
30
0.0
0
VERTEX
8
CUT_INNER
10
76.7971
20
136.3540
30
0.0
0
VERTEX
8
CUT_INNER
10
77.6927
20
137.1003
30
0.0
0
VERTEX
8
CUT_INNER
10
77.8419
20
139.4885
30
0.0
0
VERTEX
8
CUT_INNER
10
76.7971
20
140.5334
30
0.0
0
VERTEX
8
CUT_INNER
10
76.7971
20
142.6231
30
0.0
0
VERTEX
8
CUT_INNER
10
76.0507
20
143.3694
30
0.0
0
VERTEX
8
CUT_INNER
10
75.1551
20
142.6231
30
0.0
0
VERTEX
8
CUT_INNER
10
75.1551
20
140.5334
30
0.0
0
VERTEX
8
CUT_INNER
10
73.9610
20
139.4885
30
0.0
0
VERTEX
8
CUT_INNER
10
70.8264
20
140.0856
30
0.0
0
VERTEX
8
CUT_INNER
10
69.0353
20
141.1305
30
0.0
0
VERTEX
8
CUT_INNER
10
67.5426
20
147.1011
30
0.0
0
VERTEX
8
CUT_INNER
10
65.6022
20
149.4893
30
0.0
0
VERTEX
8
CUT_INNER
10
67.6919
20
150.6834
30
0.0
0
VERTEX
8
CUT_INNER
10
68.4382
20
152.9224
30
0.0
0
VERTEX
8
CUT_INNER
10
67.8411
20
154.2658
30
0.0
0
VERTEX
8
CUT_INNER
10
70.2294
20
155.4599
30
0.0
0
VERTEX
8
CUT_INNER
10
69.4831
20
156.2063
30
0.0
0
VERTEX
8
CUT_INNER
10
67.8411
20
156.3555
30
0.0
0
VERTEX
8
CUT_INNER
10
65.6022
20
158.2960
30
0.0
0
SEQEND
8
CUT_INNER
0
POLYLINE
8
CUT_INNER
66
1
70
1
0
VERTEX
8
CUT_INNER
10
200.2396
20
159.7886
30
0.0
0
VERTEX
8
CUT_INNER
10
198.1499
20
156.9526
30
0.0
0
VERTEX
8
CUT_INNER
10
199.9410
20
153.5195
30
0.0
0
VERTEX
8
CUT_INNER
10
200.6874
20
154.1166
30
0.0
0
VERTEX
8
CUT_INNER
10
200.6874
20
159.3408
30
0.0
0
SEQEND
8
CUT_INNER
0
POLYLINE
8
CUT_INNER
66
1
70
1
0
VERTEX
8
CUT_INNER
10
120.9796
20
159.7886
30
0.0
0
VERTEX
8
CUT_INNER
10
119.3377
20
157.2511
30
0.0
0
VERTEX
8
CUT_INNER
10
119.3377
20
156.2063
30
0.0
0
VERTEX
8
CUT_INNER
10
120.5318
20
154.1166
30
0.0
0
VERTEX
8
CUT_INNER
10
121.4274
20
153.6688
30
0.0
0
VERTEX
8
CUT_INNER
10
121.8752
20
154.1166
30
0.0
0
VERTEX
8
CUT_INNER
10
121.8752
20
159.3408
30
0.0
0
SEQEND
8
CUT_INNER
0
POLYLINE
8
CUT_INNER
66
1
70
1
0
VERTEX
8
CUT_INNER
10
92.7685
20
159.7886
30
0.0
0
VERTEX
8
CUT_INNER
10
90.6787
20
157.2511
30
0.0
0
VERTEX
8
CUT_INNER
10
90.6787
20
156.2063
30
0.0
0
VERTEX
8
CUT_INNER
10
92.3207
20
153.6688
30
0.0
0
VERTEX
8
CUT_INNER
10
93.2163
20
154.1166
30
0.0
0
VERTEX
8
CUT_INNER
10
93.2163
20
159.3408
30
0.0
0
SEQEND
8
CUT_INNER
0
POLYLINE
8
CUT_INNER
66
1
70
1
0
VERTEX
8
CUT_INNER
10
274.8723
20
164.2666
30
0.0
0
VERTEX
8
CUT_INNER
10
271.1406
20
163.9681
30
0.0
0
VERTEX
8
CUT_INNER
10
267.5583
20
161.2813
30
0.0
0
VERTEX
8
CUT_INNER
10
265.6178
20
159.0423
30
0.0
0
VERTEX
8
CUT_INNER
10
264.8715
20
154.7136
30
0.0
0
VERTEX
8
CUT_INNER
10
261.4384
20
156.8033
30
0.0
0
VERTEX
8
CUT_INNER
10
257.7068
20
157.4004
30
0.0
0
VERTEX
8
CUT_INNER
10
253.5273
20
155.9077
30
0.0
0
VERTEX
8
CUT_INNER
10
251.1391
20
153.2210
30
0.0
0
VERTEX
8
CUT_INNER
10
251.5869
20
152.7732
30
0.0
0
VERTEX
8
CUT_INNER
10
254.4229
20
153.6688
30
0.0
0
VERTEX
8
CUT_INNER
10
255.3185
20
153.0717
30
0.0
0
VERTEX
8
CUT_INNER
10
257.7068
20
153.5195
30
0.0
0
VERTEX
8
CUT_INNER
10
259.1994
20
152.4746
30
0.0
0
VERTEX
8
CUT_INNER
10
260.9906
20
152.1761
30
0.0
0
VERTEX
8
CUT_INNER
10
260.5428
20
151.4298
30
0.0
0
VERTEX
8
CUT_INNER
10
256.5126
20
150.2357
30
0.0
0
VERTEX
8
CUT_INNER
10
253.9751
20
147.9967
30
0.0
0
VERTEX
8
CUT_INNER
10
252.4825
20
145.0114
30
0.0
0
VERTEX
8
CUT_INNER
10
252.1839
20
142.4738
30
0.0
0
VERTEX
8
CUT_INNER
10
252.4825
20
140.6827
30
0.0
0
VERTEX
8
CUT_INNER
10
253.3781
20
139.6378
30
0.0
0
VERTEX
8
CUT_INNER
10
255.0200
20
142.7724
30
0.0
0
VERTEX
8
CUT_INNER
10
256.2141
20
143.0709
30
0.0
0
VERTEX
8
CUT_INNER
10
258.0053
20
145.4592
30
0.0
0
VERTEX
8
CUT_INNER
10
262.4833
20
147.5489
30
0.0
0
VERTEX
8
CUT_INNER
10
259.9457
20
142.0261
30
0.0
0
VERTEX
8
CUT_INNER
10
259.9457
20
138.8915
30
0.0
0
VERTEX
8
CUT_INNER
10
261.1399
20
135.3091
30
0.0
0
VERTEX
8
CUT_INNER
10
262.9310
20
133.2194
30
0.0
0
VERTEX
8
CUT_INNER
10
263.3788
20
133.5179
30
0.0
0
VERTEX
8
CUT_INNER
10
263.3788
20
138.1452
30
0.0
0
VERTEX
8
CUT_INNER
10
264.2744
20
138.8915
30
0.0
0
VERTEX
8
CUT_INNER
10
264.5730
20
141.5783
30
0.0
0
VERTEX
8
CUT_INNER
10
266.0656
20
142.4738
30
0.0
0
VERTEX
8
CUT_INNER
10
267.2597
20
146.0562
30
0.0
0
VERTEX
8
CUT_INNER
10
268.0061
20
146.0562
30
0.0
0
VERTEX
8
CUT_INNER
10
270.6929
20
140.6827
30
0.0
0
VERTEX
8
CUT_INNER
10
271.8870
20
135.6076
30
0.0
0
VERTEX
8
CUT_INNER
10
271.8870
20
127.6966
30
0.0
0
VERTEX
8
CUT_INNER
10
269.2002
20
118.7406
30
0.0
0
VERTEX
8
CUT_INNER
10
268.1553
20
118.2929
30
0.0
0
VERTEX
8
CUT_INNER
10
260.5428
20
119.7855
30
0.0
0
VERTEX
8
CUT_INNER
10
248.4523
20
119.4870
30
0.0
0
VERTEX
8
CUT_INNER
10
247.2582
20
125.9054
30
0.0
0
VERTEX
8
CUT_INNER
10
244.5714
20
130.9804
30
0.0
0
VERTEX
8
CUT_INNER
10
245.0192
20
131.2789
30
0.0
0
VERTEX
8
CUT_INNER
10
246.9596
20
129.7863
30
0.0
0
VERTEX
8
CUT_INNER
10
247.8552
20
129.9356
30
0.0
0
VERTEX
8
CUT_INNER
10
250.5420
20
126.6517
30
0.0
0
VERTEX
8
CUT_INNER
10
251.1391
20
128.2936
30
0.0
0
VERTEX
8
CUT_INNER
10
250.2435
20
130.9804
30
0.0
0
VERTEX
8
CUT_INNER
10
248.6016
20
132.9209
30
0.0
0
VERTEX
8
CUT_INNER
10
246.0641
20
133.9657
30
0.0
0
VERTEX
8
CUT_INNER
10
245.9148
20
134.5628
30
0.0
0
VERTEX
8
CUT_INNER
10
247.7060
20
135.3091
30
0.0
0
VERTEX
8
CUT_INNER
10
248.7508
20
134.8613
30
0.0
0
VERTEX
8
CUT_INNER
10
250.3928
20
135.3091
30
0.0
0
VERTEX
8
CUT_INNER
10
252.0347
20
134.5628
30
0.0
0
VERTEX
8
CUT_INNER
10
253.0795
20
135.0106
30
0.0
0
VERTEX
8
CUT_INNER
10
250.6913
20
137.6974
30
0.0
0
VERTEX
8
CUT_INNER
10
249.1986
20
138.2944
30
0.0
0
VERTEX
8
CUT_INNER
10
246.6611
20
138.2944
30
0.0
0
VERTEX
8
CUT_INNER
10
243.8251
20
136.9510
30
0.0
0
VERTEX
8
CUT_INNER
10
243.3773
20
137.2496
30
0.0
0
VERTEX
8
CUT_INNER
10
244.1236
20
139.7871
30
0.0
0
VERTEX
8
CUT_INNER
10
245.7655
20
140.9812
30
0.0
0
VERTEX
8
CUT_INNER
10
245.7655
20
141.8768
30
0.0
0
VERTEX
8
CUT_INNER
10
247.5567
20
142.7724
30
0.0
0
VERTEX
8
CUT_INNER
10
247.1089
20
143.3694
30
0.0
0
VERTEX
8
CUT_INNER
10
244.8699
20
143.3694
30
0.0
0
VERTEX
8
CUT_INNER
10
242.7802
20
142.4738
30
0.0
0
VERTEX
8
CUT_INNER
10
241.1383
20
140.8319
30
0.0
0
VERTEX
8
CUT_INNER
10
240.0934
20
136.8018
30
0.0
0
VERTEX
8
CUT_INNER
10
235.0184
20
138.5929
30
0.0
0
VERTEX
8
CUT_INNER
10
232.0331
20
137.3988
30
0.0
0
VERTEX
8
CUT_INNER
10
230.0927
20
134.7120
30
0.0
0
VERTEX
8
CUT_INNER
10
235.6155
20
135.3091
30
0.0
0
VERTEX
8
CUT_INNER
10
237.1081
20
134.4135
30
0.0
0
VERTEX
8
CUT_INNER
10
233.0780
20
131.5775
30
0.0
0
VERTEX
8
CUT_INNER
10
231.8838
20
129.4878
30
0.0
0
VERTEX
8
CUT_INNER
10
231.5853
20
126.6517
30
0.0
0
VERTEX
8
CUT_INNER
10
232.4809
20
125.0098
30
0.0
0
VERTEX
8
CUT_INNER
10
233.8243
20
127.5473
30
0.0
0
VERTEX
8
CUT_INNER
10
234.8691
20
127.9951
30
0.0
0
VERTEX
8
CUT_INNER
10
235.9140
20
129.6370
30
0.0
0
VERTEX
8
CUT_INNER
10
238.0037
20
130.3833
30
0.0
0
VERTEX
8
CUT_INNER
10
237.2574
20
126.3532
30
0.0
0
VERTEX
8
CUT_INNER
10
237.8545
20
123.9649
30
0.0
0
VERTEX
8
CUT_INNER
10
239.3471
20
122.1738
30
0.0
0
VERTEX
8
CUT_INNER
10
240.0934
20
123.0693
30
0.0
0
VERTEX
8
CUT_INNER
10
239.9442
20
125.3083
30
0.0
0
VERTEX
8
CUT_INNER
10
241.5861
20
130.0848
30
0.0
0
VERTEX
8
CUT_INNER
10
242.6310
20
129.9356
30
0.0
0
VERTEX
8
CUT_INNER
10
245.0192
20
123.9649
30
0.0
0
VERTEX
8
CUT_INNER
10
245.3177
20
118.5914
30
0.0
0
VERTEX
8
CUT_INNER
10
237.4067
20
115.6061
30
0.0
0
VERTEX
8
CUT_INNER
10
232.4809
20
111.4266
30
0.0
0
VERTEX
8
CUT_INNER
10
229.3463
20
111.1281
30
0.0
0
VERTEX
8
CUT_INNER
10
225.1669
20
109.3369
30
0.0
0
VERTEX
8
CUT_INNER
10
222.3309
20
106.7994
30
0.0
0
VERTEX
8
CUT_INNER
10
222.1816
20
105.6053
30
0.0
0
VERTEX
8
CUT_INNER
10
224.7191
20
105.3068
30
0.0
0
VERTEX
8
CUT_INNER
10
231.7346
20
107.0979
30
0.0
0
VERTEX
8
CUT_INNER
10
236.0633
20
107.0979
30
0.0
0
VERTEX
8
CUT_INNER
10
241.8846
20
105.0082
30
0.0
0
VERTEX
8
CUT_INNER
10
245.9148
20
105.0082
30
0.0
0
VERTEX
8
CUT_INNER
10
252.0347
20
107.0979
30
0.0
0
VERTEX
8
CUT_INNER
10
255.7663
20
107.0979
30
0.0
0
VERTEX
8
CUT_INNER
10
261.5877
20
105.0082
30
0.0
0
VERTEX
8
CUT_INNER
10
265.6178
20
104.7097
30
0.0
0
VERTEX
8
CUT_INNER
10
273.8274
20
107.3965
30
0.0
0
VERTEX
8
CUT_INNER
10
279.7980
20
106.7994
30
0.0
0
VERTEX
8
CUT_INNER
10
281.2907
20
107.2472
30
0.0
0
VERTEX
8
CUT_INNER
10
281.5892
20
110.0833
30
0.0
0
VERTEX
8
CUT_INNER
10
280.3951
20
112.1730
30
0.0
0
VERTEX
8
CUT_INNER
10
277.5591
20
114.7105
30
0.0
0
VERTEX
8
CUT_INNER
10
273.8274
20
116.6509
30
0.0
0
VERTEX
8
CUT_INNER
10
275.6186
20
123.6664
30
0.0
0
VERTEX
8
CUT_INNER
10
275.9171
20
132.1745
30
0.0
0
VERTEX
8
CUT_INNER
10
273.8274
20
141.1305
30
0.0
0
VERTEX
8
CUT_INNER
10
270.8421
20
146.9518
30
0.0
0
VERTEX
8
CUT_INNER
10
271.2899
20
147.2503
30
0.0
0
VERTEX
8
CUT_INNER
10
273.6782
20
145.7577
30
0.0
0
VERTEX
8
CUT_INNER
10
274.4245
20
146.2055
30
0.0
0
VERTEX
8
CUT_INNER
10
276.2157
20
144.4143
30
0.0
0
VERTEX
8
CUT_INNER
10
277.1113
20
144.5636
30
0.0
0
VERTEX
8
CUT_INNER
10
278.7532
20
142.4738
30
0.0
0
VERTEX
8
CUT_INNER
10
279.7980
20
142.7724
30
0.0
0
VERTEX
8
CUT_INNER
10
282.1863
20
139.1900
30
0.0
0
VERTEX
8
CUT_INNER
10
282.7833
20
139.7871
30
0.0
0
VERTEX
8
CUT_INNER
10
282.7833
20
143.8172
30
0.0
0
VERTEX
8
CUT_INNER
10
281.5892
20
146.8025
30
0.0
0
VERTEX
8
CUT_INNER
10
277.8576
20
150.2357
30
0.0
0
VERTEX
8
CUT_INNER
10
273.2304
20
151.4298
30
0.0
0
VERTEX
8
CUT_INNER
10
272.7826
20
152.0268
30
0.0
0
VERTEX
8
CUT_INNER
10
274.4245
20
152.7732
30
0.0
0
VERTEX
8
CUT_INNER
10
276.6635
20
152.7732
30
0.0
0
VERTEX
8
CUT_INNER
10
277.5591
20
153.6688
30
0.0
0
VERTEX
8
CUT_INNER
10
278.9024
20
153.0717
30
0.0
0
VERTEX
8
CUT_INNER
10
281.1414
20
153.5195
30
0.0
0
VERTEX
8
CUT_INNER
10
285.0223
20
152.6239
30
0.0
0
VERTEX
8
CUT_INNER
10
282.3356
20
156.2063
30
0.0
0
VERTEX
8
CUT_INNER
10
278.1561
20
157.9975
30
0.0
0
VERTEX
8
CUT_INNER
10
274.1260
20
157.6989
30
0.0
0
VERTEX
8
CUT_INNER
10
269.7973
20
155.3107
30
0.0
0
VERTEX
8
CUT_INNER
10
269.3495
20
155.6092
30
0.0
0
VERTEX
8
CUT_INNER
10
270.9914
20
158.4452
30
0.0
0
VERTEX
8
CUT_INNER
10
270.6929
20
159.3408
30
0.0
0
VERTEX
8
CUT_INNER
10
272.7826
20
161.1320
30
0.0
0
VERTEX
8
CUT_INNER
10
272.6333
20
161.8784
30
0.0
0
VERTEX
8
CUT_INNER
10
275.1708
20
163.8188
30
0.0
0
SEQEND
8
CUT_INNER
0
POLYLINE
8
CUT_INNER
66
1
70
1
0
VERTEX
8
CUT_INNER
10
227.5551
20
164.5651
30
0.0
0
VERTEX
8
CUT_INNER
10
227.1073
20
163.6695
30
0.0
0
VERTEX
8
CUT_INNER
10
229.4956
20
161.8784
30
0.0
0
VERTEX
8
CUT_INNER
10
230.6897
20
159.6394
30
0.0
0
VERTEX
8
CUT_INNER
10
231.4360
20
160.3857
30
0.0
0
VERTEX
8
CUT_INNER
10
231.4360
20
164.1173
30
0.0
0
SEQEND
8
CUT_INNER
0
POLYLINE
8
CUT_INNER
66
1
70
1
0
VERTEX
8
CUT_INNER
10
221.2860
20
164.5651
30
0.0
0
VERTEX
8
CUT_INNER
10
220.8382
20
163.9681
30
0.0
0
VERTEX
8
CUT_INNER
10
222.0323
20
162.9232
30
0.0
0
VERTEX
8
CUT_INNER
10
222.0323
20
150.2357
30
0.0
0
VERTEX
8
CUT_INNER
10
220.8382
20
148.7430
30
0.0
0
VERTEX
8
CUT_INNER
10
221.2860
20
148.2952
30
0.0
0
VERTEX
8
CUT_INNER
10
225.6147
20
148.2952
30
0.0
0
VERTEX
8
CUT_INNER
10
226.0625
20
148.7430
30
0.0
0
VERTEX
8
CUT_INNER
10
226.0625
20
164.1173
30
0.0
0
VERTEX
8
CUT_INNER
10
225.6147
20
164.5651
30
0.0
0
SEQEND
8
CUT_INNER
0
POLYLINE
8
CUT_INNER
66
1
70
1
0
VERTEX
8
CUT_INNER
10
212.6286
20
164.5651
30
0.0
0
VERTEX
8
CUT_INNER
10
211.8823
20
163.6695
30
0.0
0
VERTEX
8
CUT_INNER
10
213.3749
20
162.1769
30
0.0
0
VERTEX
8
CUT_INNER
10
213.3749
20
158.1467
30
0.0
0
VERTEX
8
CUT_INNER
10
211.8823
20
156.2063
30
0.0
0
VERTEX
8
CUT_INNER
10
213.3749
20
154.4151
30
0.0
0
VERTEX
8
CUT_INNER
10
213.3749
20
149.9371
30
0.0
0
VERTEX
8
CUT_INNER
10
214.7183
20
148.2952
30
0.0
0
VERTEX
8
CUT_INNER
10
216.6588
20
147.9967
30
0.0
0
VERTEX
8
CUT_INNER
10
219.1963
20
150.2357
30
0.0
0
VERTEX
8
CUT_INNER
10
218.7485
20
151.4298
30
0.0
0
VERTEX
8
CUT_INNER
10
218.0022
20
150.8327
30
0.0
0
VERTEX
8
CUT_INNER
10
217.4051
20
151.1312
30
0.0
0
VERTEX
8
CUT_INNER
10
217.4051
20
154.2658
30
0.0
0
VERTEX
8
CUT_INNER
10
215.0168
20
156.5048
30
0.0
0
VERTEX
8
CUT_INNER
10
217.1066
20
158.2960
30
0.0
0
VERTEX
8
CUT_INNER
10
217.7036
20
161.4306
30
0.0
0
VERTEX
8
CUT_INNER
10
216.0617
20
163.9681
30
0.0
0
SEQEND
8
CUT_INNER
0
POLYLINE
8
CUT_INNER
66
1
70
1
0
VERTEX
8
CUT_INNER
10
206.3595
20
164.5651
30
0.0
0
VERTEX
8
CUT_INNER
10
205.9117
20
163.6695
30
0.0
0
VERTEX
8
CUT_INNER
10
207.1058
20
162.9232
30
0.0
0
VERTEX
8
CUT_INNER
10
207.1058
20
150.2357
30
0.0
0
VERTEX
8
CUT_INNER
10
205.9117
20
149.4893
30
0.0
0
VERTEX
8
CUT_INNER
10
206.3595
20
148.2952
30
0.0
0
VERTEX
8
CUT_INNER
10
211.8823
20
148.2952
30
0.0
0
VERTEX
8
CUT_INNER
10
212.3301
20
149.4893
30
0.0
0
VERTEX
8
CUT_INNER
10
211.1359
20
150.2357
30
0.0
0
VERTEX
8
CUT_INNER
10
211.1359
20
164.1173
30
0.0
0
VERTEX
8
CUT_INNER
10
210.6881
20
164.5651
30
0.0
0
SEQEND
8
CUT_INNER
0
POLYLINE
8
CUT_INNER
66
1
70
1
0
VERTEX
8
CUT_INNER
10
198.5976
20
164.5651
30
0.0
0
VERTEX
8
CUT_INNER
10
198.1499
20
163.6695
30
0.0
0
VERTEX
8
CUT_INNER
10
200.8366
20
161.8784
30
0.0
0
VERTEX
8
CUT_INNER
10
202.0308
20
159.6394
30
0.0
0
VERTEX
8
CUT_INNER
10
202.4786
20
164.1173
30
0.0
0
SEQEND
8
CUT_INNER
0
POLYLINE
8
CUT_INNER
66
1
70
1
0
VERTEX
8
CUT_INNER
10
192.6270
20
164.5651
30
0.0
0
VERTEX
8
CUT_INNER
10
192.1792
20
163.6695
30
0.0
0
VERTEX
8
CUT_INNER
10
193.3734
20
162.7739
30
0.0
0
VERTEX
8
CUT_INNER
10
193.3734
20
150.3849
30
0.0
0
VERTEX
8
CUT_INNER
10
192.1792
20
149.4893
30
0.0
0
VERTEX
8
CUT_INNER
10
192.6270
20
148.2952
30
0.0
0
VERTEX
8
CUT_INNER
10
196.9557
20
148.2952
30
0.0
0
VERTEX
8
CUT_INNER
10
197.4035
20
148.7430
30
0.0
0
VERTEX
8
CUT_INNER
10
197.4035
20
164.1173
30
0.0
0
VERTEX
8
CUT_INNER
10
196.9557
20
164.5651
30
0.0
0
SEQEND
8
CUT_INNER
0
POLYLINE
8
CUT_INNER
66
1
70
1
0
VERTEX
8
CUT_INNER
10
183.3726
20
164.5651
30
0.0
0
VERTEX
8
CUT_INNER
10
182.9248
20
163.9681
30
0.0
0
VERTEX
8
CUT_INNER
10
184.1189
20
162.9232
30
0.0
0
VERTEX
8
CUT_INNER
10
184.1189
20
157.6989
30
0.0
0
VERTEX
8
CUT_INNER
10
182.4770
20
157.4004
30
0.0
0
VERTEX
8
CUT_INNER
10
182.0292
20
156.5048
30
0.0
0
VERTEX
8
CUT_INNER
10
184.1189
20
155.6092
30
0.0
0
VERTEX
8
CUT_INNER
10
184.1189
20
150.2357
30
0.0
0
VERTEX
8
CUT_INNER
10
182.9248
20
149.0415
30
0.0
0
VERTEX
8
CUT_INNER
10
183.6711
20
148.2952
30
0.0
0
VERTEX
8
CUT_INNER
10
188.8954
20
148.2952
30
0.0
0
VERTEX
8
CUT_INNER
10
189.3432
20
149.4893
30
0.0
0
VERTEX
8
CUT_INNER
10
188.1491
20
150.3849
30
0.0
0
VERTEX
8
CUT_INNER
10
188.1491
20
162.7739
30
0.0
0
VERTEX
8
CUT_INNER
10
189.3432
20
164.1173
30
0.0
0
VERTEX
8
CUT_INNER
10
188.8954
20
164.5651
30
0.0
0
SEQEND
8
CUT_INNER
0
POLYLINE
8
CUT_INNER
66
1
70
1
0
VERTEX
8
CUT_INNER
10
176.5064
20
164.5651
30
0.0
0
VERTEX
8
CUT_INNER
10
176.0586
20
163.6695
30
0.0
0
VERTEX
8
CUT_INNER
10
177.2527
20
162.7739
30
0.0
0
VERTEX
8
CUT_INNER
10
177.2527
20
150.3849
30
0.0
0
VERTEX
8
CUT_INNER
10
176.0586
20
149.4893
30
0.0
0
VERTEX
8
CUT_INNER
10
176.5064
20
148.2952
30
0.0
0
VERTEX
8
CUT_INNER
10
181.7307
20
148.2952
30
0.0
0
VERTEX
8
CUT_INNER
10
182.4770
20
149.1908
30
0.0
0
VERTEX
8
CUT_INNER
10
181.2829
20
150.2357
30
0.0
0
VERTEX
8
CUT_INNER
10
181.2829
20
162.9232
30
0.0
0
VERTEX
8
CUT_INNER
10
182.4770
20
164.1173
30
0.0
0
VERTEX
8
CUT_INNER
10
182.0292
20
164.5651
30
0.0
0
SEQEND
8
CUT_INNER
0
POLYLINE
8
CUT_INNER
66
1
70
1
0
VERTEX
8
CUT_INNER
10
173.0733
20
164.5651
30
0.0
0
VERTEX
8
CUT_INNER
10
169.1924
20
164.1173
30
0.0
0
VERTEX
8
CUT_INNER
10
170.6850
20
162.7739
30
0.0
0
VERTEX
8
CUT_INNER
10
169.7894
20
158.7438
30
0.0
0
VERTEX
8
CUT_INNER
10
170.3865
20
155.9077
30
0.0
0
VERTEX
8
CUT_INNER
10
172.0284
20
162.1769
30
0.0
0
VERTEX
8
CUT_INNER
10
173.5211
20
163.6695
30
0.0
0
SEQEND
8
CUT_INNER
0
POLYLINE
8
CUT_INNER
66
1
70
1
0
VERTEX
8
CUT_INNER
10
165.1622
20
164.5651
30
0.0
0
VERTEX
8
CUT_INNER
10
163.8188
20
160.5350
30
0.0
0
VERTEX
8
CUT_INNER
10
164.1173
20
156.5048
30
0.0
0
VERTEX
8
CUT_INNER
10
164.7144
20
155.9077
30
0.0
0
VERTEX
8
CUT_INNER
10
166.2071
20
148.7430
30
0.0
0
VERTEX
8
CUT_INNER
10
168.5953
20
148.2952
30
0.0
0
VERTEX
8
CUT_INNER
10
169.9387
20
153.3702
30
0.0
0
VERTEX
8
CUT_INNER
10
167.2519
20
164.1173
30
0.0
0
SEQEND
8
CUT_INNER
0
POLYLINE
8
CUT_INNER
66
1
70
1
0
VERTEX
8
CUT_INNER
10
156.5048
20
164.5651
30
0.0
0
VERTEX
8
CUT_INNER
10
156.0570
20
163.6695
30
0.0
0
VERTEX
8
CUT_INNER
10
157.2511
20
162.7739
30
0.0
0
VERTEX
8
CUT_INNER
10
160.2364
20
148.7430
30
0.0
0
VERTEX
8
CUT_INNER
10
162.3262
20
148.2952
30
0.0
0
VERTEX
8
CUT_INNER
10
163.6695
20
152.6239
30
0.0
0
VERTEX
8
CUT_INNER
10
161.5798
20
162.0276
30
0.0
0
VERTEX
8
CUT_INNER
10
162.4754
20
164.1173
30
0.0
0
VERTEX
8
CUT_INNER
10
162.0276
20
164.5651
30
0.0
0
SEQEND
8
CUT_INNER
0
POLYLINE
8
CUT_INNER
66
1
70
1
0
VERTEX
8
CUT_INNER
10
153.9673
20
164.5651
30
0.0
0
VERTEX
8
CUT_INNER
10
149.7879
20
164.1173
30
0.0
0
VERTEX
8
CUT_INNER
10
151.2805
20
162.7739
30
0.0
0
VERTEX
8
CUT_INNER
10
149.9371
20
158.8930
30
0.0
0
VERTEX
8
CUT_INNER
10
150.6834
20
157.4004
30
0.0
0
VERTEX
8
CUT_INNER
10
152.6239
20
162.1769
30
0.0
0
VERTEX
8
CUT_INNER
10
154.4151
20
163.9681
30
0.0
0
SEQEND
8
CUT_INNER
0
POLYLINE
8
CUT_INNER
66
1
70
1
0
VERTEX
8
CUT_INNER
10
142.1753
20
164.5651
30
0.0
0
VERTEX
8
CUT_INNER
10
141.7275
20
163.9681
30
0.0
0
VERTEX
8
CUT_INNER
10
143.2202
20
162.1769
30
0.0
0
VERTEX
8
CUT_INNER
10
145.9070
20
155.3107
30
0.0
0
VERTEX
8
CUT_INNER
10
145.9070
20
150.2357
30
0.0
0
VERTEX
8
CUT_INNER
10
144.7128
20
149.4893
30
0.0
0
VERTEX
8
CUT_INNER
10
145.1606
20
148.2952
30
0.0
0
VERTEX
8
CUT_INNER
10
150.9820
20
148.2952
30
0.0
0
VERTEX
8
CUT_INNER
10
151.4298
20
149.4893
30
0.0
0
VERTEX
8
CUT_INNER
10
150.2357
20
150.2357
30
0.0
0
VERTEX
8
CUT_INNER
10
150.2357
20
155.4599
30
0.0
0
VERTEX
8
CUT_INNER
10
147.5489
20
162.0276
30
0.0
0
VERTEX
8
CUT_INNER
10
147.5489
20
163.0725
30
0.0
0
VERTEX
8
CUT_INNER
10
148.4445
20
164.1173
30
0.0
0
VERTEX
8
CUT_INNER
10
147.9967
20
164.5651
30
0.0
0
SEQEND
8
CUT_INNER
0
POLYLINE
8
CUT_INNER
66
1
70
1
0
VERTEX
8
CUT_INNER
10
133.8165
20
164.5651
30
0.0
0
VERTEX
8
CUT_INNER
10
133.3687
20
163.6695
30
0.0
0
VERTEX
8
CUT_INNER
10
134.5628
20
162.4754
30
0.0
0
VERTEX
8
CUT_INNER
10
134.5628
20
158.1467
30
0.0
0
VERTEX
8
CUT_INNER
10
133.3687
20
156.9526
30
0.0
0
VERTEX
8
CUT_INNER
10
133.3687
20
155.9077
30
0.0
0
VERTEX
8
CUT_INNER
10
134.5628
20
154.7136
30
0.0
0
VERTEX
8
CUT_INNER
10
134.5628
20
150.2357
30
0.0
0
VERTEX
8
CUT_INNER
10
136.2047
20
148.2952
30
0.0
0
VERTEX
8
CUT_INNER
10
137.8466
20
147.9967
30
0.0
0
VERTEX
8
CUT_INNER
10
140.3841
20
150.2357
30
0.0
0
VERTEX
8
CUT_INNER
10
139.9363
20
151.4298
30
0.0
0
VERTEX
8
CUT_INNER
10
138.8915
20
151.1312
30
0.0
0
VERTEX
8
CUT_INNER
10
138.5929
20
154.5643
30
0.0
0
VERTEX
8
CUT_INNER
10
136.2047
20
156.5048
30
0.0
0
VERTEX
8
CUT_INNER
10
138.2944
20
157.9975
30
0.0
0
VERTEX
8
CUT_INNER
10
138.8915
20
161.7291
30
0.0
0
VERTEX
8
CUT_INNER
10
137.2496
20
163.9681
30
0.0
0
SEQEND
8
CUT_INNER
0
POLYLINE
8
CUT_INNER
66
1
70
1
0
VERTEX
8
CUT_INNER
10
127.5473
20
164.5651
30
0.0
0
VERTEX
8
CUT_INNER
10
127.0995
20
163.6695
30
0.0
0
VERTEX
8
CUT_INNER
10
128.2936
20
162.9232
30
0.0
0
VERTEX
8
CUT_INNER
10
128.2936
20
150.2357
30
0.0
0
VERTEX
8
CUT_INNER
10
127.0995
20
149.4893
30
0.0
0
VERTEX
8
CUT_INNER
10
127.5473
20
148.2952
30
0.0
0
VERTEX
8
CUT_INNER
10
133.0701
20
148.2952
30
0.0
0
VERTEX
8
CUT_INNER
10
133.8165
20
149.1908
30
0.0
0
VERTEX
8
CUT_INNER
10
132.6223
20
150.2357
30
0.0
0
VERTEX
8
CUT_INNER
10
132.6223
20
163.8188
30
0.0
0
VERTEX
8
CUT_INNER
10
131.8760
20
164.5651
30
0.0
0
SEQEND
8
CUT_INNER
0
POLYLINE
8
CUT_INNER
66
1
70
1
0
VERTEX
8
CUT_INNER
10
119.7855
20
164.5651
30
0.0
0
VERTEX
8
CUT_INNER
10
119.3377
20
163.6695
30
0.0
0
VERTEX
8
CUT_INNER
10
121.7260
20
162.1769
30
0.0
0
VERTEX
8
CUT_INNER
10
123.0693
20
159.7886
30
0.0
0
VERTEX
8
CUT_INNER
10
123.6664
20
160.3857
30
0.0
0
VERTEX
8
CUT_INNER
10
123.6664
20
164.1173
30
0.0
0
SEQEND
8
CUT_INNER
0
POLYLINE
8
CUT_INNER
66
1
70
1
0
VERTEX
8
CUT_INNER
10
113.8149
20
164.5651
30
0.0
0
VERTEX
8
CUT_INNER
10
113.2178
20
163.8188
30
0.0
0
VERTEX
8
CUT_INNER
10
114.2627
20
162.9232
30
0.0
0
VERTEX
8
CUT_INNER
10
114.2627
20
150.2357
30
0.0
0
VERTEX
8
CUT_INNER
10
113.0686
20
149.0415
30
0.0
0
VERTEX
8
CUT_INNER
10
113.8149
20
148.2952
30
0.0
0
VERTEX
8
CUT_INNER
10
118.1436
20
148.2952
30
0.0
0
VERTEX
8
CUT_INNER
10
118.5914
20
148.7430
30
0.0
0
VERTEX
8
CUT_INNER
10
118.5914
20
164.1173
30
0.0
0
VERTEX
8
CUT_INNER
10
118.1436
20
164.5651
30
0.0
0
SEQEND
8
CUT_INNER
0
POLYLINE
8
CUT_INNER
66
1
70
1
0
VERTEX
8
CUT_INNER
10
110.0833
20
164.5651
30
0.0
0
VERTEX
8
CUT_INNER
10
106.2024
20
164.1173
30
0.0
0
VERTEX
8
CUT_INNER
10
107.3965
20
162.7739
30
0.0
0
VERTEX
8
CUT_INNER
10
106.2024
20
157.2511
30
0.0
0
VERTEX
8
CUT_INNER
10
106.7994
20
154.4151
30
0.0
0
VERTEX
8
CUT_INNER
10
108.7399
20
161.5798
30
0.0
0
VERTEX
8
CUT_INNER
10
110.5310
20
163.6695
30
0.0
0
SEQEND
8
CUT_INNER
0
POLYLINE
8
CUT_INNER
66
1
70
1
0
VERTEX
8
CUT_INNER
10
98.2913
20
164.5651
30
0.0
0
VERTEX
8
CUT_INNER
10
97.8435
20
163.9681
30
0.0
0
VERTEX
8
CUT_INNER
10
99.3361
20
162.1769
30
0.0
0
VERTEX
8
CUT_INNER
10
102.3214
20
149.3401
30
0.0
0
VERTEX
8
CUT_INNER
10
103.0678
20
148.2952
30
0.0
0
VERTEX
8
CUT_INNER
10
105.0082
20
148.2952
30
0.0
0
VERTEX
8
CUT_INNER
10
106.3516
20
151.8776
30
0.0
0
VERTEX
8
CUT_INNER
10
103.6648
20
161.4306
30
0.0
0
VERTEX
8
CUT_INNER
10
103.6648
20
162.9232
30
0.0
0
VERTEX
8
CUT_INNER
10
104.5604
20
164.1173
30
0.0
0
VERTEX
8
CUT_INNER
10
104.1126
20
164.5651
30
0.0
0
SEQEND
8
CUT_INNER
0
POLYLINE
8
CUT_INNER
66
1
70
1
0
VERTEX
8
CUT_INNER
10
91.1265
20
164.5651
30
0.0
0
VERTEX
8
CUT_INNER
10
90.6787
20
163.6695
30
0.0
0
VERTEX
8
CUT_INNER
10
93.0670
20
162.1769
30
0.0
0
VERTEX
8
CUT_INNER
10
94.4104
20
159.7886
30
0.0
0
VERTEX
8
CUT_INNER
10
95.0074
20
160.3857
30
0.0
0
VERTEX
8
CUT_INNER
10
95.0074
20
164.1173
30
0.0
0
SEQEND
8
CUT_INNER
0
POLYLINE
8
CUT_INNER
66
1
70
1
0
VERTEX
8
CUT_INNER
10
84.8574
20
164.5651
30
0.0
0
VERTEX
8
CUT_INNER
10
84.4096
20
163.9681
30
0.0
0
VERTEX
8
CUT_INNER
10
85.6037
20
162.9232
30
0.0
0
VERTEX
8
CUT_INNER
10
85.6037
20
150.2357
30
0.0
0
VERTEX
8
CUT_INNER
10
84.4096
20
149.0415
30
0.0
0
VERTEX
8
CUT_INNER
10
85.1559
20
148.2952
30
0.0
0
VERTEX
8
CUT_INNER
10
89.4846
20
148.2952
30
0.0
0
VERTEX
8
CUT_INNER
10
89.9324
20
148.7430
30
0.0
0
VERTEX
8
CUT_INNER
10
89.9324
20
164.1173
30
0.0
0
VERTEX
8
CUT_INNER
10
89.4846
20
164.5651
30
0.0
0
SEQEND
8
CUT_INNER
0
POLYLINE
8
CUT_INNER
66
1
70
1
0
VERTEX
8
CUT_INNER
10
293.3812
20
170.3865
30
0.0
0
VERTEX
8
CUT_INNER
10
291.5900
20
166.5056
30
0.0
0
VERTEX
8
CUT_INNER
10
291.5900
20
161.5798
30
0.0
0
VERTEX
8
CUT_INNER
10
293.0827
20
157.4004
30
0.0
0
VERTEX
8
CUT_INNER
10
293.9783
20
156.9526
30
0.0
0
VERTEX
8
CUT_INNER
10
294.5753
20
157.5497
30
0.0
0
SEQEND
8
CUT_INNER
0
POLYLINE
8
CUT_INNER
66
1
70
1
0
VERTEX
8
CUT_INNER
10
12.1651
20
170.8343
30
0.0
0
VERTEX
8
CUT_INNER
10
11.1203
20
169.9387
30
0.0
0
VERTEX
8
CUT_INNER
10
10.3739
20
157.8482
30
0.0
0
VERTEX
8
CUT_INNER
10
12.3144
20
160.3857
30
0.0
0
VERTEX
8
CUT_INNER
10
13.2100
20
163.3710
30
0.0
0
VERTEX
8
CUT_INNER
10
13.2100
20
168.8938
30
0.0
0
SEQEND
8
CUT_INNER
0
POLYLINE
8
CUT_INNER
66
1
70
1
0
VERTEX
8
CUT_INNER
10
250.5420
20
172.6255
30
0.0
0
VERTEX
8
CUT_INNER
10
247.7060
20
170.3865
30
0.0
0
VERTEX
8
CUT_INNER
10
246.5119
20
168.2968
30
0.0
0
VERTEX
8
CUT_INNER
10
246.5119
20
166.6548
30
0.0
0
VERTEX
8
CUT_INNER
10
249.9450
20
163.8188
30
0.0
0
VERTEX
8
CUT_INNER
10
249.1986
20
162.6247
30
0.0
0
VERTEX
8
CUT_INNER
10
249.6464
20
161.7291
30
0.0
0
VERTEX
8
CUT_INNER
10
255.7663
20
161.4306
30
0.0
0
VERTEX
8
CUT_INNER
10
256.8112
20
162.1769
30
0.0
0
VERTEX
8
CUT_INNER
10
255.9156
20
163.9681
30
0.0
0
VERTEX
8
CUT_INNER
10
259.1994
20
166.9534
30
0.0
0
VERTEX
8
CUT_INNER
10
259.1994
20
168.5953
30
0.0
0
VERTEX
8
CUT_INNER
10
255.7663
20
172.3269
30
0.0
0
VERTEX
8
CUT_INNER
10
253.0795
20
173.2225
30
0.0
0
SEQEND
8
CUT_INNER
0
POLYLINE
8
CUT_INNER
66
1
70
1
0
VERTEX
8
CUT_INNER
10
213.9720
20
175.6108
30
0.0
0
VERTEX
8
CUT_INNER
10
213.0764
20
175.1630
30
0.0
0
VERTEX
8
CUT_INNER
10
212.4793
20
173.3718
30
0.0
0
VERTEX
8
CUT_INNER
10
210.0911
20
171.5806
30
0.0
0
VERTEX
8
CUT_INNER
10
210.5389
20
170.6850
30
0.0
0
VERTEX
8
CUT_INNER
10
214.4198
20
171.1328
30
0.0
0
SEQEND
8
CUT_INNER
0
POLYLINE
8
CUT_INNER
66
1
70
1
0
VERTEX
8
CUT_INNER
10
146.3548
20
175.7600
30
0.0
0
VERTEX
8
CUT_INNER
10
145.0114
20
173.3718
30
0.0
0
VERTEX
8
CUT_INNER
10
142.3246
20
171.5806
30
0.0
0
VERTEX
8
CUT_INNER
10
142.7724
20
170.6850
30
0.0
0
VERTEX
8
CUT_INNER
10
146.9518
20
171.1328
30
0.0
0
VERTEX
8
CUT_INNER
10
146.9518
20
175.1630
30
0.0
0
SEQEND
8
CUT_INNER
0
POLYLINE
8
CUT_INNER
66
1
70
1
0
VERTEX
8
CUT_INNER
10
226.8088
20
175.9093
30
0.0
0
VERTEX
8
CUT_INNER
10
225.6147
20
173.6703
30
0.0
0
VERTEX
8
CUT_INNER
10
222.9279
20
171.5806
30
0.0
0
VERTEX
8
CUT_INNER
10
223.3757
20
170.6850
30
0.0
0
VERTEX
8
CUT_INNER
10
227.2566
20
171.1328
30
0.0
0
VERTEX
8
CUT_INNER
10
227.2566
20
175.4615
30
0.0
0
SEQEND
8
CUT_INNER
0
POLYLINE
8
CUT_INNER
66
1
70
1
0
VERTEX
8
CUT_INNER
10
150.9820
20
181.7307
30
0.0
0
VERTEX
8
CUT_INNER
10
150.6834
20
173.3718
30
0.0
0
VERTEX
8
CUT_INNER
10
149.1908
20
171.1328
30
0.0
0
VERTEX
8
CUT_INNER
10
152.7732
20
170.6850
30
0.0
0
VERTEX
8
CUT_INNER
10
153.2210
20
171.5806
30
0.0
0
VERTEX
8
CUT_INNER
10
152.0268
20
172.7747
30
0.0
0
VERTEX
8
CUT_INNER
10
152.0268
20
179.9395
30
0.0
0
SEQEND
8
CUT_INNER
0
POLYLINE
8
CUT_INNER
66
1
70
1
0
VERTEX
8
CUT_INNER
10
231.2868
20
182.0292
30
0.0
0
VERTEX
8
CUT_INNER
10
230.9882
20
172.7747
30
0.0
0
VERTEX
8
CUT_INNER
10
229.6449
20
171.2821
30
0.0
0
VERTEX
8
CUT_INNER
10
230.2419
20
170.6850
30
0.0
0
VERTEX
8
CUT_INNER
10
233.3765
20
170.6850
30
0.0
0
VERTEX
8
CUT_INNER
10
233.8243
20
171.5806
30
0.0
0
VERTEX
8
CUT_INNER
10
232.3316
20
173.0733
30
0.0
0
VERTEX
8
CUT_INNER
10
232.3316
20
180.5365
30
0.0
0
SEQEND
8
CUT_INNER
0
POLYLINE
8
CUT_INNER
66
1
70
1
0
VERTEX
8
CUT_INNER
10
225.0176
20
182.1785
30
0.0
0
VERTEX
8
CUT_INNER
10
224.1220
20
181.7307
30
0.0
0
VERTEX
8
CUT_INNER
10
222.9279
20
179.3424
30
0.0
0
VERTEX
8
CUT_INNER
10
222.9279
20
178.2976
30
0.0
0
VERTEX
8
CUT_INNER
10
224.5698
20
175.7600
30
0.0
0
VERTEX
8
CUT_INNER
10
225.1669
20
176.2078
30
0.0
0
VERTEX
8
CUT_INNER
10
225.4654
20
181.7307
30
0.0
0
SEQEND
8
CUT_INNER
0
POLYLINE
8
CUT_INNER
66
1
70
1
0
VERTEX
8
CUT_INNER
10
211.7330
20
182.1785
30
0.0
0
VERTEX
8
CUT_INNER
10
210.0911
20
179.3424
30
0.0
0
VERTEX
8
CUT_INNER
10
210.0911
20
178.2976
30
0.0
0
VERTEX
8
CUT_INNER
10
211.8823
20
175.7600
30
0.0
0
VERTEX
8
CUT_INNER
10
212.3301
20
176.2078
30
0.0
0
VERTEX
8
CUT_INNER
10
212.3301
20
181.7307
30
0.0
0
SEQEND
8
CUT_INNER
0
POLYLINE
8
CUT_INNER
66
1
70
1
0
VERTEX
8
CUT_INNER
10
144.2650
20
182.1785
30
0.0
0
VERTEX
8
CUT_INNER
10
142.6231
20
179.3424
30
0.0
0
VERTEX
8
CUT_INNER
10
142.6231
20
178.2976
30
0.0
0
VERTEX
8
CUT_INNER
10
144.4143
20
175.7600
30
0.0
0
VERTEX
8
CUT_INNER
10
144.8621
20
176.2078
30
0.0
0
VERTEX
8
CUT_INNER
10
144.8621
20
181.7307
30
0.0
0
SEQEND
8
CUT_INNER
0
POLYLINE
8
CUT_INNER
66
1
70
1
0
VERTEX
8
CUT_INNER
10
113.8149
20
182.9248
30
0.0
0
VERTEX
8
CUT_INNER
10
113.0686
20
181.7307
30
0.0
0
VERTEX
8
CUT_INNER
10
111.2774
20
173.0733
30
0.0
0
VERTEX
8
CUT_INNER
10
109.7847
20
171.5806
30
0.0
0
VERTEX
8
CUT_INNER
10
110.2325
20
170.6850
30
0.0
0
VERTEX
8
CUT_INNER
10
114.1134
20
171.1328
30
0.0
0
VERTEX
8
CUT_INNER
10
112.6208
20
172.7747
30
0.0
0
VERTEX
8
CUT_INNER
10
114.4119
20
180.6858
30
0.0
0
SEQEND
8
CUT_INNER
0
POLYLINE
8
CUT_INNER
66
1
70
1
0
VERTEX
8
CUT_INNER
10
238.3023
20
186.9549
30
0.0
0
VERTEX
8
CUT_INNER
10
237.8545
20
186.0594
30
0.0
0
VERTEX
8
CUT_INNER
10
239.3471
20
184.2682
30
0.0
0
VERTEX
8
CUT_INNER
10
239.3471
20
179.4917
30
0.0
0
VERTEX
8
CUT_INNER
10
240.3920
20
177.9990
30
0.0
0
VERTEX
8
CUT_INNER
10
240.6905
20
184.5667
30
0.0
0
VERTEX
8
CUT_INNER
10
242.1832
20
186.5071
30
0.0
0
SEQEND
8
CUT_INNER
0
POLYLINE
8
CUT_INNER
66
1
70
1
0
VERTEX
8
CUT_INNER
10
230.2419
20
186.9549
30
0.0
0
VERTEX
8
CUT_INNER
10
229.7941
20
186.0594
30
0.0
0
VERTEX
8
CUT_INNER
10
230.9882
20
185.1638
30
0.0
0
VERTEX
8
CUT_INNER
10
237.5559
20
171.1328
30
0.0
0
VERTEX
8
CUT_INNER
10
240.2427
20
170.6850
30
0.0
0
VERTEX
8
CUT_INNER
10
240.6905
20
175.1630
30
0.0
0
VERTEX
8
CUT_INNER
10
234.8691
20
186.9549
30
0.0
0
SEQEND
8
CUT_INNER
0
POLYLINE
8
CUT_INNER
66
1
70
1
0
VERTEX
8
CUT_INNER
10
223.3757
20
186.9549
30
0.0
0
VERTEX
8
CUT_INNER
10
222.9279
20
185.7608
30
0.0
0
VERTEX
8
CUT_INNER
10
224.5698
20
185.0145
30
0.0
0
VERTEX
8
CUT_INNER
10
225.9132
20
182.4770
30
0.0
0
VERTEX
8
CUT_INNER
10
226.8088
20
182.0292
30
0.0
0
VERTEX
8
CUT_INNER
10
227.2566
20
186.5071
30
0.0
0
SEQEND
8
CUT_INNER
0
POLYLINE
8
CUT_INNER
66
1
70
1
0
VERTEX
8
CUT_INNER
10
217.4051
20
186.9549
30
0.0
0
VERTEX
8
CUT_INNER
10
216.9573
20
186.0594
30
0.0
0
VERTEX
8
CUT_INNER
10
218.1514
20
185.1638
30
0.0
0
VERTEX
8
CUT_INNER
10
218.1514
20
172.4762
30
0.0
0
VERTEX
8
CUT_INNER
10
216.9573
20
171.1328
30
0.0
0
VERTEX
8
CUT_INNER
10
217.4051
20
170.6850
30
0.0
0
VERTEX
8
CUT_INNER
10
221.7338
20
170.6850
30
0.0
0
VERTEX
8
CUT_INNER
10
222.1816
20
171.1328
30
0.0
0
VERTEX
8
CUT_INNER
10
222.1816
20
186.5071
30
0.0
0
VERTEX
8
CUT_INNER
10
221.7338
20
186.9549
30
0.0
0
SEQEND
8
CUT_INNER
0
POLYLINE
8
CUT_INNER
66
1
70
1
0
VERTEX
8
CUT_INNER
10
210.5389
20
186.9549
30
0.0
0
VERTEX
8
CUT_INNER
10
210.0911
20
185.7608
30
0.0
0
VERTEX
8
CUT_INNER
10
212.1808
20
184.4174
30
0.0
0
VERTEX
8
CUT_INNER
10
213.6735
20
182.0292
30
0.0
0
VERTEX
8
CUT_INNER
10
214.1213
20
186.5071
30
0.0
0
SEQEND
8
CUT_INNER
0
POLYLINE
8
CUT_INNER
66
1
70
1
0
VERTEX
8
CUT_INNER
10
204.5683
20
186.9549
30
0.0
0
VERTEX
8
CUT_INNER
10
204.1205
20
186.0594
30
0.0
0
VERTEX
8
CUT_INNER
10
205.0161
20
185.1638
30
0.0
0
VERTEX
8
CUT_INNER
10
205.0161
20
172.3269
30
0.0
0
VERTEX
8
CUT_INNER
10
204.1205
20
171.1328
30
0.0
0
VERTEX
8
CUT_INNER
10
208.5984
20
170.6850
30
0.0
0
VERTEX
8
CUT_INNER
10
209.0462
20
171.1328
30
0.0
0
VERTEX
8
CUT_INNER
10
209.0462
20
186.5071
30
0.0
0
SEQEND
8
CUT_INNER
0
POLYLINE
8
CUT_INNER
66
1
70
1
0
VERTEX
8
CUT_INNER
10
195.9109
20
186.9549
30
0.0
0
VERTEX
8
CUT_INNER
10
195.4631
20
185.7608
30
0.0
0
VERTEX
8
CUT_INNER
10
197.2543
20
184.2682
30
0.0
0
VERTEX
8
CUT_INNER
10
197.2543
20
181.1336
30
0.0
0
VERTEX
8
CUT_INNER
10
195.4631
20
178.8946
30
0.0
0
VERTEX
8
CUT_INNER
10
197.2543
20
177.1034
30
0.0
0
VERTEX
8
CUT_INNER
10
197.2543
20
173.0733
30
0.0
0
VERTEX
8
CUT_INNER
10
195.4631
20
171.1328
30
0.0
0
VERTEX
8
CUT_INNER
10
198.7469
20
170.6850
30
0.0
0
VERTEX
8
CUT_INNER
10
199.9410
20
171.2821
30
0.0
0
VERTEX
8
CUT_INNER
10
201.5830
20
173.5211
30
0.0
0
VERTEX
8
CUT_INNER
10
201.2844
20
176.9542
30
0.0
0
VERTEX
8
CUT_INNER
10
198.5976
20
179.0439
30
0.0
0
VERTEX
8
CUT_INNER
10
200.9859
20
180.9843
30
0.0
0
VERTEX
8
CUT_INNER
10
201.2844
20
184.1189
30
0.0
0
VERTEX
8
CUT_INNER
10
199.9410
20
186.0594
30
0.0
0
VERTEX
8
CUT_INNER
10
197.8513
20
186.9549
30
0.0
0
SEQEND
8
CUT_INNER
0
POLYLINE
8
CUT_INNER
66
1
70
1
0
VERTEX
8
CUT_INNER
10
189.9403
20
186.9549
30
0.0
0
VERTEX
8
CUT_INNER
10
189.4925
20
186.0594
30
0.0
0
VERTEX
8
CUT_INNER
10
190.6866
20
185.1638
30
0.0
0
VERTEX
8
CUT_INNER
10
190.6866
20
172.4762
30
0.0
0
VERTEX
8
CUT_INNER
10
189.4925
20
171.1328
30
0.0
0
VERTEX
8
CUT_INNER
10
189.9403
20
170.6850
30
0.0
0
VERTEX
8
CUT_INNER
10
194.2690
20
170.6850
30
0.0
0
VERTEX
8
CUT_INNER
10
194.7167
20
171.1328
30
0.0
0
VERTEX
8
CUT_INNER
10
194.7167
20
186.5071
30
0.0
0
VERTEX
8
CUT_INNER
10
194.2690
20
186.9549
30
0.0
0
SEQEND
8
CUT_INNER
0
POLYLINE
8
CUT_INNER
66
1
70
1
0
VERTEX
8
CUT_INNER
10
178.8946
20
186.9549
30
0.0
0
VERTEX
8
CUT_INNER
10
178.4468
20
185.4623
30
0.0
0
VERTEX
8
CUT_INNER
10
179.3424
20
184.2682
30
0.0
0
VERTEX
8
CUT_INNER
10
179.6409
20
181.8799
30
0.0
0
VERTEX
8
CUT_INNER
10
180.5365
20
181.1336
30
0.0
0
VERTEX
8
CUT_INNER
10
180.9843
20
181.5814
30
0.0
0
VERTEX
8
CUT_INNER
10
180.9843
20
186.5071
30
0.0
0
SEQEND
8
CUT_INNER
0
POLYLINE
8
CUT_INNER
66
1
70
1
0
VERTEX
8
CUT_INNER
10
174.1181
20
186.9549
30
0.0
0
VERTEX
8
CUT_INNER
10
173.6703
20
186.5071
30
0.0
0
VERTEX
8
CUT_INNER
10
173.3718
20
172.3269
30
0.0
0
VERTEX
8
CUT_INNER
10
172.1777
20
171.1328
30
0.0
0
VERTEX
8
CUT_INNER
10
172.6255
20
170.6850
30
0.0
0
VERTEX
8
CUT_INNER
10
178.4468
20
170.6850
30
0.0
0
VERTEX
8
CUT_INNER
10
178.8946
20
171.5806
30
0.0
0
VERTEX
8
CUT_INNER
10
177.7005
20
172.3269
30
0.0
0
VERTEX
8
CUT_INNER
10
177.7005
20
186.5071
30
0.0
0
SEQEND
8
CUT_INNER
0
POLYLINE
8
CUT_INNER
66
1
70
1
0
VERTEX
8
CUT_INNER
10
172.4762
20
186.9549
30
0.0
0
VERTEX
8
CUT_INNER
10
170.0880
20
186.5071
30
0.0
0
VERTEX
8
CUT_INNER
10
170.0880
20
181.5814
30
0.0
0
VERTEX
8
CUT_INNER
10
170.5357
20
181.1336
30
0.0
0
VERTEX
8
CUT_INNER
10
171.4313
20
181.5814
30
0.0
0
VERTEX
8
CUT_INNER
10
171.7299
20
183.9696
30
0.0
0
VERTEX
8
CUT_INNER
10
172.9240
20
185.4623
30
0.0
0
SEQEND
8
CUT_INNER
0
POLYLINE
8
CUT_INNER
66
1
70
1
0
VERTEX
8
CUT_INNER
10
157.6989
20
186.9549
30
0.0
0
VERTEX
8
CUT_INNER
10
157.2511
20
186.0594
30
0.0
0
VERTEX
8
CUT_INNER
10
158.7438
20
184.8652
30
0.0
0
VERTEX
8
CUT_INNER
10
158.7438
20
180.0887
30
0.0
0
VERTEX
8
CUT_INNER
10
160.0872
20
177.7005
30
0.0
0
VERTEX
8
CUT_INNER
10
160.3857
20
184.8652
30
0.0
0
VERTEX
8
CUT_INNER
10
161.8784
20
186.5071
30
0.0
0
SEQEND
8
CUT_INNER
0
POLYLINE
8
CUT_INNER
66
1
70
1
0
VERTEX
8
CUT_INNER
10
149.9371
20
186.9549
30
0.0
0
VERTEX
8
CUT_INNER
10
149.4893
20
186.0594
30
0.0
0
VERTEX
8
CUT_INNER
10
150.6834
20
184.8652
30
0.0
0
VERTEX
8
CUT_INNER
10
156.9526
20
171.4313
30
0.0
0
VERTEX
8
CUT_INNER
10
157.6989
20
170.6850
30
0.0
0
VERTEX
8
CUT_INNER
10
159.6394
20
170.6850
30
0.0
0
VERTEX
8
CUT_INNER
10
160.0872
20
175.1630
30
0.0
0
VERTEX
8
CUT_INNER
10
155.0121
20
186.2086
30
0.0
0
VERTEX
8
CUT_INNER
10
154.2658
20
186.9549
30
0.0
0
SEQEND
8
CUT_INNER
0
POLYLINE
8
CUT_INNER
66
1
70
1
0
VERTEX
8
CUT_INNER
10
143.0709
20
186.9549
30
0.0
0
VERTEX
8
CUT_INNER
10
142.6231
20
185.7608
30
0.0
0
VERTEX
8
CUT_INNER
10
144.7128
20
184.5667
30
0.0
0
VERTEX
8
CUT_INNER
10
146.2055
20
182.0292
30
0.0
0
VERTEX
8
CUT_INNER
10
146.6533
20
186.5071
30
0.0
0
SEQEND
8
CUT_INNER
0
POLYLINE
8
CUT_INNER
66
1
70
1
0
VERTEX
8
CUT_INNER
10
137.1003
20
186.9549
30
0.0
0
VERTEX
8
CUT_INNER
10
136.6525
20
186.0594
30
0.0
0
VERTEX
8
CUT_INNER
10
137.5481
20
185.3130
30
0.0
0
VERTEX
8
CUT_INNER
10
137.5481
20
172.3269
30
0.0
0
VERTEX
8
CUT_INNER
10
136.3540
20
171.1328
30
0.0
0
VERTEX
8
CUT_INNER
10
136.8018
20
170.6850
30
0.0
0
VERTEX
8
CUT_INNER
10
141.1305
20
170.6850
30
0.0
0
VERTEX
8
CUT_INNER
10
141.5783
20
171.1328
30
0.0
0
VERTEX
8
CUT_INNER
10
141.5783
20
186.5071
30
0.0
0
SEQEND
8
CUT_INNER
0
POLYLINE
8
CUT_INNER
66
1
70
1
0
VERTEX
8
CUT_INNER
10
133.9657
20
186.9549
30
0.0
0
VERTEX
8
CUT_INNER
10
130.8311
20
186.9549
30
0.0
0
VERTEX
8
CUT_INNER
10
130.0848
20
186.2086
30
0.0
0
VERTEX
8
CUT_INNER
10
131.5775
20
184.5667
30
0.0
0
VERTEX
8
CUT_INNER
10
130.0848
20
178.7453
30
0.0
0
VERTEX
8
CUT_INNER
10
130.6819
20
176.8049
30
0.0
0
VERTEX
8
CUT_INNER
10
131.4282
20
177.7005
30
0.0
0
VERTEX
8
CUT_INNER
10
132.9209
20
184.5667
30
0.0
0
VERTEX
8
CUT_INNER
10
134.4135
20
186.0594
30
0.0
0
SEQEND
8
CUT_INNER
0
POLYLINE
8
CUT_INNER
66
1
70
1
0
VERTEX
8
CUT_INNER
10
122.7708
20
186.9549
30
0.0
0
VERTEX
8
CUT_INNER
10
122.3230
20
186.0594
30
0.0
0
VERTEX
8
CUT_INNER
10
123.5171
20
184.5667
30
0.0
0
VERTEX
8
CUT_INNER
10
126.5024
20
171.4313
30
0.0
0
VERTEX
8
CUT_INNER
10
127.2488
20
170.6850
30
0.0
0
VERTEX
8
CUT_INNER
10
129.1892
20
170.6850
30
0.0
0
VERTEX
8
CUT_INNER
10
130.2341
20
174.5659
30
0.0
0
VERTEX
8
CUT_INNER
10
127.5473
20
184.7160
30
0.0
0
VERTEX
8
CUT_INNER
10
128.7414
20
186.5071
30
0.0
0
VERTEX
8
CUT_INNER
10
128.2936
20
186.9549
30
0.0
0
SEQEND
8
CUT_INNER
0
POLYLINE
8
CUT_INNER
66
1
70
1
0
VERTEX
8
CUT_INNER
10
115.0090
20
186.9549
30
0.0
0
VERTEX
8
CUT_INNER
10
114.2627
20
185.4623
30
0.0
0
VERTEX
8
CUT_INNER
10
116.0539
20
176.5064
30
0.0
0
VERTEX
8
CUT_INNER
10
114.4119
20
176.2078
30
0.0
0
VERTEX
8
CUT_INNER
10
113.9642
20
175.3122
30
0.0
0
VERTEX
8
CUT_INNER
10
116.6509
20
174.5659
30
0.0
0
VERTEX
8
CUT_INNER
10
116.9495
20
172.3269
30
0.0
0
VERTEX
8
CUT_INNER
10
116.0539
20
171.5806
30
0.0
0
VERTEX
8
CUT_INNER
10
116.5017
20
170.6850
30
0.0
0
VERTEX
8
CUT_INNER
10
122.0245
20
170.6850
30
0.0
0
VERTEX
8
CUT_INNER
10
122.4723
20
171.5806
30
0.0
0
VERTEX
8
CUT_INNER
10
121.2782
20
172.4762
30
0.0
0
VERTEX
8
CUT_INNER
10
118.5914
20
185.9101
30
0.0
0
VERTEX
8
CUT_INNER
10
117.8451
20
186.9549
30
0.0
0
SEQEND
8
CUT_INNER
0
POLYLINE
8
CUT_INNER
66
1
70
1
0
VERTEX
8
CUT_INNER
10
102.1722
20
186.9549
30
0.0
0
VERTEX
8
CUT_INNER
10
101.7244
20
186.0594
30
0.0
0
VERTEX
8
CUT_INNER
10
102.6200
20
185.1638
30
0.0
0
VERTEX
8
CUT_INNER
10
102.6200
20
179.9395
30
0.0
0
VERTEX
8
CUT_INNER
10
100.8288
20
179.3424
30
0.0
0
VERTEX
8
CUT_INNER
10
101.2766
20
178.1483
30
0.0
0
VERTEX
8
CUT_INNER
10
102.6200
20
177.8498
30
0.0
0
VERTEX
8
CUT_INNER
10
102.6200
20
172.3269
30
0.0
0
VERTEX
8
CUT_INNER
10
101.5751
20
171.2821
30
0.0
0
VERTEX
8
CUT_INNER
10
102.1722
20
170.6850
30
0.0
0
VERTEX
8
CUT_INNER
10
107.3965
20
170.6850
30
0.0
0
VERTEX
8
CUT_INNER
10
107.8443
20
171.5806
30
0.0
0
VERTEX
8
CUT_INNER
10
106.6501
20
172.4762
30
0.0
0
VERTEX
8
CUT_INNER
10
106.6501
20
185.1638
30
0.0
0
VERTEX
8
CUT_INNER
10
107.8443
20
186.5071
30
0.0
0
VERTEX
8
CUT_INNER
10
107.3965
20
186.9549
30
0.0
0
SEQEND
8
CUT_INNER
0
POLYLINE
8
CUT_INNER
66
1
70
1
0
VERTEX
8
CUT_INNER
10
95.3060
20
186.9549
30
0.0
0
VERTEX
8
CUT_INNER
10
94.7089
20
186.2086
30
0.0
0
VERTEX
8
CUT_INNER
10
95.7538
20
185.1638
30
0.0
0
VERTEX
8
CUT_INNER
10
95.7538
20
172.3269
30
0.0
0
VERTEX
8
CUT_INNER
10
94.5596
20
171.1328
30
0.0
0
VERTEX
8
CUT_INNER
10
95.0074
20
170.6850
30
0.0
0
VERTEX
8
CUT_INNER
10
100.5303
20
170.6850
30
0.0
0
VERTEX
8
CUT_INNER
10
100.9781
20
171.5806
30
0.0
0
VERTEX
8
CUT_INNER
10
99.7839
20
173.0733
30
0.0
0
VERTEX
8
CUT_INNER
10
100.0825
20
185.1638
30
0.0
0
VERTEX
8
CUT_INNER
10
100.9781
20
186.5071
30
0.0
0
VERTEX
8
CUT_INNER
10
100.5303
20
186.9549
30
0.0
0
SEQEND
8
CUT_INNER
0
POLYLINE
8
CUT_INNER
66
1
70
1
0
VERTEX
8
CUT_INNER
10
80.3794
20
186.9549
30
0.0
0
VERTEX
8
CUT_INNER
10
79.9316
20
186.0594
30
0.0
0
VERTEX
8
CUT_INNER
10
81.1258
20
185.1638
30
0.0
0
VERTEX
8
CUT_INNER
10
81.1258
20
172.3269
30
0.0
0
VERTEX
8
CUT_INNER
10
79.9316
20
171.1328
30
0.0
0
VERTEX
8
CUT_INNER
10
80.3794
20
170.6850
30
0.0
0
VERTEX
8
CUT_INNER
10
85.9023
20
170.6850
30
0.0
0
VERTEX
8
CUT_INNER
10
86.3500
20
171.5806
30
0.0
0
VERTEX
8
CUT_INNER
10
85.1559
20
172.4762
30
0.0
0
VERTEX
8
CUT_INNER
10
85.1559
20
185.1638
30
0.0
0
VERTEX
8
CUT_INNER
10
86.3500
20
186.5071
30
0.0
0
VERTEX
8
CUT_INNER
10
85.9023
20
186.9549
30
0.0
0
SEQEND
8
CUT_INNER
0
POLYLINE
8
CUT_INNER
66
1
70
1
0
VERTEX
8
CUT_INNER
10
15.2997
20
187.1042
30
0.0
0
VERTEX
8
CUT_INNER
10
14.1056
20
186.2086
30
0.0
0
VERTEX
8
CUT_INNER
10
12.0159
20
174.4167
30
0.0
0
VERTEX
8
CUT_INNER
10
14.1056
20
176.5064
30
0.0
0
VERTEX
8
CUT_INNER
10
15.5982
20
179.4917
30
0.0
0
VERTEX
8
CUT_INNER
10
16.1953
20
185.6116
30
0.0
0
SEQEND
8
CUT_INNER
0
POLYLINE
8
CUT_INNER
66
1
70
1
0
VERTEX
8
CUT_INNER
10
166.2071
20
187.2535
30
0.0
0
VERTEX
8
CUT_INNER
10
164.8637
20
186.9549
30
0.0
0
VERTEX
8
CUT_INNER
10
163.8188
20
185.3130
30
0.0
0
VERTEX
8
CUT_INNER
10
164.1173
20
183.9696
30
0.0
0
VERTEX
8
CUT_INNER
10
165.9085
20
182.6262
30
0.0
0
VERTEX
8
CUT_INNER
10
163.8188
20
180.5365
30
0.0
0
VERTEX
8
CUT_INNER
10
164.2666
20
179.9395
30
0.0
0
VERTEX
8
CUT_INNER
10
166.6548
20
181.2829
30
0.0
0
VERTEX
8
CUT_INNER
10
167.8490
20
183.6711
30
0.0
0
VERTEX
8
CUT_INNER
10
167.8490
20
185.3130
30
0.0
0
SEQEND
8
CUT_INNER
0
POLYLINE
8
CUT_INNER
66
1
70
1
0
VERTEX
8
CUT_INNER
10
290.2466
20
187.5520
30
0.0
0
VERTEX
8
CUT_INNER
10
288.9032
20
184.4174
30
0.0
0
VERTEX
8
CUT_INNER
10
288.9032
20
179.1931
30
0.0
0
VERTEX
8
CUT_INNER
10
290.6944
20
174.7152
30
0.0
0
VERTEX
8
CUT_INNER
10
292.1871
20
173.6703
30
0.0
0
VERTEX
8
CUT_INNER
10
292.9334
20
175.1630
30
0.0
0
SEQEND
8
CUT_INNER
0
POLYLINE
8
CUT_INNER
66
1
70
1
0
VERTEX
8
CUT_INNER
10
46.3469
20
193.5226
30
0.0
0
VERTEX
8
CUT_INNER
10
44.7050
20
192.1792
30
0.0
0
VERTEX
8
CUT_INNER
10
43.8094
20
187.8505
30
0.0
0
VERTEX
8
CUT_INNER
10
45.0035
20
185.7608
30
0.0
0
VERTEX
8
CUT_INNER
10
47.6903
20
183.6711
30
0.0
0
VERTEX
8
CUT_INNER
10
48.2874
20
178.5961
30
0.0
0
VERTEX
8
CUT_INNER
10
49.7800
20
175.6108
30
0.0
0
VERTEX
8
CUT_INNER
10
51.4219
20
174.7152
30
0.0
0
VERTEX
8
CUT_INNER
10
51.4219
20
177.8498
30
0.0
0
VERTEX
8
CUT_INNER
10
53.8102
20
180.0887
30
0.0
0
VERTEX
8
CUT_INNER
10
54.1087
20
181.4321
30
0.0
0
VERTEX
8
CUT_INNER
10
56.4970
20
183.0740
30
0.0
0
VERTEX
8
CUT_INNER
10
56.7955
20
185.4623
30
0.0
0
VERTEX
8
CUT_INNER
10
58.2881
20
187.4027
30
0.0
0
VERTEX
8
CUT_INNER
10
56.6462
20
188.7461
30
0.0
0
VERTEX
8
CUT_INNER
10
53.6609
20
189.4925
30
0.0
0
VERTEX
8
CUT_INNER
10
52.4668
20
191.4329
30
0.0
0
VERTEX
8
CUT_INNER
10
51.1234
20
191.4329
30
0.0
0
VERTEX
8
CUT_INNER
10
49.4815
20
192.9256
30
0.0
0
SEQEND
8
CUT_INNER
0
POLYLINE
8
CUT_INNER
66
1
70
1
0
VERTEX
8
CUT_INNER
10
244.2729
20
189.9403
30
0.0
0
VERTEX
8
CUT_INNER
10
246.8104
20
186.9549
30
0.0
0
VERTEX
8
CUT_INNER
10
252.6317
20
188.8954
30
0.0
0
VERTEX
8
CUT_INNER
10
253.9751
20
188.7461
30
0.0
0
VERTEX
8
CUT_INNER
10
256.3634
20
185.1638
30
0.0
0
VERTEX
8
CUT_INNER
10
259.1994
20
182.7755
30
0.0
0
VERTEX
8
CUT_INNER
10
257.7068
20
182.3277
30
0.0
0
VERTEX
8
CUT_INNER
10
253.2288
20
186.0594
30
0.0
0
VERTEX
8
CUT_INNER
10
248.1538
20
182.9248
30
0.0
0
VERTEX
8
CUT_INNER
10
248.7508
20
182.3277
30
0.0
0
VERTEX
8
CUT_INNER
10
250.3928
20
182.0292
30
0.0
0
VERTEX
8
CUT_INNER
10
253.3781
20
183.2233
30
0.0
0
VERTEX
8
CUT_INNER
10
257.7068
20
179.0439
30
0.0
0
VERTEX
8
CUT_INNER
10
263.5281
20
180.2380
30
0.0
0
VERTEX
8
CUT_INNER
10
265.6178
20
178.1483
30
0.0
0
VERTEX
8
CUT_INNER
10
263.3788
20
176.8049
30
0.0
0
VERTEX
8
CUT_INNER
10
262.9310
20
175.6108
30
0.0
0
VERTEX
8
CUT_INNER
10
266.0656
20
172.7747
30
0.0
0
VERTEX
8
CUT_INNER
10
267.8568
20
174.1181
30
0.0
0
VERTEX
8
CUT_INNER
10
267.5583
20
175.3122
30
0.0
0
VERTEX
8
CUT_INNER
10
268.4539
20
176.2078
30
0.0
0
VERTEX
8
CUT_INNER
10
270.3943
20
175.6108
30
0.0
0
VERTEX
8
CUT_INNER
10
270.3943
20
171.4313
30
0.0
0
VERTEX
8
CUT_INNER
10
271.7377
20
170.0880
30
0.0
0
VERTEX
8
CUT_INNER
10
276.0664
20
168.7446
30
0.0
0
VERTEX
8
CUT_INNER
10
277.4098
20
167.1026
30
0.0
0
VERTEX
8
CUT_INNER
10
279.3502
20
166.6548
30
0.0
0
VERTEX
8
CUT_INNER
10
281.8878
20
163.8188
30
0.0
0
VERTEX
8
CUT_INNER
10
282.3356
20
164.2666
30
0.0
0
VERTEX
8
CUT_INNER
10
280.9922
20
165.9085
30
0.0
0
VERTEX
8
CUT_INNER
10
281.4400
20
166.2071
30
0.0
0
VERTEX
8
CUT_INNER
10
282.7833
20
165.0129
30
0.0
0
VERTEX
8
CUT_INNER
10
283.3804
20
165.4607
30
0.0
0
VERTEX
8
CUT_INNER
10
280.3951
20
167.6997
30
0.0
0
VERTEX
8
CUT_INNER
10
279.0517
20
169.4909
30
0.0
0
VERTEX
8
CUT_INNER
10
279.0517
20
170.5357
30
0.0
0
VERTEX
8
CUT_INNER
10
276.5142
20
170.5357
30
0.0
0
VERTEX
8
CUT_INNER
10
273.2304
20
172.7747
30
0.0
0
VERTEX
8
CUT_INNER
10
273.5289
20
175.3122
30
0.0
0
VERTEX
8
CUT_INNER
10
274.1260
20
175.7600
30
0.0
0
VERTEX
8
CUT_INNER
10
275.9171
20
173.3718
30
0.0
0
VERTEX
8
CUT_INNER
10
278.4547
20
173.3718
30
0.0
0
VERTEX
8
CUT_INNER
10
280.6936
20
175.3122
30
0.0
0
VERTEX
8
CUT_INNER
10
280.9922
20
178.4468
30
0.0
0
VERTEX
8
CUT_INNER
10
279.0517
20
180.3873
30
0.0
0
VERTEX
8
CUT_INNER
10
276.3649
20
180.3873
30
0.0
0
VERTEX
8
CUT_INNER
10
275.4693
20
181.8799
30
0.0
0
VERTEX
8
CUT_INNER
10
273.5289
20
181.4321
30
0.0
0
VERTEX
8
CUT_INNER
10
273.0811
20
182.1785
30
0.0
0
VERTEX
8
CUT_INNER
10
274.1260
20
183.0740
30
0.0
0
VERTEX
8
CUT_INNER
10
274.1260
20
184.7160
30
0.0
0
VERTEX
8
CUT_INNER
10
271.2899
20
186.9549
30
0.0
0
VERTEX
8
CUT_INNER
10
268.0061
20
188.7461
30
0.0
0
VERTEX
8
CUT_INNER
10
265.6178
20
187.5520
30
0.0
0
VERTEX
8
CUT_INNER
10
264.5730
20
188.2983
30
0.0
0
VERTEX
8
CUT_INNER
10
264.8715
20
189.6417
30
0.0
0
VERTEX
8
CUT_INNER
10
267.8568
20
192.3285
30
0.0
0
VERTEX
8
CUT_INNER
10
267.8568
20
193.6719
30
0.0
0
VERTEX
8
CUT_INNER
10
267.1105
20
194.4182
30
0.0
0
VERTEX
8
CUT_INNER
10
266.5134
20
193.9704
30
0.0
0
VERTEX
8
CUT_INNER
10
266.8119
20
192.7763
30
0.0
0
VERTEX
8
CUT_INNER
10
262.3340
20
189.1939
30
0.0
0
VERTEX
8
CUT_INNER
10
261.5877
20
187.2535
30
0.0
0
VERTEX
8
CUT_INNER
10
260.0950
20
188.1491
30
0.0
0
VERTEX
8
CUT_INNER
10
260.9906
20
189.6417
30
0.0
0
VERTEX
8
CUT_INNER
10
260.2443
20
190.8358
30
0.0
0
VERTEX
8
CUT_INNER
10
260.9906
20
193.9704
30
0.0
0
VERTEX
8
CUT_INNER
10
259.6472
20
191.5822
30
0.0
0
VERTEX
8
CUT_INNER
10
256.9604
20
189.9403
30
0.0
0
VERTEX
8
CUT_INNER
10
254.2737
20
192.9256
30
0.0
0
VERTEX
8
CUT_INNER
10
252.9303
20
192.6270
30
0.0
0
VERTEX
8
CUT_INNER
10
248.9001
20
189.6417
30
0.0
0
VERTEX
8
CUT_INNER
10
245.6163
20
191.1344
30
0.0
0
SEQEND
8
CUT_INNER
0
POLYLINE
8
CUT_INNER
66
1
70
1
0
VERTEX
8
CUT_INNER
10
20.2255
20
203.0756
30
0.0
0
VERTEX
8
CUT_INNER
10
19.0313
20
202.1800
30
0.0
0
VERTEX
8
CUT_INNER
10
15.4490
20
190.3881
30
0.0
0
VERTEX
8
CUT_INNER
10
18.5835
20
193.2241
30
0.0
0
VERTEX
8
CUT_INNER
10
20.0762
20
196.2094
30
0.0
0
VERTEX
8
CUT_INNER
10
20.9718
20
199.7918
30
0.0
0
VERTEX
8
CUT_INNER
10
20.9718
20
202.3293
30
0.0
0
SEQEND
8
CUT_INNER
0
POLYLINE
8
CUT_INNER
66
1
70
1
0
VERTEX
8
CUT_INNER
10
284.8731
20
203.9712
30
0.0
0
VERTEX
8
CUT_INNER
10
283.8282
20
200.8366
30
0.0
0
VERTEX
8
CUT_INNER
10
283.8282
20
197.7021
30
0.0
0
VERTEX
8
CUT_INNER
10
285.9179
20
192.3285
30
0.0
0
VERTEX
8
CUT_INNER
10
288.3062
20
189.7910
30
0.0
0
VERTEX
8
CUT_INNER
10
289.3510
20
191.2836
30
0.0
0
SEQEND
8
CUT_INNER
0
POLYLINE
8
CUT_INNER
66
1
70
1
0
VERTEX
8
CUT_INNER
10
45.6006
20
213.8227
30
0.0
0
VERTEX
8
CUT_INNER
10
44.7050
20
213.3749
30
0.0
0
VERTEX
8
CUT_INNER
10
45.1528
20
212.7779
30
0.0
0
VERTEX
8
CUT_INNER
10
44.7050
20
212.1808
30
0.0
0
VERTEX
8
CUT_INNER
10
42.7645
20
213.5242
30
0.0
0
VERTEX
8
CUT_INNER
10
39.7792
20
211.7330
30
0.0
0
VERTEX
8
CUT_INNER
10
35.4505
20
204.4190
30
0.0
0
VERTEX
8
CUT_INNER
10
35.4505
20
201.2844
30
0.0
0
VERTEX
8
CUT_INNER
10
36.3461
20
200.6874
30
0.0
0
VERTEX
8
CUT_INNER
10
36.9432
20
196.8065
30
0.0
0
VERTEX
8
CUT_INNER
10
37.9881
20
195.7616
30
0.0
0
VERTEX
8
CUT_INNER
10
40.2270
20
195.0153
30
0.0
0
VERTEX
8
CUT_INNER
10
43.5109
20
192.0300
30
0.0
0
VERTEX
8
CUT_INNER
10
43.0631
20
194.5675
30
0.0
0
VERTEX
8
CUT_INNER
10
41.5704
20
195.3138
30
0.0
0
VERTEX
8
CUT_INNER
10
42.1675
20
196.6572
30
0.0
0
VERTEX
8
CUT_INNER
10
41.5704
20
197.1050
30
0.0
0
VERTEX
8
CUT_INNER
10
40.6748
20
196.2094
30
0.0
0
VERTEX
8
CUT_INNER
10
39.7792
20
196.3587
30
0.0
0
VERTEX
8
CUT_INNER
10
39.1822
20
197.2543
30
0.0
0
VERTEX
8
CUT_INNER
10
39.4807
20
198.8962
30
0.0
0
VERTEX
8
CUT_INNER
10
40.6748
20
199.9410
30
0.0
0
VERTEX
8
CUT_INNER
10
42.6153
20
200.2396
30
0.0
0
VERTEX
8
CUT_INNER
10
43.8094
20
199.4932
30
0.0
0
VERTEX
8
CUT_INNER
10
44.2572
20
198.2991
30
0.0
0
VERTEX
8
CUT_INNER
10
44.5557
20
200.3888
30
0.0
0
VERTEX
8
CUT_INNER
10
47.8396
20
203.9712
30
0.0
0
VERTEX
8
CUT_INNER
10
50.0786
20
204.7175
30
0.0
0
VERTEX
8
CUT_INNER
10
49.7800
20
206.3595
30
0.0
0
VERTEX
8
CUT_INNER
10
51.1234
20
206.5087
30
0.0
0
VERTEX
8
CUT_INNER
10
52.0190
20
205.3146
30
0.0
0
VERTEX
8
CUT_INNER
10
52.6161
20
205.7624
30
0.0
0
VERTEX
8
CUT_INNER
10
51.1234
20
208.8970
30
0.0
0
VERTEX
8
CUT_INNER
10
49.7800
20
209.1955
30
0.0
0
VERTEX
8
CUT_INNER
10
48.8844
20
210.2404
30
0.0
0
VERTEX
8
CUT_INNER
10
47.9888
20
209.4940
30
0.0
0
VERTEX
8
CUT_INNER
10
47.8396
20
208.1506
30
0.0
0
VERTEX
8
CUT_INNER
10
46.7947
20
207.5536
30
0.0
0
VERTEX
8
CUT_INNER
10
45.1528
20
208.8970
30
0.0
0
VERTEX
8
CUT_INNER
10
46.0484
20
210.5389
30
0.0
0
VERTEX
8
CUT_INNER
10
47.5410
20
210.8374
30
0.0
0
VERTEX
8
CUT_INNER
10
49.1830
20
212.1808
30
0.0
0
VERTEX
8
CUT_INNER
10
50.2278
20
210.0911
30
0.0
0
VERTEX
8
CUT_INNER
10
51.2727
20
210.9867
30
0.0
0
VERTEX
8
CUT_INNER
10
49.7800
20
212.9271
30
0.0
0
VERTEX
8
CUT_INNER
10
47.3918
20
212.7779
30
0.0
0
VERTEX
8
CUT_INNER
10
46.1976
20
212.0315
30
0.0
0
SEQEND
8
CUT_INNER
0
POLYLINE
8
CUT_INNER
66
1
70
1
0
VERTEX
8
CUT_INNER
10
51.4219
20
214.7183
30
0.0
0
VERTEX
8
CUT_INNER
10
51.1234
20
214.2705
30
0.0
0
VERTEX
8
CUT_INNER
10
52.4668
20
212.9271
30
0.0
0
VERTEX
8
CUT_INNER
10
53.0639
20
210.5389
30
0.0
0
VERTEX
8
CUT_INNER
10
54.5565
20
209.4940
30
0.0
0
VERTEX
8
CUT_INNER
10
56.7955
20
212.3301
30
0.0
0
VERTEX
8
CUT_INNER
10
56.4970
20
213.6735
30
0.0
0
VERTEX
8
CUT_INNER
10
55.4521
20
214.7183
30
0.0
0
SEQEND
8
CUT_INNER
0
POLYLINE
8
CUT_INNER
66
1
70
1
0
VERTEX
8
CUT_INNER
10
27.3902
20
218.3007
30
0.0
0
VERTEX
8
CUT_INNER
10
25.8976
20
217.7036
30
0.0
0
VERTEX
8
CUT_INNER
10
20.8225
20
206.2102
30
0.0
0
VERTEX
8
CUT_INNER
10
23.5093
20
207.7028
30
0.0
0
VERTEX
8
CUT_INNER
10
26.0468
20
210.8374
30
0.0
0
VERTEX
8
CUT_INNER
10
27.8380
20
215.3154
30
0.0
0
VERTEX
8
CUT_INNER
10
28.1365
20
217.5544
30
0.0
0
SEQEND
8
CUT_INNER
0
POLYLINE
8
CUT_INNER
66
1
70
1
0
VERTEX
8
CUT_INNER
10
277.7083
20
219.7933
30
0.0
0
VERTEX
8
CUT_INNER
10
276.9620
20
217.5544
30
0.0
0
VERTEX
8
CUT_INNER
10
276.9620
20
213.5242
30
0.0
0
VERTEX
8
CUT_INNER
10
279.0517
20
208.7477
30
0.0
0
VERTEX
8
CUT_INNER
10
282.3356
20
205.6131
30
0.0
0
VERTEX
8
CUT_INNER
10
283.5297
20
207.7028
30
0.0
0
SEQEND
8
CUT_INNER
0
POLYLINE
8
CUT_INNER
66
1
70
1
0
VERTEX
8
CUT_INNER
10
200.9859
20
220.9875
30
0.0
0
VERTEX
8
CUT_INNER
10
199.9410
20
219.9426
30
0.0
0
VERTEX
8
CUT_INNER
10
200.3888
20
217.5544
30
0.0
0
VERTEX
8
CUT_INNER
10
197.7021
20
217.1066
30
0.0
0
VERTEX
8
CUT_INNER
10
193.6719
20
215.0168
30
0.0
0
VERTEX
8
CUT_INNER
10
191.7314
20
216.2110
30
0.0
0
VERTEX
8
CUT_INNER
10
190.9851
20
218.0022
30
0.0
0
VERTEX
8
CUT_INNER
10
189.3432
20
218.0022
30
0.0
0
VERTEX
8
CUT_INNER
10
188.5969
20
217.2558
30
0.0
0
VERTEX
8
CUT_INNER
10
188.5969
20
215.9124
30
0.0
0
VERTEX
8
CUT_INNER
10
189.3432
20
215.1661
30
0.0
0
VERTEX
8
CUT_INNER
10
190.8358
20
215.0168
30
0.0
0
VERTEX
8
CUT_INNER
10
191.7314
20
212.9271
30
0.0
0
VERTEX
8
CUT_INNER
10
189.7910
20
209.7926
30
0.0
0
VERTEX
8
CUT_INNER
10
189.1939
20
207.2550
30
0.0
0
VERTEX
8
CUT_INNER
10
187.7013
20
206.3595
30
0.0
0
VERTEX
8
CUT_INNER
10
185.7608
20
207.2550
30
0.0
0
VERTEX
8
CUT_INNER
10
184.4174
20
206.2102
30
0.0
0
VERTEX
8
CUT_INNER
10
184.4174
20
204.8668
30
0.0
0
VERTEX
8
CUT_INNER
10
185.1638
20
204.1205
30
0.0
0
VERTEX
8
CUT_INNER
10
186.5071
20
204.1205
30
0.0
0
VERTEX
8
CUT_INNER
10
187.9998
20
205.0161
30
0.0
0
VERTEX
8
CUT_INNER
10
189.4925
20
203.9712
30
0.0
0
VERTEX
8
CUT_INNER
10
189.7910
20
201.8815
30
0.0
0
VERTEX
8
CUT_INNER
10
191.8807
20
198.4484
30
0.0
0
VERTEX
8
CUT_INNER
10
190.6866
20
196.8065
30
0.0
0
VERTEX
8
CUT_INNER
10
189.6417
20
196.8065
30
0.0
0
VERTEX
8
CUT_INNER
10
188.5969
20
195.7616
30
0.0
0
VERTEX
8
CUT_INNER
10
188.5969
20
194.7167
30
0.0
0
VERTEX
8
CUT_INNER
10
189.3432
20
193.9704
30
0.0
0
VERTEX
8
CUT_INNER
10
190.9851
20
193.9704
30
0.0
0
VERTEX
8
CUT_INNER
10
192.0300
20
196.0601
30
0.0
0
VERTEX
8
CUT_INNER
10
194.1197
20
196.6572
30
0.0
0
VERTEX
8
CUT_INNER
10
197.1050
20
194.8660
30
0.0
0
VERTEX
8
CUT_INNER
10
200.2396
20
194.2690
30
0.0
0
VERTEX
8
CUT_INNER
10
200.5381
20
193.0748
30
0.0
0
VERTEX
8
CUT_INNER
10
199.9410
20
191.1344
30
0.0
0
VERTEX
8
CUT_INNER
10
200.6874
20
190.3881
30
0.0
0
VERTEX
8
CUT_INNER
10
202.0308
20
190.3881
30
0.0
0
VERTEX
8
CUT_INNER
10
203.0756
20
191.4329
30
0.0
0
VERTEX
8
CUT_INNER
10
202.4786
20
193.9704
30
0.0
0
VERTEX
8
CUT_INNER
10
204.4190
20
194.5675
30
0.0
0
VERTEX
8
CUT_INNER
10
203.5234
20
197.5528
30
0.0
0
VERTEX
8
CUT_INNER
10
202.4786
20
198.0006
30
0.0
0
VERTEX
8
CUT_INNER
10
202.4786
20
202.3293
30
0.0
0
VERTEX
8
CUT_INNER
10
204.4190
20
203.8219
30
0.0
0
VERTEX
8
CUT_INNER
10
203.9712
20
206.8072
30
0.0
0
VERTEX
8
CUT_INNER
10
204.5683
20
208.0014
30
0.0
0
VERTEX
8
CUT_INNER
10
202.4786
20
209.6433
30
0.0
0
VERTEX
8
CUT_INNER
10
202.4786
20
212.4793
30
0.0
0
VERTEX
8
CUT_INNER
10
200.5381
20
212.4793
30
0.0
0
VERTEX
8
CUT_INNER
10
200.5381
20
209.6433
30
0.0
0
VERTEX
8
CUT_INNER
10
197.7021
20
206.8072
30
0.0
0
VERTEX
8
CUT_INNER
10
194.8660
20
206.6580
30
0.0
0
VERTEX
8
CUT_INNER
10
194.8660
20
205.0161
30
0.0
0
VERTEX
8
CUT_INNER
10
197.4035
20
205.0161
30
0.0
0
VERTEX
8
CUT_INNER
10
200.5381
20
202.3293
30
0.0
0
VERTEX
8
CUT_INNER
10
200.5381
20
198.0006
30
0.0
0
VERTEX
8
CUT_INNER
10
198.1499
20
198.0006
30
0.0
0
VERTEX
8
CUT_INNER
10
194.1197
20
201.1352
30
0.0
0
VERTEX
8
CUT_INNER
10
191.8807
20
204.8668
30
0.0
0
VERTEX
8
CUT_INNER
10
192.0300
20
207.4043
30
0.0
0
VERTEX
8
CUT_INNER
10
195.3138
20
212.0315
30
0.0
0
VERTEX
8
CUT_INNER
10
198.7469
20
213.8227
30
0.0
0
VERTEX
8
CUT_INNER
10
199.7918
20
215.3154
30
0.0
0
VERTEX
8
CUT_INNER
10
202.6278
20
215.4646
30
0.0
0
VERTEX
8
CUT_INNER
10
208.8970
20
210.5389
30
0.0
0
VERTEX
8
CUT_INNER
10
210.0911
20
206.9565
30
0.0
0
VERTEX
8
CUT_INNER
10
206.9565
20
206.6580
30
0.0
0
VERTEX
8
CUT_INNER
10
206.9565
20
205.0161
30
0.0
0
VERTEX
8
CUT_INNER
10
209.6433
20
205.0161
30
0.0
0
VERTEX
8
CUT_INNER
10
210.0911
20
204.1205
30
0.0
0
VERTEX
8
CUT_INNER
10
208.5984
20
200.8366
30
0.0
0
VERTEX
8
CUT_INNER
10
206.2102
20
198.7469
30
0.0
0
VERTEX
8
CUT_INNER
10
207.2550
20
195.6123
30
0.0
0
VERTEX
8
CUT_INNER
10
209.6433
20
196.6572
30
0.0
0
VERTEX
8
CUT_INNER
10
211.2852
20
195.6123
30
0.0
0
VERTEX
8
CUT_INNER
10
211.2852
20
194.7167
30
0.0
0
VERTEX
8
CUT_INNER
10
212.3301
20
193.6719
30
0.0
0
VERTEX
8
CUT_INNER
10
214.1213
20
194.7167
30
0.0
0
VERTEX
8
CUT_INNER
10
214.1213
20
196.0601
30
0.0
0
VERTEX
8
CUT_INNER
10
213.3749
20
196.8065
30
0.0
0
VERTEX
8
CUT_INNER
10
212.1808
20
196.8065
30
0.0
0
VERTEX
8
CUT_INNER
10
211.1359
20
198.8962
30
0.0
0
VERTEX
8
CUT_INNER
10
213.2257
20
202.1800
30
0.0
0
VERTEX
8
CUT_INNER
10
213.5242
20
204.4190
30
0.0
0
VERTEX
8
CUT_INNER
10
215.1661
20
205.0161
30
0.0
0
VERTEX
8
CUT_INNER
10
216.2110
20
204.1205
30
0.0
0
VERTEX
8
CUT_INNER
10
217.5544
20
204.1205
30
0.0
0
VERTEX
8
CUT_INNER
10
218.3007
20
206.2102
30
0.0
0
VERTEX
8
CUT_INNER
10
216.9573
20
207.2550
30
0.0
0
VERTEX
8
CUT_INNER
10
215.1661
20
206.3595
30
0.0
0
VERTEX
8
CUT_INNER
10
213.5242
20
207.2550
30
0.0
0
VERTEX
8
CUT_INNER
10
212.9271
20
210.3896
30
0.0
0
VERTEX
8
CUT_INNER
10
211.1359
20
213.0764
30
0.0
0
VERTEX
8
CUT_INNER
10
212.0315
20
214.8676
30
0.0
0
VERTEX
8
CUT_INNER
10
213.3749
20
215.1661
30
0.0
0
VERTEX
8
CUT_INNER
10
214.4198
20
216.5095
30
0.0
0
VERTEX
8
CUT_INNER
10
213.3749
20
218.0022
30
0.0
0
VERTEX
8
CUT_INNER
10
212.0315
20
218.0022
30
0.0
0
VERTEX
8
CUT_INNER
10
211.2852
20
217.2558
30
0.0
0
VERTEX
8
CUT_INNER
10
211.2852
20
216.2110
30
0.0
0
VERTEX
8
CUT_INNER
10
209.0462
20
215.0168
30
0.0
0
VERTEX
8
CUT_INNER
10
206.8072
20
216.5095
30
0.0
0
VERTEX
8
CUT_INNER
10
202.6278
20
217.5544
30
0.0
0
VERTEX
8
CUT_INNER
10
203.0756
20
219.6441
30
0.0
0
VERTEX
8
CUT_INNER
10
202.3293
20
220.6889
30
0.0
0
SEQEND
8
CUT_INNER
0
POLYLINE
8
CUT_INNER
66
1
70
1
0
VERTEX
8
CUT_INNER
10
46.9440
20
223.0772
30
0.0
0
VERTEX
8
CUT_INNER
10
45.3021
20
221.7338
30
0.0
0
VERTEX
8
CUT_INNER
10
46.6454
20
219.0470
30
0.0
0
VERTEX
8
CUT_INNER
10
40.6748
20
216.5095
30
0.0
0
VERTEX
8
CUT_INNER
10
37.0925
20
214.1213
30
0.0
0
VERTEX
8
CUT_INNER
10
31.2711
20
207.4043
30
0.0
0
VERTEX
8
CUT_INNER
10
29.4799
20
203.8219
30
0.0
0
VERTEX
8
CUT_INNER
10
27.9873
20
198.1499
30
0.0
0
VERTEX
8
CUT_INNER
10
28.5843
20
189.0447
30
0.0
0
VERTEX
8
CUT_INNER
10
31.5696
20
182.1785
30
0.0
0
VERTEX
8
CUT_INNER
10
37.0925
20
176.0586
30
0.0
0
VERTEX
8
CUT_INNER
10
43.9587
20
172.1777
30
0.0
0
VERTEX
8
CUT_INNER
10
50.6756
20
170.6850
30
0.0
0
VERTEX
8
CUT_INNER
10
50.6756
20
168.2968
30
0.0
0
VERTEX
8
CUT_INNER
10
50.0786
20
167.4012
30
0.0
0
VERTEX
8
CUT_INNER
10
43.0631
20
165.7593
30
0.0
0
VERTEX
8
CUT_INNER
10
41.1226
20
164.4159
30
0.0
0
VERTEX
8
CUT_INNER
10
41.5704
20
163.2217
30
0.0
0
VERTEX
8
CUT_INNER
10
46.6454
20
162.3262
30
0.0
0
VERTEX
8
CUT_INNER
10
57.2433
20
162.3262
30
0.0
0
VERTEX
8
CUT_INNER
10
62.0198
20
162.9232
30
0.0
0
VERTEX
8
CUT_INNER
10
63.3632
20
163.6695
30
0.0
0
VERTEX
8
CUT_INNER
10
62.0198
20
165.4607
30
0.0
0
VERTEX
8
CUT_INNER
10
54.7058
20
167.1026
30
0.0
0
VERTEX
8
CUT_INNER
10
53.8102
20
168.2968
30
0.0
0
VERTEX
8
CUT_INNER
10
53.8102
20
170.6850
30
0.0
0
VERTEX
8
CUT_INNER
10
58.8852
20
171.8791
30
0.0
0
VERTEX
8
CUT_INNER
10
60.8257
20
171.5806
30
0.0
0
VERTEX
8
CUT_INNER
10
61.4227
20
173.5211
30
0.0
0
VERTEX
8
CUT_INNER
10
67.3933
20
176.9542
30
0.0
0
VERTEX
8
CUT_INNER
10
71.1250
20
180.6858
30
0.0
0
VERTEX
8
CUT_INNER
10
73.5132
20
184.2682
30
0.0
0
VERTEX
8
CUT_INNER
10
75.9015
20
191.7314
30
0.0
0
VERTEX
8
CUT_INNER
10
75.9015
20
198.7469
30
0.0
0
VERTEX
8
CUT_INNER
10
74.7073
20
203.2249
30
0.0
0
VERTEX
8
CUT_INNER
10
72.0206
20
208.2999
30
0.0
0
VERTEX
8
CUT_INNER
10
67.9904
20
212.6286
30
0.0
0
VERTEX
8
CUT_INNER
10
61.4227
20
216.5095
30
0.0
0
VERTEX
8
CUT_INNER
10
56.6462
20
217.7036
30
0.0
0
VERTEX
8
CUT_INNER
10
53.5117
20
217.7036
30
0.0
0
VERTEX
8
CUT_INNER
10
53.5117
20
216.6588
30
0.0
0
VERTEX
8
CUT_INNER
10
56.6462
20
216.3602
30
0.0
0
VERTEX
8
CUT_INNER
10
62.0198
20
214.5690
30
0.0
0
VERTEX
8
CUT_INNER
10
61.4227
20
213.2257
30
0.0
0
VERTEX
8
CUT_INNER
10
62.6168
20
210.8374
30
0.0
0
VERTEX
8
CUT_INNER
10
63.8110
20
210.3896
30
0.0
0
VERTEX
8
CUT_INNER
10
64.1095
20
212.1808
30
0.0
0
VERTEX
8
CUT_INNER
10
65.3036
20
211.2852
30
0.0
0
VERTEX
8
CUT_INNER
10
65.3036
20
209.7926
30
0.0
0
VERTEX
8
CUT_INNER
10
63.8110
20
208.4492
30
0.0
0
VERTEX
8
CUT_INNER
10
61.8705
20
209.7926
30
0.0
0
VERTEX
8
CUT_INNER
10
61.4227
20
209.4940
30
0.0
0
VERTEX
8
CUT_INNER
10
61.2735
20
208.2999
30
0.0
0
VERTEX
8
CUT_INNER
10
62.4676
20
208.2999
30
0.0
0
VERTEX
8
CUT_INNER
10
64.4080
20
206.0609
30
0.0
0
VERTEX
8
CUT_INNER
10
63.0646
20
205.1653
30
0.0
0
VERTEX
8
CUT_INNER
10
63.9602
20
203.2249
30
0.0
0
VERTEX
8
CUT_INNER
10
64.7066
20
202.9263
30
0.0
0
VERTEX
8
CUT_INNER
10
65.4529
20
203.6727
30
0.0
0
VERTEX
8
CUT_INNER
10
65.7514
20
205.6131
30
0.0
0
VERTEX
8
CUT_INNER
10
67.8411
20
206.3595
30
0.0
0
VERTEX
8
CUT_INNER
10
69.4831
20
205.1653
30
0.0
0
VERTEX
8
CUT_INNER
10
70.2294
20
205.6131
30
0.0
0
VERTEX
8
CUT_INNER
10
71.4235
20
204.4190
30
0.0
0
VERTEX
8
CUT_INNER
10
72.4684
20
204.4190
30
0.0
0
VERTEX
8
CUT_INNER
10
72.6176
20
203.3741
30
0.0
0
VERTEX
8
CUT_INNER
10
70.2294
20
202.1800
30
0.0
0
VERTEX
8
CUT_INNER
10
68.5875
20
202.9263
30
0.0
0
VERTEX
8
CUT_INNER
10
67.9904
20
203.9712
30
0.0
0
VERTEX
8
CUT_INNER
10
64.4080
20
202.0308
30
0.0
0
VERTEX
8
CUT_INNER
10
64.1095
20
200.2396
30
0.0
0
VERTEX
8
CUT_INNER
10
62.9154
20
198.4484
30
0.0
0
VERTEX
8
CUT_INNER
10
62.9154
20
194.7167
30
0.0
0
VERTEX
8
CUT_INNER
10
63.8110
20
193.2241
30
0.0
0
VERTEX
8
CUT_INNER
10
65.4529
20
191.8807
30
0.0
0
VERTEX
8
CUT_INNER
10
69.1845
20
192.6270
30
0.0
0
VERTEX
8
CUT_INNER
10
70.3786
20
191.7314
30
0.0
0
VERTEX
8
CUT_INNER
10
70.0801
20
189.6417
30
0.0
0
VERTEX
8
CUT_INNER
10
70.6772
20
188.7461
30
0.0
0
VERTEX
8
CUT_INNER
10
70.6772
20
187.1042
30
0.0
0
VERTEX
8
CUT_INNER
10
68.5875
20
181.4321
30
0.0
0
VERTEX
8
CUT_INNER
10
68.8860
20
180.2380
30
0.0
0
VERTEX
8
CUT_INNER
10
64.4080
20
176.6556
30
0.0
0
VERTEX
8
CUT_INNER
10
58.7359
20
174.1181
30
0.0
0
VERTEX
8
CUT_INNER
10
53.6609
20
173.2225
30
0.0
0
VERTEX
8
CUT_INNER
10
47.5410
20
173.8196
30
0.0
0
VERTEX
8
CUT_INNER
10
43.9587
20
175.0137
30
0.0
0
VERTEX
8
CUT_INNER
10
37.0925
20
179.6409
30
0.0
0
VERTEX
8
CUT_INNER
10
33.5101
20
184.1189
30
0.0
0
VERTEX
8
CUT_INNER
10
31.4204
20
189.1939
30
0.0
0
VERTEX
8
CUT_INNER
10
30.5248
20
194.5675
30
0.0
0
VERTEX
8
CUT_INNER
10
30.8233
20
198.8962
30
0.0
0
VERTEX
8
CUT_INNER
10
32.0174
20
203.0756
30
0.0
0
VERTEX
8
CUT_INNER
10
34.4057
20
207.5536
30
0.0
0
VERTEX
8
CUT_INNER
10
37.9881
20
211.4345
30
0.0
0
VERTEX
8
CUT_INNER
10
41.2719
20
213.8227
30
0.0
0
VERTEX
8
CUT_INNER
10
46.3469
20
216.0617
30
0.0
0
VERTEX
8
CUT_INNER
10
48.5859
20
214.8676
30
0.0
0
VERTEX
8
CUT_INNER
10
50.6756
20
216.3602
30
0.0
0
VERTEX
8
CUT_INNER
10
50.5263
20
217.8529
30
0.0
0
VERTEX
8
CUT_INNER
10
51.2727
20
219.1963
30
0.0
0
VERTEX
8
CUT_INNER
10
48.5859
20
219.6441
30
0.0
0
VERTEX
8
CUT_INNER
10
48.7352
20
222.0323
30
0.0
0
SEQEND
8
CUT_INNER
0
POLYLINE
8
CUT_INNER
66
1
70
1
0
VERTEX
8
CUT_INNER
10
36.3461
20
232.3316
30
0.0
0
VERTEX
8
CUT_INNER
10
34.4057
20
232.0331
30
0.0
0
VERTEX
8
CUT_INNER
10
27.9873
20
221.1367
30
0.0
0
VERTEX
8
CUT_INNER
10
31.2711
20
222.6294
30
0.0
0
VERTEX
8
CUT_INNER
10
33.8086
20
225.1669
30
0.0
0
VERTEX
8
CUT_INNER
10
36.4954
20
229.9434
30
0.0
0
VERTEX
8
CUT_INNER
10
36.7939
20
231.8838
30
0.0
0
SEQEND
8
CUT_INNER
0
POLYLINE
8
CUT_INNER
66
1
70
1
0
VERTEX
8
CUT_INNER
10
269.0509
20
233.8243
30
0.0
0
VERTEX
8
CUT_INNER
10
268.3046
20
230.2419
30
0.0
0
VERTEX
8
CUT_INNER
10
269.2002
20
226.6595
30
0.0
0
VERTEX
8
CUT_INNER
10
271.2899
20
223.3757
30
0.0
0
VERTEX
8
CUT_INNER
10
274.5738
20
220.5397
30
0.0
0
VERTEX
8
CUT_INNER
10
275.9171
20
223.0772
30
0.0
0
SEQEND
8
CUT_INNER
0
POLYLINE
8
CUT_INNER
66
1
70
1
0
VERTEX
8
CUT_INNER
10
233.5258
20
237.4067
30
0.0
0
VERTEX
8
CUT_INNER
10
230.6897
20
235.4662
30
0.0
0
VERTEX
8
CUT_INNER
10
229.4956
20
232.4809
30
0.0
0
VERTEX
8
CUT_INNER
10
230.0927
20
229.9434
30
0.0
0
VERTEX
8
CUT_INNER
10
233.0780
20
227.1073
30
0.0
0
VERTEX
8
CUT_INNER
10
233.0780
20
225.4654
30
0.0
0
VERTEX
8
CUT_INNER
10
228.7493
20
224.8684
30
0.0
0
VERTEX
8
CUT_INNER
10
226.9581
20
225.7640
30
0.0
0
VERTEX
8
CUT_INNER
10
225.0176
20
224.1220
30
0.0
0
VERTEX
8
CUT_INNER
10
225.3162
20
222.4801
30
0.0
0
VERTEX
8
CUT_INNER
10
226.6595
20
221.4353
30
0.0
0
VERTEX
8
CUT_INNER
10
228.7493
20
222.3309
30
0.0
0
VERTEX
8
CUT_INNER
10
232.1824
20
222.0323
30
0.0
0
VERTEX
8
CUT_INNER
10
233.0780
20
221.4353
30
0.0
0
VERTEX
8
CUT_INNER
10
232.4809
20
206.2102
30
0.0
0
VERTEX
8
CUT_INNER
10
230.6897
20
204.8668
30
0.0
0
VERTEX
8
CUT_INNER
10
227.8537
20
205.6131
30
0.0
0
VERTEX
8
CUT_INNER
10
225.7640
20
207.7028
30
0.0
0
VERTEX
8
CUT_INNER
10
225.7640
20
208.2999
30
0.0
0
VERTEX
8
CUT_INNER
10
227.2566
20
209.1955
30
0.0
0
VERTEX
8
CUT_INNER
10
225.4654
20
210.6881
30
0.0
0
VERTEX
8
CUT_INNER
10
223.0772
20
214.2705
30
0.0
0
VERTEX
8
CUT_INNER
10
221.7338
20
212.4793
30
0.0
0
VERTEX
8
CUT_INNER
10
220.8382
20
208.1506
30
0.0
0
VERTEX
8
CUT_INNER
10
221.4353
20
206.3595
30
0.0
0
VERTEX
8
CUT_INNER
10
222.7786
20
207.1058
30
0.0
0
VERTEX
8
CUT_INNER
10
223.5250
20
206.6580
30
0.0
0
VERTEX
8
CUT_INNER
10
226.3610
20
202.3293
30
0.0
0
VERTEX
8
CUT_INNER
10
232.4809
20
199.1947
30
0.0
0
VERTEX
8
CUT_INNER
10
235.1677
20
196.9557
30
0.0
0
VERTEX
8
CUT_INNER
10
236.8096
20
198.5976
30
0.0
0
VERTEX
8
CUT_INNER
10
242.6310
20
201.4337
30
0.0
0
VERTEX
8
CUT_INNER
10
245.7655
20
204.5683
30
0.0
0
VERTEX
8
CUT_INNER
10
247.1089
20
207.2550
30
0.0
0
VERTEX
8
CUT_INNER
10
248.7508
20
206.3595
30
0.0
0
VERTEX
8
CUT_INNER
10
249.3479
20
209.1955
30
0.0
0
VERTEX
8
CUT_INNER
10
248.7508
20
211.8823
30
0.0
0
VERTEX
8
CUT_INNER
10
247.2582
20
214.4198
30
0.0
0
VERTEX
8
CUT_INNER
10
243.0787
20
209.3448
30
0.0
0
VERTEX
8
CUT_INNER
10
244.7207
20
208.2999
30
0.0
0
VERTEX
8
CUT_INNER
10
243.2280
20
206.2102
30
0.0
0
VERTEX
8
CUT_INNER
10
240.5412
20
204.8668
30
0.0
0
VERTEX
8
CUT_INNER
10
239.4964
20
204.8668
30
0.0
0
VERTEX
8
CUT_INNER
10
237.7052
20
206.2102
30
0.0
0
VERTEX
8
CUT_INNER
10
237.1081
20
221.4353
30
0.0
0
VERTEX
8
CUT_INNER
10
240.0934
20
222.3309
30
0.0
0
VERTEX
8
CUT_INNER
10
243.2280
20
221.4353
30
0.0
0
VERTEX
8
CUT_INNER
10
244.8699
20
222.7786
30
0.0
0
VERTEX
8
CUT_INNER
10
244.8699
20
224.4206
30
0.0
0
VERTEX
8
CUT_INNER
10
243.0787
20
225.6147
30
0.0
0
VERTEX
8
CUT_INNER
10
241.4368
20
224.8684
30
0.0
0
VERTEX
8
CUT_INNER
10
237.1081
20
225.4654
30
0.0
0
VERTEX
8
CUT_INNER
10
237.1081
20
227.2566
30
0.0
0
VERTEX
8
CUT_INNER
10
240.0934
20
230.5405
30
0.0
0
VERTEX
8
CUT_INNER
10
240.0934
20
234.2721
30
0.0
0
VERTEX
8
CUT_INNER
10
239.4964
20
235.1677
30
0.0
0
VERTEX
8
CUT_INNER
10
237.5559
20
233.2272
30
0.0
0
VERTEX
8
CUT_INNER
10
237.5559
20
231.2868
30
0.0
0
VERTEX
8
CUT_INNER
10
236.6603
20
230.0927
30
0.0
0
VERTEX
8
CUT_INNER
10
234.1228
20
229.6449
30
0.0
0
VERTEX
8
CUT_INNER
10
232.6302
20
230.9882
30
0.0
0
VERTEX
8
CUT_INNER
10
232.3316
20
232.9287
30
0.0
0
VERTEX
8
CUT_INNER
10
233.5258
20
234.4214
30
0.0
0
VERTEX
8
CUT_INNER
10
235.3169
20
234.8691
30
0.0
0
VERTEX
8
CUT_INNER
10
237.4067
20
236.9589
30
0.0
0
SEQEND
8
CUT_INNER
0
POLYLINE
8
CUT_INNER
66
1
70
1
0
VERTEX
8
CUT_INNER
10
199.4932
20
237.7052
30
0.0
0
VERTEX
8
CUT_INNER
10
197.5528
20
235.1677
30
0.0
0
VERTEX
8
CUT_INNER
10
197.5528
20
233.8243
30
0.0
0
VERTEX
8
CUT_INNER
10
199.1947
20
230.9882
30
0.0
0
VERTEX
8
CUT_INNER
10
195.7616
20
227.4059
30
0.0
0
VERTEX
8
CUT_INNER
10
196.3587
20
224.2713
30
0.0
0
VERTEX
8
CUT_INNER
10
198.8962
20
222.3309
30
0.0
0
VERTEX
8
CUT_INNER
10
202.3293
20
222.0323
30
0.0
0
VERTEX
8
CUT_INNER
10
203.8219
20
222.4801
30
0.0
0
VERTEX
8
CUT_INNER
10
202.7771
20
224.7191
30
0.0
0
VERTEX
8
CUT_INNER
10
201.2844
20
224.5698
30
0.0
0
VERTEX
8
CUT_INNER
10
199.4932
20
225.9132
30
0.0
0
VERTEX
8
CUT_INNER
10
199.4932
20
228.1522
30
0.0
0
VERTEX
8
CUT_INNER
10
200.8366
20
229.1971
30
0.0
0
VERTEX
8
CUT_INNER
10
203.3741
20
226.5103
30
0.0
0
VERTEX
8
CUT_INNER
10
204.7175
20
226.6595
30
0.0
0
VERTEX
8
CUT_INNER
10
207.5536
20
222.3309
30
0.0
0
VERTEX
8
CUT_INNER
10
210.6881
20
222.3309
30
0.0
0
VERTEX
8
CUT_INNER
10
211.1359
20
222.9279
30
0.0
0
VERTEX
8
CUT_INNER
10
208.2999
20
226.2118
30
0.0
0
VERTEX
8
CUT_INNER
10
210.8374
20
229.7941
30
0.0
0
VERTEX
8
CUT_INNER
10
207.5536
20
230.2419
30
0.0
0
VERTEX
8
CUT_INNER
10
206.3595
20
227.8537
30
0.0
0
VERTEX
8
CUT_INNER
10
203.8219
20
230.5405
30
0.0
0
VERTEX
8
CUT_INNER
10
206.6580
20
233.2272
30
0.0
0
VERTEX
8
CUT_INNER
10
206.9565
20
235.1677
30
0.0
0
VERTEX
8
CUT_INNER
10
206.3595
20
236.6603
30
0.0
0
VERTEX
8
CUT_INNER
10
203.3741
20
238.3023
30
0.0
0
VERTEX
8
CUT_INNER
10
203.3741
20
236.0633
30
0.0
0
VERTEX
8
CUT_INNER
10
204.1205
20
234.5706
30
0.0
0
VERTEX
8
CUT_INNER
10
202.1800
20
232.3316
30
0.0
0
VERTEX
8
CUT_INNER
10
200.6874
20
234.2721
30
0.0
0
VERTEX
8
CUT_INNER
10
200.3888
20
238.1530
30
0.0
0
SEQEND
8
CUT_INNER
0
POLYLINE
8
CUT_INNER
66
1
70
1
0
VERTEX
8
CUT_INNER
10
46.4962
20
245.7655
30
0.0
0
VERTEX
8
CUT_INNER
10
45.0035
20
245.7655
30
0.0
0
VERTEX
8
CUT_INNER
10
36.9432
20
235.1677
30
0.0
0
VERTEX
8
CUT_INNER
10
41.1226
20
236.6603
30
0.0
0
VERTEX
8
CUT_INNER
10
43.6601
20
238.8993
30
0.0
0
VERTEX
8
CUT_INNER
10
46.6454
20
243.6758
30
0.0
0
VERTEX
8
CUT_INNER
10
46.9440
20
245.3177
30
0.0
0
SEQEND
8
CUT_INNER
0
POLYLINE
8
CUT_INNER
66
1
70
1
0
VERTEX
8
CUT_INNER
10
258.6024
20
247.1089
30
0.0
0
VERTEX
8
CUT_INNER
10
258.4531
20
243.3773
30
0.0
0
VERTEX
8
CUT_INNER
10
259.9457
20
239.7949
30
0.0
0
VERTEX
8
CUT_INNER
10
262.7818
20
236.3618
30
0.0
0
VERTEX
8
CUT_INNER
10
265.9164
20
234.5706
30
0.0
0
VERTEX
8
CUT_INNER
10
266.8119
20
237.1081
30
0.0
0
SEQEND
8
CUT_INNER
0
POLYLINE
8
CUT_INNER
66
1
70
1
0
VERTEX
8
CUT_INNER
10
96.7986
20
251.8854
30
0.0
0
VERTEX
8
CUT_INNER
10
87.6934
20
241.7354
30
0.0
0
VERTEX
8
CUT_INNER
10
89.1861
20
238.0037
30
0.0
0
VERTEX
8
CUT_INNER
10
93.5148
20
244.5714
30
0.0
0
SEQEND
8
CUT_INNER
0
POLYLINE
8
CUT_INNER
66
1
70
1
0
VERTEX
8
CUT_INNER
10
50.2278
20
223.9728
30
0.0
0
VERTEX
8
CUT_INNER
10
50.5263
20
223.5250
30
0.0
0
VERTEX
8
CUT_INNER
10
60.5271
20
223.2264
30
0.0
0
VERTEX
8
CUT_INNER
10
66.4977
20
222.0323
30
0.0
0
VERTEX
8
CUT_INNER
10
74.8566
20
219.0470
30
0.0
0
VERTEX
8
CUT_INNER
10
83.9618
20
214.2705
30
0.0
0
VERTEX
8
CUT_INNER
10
92.9177
20
210.6881
30
0.0
0
VERTEX
8
CUT_INNER
10
92.1714
20
209.9418
30
0.0
0
VERTEX
8
CUT_INNER
10
87.2456
20
209.0462
30
0.0
0
VERTEX
8
CUT_INNER
10
83.6633
20
207.5536
30
0.0
0
VERTEX
8
CUT_INNER
10
85.4545
20
206.8072
30
0.0
0
VERTEX
8
CUT_INNER
10
94.5596
20
206.2102
30
0.0
0
VERTEX
8
CUT_INNER
10
109.0384
20
203.8219
30
0.0
0
VERTEX
8
CUT_INNER
10
119.0392
20
203.8219
30
0.0
0
VERTEX
8
CUT_INNER
10
121.1289
20
204.5683
30
0.0
0
VERTEX
8
CUT_INNER
10
116.8002
20
206.2102
30
0.0
0
VERTEX
8
CUT_INNER
10
116.8002
20
206.8072
30
0.0
0
VERTEX
8
CUT_INNER
10
127.5473
20
209.1955
30
0.0
0
VERTEX
8
CUT_INNER
10
146.2055
20
210.0911
30
0.0
0
VERTEX
8
CUT_INNER
10
142.3246
20
212.0315
30
0.0
0
VERTEX
8
CUT_INNER
10
135.3091
20
213.2257
30
0.0
0
VERTEX
8
CUT_INNER
10
132.6223
20
215.1661
30
0.0
0
VERTEX
8
CUT_INNER
10
132.7716
20
215.9124
30
0.0
0
VERTEX
8
CUT_INNER
10
134.5628
20
216.0617
30
0.0
0
VERTEX
8
CUT_INNER
10
135.4584
20
216.8080
30
0.0
0
VERTEX
8
CUT_INNER
10
132.0253
20
220.2411
30
0.0
0
VERTEX
8
CUT_INNER
10
134.2643
20
221.5845
30
0.0
0
VERTEX
8
CUT_INNER
10
130.8311
20
225.3162
30
0.0
0
VERTEX
8
CUT_INNER
10
132.9209
20
226.5103
30
0.0
0
VERTEX
8
CUT_INNER
10
130.5326
20
229.1971
30
0.0
0
VERTEX
8
CUT_INNER
10
131.5775
20
230.8390
30
0.0
0
VERTEX
8
CUT_INNER
10
129.9356
20
233.0780
30
0.0
0
VERTEX
8
CUT_INNER
10
128.7414
20
236.6603
30
0.0
0
VERTEX
8
CUT_INNER
10
127.0995
20
232.4809
30
0.0
0
VERTEX
8
CUT_INNER
10
125.7561
20
230.8390
30
0.0
0
VERTEX
8
CUT_INNER
10
127.0995
20
229.4956
30
0.0
0
VERTEX
8
CUT_INNER
10
124.5620
20
226.6595
30
0.0
0
VERTEX
8
CUT_INNER
10
126.5024
20
225.3162
30
0.0
0
VERTEX
8
CUT_INNER
10
123.3679
20
222.1816
30
0.0
0
VERTEX
8
CUT_INNER
10
125.9054
20
220.8382
30
0.0
0
VERTEX
8
CUT_INNER
10
122.1738
20
217.4051
30
0.0
0
VERTEX
8
CUT_INNER
10
125.0098
20
215.7632
30
0.0
0
VERTEX
8
CUT_INNER
10
122.0245
20
213.8227
30
0.0
0
VERTEX
8
CUT_INNER
10
119.9348
20
213.9720
30
0.0
0
VERTEX
8
CUT_INNER
10
119.9348
20
214.7183
30
0.0
0
VERTEX
8
CUT_INNER
10
116.5017
20
217.5544
30
0.0
0
VERTEX
8
CUT_INNER
10
119.0392
20
218.8977
30
0.0
0
VERTEX
8
CUT_INNER
10
115.9046
20
221.7338
30
0.0
0
VERTEX
8
CUT_INNER
10
116.0539
20
222.4801
30
0.0
0
VERTEX
8
CUT_INNER
10
117.8451
20
223.3757
30
0.0
0
VERTEX
8
CUT_INNER
10
115.0090
20
226.2118
30
0.0
0
VERTEX
8
CUT_INNER
10
116.8002
20
227.4059
30
0.0
0
VERTEX
8
CUT_INNER
10
114.7105
20
229.4956
30
0.0
0
VERTEX
8
CUT_INNER
10
114.5612
20
230.2419
30
0.0
0
VERTEX
8
CUT_INNER
10
115.7553
20
231.1375
30
0.0
0
VERTEX
8
CUT_INNER
10
114.1134
20
233.3765
30
0.0
0
VERTEX
8
CUT_INNER
10
113.2178
20
236.3618
30
0.0
0
VERTEX
8
CUT_INNER
10
111.8744
20
233.0780
30
0.0
0
VERTEX
8
CUT_INNER
10
110.2325
20
231.1375
30
0.0
0
VERTEX
8
CUT_INNER
10
111.4266
20
230.5405
30
0.0
0
VERTEX
8
CUT_INNER
10
111.5759
20
229.7941
30
0.0
0
VERTEX
8
CUT_INNER
10
109.4862
20
227.2566
30
0.0
0
VERTEX
8
CUT_INNER
10
110.8296
20
226.6595
30
0.0
0
VERTEX
8
CUT_INNER
10
110.9788
20
225.9132
30
0.0
0
VERTEX
8
CUT_INNER
10
108.4413
20
223.3757
30
0.0
0
VERTEX
8
CUT_INNER
10
110.2325
20
222.4801
30
0.0
0
VERTEX
8
CUT_INNER
10
110.3818
20
221.7338
30
0.0
0
VERTEX
8
CUT_INNER
10
107.3965
20
219.0470
30
0.0
0
VERTEX
8
CUT_INNER
10
109.7847
20
217.5544
30
0.0
0
VERTEX
8
CUT_INNER
10
107.3965
20
215.6139
30
0.0
0
VERTEX
8
CUT_INNER
10
105.1575
20
215.7632
30
0.0
0
VERTEX
8
CUT_INNER
10
105.3068
20
216.8080
30
0.0
0
VERTEX
8
CUT_INNER
10
102.4707
20
219.3455
30
0.0
0
VERTEX
8
CUT_INNER
10
104.4112
20
220.6889
30
0.0
0
VERTEX
8
CUT_INNER
10
101.7244
20
223.3757
30
0.0
0
VERTEX
8
CUT_INNER
10
103.5156
20
224.5698
30
0.0
0
VERTEX
8
CUT_INNER
10
100.9781
20
227.1073
30
0.0
0
VERTEX
8
CUT_INNER
10
102.3214
20
228.1522
30
0.0
0
VERTEX
8
CUT_INNER
10
100.6795
20
230.0927
30
0.0
0
VERTEX
8
CUT_INNER
10
101.4259
20
231.4360
30
0.0
0
VERTEX
8
CUT_INNER
10
99.1869
20
235.4662
30
0.0
0
VERTEX
8
CUT_INNER
10
97.0972
20
231.4360
30
0.0
0
VERTEX
8
CUT_INNER
10
97.8435
20
230.0927
30
0.0
0
VERTEX
8
CUT_INNER
10
96.0523
20
228.3015
30
0.0
0
VERTEX
8
CUT_INNER
10
97.5450
20
227.1073
30
0.0
0
VERTEX
8
CUT_INNER
10
95.3060
20
224.8684
30
0.0
0
VERTEX
8
CUT_INNER
10
96.9479
20
223.5250
30
0.0
0
VERTEX
8
CUT_INNER
10
94.4104
20
220.9875
30
0.0
0
VERTEX
8
CUT_INNER
10
96.3508
20
219.6441
30
0.0
0
VERTEX
8
CUT_INNER
10
93.8133
20
219.1963
30
0.0
0
VERTEX
8
CUT_INNER
10
87.5442
20
223.8235
30
0.0
0
VERTEX
8
CUT_INNER
10
87.6934
20
224.5698
30
0.0
0
VERTEX
8
CUT_INNER
10
89.4846
20
225.4654
30
0.0
0
VERTEX
8
CUT_INNER
10
86.9471
20
227.7044
30
0.0
0
VERTEX
8
CUT_INNER
10
88.2905
20
229.3463
30
0.0
0
VERTEX
8
CUT_INNER
10
86.0515
20
231.5853
30
0.0
0
VERTEX
8
CUT_INNER
10
87.3949
20
232.6302
30
0.0
0
VERTEX
8
CUT_INNER
10
85.4545
20
234.8691
30
0.0
0
VERTEX
8
CUT_INNER
10
86.2008
20
235.9140
30
0.0
0
VERTEX
8
CUT_INNER
10
84.2603
20
239.6456
30
0.0
0
VERTEX
8
CUT_INNER
10
82.3199
20
236.0633
30
0.0
0
VERTEX
8
CUT_INNER
10
83.0662
20
235.3169
30
0.0
0
VERTEX
8
CUT_INNER
10
82.9169
20
234.5706
30
0.0
0
VERTEX
8
CUT_INNER
10
81.2750
20
232.9287
30
0.0
0
VERTEX
8
CUT_INNER
10
82.6184
20
231.5853
30
0.0
0
VERTEX
8
CUT_INNER
10
80.3794
20
229.3463
30
0.0
0
VERTEX
8
CUT_INNER
10
82.0214
20
228.0029
30
0.0
0
VERTEX
8
CUT_INNER
10
79.3346
20
225.6147
30
0.0
0
VERTEX
8
CUT_INNER
10
81.4243
20
224.1220
30
0.0
0
VERTEX
8
CUT_INNER
10
80.5287
20
223.3757
30
0.0
0
VERTEX
8
CUT_INNER
10
78.2897
20
223.0772
30
0.0
0
VERTEX
8
CUT_INNER
10
75.0059
20
224.4206
30
0.0
0
VERTEX
8
CUT_INNER
10
73.8118
20
225.9132
30
0.0
0
VERTEX
8
CUT_INNER
10
76.3493
20
226.9581
30
0.0
0
VERTEX
8
CUT_INNER
10
73.2147
20
230.3912
30
0.0
0
VERTEX
8
CUT_INNER
10
75.4537
20
231.4360
30
0.0
0
VERTEX
8
CUT_INNER
10
73.0654
20
233.8243
30
0.0
0
VERTEX
8
CUT_INNER
10
74.1103
20
235.1677
30
0.0
0
VERTEX
8
CUT_INNER
10
71.7220
20
237.2574
30
0.0
0
VERTEX
8
CUT_INNER
10
73.3640
20
238.6008
30
0.0
0
VERTEX
8
CUT_INNER
10
70.8264
20
241.4368
30
0.0
0
VERTEX
8
CUT_INNER
10
72.3191
20
242.6310
30
0.0
0
VERTEX
8
CUT_INNER
10
70.2294
20
245.0192
30
0.0
0
VERTEX
8
CUT_INNER
10
71.4235
20
246.5119
30
0.0
0
VERTEX
8
CUT_INNER
10
68.7367
20
251.8854
30
0.0
0
VERTEX
8
CUT_INNER
10
67.3933
20
248.0045
30
0.0
0
VERTEX
8
CUT_INNER
10
66.1992
20
246.5119
30
0.0
0
VERTEX
8
CUT_INNER
10
67.3933
20
245.3177
30
0.0
0
VERTEX
8
CUT_INNER
10
65.1544
20
242.4817
30
0.0
0
VERTEX
8
CUT_INNER
10
66.7963
20
241.4368
30
0.0
0
VERTEX
8
CUT_INNER
10
63.9602
20
238.3023
30
0.0
0
VERTEX
8
CUT_INNER
10
66.1992
20
236.9589
30
0.0
0
VERTEX
8
CUT_INNER
10
63.8110
20
234.4214
30
0.0
0
VERTEX
8
CUT_INNER
10
61.2735
20
236.9589
30
0.0
0
VERTEX
8
CUT_INNER
10
61.1242
20
237.7052
30
0.0
0
VERTEX
8
CUT_INNER
10
62.3183
20
238.6008
30
0.0
0
VERTEX
8
CUT_INNER
10
60.3779
20
241.1383
30
0.0
0
VERTEX
8
CUT_INNER
10
61.2735
20
242.3324
30
0.0
0
VERTEX
8
CUT_INNER
10
58.7359
20
246.8104
30
0.0
0
VERTEX
8
CUT_INNER
10
56.4970
20
242.1832
30
0.0
0
VERTEX
8
CUT_INNER
10
57.5418
20
241.1383
30
0.0
0
VERTEX
8
CUT_INNER
10
55.4521
20
238.7500
30
0.0
0
VERTEX
8
CUT_INNER
10
56.9448
20
237.5559
30
0.0
0
VERTEX
8
CUT_INNER
10
54.4072
20
235.0184
30
0.0
0
VERTEX
8
CUT_INNER
10
56.0492
20
233.6750
30
0.0
0
VERTEX
8
CUT_INNER
10
53.6609
20
230.9882
30
0.0
0
VERTEX
8
CUT_INNER
10
55.7506
20
229.4956
30
0.0
0
SEQEND
8
CUT_INNER
0
POLYLINE
8
CUT_INNER
66
1
70
1
0
VERTEX
8
CUT_INNER
10
58.5867
20
257.2590
30
0.0
0
VERTEX
8
CUT_INNER
10
56.9448
20
258.0053
30
0.0
0
VERTEX
8
CUT_INNER
10
47.3918
20
248.4523
30
0.0
0
VERTEX
8
CUT_INNER
10
50.6756
20
248.9001
30
0.0
0
VERTEX
8
CUT_INNER
10
54.2580
20
250.9898
30
0.0
0
VERTEX
8
CUT_INNER
10
57.0940
20
254.1244
30
0.0
0
SEQEND
8
CUT_INNER
0
POLYLINE
8
CUT_INNER
66
1
70
1
0
VERTEX
8
CUT_INNER
10
246.9596
20
258.7516
30
0.0
0
VERTEX
8
CUT_INNER
10
247.1089
20
255.6170
30
0.0
0
VERTEX
8
CUT_INNER
10
248.9001
20
252.0347
30
0.0
0
VERTEX
8
CUT_INNER
10
252.0347
20
248.9001
30
0.0
0
VERTEX
8
CUT_INNER
10
255.4678
20
247.4074
30
0.0
0
VERTEX
8
CUT_INNER
10
256.2141
20
249.7957
30
0.0
0
SEQEND
8
CUT_INNER
0
POLYLINE
8
CUT_INNER
66
1
70
1
0
VERTEX
8
CUT_INNER
10
72.0206
20
268.0061
30
0.0
0
VERTEX
8
CUT_INNER
10
70.3786
20
268.7524
30
0.0
0
VERTEX
8
CUT_INNER
10
59.7808
20
260.3935
30
0.0
0
VERTEX
8
CUT_INNER
10
62.0198
20
260.2443
30
0.0
0
VERTEX
8
CUT_INNER
10
66.4977
20
261.7369
30
0.0
0
VERTEX
8
CUT_INNER
10
70.8264
20
265.4686
30
0.0
0
SEQEND
8
CUT_INNER
0
POLYLINE
8
CUT_INNER
66
1
70
1
0
VERTEX
8
CUT_INNER
10
233.6750
20
268.9017
30
0.0
0
VERTEX
8
CUT_INNER
10
234.8691
20
265.1700
30
0.0
0
VERTEX
8
CUT_INNER
10
238.3023
20
261.4384
30
0.0
0
VERTEX
8
CUT_INNER
10
243.3773
20
258.7516
30
0.0
0
VERTEX
8
CUT_INNER
10
244.2729
20
259.4979
30
0.0
0
VERTEX
8
CUT_INNER
10
244.2729
20
260.9906
30
0.0
0
SEQEND
8
CUT_INNER
0
POLYLINE
8
CUT_INNER
66
1
70
1
0
VERTEX
8
CUT_INNER
10
198.0006
20
268.7524
30
0.0
0
VERTEX
8
CUT_INNER
10
197.1050
20
267.7075
30
0.0
0
VERTEX
8
CUT_INNER
10
209.6433
20
256.2141
30
0.0
0
VERTEX
8
CUT_INNER
10
202.0308
20
252.0347
30
0.0
0
VERTEX
8
CUT_INNER
10
197.2543
20
254.4229
30
0.0
0
VERTEX
8
CUT_INNER
10
195.3138
20
253.8259
30
0.0
0
VERTEX
8
CUT_INNER
10
194.8660
20
252.9303
30
0.0
0
VERTEX
8
CUT_INNER
10
198.2991
20
249.7957
30
0.0
0
VERTEX
8
CUT_INNER
10
197.1050
20
248.3030
30
0.0
0
VERTEX
8
CUT_INNER
10
197.7021
20
247.7060
30
0.0
0
VERTEX
8
CUT_INNER
10
199.7918
20
247.5567
30
0.0
0
VERTEX
8
CUT_INNER
10
200.8366
20
244.5714
30
0.0
0
VERTEX
8
CUT_INNER
10
201.7322
20
243.8251
30
0.0
0
VERTEX
8
CUT_INNER
10
203.3741
20
245.1685
30
0.0
0
VERTEX
8
CUT_INNER
10
203.9712
20
248.4523
30
0.0
0
VERTEX
8
CUT_INNER
10
213.2257
20
251.4376
30
0.0
0
VERTEX
8
CUT_INNER
10
219.3455
20
239.1978
30
0.0
0
VERTEX
8
CUT_INNER
10
220.5397
20
239.3471
30
0.0
0
VERTEX
8
CUT_INNER
10
221.8831
20
240.6905
30
0.0
0
VERTEX
8
CUT_INNER
10
221.5845
20
255.1692
30
0.0
0
VERTEX
8
CUT_INNER
10
228.3015
20
258.4531
30
0.0
0
VERTEX
8
CUT_INNER
10
229.9434
20
260.0950
30
0.0
0
VERTEX
8
CUT_INNER
10
230.2419
20
261.7369
30
0.0
0
VERTEX
8
CUT_INNER
10
228.6000
20
262.7818
30
0.0
0
VERTEX
8
CUT_INNER
10
224.8684
20
262.7818
30
0.0
0
VERTEX
8
CUT_INNER
10
218.3007
20
260.3935
30
0.0
0
VERTEX
8
CUT_INNER
10
201.1352
20
268.7524
30
0.0
0
SEQEND
8
CUT_INNER
0
POLYLINE
8
CUT_INNER
66
1
70
1
0
VERTEX
8
CUT_INNER
10
71.8713
20
249.7957
30
0.0
0
VERTEX
8
CUT_INNER
10
72.7669
20
248.6016
30
0.0
0
VERTEX
8
CUT_INNER
10
80.3794
20
258.0053
30
0.0
0
VERTEX
8
CUT_INNER
10
81.1258
20
257.8560
30
0.0
0
VERTEX
8
CUT_INNER
10
81.7228
20
253.0795
30
0.0
0
VERTEX
8
CUT_INNER
10
78.4390
20
249.4972
30
0.0
0
VERTEX
8
CUT_INNER
10
75.4537
20
241.2876
30
0.0
0
VERTEX
8
CUT_INNER
10
77.6927
20
238.6008
30
0.0
0
VERTEX
8
CUT_INNER
10
82.6184
20
244.4221
30
0.0
0
VERTEX
8
CUT_INNER
10
84.5589
20
243.9743
30
0.0
0
VERTEX
8
CUT_INNER
10
89.6339
20
250.8405
30
0.0
0
VERTEX
8
CUT_INNER
10
92.6192
20
256.5126
30
0.0
0
VERTEX
8
CUT_INNER
10
94.7089
20
257.1097
30
0.0
0
VERTEX
8
CUT_INNER
10
97.0972
20
261.5877
30
0.0
0
VERTEX
8
CUT_INNER
10
103.0678
20
269.4987
30
0.0
0
VERTEX
8
CUT_INNER
10
103.8141
20
268.7524
30
0.0
0
VERTEX
8
CUT_INNER
10
103.5156
20
263.9759
30
0.0
0
VERTEX
8
CUT_INNER
10
106.2024
20
260.3935
30
0.0
0
VERTEX
8
CUT_INNER
10
103.5156
20
259.6472
30
0.0
0
VERTEX
8
CUT_INNER
10
102.9185
20
253.3781
30
0.0
0
VERTEX
8
CUT_INNER
10
99.9332
20
248.9001
30
0.0
0
VERTEX
8
CUT_INNER
10
97.2464
20
239.4964
30
0.0
0
VERTEX
8
CUT_INNER
10
103.8141
20
246.5119
30
0.0
0
VERTEX
8
CUT_INNER
10
105.3068
20
244.8699
30
0.0
0
VERTEX
8
CUT_INNER
10
109.1877
20
236.8096
30
0.0
0
VERTEX
8
CUT_INNER
10
112.9193
20
243.6758
30
0.0
0
VERTEX
8
CUT_INNER
10
113.8149
20
243.8251
30
0.0
0
VERTEX
8
CUT_INNER
10
117.3973
20
236.9589
30
0.0
0
VERTEX
8
CUT_INNER
10
116.6509
20
235.3169
30
0.0
0
VERTEX
8
CUT_INNER
10
119.1884
20
231.2868
30
0.0
0
VERTEX
8
CUT_INNER
10
123.0693
20
235.9140
30
0.0
0
VERTEX
8
CUT_INNER
10
125.4576
20
237.7052
30
0.0
0
VERTEX
8
CUT_INNER
10
128.8907
20
242.4817
30
0.0
0
VERTEX
8
CUT_INNER
10
132.3238
20
237.8545
30
0.0
0
VERTEX
8
CUT_INNER
10
137.9959
20
235.1677
30
0.0
0
VERTEX
8
CUT_INNER
10
138.7422
20
235.4662
30
0.0
0
VERTEX
8
CUT_INNER
10
129.4878
20
247.5567
30
0.0
0
VERTEX
8
CUT_INNER
10
127.9951
20
246.8104
30
0.0
0
VERTEX
8
CUT_INNER
10
126.9502
20
247.7060
30
0.0
0
VERTEX
8
CUT_INNER
10
119.3377
20
258.6024
30
0.0
0
VERTEX
8
CUT_INNER
10
117.9943
20
257.5575
30
0.0
0
VERTEX
8
CUT_INNER
10
119.6362
20
255.4678
30
0.0
0
VERTEX
8
CUT_INNER
10
119.3377
20
253.5273
30
0.0
0
VERTEX
8
CUT_INNER
10
121.7260
20
246.0641
30
0.0
0
VERTEX
8
CUT_INNER
10
120.9796
20
245.9148
30
0.0
0
VERTEX
8
CUT_INNER
10
115.6061
20
252.1839
30
0.0
0
VERTEX
8
CUT_INNER
10
117.0987
20
253.9751
30
0.0
0
VERTEX
8
CUT_INNER
10
115.4568
20
256.0648
30
0.0
0
VERTEX
8
CUT_INNER
10
115.4568
20
257.4082
30
0.0
0
VERTEX
8
CUT_INNER
10
103.5156
20
273.8274
30
0.0
0
VERTEX
8
CUT_INNER
10
93.9626
20
259.6472
30
0.0
0
VERTEX
8
CUT_INNER
10
92.6192
20
259.7965
30
0.0
0
VERTEX
8
CUT_INNER
10
88.1412
20
253.2288
30
0.0
0
VERTEX
8
CUT_INNER
10
87.2456
20
253.3781
30
0.0
0
VERTEX
8
CUT_INNER
10
80.9765
20
262.1847
30
0.0
0
SEQEND
8
CUT_INNER
0
POLYLINE
8
CUT_INNER
66
1
70
1
0
VERTEX
8
CUT_INNER
10
116.5017
20
274.7230
30
0.0
0
VERTEX
8
CUT_INNER
10
122.3230
20
270.2451
30
0.0
0
VERTEX
8
CUT_INNER
10
123.3679
20
268.6031
30
0.0
0
VERTEX
8
CUT_INNER
10
122.0245
20
267.4090
30
0.0
0
VERTEX
8
CUT_INNER
10
122.4723
20
266.8119
30
0.0
0
VERTEX
8
CUT_INNER
10
126.2039
20
265.6178
30
0.0
0
VERTEX
8
CUT_INNER
10
126.2039
20
267.1105
30
0.0
0
VERTEX
8
CUT_INNER
10
127.5473
20
267.7075
30
0.0
0
VERTEX
8
CUT_INNER
10
130.3833
20
268.0061
30
0.0
0
VERTEX
8
CUT_INNER
10
134.2643
20
267.4090
30
0.0
0
VERTEX
8
CUT_INNER
10
130.0848
20
269.6480
30
0.0
0
VERTEX
8
CUT_INNER
10
125.1591
20
269.6480
30
0.0
0
VERTEX
8
CUT_INNER
10
121.4274
20
273.5289
30
0.0
0
SEQEND
8
CUT_INNER
0
POLYLINE
8
CUT_INNER
66
1
70
1
0
VERTEX
8
CUT_INNER
10
86.3500
20
276.9620
30
0.0
0
VERTEX
8
CUT_INNER
10
84.8574
20
277.7083
30
0.0
0
VERTEX
8
CUT_INNER
10
73.5132
20
270.8421
30
0.0
0
VERTEX
8
CUT_INNER
10
79.3346
20
270.9914
30
0.0
0
VERTEX
8
CUT_INNER
10
83.5140
20
273.3796
30
0.0
0
VERTEX
8
CUT_INNER
10
86.0515
20
275.9171
30
0.0
0
SEQEND
8
CUT_INNER
0
POLYLINE
8
CUT_INNER
66
1
70
1
0
VERTEX
8
CUT_INNER
10
219.1963
20
277.8576
30
0.0
0
VERTEX
8
CUT_INNER
10
220.2411
20
275.3201
30
0.0
0
VERTEX
8
CUT_INNER
10
223.6742
20
271.8870
30
0.0
0
VERTEX
8
CUT_INNER
10
228.7493
20
269.4987
30
0.0
0
VERTEX
8
CUT_INNER
10
230.2419
20
269.3495
30
0.0
0
VERTEX
8
CUT_INNER
10
230.8390
20
269.9465
30
0.0
0
VERTEX
8
CUT_INNER
10
230.6897
20
271.2899
30
0.0
0
SEQEND
8
CUT_INNER
0
POLYLINE
8
CUT_INNER
66
1
70
1
0
VERTEX
8
CUT_INNER
10
139.9363
20
281.2907
30
0.0
0
VERTEX
8
CUT_INNER
10
137.1003
20
281.2907
30
0.0
0
VERTEX
8
CUT_INNER
10
133.6672
20
278.3054
30
0.0
0
VERTEX
8
CUT_INNER
10
128.7414
20
278.9024
30
0.0
0
VERTEX
8
CUT_INNER
10
126.6517
20
277.2605
30
0.0
0
VERTEX
8
CUT_INNER
10
131.5775
20
276.9620
30
0.0
0
VERTEX
8
CUT_INNER
10
132.3238
20
275.1708
30
0.0
0
VERTEX
8
CUT_INNER
10
136.0554
20
275.4693
30
0.0
0
VERTEX
8
CUT_INNER
10
136.6525
20
276.2157
30
0.0
0
VERTEX
8
CUT_INNER
10
135.6076
20
276.9620
30
0.0
0
VERTEX
8
CUT_INNER
10
135.6076
20
277.7083
30
0.0
0
VERTEX
8
CUT_INNER
10
137.1003
20
279.4995
30
0.0
0
SEQEND
8
CUT_INNER
0
POLYLINE
8
CUT_INNER
66
1
70
1
0
VERTEX
8
CUT_INNER
10
101.5751
20
283.8282
30
0.0
0
VERTEX
8
CUT_INNER
10
99.9332
20
284.7238
30
0.0
0
VERTEX
8
CUT_INNER
10
88.4398
20
279.4995
30
0.0
0
VERTEX
8
CUT_INNER
10
90.2310
20
278.7532
30
0.0
0
VERTEX
8
CUT_INNER
10
94.8582
20
279.0517
30
0.0
0
VERTEX
8
CUT_INNER
10
99.6347
20
281.4400
30
0.0
0
SEQEND
8
CUT_INNER
0
POLYLINE
8
CUT_INNER
66
1
70
1
0
VERTEX
8
CUT_INNER
10
203.2249
20
285.1716
30
0.0
0
VERTEX
8
CUT_INNER
10
204.7175
20
282.7833
30
0.0
0
VERTEX
8
CUT_INNER
10
207.5536
20
280.2458
30
0.0
0
VERTEX
8
CUT_INNER
10
214.1213
20
277.8576
30
0.0
0
VERTEX
8
CUT_INNER
10
215.4646
20
277.8576
30
0.0
0
VERTEX
8
CUT_INNER
10
216.2110
20
278.6039
30
0.0
0
VERTEX
8
CUT_INNER
10
215.6139
20
279.9473
30
0.0
0
SEQEND
8
CUT_INNER
0
POLYLINE
8
CUT_INNER
66
1
70
1
0
VERTEX
8
CUT_INNER
10
175.7600
20
285.4701
30
0.0
0
VERTEX
8
CUT_INNER
10
169.9387
20
285.4701
30
0.0
0
VERTEX
8
CUT_INNER
10
165.1622
20
284.5745
30
0.0
0
VERTEX
8
CUT_INNER
10
156.2063
20
281.2907
30
0.0
0
VERTEX
8
CUT_INNER
10
147.8474
20
276.2157
30
0.0
0
VERTEX
8
CUT_INNER
10
139.3393
20
268.0061
30
0.0
0
VERTEX
8
CUT_INNER
10
139.3393
20
266.9612
30
0.0
0
VERTEX
8
CUT_INNER
10
140.3841
20
265.6178
30
0.0
0
VERTEX
8
CUT_INNER
10
143.0709
20
264.5730
30
0.0
0
VERTEX
8
CUT_INNER
10
144.7128
20
262.9310
30
0.0
0
VERTEX
8
CUT_INNER
10
144.7128
20
258.3038
30
0.0
0
VERTEX
8
CUT_INNER
10
146.2055
20
255.3185
30
0.0
0
VERTEX
8
CUT_INNER
10
145.0114
20
252.6317
30
0.0
0
VERTEX
8
CUT_INNER
10
146.9518
20
251.7361
30
0.0
0
VERTEX
8
CUT_INNER
10
147.1011
20
249.9450
30
0.0
0
VERTEX
8
CUT_INNER
10
149.7879
20
248.1538
30
0.0
0
VERTEX
8
CUT_INNER
10
149.7879
20
245.7655
30
0.0
0
VERTEX
8
CUT_INNER
10
147.8474
20
245.4670
30
0.0
0
VERTEX
8
CUT_INNER
10
147.1011
20
244.4221
30
0.0
0
VERTEX
8
CUT_INNER
10
145.6084
20
238.4515
30
0.0
0
VERTEX
8
CUT_INNER
10
139.3393
20
230.2419
30
0.0
0
VERTEX
8
CUT_INNER
10
140.0856
20
229.4956
30
0.0
0
VERTEX
8
CUT_INNER
10
149.7879
20
225.9132
30
0.0
0
VERTEX
8
CUT_INNER
10
155.4599
20
222.7786
30
0.0
0
VERTEX
8
CUT_INNER
10
162.9232
20
217.4051
30
0.0
0
VERTEX
8
CUT_INNER
10
171.8791
20
209.0462
30
0.0
0
VERTEX
8
CUT_INNER
10
176.2078
20
216.5095
30
0.0
0
VERTEX
8
CUT_INNER
10
182.6262
20
225.4654
30
0.0
0
VERTEX
8
CUT_INNER
10
179.0439
20
229.6449
30
0.0
0
VERTEX
8
CUT_INNER
10
171.4313
20
236.0633
30
0.0
0
VERTEX
8
CUT_INNER
10
171.8791
20
236.3618
30
0.0
0
VERTEX
8
CUT_INNER
10
176.9542
20
234.5706
30
0.0
0
VERTEX
8
CUT_INNER
10
177.7005
20
235.1677
30
0.0
0
VERTEX
8
CUT_INNER
10
178.7453
20
234.8691
30
0.0
0
VERTEX
8
CUT_INNER
10
180.6858
20
236.5111
30
0.0
0
VERTEX
8
CUT_INNER
10
181.2829
20
240.2427
30
0.0
0
VERTEX
8
CUT_INNER
10
180.3873
20
241.7354
30
0.0
0
VERTEX
8
CUT_INNER
10
180.6858
20
242.9295
30
0.0
0
VERTEX
8
CUT_INNER
10
179.4917
20
244.4221
30
0.0
0
VERTEX
8
CUT_INNER
10
179.9395
20
245.0192
30
0.0
0
VERTEX
8
CUT_INNER
10
183.3726
20
241.7354
30
0.0
0
VERTEX
8
CUT_INNER
10
187.7013
20
240.8398
30
0.0
0
VERTEX
8
CUT_INNER
10
189.9403
20
242.1832
30
0.0
0
VERTEX
8
CUT_INNER
10
191.1344
20
245.4670
30
0.0
0
VERTEX
8
CUT_INNER
10
191.1344
20
247.4074
30
0.0
0
VERTEX
8
CUT_INNER
10
190.0895
20
249.0494
30
0.0
0
VERTEX
8
CUT_INNER
10
185.1638
20
249.0494
30
0.0
0
VERTEX
8
CUT_INNER
10
184.7160
20
245.4670
30
0.0
0
VERTEX
8
CUT_INNER
10
184.1189
20
245.0192
30
0.0
0
VERTEX
8
CUT_INNER
10
179.9395
20
248.1538
30
0.0
0
VERTEX
8
CUT_INNER
10
176.9542
20
249.0494
30
0.0
0
VERTEX
8
CUT_INNER
10
179.7902
20
250.8405
30
0.0
0
VERTEX
8
CUT_INNER
10
179.7902
20
251.8854
30
0.0
0
VERTEX
8
CUT_INNER
10
178.2976
20
253.6766
30
0.0
0
VERTEX
8
CUT_INNER
10
180.9843
20
255.7663
30
0.0
0
VERTEX
8
CUT_INNER
10
176.5064
20
261.4384
30
0.0
0
VERTEX
8
CUT_INNER
10
177.4020
20
263.3788
30
0.0
0
VERTEX
8
CUT_INNER
10
176.8049
20
265.3193
30
0.0
0
VERTEX
8
CUT_INNER
10
183.8204
20
266.8119
30
0.0
0
VERTEX
8
CUT_INNER
10
185.1638
20
268.3046
30
0.0
0
VERTEX
8
CUT_INNER
10
182.3277
20
269.6480
30
0.0
0
VERTEX
8
CUT_INNER
10
176.5064
20
270.5436
30
0.0
0
VERTEX
8
CUT_INNER
10
175.7600
20
271.1406
30
0.0
0
VERTEX
8
CUT_INNER
10
176.2078
20
273.0811
30
0.0
0
VERTEX
8
CUT_INNER
10
175.3122
20
273.9767
30
0.0
0
VERTEX
8
CUT_INNER
10
175.3122
20
275.6186
30
0.0
0
VERTEX
8
CUT_INNER
10
178.2976
20
281.8878
30
0.0
0
VERTEX
8
CUT_INNER
10
178.2976
20
283.8282
30
0.0
0
SEQEND
8
CUT_INNER
0
POLYLINE
8
CUT_INNER
66
1
70
1
0
VERTEX
8
CUT_INNER
10
117.9943
20
288.9032
30
0.0
0
VERTEX
8
CUT_INNER
10
116.3524
20
290.0974
30
0.0
0
VERTEX
8
CUT_INNER
10
103.8141
20
286.0672
30
0.0
0
VERTEX
8
CUT_INNER
10
106.3516
20
285.0223
30
0.0
0
VERTEX
8
CUT_INNER
10
110.9788
20
285.0223
30
0.0
0
VERTEX
8
CUT_INNER
10
115.7553
20
286.8135
30
0.0
0
SEQEND
8
CUT_INNER
0
POLYLINE
8
CUT_INNER
66
1
70
1
0
VERTEX
8
CUT_INNER
10
187.4027
20
290.0974
30
0.0
0
VERTEX
8
CUT_INNER
10
190.2388
20
286.8135
30
0.0
0
VERTEX
8
CUT_INNER
10
192.6270
20
285.6194
30
0.0
0
VERTEX
8
CUT_INNER
10
195.9109
20
284.7238
30
0.0
0
VERTEX
8
CUT_INNER
10
198.8962
20
284.5745
30
0.0
0
VERTEX
8
CUT_INNER
10
200.3888
20
285.1716
30
0.0
0
VERTEX
8
CUT_INNER
10
200.0903
20
286.3657
30
0.0
0
SEQEND
8
CUT_INNER
0
POLYLINE
8
CUT_INNER
66
1
70
1
0
VERTEX
8
CUT_INNER
10
135.0106
20
291.5900
30
0.0
0
VERTEX
8
CUT_INNER
10
132.6223
20
293.3812
30
0.0
0
VERTEX
8
CUT_INNER
10
119.9348
20
290.8437
30
0.0
0
VERTEX
8
CUT_INNER
10
123.6664
20
289.2018
30
0.0
0
VERTEX
8
CUT_INNER
10
127.0995
20
288.9032
30
0.0
0
VERTEX
8
CUT_INNER
10
133.6672
20
290.3959
30
0.0
0
SEQEND
8
CUT_INNER
0
POLYLINE
8
CUT_INNER
66
1
70
1
0
VERTEX
8
CUT_INNER
10
170.5357
20
293.3812
30
0.0
0
VERTEX
8
CUT_INNER
10
172.9240
20
290.9929
30
0.0
0
VERTEX
8
CUT_INNER
10
176.2078
20
289.5003
30
0.0
0
VERTEX
8
CUT_INNER
10
181.4321
20
288.9032
30
0.0
0
VERTEX
8
CUT_INNER
10
183.5218
20
289.2018
30
0.0
0
VERTEX
8
CUT_INNER
10
184.2682
20
289.9481
30
0.0
0
VERTEX
8
CUT_INNER
10
183.5218
20
291.2915
30
0.0
0
SEQEND
8
CUT_INNER
0
POLYLINE
8
CUT_INNER
66
1
70
1
0
VERTEX
8
CUT_INNER
10
153.5195
20
294.5753
30
0.0
0
VERTEX
8
CUT_INNER
10
156.5048
20
292.1871
30
0.0
0
VERTEX
8
CUT_INNER
10
159.4901
20
291.2915
30
0.0
0
VERTEX
8
CUT_INNER
10
165.0129
20
291.2915
30
0.0
0
VERTEX
8
CUT_INNER
10
167.5504
20
292.6349
30
0.0
0
VERTEX
8
CUT_INNER
10
166.9534
20
293.9783
30
0.0
0
SEQEND
8
CUT_INNER
0
POLYLINE
8
CUT_INNER
66
1
70
1
0
VERTEX
8
CUT_INNER
10
150.8327
20
293.2319
30
0.0
0
VERTEX
8
CUT_INNER
10
149.7879
20
294.7246
30
0.0
0
VERTEX
8
CUT_INNER
10
136.8018
20
293.6797
30
0.0
0
VERTEX
8
CUT_INNER
10
140.9812
20
291.2915
30
0.0
0
VERTEX
8
CUT_INNER
10
146.5040
20
291.2915
30
0.0
0
VERTEX
8
CUT_INNER
10
148.8923
20
291.8885
30
0.0
0
SEQEND
8
CUT_INNER
0
ENDSEC
0
EOF
