0
SECTION
2
HEADER
9
$ACADVER
1
AC1009
9
$INSUNITS
70
4
0
ENDSEC
0
SECTION
2
ENTITIES
0
POLYLINE
8
ALIGN
66
1
70
1
0
VERTEX
8
ALIGN
10
304.8000
20
152.4000
30
0.0
0
VERTEX
8
ALIGN
10
304.7942
20
151.0701
30
0.0
0
VERTEX
8
ALIGN
10
304.7768
20
149.7403
30
0.0
0
VERTEX
8
ALIGN
10
304.7478
20
148.4106
30
0.0
0
VERTEX
8
ALIGN
10
304.7072
20
147.0813
30
0.0
0
VERTEX
8
ALIGN
10
304.6549
20
145.7524
30
0.0
0
VERTEX
8
ALIGN
10
304.5911
20
144.4240
30
0.0
0
VERTEX
8
ALIGN
10
304.5157
20
143.0962
30
0.0
0
VERTEX
8
ALIGN
10
304.4288
20
141.7691
30
0.0
0
VERTEX
8
ALIGN
10
304.3302
20
140.4428
30
0.0
0
VERTEX
8
ALIGN
10
304.2201
20
139.1175
30
0.0
0
VERTEX
8
ALIGN
10
304.0984
20
137.7931
30
0.0
0
VERTEX
8
ALIGN
10
303.9651
20
136.4699
30
0.0
0
VERTEX
8
ALIGN
10
303.8204
20
135.1478
30
0.0
0
VERTEX
8
ALIGN
10
303.6640
20
133.8271
30
0.0
0
VERTEX
8
ALIGN
10
303.4962
20
132.5078
30
0.0
0
VERTEX
8
ALIGN
10
303.3169
20
131.1900
30
0.0
0
VERTEX
8
ALIGN
10
303.1260
20
129.8738
30
0.0
0
VERTEX
8
ALIGN
10
302.9237
20
128.5594
30
0.0
0
VERTEX
8
ALIGN
10
302.7099
20
127.2467
30
0.0
0
VERTEX
8
ALIGN
10
302.4847
20
125.9360
30
0.0
0
VERTEX
8
ALIGN
10
302.2480
20
124.6273
30
0.0
0
VERTEX
8
ALIGN
10
302.0000
20
123.3207
30
0.0
0
VERTEX
8
ALIGN
10
301.7405
20
122.0163
30
0.0
0
VERTEX
8
ALIGN
10
301.4697
20
120.7143
30
0.0
0
VERTEX
8
ALIGN
10
301.1875
20
119.4146
30
0.0
0
VERTEX
8
ALIGN
10
300.8940
20
118.1175
30
0.0
0
VERTEX
8
ALIGN
10
300.5892
20
116.8229
30
0.0
0
VERTEX
8
ALIGN
10
300.2731
20
115.5311
30
0.0
0
VERTEX
8
ALIGN
10
299.9457
20
114.2421
30
0.0
0
VERTEX
8
ALIGN
10
299.6071
20
112.9560
30
0.0
0
VERTEX
8
ALIGN
10
299.2573
20
111.6729
30
0.0
0
VERTEX
8
ALIGN
10
298.8963
20
110.3929
30
0.0
0
VERTEX
8
ALIGN
10
298.5241
20
109.1161
30
0.0
0
VERTEX
8
ALIGN
10
298.1408
20
107.8426
30
0.0
0
VERTEX
8
ALIGN
10
297.7465
20
106.5724
30
0.0
0
VERTEX
8
ALIGN
10
297.3410
20
105.3058
30
0.0
0
VERTEX
8
ALIGN
10
296.9245
20
104.0428
30
0.0
0
VERTEX
8
ALIGN
10
296.4970
20
102.7834
30
0.0
0
VERTEX
8
ALIGN
10
296.0586
20
101.5278
30
0.0
0
VERTEX
8
ALIGN
10
295.6092
20
100.2761
30
0.0
0
VERTEX
8
ALIGN
10
295.1488
20
99.0284
30
0.0
0
VERTEX
8
ALIGN
10
294.6777
20
97.7847
30
0.0
0
VERTEX
8
ALIGN
10
294.1956
20
96.5452
30
0.0
0
VERTEX
8
ALIGN
10
293.7028
20
95.3100
30
0.0
0
VERTEX
8
ALIGN
10
293.1992
20
94.0790
30
0.0
0
VERTEX
8
ALIGN
10
292.6849
20
92.8526
30
0.0
0
VERTEX
8
ALIGN
10
292.1600
20
91.6306
30
0.0
0
VERTEX
8
ALIGN
10
291.6243
20
90.4133
30
0.0
0
VERTEX
8
ALIGN
10
291.0781
20
89.2007
30
0.0
0
VERTEX
8
ALIGN
10
290.5213
20
87.9930
30
0.0
0
VERTEX
8
ALIGN
10
289.9540
20
86.7901
30
0.0
0
VERTEX
8
ALIGN
10
289.3762
20
85.5922
30
0.0
0
VERTEX
8
ALIGN
10
288.7880
20
84.3995
30
0.0
0
VERTEX
8
ALIGN
10
288.1894
20
83.2118
30
0.0
0
VERTEX
8
ALIGN
10
287.5805
20
82.0295
30
0.0
0
VERTEX
8
ALIGN
10
286.9612
20
80.8525
30
0.0
0
VERTEX
8
ALIGN
10
286.3317
20
79.6810
30
0.0
0
VERTEX
8
ALIGN
10
285.6920
20
78.5150
30
0.0
0
VERTEX
8
ALIGN
10
285.0422
20
77.3546
30
0.0
0
VERTEX
8
ALIGN
10
284.3823
20
76.2000
30
0.0
0
VERTEX
8
ALIGN
10
283.7123
20
75.0512
30
0.0
0
VERTEX
8
ALIGN
10
283.0323
20
73.9082
30
0.0
0
VERTEX
8
ALIGN
10
282.3424
20
72.7712
30
0.0
0
VERTEX
8
ALIGN
10
281.6425
20
71.6403
30
0.0
0
VERTEX
8
ALIGN
10
280.9329
20
70.5155
30
0.0
0
VERTEX
8
ALIGN
10
280.2134
20
69.3970
30
0.0
0
VERTEX
8
ALIGN
10
279.4842
20
68.2848
30
0.0
0
VERTEX
8
ALIGN
10
278.7453
20
67.1790
30
0.0
0
VERTEX
8
ALIGN
10
277.9968
20
66.0797
30
0.0
0
VERTEX
8
ALIGN
10
277.2388
20
64.9870
30
0.0
0
VERTEX
8
ALIGN
10
276.4712
20
63.9009
30
0.0
0
VERTEX
8
ALIGN
10
275.6942
20
62.8215
30
0.0
0
VERTEX
8
ALIGN
10
274.9078
20
61.7490
30
0.0
0
VERTEX
8
ALIGN
10
274.1121
20
60.6834
30
0.0
0
VERTEX
8
ALIGN
10
273.3070
20
59.6248
30
0.0
0
VERTEX
8
ALIGN
10
272.4928
20
58.5732
30
0.0
0
VERTEX
8
ALIGN
10
271.6695
20
57.5288
30
0.0
0
VERTEX
8
ALIGN
10
270.8370
20
56.4916
30
0.0
0
VERTEX
8
ALIGN
10
269.9956
20
55.4617
30
0.0
0
VERTEX
8
ALIGN
10
269.1452
20
54.4392
30
0.0
0
VERTEX
8
ALIGN
10
268.2859
20
53.4241
30
0.0
0
VERTEX
8
ALIGN
10
267.4177
20
52.4166
30
0.0
0
VERTEX
8
ALIGN
10
266.5409
20
51.4167
30
0.0
0
VERTEX
8
ALIGN
10
265.6553
20
50.4245
30
0.0
0
VERTEX
8
ALIGN
10
264.7611
20
49.4401
30
0.0
0
VERTEX
8
ALIGN
10
263.8583
20
48.4634
30
0.0
0
VERTEX
8
ALIGN
10
262.9471
20
47.4948
30
0.0
0
VERTEX
8
ALIGN
10
262.0274
20
46.5341
30
0.0
0
VERTEX
8
ALIGN
10
261.0994
20
45.5814
30
0.0
0
VERTEX
8
ALIGN
10
260.1631
20
44.6369
30
0.0
0
VERTEX
8
ALIGN
10
259.2186
20
43.7006
30
0.0
0
VERTEX
8
ALIGN
10
258.2659
20
42.7726
30
0.0
0
VERTEX
8
ALIGN
10
257.3052
20
41.8529
30
0.0
0
VERTEX
8
ALIGN
10
256.3366
20
40.9417
30
0.0
0
VERTEX
8
ALIGN
10
255.3599
20
40.0389
30
0.0
0
VERTEX
8
ALIGN
10
254.3755
20
39.1447
30
0.0
0
VERTEX
8
ALIGN
10
253.3833
20
38.2591
30
0.0
0
VERTEX
8
ALIGN
10
252.3834
20
37.3823
30
0.0
0
VERTEX
8
ALIGN
10
251.3759
20
36.5141
30
0.0
0
VERTEX
8
ALIGN
10
250.3608
20
35.6548
30
0.0
0
VERTEX
8
ALIGN
10
249.3383
20
34.8044
30
0.0
0
VERTEX
8
ALIGN
10
248.3084
20
33.9630
30
0.0
0
VERTEX
8
ALIGN
10
247.2712
20
33.1305
30
0.0
0
VERTEX
8
ALIGN
10
246.2268
20
32.3072
30
0.0
0
VERTEX
8
ALIGN
10
245.1752
20
31.4930
30
0.0
0
VERTEX
8
ALIGN
10
244.1166
20
30.6879
30
0.0
0
VERTEX
8
ALIGN
10
243.0510
20
29.8922
30
0.0
0
VERTEX
8
ALIGN
10
241.9785
20
29.1058
30
0.0
0
VERTEX
8
ALIGN
10
240.8991
20
28.3288
30
0.0
0
VERTEX
8
ALIGN
10
239.8130
20
27.5612
30
0.0
0
VERTEX
8
ALIGN
10
238.7203
20
26.8032
30
0.0
0
VERTEX
8
ALIGN
10
237.6210
20
26.0547
30
0.0
0
VERTEX
8
ALIGN
10
236.5152
20
25.3158
30
0.0
0
VERTEX
8
ALIGN
10
235.4030
20
24.5866
30
0.0
0
VERTEX
8
ALIGN
10
234.2845
20
23.8671
30
0.0
0
VERTEX
8
ALIGN
10
233.1597
20
23.1575
30
0.0
0
VERTEX
8
ALIGN
10
232.0288
20
22.4576
30
0.0
0
VERTEX
8
ALIGN
10
230.8918
20
21.7677
30
0.0
0
VERTEX
8
ALIGN
10
229.7488
20
21.0877
30
0.0
0
VERTEX
8
ALIGN
10
228.6000
20
20.4177
30
0.0
0
VERTEX
8
ALIGN
10
227.4454
20
19.7578
30
0.0
0
VERTEX
8
ALIGN
10
226.2850
20
19.1080
30
0.0
0
VERTEX
8
ALIGN
10
225.1190
20
18.4683
30
0.0
0
VERTEX
8
ALIGN
10
223.9475
20
17.8388
30
0.0
0
VERTEX
8
ALIGN
10
222.7705
20
17.2195
30
0.0
0
VERTEX
8
ALIGN
10
221.5882
20
16.6106
30
0.0
0
VERTEX
8
ALIGN
10
220.4005
20
16.0120
30
0.0
0
VERTEX
8
ALIGN
10
219.2078
20
15.4238
30
0.0
0
VERTEX
8
ALIGN
10
218.0099
20
14.8460
30
0.0
0
VERTEX
8
ALIGN
10
216.8070
20
14.2787
30
0.0
0
VERTEX
8
ALIGN
10
215.5993
20
13.7219
30
0.0
0
VERTEX
8
ALIGN
10
214.3867
20
13.1757
30
0.0
0
VERTEX
8
ALIGN
10
213.1694
20
12.6400
30
0.0
0
VERTEX
8
ALIGN
10
211.9474
20
12.1151
30
0.0
0
VERTEX
8
ALIGN
10
210.7210
20
11.6008
30
0.0
0
VERTEX
8
ALIGN
10
209.4900
20
11.0972
30
0.0
0
VERTEX
8
ALIGN
10
208.2548
20
10.6044
30
0.0
0
VERTEX
8
ALIGN
10
207.0153
20
10.1223
30
0.0
0
VERTEX
8
ALIGN
10
205.7716
20
9.6512
30
0.0
0
VERTEX
8
ALIGN
10
204.5239
20
9.1908
30
0.0
0
VERTEX
8
ALIGN
10
203.2722
20
8.7414
30
0.0
0
VERTEX
8
ALIGN
10
202.0166
20
8.3030
30
0.0
0
VERTEX
8
ALIGN
10
200.7572
20
7.8755
30
0.0
0
VERTEX
8
ALIGN
10
199.4942
20
7.4590
30
0.0
0
VERTEX
8
ALIGN
10
198.2276
20
7.0535
30
0.0
0
VERTEX
8
ALIGN
10
196.9574
20
6.6592
30
0.0
0
VERTEX
8
ALIGN
10
195.6839
20
6.2759
30
0.0
0
VERTEX
8
ALIGN
10
194.4071
20
5.9037
30
0.0
0
VERTEX
8
ALIGN
10
193.1271
20
5.5427
30
0.0
0
VERTEX
8
ALIGN
10
191.8440
20
5.1929
30
0.0
0
VERTEX
8
ALIGN
10
190.5579
20
4.8543
30
0.0
0
VERTEX
8
ALIGN
10
189.2689
20
4.5269
30
0.0
0
VERTEX
8
ALIGN
10
187.9771
20
4.2108
30
0.0
0
VERTEX
8
ALIGN
10
186.6825
20
3.9060
30
0.0
0
VERTEX
8
ALIGN
10
185.3854
20
3.6125
30
0.0
0
VERTEX
8
ALIGN
10
184.0857
20
3.3303
30
0.0
0
VERTEX
8
ALIGN
10
182.7837
20
3.0595
30
0.0
0
VERTEX
8
ALIGN
10
181.4793
20
2.8000
30
0.0
0
VERTEX
8
ALIGN
10
180.1727
20
2.5520
30
0.0
0
VERTEX
8
ALIGN
10
178.8640
20
2.3153
30
0.0
0
VERTEX
8
ALIGN
10
177.5533
20
2.0901
30
0.0
0
VERTEX
8
ALIGN
10
176.2406
20
1.8763
30
0.0
0
VERTEX
8
ALIGN
10
174.9262
20
1.6740
30
0.0
0
VERTEX
8
ALIGN
10
173.6100
20
1.4831
30
0.0
0
VERTEX
8
ALIGN
10
172.2922
20
1.3038
30
0.0
0
VERTEX
8
ALIGN
10
170.9729
20
1.1360
30
0.0
0
VERTEX
8
ALIGN
10
169.6522
20
0.9796
30
0.0
0
VERTEX
8
ALIGN
10
168.3301
20
0.8349
30
0.0
0
VERTEX
8
ALIGN
10
167.0069
20
0.7016
30
0.0
0
VERTEX
8
ALIGN
10
165.6825
20
0.5799
30
0.0
0
VERTEX
8
ALIGN
10
164.3572
20
0.4698
30
0.0
0
VERTEX
8
ALIGN
10
163.0309
20
0.3712
30
0.0
0
VERTEX
8
ALIGN
10
161.7038
20
0.2843
30
0.0
0
VERTEX
8
ALIGN
10
160.3760
20
0.2089
30
0.0
0
VERTEX
8
ALIGN
10
159.0476
20
0.1451
30
0.0
0
VERTEX
8
ALIGN
10
157.7187
20
0.0928
30
0.0
0
VERTEX
8
ALIGN
10
156.3894
20
0.0522
30
0.0
0
VERTEX
8
ALIGN
10
155.0597
20
0.0232
30
0.0
0
VERTEX
8
ALIGN
10
153.7299
20
0.0058
30
0.0
0
VERTEX
8
ALIGN
10
152.4000
20
0.0000
30
0.0
0
VERTEX
8
ALIGN
10
151.0701
20
0.0058
30
0.0
0
VERTEX
8
ALIGN
10
149.7403
20
0.0232
30
0.0
0
VERTEX
8
ALIGN
10
148.4106
20
0.0522
30
0.0
0
VERTEX
8
ALIGN
10
147.0813
20
0.0928
30
0.0
0
VERTEX
8
ALIGN
10
145.7524
20
0.1451
30
0.0
0
VERTEX
8
ALIGN
10
144.4240
20
0.2089
30
0.0
0
VERTEX
8
ALIGN
10
143.0962
20
0.2843
30
0.0
0
VERTEX
8
ALIGN
10
141.7691
20
0.3712
30
0.0
0
VERTEX
8
ALIGN
10
140.4428
20
0.4698
30
0.0
0
VERTEX
8
ALIGN
10
139.1175
20
0.5799
30
0.0
0
VERTEX
8
ALIGN
10
137.7931
20
0.7016
30
0.0
0
VERTEX
8
ALIGN
10
136.4699
20
0.8349
30
0.0
0
VERTEX
8
ALIGN
10
135.1478
20
0.9796
30
0.0
0
VERTEX
8
ALIGN
10
133.8271
20
1.1360
30
0.0
0
VERTEX
8
ALIGN
10
132.5078
20
1.3038
30
0.0
0
VERTEX
8
ALIGN
10
131.1900
20
1.4831
30
0.0
0
VERTEX
8
ALIGN
10
129.8738
20
1.6740
30
0.0
0
VERTEX
8
ALIGN
10
128.5594
20
1.8763
30
0.0
0
VERTEX
8
ALIGN
10
127.2467
20
2.0901
30
0.0
0
VERTEX
8
ALIGN
10
125.9360
20
2.3153
30
0.0
0
VERTEX
8
ALIGN
10
124.6273
20
2.5520
30
0.0
0
VERTEX
8
ALIGN
10
123.3207
20
2.8000
30
0.0
0
VERTEX
8
ALIGN
10
122.0163
20
3.0595
30
0.0
0
VERTEX
8
ALIGN
10
120.7143
20
3.3303
30
0.0
0
VERTEX
8
ALIGN
10
119.4146
20
3.6125
30
0.0
0
VERTEX
8
ALIGN
10
118.1175
20
3.9060
30
0.0
0
VERTEX
8
ALIGN
10
116.8229
20
4.2108
30
0.0
0
VERTEX
8
ALIGN
10
115.5311
20
4.5269
30
0.0
0
VERTEX
8
ALIGN
10
114.2421
20
4.8543
30
0.0
0
VERTEX
8
ALIGN
10
112.9560
20
5.1929
30
0.0
0
VERTEX
8
ALIGN
10
111.6729
20
5.5427
30
0.0
0
VERTEX
8
ALIGN
10
110.3929
20
5.9037
30
0.0
0
VERTEX
8
ALIGN
10
109.1161
20
6.2759
30
0.0
0
VERTEX
8
ALIGN
10
107.8426
20
6.6592
30
0.0
0
VERTEX
8
ALIGN
10
106.5724
20
7.0535
30
0.0
0
VERTEX
8
ALIGN
10
105.3058
20
7.4590
30
0.0
0
VERTEX
8
ALIGN
10
104.0428
20
7.8755
30
0.0
0
VERTEX
8
ALIGN
10
102.7834
20
8.3030
30
0.0
0
VERTEX
8
ALIGN
10
101.5278
20
8.7414
30
0.0
0
VERTEX
8
ALIGN
10
100.2761
20
9.1908
30
0.0
0
VERTEX
8
ALIGN
10
99.0284
20
9.6512
30
0.0
0
VERTEX
8
ALIGN
10
97.7847
20
10.1223
30
0.0
0
VERTEX
8
ALIGN
10
96.5452
20
10.6044
30
0.0
0
VERTEX
8
ALIGN
10
95.3100
20
11.0972
30
0.0
0
VERTEX
8
ALIGN
10
94.0790
20
11.6008
30
0.0
0
VERTEX
8
ALIGN
10
92.8526
20
12.1151
30
0.0
0
VERTEX
8
ALIGN
10
91.6306
20
12.6400
30
0.0
0
VERTEX
8
ALIGN
10
90.4133
20
13.1757
30
0.0
0
VERTEX
8
ALIGN
10
89.2007
20
13.7219
30
0.0
0
VERTEX
8
ALIGN
10
87.9930
20
14.2787
30
0.0
0
VERTEX
8
ALIGN
10
86.7901
20
14.8460
30
0.0
0
VERTEX
8
ALIGN
10
85.5922
20
15.4238
30
0.0
0
VERTEX
8
ALIGN
10
84.3995
20
16.0120
30
0.0
0
VERTEX
8
ALIGN
10
83.2118
20
16.6106
30
0.0
0
VERTEX
8
ALIGN
10
82.0295
20
17.2195
30
0.0
0
VERTEX
8
ALIGN
10
80.8525
20
17.8388
30
0.0
0
VERTEX
8
ALIGN
10
79.6810
20
18.4683
30
0.0
0
VERTEX
8
ALIGN
10
78.5150
20
19.1080
30
0.0
0
VERTEX
8
ALIGN
10
77.3546
20
19.7578
30
0.0
0
VERTEX
8
ALIGN
10
76.2000
20
20.4177
30
0.0
0
VERTEX
8
ALIGN
10
75.0512
20
21.0877
30
0.0
0
VERTEX
8
ALIGN
10
73.9082
20
21.7677
30
0.0
0
VERTEX
8
ALIGN
10
72.7712
20
22.4576
30
0.0
0
VERTEX
8
ALIGN
10
71.6403
20
23.1575
30
0.0
0
VERTEX
8
ALIGN
10
70.5155
20
23.8671
30
0.0
0
VERTEX
8
ALIGN
10
69.3970
20
24.5866
30
0.0
0
VERTEX
8
ALIGN
10
68.2848
20
25.3158
30
0.0
0
VERTEX
8
ALIGN
10
67.1790
20
26.0547
30
0.0
0
VERTEX
8
ALIGN
10
66.0797
20
26.8032
30
0.0
0
VERTEX
8
ALIGN
10
64.9870
20
27.5612
30
0.0
0
VERTEX
8
ALIGN
10
63.9009
20
28.3288
30
0.0
0
VERTEX
8
ALIGN
10
62.8215
20
29.1058
30
0.0
0
VERTEX
8
ALIGN
10
61.7490
20
29.8922
30
0.0
0
VERTEX
8
ALIGN
10
60.6834
20
30.6879
30
0.0
0
VERTEX
8
ALIGN
10
59.6248
20
31.4930
30
0.0
0
VERTEX
8
ALIGN
10
58.5732
20
32.3072
30
0.0
0
VERTEX
8
ALIGN
10
57.5288
20
33.1305
30
0.0
0
VERTEX
8
ALIGN
10
56.4916
20
33.9630
30
0.0
0
VERTEX
8
ALIGN
10
55.4617
20
34.8044
30
0.0
0
VERTEX
8
ALIGN
10
54.4392
20
35.6548
30
0.0
0
VERTEX
8
ALIGN
10
53.4241
20
36.5141
30
0.0
0
VERTEX
8
ALIGN
10
52.4166
20
37.3823
30
0.0
0
VERTEX
8
ALIGN
10
51.4167
20
38.2591
30
0.0
0
VERTEX
8
ALIGN
10
50.4245
20
39.1447
30
0.0
0
VERTEX
8
ALIGN
10
49.4401
20
40.0389
30
0.0
0
VERTEX
8
ALIGN
10
48.4634
20
40.9417
30
0.0
0
VERTEX
8
ALIGN
10
47.4948
20
41.8529
30
0.0
0
VERTEX
8
ALIGN
10
46.5341
20
42.7726
30
0.0
0
VERTEX
8
ALIGN
10
45.5814
20
43.7006
30
0.0
0
VERTEX
8
ALIGN
10
44.6369
20
44.6369
30
0.0
0
VERTEX
8
ALIGN
10
43.7006
20
45.5814
30
0.0
0
VERTEX
8
ALIGN
10
42.7726
20
46.5341
30
0.0
0
VERTEX
8
ALIGN
10
41.8529
20
47.4948
30
0.0
0
VERTEX
8
ALIGN
10
40.9417
20
48.4634
30
0.0
0
VERTEX
8
ALIGN
10
40.0389
20
49.4401
30
0.0
0
VERTEX
8
ALIGN
10
39.1447
20
50.4245
30
0.0
0
VERTEX
8
ALIGN
10
38.2591
20
51.4167
30
0.0
0
VERTEX
8
ALIGN
10
37.3823
20
52.4166
30
0.0
0
VERTEX
8
ALIGN
10
36.5141
20
53.4241
30
0.0
0
VERTEX
8
ALIGN
10
35.6548
20
54.4392
30
0.0
0
VERTEX
8
ALIGN
10
34.8044
20
55.4617
30
0.0
0
VERTEX
8
ALIGN
10
33.9630
20
56.4916
30
0.0
0
VERTEX
8
ALIGN
10
33.1305
20
57.5288
30
0.0
0
VERTEX
8
ALIGN
10
32.3072
20
58.5732
30
0.0
0
VERTEX
8
ALIGN
10
31.4930
20
59.6248
30
0.0
0
VERTEX
8
ALIGN
10
30.6879
20
60.6834
30
0.0
0
VERTEX
8
ALIGN
10
29.8922
20
61.7490
30
0.0
0
VERTEX
8
ALIGN
10
29.1058
20
62.8215
30
0.0
0
VERTEX
8
ALIGN
10
28.3288
20
63.9009
30
0.0
0
VERTEX
8
ALIGN
10
27.5612
20
64.9870
30
0.0
0
VERTEX
8
ALIGN
10
26.8032
20
66.0797
30
0.0
0
VERTEX
8
ALIGN
10
26.0547
20
67.1790
30
0.0
0
VERTEX
8
ALIGN
10
25.3158
20
68.2848
30
0.0
0
VERTEX
8
ALIGN
10
24.5866
20
69.3970
30
0.0
0
VERTEX
8
ALIGN
10
23.8671
20
70.5155
30
0.0
0
VERTEX
8
ALIGN
10
23.1575
20
71.6403
30
0.0
0
VERTEX
8
ALIGN
10
22.4576
20
72.7712
30
0.0
0
VERTEX
8
ALIGN
10
21.7677
20
73.9082
30
0.0
0
VERTEX
8
ALIGN
10
21.0877
20
75.0512
30
0.0
0
VERTEX
8
ALIGN
10
20.4177
20
76.2000
30
0.0
0
VERTEX
8
ALIGN
10
19.7578
20
77.3546
30
0.0
0
VERTEX
8
ALIGN
10
19.1080
20
78.5150
30
0.0
0
VERTEX
8
ALIGN
10
18.4683
20
79.6810
30
0.0
0
VERTEX
8
ALIGN
10
17.8388
20
80.8525
30
0.0
0
VERTEX
8
ALIGN
10
17.2195
20
82.0295
30
0.0
0
VERTEX
8
ALIGN
10
16.6106
20
83.2118
30
0.0
0
VERTEX
8
ALIGN
10
16.0120
20
84.3995
30
0.0
0
VERTEX
8
ALIGN
10
15.4238
20
85.5922
30
0.0
0
VERTEX
8
ALIGN
10
14.8460
20
86.7901
30
0.0
0
VERTEX
8
ALIGN
10
14.2787
20
87.9930
30
0.0
0
VERTEX
8
ALIGN
10
13.7219
20
89.2007
30
0.0
0
VERTEX
8
ALIGN
10
13.1757
20
90.4133
30
0.0
0
VERTEX
8
ALIGN
10
12.6400
20
91.6306
30
0.0
0
VERTEX
8
ALIGN
10
12.1151
20
92.8526
30
0.0
0
VERTEX
8
ALIGN
10
11.6008
20
94.0790
30
0.0
0
VERTEX
8
ALIGN
10
11.0972
20
95.3100
30
0.0
0
VERTEX
8
ALIGN
10
10.6044
20
96.5452
30
0.0
0
VERTEX
8
ALIGN
10
10.1223
20
97.7847
30
0.0
0
VERTEX
8
ALIGN
10
9.6512
20
99.0284
30
0.0
0
VERTEX
8
ALIGN
10
9.1908
20
100.2761
30
0.0
0
VERTEX
8
ALIGN
10
8.7414
20
101.5278
30
0.0
0
VERTEX
8
ALIGN
10
8.3030
20
102.7834
30
0.0
0
VERTEX
8
ALIGN
10
7.8755
20
104.0428
30
0.0
0
VERTEX
8
ALIGN
10
7.4590
20
105.3058
30
0.0
0
VERTEX
8
ALIGN
10
7.0535
20
106.5724
30
0.0
0
VERTEX
8
ALIGN
10
6.6592
20
107.8426
30
0.0
0
VERTEX
8
ALIGN
10
6.2759
20
109.1161
30
0.0
0
VERTEX
8
ALIGN
10
5.9037
20
110.3929
30
0.0
0
VERTEX
8
ALIGN
10
5.5427
20
111.6729
30
0.0
0
VERTEX
8
ALIGN
10
5.1929
20
112.9560
30
0.0
0
VERTEX
8
ALIGN
10
4.8543
20
114.2421
30
0.0
0
VERTEX
8
ALIGN
10
4.5269
20
115.5311
30
0.0
0
VERTEX
8
ALIGN
10
4.2108
20
116.8229
30
0.0
0
VERTEX
8
ALIGN
10
3.9060
20
118.1175
30
0.0
0
VERTEX
8
ALIGN
10
3.6125
20
119.4146
30
0.0
0
VERTEX
8
ALIGN
10
3.3303
20
120.7143
30
0.0
0
VERTEX
8
ALIGN
10
3.0595
20
122.0163
30
0.0
0
VERTEX
8
ALIGN
10
2.8000
20
123.3207
30
0.0
0
VERTEX
8
ALIGN
10
2.5520
20
124.6273
30
0.0
0
VERTEX
8
ALIGN
10
2.3153
20
125.9360
30
0.0
0
VERTEX
8
ALIGN
10
2.0901
20
127.2467
30
0.0
0
VERTEX
8
ALIGN
10
1.8763
20
128.5594
30
0.0
0
VERTEX
8
ALIGN
10
1.6740
20
129.8738
30
0.0
0
VERTEX
8
ALIGN
10
1.4831
20
131.1900
30
0.0
0
VERTEX
8
ALIGN
10
1.3038
20
132.5078
30
0.0
0
VERTEX
8
ALIGN
10
1.1360
20
133.8271
30
0.0
0
VERTEX
8
ALIGN
10
0.9796
20
135.1478
30
0.0
0
VERTEX
8
ALIGN
10
0.8349
20
136.4699
30
0.0
0
VERTEX
8
ALIGN
10
0.7016
20
137.7931
30
0.0
0
VERTEX
8
ALIGN
10
0.5799
20
139.1175
30
0.0
0
VERTEX
8
ALIGN
10
0.4698
20
140.4428
30
0.0
0
VERTEX
8
ALIGN
10
0.3712
20
141.7691
30
0.0
0
VERTEX
8
ALIGN
10
0.2843
20
143.0962
30
0.0
0
VERTEX
8
ALIGN
10
0.2089
20
144.4240
30
0.0
0
VERTEX
8
ALIGN
10
0.1451
20
145.7524
30
0.0
0
VERTEX
8
ALIGN
10
0.0928
20
147.0813
30
0.0
0
VERTEX
8
ALIGN
10
0.0522
20
148.4106
30
0.0
0
VERTEX
8
ALIGN
10
0.0232
20
149.7403
30
0.0
0
VERTEX
8
ALIGN
10
0.0058
20
151.0701
30
0.0
0
VERTEX
8
ALIGN
10
0.0000
20
152.4000
30
0.0
0
VERTEX
8
ALIGN
10
0.0058
20
153.7299
30
0.0
0
VERTEX
8
ALIGN
10
0.0232
20
155.0597
30
0.0
0
VERTEX
8
ALIGN
10
0.0522
20
156.3894
30
0.0
0
VERTEX
8
ALIGN
10
0.0928
20
157.7187
30
0.0
0
VERTEX
8
ALIGN
10
0.1451
20
159.0476
30
0.0
0
VERTEX
8
ALIGN
10
0.2089
20
160.3760
30
0.0
0
VERTEX
8
ALIGN
10
0.2843
20
161.7038
30
0.0
0
VERTEX
8
ALIGN
10
0.3712
20
163.0309
30
0.0
0
VERTEX
8
ALIGN
10
0.4698
20
164.3572
30
0.0
0
VERTEX
8
ALIGN
10
0.5799
20
165.6825
30
0.0
0
VERTEX
8
ALIGN
10
0.7016
20
167.0069
30
0.0
0
VERTEX
8
ALIGN
10
0.8349
20
168.3301
30
0.0
0
VERTEX
8
ALIGN
10
0.9796
20
169.6522
30
0.0
0
VERTEX
8
ALIGN
10
1.1360
20
170.9729
30
0.0
0
VERTEX
8
ALIGN
10
1.3038
20
172.2922
30
0.0
0
VERTEX
8
ALIGN
10
1.4831
20
173.6100
30
0.0
0
VERTEX
8
ALIGN
10
1.6740
20
174.9262
30
0.0
0
VERTEX
8
ALIGN
10
1.8763
20
176.2406
30
0.0
0
VERTEX
8
ALIGN
10
2.0901
20
177.5533
30
0.0
0
VERTEX
8
ALIGN
10
2.3153
20
178.8640
30
0.0
0
VERTEX
8
ALIGN
10
2.5520
20
180.1727
30
0.0
0
VERTEX
8
ALIGN
10
2.8000
20
181.4793
30
0.0
0
VERTEX
8
ALIGN
10
3.0595
20
182.7837
30
0.0
0
VERTEX
8
ALIGN
10
3.3303
20
184.0857
30
0.0
0
VERTEX
8
ALIGN
10
3.6125
20
185.3854
30
0.0
0
VERTEX
8
ALIGN
10
3.9060
20
186.6825
30
0.0
0
VERTEX
8
ALIGN
10
4.2108
20
187.9771
30
0.0
0
VERTEX
8
ALIGN
10
4.5269
20
189.2689
30
0.0
0
VERTEX
8
ALIGN
10
4.8543
20
190.5579
30
0.0
0
VERTEX
8
ALIGN
10
5.1929
20
191.8440
30
0.0
0
VERTEX
8
ALIGN
10
5.5427
20
193.1271
30
0.0
0
VERTEX
8
ALIGN
10
5.9037
20
194.4071
30
0.0
0
VERTEX
8
ALIGN
10
6.2759
20
195.6839
30
0.0
0
VERTEX
8
ALIGN
10
6.6592
20
196.9574
30
0.0
0
VERTEX
8
ALIGN
10
7.0535
20
198.2276
30
0.0
0
VERTEX
8
ALIGN
10
7.4590
20
199.4942
30
0.0
0
VERTEX
8
ALIGN
10
7.8755
20
200.7572
30
0.0
0
VERTEX
8
ALIGN
10
8.3030
20
202.0166
30
0.0
0
VERTEX
8
ALIGN
10
8.7414
20
203.2722
30
0.0
0
VERTEX
8
ALIGN
10
9.1908
20
204.5239
30
0.0
0
VERTEX
8
ALIGN
10
9.6512
20
205.7716
30
0.0
0
VERTEX
8
ALIGN
10
10.1223
20
207.0153
30
0.0
0
VERTEX
8
ALIGN
10
10.6044
20
208.2548
30
0.0
0
VERTEX
8
ALIGN
10
11.0972
20
209.4900
30
0.0
0
VERTEX
8
ALIGN
10
11.6008
20
210.7210
30
0.0
0
VERTEX
8
ALIGN
10
12.1151
20
211.9474
30
0.0
0
VERTEX
8
ALIGN
10
12.6400
20
213.1694
30
0.0
0
VERTEX
8
ALIGN
10
13.1757
20
214.3867
30
0.0
0
VERTEX
8
ALIGN
10
13.7219
20
215.5993
30
0.0
0
VERTEX
8
ALIGN
10
14.2787
20
216.8070
30
0.0
0
VERTEX
8
ALIGN
10
14.8460
20
218.0099
30
0.0
0
VERTEX
8
ALIGN
10
15.4238
20
219.2078
30
0.0
0
VERTEX
8
ALIGN
10
16.0120
20
220.4005
30
0.0
0
VERTEX
8
ALIGN
10
16.6106
20
221.5882
30
0.0
0
VERTEX
8
ALIGN
10
17.2195
20
222.7705
30
0.0
0
VERTEX
8
ALIGN
10
17.8388
20
223.9475
30
0.0
0
VERTEX
8
ALIGN
10
18.4683
20
225.1190
30
0.0
0
VERTEX
8
ALIGN
10
19.1080
20
226.2850
30
0.0
0
VERTEX
8
ALIGN
10
19.7578
20
227.4454
30
0.0
0
VERTEX
8
ALIGN
10
20.4177
20
228.6000
30
0.0
0
VERTEX
8
ALIGN
10
21.0877
20
229.7488
30
0.0
0
VERTEX
8
ALIGN
10
21.7677
20
230.8918
30
0.0
0
VERTEX
8
ALIGN
10
22.4576
20
232.0288
30
0.0
0
VERTEX
8
ALIGN
10
23.1575
20
233.1597
30
0.0
0
VERTEX
8
ALIGN
10
23.8671
20
234.2845
30
0.0
0
VERTEX
8
ALIGN
10
24.5866
20
235.4030
30
0.0
0
VERTEX
8
ALIGN
10
25.3158
20
236.5152
30
0.0
0
VERTEX
8
ALIGN
10
26.0547
20
237.6210
30
0.0
0
VERTEX
8
ALIGN
10
26.8032
20
238.7203
30
0.0
0
VERTEX
8
ALIGN
10
27.5612
20
239.8130
30
0.0
0
VERTEX
8
ALIGN
10
28.3288
20
240.8991
30
0.0
0
VERTEX
8
ALIGN
10
29.1058
20
241.9785
30
0.0
0
VERTEX
8
ALIGN
10
29.8922
20
243.0510
30
0.0
0
VERTEX
8
ALIGN
10
30.6879
20
244.1166
30
0.0
0
VERTEX
8
ALIGN
10
31.4930
20
245.1752
30
0.0
0
VERTEX
8
ALIGN
10
32.3072
20
246.2268
30
0.0
0
VERTEX
8
ALIGN
10
33.1305
20
247.2712
30
0.0
0
VERTEX
8
ALIGN
10
33.9630
20
248.3084
30
0.0
0
VERTEX
8
ALIGN
10
34.8044
20
249.3383
30
0.0
0
VERTEX
8
ALIGN
10
35.6548
20
250.3608
30
0.0
0
VERTEX
8
ALIGN
10
36.5141
20
251.3759
30
0.0
0
VERTEX
8
ALIGN
10
37.3823
20
252.3834
30
0.0
0
VERTEX
8
ALIGN
10
38.2591
20
253.3833
30
0.0
0
VERTEX
8
ALIGN
10
39.1447
20
254.3755
30
0.0
0
VERTEX
8
ALIGN
10
40.0389
20
255.3599
30
0.0
0
VERTEX
8
ALIGN
10
40.9417
20
256.3366
30
0.0
0
VERTEX
8
ALIGN
10
41.8529
20
257.3052
30
0.0
0
VERTEX
8
ALIGN
10
42.7726
20
258.2659
30
0.0
0
VERTEX
8
ALIGN
10
43.7006
20
259.2186
30
0.0
0
VERTEX
8
ALIGN
10
44.6369
20
260.1631
30
0.0
0
VERTEX
8
ALIGN
10
45.5814
20
261.0994
30
0.0
0
VERTEX
8
ALIGN
10
46.5341
20
262.0274
30
0.0
0
VERTEX
8
ALIGN
10
47.4948
20
262.9471
30
0.0
0
VERTEX
8
ALIGN
10
48.4634
20
263.8583
30
0.0
0
VERTEX
8
ALIGN
10
49.4401
20
264.7611
30
0.0
0
VERTEX
8
ALIGN
10
50.4245
20
265.6553
30
0.0
0
VERTEX
8
ALIGN
10
51.4167
20
266.5409
30
0.0
0
VERTEX
8
ALIGN
10
52.4166
20
267.4177
30
0.0
0
VERTEX
8
ALIGN
10
53.4241
20
268.2859
30
0.0
0
VERTEX
8
ALIGN
10
54.4392
20
269.1452
30
0.0
0
VERTEX
8
ALIGN
10
55.4617
20
269.9956
30
0.0
0
VERTEX
8
ALIGN
10
56.4916
20
270.8370
30
0.0
0
VERTEX
8
ALIGN
10
57.5288
20
271.6695
30
0.0
0
VERTEX
8
ALIGN
10
58.5732
20
272.4928
30
0.0
0
VERTEX
8
ALIGN
10
59.6248
20
273.3070
30
0.0
0
VERTEX
8
ALIGN
10
60.6834
20
274.1121
30
0.0
0
VERTEX
8
ALIGN
10
61.7490
20
274.9078
30
0.0
0
VERTEX
8
ALIGN
10
62.8215
20
275.6942
30
0.0
0
VERTEX
8
ALIGN
10
63.9009
20
276.4712
30
0.0
0
VERTEX
8
ALIGN
10
64.9870
20
277.2388
30
0.0
0
VERTEX
8
ALIGN
10
66.0797
20
277.9968
30
0.0
0
VERTEX
8
ALIGN
10
67.1790
20
278.7453
30
0.0
0
VERTEX
8
ALIGN
10
68.2848
20
279.4842
30
0.0
0
VERTEX
8
ALIGN
10
69.3970
20
280.2134
30
0.0
0
VERTEX
8
ALIGN
10
70.5155
20
280.9329
30
0.0
0
VERTEX
8
ALIGN
10
71.6403
20
281.6425
30
0.0
0
VERTEX
8
ALIGN
10
72.7712
20
282.3424
30
0.0
0
VERTEX
8
ALIGN
10
73.9082
20
283.0323
30
0.0
0
VERTEX
8
ALIGN
10
75.0512
20
283.7123
30
0.0
0
VERTEX
8
ALIGN
10
76.2000
20
284.3823
30
0.0
0
VERTEX
8
ALIGN
10
77.3546
20
285.0422
30
0.0
0
VERTEX
8
ALIGN
10
78.5150
20
285.6920
30
0.0
0
VERTEX
8
ALIGN
10
79.6810
20
286.3317
30
0.0
0
VERTEX
8
ALIGN
10
80.8525
20
286.9612
30
0.0
0
VERTEX
8
ALIGN
10
82.0295
20
287.5805
30
0.0
0
VERTEX
8
ALIGN
10
83.2118
20
288.1894
30
0.0
0
VERTEX
8
ALIGN
10
84.3995
20
288.7880
30
0.0
0
VERTEX
8
ALIGN
10
85.5922
20
289.3762
30
0.0
0
VERTEX
8
ALIGN
10
86.7901
20
289.9540
30
0.0
0
VERTEX
8
ALIGN
10
87.9930
20
290.5213
30
0.0
0
VERTEX
8
ALIGN
10
89.2007
20
291.0781
30
0.0
0
VERTEX
8
ALIGN
10
90.4133
20
291.6243
30
0.0
0
VERTEX
8
ALIGN
10
91.6306
20
292.1600
30
0.0
0
VERTEX
8
ALIGN
10
92.8526
20
292.6849
30
0.0
0
VERTEX
8
ALIGN
10
94.0790
20
293.1992
30
0.0
0
VERTEX
8
ALIGN
10
95.3100
20
293.7028
30
0.0
0
VERTEX
8
ALIGN
10
96.5452
20
294.1956
30
0.0
0
VERTEX
8
ALIGN
10
97.7847
20
294.6777
30
0.0
0
VERTEX
8
ALIGN
10
99.0284
20
295.1488
30
0.0
0
VERTEX
8
ALIGN
10
100.2761
20
295.6092
30
0.0
0
VERTEX
8
ALIGN
10
101.5278
20
296.0586
30
0.0
0
VERTEX
8
ALIGN
10
102.7834
20
296.4970
30
0.0
0
VERTEX
8
ALIGN
10
104.0428
20
296.9245
30
0.0
0
VERTEX
8
ALIGN
10
105.3058
20
297.3410
30
0.0
0
VERTEX
8
ALIGN
10
106.5724
20
297.7465
30
0.0
0
VERTEX
8
ALIGN
10
107.8426
20
298.1408
30
0.0
0
VERTEX
8
ALIGN
10
109.1161
20
298.5241
30
0.0
0
VERTEX
8
ALIGN
10
110.3929
20
298.8963
30
0.0
0
VERTEX
8
ALIGN
10
111.6729
20
299.2573
30
0.0
0
VERTEX
8
ALIGN
10
112.9560
20
299.6071
30
0.0
0
VERTEX
8
ALIGN
10
114.2421
20
299.9457
30
0.0
0
VERTEX
8
ALIGN
10
115.5311
20
300.2731
30
0.0
0
VERTEX
8
ALIGN
10
116.8229
20
300.5892
30
0.0
0
VERTEX
8
ALIGN
10
118.1175
20
300.8940
30
0.0
0
VERTEX
8
ALIGN
10
119.4146
20
301.1875
30
0.0
0
VERTEX
8
ALIGN
10
120.7143
20
301.4697
30
0.0
0
VERTEX
8
ALIGN
10
122.0163
20
301.7405
30
0.0
0
VERTEX
8
ALIGN
10
123.3207
20
302.0000
30
0.0
0
VERTEX
8
ALIGN
10
124.6273
20
302.2480
30
0.0
0
VERTEX
8
ALIGN
10
125.9360
20
302.4847
30
0.0
0
VERTEX
8
ALIGN
10
127.2467
20
302.7099
30
0.0
0
VERTEX
8
ALIGN
10
128.5594
20
302.9237
30
0.0
0
VERTEX
8
ALIGN
10
129.8738
20
303.1260
30
0.0
0
VERTEX
8
ALIGN
10
131.1900
20
303.3169
30
0.0
0
VERTEX
8
ALIGN
10
132.5078
20
303.4962
30
0.0
0
VERTEX
8
ALIGN
10
133.8271
20
303.6640
30
0.0
0
VERTEX
8
ALIGN
10
135.1478
20
303.8204
30
0.0
0
VERTEX
8
ALIGN
10
136.4699
20
303.9651
30
0.0
0
VERTEX
8
ALIGN
10
137.7931
20
304.0984
30
0.0
0
VERTEX
8
ALIGN
10
139.1175
20
304.2201
30
0.0
0
VERTEX
8
ALIGN
10
140.4428
20
304.3302
30
0.0
0
VERTEX
8
ALIGN
10
141.7691
20
304.4288
30
0.0
0
VERTEX
8
ALIGN
10
143.0962
20
304.5157
30
0.0
0
VERTEX
8
ALIGN
10
144.4240
20
304.5911
30
0.0
0
VERTEX
8
ALIGN
10
145.7524
20
304.6549
30
0.0
0
VERTEX
8
ALIGN
10
147.0813
20
304.7072
30
0.0
0
VERTEX
8
ALIGN
10
148.4106
20
304.7478
30
0.0
0
VERTEX
8
ALIGN
10
149.7403
20
304.7768
30
0.0
0
VERTEX
8
ALIGN
10
151.0701
20
304.7942
30
0.0
0
VERTEX
8
ALIGN
10
152.4000
20
304.8000
30
0.0
0
VERTEX
8
ALIGN
10
153.7299
20
304.7942
30
0.0
0
VERTEX
8
ALIGN
10
155.0597
20
304.7768
30
0.0
0
VERTEX
8
ALIGN
10
156.3894
20
304.7478
30
0.0
0
VERTEX
8
ALIGN
10
157.7187
20
304.7072
30
0.0
0
VERTEX
8
ALIGN
10
159.0476
20
304.6549
30
0.0
0
VERTEX
8
ALIGN
10
160.3760
20
304.5911
30
0.0
0
VERTEX
8
ALIGN
10
161.7038
20
304.5157
30
0.0
0
VERTEX
8
ALIGN
10
163.0309
20
304.4288
30
0.0
0
VERTEX
8
ALIGN
10
164.3572
20
304.3302
30
0.0
0
VERTEX
8
ALIGN
10
165.6825
20
304.2201
30
0.0
0
VERTEX
8
ALIGN
10
167.0069
20
304.0984
30
0.0
0
VERTEX
8
ALIGN
10
168.3301
20
303.9651
30
0.0
0
VERTEX
8
ALIGN
10
169.6522
20
303.8204
30
0.0
0
VERTEX
8
ALIGN
10
170.9729
20
303.6640
30
0.0
0
VERTEX
8
ALIGN
10
172.2922
20
303.4962
30
0.0
0
VERTEX
8
ALIGN
10
173.6100
20
303.3169
30
0.0
0
VERTEX
8
ALIGN
10
174.9262
20
303.1260
30
0.0
0
VERTEX
8
ALIGN
10
176.2406
20
302.9237
30
0.0
0
VERTEX
8
ALIGN
10
177.5533
20
302.7099
30
0.0
0
VERTEX
8
ALIGN
10
178.8640
20
302.4847
30
0.0
0
VERTEX
8
ALIGN
10
180.1727
20
302.2480
30
0.0
0
VERTEX
8
ALIGN
10
181.4793
20
302.0000
30
0.0
0
VERTEX
8
ALIGN
10
182.7837
20
301.7405
30
0.0
0
VERTEX
8
ALIGN
10
184.0857
20
301.4697
30
0.0
0
VERTEX
8
ALIGN
10
185.3854
20
301.1875
30
0.0
0
VERTEX
8
ALIGN
10
186.6825
20
300.8940
30
0.0
0
VERTEX
8
ALIGN
10
187.9771
20
300.5892
30
0.0
0
VERTEX
8
ALIGN
10
189.2689
20
300.2731
30
0.0
0
VERTEX
8
ALIGN
10
190.5579
20
299.9457
30
0.0
0
VERTEX
8
ALIGN
10
191.8440
20
299.6071
30
0.0
0
VERTEX
8
ALIGN
10
193.1271
20
299.2573
30
0.0
0
VERTEX
8
ALIGN
10
194.4071
20
298.8963
30
0.0
0
VERTEX
8
ALIGN
10
195.6839
20
298.5241
30
0.0
0
VERTEX
8
ALIGN
10
196.9574
20
298.1408
30
0.0
0
VERTEX
8
ALIGN
10
198.2276
20
297.7465
30
0.0
0
VERTEX
8
ALIGN
10
199.4942
20
297.3410
30
0.0
0
VERTEX
8
ALIGN
10
200.7572
20
296.9245
30
0.0
0
VERTEX
8
ALIGN
10
202.0166
20
296.4970
30
0.0
0
VERTEX
8
ALIGN
10
203.2722
20
296.0586
30
0.0
0
VERTEX
8
ALIGN
10
204.5239
20
295.6092
30
0.0
0
VERTEX
8
ALIGN
10
205.7716
20
295.1488
30
0.0
0
VERTEX
8
ALIGN
10
207.0153
20
294.6777
30
0.0
0
VERTEX
8
ALIGN
10
208.2548
20
294.1956
30
0.0
0
VERTEX
8
ALIGN
10
209.4900
20
293.7028
30
0.0
0
VERTEX
8
ALIGN
10
210.7210
20
293.1992
30
0.0
0
VERTEX
8
ALIGN
10
211.9474
20
292.6849
30
0.0
0
VERTEX
8
ALIGN
10
213.1694
20
292.1600
30
0.0
0
VERTEX
8
ALIGN
10
214.3867
20
291.6243
30
0.0
0
VERTEX
8
ALIGN
10
215.5993
20
291.0781
30
0.0
0
VERTEX
8
ALIGN
10
216.8070
20
290.5213
30
0.0
0
VERTEX
8
ALIGN
10
218.0099
20
289.9540
30
0.0
0
VERTEX
8
ALIGN
10
219.2078
20
289.3762
30
0.0
0
VERTEX
8
ALIGN
10
220.4005
20
288.7880
30
0.0
0
VERTEX
8
ALIGN
10
221.5882
20
288.1894
30
0.0
0
VERTEX
8
ALIGN
10
222.7705
20
287.5805
30
0.0
0
VERTEX
8
ALIGN
10
223.9475
20
286.9612
30
0.0
0
VERTEX
8
ALIGN
10
225.1190
20
286.3317
30
0.0
0
VERTEX
8
ALIGN
10
226.2850
20
285.6920
30
0.0
0
VERTEX
8
ALIGN
10
227.4454
20
285.0422
30
0.0
0
VERTEX
8
ALIGN
10
228.6000
20
284.3823
30
0.0
0
VERTEX
8
ALIGN
10
229.7488
20
283.7123
30
0.0
0
VERTEX
8
ALIGN
10
230.8918
20
283.0323
30
0.0
0
VERTEX
8
ALIGN
10
232.0288
20
282.3424
30
0.0
0
VERTEX
8
ALIGN
10
233.1597
20
281.6425
30
0.0
0
VERTEX
8
ALIGN
10
234.2845
20
280.9329
30
0.0
0
VERTEX
8
ALIGN
10
235.4030
20
280.2134
30
0.0
0
VERTEX
8
ALIGN
10
236.5152
20
279.4842
30
0.0
0
VERTEX
8
ALIGN
10
237.6210
20
278.7453
30
0.0
0
VERTEX
8
ALIGN
10
238.7203
20
277.9968
30
0.0
0
VERTEX
8
ALIGN
10
239.8130
20
277.2388
30
0.0
0
VERTEX
8
ALIGN
10
240.8991
20
276.4712
30
0.0
0
VERTEX
8
ALIGN
10
241.9785
20
275.6942
30
0.0
0
VERTEX
8
ALIGN
10
243.0510
20
274.9078
30
0.0
0
VERTEX
8
ALIGN
10
244.1166
20
274.1121
30
0.0
0
VERTEX
8
ALIGN
10
245.1752
20
273.3070
30
0.0
0
VERTEX
8
ALIGN
10
246.2268
20
272.4928
30
0.0
0
VERTEX
8
ALIGN
10
247.2712
20
271.6695
30
0.0
0
VERTEX
8
ALIGN
10
248.3084
20
270.8370
30
0.0
0
VERTEX
8
ALIGN
10
249.3383
20
269.9956
30
0.0
0
VERTEX
8
ALIGN
10
250.3608
20
269.1452
30
0.0
0
VERTEX
8
ALIGN
10
251.3759
20
268.2859
30
0.0
0
VERTEX
8
ALIGN
10
252.3834
20
267.4177
30
0.0
0
VERTEX
8
ALIGN
10
253.3833
20
266.5409
30
0.0
0
VERTEX
8
ALIGN
10
254.3755
20
265.6553
30
0.0
0
VERTEX
8
ALIGN
10
255.3599
20
264.7611
30
0.0
0
VERTEX
8
ALIGN
10
256.3366
20
263.8583
30
0.0
0
VERTEX
8
ALIGN
10
257.3052
20
262.9471
30
0.0
0
VERTEX
8
ALIGN
10
258.2659
20
262.0274
30
0.0
0
VERTEX
8
ALIGN
10
259.2186
20
261.0994
30
0.0
0
VERTEX
8
ALIGN
10
260.1631
20
260.1631
30
0.0
0
VERTEX
8
ALIGN
10
261.0994
20
259.2186
30
0.0
0
VERTEX
8
ALIGN
10
262.0274
20
258.2659
30
0.0
0
VERTEX
8
ALIGN
10
262.9471
20
257.3052
30
0.0
0
VERTEX
8
ALIGN
10
263.8583
20
256.3366
30
0.0
0
VERTEX
8
ALIGN
10
264.7611
20
255.3599
30
0.0
0
VERTEX
8
ALIGN
10
265.6553
20
254.3755
30
0.0
0
VERTEX
8
ALIGN
10
266.5409
20
253.3833
30
0.0
0
VERTEX
8
ALIGN
10
267.4177
20
252.3834
30
0.0
0
VERTEX
8
ALIGN
10
268.2859
20
251.3759
30
0.0
0
VERTEX
8
ALIGN
10
269.1452
20
250.3608
30
0.0
0
VERTEX
8
ALIGN
10
269.9956
20
249.3383
30
0.0
0
VERTEX
8
ALIGN
10
270.8370
20
248.3084
30
0.0
0
VERTEX
8
ALIGN
10
271.6695
20
247.2712
30
0.0
0
VERTEX
8
ALIGN
10
272.4928
20
246.2268
30
0.0
0
VERTEX
8
ALIGN
10
273.3070
20
245.1752
30
0.0
0
VERTEX
8
ALIGN
10
274.1121
20
244.1166
30
0.0
0
VERTEX
8
ALIGN
10
274.9078
20
243.0510
30
0.0
0
VERTEX
8
ALIGN
10
275.6942
20
241.9785
30
0.0
0
VERTEX
8
ALIGN
10
276.4712
20
240.8991
30
0.0
0
VERTEX
8
ALIGN
10
277.2388
20
239.8130
30
0.0
0
VERTEX
8
ALIGN
10
277.9968
20
238.7203
30
0.0
0
VERTEX
8
ALIGN
10
278.7453
20
237.6210
30
0.0
0
VERTEX
8
ALIGN
10
279.4842
20
236.5152
30
0.0
0
VERTEX
8
ALIGN
10
280.2134
20
235.4030
30
0.0
0
VERTEX
8
ALIGN
10
280.9329
20
234.2845
30
0.0
0
VERTEX
8
ALIGN
10
281.6425
20
233.1597
30
0.0
0
VERTEX
8
ALIGN
10
282.3424
20
232.0288
30
0.0
0
VERTEX
8
ALIGN
10
283.0323
20
230.8918
30
0.0
0
VERTEX
8
ALIGN
10
283.7123
20
229.7488
30
0.0
0
VERTEX
8
ALIGN
10
284.3823
20
228.6000
30
0.0
0
VERTEX
8
ALIGN
10
285.0422
20
227.4454
30
0.0
0
VERTEX
8
ALIGN
10
285.6920
20
226.2850
30
0.0
0
VERTEX
8
ALIGN
10
286.3317
20
225.1190
30
0.0
0
VERTEX
8
ALIGN
10
286.9612
20
223.9475
30
0.0
0
VERTEX
8
ALIGN
10
287.5805
20
222.7705
30
0.0
0
VERTEX
8
ALIGN
10
288.1894
20
221.5882
30
0.0
0
VERTEX
8
ALIGN
10
288.7880
20
220.4005
30
0.0
0
VERTEX
8
ALIGN
10
289.3762
20
219.2078
30
0.0
0
VERTEX
8
ALIGN
10
289.9540
20
218.0099
30
0.0
0
VERTEX
8
ALIGN
10
290.5213
20
216.8070
30
0.0
0
VERTEX
8
ALIGN
10
291.0781
20
215.5993
30
0.0
0
VERTEX
8
ALIGN
10
291.6243
20
214.3867
30
0.0
0
VERTEX
8
ALIGN
10
292.1600
20
213.1694
30
0.0
0
VERTEX
8
ALIGN
10
292.6849
20
211.9474
30
0.0
0
VERTEX
8
ALIGN
10
293.1992
20
210.7210
30
0.0
0
VERTEX
8
ALIGN
10
293.7028
20
209.4900
30
0.0
0
VERTEX
8
ALIGN
10
294.1956
20
208.2548
30
0.0
0
VERTEX
8
ALIGN
10
294.6777
20
207.0153
30
0.0
0
VERTEX
8
ALIGN
10
295.1488
20
205.7716
30
0.0
0
VERTEX
8
ALIGN
10
295.6092
20
204.5239
30
0.0
0
VERTEX
8
ALIGN
10
296.0586
20
203.2722
30
0.0
0
VERTEX
8
ALIGN
10
296.4970
20
202.0166
30
0.0
0
VERTEX
8
ALIGN
10
296.9245
20
200.7572
30
0.0
0
VERTEX
8
ALIGN
10
297.3410
20
199.4942
30
0.0
0
VERTEX
8
ALIGN
10
297.7465
20
198.2276
30
0.0
0
VERTEX
8
ALIGN
10
298.1408
20
196.9574
30
0.0
0
VERTEX
8
ALIGN
10
298.5241
20
195.6839
30
0.0
0
VERTEX
8
ALIGN
10
298.8963
20
194.4071
30
0.0
0
VERTEX
8
ALIGN
10
299.2573
20
193.1271
30
0.0
0
VERTEX
8
ALIGN
10
299.6071
20
191.8440
30
0.0
0
VERTEX
8
ALIGN
10
299.9457
20
190.5579
30
0.0
0
VERTEX
8
ALIGN
10
300.2731
20
189.2689
30
0.0
0
VERTEX
8
ALIGN
10
300.5892
20
187.9771
30
0.0
0
VERTEX
8
ALIGN
10
300.8940
20
186.6825
30
0.0
0
VERTEX
8
ALIGN
10
301.1875
20
185.3854
30
0.0
0
VERTEX
8
ALIGN
10
301.4697
20
184.0857
30
0.0
0
VERTEX
8
ALIGN
10
301.7405
20
182.7837
30
0.0
0
VERTEX
8
ALIGN
10
302.0000
20
181.4793
30
0.0
0
VERTEX
8
ALIGN
10
302.2480
20
180.1727
30
0.0
0
VERTEX
8
ALIGN
10
302.4847
20
178.8640
30
0.0
0
VERTEX
8
ALIGN
10
302.7099
20
177.5533
30
0.0
0
VERTEX
8
ALIGN
10
302.9237
20
176.2406
30
0.0
0
VERTEX
8
ALIGN
10
303.1260
20
174.9262
30
0.0
0
VERTEX
8
ALIGN
10
303.3169
20
173.6100
30
0.0
0
VERTEX
8
ALIGN
10
303.4962
20
172.2922
30
0.0
0
VERTEX
8
ALIGN
10
303.6640
20
170.9729
30
0.0
0
VERTEX
8
ALIGN
10
303.8204
20
169.6522
30
0.0
0
VERTEX
8
ALIGN
10
303.9651
20
168.3301
30
0.0
0
VERTEX
8
ALIGN
10
304.0984
20
167.0069
30
0.0
0
VERTEX
8
ALIGN
10
304.2201
20
165.6825
30
0.0
0
VERTEX
8
ALIGN
10
304.3302
20
164.3572
30
0.0
0
VERTEX
8
ALIGN
10
304.4288
20
163.0309
30
0.0
0
VERTEX
8
ALIGN
10
304.5157
20
161.7038
30
0.0
0
VERTEX
8
ALIGN
10
304.5911
20
160.3760
30
0.0
0
VERTEX
8
ALIGN
10
304.6549
20
159.0476
30
0.0
0
VERTEX
8
ALIGN
10
304.7072
20
157.7187
30
0.0
0
VERTEX
8
ALIGN
10
304.7478
20
156.3894
30
0.0
0
VERTEX
8
ALIGN
10
304.7768
20
155.0597
30
0.0
0
VERTEX
8
ALIGN
10
304.7942
20
153.7299
30
0.0
0
SEQEND
8
ALIGN
0
POLYLINE
8
CUT_INNER
66
1
70
1
0
VERTEX
8
CUT_INNER
10
46.3469
20
193.5226
30
0.0
0
VERTEX
8
CUT_INNER
10
44.7050
20
192.1792
30
0.0
0
VERTEX
8
CUT_INNER
10
43.8094
20
187.8505
30
0.0
0
VERTEX
8
CUT_INNER
10
45.0035
20
185.7608
30
0.0
0
VERTEX
8
CUT_INNER
10
47.6903
20
183.6711
30
0.0
0
VERTEX
8
CUT_INNER
10
48.5859
20
179.4917
30
0.0
0
VERTEX
8
CUT_INNER
10
48.2874
20
178.5961
30
0.0
0
VERTEX
8
CUT_INNER
10
49.7800
20
175.6108
30
0.0
0
VERTEX
8
CUT_INNER
10
51.4219
20
174.7152
30
0.0
0
VERTEX
8
CUT_INNER
10
51.4219
20
177.8498
30
0.0
0
VERTEX
8
CUT_INNER
10
53.8102
20
180.0887
30
0.0
0
VERTEX
8
CUT_INNER
10
54.1087
20
181.4321
30
0.0
0
VERTEX
8
CUT_INNER
10
56.4970
20
183.0740
30
0.0
0
VERTEX
8
CUT_INNER
10
56.7955
20
185.4623
30
0.0
0
VERTEX
8
CUT_INNER
10
58.2881
20
187.4027
30
0.0
0
VERTEX
8
CUT_INNER
10
56.6462
20
188.7461
30
0.0
0
VERTEX
8
CUT_INNER
10
53.6609
20
189.4925
30
0.0
0
VERTEX
8
CUT_INNER
10
52.4668
20
191.4329
30
0.0
0
VERTEX
8
CUT_INNER
10
51.1234
20
191.4329
30
0.0
0
VERTEX
8
CUT_INNER
10
49.4815
20
192.9256
30
0.0
0
SEQEND
8
CUT_INNER
0
POLYLINE
8
CUT_INNER
66
1
70
1
0
VERTEX
8
CUT_INNER
10
45.6006
20
213.8227
30
0.0
0
VERTEX
8
CUT_INNER
10
44.7050
20
213.3749
30
0.0
0
VERTEX
8
CUT_INNER
10
45.1528
20
212.7779
30
0.0
0
VERTEX
8
CUT_INNER
10
44.7050
20
212.1808
30
0.0
0
VERTEX
8
CUT_INNER
10
42.7645
20
213.5242
30
0.0
0
VERTEX
8
CUT_INNER
10
39.7792
20
211.7330
30
0.0
0
VERTEX
8
CUT_INNER
10
38.7344
20
210.6881
30
0.0
0
VERTEX
8
CUT_INNER
10
37.5403
20
207.4043
30
0.0
0
VERTEX
8
CUT_INNER
10
35.4505
20
204.4190
30
0.0
0
VERTEX
8
CUT_INNER
10
35.4505
20
201.2844
30
0.0
0
VERTEX
8
CUT_INNER
10
36.3461
20
200.6874
30
0.0
0
VERTEX
8
CUT_INNER
10
36.9432
20
196.8065
30
0.0
0
VERTEX
8
CUT_INNER
10
37.9881
20
195.7616
30
0.0
0
VERTEX
8
CUT_INNER
10
40.2270
20
195.0153
30
0.0
0
VERTEX
8
CUT_INNER
10
43.5109
20
192.0300
30
0.0
0
VERTEX
8
CUT_INNER
10
43.0631
20
194.5675
30
0.0
0
VERTEX
8
CUT_INNER
10
41.5704
20
195.3138
30
0.0
0
VERTEX
8
CUT_INNER
10
42.1675
20
196.6572
30
0.0
0
VERTEX
8
CUT_INNER
10
41.5704
20
197.1050
30
0.0
0
VERTEX
8
CUT_INNER
10
40.6748
20
196.2094
30
0.0
0
VERTEX
8
CUT_INNER
10
39.7792
20
196.3587
30
0.0
0
VERTEX
8
CUT_INNER
10
39.1822
20
197.2543
30
0.0
0
VERTEX
8
CUT_INNER
10
39.4807
20
198.8962
30
0.0
0
VERTEX
8
CUT_INNER
10
40.6748
20
199.9410
30
0.0
0
VERTEX
8
CUT_INNER
10
42.6153
20
200.2396
30
0.0
0
VERTEX
8
CUT_INNER
10
43.8094
20
199.4932
30
0.0
0
VERTEX
8
CUT_INNER
10
44.2572
20
198.2991
30
0.0
0
VERTEX
8
CUT_INNER
10
44.5557
20
200.3888
30
0.0
0
VERTEX
8
CUT_INNER
10
47.8396
20
203.9712
30
0.0
0
VERTEX
8
CUT_INNER
10
50.0786
20
204.7175
30
0.0
0
VERTEX
8
CUT_INNER
10
49.7800
20
206.3595
30
0.0
0
VERTEX
8
CUT_INNER
10
51.1234
20
206.5087
30
0.0
0
VERTEX
8
CUT_INNER
10
52.0190
20
205.3146
30
0.0
0
VERTEX
8
CUT_INNER
10
52.6161
20
205.7624
30
0.0
0
VERTEX
8
CUT_INNER
10
52.0190
20
206.5087
30
0.0
0
VERTEX
8
CUT_INNER
10
52.1683
20
207.2550
30
0.0
0
VERTEX
8
CUT_INNER
10
51.1234
20
208.0014
30
0.0
0
VERTEX
8
CUT_INNER
10
51.1234
20
208.8970
30
0.0
0
VERTEX
8
CUT_INNER
10
49.7800
20
209.1955
30
0.0
0
VERTEX
8
CUT_INNER
10
48.8844
20
210.2404
30
0.0
0
VERTEX
8
CUT_INNER
10
47.9888
20
209.4940
30
0.0
0
VERTEX
8
CUT_INNER
10
47.8396
20
208.1506
30
0.0
0
VERTEX
8
CUT_INNER
10
46.7947
20
207.5536
30
0.0
0
VERTEX
8
CUT_INNER
10
45.1528
20
208.8970
30
0.0
0
VERTEX
8
CUT_INNER
10
45.1528
20
209.6433
30
0.0
0
VERTEX
8
CUT_INNER
10
46.0484
20
210.5389
30
0.0
0
VERTEX
8
CUT_INNER
10
47.5410
20
210.8374
30
0.0
0
VERTEX
8
CUT_INNER
10
49.1830
20
212.1808
30
0.0
0
VERTEX
8
CUT_INNER
10
50.2278
20
210.0911
30
0.0
0
VERTEX
8
CUT_INNER
10
51.2727
20
210.9867
30
0.0
0
VERTEX
8
CUT_INNER
10
49.7800
20
212.9271
30
0.0
0
VERTEX
8
CUT_INNER
10
47.3918
20
212.7779
30
0.0
0
VERTEX
8
CUT_INNER
10
46.1976
20
212.0315
30
0.0
0
VERTEX
8
CUT_INNER
10
45.7499
20
212.3301
30
0.0
0
VERTEX
8
CUT_INNER
10
46.1976
20
213.2257
30
0.0
0
SEQEND
8
CUT_INNER
0
POLYLINE
8
CUT_INNER
66
1
70
1
0
VERTEX
8
CUT_INNER
10
51.4219
20
214.7183
30
0.0
0
VERTEX
8
CUT_INNER
10
51.1234
20
214.2705
30
0.0
0
VERTEX
8
CUT_INNER
10
52.4668
20
212.9271
30
0.0
0
VERTEX
8
CUT_INNER
10
53.0639
20
210.5389
30
0.0
0
VERTEX
8
CUT_INNER
10
54.5565
20
209.4940
30
0.0
0
VERTEX
8
CUT_INNER
10
55.0043
20
210.6881
30
0.0
0
VERTEX
8
CUT_INNER
10
56.7955
20
212.3301
30
0.0
0
VERTEX
8
CUT_INNER
10
56.4970
20
213.6735
30
0.0
0
VERTEX
8
CUT_INNER
10
55.4521
20
214.7183
30
0.0
0
SEQEND
8
CUT_INNER
0
POLYLINE
8
CUT_INNER
66
1
70
1
0
VERTEX
8
CUT_INNER
10
46.9440
20
223.0772
30
0.0
0
VERTEX
8
CUT_INNER
10
45.3021
20
221.7338
30
0.0
0
VERTEX
8
CUT_INNER
10
46.6454
20
219.0470
30
0.0
0
VERTEX
8
CUT_INNER
10
40.6748
20
216.5095
30
0.0
0
VERTEX
8
CUT_INNER
10
37.0925
20
214.1213
30
0.0
0
VERTEX
8
CUT_INNER
10
33.3608
20
210.3896
30
0.0
0
VERTEX
8
CUT_INNER
10
31.2711
20
207.4043
30
0.0
0
VERTEX
8
CUT_INNER
10
29.4799
20
203.8219
30
0.0
0
VERTEX
8
CUT_INNER
10
27.9873
20
198.1499
30
0.0
0
VERTEX
8
CUT_INNER
10
27.9873
20
192.0300
30
0.0
0
VERTEX
8
CUT_INNER
10
28.5843
20
189.0447
30
0.0
0
VERTEX
8
CUT_INNER
10
31.5696
20
182.1785
30
0.0
0
VERTEX
8
CUT_INNER
10
37.0925
20
176.0586
30
0.0
0
VERTEX
8
CUT_INNER
10
43.9587
20
172.1777
30
0.0
0
VERTEX
8
CUT_INNER
10
50.6756
20
170.6850
30
0.0
0
VERTEX
8
CUT_INNER
10
50.6756
20
168.2968
30
0.0
0
VERTEX
8
CUT_INNER
10
50.0786
20
167.4012
30
0.0
0
VERTEX
8
CUT_INNER
10
43.0631
20
165.7593
30
0.0
0
VERTEX
8
CUT_INNER
10
41.1226
20
164.4159
30
0.0
0
VERTEX
8
CUT_INNER
10
41.5704
20
163.2217
30
0.0
0
VERTEX
8
CUT_INNER
10
46.6454
20
162.3262
30
0.0
0
VERTEX
8
CUT_INNER
10
57.2433
20
162.3262
30
0.0
0
VERTEX
8
CUT_INNER
10
62.0198
20
162.9232
30
0.0
0
VERTEX
8
CUT_INNER
10
63.3632
20
163.6695
30
0.0
0
VERTEX
8
CUT_INNER
10
62.0198
20
165.4607
30
0.0
0
VERTEX
8
CUT_INNER
10
54.7058
20
167.1026
30
0.0
0
VERTEX
8
CUT_INNER
10
53.8102
20
168.2968
30
0.0
0
VERTEX
8
CUT_INNER
10
53.8102
20
170.6850
30
0.0
0
VERTEX
8
CUT_INNER
10
58.8852
20
171.8791
30
0.0
0
VERTEX
8
CUT_INNER
10
60.8257
20
171.5806
30
0.0
0
VERTEX
8
CUT_INNER
10
61.4227
20
173.5211
30
0.0
0
VERTEX
8
CUT_INNER
10
67.3933
20
176.9542
30
0.0
0
VERTEX
8
CUT_INNER
10
71.1250
20
180.6858
30
0.0
0
VERTEX
8
CUT_INNER
10
73.5132
20
184.2682
30
0.0
0
VERTEX
8
CUT_INNER
10
75.9015
20
191.7314
30
0.0
0
VERTEX
8
CUT_INNER
10
75.9015
20
198.7469
30
0.0
0
VERTEX
8
CUT_INNER
10
74.7073
20
203.2249
30
0.0
0
VERTEX
8
CUT_INNER
10
72.0206
20
208.2999
30
0.0
0
VERTEX
8
CUT_INNER
10
67.9904
20
212.6286
30
0.0
0
VERTEX
8
CUT_INNER
10
61.4227
20
216.5095
30
0.0
0
VERTEX
8
CUT_INNER
10
56.6462
20
217.7036
30
0.0
0
VERTEX
8
CUT_INNER
10
53.5117
20
217.7036
30
0.0
0
VERTEX
8
CUT_INNER
10
53.5117
20
216.6588
30
0.0
0
VERTEX
8
CUT_INNER
10
56.6462
20
216.3602
30
0.0
0
VERTEX
8
CUT_INNER
10
62.0198
20
214.5690
30
0.0
0
VERTEX
8
CUT_INNER
10
61.4227
20
213.2257
30
0.0
0
VERTEX
8
CUT_INNER
10
62.6168
20
210.8374
30
0.0
0
VERTEX
8
CUT_INNER
10
63.8110
20
210.3896
30
0.0
0
VERTEX
8
CUT_INNER
10
63.6617
20
211.8823
30
0.0
0
VERTEX
8
CUT_INNER
10
64.1095
20
212.1808
30
0.0
0
VERTEX
8
CUT_INNER
10
65.3036
20
211.2852
30
0.0
0
VERTEX
8
CUT_INNER
10
65.3036
20
209.7926
30
0.0
0
VERTEX
8
CUT_INNER
10
63.8110
20
208.4492
30
0.0
0
VERTEX
8
CUT_INNER
10
61.8705
20
209.7926
30
0.0
0
VERTEX
8
CUT_INNER
10
61.4227
20
209.4940
30
0.0
0
VERTEX
8
CUT_INNER
10
61.2735
20
208.2999
30
0.0
0
VERTEX
8
CUT_INNER
10
62.4676
20
208.2999
30
0.0
0
VERTEX
8
CUT_INNER
10
64.4080
20
206.0609
30
0.0
0
VERTEX
8
CUT_INNER
10
63.0646
20
205.1653
30
0.0
0
VERTEX
8
CUT_INNER
10
63.2139
20
203.9712
30
0.0
0
VERTEX
8
CUT_INNER
10
64.7066
20
202.9263
30
0.0
0
VERTEX
8
CUT_INNER
10
65.4529
20
203.6727
30
0.0
0
VERTEX
8
CUT_INNER
10
65.7514
20
205.6131
30
0.0
0
VERTEX
8
CUT_INNER
10
66.4977
20
206.0609
30
0.0
0
VERTEX
8
CUT_INNER
10
67.2441
20
205.7624
30
0.0
0
VERTEX
8
CUT_INNER
10
67.8411
20
206.3595
30
0.0
0
VERTEX
8
CUT_INNER
10
69.4831
20
205.1653
30
0.0
0
VERTEX
8
CUT_INNER
10
70.2294
20
205.6131
30
0.0
0
VERTEX
8
CUT_INNER
10
71.4235
20
204.4190
30
0.0
0
VERTEX
8
CUT_INNER
10
72.4684
20
204.4190
30
0.0
0
VERTEX
8
CUT_INNER
10
72.6176
20
203.3741
30
0.0
0
VERTEX
8
CUT_INNER
10
70.2294
20
202.1800
30
0.0
0
VERTEX
8
CUT_INNER
10
68.5875
20
202.9263
30
0.0
0
VERTEX
8
CUT_INNER
10
67.9904
20
203.9712
30
0.0
0
VERTEX
8
CUT_INNER
10
66.3485
20
203.3741
30
0.0
0
VERTEX
8
CUT_INNER
10
64.4080
20
202.0308
30
0.0
0
VERTEX
8
CUT_INNER
10
64.1095
20
200.2396
30
0.0
0
VERTEX
8
CUT_INNER
10
62.9154
20
198.4484
30
0.0
0
VERTEX
8
CUT_INNER
10
62.9154
20
194.7167
30
0.0
0
VERTEX
8
CUT_INNER
10
63.8110
20
193.2241
30
0.0
0
VERTEX
8
CUT_INNER
10
65.4529
20
191.8807
30
0.0
0
VERTEX
8
CUT_INNER
10
69.1845
20
192.6270
30
0.0
0
VERTEX
8
CUT_INNER
10
70.3786
20
191.7314
30
0.0
0
VERTEX
8
CUT_INNER
10
70.0801
20
189.6417
30
0.0
0
VERTEX
8
CUT_INNER
10
70.6772
20
188.7461
30
0.0
0
VERTEX
8
CUT_INNER
10
70.6772
20
187.1042
30
0.0
0
VERTEX
8
CUT_INNER
10
69.4831
20
185.0145
30
0.0
0
VERTEX
8
CUT_INNER
10
69.4831
20
183.5218
30
0.0
0
VERTEX
8
CUT_INNER
10
68.5875
20
181.4321
30
0.0
0
VERTEX
8
CUT_INNER
10
68.8860
20
180.2380
30
0.0
0
VERTEX
8
CUT_INNER
10
64.4080
20
176.6556
30
0.0
0
VERTEX
8
CUT_INNER
10
58.7359
20
174.1181
30
0.0
0
VERTEX
8
CUT_INNER
10
53.6609
20
173.2225
30
0.0
0
VERTEX
8
CUT_INNER
10
47.5410
20
173.8196
30
0.0
0
VERTEX
8
CUT_INNER
10
43.9587
20
175.0137
30
0.0
0
VERTEX
8
CUT_INNER
10
40.3763
20
176.9542
30
0.0
0
VERTEX
8
CUT_INNER
10
37.0925
20
179.6409
30
0.0
0
VERTEX
8
CUT_INNER
10
33.5101
20
184.1189
30
0.0
0
VERTEX
8
CUT_INNER
10
31.4204
20
189.1939
30
0.0
0
VERTEX
8
CUT_INNER
10
30.5248
20
194.5675
30
0.0
0
VERTEX
8
CUT_INNER
10
30.8233
20
198.8962
30
0.0
0
VERTEX
8
CUT_INNER
10
32.0174
20
203.0756
30
0.0
0
VERTEX
8
CUT_INNER
10
34.4057
20
207.5536
30
0.0
0
VERTEX
8
CUT_INNER
10
37.9881
20
211.4345
30
0.0
0
VERTEX
8
CUT_INNER
10
41.2719
20
213.8227
30
0.0
0
VERTEX
8
CUT_INNER
10
46.3469
20
216.0617
30
0.0
0
VERTEX
8
CUT_INNER
10
47.3918
20
215.9124
30
0.0
0
VERTEX
8
CUT_INNER
10
48.5859
20
214.8676
30
0.0
0
VERTEX
8
CUT_INNER
10
49.7800
20
216.2110
30
0.0
0
VERTEX
8
CUT_INNER
10
50.6756
20
216.3602
30
0.0
0
VERTEX
8
CUT_INNER
10
50.5263
20
217.8529
30
0.0
0
VERTEX
8
CUT_INNER
10
51.2727
20
219.1963
30
0.0
0
VERTEX
8
CUT_INNER
10
48.5859
20
219.6441
30
0.0
0
VERTEX
8
CUT_INNER
10
48.2874
20
220.8382
30
0.0
0
VERTEX
8
CUT_INNER
10
48.7352
20
222.0323
30
0.0
0
SEQEND
8
CUT_INNER
0
POLYLINE
8
CUT_INNER
66
1
70
1
0
VERTEX
8
CUT_INNER
10
96.7986
20
251.8854
30
0.0
0
VERTEX
8
CUT_INNER
10
87.6934
20
241.7354
30
0.0
0
VERTEX
8
CUT_INNER
10
89.1861
20
238.0037
30
0.0
0
VERTEX
8
CUT_INNER
10
93.5148
20
244.5714
30
0.0
0
SEQEND
8
CUT_INNER
0
POLYLINE
8
CUT_INNER
66
1
70
1
0
VERTEX
8
CUT_INNER
10
50.2278
20
223.9728
30
0.0
0
VERTEX
8
CUT_INNER
10
50.5263
20
223.5250
30
0.0
0
VERTEX
8
CUT_INNER
10
60.5271
20
223.2264
30
0.0
0
VERTEX
8
CUT_INNER
10
66.4977
20
222.0323
30
0.0
0
VERTEX
8
CUT_INNER
10
74.8566
20
219.0470
30
0.0
0
VERTEX
8
CUT_INNER
10
83.9618
20
214.2705
30
0.0
0
VERTEX
8
CUT_INNER
10
92.9177
20
210.6881
30
0.0
0
VERTEX
8
CUT_INNER
10
92.1714
20
209.9418
30
0.0
0
VERTEX
8
CUT_INNER
10
87.2456
20
209.0462
30
0.0
0
VERTEX
8
CUT_INNER
10
83.6633
20
207.5536
30
0.0
0
VERTEX
8
CUT_INNER
10
85.4545
20
206.8072
30
0.0
0
VERTEX
8
CUT_INNER
10
94.5596
20
206.2102
30
0.0
0
VERTEX
8
CUT_INNER
10
109.0384
20
203.8219
30
0.0
0
VERTEX
8
CUT_INNER
10
119.0392
20
203.8219
30
0.0
0
VERTEX
8
CUT_INNER
10
121.1289
20
204.5683
30
0.0
0
VERTEX
8
CUT_INNER
10
116.8002
20
206.2102
30
0.0
0
VERTEX
8
CUT_INNER
10
116.8002
20
206.8072
30
0.0
0
VERTEX
8
CUT_INNER
10
127.5473
20
209.1955
30
0.0
0
VERTEX
8
CUT_INNER
10
146.2055
20
210.0911
30
0.0
0
VERTEX
8
CUT_INNER
10
142.3246
20
212.0315
30
0.0
0
VERTEX
8
CUT_INNER
10
135.3091
20
213.2257
30
0.0
0
VERTEX
8
CUT_INNER
10
132.6223
20
215.1661
30
0.0
0
VERTEX
8
CUT_INNER
10
132.7716
20
215.9124
30
0.0
0
VERTEX
8
CUT_INNER
10
134.5628
20
216.0617
30
0.0
0
VERTEX
8
CUT_INNER
10
135.4584
20
216.8080
30
0.0
0
VERTEX
8
CUT_INNER
10
132.0253
20
220.2411
30
0.0
0
VERTEX
8
CUT_INNER
10
132.3238
20
220.8382
30
0.0
0
VERTEX
8
CUT_INNER
10
134.2643
20
221.5845
30
0.0
0
VERTEX
8
CUT_INNER
10
130.8311
20
225.3162
30
0.0
0
VERTEX
8
CUT_INNER
10
132.9209
20
226.5103
30
0.0
0
VERTEX
8
CUT_INNER
10
130.5326
20
229.1971
30
0.0
0
VERTEX
8
CUT_INNER
10
131.5775
20
230.8390
30
0.0
0
VERTEX
8
CUT_INNER
10
129.9356
20
233.0780
30
0.0
0
VERTEX
8
CUT_INNER
10
128.7414
20
236.6603
30
0.0
0
VERTEX
8
CUT_INNER
10
127.0995
20
232.4809
30
0.0
0
VERTEX
8
CUT_INNER
10
125.7561
20
230.8390
30
0.0
0
VERTEX
8
CUT_INNER
10
127.0995
20
229.4956
30
0.0
0
VERTEX
8
CUT_INNER
10
124.5620
20
226.6595
30
0.0
0
VERTEX
8
CUT_INNER
10
126.5024
20
225.3162
30
0.0
0
VERTEX
8
CUT_INNER
10
123.3679
20
222.1816
30
0.0
0
VERTEX
8
CUT_INNER
10
125.9054
20
220.8382
30
0.0
0
VERTEX
8
CUT_INNER
10
122.1738
20
217.4051
30
0.0
0
VERTEX
8
CUT_INNER
10
125.0098
20
215.7632
30
0.0
0
VERTEX
8
CUT_INNER
10
122.0245
20
213.8227
30
0.0
0
VERTEX
8
CUT_INNER
10
119.9348
20
213.9720
30
0.0
0
VERTEX
8
CUT_INNER
10
119.9348
20
214.7183
30
0.0
0
VERTEX
8
CUT_INNER
10
116.5017
20
217.5544
30
0.0
0
VERTEX
8
CUT_INNER
10
119.0392
20
218.8977
30
0.0
0
VERTEX
8
CUT_INNER
10
115.9046
20
221.7338
30
0.0
0
VERTEX
8
CUT_INNER
10
116.0539
20
222.4801
30
0.0
0
VERTEX
8
CUT_INNER
10
117.2480
20
222.6294
30
0.0
0
VERTEX
8
CUT_INNER
10
117.8451
20
223.3757
30
0.0
0
VERTEX
8
CUT_INNER
10
115.0090
20
226.2118
30
0.0
0
VERTEX
8
CUT_INNER
10
116.8002
20
227.4059
30
0.0
0
VERTEX
8
CUT_INNER
10
114.7105
20
229.4956
30
0.0
0
VERTEX
8
CUT_INNER
10
114.5612
20
230.2419
30
0.0
0
VERTEX
8
CUT_INNER
10
115.7553
20
231.1375
30
0.0
0
VERTEX
8
CUT_INNER
10
114.1134
20
233.3765
30
0.0
0
VERTEX
8
CUT_INNER
10
113.2178
20
236.3618
30
0.0
0
VERTEX
8
CUT_INNER
10
112.4715
20
235.4662
30
0.0
0
VERTEX
8
CUT_INNER
10
111.8744
20
233.0780
30
0.0
0
VERTEX
8
CUT_INNER
10
110.2325
20
231.1375
30
0.0
0
VERTEX
8
CUT_INNER
10
111.4266
20
230.5405
30
0.0
0
VERTEX
8
CUT_INNER
10
111.5759
20
229.7941
30
0.0
0
VERTEX
8
CUT_INNER
10
109.4862
20
227.2566
30
0.0
0
VERTEX
8
CUT_INNER
10
110.8296
20
226.6595
30
0.0
0
VERTEX
8
CUT_INNER
10
110.9788
20
225.9132
30
0.0
0
VERTEX
8
CUT_INNER
10
108.4413
20
223.3757
30
0.0
0
VERTEX
8
CUT_INNER
10
109.0384
20
222.6294
30
0.0
0
VERTEX
8
CUT_INNER
10
110.2325
20
222.4801
30
0.0
0
VERTEX
8
CUT_INNER
10
110.3818
20
221.7338
30
0.0
0
VERTEX
8
CUT_INNER
10
107.3965
20
219.0470
30
0.0
0
VERTEX
8
CUT_INNER
10
109.7847
20
217.5544
30
0.0
0
VERTEX
8
CUT_INNER
10
107.3965
20
215.6139
30
0.0
0
VERTEX
8
CUT_INNER
10
105.1575
20
215.7632
30
0.0
0
VERTEX
8
CUT_INNER
10
105.3068
20
216.8080
30
0.0
0
VERTEX
8
CUT_INNER
10
102.4707
20
219.3455
30
0.0
0
VERTEX
8
CUT_INNER
10
104.4112
20
220.6889
30
0.0
0
VERTEX
8
CUT_INNER
10
101.7244
20
223.3757
30
0.0
0
VERTEX
8
CUT_INNER
10
103.5156
20
224.5698
30
0.0
0
VERTEX
8
CUT_INNER
10
100.9781
20
227.1073
30
0.0
0
VERTEX
8
CUT_INNER
10
102.3214
20
228.1522
30
0.0
0
VERTEX
8
CUT_INNER
10
100.6795
20
230.0927
30
0.0
0
VERTEX
8
CUT_INNER
10
101.4259
20
231.4360
30
0.0
0
VERTEX
8
CUT_INNER
10
99.1869
20
235.4662
30
0.0
0
VERTEX
8
CUT_INNER
10
97.0972
20
231.4360
30
0.0
0
VERTEX
8
CUT_INNER
10
97.8435
20
230.0927
30
0.0
0
VERTEX
8
CUT_INNER
10
96.0523
20
228.3015
30
0.0
0
VERTEX
8
CUT_INNER
10
97.5450
20
227.1073
30
0.0
0
VERTEX
8
CUT_INNER
10
95.3060
20
224.8684
30
0.0
0
VERTEX
8
CUT_INNER
10
96.9479
20
223.5250
30
0.0
0
VERTEX
8
CUT_INNER
10
94.4104
20
220.9875
30
0.0
0
VERTEX
8
CUT_INNER
10
96.3508
20
219.6441
30
0.0
0
VERTEX
8
CUT_INNER
10
93.8133
20
219.1963
30
0.0
0
VERTEX
8
CUT_INNER
10
91.7236
20
220.2411
30
0.0
0
VERTEX
8
CUT_INNER
10
87.5442
20
223.8235
30
0.0
0
VERTEX
8
CUT_INNER
10
87.6934
20
224.5698
30
0.0
0
VERTEX
8
CUT_INNER
10
89.4846
20
225.4654
30
0.0
0
VERTEX
8
CUT_INNER
10
86.9471
20
227.7044
30
0.0
0
VERTEX
8
CUT_INNER
10
86.9471
20
228.3015
30
0.0
0
VERTEX
8
CUT_INNER
10
88.2905
20
229.3463
30
0.0
0
VERTEX
8
CUT_INNER
10
86.0515
20
231.5853
30
0.0
0
VERTEX
8
CUT_INNER
10
87.3949
20
232.6302
30
0.0
0
VERTEX
8
CUT_INNER
10
85.4545
20
234.8691
30
0.0
0
VERTEX
8
CUT_INNER
10
86.2008
20
235.9140
30
0.0
0
VERTEX
8
CUT_INNER
10
84.2603
20
239.6456
30
0.0
0
VERTEX
8
CUT_INNER
10
82.3199
20
236.0633
30
0.0
0
VERTEX
8
CUT_INNER
10
83.0662
20
235.3169
30
0.0
0
VERTEX
8
CUT_INNER
10
82.9169
20
234.5706
30
0.0
0
VERTEX
8
CUT_INNER
10
81.2750
20
232.9287
30
0.0
0
VERTEX
8
CUT_INNER
10
82.6184
20
231.5853
30
0.0
0
VERTEX
8
CUT_INNER
10
80.3794
20
229.3463
30
0.0
0
VERTEX
8
CUT_INNER
10
82.0214
20
228.0029
30
0.0
0
VERTEX
8
CUT_INNER
10
79.3346
20
225.6147
30
0.0
0
VERTEX
8
CUT_INNER
10
81.4243
20
224.1220
30
0.0
0
VERTEX
8
CUT_INNER
10
80.5287
20
223.3757
30
0.0
0
VERTEX
8
CUT_INNER
10
78.2897
20
223.0772
30
0.0
0
VERTEX
8
CUT_INNER
10
75.0059
20
224.4206
30
0.0
0
VERTEX
8
CUT_INNER
10
73.8118
20
225.9132
30
0.0
0
VERTEX
8
CUT_INNER
10
76.3493
20
226.9581
30
0.0
0
VERTEX
8
CUT_INNER
10
73.2147
20
230.3912
30
0.0
0
VERTEX
8
CUT_INNER
10
75.4537
20
231.4360
30
0.0
0
VERTEX
8
CUT_INNER
10
73.0654
20
233.8243
30
0.0
0
VERTEX
8
CUT_INNER
10
74.1103
20
235.1677
30
0.0
0
VERTEX
8
CUT_INNER
10
71.7220
20
237.2574
30
0.0
0
VERTEX
8
CUT_INNER
10
73.3640
20
238.6008
30
0.0
0
VERTEX
8
CUT_INNER
10
70.8264
20
241.4368
30
0.0
0
VERTEX
8
CUT_INNER
10
72.3191
20
242.6310
30
0.0
0
VERTEX
8
CUT_INNER
10
70.2294
20
245.0192
30
0.0
0
VERTEX
8
CUT_INNER
10
70.2294
20
245.6163
30
0.0
0
VERTEX
8
CUT_INNER
10
71.4235
20
246.5119
30
0.0
0
VERTEX
8
CUT_INNER
10
70.5279
20
247.4074
30
0.0
0
VERTEX
8
CUT_INNER
10
68.7367
20
251.8854
30
0.0
0
VERTEX
8
CUT_INNER
10
67.3933
20
248.0045
30
0.0
0
VERTEX
8
CUT_INNER
10
66.1992
20
246.5119
30
0.0
0
VERTEX
8
CUT_INNER
10
67.3933
20
245.3177
30
0.0
0
VERTEX
8
CUT_INNER
10
65.1544
20
242.4817
30
0.0
0
VERTEX
8
CUT_INNER
10
66.7963
20
241.4368
30
0.0
0
VERTEX
8
CUT_INNER
10
63.9602
20
238.3023
30
0.0
0
VERTEX
8
CUT_INNER
10
66.1992
20
236.9589
30
0.0
0
VERTEX
8
CUT_INNER
10
63.8110
20
234.4214
30
0.0
0
VERTEX
8
CUT_INNER
10
61.2735
20
236.9589
30
0.0
0
VERTEX
8
CUT_INNER
10
61.1242
20
237.7052
30
0.0
0
VERTEX
8
CUT_INNER
10
62.3183
20
238.6008
30
0.0
0
VERTEX
8
CUT_INNER
10
60.3779
20
241.1383
30
0.0
0
VERTEX
8
CUT_INNER
10
61.2735
20
242.3324
30
0.0
0
VERTEX
8
CUT_INNER
10
58.7359
20
246.8104
30
0.0
0
VERTEX
8
CUT_INNER
10
58.1389
20
244.7207
30
0.0
0
VERTEX
8
CUT_INNER
10
56.4970
20
242.1832
30
0.0
0
VERTEX
8
CUT_INNER
10
57.5418
20
241.1383
30
0.0
0
VERTEX
8
CUT_INNER
10
55.4521
20
238.7500
30
0.0
0
VERTEX
8
CUT_INNER
10
56.9448
20
237.5559
30
0.0
0
VERTEX
8
CUT_INNER
10
54.4072
20
235.0184
30
0.0
0
VERTEX
8
CUT_INNER
10
56.0492
20
233.6750
30
0.0
0
VERTEX
8
CUT_INNER
10
53.6609
20
230.9882
30
0.0
0
VERTEX
8
CUT_INNER
10
55.7506
20
229.4956
30
0.0
0
SEQEND
8
CUT_INNER
0
POLYLINE
8
CUT_INNER
66
1
70
1
0
VERTEX
8
CUT_INNER
10
71.8713
20
249.7957
30
0.0
0
VERTEX
8
CUT_INNER
10
72.7669
20
248.6016
30
0.0
0
VERTEX
8
CUT_INNER
10
75.9015
20
252.0347
30
0.0
0
VERTEX
8
CUT_INNER
10
80.3794
20
258.0053
30
0.0
0
VERTEX
8
CUT_INNER
10
81.1258
20
257.8560
30
0.0
0
VERTEX
8
CUT_INNER
10
81.7228
20
253.0795
30
0.0
0
VERTEX
8
CUT_INNER
10
78.4390
20
249.4972
30
0.0
0
VERTEX
8
CUT_INNER
10
75.4537
20
242.0339
30
0.0
0
VERTEX
8
CUT_INNER
10
75.4537
20
241.2876
30
0.0
0
VERTEX
8
CUT_INNER
10
77.6927
20
238.6008
30
0.0
0
VERTEX
8
CUT_INNER
10
82.6184
20
244.4221
30
0.0
0
VERTEX
8
CUT_INNER
10
84.1111
20
243.6758
30
0.0
0
VERTEX
8
CUT_INNER
10
89.6339
20
250.8405
30
0.0
0
VERTEX
8
CUT_INNER
10
92.6192
20
256.5126
30
0.0
0
VERTEX
8
CUT_INNER
10
94.7089
20
257.1097
30
0.0
0
VERTEX
8
CUT_INNER
10
97.0972
20
261.5877
30
0.0
0
VERTEX
8
CUT_INNER
10
103.0678
20
269.4987
30
0.0
0
VERTEX
8
CUT_INNER
10
103.8141
20
268.7524
30
0.0
0
VERTEX
8
CUT_INNER
10
103.5156
20
263.9759
30
0.0
0
VERTEX
8
CUT_INNER
10
106.2024
20
260.3935
30
0.0
0
VERTEX
8
CUT_INNER
10
103.5156
20
259.6472
30
0.0
0
VERTEX
8
CUT_INNER
10
102.9185
20
253.3781
30
0.0
0
VERTEX
8
CUT_INNER
10
99.9332
20
248.9001
30
0.0
0
VERTEX
8
CUT_INNER
10
97.2464
20
239.4964
30
0.0
0
VERTEX
8
CUT_INNER
10
103.8141
20
246.5119
30
0.0
0
VERTEX
8
CUT_INNER
10
105.3068
20
244.8699
30
0.0
0
VERTEX
8
CUT_INNER
10
109.1877
20
236.8096
30
0.0
0
VERTEX
8
CUT_INNER
10
112.9193
20
243.6758
30
0.0
0
VERTEX
8
CUT_INNER
10
113.8149
20
243.8251
30
0.0
0
VERTEX
8
CUT_INNER
10
117.3973
20
236.9589
30
0.0
0
VERTEX
8
CUT_INNER
10
116.6509
20
235.3169
30
0.0
0
VERTEX
8
CUT_INNER
10
119.1884
20
231.2868
30
0.0
0
VERTEX
8
CUT_INNER
10
123.0693
20
235.9140
30
0.0
0
VERTEX
8
CUT_INNER
10
125.4576
20
237.7052
30
0.0
0
VERTEX
8
CUT_INNER
10
128.8907
20
242.4817
30
0.0
0
VERTEX
8
CUT_INNER
10
132.3238
20
237.8545
30
0.0
0
VERTEX
8
CUT_INNER
10
137.9959
20
235.1677
30
0.0
0
VERTEX
8
CUT_INNER
10
138.7422
20
235.4662
30
0.0
0
VERTEX
8
CUT_INNER
10
129.4878
20
247.5567
30
0.0
0
VERTEX
8
CUT_INNER
10
127.9951
20
246.8104
30
0.0
0
VERTEX
8
CUT_INNER
10
126.9502
20
247.7060
30
0.0
0
VERTEX
8
CUT_INNER
10
119.3377
20
258.6024
30
0.0
0
VERTEX
8
CUT_INNER
10
117.9943
20
257.5575
30
0.0
0
VERTEX
8
CUT_INNER
10
119.6362
20
255.4678
30
0.0
0
VERTEX
8
CUT_INNER
10
119.3377
20
253.5273
30
0.0
0
VERTEX
8
CUT_INNER
10
121.7260
20
246.0641
30
0.0
0
VERTEX
8
CUT_INNER
10
120.9796
20
245.9148
30
0.0
0
VERTEX
8
CUT_INNER
10
115.6061
20
252.1839
30
0.0
0
VERTEX
8
CUT_INNER
10
115.6061
20
252.7810
30
0.0
0
VERTEX
8
CUT_INNER
10
117.0987
20
253.9751
30
0.0
0
VERTEX
8
CUT_INNER
10
115.4568
20
256.0648
30
0.0
0
VERTEX
8
CUT_INNER
10
115.4568
20
257.4082
30
0.0
0
VERTEX
8
CUT_INNER
10
103.5156
20
273.8274
30
0.0
0
VERTEX
8
CUT_INNER
10
93.9626
20
259.6472
30
0.0
0
VERTEX
8
CUT_INNER
10
93.3655
20
259.3487
30
0.0
0
VERTEX
8
CUT_INNER
10
92.6192
20
259.7965
30
0.0
0
VERTEX
8
CUT_INNER
10
91.5743
20
258.7516
30
0.0
0
VERTEX
8
CUT_INNER
10
88.1412
20
253.2288
30
0.0
0
VERTEX
8
CUT_INNER
10
87.2456
20
253.3781
30
0.0
0
VERTEX
8
CUT_INNER
10
80.9765
20
262.1847
30
0.0
0
SEQEND
8
CUT_INNER
0
POLYLINE
8
CUT_INNER
66
1
70
1
0
VERTEX
8
CUT_INNER
10
116.5017
20
274.7230
30
0.0
0
VERTEX
8
CUT_INNER
10
122.3230
20
270.2451
30
0.0
0
VERTEX
8
CUT_INNER
10
123.3679
20
268.6031
30
0.0
0
VERTEX
8
CUT_INNER
10
122.0245
20
267.4090
30
0.0
0
VERTEX
8
CUT_INNER
10
122.4723
20
266.8119
30
0.0
0
VERTEX
8
CUT_INNER
10
126.2039
20
265.6178
30
0.0
0
VERTEX
8
CUT_INNER
10
126.2039
20
267.1105
30
0.0
0
VERTEX
8
CUT_INNER
10
127.5473
20
267.7075
30
0.0
0
VERTEX
8
CUT_INNER
10
130.3833
20
268.0061
30
0.0
0
VERTEX
8
CUT_INNER
10
133.8165
20
267.1105
30
0.0
0
VERTEX
8
CUT_INNER
10
134.2643
20
267.4090
30
0.0
0
VERTEX
8
CUT_INNER
10
130.0848
20
269.6480
30
0.0
0
VERTEX
8
CUT_INNER
10
125.1591
20
269.6480
30
0.0
0
VERTEX
8
CUT_INNER
10
121.4274
20
273.5289
30
0.0
0
VERTEX
8
CUT_INNER
10
116.9495
20
275.0215
30
0.0
0
SEQEND
8
CUT_INNER
0
POLYLINE
8
CUT_INNER
66
1
70
1
0
VERTEX
8
CUT_INNER
10
175.7600
20
285.4701
30
0.0
0
VERTEX
8
CUT_INNER
10
169.9387
20
285.4701
30
0.0
0
VERTEX
8
CUT_INNER
10
165.1622
20
284.5745
30
0.0
0
VERTEX
8
CUT_INNER
10
156.2063
20
281.2907
30
0.0
0
VERTEX
8
CUT_INNER
10
147.8474
20
276.2157
30
0.0
0
VERTEX
8
CUT_INNER
10
139.3393
20
268.0061
30
0.0
0
VERTEX
8
CUT_INNER
10
139.3393
20
266.9612
30
0.0
0
VERTEX
8
CUT_INNER
10
140.3841
20
265.6178
30
0.0
0
VERTEX
8
CUT_INNER
10
143.0709
20
264.5730
30
0.0
0
VERTEX
8
CUT_INNER
10
144.7128
20
262.9310
30
0.0
0
VERTEX
8
CUT_INNER
10
144.7128
20
258.3038
30
0.0
0
VERTEX
8
CUT_INNER
10
146.2055
20
255.3185
30
0.0
0
VERTEX
8
CUT_INNER
10
145.9070
20
253.6766
30
0.0
0
VERTEX
8
CUT_INNER
10
145.0114
20
252.6317
30
0.0
0
VERTEX
8
CUT_INNER
10
146.9518
20
251.7361
30
0.0
0
VERTEX
8
CUT_INNER
10
147.1011
20
249.9450
30
0.0
0
VERTEX
8
CUT_INNER
10
149.7879
20
248.1538
30
0.0
0
VERTEX
8
CUT_INNER
10
149.7879
20
245.7655
30
0.0
0
VERTEX
8
CUT_INNER
10
147.8474
20
245.4670
30
0.0
0
VERTEX
8
CUT_INNER
10
147.1011
20
244.4221
30
0.0
0
VERTEX
8
CUT_INNER
10
145.6084
20
238.4515
30
0.0
0
VERTEX
8
CUT_INNER
10
143.5187
20
236.3618
30
0.0
0
VERTEX
8
CUT_INNER
10
139.3393
20
230.2419
30
0.0
0
VERTEX
8
CUT_INNER
10
140.0856
20
229.4956
30
0.0
0
VERTEX
8
CUT_INNER
10
149.7879
20
225.9132
30
0.0
0
VERTEX
8
CUT_INNER
10
155.4599
20
222.7786
30
0.0
0
VERTEX
8
CUT_INNER
10
162.9232
20
217.4051
30
0.0
0
VERTEX
8
CUT_INNER
10
171.8791
20
209.0462
30
0.0
0
VERTEX
8
CUT_INNER
10
176.2078
20
216.5095
30
0.0
0
VERTEX
8
CUT_INNER
10
182.6262
20
225.4654
30
0.0
0
VERTEX
8
CUT_INNER
10
179.0439
20
229.6449
30
0.0
0
VERTEX
8
CUT_INNER
10
171.4313
20
236.0633
30
0.0
0
VERTEX
8
CUT_INNER
10
171.8791
20
236.3618
30
0.0
0
VERTEX
8
CUT_INNER
10
176.9542
20
234.5706
30
0.0
0
VERTEX
8
CUT_INNER
10
177.7005
20
235.1677
30
0.0
0
VERTEX
8
CUT_INNER
10
178.7453
20
234.8691
30
0.0
0
VERTEX
8
CUT_INNER
10
180.6858
20
236.5111
30
0.0
0
VERTEX
8
CUT_INNER
10
181.2829
20
240.2427
30
0.0
0
VERTEX
8
CUT_INNER
10
180.3873
20
241.7354
30
0.0
0
VERTEX
8
CUT_INNER
10
180.6858
20
242.9295
30
0.0
0
VERTEX
8
CUT_INNER
10
179.4917
20
244.4221
30
0.0
0
VERTEX
8
CUT_INNER
10
179.9395
20
245.0192
30
0.0
0
VERTEX
8
CUT_INNER
10
183.3726
20
241.7354
30
0.0
0
VERTEX
8
CUT_INNER
10
185.7608
20
240.8398
30
0.0
0
VERTEX
8
CUT_INNER
10
187.7013
20
240.8398
30
0.0
0
VERTEX
8
CUT_INNER
10
189.9403
20
242.1832
30
0.0
0
VERTEX
8
CUT_INNER
10
191.1344
20
245.4670
30
0.0
0
VERTEX
8
CUT_INNER
10
191.1344
20
247.4074
30
0.0
0
VERTEX
8
CUT_INNER
10
190.0895
20
249.0494
30
0.0
0
VERTEX
8
CUT_INNER
10
185.1638
20
249.0494
30
0.0
0
VERTEX
8
CUT_INNER
10
184.7160
20
248.6016
30
0.0
0
VERTEX
8
CUT_INNER
10
184.7160
20
245.4670
30
0.0
0
VERTEX
8
CUT_INNER
10
184.1189
20
245.0192
30
0.0
0
VERTEX
8
CUT_INNER
10
183.0740
20
245.3177
30
0.0
0
VERTEX
8
CUT_INNER
10
179.9395
20
248.1538
30
0.0
0
VERTEX
8
CUT_INNER
10
176.9542
20
249.0494
30
0.0
0
VERTEX
8
CUT_INNER
10
179.7902
20
250.8405
30
0.0
0
VERTEX
8
CUT_INNER
10
179.7902
20
251.8854
30
0.0
0
VERTEX
8
CUT_INNER
10
178.2976
20
253.6766
30
0.0
0
VERTEX
8
CUT_INNER
10
179.6409
20
254.2737
30
0.0
0
VERTEX
8
CUT_INNER
10
180.9843
20
255.7663
30
0.0
0
VERTEX
8
CUT_INNER
10
176.5064
20
261.4384
30
0.0
0
VERTEX
8
CUT_INNER
10
177.4020
20
263.3788
30
0.0
0
VERTEX
8
CUT_INNER
10
176.8049
20
265.3193
30
0.0
0
VERTEX
8
CUT_INNER
10
177.7005
20
265.9164
30
0.0
0
VERTEX
8
CUT_INNER
10
183.8204
20
266.8119
30
0.0
0
VERTEX
8
CUT_INNER
10
185.1638
20
268.3046
30
0.0
0
VERTEX
8
CUT_INNER
10
182.3277
20
269.6480
30
0.0
0
VERTEX
8
CUT_INNER
10
176.5064
20
270.5436
30
0.0
0
VERTEX
8
CUT_INNER
10
175.7600
20
271.1406
30
0.0
0
VERTEX
8
CUT_INNER
10
176.2078
20
273.0811
30
0.0
0
VERTEX
8
CUT_INNER
10
175.3122
20
273.9767
30
0.0
0
VERTEX
8
CUT_INNER
10
175.3122
20
275.6186
30
0.0
0
VERTEX
8
CUT_INNER
10
178.2976
20
281.8878
30
0.0
0
VERTEX
8
CUT_INNER
10
178.2976
20
283.8282
30
0.0
0
SEQEND
8
CUT_INNER
0
ENDSEC
0
EOF
