0
SECTION
2
HEADER
9
$ACADVER
1
AC1009
9
$INSUNITS
70
4
0
ENDSEC
0
SECTION
2
ENTITIES
0
POLYLINE
8
ALIGN
66
1
70
1
0
VERTEX
8
ALIGN
10
304.8000
20
152.4000
30
0.0
0
VERTEX
8
ALIGN
10
304.7942
20
151.0701
30
0.0
0
VERTEX
8
ALIGN
10
304.7768
20
149.7403
30
0.0
0
VERTEX
8
ALIGN
10
304.7478
20
148.4106
30
0.0
0
VERTEX
8
ALIGN
10
304.7072
20
147.0813
30
0.0
0
VERTEX
8
ALIGN
10
304.6549
20
145.7524
30
0.0
0
VERTEX
8
ALIGN
10
304.5911
20
144.4240
30
0.0
0
VERTEX
8
ALIGN
10
304.5157
20
143.0962
30
0.0
0
VERTEX
8
ALIGN
10
304.4288
20
141.7691
30
0.0
0
VERTEX
8
ALIGN
10
304.3302
20
140.4428
30
0.0
0
VERTEX
8
ALIGN
10
304.2201
20
139.1175
30
0.0
0
VERTEX
8
ALIGN
10
304.0984
20
137.7931
30
0.0
0
VERTEX
8
ALIGN
10
303.9651
20
136.4699
30
0.0
0
VERTEX
8
ALIGN
10
303.8204
20
135.1478
30
0.0
0
VERTEX
8
ALIGN
10
303.6640
20
133.8271
30
0.0
0
VERTEX
8
ALIGN
10
303.4962
20
132.5078
30
0.0
0
VERTEX
8
ALIGN
10
303.3169
20
131.1900
30
0.0
0
VERTEX
8
ALIGN
10
303.1260
20
129.8738
30
0.0
0
VERTEX
8
ALIGN
10
302.9237
20
128.5594
30
0.0
0
VERTEX
8
ALIGN
10
302.7099
20
127.2467
30
0.0
0
VERTEX
8
ALIGN
10
302.4847
20
125.9360
30
0.0
0
VERTEX
8
ALIGN
10
302.2480
20
124.6273
30
0.0
0
VERTEX
8
ALIGN
10
302.0000
20
123.3207
30
0.0
0
VERTEX
8
ALIGN
10
301.7405
20
122.0163
30
0.0
0
VERTEX
8
ALIGN
10
301.4697
20
120.7143
30
0.0
0
VERTEX
8
ALIGN
10
301.1875
20
119.4146
30
0.0
0
VERTEX
8
ALIGN
10
300.8940
20
118.1175
30
0.0
0
VERTEX
8
ALIGN
10
300.5892
20
116.8229
30
0.0
0
VERTEX
8
ALIGN
10
300.2731
20
115.5311
30
0.0
0
VERTEX
8
ALIGN
10
299.9457
20
114.2421
30
0.0
0
VERTEX
8
ALIGN
10
299.6071
20
112.9560
30
0.0
0
VERTEX
8
ALIGN
10
299.2573
20
111.6729
30
0.0
0
VERTEX
8
ALIGN
10
298.8963
20
110.3929
30
0.0
0
VERTEX
8
ALIGN
10
298.5241
20
109.1161
30
0.0
0
VERTEX
8
ALIGN
10
298.1408
20
107.8426
30
0.0
0
VERTEX
8
ALIGN
10
297.7465
20
106.5724
30
0.0
0
VERTEX
8
ALIGN
10
297.3410
20
105.3058
30
0.0
0
VERTEX
8
ALIGN
10
296.9245
20
104.0428
30
0.0
0
VERTEX
8
ALIGN
10
296.4970
20
102.7834
30
0.0
0
VERTEX
8
ALIGN
10
296.0586
20
101.5278
30
0.0
0
VERTEX
8
ALIGN
10
295.6092
20
100.2761
30
0.0
0
VERTEX
8
ALIGN
10
295.1488
20
99.0284
30
0.0
0
VERTEX
8
ALIGN
10
294.6777
20
97.7847
30
0.0
0
VERTEX
8
ALIGN
10
294.1956
20
96.5452
30
0.0
0
VERTEX
8
ALIGN
10
293.7028
20
95.3100
30
0.0
0
VERTEX
8
ALIGN
10
293.1992
20
94.0790
30
0.0
0
VERTEX
8
ALIGN
10
292.6849
20
92.8526
30
0.0
0
VERTEX
8
ALIGN
10
292.1600
20
91.6306
30
0.0
0
VERTEX
8
ALIGN
10
291.6243
20
90.4133
30
0.0
0
VERTEX
8
ALIGN
10
291.0781
20
89.2007
30
0.0
0
VERTEX
8
ALIGN
10
290.5213
20
87.9930
30
0.0
0
VERTEX
8
ALIGN
10
289.9540
20
86.7901
30
0.0
0
VERTEX
8
ALIGN
10
289.3762
20
85.5922
30
0.0
0
VERTEX
8
ALIGN
10
288.7880
20
84.3995
30
0.0
0
VERTEX
8
ALIGN
10
288.1894
20
83.2118
30
0.0
0
VERTEX
8
ALIGN
10
287.5805
20
82.0295
30
0.0
0
VERTEX
8
ALIGN
10
286.9612
20
80.8525
30
0.0
0
VERTEX
8
ALIGN
10
286.3317
20
79.6810
30
0.0
0
VERTEX
8
ALIGN
10
285.6920
20
78.5150
30
0.0
0
VERTEX
8
ALIGN
10
285.0422
20
77.3546
30
0.0
0
VERTEX
8
ALIGN
10
284.3823
20
76.2000
30
0.0
0
VERTEX
8
ALIGN
10
283.7123
20
75.0512
30
0.0
0
VERTEX
8
ALIGN
10
283.0323
20
73.9082
30
0.0
0
VERTEX
8
ALIGN
10
282.3424
20
72.7712
30
0.0
0
VERTEX
8
ALIGN
10
281.6425
20
71.6403
30
0.0
0
VERTEX
8
ALIGN
10
280.9329
20
70.5155
30
0.0
0
VERTEX
8
ALIGN
10
280.2134
20
69.3970
30
0.0
0
VERTEX
8
ALIGN
10
279.4842
20
68.2848
30
0.0
0
VERTEX
8
ALIGN
10
278.7453
20
67.1790
30
0.0
0
VERTEX
8
ALIGN
10
277.9968
20
66.0797
30
0.0
0
VERTEX
8
ALIGN
10
277.2388
20
64.9870
30
0.0
0
VERTEX
8
ALIGN
10
276.4712
20
63.9009
30
0.0
0
VERTEX
8
ALIGN
10
275.6942
20
62.8215
30
0.0
0
VERTEX
8
ALIGN
10
274.9078
20
61.7490
30
0.0
0
VERTEX
8
ALIGN
10
274.1121
20
60.6834
30
0.0
0
VERTEX
8
ALIGN
10
273.3070
20
59.6248
30
0.0
0
VERTEX
8
ALIGN
10
272.4928
20
58.5732
30
0.0
0
VERTEX
8
ALIGN
10
271.6695
20
57.5288
30
0.0
0
VERTEX
8
ALIGN
10
270.8370
20
56.4916
30
0.0
0
VERTEX
8
ALIGN
10
269.9956
20
55.4617
30
0.0
0
VERTEX
8
ALIGN
10
269.1452
20
54.4392
30
0.0
0
VERTEX
8
ALIGN
10
268.2859
20
53.4241
30
0.0
0
VERTEX
8
ALIGN
10
267.4177
20
52.4166
30
0.0
0
VERTEX
8
ALIGN
10
266.5409
20
51.4167
30
0.0
0
VERTEX
8
ALIGN
10
265.6553
20
50.4245
30
0.0
0
VERTEX
8
ALIGN
10
264.7611
20
49.4401
30
0.0
0
VERTEX
8
ALIGN
10
263.8583
20
48.4634
30
0.0
0
VERTEX
8
ALIGN
10
262.9471
20
47.4948
30
0.0
0
VERTEX
8
ALIGN
10
262.0274
20
46.5341
30
0.0
0
VERTEX
8
ALIGN
10
261.0994
20
45.5814
30
0.0
0
VERTEX
8
ALIGN
10
260.1631
20
44.6369
30
0.0
0
VERTEX
8
ALIGN
10
259.2186
20
43.7006
30
0.0
0
VERTEX
8
ALIGN
10
258.2659
20
42.7726
30
0.0
0
VERTEX
8
ALIGN
10
257.3052
20
41.8529
30
0.0
0
VERTEX
8
ALIGN
10
256.3366
20
40.9417
30
0.0
0
VERTEX
8
ALIGN
10
255.3599
20
40.0389
30
0.0
0
VERTEX
8
ALIGN
10
254.3755
20
39.1447
30
0.0
0
VERTEX
8
ALIGN
10
253.3833
20
38.2591
30
0.0
0
VERTEX
8
ALIGN
10
252.3834
20
37.3823
30
0.0
0
VERTEX
8
ALIGN
10
251.3759
20
36.5141
30
0.0
0
VERTEX
8
ALIGN
10
250.3608
20
35.6548
30
0.0
0
VERTEX
8
ALIGN
10
249.3383
20
34.8044
30
0.0
0
VERTEX
8
ALIGN
10
248.3084
20
33.9630
30
0.0
0
VERTEX
8
ALIGN
10
247.2712
20
33.1305
30
0.0
0
VERTEX
8
ALIGN
10
246.2268
20
32.3072
30
0.0
0
VERTEX
8
ALIGN
10
245.1752
20
31.4930
30
0.0
0
VERTEX
8
ALIGN
10
244.1166
20
30.6879
30
0.0
0
VERTEX
8
ALIGN
10
243.0510
20
29.8922
30
0.0
0
VERTEX
8
ALIGN
10
241.9785
20
29.1058
30
0.0
0
VERTEX
8
ALIGN
10
240.8991
20
28.3288
30
0.0
0
VERTEX
8
ALIGN
10
239.8130
20
27.5612
30
0.0
0
VERTEX
8
ALIGN
10
238.7203
20
26.8032
30
0.0
0
VERTEX
8
ALIGN
10
237.6210
20
26.0547
30
0.0
0
VERTEX
8
ALIGN
10
236.5152
20
25.3158
30
0.0
0
VERTEX
8
ALIGN
10
235.4030
20
24.5866
30
0.0
0
VERTEX
8
ALIGN
10
234.2845
20
23.8671
30
0.0
0
VERTEX
8
ALIGN
10
233.1597
20
23.1575
30
0.0
0
VERTEX
8
ALIGN
10
232.0288
20
22.4576
30
0.0
0
VERTEX
8
ALIGN
10
230.8918
20
21.7677
30
0.0
0
VERTEX
8
ALIGN
10
229.7488
20
21.0877
30
0.0
0
VERTEX
8
ALIGN
10
228.6000
20
20.4177
30
0.0
0
VERTEX
8
ALIGN
10
227.4454
20
19.7578
30
0.0
0
VERTEX
8
ALIGN
10
226.2850
20
19.1080
30
0.0
0
VERTEX
8
ALIGN
10
225.1190
20
18.4683
30
0.0
0
VERTEX
8
ALIGN
10
223.9475
20
17.8388
30
0.0
0
VERTEX
8
ALIGN
10
222.7705
20
17.2195
30
0.0
0
VERTEX
8
ALIGN
10
221.5882
20
16.6106
30
0.0
0
VERTEX
8
ALIGN
10
220.4005
20
16.0120
30
0.0
0
VERTEX
8
ALIGN
10
219.2078
20
15.4238
30
0.0
0
VERTEX
8
ALIGN
10
218.0099
20
14.8460
30
0.0
0
VERTEX
8
ALIGN
10
216.8070
20
14.2787
30
0.0
0
VERTEX
8
ALIGN
10
215.5993
20
13.7219
30
0.0
0
VERTEX
8
ALIGN
10
214.3867
20
13.1757
30
0.0
0
VERTEX
8
ALIGN
10
213.1694
20
12.6400
30
0.0
0
VERTEX
8
ALIGN
10
211.9474
20
12.1151
30
0.0
0
VERTEX
8
ALIGN
10
210.7210
20
11.6008
30
0.0
0
VERTEX
8
ALIGN
10
209.4900
20
11.0972
30
0.0
0
VERTEX
8
ALIGN
10
208.2548
20
10.6044
30
0.0
0
VERTEX
8
ALIGN
10
207.0153
20
10.1223
30
0.0
0
VERTEX
8
ALIGN
10
205.7716
20
9.6512
30
0.0
0
VERTEX
8
ALIGN
10
204.5239
20
9.1908
30
0.0
0
VERTEX
8
ALIGN
10
203.2722
20
8.7414
30
0.0
0
VERTEX
8
ALIGN
10
202.0166
20
8.3030
30
0.0
0
VERTEX
8
ALIGN
10
200.7572
20
7.8755
30
0.0
0
VERTEX
8
ALIGN
10
199.4942
20
7.4590
30
0.0
0
VERTEX
8
ALIGN
10
198.2276
20
7.0535
30
0.0
0
VERTEX
8
ALIGN
10
196.9574
20
6.6592
30
0.0
0
VERTEX
8
ALIGN
10
195.6839
20
6.2759
30
0.0
0
VERTEX
8
ALIGN
10
194.4071
20
5.9037
30
0.0
0
VERTEX
8
ALIGN
10
193.1271
20
5.5427
30
0.0
0
VERTEX
8
ALIGN
10
191.8440
20
5.1929
30
0.0
0
VERTEX
8
ALIGN
10
190.5579
20
4.8543
30
0.0
0
VERTEX
8
ALIGN
10
189.2689
20
4.5269
30
0.0
0
VERTEX
8
ALIGN
10
187.9771
20
4.2108
30
0.0
0
VERTEX
8
ALIGN
10
186.6825
20
3.9060
30
0.0
0
VERTEX
8
ALIGN
10
185.3854
20
3.6125
30
0.0
0
VERTEX
8
ALIGN
10
184.0857
20
3.3303
30
0.0
0
VERTEX
8
ALIGN
10
182.7837
20
3.0595
30
0.0
0
VERTEX
8
ALIGN
10
181.4793
20
2.8000
30
0.0
0
VERTEX
8
ALIGN
10
180.1727
20
2.5520
30
0.0
0
VERTEX
8
ALIGN
10
178.8640
20
2.3153
30
0.0
0
VERTEX
8
ALIGN
10
177.5533
20
2.0901
30
0.0
0
VERTEX
8
ALIGN
10
176.2406
20
1.8763
30
0.0
0
VERTEX
8
ALIGN
10
174.9262
20
1.6740
30
0.0
0
VERTEX
8
ALIGN
10
173.6100
20
1.4831
30
0.0
0
VERTEX
8
ALIGN
10
172.2922
20
1.3038
30
0.0
0
VERTEX
8
ALIGN
10
170.9729
20
1.1360
30
0.0
0
VERTEX
8
ALIGN
10
169.6522
20
0.9796
30
0.0
0
VERTEX
8
ALIGN
10
168.3301
20
0.8349
30
0.0
0
VERTEX
8
ALIGN
10
167.0069
20
0.7016
30
0.0
0
VERTEX
8
ALIGN
10
165.6825
20
0.5799
30
0.0
0
VERTEX
8
ALIGN
10
164.3572
20
0.4698
30
0.0
0
VERTEX
8
ALIGN
10
163.0309
20
0.3712
30
0.0
0
VERTEX
8
ALIGN
10
161.7038
20
0.2843
30
0.0
0
VERTEX
8
ALIGN
10
160.3760
20
0.2089
30
0.0
0
VERTEX
8
ALIGN
10
159.0476
20
0.1451
30
0.0
0
VERTEX
8
ALIGN
10
157.7187
20
0.0928
30
0.0
0
VERTEX
8
ALIGN
10
156.3894
20
0.0522
30
0.0
0
VERTEX
8
ALIGN
10
155.0597
20
0.0232
30
0.0
0
VERTEX
8
ALIGN
10
153.7299
20
0.0058
30
0.0
0
VERTEX
8
ALIGN
10
152.4000
20
0.0000
30
0.0
0
VERTEX
8
ALIGN
10
151.0701
20
0.0058
30
0.0
0
VERTEX
8
ALIGN
10
149.7403
20
0.0232
30
0.0
0
VERTEX
8
ALIGN
10
148.4106
20
0.0522
30
0.0
0
VERTEX
8
ALIGN
10
147.0813
20
0.0928
30
0.0
0
VERTEX
8
ALIGN
10
145.7524
20
0.1451
30
0.0
0
VERTEX
8
ALIGN
10
144.4240
20
0.2089
30
0.0
0
VERTEX
8
ALIGN
10
143.0962
20
0.2843
30
0.0
0
VERTEX
8
ALIGN
10
141.7691
20
0.3712
30
0.0
0
VERTEX
8
ALIGN
10
140.4428
20
0.4698
30
0.0
0
VERTEX
8
ALIGN
10
139.1175
20
0.5799
30
0.0
0
VERTEX
8
ALIGN
10
137.7931
20
0.7016
30
0.0
0
VERTEX
8
ALIGN
10
136.4699
20
0.8349
30
0.0
0
VERTEX
8
ALIGN
10
135.1478
20
0.9796
30
0.0
0
VERTEX
8
ALIGN
10
133.8271
20
1.1360
30
0.0
0
VERTEX
8
ALIGN
10
132.5078
20
1.3038
30
0.0
0
VERTEX
8
ALIGN
10
131.1900
20
1.4831
30
0.0
0
VERTEX
8
ALIGN
10
129.8738
20
1.6740
30
0.0
0
VERTEX
8
ALIGN
10
128.5594
20
1.8763
30
0.0
0
VERTEX
8
ALIGN
10
127.2467
20
2.0901
30
0.0
0
VERTEX
8
ALIGN
10
125.9360
20
2.3153
30
0.0
0
VERTEX
8
ALIGN
10
124.6273
20
2.5520
30
0.0
0
VERTEX
8
ALIGN
10
123.3207
20
2.8000
30
0.0
0
VERTEX
8
ALIGN
10
122.0163
20
3.0595
30
0.0
0
VERTEX
8
ALIGN
10
120.7143
20
3.3303
30
0.0
0
VERTEX
8
ALIGN
10
119.4146
20
3.6125
30
0.0
0
VERTEX
8
ALIGN
10
118.1175
20
3.9060
30
0.0
0
VERTEX
8
ALIGN
10
116.8229
20
4.2108
30
0.0
0
VERTEX
8
ALIGN
10
115.5311
20
4.5269
30
0.0
0
VERTEX
8
ALIGN
10
114.2421
20
4.8543
30
0.0
0
VERTEX
8
ALIGN
10
112.9560
20
5.1929
30
0.0
0
VERTEX
8
ALIGN
10
111.6729
20
5.5427
30
0.0
0
VERTEX
8
ALIGN
10
110.3929
20
5.9037
30
0.0
0
VERTEX
8
ALIGN
10
109.1161
20
6.2759
30
0.0
0
VERTEX
8
ALIGN
10
107.8426
20
6.6592
30
0.0
0
VERTEX
8
ALIGN
10
106.5724
20
7.0535
30
0.0
0
VERTEX
8
ALIGN
10
105.3058
20
7.4590
30
0.0
0
VERTEX
8
ALIGN
10
104.0428
20
7.8755
30
0.0
0
VERTEX
8
ALIGN
10
102.7834
20
8.3030
30
0.0
0
VERTEX
8
ALIGN
10
101.5278
20
8.7414
30
0.0
0
VERTEX
8
ALIGN
10
100.2761
20
9.1908
30
0.0
0
VERTEX
8
ALIGN
10
99.0284
20
9.6512
30
0.0
0
VERTEX
8
ALIGN
10
97.7847
20
10.1223
30
0.0
0
VERTEX
8
ALIGN
10
96.5452
20
10.6044
30
0.0
0
VERTEX
8
ALIGN
10
95.3100
20
11.0972
30
0.0
0
VERTEX
8
ALIGN
10
94.0790
20
11.6008
30
0.0
0
VERTEX
8
ALIGN
10
92.8526
20
12.1151
30
0.0
0
VERTEX
8
ALIGN
10
91.6306
20
12.6400
30
0.0
0
VERTEX
8
ALIGN
10
90.4133
20
13.1757
30
0.0
0
VERTEX
8
ALIGN
10
89.2007
20
13.7219
30
0.0
0
VERTEX
8
ALIGN
10
87.9930
20
14.2787
30
0.0
0
VERTEX
8
ALIGN
10
86.7901
20
14.8460
30
0.0
0
VERTEX
8
ALIGN
10
85.5922
20
15.4238
30
0.0
0
VERTEX
8
ALIGN
10
84.3995
20
16.0120
30
0.0
0
VERTEX
8
ALIGN
10
83.2118
20
16.6106
30
0.0
0
VERTEX
8
ALIGN
10
82.0295
20
17.2195
30
0.0
0
VERTEX
8
ALIGN
10
80.8525
20
17.8388
30
0.0
0
VERTEX
8
ALIGN
10
79.6810
20
18.4683
30
0.0
0
VERTEX
8
ALIGN
10
78.5150
20
19.1080
30
0.0
0
VERTEX
8
ALIGN
10
77.3546
20
19.7578
30
0.0
0
VERTEX
8
ALIGN
10
76.2000
20
20.4177
30
0.0
0
VERTEX
8
ALIGN
10
75.0512
20
21.0877
30
0.0
0
VERTEX
8
ALIGN
10
73.9082
20
21.7677
30
0.0
0
VERTEX
8
ALIGN
10
72.7712
20
22.4576
30
0.0
0
VERTEX
8
ALIGN
10
71.6403
20
23.1575
30
0.0
0
VERTEX
8
ALIGN
10
70.5155
20
23.8671
30
0.0
0
VERTEX
8
ALIGN
10
69.3970
20
24.5866
30
0.0
0
VERTEX
8
ALIGN
10
68.2848
20
25.3158
30
0.0
0
VERTEX
8
ALIGN
10
67.1790
20
26.0547
30
0.0
0
VERTEX
8
ALIGN
10
66.0797
20
26.8032
30
0.0
0
VERTEX
8
ALIGN
10
64.9870
20
27.5612
30
0.0
0
VERTEX
8
ALIGN
10
63.9009
20
28.3288
30
0.0
0
VERTEX
8
ALIGN
10
62.8215
20
29.1058
30
0.0
0
VERTEX
8
ALIGN
10
61.7490
20
29.8922
30
0.0
0
VERTEX
8
ALIGN
10
60.6834
20
30.6879
30
0.0
0
VERTEX
8
ALIGN
10
59.6248
20
31.4930
30
0.0
0
VERTEX
8
ALIGN
10
58.5732
20
32.3072
30
0.0
0
VERTEX
8
ALIGN
10
57.5288
20
33.1305
30
0.0
0
VERTEX
8
ALIGN
10
56.4916
20
33.9630
30
0.0
0
VERTEX
8
ALIGN
10
55.4617
20
34.8044
30
0.0
0
VERTEX
8
ALIGN
10
54.4392
20
35.6548
30
0.0
0
VERTEX
8
ALIGN
10
53.4241
20
36.5141
30
0.0
0
VERTEX
8
ALIGN
10
52.4166
20
37.3823
30
0.0
0
VERTEX
8
ALIGN
10
51.4167
20
38.2591
30
0.0
0
VERTEX
8
ALIGN
10
50.4245
20
39.1447
30
0.0
0
VERTEX
8
ALIGN
10
49.4401
20
40.0389
30
0.0
0
VERTEX
8
ALIGN
10
48.4634
20
40.9417
30
0.0
0
VERTEX
8
ALIGN
10
47.4948
20
41.8529
30
0.0
0
VERTEX
8
ALIGN
10
46.5341
20
42.7726
30
0.0
0
VERTEX
8
ALIGN
10
45.5814
20
43.7006
30
0.0
0
VERTEX
8
ALIGN
10
44.6369
20
44.6369
30
0.0
0
VERTEX
8
ALIGN
10
43.7006
20
45.5814
30
0.0
0
VERTEX
8
ALIGN
10
42.7726
20
46.5341
30
0.0
0
VERTEX
8
ALIGN
10
41.8529
20
47.4948
30
0.0
0
VERTEX
8
ALIGN
10
40.9417
20
48.4634
30
0.0
0
VERTEX
8
ALIGN
10
40.0389
20
49.4401
30
0.0
0
VERTEX
8
ALIGN
10
39.1447
20
50.4245
30
0.0
0
VERTEX
8
ALIGN
10
38.2591
20
51.4167
30
0.0
0
VERTEX
8
ALIGN
10
37.3823
20
52.4166
30
0.0
0
VERTEX
8
ALIGN
10
36.5141
20
53.4241
30
0.0
0
VERTEX
8
ALIGN
10
35.6548
20
54.4392
30
0.0
0
VERTEX
8
ALIGN
10
34.8044
20
55.4617
30
0.0
0
VERTEX
8
ALIGN
10
33.9630
20
56.4916
30
0.0
0
VERTEX
8
ALIGN
10
33.1305
20
57.5288
30
0.0
0
VERTEX
8
ALIGN
10
32.3072
20
58.5732
30
0.0
0
VERTEX
8
ALIGN
10
31.4930
20
59.6248
30
0.0
0
VERTEX
8
ALIGN
10
30.6879
20
60.6834
30
0.0
0
VERTEX
8
ALIGN
10
29.8922
20
61.7490
30
0.0
0
VERTEX
8
ALIGN
10
29.1058
20
62.8215
30
0.0
0
VERTEX
8
ALIGN
10
28.3288
20
63.9009
30
0.0
0
VERTEX
8
ALIGN
10
27.5612
20
64.9870
30
0.0
0
VERTEX
8
ALIGN
10
26.8032
20
66.0797
30
0.0
0
VERTEX
8
ALIGN
10
26.0547
20
67.1790
30
0.0
0
VERTEX
8
ALIGN
10
25.3158
20
68.2848
30
0.0
0
VERTEX
8
ALIGN
10
24.5866
20
69.3970
30
0.0
0
VERTEX
8
ALIGN
10
23.8671
20
70.5155
30
0.0
0
VERTEX
8
ALIGN
10
23.1575
20
71.6403
30
0.0
0
VERTEX
8
ALIGN
10
22.4576
20
72.7712
30
0.0
0
VERTEX
8
ALIGN
10
21.7677
20
73.9082
30
0.0
0
VERTEX
8
ALIGN
10
21.0877
20
75.0512
30
0.0
0
VERTEX
8
ALIGN
10
20.4177
20
76.2000
30
0.0
0
VERTEX
8
ALIGN
10
19.7578
20
77.3546
30
0.0
0
VERTEX
8
ALIGN
10
19.1080
20
78.5150
30
0.0
0
VERTEX
8
ALIGN
10
18.4683
20
79.6810
30
0.0
0
VERTEX
8
ALIGN
10
17.8388
20
80.8525
30
0.0
0
VERTEX
8
ALIGN
10
17.2195
20
82.0295
30
0.0
0
VERTEX
8
ALIGN
10
16.6106
20
83.2118
30
0.0
0
VERTEX
8
ALIGN
10
16.0120
20
84.3995
30
0.0
0
VERTEX
8
ALIGN
10
15.4238
20
85.5922
30
0.0
0
VERTEX
8
ALIGN
10
14.8460
20
86.7901
30
0.0
0
VERTEX
8
ALIGN
10
14.2787
20
87.9930
30
0.0
0
VERTEX
8
ALIGN
10
13.7219
20
89.2007
30
0.0
0
VERTEX
8
ALIGN
10
13.1757
20
90.4133
30
0.0
0
VERTEX
8
ALIGN
10
12.6400
20
91.6306
30
0.0
0
VERTEX
8
ALIGN
10
12.1151
20
92.8526
30
0.0
0
VERTEX
8
ALIGN
10
11.6008
20
94.0790
30
0.0
0
VERTEX
8
ALIGN
10
11.0972
20
95.3100
30
0.0
0
VERTEX
8
ALIGN
10
10.6044
20
96.5452
30
0.0
0
VERTEX
8
ALIGN
10
10.1223
20
97.7847
30
0.0
0
VERTEX
8
ALIGN
10
9.6512
20
99.0284
30
0.0
0
VERTEX
8
ALIGN
10
9.1908
20
100.2761
30
0.0
0
VERTEX
8
ALIGN
10
8.7414
20
101.5278
30
0.0
0
VERTEX
8
ALIGN
10
8.3030
20
102.7834
30
0.0
0
VERTEX
8
ALIGN
10
7.8755
20
104.0428
30
0.0
0
VERTEX
8
ALIGN
10
7.4590
20
105.3058
30
0.0
0
VERTEX
8
ALIGN
10
7.0535
20
106.5724
30
0.0
0
VERTEX
8
ALIGN
10
6.6592
20
107.8426
30
0.0
0
VERTEX
8
ALIGN
10
6.2759
20
109.1161
30
0.0
0
VERTEX
8
ALIGN
10
5.9037
20
110.3929
30
0.0
0
VERTEX
8
ALIGN
10
5.5427
20
111.6729
30
0.0
0
VERTEX
8
ALIGN
10
5.1929
20
112.9560
30
0.0
0
VERTEX
8
ALIGN
10
4.8543
20
114.2421
30
0.0
0
VERTEX
8
ALIGN
10
4.5269
20
115.5311
30
0.0
0
VERTEX
8
ALIGN
10
4.2108
20
116.8229
30
0.0
0
VERTEX
8
ALIGN
10
3.9060
20
118.1175
30
0.0
0
VERTEX
8
ALIGN
10
3.6125
20
119.4146
30
0.0
0
VERTEX
8
ALIGN
10
3.3303
20
120.7143
30
0.0
0
VERTEX
8
ALIGN
10
3.0595
20
122.0163
30
0.0
0
VERTEX
8
ALIGN
10
2.8000
20
123.3207
30
0.0
0
VERTEX
8
ALIGN
10
2.5520
20
124.6273
30
0.0
0
VERTEX
8
ALIGN
10
2.3153
20
125.9360
30
0.0
0
VERTEX
8
ALIGN
10
2.0901
20
127.2467
30
0.0
0
VERTEX
8
ALIGN
10
1.8763
20
128.5594
30
0.0
0
VERTEX
8
ALIGN
10
1.6740
20
129.8738
30
0.0
0
VERTEX
8
ALIGN
10
1.4831
20
131.1900
30
0.0
0
VERTEX
8
ALIGN
10
1.3038
20
132.5078
30
0.0
0
VERTEX
8
ALIGN
10
1.1360
20
133.8271
30
0.0
0
VERTEX
8
ALIGN
10
0.9796
20
135.1478
30
0.0
0
VERTEX
8
ALIGN
10
0.8349
20
136.4699
30
0.0
0
VERTEX
8
ALIGN
10
0.7016
20
137.7931
30
0.0
0
VERTEX
8
ALIGN
10
0.5799
20
139.1175
30
0.0
0
VERTEX
8
ALIGN
10
0.4698
20
140.4428
30
0.0
0
VERTEX
8
ALIGN
10
0.3712
20
141.7691
30
0.0
0
VERTEX
8
ALIGN
10
0.2843
20
143.0962
30
0.0
0
VERTEX
8
ALIGN
10
0.2089
20
144.4240
30
0.0
0
VERTEX
8
ALIGN
10
0.1451
20
145.7524
30
0.0
0
VERTEX
8
ALIGN
10
0.0928
20
147.0813
30
0.0
0
VERTEX
8
ALIGN
10
0.0522
20
148.4106
30
0.0
0
VERTEX
8
ALIGN
10
0.0232
20
149.7403
30
0.0
0
VERTEX
8
ALIGN
10
0.0058
20
151.0701
30
0.0
0
VERTEX
8
ALIGN
10
0.0000
20
152.4000
30
0.0
0
VERTEX
8
ALIGN
10
0.0058
20
153.7299
30
0.0
0
VERTEX
8
ALIGN
10
0.0232
20
155.0597
30
0.0
0
VERTEX
8
ALIGN
10
0.0522
20
156.3894
30
0.0
0
VERTEX
8
ALIGN
10
0.0928
20
157.7187
30
0.0
0
VERTEX
8
ALIGN
10
0.1451
20
159.0476
30
0.0
0
VERTEX
8
ALIGN
10
0.2089
20
160.3760
30
0.0
0
VERTEX
8
ALIGN
10
0.2843
20
161.7038
30
0.0
0
VERTEX
8
ALIGN
10
0.3712
20
163.0309
30
0.0
0
VERTEX
8
ALIGN
10
0.4698
20
164.3572
30
0.0
0
VERTEX
8
ALIGN
10
0.5799
20
165.6825
30
0.0
0
VERTEX
8
ALIGN
10
0.7016
20
167.0069
30
0.0
0
VERTEX
8
ALIGN
10
0.8349
20
168.3301
30
0.0
0
VERTEX
8
ALIGN
10
0.9796
20
169.6522
30
0.0
0
VERTEX
8
ALIGN
10
1.1360
20
170.9729
30
0.0
0
VERTEX
8
ALIGN
10
1.3038
20
172.2922
30
0.0
0
VERTEX
8
ALIGN
10
1.4831
20
173.6100
30
0.0
0
VERTEX
8
ALIGN
10
1.6740
20
174.9262
30
0.0
0
VERTEX
8
ALIGN
10
1.8763
20
176.2406
30
0.0
0
VERTEX
8
ALIGN
10
2.0901
20
177.5533
30
0.0
0
VERTEX
8
ALIGN
10
2.3153
20
178.8640
30
0.0
0
VERTEX
8
ALIGN
10
2.5520
20
180.1727
30
0.0
0
VERTEX
8
ALIGN
10
2.8000
20
181.4793
30
0.0
0
VERTEX
8
ALIGN
10
3.0595
20
182.7837
30
0.0
0
VERTEX
8
ALIGN
10
3.3303
20
184.0857
30
0.0
0
VERTEX
8
ALIGN
10
3.6125
20
185.3854
30
0.0
0
VERTEX
8
ALIGN
10
3.9060
20
186.6825
30
0.0
0
VERTEX
8
ALIGN
10
4.2108
20
187.9771
30
0.0
0
VERTEX
8
ALIGN
10
4.5269
20
189.2689
30
0.0
0
VERTEX
8
ALIGN
10
4.8543
20
190.5579
30
0.0
0
VERTEX
8
ALIGN
10
5.1929
20
191.8440
30
0.0
0
VERTEX
8
ALIGN
10
5.5427
20
193.1271
30
0.0
0
VERTEX
8
ALIGN
10
5.9037
20
194.4071
30
0.0
0
VERTEX
8
ALIGN
10
6.2759
20
195.6839
30
0.0
0
VERTEX
8
ALIGN
10
6.6592
20
196.9574
30
0.0
0
VERTEX
8
ALIGN
10
7.0535
20
198.2276
30
0.0
0
VERTEX
8
ALIGN
10
7.4590
20
199.4942
30
0.0
0
VERTEX
8
ALIGN
10
7.8755
20
200.7572
30
0.0
0
VERTEX
8
ALIGN
10
8.3030
20
202.0166
30
0.0
0
VERTEX
8
ALIGN
10
8.7414
20
203.2722
30
0.0
0
VERTEX
8
ALIGN
10
9.1908
20
204.5239
30
0.0
0
VERTEX
8
ALIGN
10
9.6512
20
205.7716
30
0.0
0
VERTEX
8
ALIGN
10
10.1223
20
207.0153
30
0.0
0
VERTEX
8
ALIGN
10
10.6044
20
208.2548
30
0.0
0
VERTEX
8
ALIGN
10
11.0972
20
209.4900
30
0.0
0
VERTEX
8
ALIGN
10
11.6008
20
210.7210
30
0.0
0
VERTEX
8
ALIGN
10
12.1151
20
211.9474
30
0.0
0
VERTEX
8
ALIGN
10
12.6400
20
213.1694
30
0.0
0
VERTEX
8
ALIGN
10
13.1757
20
214.3867
30
0.0
0
VERTEX
8
ALIGN
10
13.7219
20
215.5993
30
0.0
0
VERTEX
8
ALIGN
10
14.2787
20
216.8070
30
0.0
0
VERTEX
8
ALIGN
10
14.8460
20
218.0099
30
0.0
0
VERTEX
8
ALIGN
10
15.4238
20
219.2078
30
0.0
0
VERTEX
8
ALIGN
10
16.0120
20
220.4005
30
0.0
0
VERTEX
8
ALIGN
10
16.6106
20
221.5882
30
0.0
0
VERTEX
8
ALIGN
10
17.2195
20
222.7705
30
0.0
0
VERTEX
8
ALIGN
10
17.8388
20
223.9475
30
0.0
0
VERTEX
8
ALIGN
10
18.4683
20
225.1190
30
0.0
0
VERTEX
8
ALIGN
10
19.1080
20
226.2850
30
0.0
0
VERTEX
8
ALIGN
10
19.7578
20
227.4454
30
0.0
0
VERTEX
8
ALIGN
10
20.4177
20
228.6000
30
0.0
0
VERTEX
8
ALIGN
10
21.0877
20
229.7488
30
0.0
0
VERTEX
8
ALIGN
10
21.7677
20
230.8918
30
0.0
0
VERTEX
8
ALIGN
10
22.4576
20
232.0288
30
0.0
0
VERTEX
8
ALIGN
10
23.1575
20
233.1597
30
0.0
0
VERTEX
8
ALIGN
10
23.8671
20
234.2845
30
0.0
0
VERTEX
8
ALIGN
10
24.5866
20
235.4030
30
0.0
0
VERTEX
8
ALIGN
10
25.3158
20
236.5152
30
0.0
0
VERTEX
8
ALIGN
10
26.0547
20
237.6210
30
0.0
0
VERTEX
8
ALIGN
10
26.8032
20
238.7203
30
0.0
0
VERTEX
8
ALIGN
10
27.5612
20
239.8130
30
0.0
0
VERTEX
8
ALIGN
10
28.3288
20
240.8991
30
0.0
0
VERTEX
8
ALIGN
10
29.1058
20
241.9785
30
0.0
0
VERTEX
8
ALIGN
10
29.8922
20
243.0510
30
0.0
0
VERTEX
8
ALIGN
10
30.6879
20
244.1166
30
0.0
0
VERTEX
8
ALIGN
10
31.4930
20
245.1752
30
0.0
0
VERTEX
8
ALIGN
10
32.3072
20
246.2268
30
0.0
0
VERTEX
8
ALIGN
10
33.1305
20
247.2712
30
0.0
0
VERTEX
8
ALIGN
10
33.9630
20
248.3084
30
0.0
0
VERTEX
8
ALIGN
10
34.8044
20
249.3383
30
0.0
0
VERTEX
8
ALIGN
10
35.6548
20
250.3608
30
0.0
0
VERTEX
8
ALIGN
10
36.5141
20
251.3759
30
0.0
0
VERTEX
8
ALIGN
10
37.3823
20
252.3834
30
0.0
0
VERTEX
8
ALIGN
10
38.2591
20
253.3833
30
0.0
0
VERTEX
8
ALIGN
10
39.1447
20
254.3755
30
0.0
0
VERTEX
8
ALIGN
10
40.0389
20
255.3599
30
0.0
0
VERTEX
8
ALIGN
10
40.9417
20
256.3366
30
0.0
0
VERTEX
8
ALIGN
10
41.8529
20
257.3052
30
0.0
0
VERTEX
8
ALIGN
10
42.7726
20
258.2659
30
0.0
0
VERTEX
8
ALIGN
10
43.7006
20
259.2186
30
0.0
0
VERTEX
8
ALIGN
10
44.6369
20
260.1631
30
0.0
0
VERTEX
8
ALIGN
10
45.5814
20
261.0994
30
0.0
0
VERTEX
8
ALIGN
10
46.5341
20
262.0274
30
0.0
0
VERTEX
8
ALIGN
10
47.4948
20
262.9471
30
0.0
0
VERTEX
8
ALIGN
10
48.4634
20
263.8583
30
0.0
0
VERTEX
8
ALIGN
10
49.4401
20
264.7611
30
0.0
0
VERTEX
8
ALIGN
10
50.4245
20
265.6553
30
0.0
0
VERTEX
8
ALIGN
10
51.4167
20
266.5409
30
0.0
0
VERTEX
8
ALIGN
10
52.4166
20
267.4177
30
0.0
0
VERTEX
8
ALIGN
10
53.4241
20
268.2859
30
0.0
0
VERTEX
8
ALIGN
10
54.4392
20
269.1452
30
0.0
0
VERTEX
8
ALIGN
10
55.4617
20
269.9956
30
0.0
0
VERTEX
8
ALIGN
10
56.4916
20
270.8370
30
0.0
0
VERTEX
8
ALIGN
10
57.5288
20
271.6695
30
0.0
0
VERTEX
8
ALIGN
10
58.5732
20
272.4928
30
0.0
0
VERTEX
8
ALIGN
10
59.6248
20
273.3070
30
0.0
0
VERTEX
8
ALIGN
10
60.6834
20
274.1121
30
0.0
0
VERTEX
8
ALIGN
10
61.7490
20
274.9078
30
0.0
0
VERTEX
8
ALIGN
10
62.8215
20
275.6942
30
0.0
0
VERTEX
8
ALIGN
10
63.9009
20
276.4712
30
0.0
0
VERTEX
8
ALIGN
10
64.9870
20
277.2388
30
0.0
0
VERTEX
8
ALIGN
10
66.0797
20
277.9968
30
0.0
0
VERTEX
8
ALIGN
10
67.1790
20
278.7453
30
0.0
0
VERTEX
8
ALIGN
10
68.2848
20
279.4842
30
0.0
0
VERTEX
8
ALIGN
10
69.3970
20
280.2134
30
0.0
0
VERTEX
8
ALIGN
10
70.5155
20
280.9329
30
0.0
0
VERTEX
8
ALIGN
10
71.6403
20
281.6425
30
0.0
0
VERTEX
8
ALIGN
10
72.7712
20
282.3424
30
0.0
0
VERTEX
8
ALIGN
10
73.9082
20
283.0323
30
0.0
0
VERTEX
8
ALIGN
10
75.0512
20
283.7123
30
0.0
0
VERTEX
8
ALIGN
10
76.2000
20
284.3823
30
0.0
0
VERTEX
8
ALIGN
10
77.3546
20
285.0422
30
0.0
0
VERTEX
8
ALIGN
10
78.5150
20
285.6920
30
0.0
0
VERTEX
8
ALIGN
10
79.6810
20
286.3317
30
0.0
0
VERTEX
8
ALIGN
10
80.8525
20
286.9612
30
0.0
0
VERTEX
8
ALIGN
10
82.0295
20
287.5805
30
0.0
0
VERTEX
8
ALIGN
10
83.2118
20
288.1894
30
0.0
0
VERTEX
8
ALIGN
10
84.3995
20
288.7880
30
0.0
0
VERTEX
8
ALIGN
10
85.5922
20
289.3762
30
0.0
0
VERTEX
8
ALIGN
10
86.7901
20
289.9540
30
0.0
0
VERTEX
8
ALIGN
10
87.9930
20
290.5213
30
0.0
0
VERTEX
8
ALIGN
10
89.2007
20
291.0781
30
0.0
0
VERTEX
8
ALIGN
10
90.4133
20
291.6243
30
0.0
0
VERTEX
8
ALIGN
10
91.6306
20
292.1600
30
0.0
0
VERTEX
8
ALIGN
10
92.8526
20
292.6849
30
0.0
0
VERTEX
8
ALIGN
10
94.0790
20
293.1992
30
0.0
0
VERTEX
8
ALIGN
10
95.3100
20
293.7028
30
0.0
0
VERTEX
8
ALIGN
10
96.5452
20
294.1956
30
0.0
0
VERTEX
8
ALIGN
10
97.7847
20
294.6777
30
0.0
0
VERTEX
8
ALIGN
10
99.0284
20
295.1488
30
0.0
0
VERTEX
8
ALIGN
10
100.2761
20
295.6092
30
0.0
0
VERTEX
8
ALIGN
10
101.5278
20
296.0586
30
0.0
0
VERTEX
8
ALIGN
10
102.7834
20
296.4970
30
0.0
0
VERTEX
8
ALIGN
10
104.0428
20
296.9245
30
0.0
0
VERTEX
8
ALIGN
10
105.3058
20
297.3410
30
0.0
0
VERTEX
8
ALIGN
10
106.5724
20
297.7465
30
0.0
0
VERTEX
8
ALIGN
10
107.8426
20
298.1408
30
0.0
0
VERTEX
8
ALIGN
10
109.1161
20
298.5241
30
0.0
0
VERTEX
8
ALIGN
10
110.3929
20
298.8963
30
0.0
0
VERTEX
8
ALIGN
10
111.6729
20
299.2573
30
0.0
0
VERTEX
8
ALIGN
10
112.9560
20
299.6071
30
0.0
0
VERTEX
8
ALIGN
10
114.2421
20
299.9457
30
0.0
0
VERTEX
8
ALIGN
10
115.5311
20
300.2731
30
0.0
0
VERTEX
8
ALIGN
10
116.8229
20
300.5892
30
0.0
0
VERTEX
8
ALIGN
10
118.1175
20
300.8940
30
0.0
0
VERTEX
8
ALIGN
10
119.4146
20
301.1875
30
0.0
0
VERTEX
8
ALIGN
10
120.7143
20
301.4697
30
0.0
0
VERTEX
8
ALIGN
10
122.0163
20
301.7405
30
0.0
0
VERTEX
8
ALIGN
10
123.3207
20
302.0000
30
0.0
0
VERTEX
8
ALIGN
10
124.6273
20
302.2480
30
0.0
0
VERTEX
8
ALIGN
10
125.9360
20
302.4847
30
0.0
0
VERTEX
8
ALIGN
10
127.2467
20
302.7099
30
0.0
0
VERTEX
8
ALIGN
10
128.5594
20
302.9237
30
0.0
0
VERTEX
8
ALIGN
10
129.8738
20
303.1260
30
0.0
0
VERTEX
8
ALIGN
10
131.1900
20
303.3169
30
0.0
0
VERTEX
8
ALIGN
10
132.5078
20
303.4962
30
0.0
0
VERTEX
8
ALIGN
10
133.8271
20
303.6640
30
0.0
0
VERTEX
8
ALIGN
10
135.1478
20
303.8204
30
0.0
0
VERTEX
8
ALIGN
10
136.4699
20
303.9651
30
0.0
0
VERTEX
8
ALIGN
10
137.7931
20
304.0984
30
0.0
0
VERTEX
8
ALIGN
10
139.1175
20
304.2201
30
0.0
0
VERTEX
8
ALIGN
10
140.4428
20
304.3302
30
0.0
0
VERTEX
8
ALIGN
10
141.7691
20
304.4288
30
0.0
0
VERTEX
8
ALIGN
10
143.0962
20
304.5157
30
0.0
0
VERTEX
8
ALIGN
10
144.4240
20
304.5911
30
0.0
0
VERTEX
8
ALIGN
10
145.7524
20
304.6549
30
0.0
0
VERTEX
8
ALIGN
10
147.0813
20
304.7072
30
0.0
0
VERTEX
8
ALIGN
10
148.4106
20
304.7478
30
0.0
0
VERTEX
8
ALIGN
10
149.7403
20
304.7768
30
0.0
0
VERTEX
8
ALIGN
10
151.0701
20
304.7942
30
0.0
0
VERTEX
8
ALIGN
10
152.4000
20
304.8000
30
0.0
0
VERTEX
8
ALIGN
10
153.7299
20
304.7942
30
0.0
0
VERTEX
8
ALIGN
10
155.0597
20
304.7768
30
0.0
0
VERTEX
8
ALIGN
10
156.3894
20
304.7478
30
0.0
0
VERTEX
8
ALIGN
10
157.7187
20
304.7072
30
0.0
0
VERTEX
8
ALIGN
10
159.0476
20
304.6549
30
0.0
0
VERTEX
8
ALIGN
10
160.3760
20
304.5911
30
0.0
0
VERTEX
8
ALIGN
10
161.7038
20
304.5157
30
0.0
0
VERTEX
8
ALIGN
10
163.0309
20
304.4288
30
0.0
0
VERTEX
8
ALIGN
10
164.3572
20
304.3302
30
0.0
0
VERTEX
8
ALIGN
10
165.6825
20
304.2201
30
0.0
0
VERTEX
8
ALIGN
10
167.0069
20
304.0984
30
0.0
0
VERTEX
8
ALIGN
10
168.3301
20
303.9651
30
0.0
0
VERTEX
8
ALIGN
10
169.6522
20
303.8204
30
0.0
0
VERTEX
8
ALIGN
10
170.9729
20
303.6640
30
0.0
0
VERTEX
8
ALIGN
10
172.2922
20
303.4962
30
0.0
0
VERTEX
8
ALIGN
10
173.6100
20
303.3169
30
0.0
0
VERTEX
8
ALIGN
10
174.9262
20
303.1260
30
0.0
0
VERTEX
8
ALIGN
10
176.2406
20
302.9237
30
0.0
0
VERTEX
8
ALIGN
10
177.5533
20
302.7099
30
0.0
0
VERTEX
8
ALIGN
10
178.8640
20
302.4847
30
0.0
0
VERTEX
8
ALIGN
10
180.1727
20
302.2480
30
0.0
0
VERTEX
8
ALIGN
10
181.4793
20
302.0000
30
0.0
0
VERTEX
8
ALIGN
10
182.7837
20
301.7405
30
0.0
0
VERTEX
8
ALIGN
10
184.0857
20
301.4697
30
0.0
0
VERTEX
8
ALIGN
10
185.3854
20
301.1875
30
0.0
0
VERTEX
8
ALIGN
10
186.6825
20
300.8940
30
0.0
0
VERTEX
8
ALIGN
10
187.9771
20
300.5892
30
0.0
0
VERTEX
8
ALIGN
10
189.2689
20
300.2731
30
0.0
0
VERTEX
8
ALIGN
10
190.5579
20
299.9457
30
0.0
0
VERTEX
8
ALIGN
10
191.8440
20
299.6071
30
0.0
0
VERTEX
8
ALIGN
10
193.1271
20
299.2573
30
0.0
0
VERTEX
8
ALIGN
10
194.4071
20
298.8963
30
0.0
0
VERTEX
8
ALIGN
10
195.6839
20
298.5241
30
0.0
0
VERTEX
8
ALIGN
10
196.9574
20
298.1408
30
0.0
0
VERTEX
8
ALIGN
10
198.2276
20
297.7465
30
0.0
0
VERTEX
8
ALIGN
10
199.4942
20
297.3410
30
0.0
0
VERTEX
8
ALIGN
10
200.7572
20
296.9245
30
0.0
0
VERTEX
8
ALIGN
10
202.0166
20
296.4970
30
0.0
0
VERTEX
8
ALIGN
10
203.2722
20
296.0586
30
0.0
0
VERTEX
8
ALIGN
10
204.5239
20
295.6092
30
0.0
0
VERTEX
8
ALIGN
10
205.7716
20
295.1488
30
0.0
0
VERTEX
8
ALIGN
10
207.0153
20
294.6777
30
0.0
0
VERTEX
8
ALIGN
10
208.2548
20
294.1956
30
0.0
0
VERTEX
8
ALIGN
10
209.4900
20
293.7028
30
0.0
0
VERTEX
8
ALIGN
10
210.7210
20
293.1992
30
0.0
0
VERTEX
8
ALIGN
10
211.9474
20
292.6849
30
0.0
0
VERTEX
8
ALIGN
10
213.1694
20
292.1600
30
0.0
0
VERTEX
8
ALIGN
10
214.3867
20
291.6243
30
0.0
0
VERTEX
8
ALIGN
10
215.5993
20
291.0781
30
0.0
0
VERTEX
8
ALIGN
10
216.8070
20
290.5213
30
0.0
0
VERTEX
8
ALIGN
10
218.0099
20
289.9540
30
0.0
0
VERTEX
8
ALIGN
10
219.2078
20
289.3762
30
0.0
0
VERTEX
8
ALIGN
10
220.4005
20
288.7880
30
0.0
0
VERTEX
8
ALIGN
10
221.5882
20
288.1894
30
0.0
0
VERTEX
8
ALIGN
10
222.7705
20
287.5805
30
0.0
0
VERTEX
8
ALIGN
10
223.9475
20
286.9612
30
0.0
0
VERTEX
8
ALIGN
10
225.1190
20
286.3317
30
0.0
0
VERTEX
8
ALIGN
10
226.2850
20
285.6920
30
0.0
0
VERTEX
8
ALIGN
10
227.4454
20
285.0422
30
0.0
0
VERTEX
8
ALIGN
10
228.6000
20
284.3823
30
0.0
0
VERTEX
8
ALIGN
10
229.7488
20
283.7123
30
0.0
0
VERTEX
8
ALIGN
10
230.8918
20
283.0323
30
0.0
0
VERTEX
8
ALIGN
10
232.0288
20
282.3424
30
0.0
0
VERTEX
8
ALIGN
10
233.1597
20
281.6425
30
0.0
0
VERTEX
8
ALIGN
10
234.2845
20
280.9329
30
0.0
0
VERTEX
8
ALIGN
10
235.4030
20
280.2134
30
0.0
0
VERTEX
8
ALIGN
10
236.5152
20
279.4842
30
0.0
0
VERTEX
8
ALIGN
10
237.6210
20
278.7453
30
0.0
0
VERTEX
8
ALIGN
10
238.7203
20
277.9968
30
0.0
0
VERTEX
8
ALIGN
10
239.8130
20
277.2388
30
0.0
0
VERTEX
8
ALIGN
10
240.8991
20
276.4712
30
0.0
0
VERTEX
8
ALIGN
10
241.9785
20
275.6942
30
0.0
0
VERTEX
8
ALIGN
10
243.0510
20
274.9078
30
0.0
0
VERTEX
8
ALIGN
10
244.1166
20
274.1121
30
0.0
0
VERTEX
8
ALIGN
10
245.1752
20
273.3070
30
0.0
0
VERTEX
8
ALIGN
10
246.2268
20
272.4928
30
0.0
0
VERTEX
8
ALIGN
10
247.2712
20
271.6695
30
0.0
0
VERTEX
8
ALIGN
10
248.3084
20
270.8370
30
0.0
0
VERTEX
8
ALIGN
10
249.3383
20
269.9956
30
0.0
0
VERTEX
8
ALIGN
10
250.3608
20
269.1452
30
0.0
0
VERTEX
8
ALIGN
10
251.3759
20
268.2859
30
0.0
0
VERTEX
8
ALIGN
10
252.3834
20
267.4177
30
0.0
0
VERTEX
8
ALIGN
10
253.3833
20
266.5409
30
0.0
0
VERTEX
8
ALIGN
10
254.3755
20
265.6553
30
0.0
0
VERTEX
8
ALIGN
10
255.3599
20
264.7611
30
0.0
0
VERTEX
8
ALIGN
10
256.3366
20
263.8583
30
0.0
0
VERTEX
8
ALIGN
10
257.3052
20
262.9471
30
0.0
0
VERTEX
8
ALIGN
10
258.2659
20
262.0274
30
0.0
0
VERTEX
8
ALIGN
10
259.2186
20
261.0994
30
0.0
0
VERTEX
8
ALIGN
10
260.1631
20
260.1631
30
0.0
0
VERTEX
8
ALIGN
10
261.0994
20
259.2186
30
0.0
0
VERTEX
8
ALIGN
10
262.0274
20
258.2659
30
0.0
0
VERTEX
8
ALIGN
10
262.9471
20
257.3052
30
0.0
0
VERTEX
8
ALIGN
10
263.8583
20
256.3366
30
0.0
0
VERTEX
8
ALIGN
10
264.7611
20
255.3599
30
0.0
0
VERTEX
8
ALIGN
10
265.6553
20
254.3755
30
0.0
0
VERTEX
8
ALIGN
10
266.5409
20
253.3833
30
0.0
0
VERTEX
8
ALIGN
10
267.4177
20
252.3834
30
0.0
0
VERTEX
8
ALIGN
10
268.2859
20
251.3759
30
0.0
0
VERTEX
8
ALIGN
10
269.1452
20
250.3608
30
0.0
0
VERTEX
8
ALIGN
10
269.9956
20
249.3383
30
0.0
0
VERTEX
8
ALIGN
10
270.8370
20
248.3084
30
0.0
0
VERTEX
8
ALIGN
10
271.6695
20
247.2712
30
0.0
0
VERTEX
8
ALIGN
10
272.4928
20
246.2268
30
0.0
0
VERTEX
8
ALIGN
10
273.3070
20
245.1752
30
0.0
0
VERTEX
8
ALIGN
10
274.1121
20
244.1166
30
0.0
0
VERTEX
8
ALIGN
10
274.9078
20
243.0510
30
0.0
0
VERTEX
8
ALIGN
10
275.6942
20
241.9785
30
0.0
0
VERTEX
8
ALIGN
10
276.4712
20
240.8991
30
0.0
0
VERTEX
8
ALIGN
10
277.2388
20
239.8130
30
0.0
0
VERTEX
8
ALIGN
10
277.9968
20
238.7203
30
0.0
0
VERTEX
8
ALIGN
10
278.7453
20
237.6210
30
0.0
0
VERTEX
8
ALIGN
10
279.4842
20
236.5152
30
0.0
0
VERTEX
8
ALIGN
10
280.2134
20
235.4030
30
0.0
0
VERTEX
8
ALIGN
10
280.9329
20
234.2845
30
0.0
0
VERTEX
8
ALIGN
10
281.6425
20
233.1597
30
0.0
0
VERTEX
8
ALIGN
10
282.3424
20
232.0288
30
0.0
0
VERTEX
8
ALIGN
10
283.0323
20
230.8918
30
0.0
0
VERTEX
8
ALIGN
10
283.7123
20
229.7488
30
0.0
0
VERTEX
8
ALIGN
10
284.3823
20
228.6000
30
0.0
0
VERTEX
8
ALIGN
10
285.0422
20
227.4454
30
0.0
0
VERTEX
8
ALIGN
10
285.6920
20
226.2850
30
0.0
0
VERTEX
8
ALIGN
10
286.3317
20
225.1190
30
0.0
0
VERTEX
8
ALIGN
10
286.9612
20
223.9475
30
0.0
0
VERTEX
8
ALIGN
10
287.5805
20
222.7705
30
0.0
0
VERTEX
8
ALIGN
10
288.1894
20
221.5882
30
0.0
0
VERTEX
8
ALIGN
10
288.7880
20
220.4005
30
0.0
0
VERTEX
8
ALIGN
10
289.3762
20
219.2078
30
0.0
0
VERTEX
8
ALIGN
10
289.9540
20
218.0099
30
0.0
0
VERTEX
8
ALIGN
10
290.5213
20
216.8070
30
0.0
0
VERTEX
8
ALIGN
10
291.0781
20
215.5993
30
0.0
0
VERTEX
8
ALIGN
10
291.6243
20
214.3867
30
0.0
0
VERTEX
8
ALIGN
10
292.1600
20
213.1694
30
0.0
0
VERTEX
8
ALIGN
10
292.6849
20
211.9474
30
0.0
0
VERTEX
8
ALIGN
10
293.1992
20
210.7210
30
0.0
0
VERTEX
8
ALIGN
10
293.7028
20
209.4900
30
0.0
0
VERTEX
8
ALIGN
10
294.1956
20
208.2548
30
0.0
0
VERTEX
8
ALIGN
10
294.6777
20
207.0153
30
0.0
0
VERTEX
8
ALIGN
10
295.1488
20
205.7716
30
0.0
0
VERTEX
8
ALIGN
10
295.6092
20
204.5239
30
0.0
0
VERTEX
8
ALIGN
10
296.0586
20
203.2722
30
0.0
0
VERTEX
8
ALIGN
10
296.4970
20
202.0166
30
0.0
0
VERTEX
8
ALIGN
10
296.9245
20
200.7572
30
0.0
0
VERTEX
8
ALIGN
10
297.3410
20
199.4942
30
0.0
0
VERTEX
8
ALIGN
10
297.7465
20
198.2276
30
0.0
0
VERTEX
8
ALIGN
10
298.1408
20
196.9574
30
0.0
0
VERTEX
8
ALIGN
10
298.5241
20
195.6839
30
0.0
0
VERTEX
8
ALIGN
10
298.8963
20
194.4071
30
0.0
0
VERTEX
8
ALIGN
10
299.2573
20
193.1271
30
0.0
0
VERTEX
8
ALIGN
10
299.6071
20
191.8440
30
0.0
0
VERTEX
8
ALIGN
10
299.9457
20
190.5579
30
0.0
0
VERTEX
8
ALIGN
10
300.2731
20
189.2689
30
0.0
0
VERTEX
8
ALIGN
10
300.5892
20
187.9771
30
0.0
0
VERTEX
8
ALIGN
10
300.8940
20
186.6825
30
0.0
0
VERTEX
8
ALIGN
10
301.1875
20
185.3854
30
0.0
0
VERTEX
8
ALIGN
10
301.4697
20
184.0857
30
0.0
0
VERTEX
8
ALIGN
10
301.7405
20
182.7837
30
0.0
0
VERTEX
8
ALIGN
10
302.0000
20
181.4793
30
0.0
0
VERTEX
8
ALIGN
10
302.2480
20
180.1727
30
0.0
0
VERTEX
8
ALIGN
10
302.4847
20
178.8640
30
0.0
0
VERTEX
8
ALIGN
10
302.7099
20
177.5533
30
0.0
0
VERTEX
8
ALIGN
10
302.9237
20
176.2406
30
0.0
0
VERTEX
8
ALIGN
10
303.1260
20
174.9262
30
0.0
0
VERTEX
8
ALIGN
10
303.3169
20
173.6100
30
0.0
0
VERTEX
8
ALIGN
10
303.4962
20
172.2922
30
0.0
0
VERTEX
8
ALIGN
10
303.6640
20
170.9729
30
0.0
0
VERTEX
8
ALIGN
10
303.8204
20
169.6522
30
0.0
0
VERTEX
8
ALIGN
10
303.9651
20
168.3301
30
0.0
0
VERTEX
8
ALIGN
10
304.0984
20
167.0069
30
0.0
0
VERTEX
8
ALIGN
10
304.2201
20
165.6825
30
0.0
0
VERTEX
8
ALIGN
10
304.3302
20
164.3572
30
0.0
0
VERTEX
8
ALIGN
10
304.4288
20
163.0309
30
0.0
0
VERTEX
8
ALIGN
10
304.5157
20
161.7038
30
0.0
0
VERTEX
8
ALIGN
10
304.5911
20
160.3760
30
0.0
0
VERTEX
8
ALIGN
10
304.6549
20
159.0476
30
0.0
0
VERTEX
8
ALIGN
10
304.7072
20
157.7187
30
0.0
0
VERTEX
8
ALIGN
10
304.7478
20
156.3894
30
0.0
0
VERTEX
8
ALIGN
10
304.7768
20
155.0597
30
0.0
0
VERTEX
8
ALIGN
10
304.7942
20
153.7299
30
0.0
0
SEQEND
8
ALIGN
0
POLYLINE
8
CUT_INNER
66
1
70
1
0
VERTEX
8
CUT_INNER
10
218.4500
20
109.9340
30
0.0
0
VERTEX
8
CUT_INNER
10
218.7485
20
109.1877
30
0.0
0
VERTEX
8
CUT_INNER
10
229.6449
20
109.1877
30
0.0
0
VERTEX
8
CUT_INNER
10
241.1383
20
105.0082
30
0.0
0
VERTEX
8
CUT_INNER
10
251.2883
20
107.0979
30
0.0
0
VERTEX
8
CUT_INNER
10
266.0656
20
105.0082
30
0.0
0
VERTEX
8
CUT_INNER
10
273.6782
20
107.6950
30
0.0
0
VERTEX
8
CUT_INNER
10
279.2010
20
107.8443
30
0.0
0
VERTEX
8
CUT_INNER
10
275.0215
20
110.2325
30
0.0
0
VERTEX
8
CUT_INNER
10
263.5281
20
108.7399
30
0.0
0
VERTEX
8
CUT_INNER
10
255.6170
20
111.4266
30
0.0
0
VERTEX
8
CUT_INNER
10
240.8398
20
109.3369
30
0.0
0
VERTEX
8
CUT_INNER
10
229.6449
20
112.6208
30
0.0
0
VERTEX
8
CUT_INNER
10
224.1220
20
112.3222
30
0.0
0
SEQEND
8
CUT_INNER
0
POLYLINE
8
CUT_INNER
66
1
70
1
0
VERTEX
8
CUT_INNER
10
226.8088
20
145.4592
30
0.0
0
VERTEX
8
CUT_INNER
10
225.9132
20
143.9665
30
0.0
0
VERTEX
8
CUT_INNER
10
227.8537
20
141.5783
30
0.0
0
VERTEX
8
CUT_INNER
10
226.5103
20
140.0856
30
0.0
0
VERTEX
8
CUT_INNER
10
227.1073
20
139.0407
30
0.0
0
VERTEX
8
CUT_INNER
10
228.7493
20
139.6378
30
0.0
0
VERTEX
8
CUT_INNER
10
230.5405
20
142.3246
30
0.0
0
VERTEX
8
CUT_INNER
10
229.9434
20
145.1606
30
0.0
0
SEQEND
8
CUT_INNER
0
POLYLINE
8
CUT_INNER
66
1
70
1
0
VERTEX
8
CUT_INNER
10
228.6000
20
177.4020
30
0.0
0
VERTEX
8
CUT_INNER
10
228.3015
20
176.0586
30
0.0
0
VERTEX
8
CUT_INNER
10
230.2419
20
173.3718
30
0.0
0
VERTEX
8
CUT_INNER
10
228.3015
20
163.5203
30
0.0
0
VERTEX
8
CUT_INNER
10
232.3316
20
163.5203
30
0.0
0
VERTEX
8
CUT_INNER
10
231.1375
20
165.4607
30
0.0
0
VERTEX
8
CUT_INNER
10
231.7346
20
170.3865
30
0.0
0
VERTEX
8
CUT_INNER
10
235.7647
20
163.5203
30
0.0
0
VERTEX
8
CUT_INNER
10
238.8993
20
163.5203
30
0.0
0
VERTEX
8
CUT_INNER
10
238.1530
20
169.9387
30
0.0
0
VERTEX
8
CUT_INNER
10
240.0934
20
177.4020
30
0.0
0
VERTEX
8
CUT_INNER
10
236.0633
20
177.4020
30
0.0
0
VERTEX
8
CUT_INNER
10
237.2574
20
175.1630
30
0.0
0
VERTEX
8
CUT_INNER
10
236.6603
20
172.6255
30
0.0
0
VERTEX
8
CUT_INNER
10
233.8243
20
177.4020
30
0.0
0
SEQEND
8
CUT_INNER
0
POLYLINE
8
CUT_INNER
66
1
70
1
0
VERTEX
8
CUT_INNER
10
216.9573
20
177.4020
30
0.0
0
VERTEX
8
CUT_INNER
10
217.5544
20
165.4607
30
0.0
0
VERTEX
8
CUT_INNER
10
216.6588
20
163.5203
30
0.0
0
VERTEX
8
CUT_INNER
10
226.6595
20
163.5203
30
0.0
0
VERTEX
8
CUT_INNER
10
226.6595
20
167.8490
30
0.0
0
VERTEX
8
CUT_INNER
10
224.8684
20
168.2968
30
0.0
0
VERTEX
8
CUT_INNER
10
224.8684
20
172.6255
30
0.0
0
VERTEX
8
CUT_INNER
10
226.6595
20
173.0733
30
0.0
0
VERTEX
8
CUT_INNER
10
226.6595
20
177.4020
30
0.0
0
SEQEND
8
CUT_INNER
0
POLYLINE
8
CUT_INNER
66
1
70
1
0
VERTEX
8
CUT_INNER
10
278.0069
20
184.8652
30
0.0
0
VERTEX
8
CUT_INNER
10
273.0811
20
186.0594
30
0.0
0
VERTEX
8
CUT_INNER
10
268.6031
20
183.9696
30
0.0
0
VERTEX
8
CUT_INNER
10
266.2149
20
180.0887
30
0.0
0
VERTEX
8
CUT_INNER
10
265.3193
20
175.3122
30
0.0
0
VERTEX
8
CUT_INNER
10
260.9906
20
178.2976
30
0.0
0
VERTEX
8
CUT_INNER
10
257.8560
20
178.5961
30
0.0
0
VERTEX
8
CUT_INNER
10
254.2737
20
177.1034
30
0.0
0
VERTEX
8
CUT_INNER
10
251.2883
20
173.2225
30
0.0
0
VERTEX
8
CUT_INNER
10
252.0347
20
172.1777
30
0.0
0
VERTEX
8
CUT_INNER
10
254.8707
20
173.6703
30
0.0
0
VERTEX
8
CUT_INNER
10
255.7663
20
172.7747
30
0.0
0
VERTEX
8
CUT_INNER
10
257.5575
20
173.3718
30
0.0
0
VERTEX
8
CUT_INNER
10
260.3935
20
171.8791
30
0.0
0
VERTEX
8
CUT_INNER
10
253.0795
20
167.5504
30
0.0
0
VERTEX
8
CUT_INNER
10
251.5869
20
161.4306
30
0.0
0
VERTEX
8
CUT_INNER
10
252.9303
20
160.2364
30
0.0
0
VERTEX
8
CUT_INNER
10
254.7214
20
163.2217
30
0.0
0
VERTEX
8
CUT_INNER
10
260.5428
20
166.3563
30
0.0
0
VERTEX
8
CUT_INNER
10
258.4531
20
160.0872
30
0.0
0
VERTEX
8
CUT_INNER
10
260.5428
20
153.9673
30
0.0
0
VERTEX
8
CUT_INNER
10
261.5877
20
153.9673
30
0.0
0
VERTEX
8
CUT_INNER
10
262.1847
20
157.8482
30
0.0
0
VERTEX
8
CUT_INNER
10
266.0656
20
164.4159
30
0.0
0
VERTEX
8
CUT_INNER
10
267.2597
20
164.8637
30
0.0
0
VERTEX
8
CUT_INNER
10
268.6031
20
162.6247
30
0.0
0
VERTEX
8
CUT_INNER
10
270.6929
20
154.5643
30
0.0
0
VERTEX
8
CUT_INNER
10
270.9914
20
146.6533
30
0.0
0
VERTEX
8
CUT_INNER
10
269.4987
20
137.9959
30
0.0
0
VERTEX
8
CUT_INNER
10
266.5134
20
130.5326
30
0.0
0
VERTEX
8
CUT_INNER
10
255.3185
20
132.7716
30
0.0
0
VERTEX
8
CUT_INNER
10
252.0347
20
142.4738
30
0.0
0
VERTEX
8
CUT_INNER
10
253.9751
20
142.3246
30
0.0
0
VERTEX
8
CUT_INNER
10
257.7068
20
139.3393
30
0.0
0
VERTEX
8
CUT_INNER
10
257.1097
20
143.6680
30
0.0
0
VERTEX
8
CUT_INNER
10
253.6766
20
146.6533
30
0.0
0
VERTEX
8
CUT_INNER
10
260.3935
20
146.9518
30
0.0
0
VERTEX
8
CUT_INNER
10
256.5126
20
150.5342
30
0.0
0
VERTEX
8
CUT_INNER
10
251.4376
20
149.7879
30
0.0
0
VERTEX
8
CUT_INNER
10
251.4376
20
152.1761
30
0.0
0
VERTEX
8
CUT_INNER
10
254.4229
20
155.0121
30
0.0
0
VERTEX
8
CUT_INNER
10
250.9898
20
155.3107
30
0.0
0
VERTEX
8
CUT_INNER
10
248.0045
20
153.2210
30
0.0
0
VERTEX
8
CUT_INNER
10
246.8104
20
149.6386
30
0.0
0
VERTEX
8
CUT_INNER
10
242.0339
20
150.8327
30
0.0
0
VERTEX
8
CUT_INNER
10
237.8545
20
147.8474
30
0.0
0
VERTEX
8
CUT_INNER
10
238.1530
20
146.6533
30
0.0
0
VERTEX
8
CUT_INNER
10
239.6456
20
147.3996
30
0.0
0
VERTEX
8
CUT_INNER
10
243.9743
20
146.8025
30
0.0
0
VERTEX
8
CUT_INNER
10
239.9442
20
143.6680
30
0.0
0
VERTEX
8
CUT_INNER
10
239.3471
20
138.7422
30
0.0
0
VERTEX
8
CUT_INNER
10
244.1236
20
142.3246
30
0.0
0
VERTEX
8
CUT_INNER
10
244.1236
20
136.9510
30
0.0
0
VERTEX
8
CUT_INNER
10
245.7655
20
135.0106
30
0.0
0
VERTEX
8
CUT_INNER
10
247.2582
20
139.7871
30
0.0
0
VERTEX
8
CUT_INNER
10
249.1986
20
141.7275
30
0.0
0
VERTEX
8
CUT_INNER
10
250.9898
20
136.3540
30
0.0
0
VERTEX
8
CUT_INNER
10
250.9898
20
132.3238
30
0.0
0
VERTEX
8
CUT_INNER
10
241.1383
20
128.1444
30
0.0
0
VERTEX
8
CUT_INNER
10
236.8096
20
122.6215
30
0.0
0
VERTEX
8
CUT_INNER
10
230.3912
20
120.3826
30
0.0
0
VERTEX
8
CUT_INNER
10
227.1073
20
117.6958
30
0.0
0
VERTEX
8
CUT_INNER
10
226.5103
20
115.9046
30
0.0
0
VERTEX
8
CUT_INNER
10
232.9287
20
115.4568
30
0.0
0
VERTEX
8
CUT_INNER
10
242.9295
20
112.7700
30
0.0
0
VERTEX
8
CUT_INNER
10
251.5869
20
114.8597
30
0.0
0
VERTEX
8
CUT_INNER
10
256.5126
20
114.8597
30
0.0
0
VERTEX
8
CUT_INNER
10
265.7671
20
112.4715
30
0.0
0
VERTEX
8
CUT_INNER
10
281.2907
20
116.9495
30
0.0
0
VERTEX
8
CUT_INNER
10
280.6936
20
120.0840
30
0.0
0
VERTEX
8
CUT_INNER
10
272.9318
20
127.6966
30
0.0
0
VERTEX
8
CUT_INNER
10
275.6186
20
137.8466
30
0.0
0
VERTEX
8
CUT_INNER
10
276.2157
20
146.9518
30
0.0
0
VERTEX
8
CUT_INNER
10
274.7230
20
156.5048
30
0.0
0
VERTEX
8
CUT_INNER
10
270.8421
20
165.4607
30
0.0
0
VERTEX
8
CUT_INNER
10
271.4392
20
166.2071
30
0.0
0
VERTEX
8
CUT_INNER
10
276.6635
20
163.8188
30
0.0
0
VERTEX
8
CUT_INNER
10
280.5444
20
159.0423
30
0.0
0
VERTEX
8
CUT_INNER
10
281.5892
20
159.0423
30
0.0
0
VERTEX
8
CUT_INNER
10
281.8878
20
163.3710
30
0.0
0
VERTEX
8
CUT_INNER
10
280.6936
20
166.6548
30
0.0
0
VERTEX
8
CUT_INNER
10
273.3796
20
171.7299
30
0.0
0
VERTEX
8
CUT_INNER
10
277.7083
20
173.0733
30
0.0
0
VERTEX
8
CUT_INNER
10
283.9775
20
171.4313
30
0.0
0
VERTEX
8
CUT_INNER
10
283.0819
20
175.0137
30
0.0
0
VERTEX
8
CUT_INNER
10
277.7083
20
177.9990
30
0.0
0
VERTEX
8
CUT_INNER
10
270.8421
20
176.6556
30
0.0
0
VERTEX
8
CUT_INNER
10
271.7377
20
179.4917
30
0.0
0
VERTEX
8
CUT_INNER
10
274.8723
20
182.7755
30
0.0
0
VERTEX
8
CUT_INNER
10
278.3054
20
184.1189
30
0.0
0
SEQEND
8
CUT_INNER
0
POLYLINE
8
CUT_INNER
66
1
70
1
0
VERTEX
8
CUT_INNER
10
192.7763
20
213.5242
30
0.0
0
VERTEX
8
CUT_INNER
10
191.2836
20
211.2852
30
0.0
0
VERTEX
8
CUT_INNER
10
195.3138
20
207.4043
30
0.0
0
VERTEX
8
CUT_INNER
10
192.4778
20
200.3888
30
0.0
0
VERTEX
8
CUT_INNER
10
190.6866
20
199.7918
30
0.0
0
VERTEX
8
CUT_INNER
10
188.5969
20
200.6874
30
0.0
0
VERTEX
8
CUT_INNER
10
186.8057
20
199.4932
30
0.0
0
VERTEX
8
CUT_INNER
10
187.1042
20
197.2543
30
0.0
0
VERTEX
8
CUT_INNER
10
192.4778
20
196.8065
30
0.0
0
VERTEX
8
CUT_INNER
10
193.0748
20
193.3734
30
0.0
0
VERTEX
8
CUT_INNER
10
195.3138
20
189.6417
30
0.0
0
VERTEX
8
CUT_INNER
10
191.8807
20
186.9549
30
0.0
0
VERTEX
8
CUT_INNER
10
192.1792
20
184.1189
30
0.0
0
VERTEX
8
CUT_INNER
10
194.7167
20
184.1189
30
0.0
0
VERTEX
8
CUT_INNER
10
197.7021
20
187.2535
30
0.0
0
VERTEX
8
CUT_INNER
10
205.7624
20
183.8204
30
0.0
0
VERTEX
8
CUT_INNER
10
205.9117
20
180.8351
30
0.0
0
VERTEX
8
CUT_INNER
10
208.1506
20
179.9395
30
0.0
0
VERTEX
8
CUT_INNER
10
209.6433
20
181.1336
30
0.0
0
VERTEX
8
CUT_INNER
10
209.7926
20
183.9696
30
0.0
0
VERTEX
8
CUT_INNER
10
217.8529
20
187.4027
30
0.0
0
VERTEX
8
CUT_INNER
10
221.4353
20
183.8204
30
0.0
0
VERTEX
8
CUT_INNER
10
223.6742
20
184.7160
30
0.0
0
VERTEX
8
CUT_INNER
10
223.6742
20
186.6564
30
0.0
0
VERTEX
8
CUT_INNER
10
220.0919
20
189.7910
30
0.0
0
VERTEX
8
CUT_INNER
10
222.7786
20
196.8065
30
0.0
0
VERTEX
8
CUT_INNER
10
226.9581
20
196.6572
30
0.0
0
VERTEX
8
CUT_INNER
10
228.4507
20
198.8962
30
0.0
0
VERTEX
8
CUT_INNER
10
226.3610
20
200.6874
30
0.0
0
VERTEX
8
CUT_INNER
10
223.0772
20
199.9410
30
0.0
0
VERTEX
8
CUT_INNER
10
219.7933
20
207.2550
30
0.0
0
VERTEX
8
CUT_INNER
10
223.6742
20
210.3896
30
0.0
0
VERTEX
8
CUT_INNER
10
223.3757
20
212.9271
30
0.0
0
VERTEX
8
CUT_INNER
10
220.8382
20
213.2257
30
0.0
0
VERTEX
8
CUT_INNER
10
218.0022
20
209.6433
30
0.0
0
VERTEX
8
CUT_INNER
10
213.2257
20
211.5837
30
0.0
0
VERTEX
8
CUT_INNER
10
212.0315
20
208.0014
30
0.0
0
VERTEX
8
CUT_INNER
10
216.3602
20
204.4190
30
0.0
0
VERTEX
8
CUT_INNER
10
217.8529
20
201.4337
30
0.0
0
VERTEX
8
CUT_INNER
10
217.2558
20
199.7918
30
0.0
0
VERTEX
8
CUT_INNER
10
214.1213
20
199.7918
30
0.0
0
VERTEX
8
CUT_INNER
10
214.1213
20
197.5528
30
0.0
0
VERTEX
8
CUT_INNER
10
217.4051
20
197.5528
30
0.0
0
VERTEX
8
CUT_INNER
10
218.0022
20
196.6572
30
0.0
0
VERTEX
8
CUT_INNER
10
216.6588
20
192.9256
30
0.0
0
VERTEX
8
CUT_INNER
10
212.6286
20
189.1939
30
0.0
0
VERTEX
8
CUT_INNER
10
208.7477
20
188.7461
30
0.0
0
VERTEX
8
CUT_INNER
10
208.7477
20
193.9704
30
0.0
0
VERTEX
8
CUT_INNER
10
211.2852
20
196.2094
30
0.0
0
VERTEX
8
CUT_INNER
10
211.2852
20
201.1352
30
0.0
0
VERTEX
8
CUT_INNER
10
208.7477
20
203.0756
30
0.0
0
VERTEX
8
CUT_INNER
10
208.7477
20
206.5087
30
0.0
0
VERTEX
8
CUT_INNER
10
206.5087
20
206.5087
30
0.0
0
VERTEX
8
CUT_INNER
10
206.5087
20
203.0756
30
0.0
0
VERTEX
8
CUT_INNER
10
203.2249
20
199.9410
30
0.0
0
VERTEX
8
CUT_INNER
10
199.4932
20
199.7918
30
0.0
0
VERTEX
8
CUT_INNER
10
199.4932
20
197.5528
30
0.0
0
VERTEX
8
CUT_INNER
10
202.9263
20
197.5528
30
0.0
0
VERTEX
8
CUT_INNER
10
206.5087
20
194.1197
30
0.0
0
VERTEX
8
CUT_INNER
10
206.5087
20
188.5969
30
0.0
0
VERTEX
8
CUT_INNER
10
205.6131
20
188.1491
30
0.0
0
VERTEX
8
CUT_INNER
10
200.8366
20
190.3881
30
0.0
0
VERTEX
8
CUT_INNER
10
196.3587
20
196.8065
30
0.0
0
VERTEX
8
CUT_INNER
10
196.2094
20
199.9410
30
0.0
0
VERTEX
8
CUT_INNER
10
200.2396
20
206.0609
30
0.0
0
VERTEX
8
CUT_INNER
10
205.7624
20
209.6433
30
0.0
0
VERTEX
8
CUT_INNER
10
209.1955
20
209.6433
30
0.0
0
VERTEX
8
CUT_INNER
10
210.2404
20
212.9271
30
0.0
0
VERTEX
8
CUT_INNER
10
207.4043
20
215.6139
30
0.0
0
VERTEX
8
CUT_INNER
10
205.6131
20
213.0764
30
0.0
0
VERTEX
8
CUT_INNER
10
197.5528
20
209.6433
30
0.0
0
VERTEX
8
CUT_INNER
10
194.7167
20
213.2257
30
0.0
0
SEQEND
8
CUT_INNER
0
POLYLINE
8
CUT_INNER
66
1
70
1
0
VERTEX
8
CUT_INNER
10
246.8104
20
232.3316
30
0.0
0
VERTEX
8
CUT_INNER
10
242.9295
20
230.5405
30
0.0
0
VERTEX
8
CUT_INNER
10
240.8398
20
226.6595
30
0.0
0
VERTEX
8
CUT_INNER
10
241.4368
20
222.6294
30
0.0
0
VERTEX
8
CUT_INNER
10
244.7207
20
219.3455
30
0.0
0
VERTEX
8
CUT_INNER
10
244.7207
20
217.8529
30
0.0
0
VERTEX
8
CUT_INNER
10
237.5559
20
218.0022
30
0.0
0
VERTEX
8
CUT_INNER
10
235.7647
20
216.2110
30
0.0
0
VERTEX
8
CUT_INNER
10
236.3618
20
213.6735
30
0.0
0
VERTEX
8
CUT_INNER
10
244.7207
20
212.9271
30
0.0
0
VERTEX
8
CUT_INNER
10
244.4221
20
194.4182
30
0.0
0
VERTEX
8
CUT_INNER
10
242.4817
20
192.3285
30
0.0
0
VERTEX
8
CUT_INNER
10
239.3471
20
193.0748
30
0.0
0
VERTEX
8
CUT_INNER
10
236.5111
20
195.9109
30
0.0
0
VERTEX
8
CUT_INNER
10
238.0037
20
197.2543
30
0.0
0
VERTEX
8
CUT_INNER
10
237.7052
20
198.5976
30
0.0
0
VERTEX
8
CUT_INNER
10
233.2272
20
204.4190
30
0.0
0
VERTEX
8
CUT_INNER
10
230.6897
20
199.7918
30
0.0
0
VERTEX
8
CUT_INNER
10
230.3912
20
194.5675
30
0.0
0
VERTEX
8
CUT_INNER
10
232.6302
20
195.0153
30
0.0
0
VERTEX
8
CUT_INNER
10
236.9589
20
188.5969
30
0.0
0
VERTEX
8
CUT_INNER
10
247.8552
20
181.8799
30
0.0
0
VERTEX
8
CUT_INNER
10
259.1994
20
188.8954
30
0.0
0
VERTEX
8
CUT_INNER
10
263.3788
20
195.3138
30
0.0
0
VERTEX
8
CUT_INNER
10
265.7671
20
194.8660
30
0.0
0
VERTEX
8
CUT_INNER
10
265.7671
20
197.7021
30
0.0
0
VERTEX
8
CUT_INNER
10
264.2744
20
202.7771
30
0.0
0
VERTEX
8
CUT_INNER
10
262.6325
20
204.4190
30
0.0
0
VERTEX
8
CUT_INNER
10
257.5575
20
198.0006
30
0.0
0
VERTEX
8
CUT_INNER
10
259.6472
20
196.5079
30
0.0
0
VERTEX
8
CUT_INNER
10
256.5126
20
193.0748
30
0.0
0
VERTEX
8
CUT_INNER
10
253.0795
20
192.3285
30
0.0
0
VERTEX
8
CUT_INNER
10
251.4376
20
193.8212
30
0.0
0
VERTEX
8
CUT_INNER
10
250.5420
20
212.7779
30
0.0
0
VERTEX
8
CUT_INNER
10
253.3781
20
213.6735
30
0.0
0
VERTEX
8
CUT_INNER
10
257.4082
20
213.0764
30
0.0
0
VERTEX
8
CUT_INNER
10
259.1994
20
214.2705
30
0.0
0
VERTEX
8
CUT_INNER
10
259.4979
20
215.9124
30
0.0
0
VERTEX
8
CUT_INNER
10
257.7068
20
218.0022
30
0.0
0
VERTEX
8
CUT_INNER
10
250.5420
20
217.8529
30
0.0
0
VERTEX
8
CUT_INNER
10
250.5420
20
219.6441
30
0.0
0
VERTEX
8
CUT_INNER
10
254.1244
20
223.8235
30
0.0
0
VERTEX
8
CUT_INNER
10
254.1244
20
227.5551
30
0.0
0
VERTEX
8
CUT_INNER
10
251.4376
20
231.1375
30
0.0
0
VERTEX
8
CUT_INNER
10
249.7957
20
227.7044
30
0.0
0
VERTEX
8
CUT_INNER
10
250.6913
20
225.9132
30
0.0
0
VERTEX
8
CUT_INNER
10
250.0942
20
223.9728
30
0.0
0
VERTEX
8
CUT_INNER
10
248.7508
20
222.7786
30
0.0
0
VERTEX
8
CUT_INNER
10
246.5119
20
222.7786
30
0.0
0
VERTEX
8
CUT_INNER
10
244.8699
20
224.2713
30
0.0
0
VERTEX
8
CUT_INNER
10
244.5714
20
226.2118
30
0.0
0
VERTEX
8
CUT_INNER
10
246.9596
20
228.6000
30
0.0
0
VERTEX
8
CUT_INNER
10
248.1538
20
232.0331
30
0.0
0
SEQEND
8
CUT_INNER
0
POLYLINE
8
CUT_INNER
66
1
70
1
0
VERTEX
8
CUT_INNER
10
203.5234
20
235.3169
30
0.0
0
VERTEX
8
CUT_INNER
10
201.7322
20
232.0331
30
0.0
0
VERTEX
8
CUT_INNER
10
203.5234
20
227.5551
30
0.0
0
VERTEX
8
CUT_INNER
10
199.9410
20
223.9728
30
0.0
0
VERTEX
8
CUT_INNER
10
200.5381
20
219.3455
30
0.0
0
VERTEX
8
CUT_INNER
10
203.5234
20
217.2558
30
0.0
0
VERTEX
8
CUT_INNER
10
207.7028
20
216.5095
30
0.0
0
VERTEX
8
CUT_INNER
10
207.1058
20
220.0919
30
0.0
0
VERTEX
8
CUT_INNER
10
204.5683
20
221.8831
30
0.0
0
VERTEX
8
CUT_INNER
10
204.5683
20
223.5250
30
0.0
0
VERTEX
8
CUT_INNER
10
206.2102
20
225.1669
30
0.0
0
VERTEX
8
CUT_INNER
10
210.0911
20
221.1367
30
0.0
0
VERTEX
8
CUT_INNER
10
210.8374
20
217.2558
30
0.0
0
VERTEX
8
CUT_INNER
10
212.7779
20
218.3007
30
0.0
0
VERTEX
8
CUT_INNER
10
214.5690
20
216.9573
30
0.0
0
VERTEX
8
CUT_INNER
10
219.1963
20
217.1066
30
0.0
0
VERTEX
8
CUT_INNER
10
216.2110
20
220.9875
30
0.0
0
VERTEX
8
CUT_INNER
10
218.0022
20
225.7640
30
0.0
0
VERTEX
8
CUT_INNER
10
214.5690
20
226.0625
30
0.0
0
VERTEX
8
CUT_INNER
10
212.9271
20
224.4206
30
0.0
0
VERTEX
8
CUT_INNER
10
210.2404
20
226.9581
30
0.0
0
VERTEX
8
CUT_INNER
10
214.1213
20
230.6897
30
0.0
0
VERTEX
8
CUT_INNER
10
213.5242
20
234.7199
30
0.0
0
VERTEX
8
CUT_INNER
10
209.9418
20
236.5111
30
0.0
0
SEQEND
8
CUT_INNER
0
POLYLINE
8
CUT_INNER
66
1
70
1
0
VERTEX
8
CUT_INNER
10
189.7910
20
271.7377
30
0.0
0
VERTEX
8
CUT_INNER
10
189.7910
20
270.3943
30
0.0
0
VERTEX
8
CUT_INNER
10
204.2697
20
258.0053
30
0.0
0
VERTEX
8
CUT_INNER
10
195.3138
20
251.4376
30
0.0
0
VERTEX
8
CUT_INNER
10
190.5373
20
253.2288
30
0.0
0
VERTEX
8
CUT_INNER
10
187.9998
20
252.3332
30
0.0
0
VERTEX
8
CUT_INNER
10
190.9851
20
248.3030
30
0.0
0
VERTEX
8
CUT_INNER
10
190.0895
20
245.9148
30
0.0
0
VERTEX
8
CUT_INNER
10
193.0748
20
245.3177
30
0.0
0
VERTEX
8
CUT_INNER
10
194.8660
20
240.8398
30
0.0
0
VERTEX
8
CUT_INNER
10
195.9109
20
240.5412
30
0.0
0
VERTEX
8
CUT_INNER
10
198.0006
20
241.7354
30
0.0
0
VERTEX
8
CUT_INNER
10
198.7469
20
246.8104
30
0.0
0
VERTEX
8
CUT_INNER
10
209.0462
20
251.2883
30
0.0
0
VERTEX
8
CUT_INNER
10
215.7632
20
237.8545
30
0.0
0
VERTEX
8
CUT_INNER
10
217.1066
20
237.2574
30
0.0
0
VERTEX
8
CUT_INNER
10
219.4948
20
238.4515
30
0.0
0
VERTEX
8
CUT_INNER
10
219.4948
20
256.0648
30
0.0
0
VERTEX
8
CUT_INNER
10
226.0625
20
261.4384
30
0.0
0
VERTEX
8
CUT_INNER
10
226.6595
20
264.8715
30
0.0
0
VERTEX
8
CUT_INNER
10
222.6294
20
266.0656
30
0.0
0
VERTEX
8
CUT_INNER
10
214.5690
20
263.3788
30
0.0
0
VERTEX
8
CUT_INNER
10
194.1197
20
272.6333
30
0.0
0
VERTEX
8
CUT_INNER
10
191.8807
20
272.9318
30
0.0
0
SEQEND
8
CUT_INNER
0
ENDSEC
0
EOF
