0
SECTION
2
HEADER
9
$ACADVER
1
AC1009
9
$INSUNITS
70
4
0
ENDSEC
0
SECTION
2
ENTITIES
0
POLYLINE
8
ALIGN
66
1
70
1
0
VERTEX
8
ALIGN
10
304.8000
20
152.4000
30
0.0
0
VERTEX
8
ALIGN
10
304.7942
20
151.0701
30
0.0
0
VERTEX
8
ALIGN
10
304.7768
20
149.7403
30
0.0
0
VERTEX
8
ALIGN
10
304.7478
20
148.4106
30
0.0
0
VERTEX
8
ALIGN
10
304.7072
20
147.0813
30
0.0
0
VERTEX
8
ALIGN
10
304.6549
20
145.7524
30
0.0
0
VERTEX
8
ALIGN
10
304.5911
20
144.4240
30
0.0
0
VERTEX
8
ALIGN
10
304.5157
20
143.0962
30
0.0
0
VERTEX
8
ALIGN
10
304.4288
20
141.7691
30
0.0
0
VERTEX
8
ALIGN
10
304.3302
20
140.4428
30
0.0
0
VERTEX
8
ALIGN
10
304.2201
20
139.1175
30
0.0
0
VERTEX
8
ALIGN
10
304.0984
20
137.7931
30
0.0
0
VERTEX
8
ALIGN
10
303.9651
20
136.4699
30
0.0
0
VERTEX
8
ALIGN
10
303.8204
20
135.1478
30
0.0
0
VERTEX
8
ALIGN
10
303.6640
20
133.8271
30
0.0
0
VERTEX
8
ALIGN
10
303.4962
20
132.5078
30
0.0
0
VERTEX
8
ALIGN
10
303.3169
20
131.1900
30
0.0
0
VERTEX
8
ALIGN
10
303.1260
20
129.8738
30
0.0
0
VERTEX
8
ALIGN
10
302.9237
20
128.5594
30
0.0
0
VERTEX
8
ALIGN
10
302.7099
20
127.2467
30
0.0
0
VERTEX
8
ALIGN
10
302.4847
20
125.9360
30
0.0
0
VERTEX
8
ALIGN
10
302.2480
20
124.6273
30
0.0
0
VERTEX
8
ALIGN
10
302.0000
20
123.3207
30
0.0
0
VERTEX
8
ALIGN
10
301.7405
20
122.0163
30
0.0
0
VERTEX
8
ALIGN
10
301.4697
20
120.7143
30
0.0
0
VERTEX
8
ALIGN
10
301.1875
20
119.4146
30
0.0
0
VERTEX
8
ALIGN
10
300.8940
20
118.1175
30
0.0
0
VERTEX
8
ALIGN
10
300.5892
20
116.8229
30
0.0
0
VERTEX
8
ALIGN
10
300.2731
20
115.5311
30
0.0
0
VERTEX
8
ALIGN
10
299.9457
20
114.2421
30
0.0
0
VERTEX
8
ALIGN
10
299.6071
20
112.9560
30
0.0
0
VERTEX
8
ALIGN
10
299.2573
20
111.6729
30
0.0
0
VERTEX
8
ALIGN
10
298.8963
20
110.3929
30
0.0
0
VERTEX
8
ALIGN
10
298.5241
20
109.1161
30
0.0
0
VERTEX
8
ALIGN
10
298.1408
20
107.8426
30
0.0
0
VERTEX
8
ALIGN
10
297.7465
20
106.5724
30
0.0
0
VERTEX
8
ALIGN
10
297.3410
20
105.3058
30
0.0
0
VERTEX
8
ALIGN
10
296.9245
20
104.0428
30
0.0
0
VERTEX
8
ALIGN
10
296.4970
20
102.7834
30
0.0
0
VERTEX
8
ALIGN
10
296.0586
20
101.5278
30
0.0
0
VERTEX
8
ALIGN
10
295.6092
20
100.2761
30
0.0
0
VERTEX
8
ALIGN
10
295.1488
20
99.0284
30
0.0
0
VERTEX
8
ALIGN
10
294.6777
20
97.7847
30
0.0
0
VERTEX
8
ALIGN
10
294.1956
20
96.5452
30
0.0
0
VERTEX
8
ALIGN
10
293.7028
20
95.3100
30
0.0
0
VERTEX
8
ALIGN
10
293.1992
20
94.0790
30
0.0
0
VERTEX
8
ALIGN
10
292.6849
20
92.8526
30
0.0
0
VERTEX
8
ALIGN
10
292.1600
20
91.6306
30
0.0
0
VERTEX
8
ALIGN
10
291.6243
20
90.4133
30
0.0
0
VERTEX
8
ALIGN
10
291.0781
20
89.2007
30
0.0
0
VERTEX
8
ALIGN
10
290.5213
20
87.9930
30
0.0
0
VERTEX
8
ALIGN
10
289.9540
20
86.7901
30
0.0
0
VERTEX
8
ALIGN
10
289.3762
20
85.5922
30
0.0
0
VERTEX
8
ALIGN
10
288.7880
20
84.3995
30
0.0
0
VERTEX
8
ALIGN
10
288.1894
20
83.2118
30
0.0
0
VERTEX
8
ALIGN
10
287.5805
20
82.0295
30
0.0
0
VERTEX
8
ALIGN
10
286.9612
20
80.8525
30
0.0
0
VERTEX
8
ALIGN
10
286.3317
20
79.6810
30
0.0
0
VERTEX
8
ALIGN
10
285.6920
20
78.5150
30
0.0
0
VERTEX
8
ALIGN
10
285.0422
20
77.3546
30
0.0
0
VERTEX
8
ALIGN
10
284.3823
20
76.2000
30
0.0
0
VERTEX
8
ALIGN
10
283.7123
20
75.0512
30
0.0
0
VERTEX
8
ALIGN
10
283.0323
20
73.9082
30
0.0
0
VERTEX
8
ALIGN
10
282.3424
20
72.7712
30
0.0
0
VERTEX
8
ALIGN
10
281.6425
20
71.6403
30
0.0
0
VERTEX
8
ALIGN
10
280.9329
20
70.5155
30
0.0
0
VERTEX
8
ALIGN
10
280.2134
20
69.3970
30
0.0
0
VERTEX
8
ALIGN
10
279.4842
20
68.2848
30
0.0
0
VERTEX
8
ALIGN
10
278.7453
20
67.1790
30
0.0
0
VERTEX
8
ALIGN
10
277.9968
20
66.0797
30
0.0
0
VERTEX
8
ALIGN
10
277.2388
20
64.9870
30
0.0
0
VERTEX
8
ALIGN
10
276.4712
20
63.9009
30
0.0
0
VERTEX
8
ALIGN
10
275.6942
20
62.8215
30
0.0
0
VERTEX
8
ALIGN
10
274.9078
20
61.7490
30
0.0
0
VERTEX
8
ALIGN
10
274.1121
20
60.6834
30
0.0
0
VERTEX
8
ALIGN
10
273.3070
20
59.6248
30
0.0
0
VERTEX
8
ALIGN
10
272.4928
20
58.5732
30
0.0
0
VERTEX
8
ALIGN
10
271.6695
20
57.5288
30
0.0
0
VERTEX
8
ALIGN
10
270.8370
20
56.4916
30
0.0
0
VERTEX
8
ALIGN
10
269.9956
20
55.4617
30
0.0
0
VERTEX
8
ALIGN
10
269.1452
20
54.4392
30
0.0
0
VERTEX
8
ALIGN
10
268.2859
20
53.4241
30
0.0
0
VERTEX
8
ALIGN
10
267.4177
20
52.4166
30
0.0
0
VERTEX
8
ALIGN
10
266.5409
20
51.4167
30
0.0
0
VERTEX
8
ALIGN
10
265.6553
20
50.4245
30
0.0
0
VERTEX
8
ALIGN
10
264.7611
20
49.4401
30
0.0
0
VERTEX
8
ALIGN
10
263.8583
20
48.4634
30
0.0
0
VERTEX
8
ALIGN
10
262.9471
20
47.4948
30
0.0
0
VERTEX
8
ALIGN
10
262.0274
20
46.5341
30
0.0
0
VERTEX
8
ALIGN
10
261.0994
20
45.5814
30
0.0
0
VERTEX
8
ALIGN
10
260.1631
20
44.6369
30
0.0
0
VERTEX
8
ALIGN
10
259.2186
20
43.7006
30
0.0
0
VERTEX
8
ALIGN
10
258.2659
20
42.7726
30
0.0
0
VERTEX
8
ALIGN
10
257.3052
20
41.8529
30
0.0
0
VERTEX
8
ALIGN
10
256.3366
20
40.9417
30
0.0
0
VERTEX
8
ALIGN
10
255.3599
20
40.0389
30
0.0
0
VERTEX
8
ALIGN
10
254.3755
20
39.1447
30
0.0
0
VERTEX
8
ALIGN
10
253.3833
20
38.2591
30
0.0
0
VERTEX
8
ALIGN
10
252.3834
20
37.3823
30
0.0
0
VERTEX
8
ALIGN
10
251.3759
20
36.5141
30
0.0
0
VERTEX
8
ALIGN
10
250.3608
20
35.6548
30
0.0
0
VERTEX
8
ALIGN
10
249.3383
20
34.8044
30
0.0
0
VERTEX
8
ALIGN
10
248.3084
20
33.9630
30
0.0
0
VERTEX
8
ALIGN
10
247.2712
20
33.1305
30
0.0
0
VERTEX
8
ALIGN
10
246.2268
20
32.3072
30
0.0
0
VERTEX
8
ALIGN
10
245.1752
20
31.4930
30
0.0
0
VERTEX
8
ALIGN
10
244.1166
20
30.6879
30
0.0
0
VERTEX
8
ALIGN
10
243.0510
20
29.8922
30
0.0
0
VERTEX
8
ALIGN
10
241.9785
20
29.1058
30
0.0
0
VERTEX
8
ALIGN
10
240.8991
20
28.3288
30
0.0
0
VERTEX
8
ALIGN
10
239.8130
20
27.5612
30
0.0
0
VERTEX
8
ALIGN
10
238.7203
20
26.8032
30
0.0
0
VERTEX
8
ALIGN
10
237.6210
20
26.0547
30
0.0
0
VERTEX
8
ALIGN
10
236.5152
20
25.3158
30
0.0
0
VERTEX
8
ALIGN
10
235.4030
20
24.5866
30
0.0
0
VERTEX
8
ALIGN
10
234.2845
20
23.8671
30
0.0
0
VERTEX
8
ALIGN
10
233.1597
20
23.1575
30
0.0
0
VERTEX
8
ALIGN
10
232.0288
20
22.4576
30
0.0
0
VERTEX
8
ALIGN
10
230.8918
20
21.7677
30
0.0
0
VERTEX
8
ALIGN
10
229.7488
20
21.0877
30
0.0
0
VERTEX
8
ALIGN
10
228.6000
20
20.4177
30
0.0
0
VERTEX
8
ALIGN
10
227.4454
20
19.7578
30
0.0
0
VERTEX
8
ALIGN
10
226.2850
20
19.1080
30
0.0
0
VERTEX
8
ALIGN
10
225.1190
20
18.4683
30
0.0
0
VERTEX
8
ALIGN
10
223.9475
20
17.8388
30
0.0
0
VERTEX
8
ALIGN
10
222.7705
20
17.2195
30
0.0
0
VERTEX
8
ALIGN
10
221.5882
20
16.6106
30
0.0
0
VERTEX
8
ALIGN
10
220.4005
20
16.0120
30
0.0
0
VERTEX
8
ALIGN
10
219.2078
20
15.4238
30
0.0
0
VERTEX
8
ALIGN
10
218.0099
20
14.8460
30
0.0
0
VERTEX
8
ALIGN
10
216.8070
20
14.2787
30
0.0
0
VERTEX
8
ALIGN
10
215.5993
20
13.7219
30
0.0
0
VERTEX
8
ALIGN
10
214.3867
20
13.1757
30
0.0
0
VERTEX
8
ALIGN
10
213.1694
20
12.6400
30
0.0
0
VERTEX
8
ALIGN
10
211.9474
20
12.1151
30
0.0
0
VERTEX
8
ALIGN
10
210.7210
20
11.6008
30
0.0
0
VERTEX
8
ALIGN
10
209.4900
20
11.0972
30
0.0
0
VERTEX
8
ALIGN
10
208.2548
20
10.6044
30
0.0
0
VERTEX
8
ALIGN
10
207.0153
20
10.1223
30
0.0
0
VERTEX
8
ALIGN
10
205.7716
20
9.6512
30
0.0
0
VERTEX
8
ALIGN
10
204.5239
20
9.1908
30
0.0
0
VERTEX
8
ALIGN
10
203.2722
20
8.7414
30
0.0
0
VERTEX
8
ALIGN
10
202.0166
20
8.3030
30
0.0
0
VERTEX
8
ALIGN
10
200.7572
20
7.8755
30
0.0
0
VERTEX
8
ALIGN
10
199.4942
20
7.4590
30
0.0
0
VERTEX
8
ALIGN
10
198.2276
20
7.0535
30
0.0
0
VERTEX
8
ALIGN
10
196.9574
20
6.6592
30
0.0
0
VERTEX
8
ALIGN
10
195.6839
20
6.2759
30
0.0
0
VERTEX
8
ALIGN
10
194.4071
20
5.9037
30
0.0
0
VERTEX
8
ALIGN
10
193.1271
20
5.5427
30
0.0
0
VERTEX
8
ALIGN
10
191.8440
20
5.1929
30
0.0
0
VERTEX
8
ALIGN
10
190.5579
20
4.8543
30
0.0
0
VERTEX
8
ALIGN
10
189.2689
20
4.5269
30
0.0
0
VERTEX
8
ALIGN
10
187.9771
20
4.2108
30
0.0
0
VERTEX
8
ALIGN
10
186.6825
20
3.9060
30
0.0
0
VERTEX
8
ALIGN
10
185.3854
20
3.6125
30
0.0
0
VERTEX
8
ALIGN
10
184.0857
20
3.3303
30
0.0
0
VERTEX
8
ALIGN
10
182.7837
20
3.0595
30
0.0
0
VERTEX
8
ALIGN
10
181.4793
20
2.8000
30
0.0
0
VERTEX
8
ALIGN
10
180.1727
20
2.5520
30
0.0
0
VERTEX
8
ALIGN
10
178.8640
20
2.3153
30
0.0
0
VERTEX
8
ALIGN
10
177.5533
20
2.0901
30
0.0
0
VERTEX
8
ALIGN
10
176.2406
20
1.8763
30
0.0
0
VERTEX
8
ALIGN
10
174.9262
20
1.6740
30
0.0
0
VERTEX
8
ALIGN
10
173.6100
20
1.4831
30
0.0
0
VERTEX
8
ALIGN
10
172.2922
20
1.3038
30
0.0
0
VERTEX
8
ALIGN
10
170.9729
20
1.1360
30
0.0
0
VERTEX
8
ALIGN
10
169.6522
20
0.9796
30
0.0
0
VERTEX
8
ALIGN
10
168.3301
20
0.8349
30
0.0
0
VERTEX
8
ALIGN
10
167.0069
20
0.7016
30
0.0
0
VERTEX
8
ALIGN
10
165.6825
20
0.5799
30
0.0
0
VERTEX
8
ALIGN
10
164.3572
20
0.4698
30
0.0
0
VERTEX
8
ALIGN
10
163.0309
20
0.3712
30
0.0
0
VERTEX
8
ALIGN
10
161.7038
20
0.2843
30
0.0
0
VERTEX
8
ALIGN
10
160.3760
20
0.2089
30
0.0
0
VERTEX
8
ALIGN
10
159.0476
20
0.1451
30
0.0
0
VERTEX
8
ALIGN
10
157.7187
20
0.0928
30
0.0
0
VERTEX
8
ALIGN
10
156.3894
20
0.0522
30
0.0
0
VERTEX
8
ALIGN
10
155.0597
20
0.0232
30
0.0
0
VERTEX
8
ALIGN
10
153.7299
20
0.0058
30
0.0
0
VERTEX
8
ALIGN
10
152.4000
20
0.0000
30
0.0
0
VERTEX
8
ALIGN
10
151.0701
20
0.0058
30
0.0
0
VERTEX
8
ALIGN
10
149.7403
20
0.0232
30
0.0
0
VERTEX
8
ALIGN
10
148.4106
20
0.0522
30
0.0
0
VERTEX
8
ALIGN
10
147.0813
20
0.0928
30
0.0
0
VERTEX
8
ALIGN
10
145.7524
20
0.1451
30
0.0
0
VERTEX
8
ALIGN
10
144.4240
20
0.2089
30
0.0
0
VERTEX
8
ALIGN
10
143.0962
20
0.2843
30
0.0
0
VERTEX
8
ALIGN
10
141.7691
20
0.3712
30
0.0
0
VERTEX
8
ALIGN
10
140.4428
20
0.4698
30
0.0
0
VERTEX
8
ALIGN
10
139.1175
20
0.5799
30
0.0
0
VERTEX
8
ALIGN
10
137.7931
20
0.7016
30
0.0
0
VERTEX
8
ALIGN
10
136.4699
20
0.8349
30
0.0
0
VERTEX
8
ALIGN
10
135.1478
20
0.9796
30
0.0
0
VERTEX
8
ALIGN
10
133.8271
20
1.1360
30
0.0
0
VERTEX
8
ALIGN
10
132.5078
20
1.3038
30
0.0
0
VERTEX
8
ALIGN
10
131.1900
20
1.4831
30
0.0
0
VERTEX
8
ALIGN
10
129.8738
20
1.6740
30
0.0
0
VERTEX
8
ALIGN
10
128.5594
20
1.8763
30
0.0
0
VERTEX
8
ALIGN
10
127.2467
20
2.0901
30
0.0
0
VERTEX
8
ALIGN
10
125.9360
20
2.3153
30
0.0
0
VERTEX
8
ALIGN
10
124.6273
20
2.5520
30
0.0
0
VERTEX
8
ALIGN
10
123.3207
20
2.8000
30
0.0
0
VERTEX
8
ALIGN
10
122.0163
20
3.0595
30
0.0
0
VERTEX
8
ALIGN
10
120.7143
20
3.3303
30
0.0
0
VERTEX
8
ALIGN
10
119.4146
20
3.6125
30
0.0
0
VERTEX
8
ALIGN
10
118.1175
20
3.9060
30
0.0
0
VERTEX
8
ALIGN
10
116.8229
20
4.2108
30
0.0
0
VERTEX
8
ALIGN
10
115.5311
20
4.5269
30
0.0
0
VERTEX
8
ALIGN
10
114.2421
20
4.8543
30
0.0
0
VERTEX
8
ALIGN
10
112.9560
20
5.1929
30
0.0
0
VERTEX
8
ALIGN
10
111.6729
20
5.5427
30
0.0
0
VERTEX
8
ALIGN
10
110.3929
20
5.9037
30
0.0
0
VERTEX
8
ALIGN
10
109.1161
20
6.2759
30
0.0
0
VERTEX
8
ALIGN
10
107.8426
20
6.6592
30
0.0
0
VERTEX
8
ALIGN
10
106.5724
20
7.0535
30
0.0
0
VERTEX
8
ALIGN
10
105.3058
20
7.4590
30
0.0
0
VERTEX
8
ALIGN
10
104.0428
20
7.8755
30
0.0
0
VERTEX
8
ALIGN
10
102.7834
20
8.3030
30
0.0
0
VERTEX
8
ALIGN
10
101.5278
20
8.7414
30
0.0
0
VERTEX
8
ALIGN
10
100.2761
20
9.1908
30
0.0
0
VERTEX
8
ALIGN
10
99.0284
20
9.6512
30
0.0
0
VERTEX
8
ALIGN
10
97.7847
20
10.1223
30
0.0
0
VERTEX
8
ALIGN
10
96.5452
20
10.6044
30
0.0
0
VERTEX
8
ALIGN
10
95.3100
20
11.0972
30
0.0
0
VERTEX
8
ALIGN
10
94.0790
20
11.6008
30
0.0
0
VERTEX
8
ALIGN
10
92.8526
20
12.1151
30
0.0
0
VERTEX
8
ALIGN
10
91.6306
20
12.6400
30
0.0
0
VERTEX
8
ALIGN
10
90.4133
20
13.1757
30
0.0
0
VERTEX
8
ALIGN
10
89.2007
20
13.7219
30
0.0
0
VERTEX
8
ALIGN
10
87.9930
20
14.2787
30
0.0
0
VERTEX
8
ALIGN
10
86.7901
20
14.8460
30
0.0
0
VERTEX
8
ALIGN
10
85.5922
20
15.4238
30
0.0
0
VERTEX
8
ALIGN
10
84.3995
20
16.0120
30
0.0
0
VERTEX
8
ALIGN
10
83.2118
20
16.6106
30
0.0
0
VERTEX
8
ALIGN
10
82.0295
20
17.2195
30
0.0
0
VERTEX
8
ALIGN
10
80.8525
20
17.8388
30
0.0
0
VERTEX
8
ALIGN
10
79.6810
20
18.4683
30
0.0
0
VERTEX
8
ALIGN
10
78.5150
20
19.1080
30
0.0
0
VERTEX
8
ALIGN
10
77.3546
20
19.7578
30
0.0
0
VERTEX
8
ALIGN
10
76.2000
20
20.4177
30
0.0
0
VERTEX
8
ALIGN
10
75.0512
20
21.0877
30
0.0
0
VERTEX
8
ALIGN
10
73.9082
20
21.7677
30
0.0
0
VERTEX
8
ALIGN
10
72.7712
20
22.4576
30
0.0
0
VERTEX
8
ALIGN
10
71.6403
20
23.1575
30
0.0
0
VERTEX
8
ALIGN
10
70.5155
20
23.8671
30
0.0
0
VERTEX
8
ALIGN
10
69.3970
20
24.5866
30
0.0
0
VERTEX
8
ALIGN
10
68.2848
20
25.3158
30
0.0
0
VERTEX
8
ALIGN
10
67.1790
20
26.0547
30
0.0
0
VERTEX
8
ALIGN
10
66.0797
20
26.8032
30
0.0
0
VERTEX
8
ALIGN
10
64.9870
20
27.5612
30
0.0
0
VERTEX
8
ALIGN
10
63.9009
20
28.3288
30
0.0
0
VERTEX
8
ALIGN
10
62.8215
20
29.1058
30
0.0
0
VERTEX
8
ALIGN
10
61.7490
20
29.8922
30
0.0
0
VERTEX
8
ALIGN
10
60.6834
20
30.6879
30
0.0
0
VERTEX
8
ALIGN
10
59.6248
20
31.4930
30
0.0
0
VERTEX
8
ALIGN
10
58.5732
20
32.3072
30
0.0
0
VERTEX
8
ALIGN
10
57.5288
20
33.1305
30
0.0
0
VERTEX
8
ALIGN
10
56.4916
20
33.9630
30
0.0
0
VERTEX
8
ALIGN
10
55.4617
20
34.8044
30
0.0
0
VERTEX
8
ALIGN
10
54.4392
20
35.6548
30
0.0
0
VERTEX
8
ALIGN
10
53.4241
20
36.5141
30
0.0
0
VERTEX
8
ALIGN
10
52.4166
20
37.3823
30
0.0
0
VERTEX
8
ALIGN
10
51.4167
20
38.2591
30
0.0
0
VERTEX
8
ALIGN
10
50.4245
20
39.1447
30
0.0
0
VERTEX
8
ALIGN
10
49.4401
20
40.0389
30
0.0
0
VERTEX
8
ALIGN
10
48.4634
20
40.9417
30
0.0
0
VERTEX
8
ALIGN
10
47.4948
20
41.8529
30
0.0
0
VERTEX
8
ALIGN
10
46.5341
20
42.7726
30
0.0
0
VERTEX
8
ALIGN
10
45.5814
20
43.7006
30
0.0
0
VERTEX
8
ALIGN
10
44.6369
20
44.6369
30
0.0
0
VERTEX
8
ALIGN
10
43.7006
20
45.5814
30
0.0
0
VERTEX
8
ALIGN
10
42.7726
20
46.5341
30
0.0
0
VERTEX
8
ALIGN
10
41.8529
20
47.4948
30
0.0
0
VERTEX
8
ALIGN
10
40.9417
20
48.4634
30
0.0
0
VERTEX
8
ALIGN
10
40.0389
20
49.4401
30
0.0
0
VERTEX
8
ALIGN
10
39.1447
20
50.4245
30
0.0
0
VERTEX
8
ALIGN
10
38.2591
20
51.4167
30
0.0
0
VERTEX
8
ALIGN
10
37.3823
20
52.4166
30
0.0
0
VERTEX
8
ALIGN
10
36.5141
20
53.4241
30
0.0
0
VERTEX
8
ALIGN
10
35.6548
20
54.4392
30
0.0
0
VERTEX
8
ALIGN
10
34.8044
20
55.4617
30
0.0
0
VERTEX
8
ALIGN
10
33.9630
20
56.4916
30
0.0
0
VERTEX
8
ALIGN
10
33.1305
20
57.5288
30
0.0
0
VERTEX
8
ALIGN
10
32.3072
20
58.5732
30
0.0
0
VERTEX
8
ALIGN
10
31.4930
20
59.6248
30
0.0
0
VERTEX
8
ALIGN
10
30.6879
20
60.6834
30
0.0
0
VERTEX
8
ALIGN
10
29.8922
20
61.7490
30
0.0
0
VERTEX
8
ALIGN
10
29.1058
20
62.8215
30
0.0
0
VERTEX
8
ALIGN
10
28.3288
20
63.9009
30
0.0
0
VERTEX
8
ALIGN
10
27.5612
20
64.9870
30
0.0
0
VERTEX
8
ALIGN
10
26.8032
20
66.0797
30
0.0
0
VERTEX
8
ALIGN
10
26.0547
20
67.1790
30
0.0
0
VERTEX
8
ALIGN
10
25.3158
20
68.2848
30
0.0
0
VERTEX
8
ALIGN
10
24.5866
20
69.3970
30
0.0
0
VERTEX
8
ALIGN
10
23.8671
20
70.5155
30
0.0
0
VERTEX
8
ALIGN
10
23.1575
20
71.6403
30
0.0
0
VERTEX
8
ALIGN
10
22.4576
20
72.7712
30
0.0
0
VERTEX
8
ALIGN
10
21.7677
20
73.9082
30
0.0
0
VERTEX
8
ALIGN
10
21.0877
20
75.0512
30
0.0
0
VERTEX
8
ALIGN
10
20.4177
20
76.2000
30
0.0
0
VERTEX
8
ALIGN
10
19.7578
20
77.3546
30
0.0
0
VERTEX
8
ALIGN
10
19.1080
20
78.5150
30
0.0
0
VERTEX
8
ALIGN
10
18.4683
20
79.6810
30
0.0
0
VERTEX
8
ALIGN
10
17.8388
20
80.8525
30
0.0
0
VERTEX
8
ALIGN
10
17.2195
20
82.0295
30
0.0
0
VERTEX
8
ALIGN
10
16.6106
20
83.2118
30
0.0
0
VERTEX
8
ALIGN
10
16.0120
20
84.3995
30
0.0
0
VERTEX
8
ALIGN
10
15.4238
20
85.5922
30
0.0
0
VERTEX
8
ALIGN
10
14.8460
20
86.7901
30
0.0
0
VERTEX
8
ALIGN
10
14.2787
20
87.9930
30
0.0
0
VERTEX
8
ALIGN
10
13.7219
20
89.2007
30
0.0
0
VERTEX
8
ALIGN
10
13.1757
20
90.4133
30
0.0
0
VERTEX
8
ALIGN
10
12.6400
20
91.6306
30
0.0
0
VERTEX
8
ALIGN
10
12.1151
20
92.8526
30
0.0
0
VERTEX
8
ALIGN
10
11.6008
20
94.0790
30
0.0
0
VERTEX
8
ALIGN
10
11.0972
20
95.3100
30
0.0
0
VERTEX
8
ALIGN
10
10.6044
20
96.5452
30
0.0
0
VERTEX
8
ALIGN
10
10.1223
20
97.7847
30
0.0
0
VERTEX
8
ALIGN
10
9.6512
20
99.0284
30
0.0
0
VERTEX
8
ALIGN
10
9.1908
20
100.2761
30
0.0
0
VERTEX
8
ALIGN
10
8.7414
20
101.5278
30
0.0
0
VERTEX
8
ALIGN
10
8.3030
20
102.7834
30
0.0
0
VERTEX
8
ALIGN
10
7.8755
20
104.0428
30
0.0
0
VERTEX
8
ALIGN
10
7.4590
20
105.3058
30
0.0
0
VERTEX
8
ALIGN
10
7.0535
20
106.5724
30
0.0
0
VERTEX
8
ALIGN
10
6.6592
20
107.8426
30
0.0
0
VERTEX
8
ALIGN
10
6.2759
20
109.1161
30
0.0
0
VERTEX
8
ALIGN
10
5.9037
20
110.3929
30
0.0
0
VERTEX
8
ALIGN
10
5.5427
20
111.6729
30
0.0
0
VERTEX
8
ALIGN
10
5.1929
20
112.9560
30
0.0
0
VERTEX
8
ALIGN
10
4.8543
20
114.2421
30
0.0
0
VERTEX
8
ALIGN
10
4.5269
20
115.5311
30
0.0
0
VERTEX
8
ALIGN
10
4.2108
20
116.8229
30
0.0
0
VERTEX
8
ALIGN
10
3.9060
20
118.1175
30
0.0
0
VERTEX
8
ALIGN
10
3.6125
20
119.4146
30
0.0
0
VERTEX
8
ALIGN
10
3.3303
20
120.7143
30
0.0
0
VERTEX
8
ALIGN
10
3.0595
20
122.0163
30
0.0
0
VERTEX
8
ALIGN
10
2.8000
20
123.3207
30
0.0
0
VERTEX
8
ALIGN
10
2.5520
20
124.6273
30
0.0
0
VERTEX
8
ALIGN
10
2.3153
20
125.9360
30
0.0
0
VERTEX
8
ALIGN
10
2.0901
20
127.2467
30
0.0
0
VERTEX
8
ALIGN
10
1.8763
20
128.5594
30
0.0
0
VERTEX
8
ALIGN
10
1.6740
20
129.8738
30
0.0
0
VERTEX
8
ALIGN
10
1.4831
20
131.1900
30
0.0
0
VERTEX
8
ALIGN
10
1.3038
20
132.5078
30
0.0
0
VERTEX
8
ALIGN
10
1.1360
20
133.8271
30
0.0
0
VERTEX
8
ALIGN
10
0.9796
20
135.1478
30
0.0
0
VERTEX
8
ALIGN
10
0.8349
20
136.4699
30
0.0
0
VERTEX
8
ALIGN
10
0.7016
20
137.7931
30
0.0
0
VERTEX
8
ALIGN
10
0.5799
20
139.1175
30
0.0
0
VERTEX
8
ALIGN
10
0.4698
20
140.4428
30
0.0
0
VERTEX
8
ALIGN
10
0.3712
20
141.7691
30
0.0
0
VERTEX
8
ALIGN
10
0.2843
20
143.0962
30
0.0
0
VERTEX
8
ALIGN
10
0.2089
20
144.4240
30
0.0
0
VERTEX
8
ALIGN
10
0.1451
20
145.7524
30
0.0
0
VERTEX
8
ALIGN
10
0.0928
20
147.0813
30
0.0
0
VERTEX
8
ALIGN
10
0.0522
20
148.4106
30
0.0
0
VERTEX
8
ALIGN
10
0.0232
20
149.7403
30
0.0
0
VERTEX
8
ALIGN
10
0.0058
20
151.0701
30
0.0
0
VERTEX
8
ALIGN
10
0.0000
20
152.4000
30
0.0
0
VERTEX
8
ALIGN
10
0.0058
20
153.7299
30
0.0
0
VERTEX
8
ALIGN
10
0.0232
20
155.0597
30
0.0
0
VERTEX
8
ALIGN
10
0.0522
20
156.3894
30
0.0
0
VERTEX
8
ALIGN
10
0.0928
20
157.7187
30
0.0
0
VERTEX
8
ALIGN
10
0.1451
20
159.0476
30
0.0
0
VERTEX
8
ALIGN
10
0.2089
20
160.3760
30
0.0
0
VERTEX
8
ALIGN
10
0.2843
20
161.7038
30
0.0
0
VERTEX
8
ALIGN
10
0.3712
20
163.0309
30
0.0
0
VERTEX
8
ALIGN
10
0.4698
20
164.3572
30
0.0
0
VERTEX
8
ALIGN
10
0.5799
20
165.6825
30
0.0
0
VERTEX
8
ALIGN
10
0.7016
20
167.0069
30
0.0
0
VERTEX
8
ALIGN
10
0.8349
20
168.3301
30
0.0
0
VERTEX
8
ALIGN
10
0.9796
20
169.6522
30
0.0
0
VERTEX
8
ALIGN
10
1.1360
20
170.9729
30
0.0
0
VERTEX
8
ALIGN
10
1.3038
20
172.2922
30
0.0
0
VERTEX
8
ALIGN
10
1.4831
20
173.6100
30
0.0
0
VERTEX
8
ALIGN
10
1.6740
20
174.9262
30
0.0
0
VERTEX
8
ALIGN
10
1.8763
20
176.2406
30
0.0
0
VERTEX
8
ALIGN
10
2.0901
20
177.5533
30
0.0
0
VERTEX
8
ALIGN
10
2.3153
20
178.8640
30
0.0
0
VERTEX
8
ALIGN
10
2.5520
20
180.1727
30
0.0
0
VERTEX
8
ALIGN
10
2.8000
20
181.4793
30
0.0
0
VERTEX
8
ALIGN
10
3.0595
20
182.7837
30
0.0
0
VERTEX
8
ALIGN
10
3.3303
20
184.0857
30
0.0
0
VERTEX
8
ALIGN
10
3.6125
20
185.3854
30
0.0
0
VERTEX
8
ALIGN
10
3.9060
20
186.6825
30
0.0
0
VERTEX
8
ALIGN
10
4.2108
20
187.9771
30
0.0
0
VERTEX
8
ALIGN
10
4.5269
20
189.2689
30
0.0
0
VERTEX
8
ALIGN
10
4.8543
20
190.5579
30
0.0
0
VERTEX
8
ALIGN
10
5.1929
20
191.8440
30
0.0
0
VERTEX
8
ALIGN
10
5.5427
20
193.1271
30
0.0
0
VERTEX
8
ALIGN
10
5.9037
20
194.4071
30
0.0
0
VERTEX
8
ALIGN
10
6.2759
20
195.6839
30
0.0
0
VERTEX
8
ALIGN
10
6.6592
20
196.9574
30
0.0
0
VERTEX
8
ALIGN
10
7.0535
20
198.2276
30
0.0
0
VERTEX
8
ALIGN
10
7.4590
20
199.4942
30
0.0
0
VERTEX
8
ALIGN
10
7.8755
20
200.7572
30
0.0
0
VERTEX
8
ALIGN
10
8.3030
20
202.0166
30
0.0
0
VERTEX
8
ALIGN
10
8.7414
20
203.2722
30
0.0
0
VERTEX
8
ALIGN
10
9.1908
20
204.5239
30
0.0
0
VERTEX
8
ALIGN
10
9.6512
20
205.7716
30
0.0
0
VERTEX
8
ALIGN
10
10.1223
20
207.0153
30
0.0
0
VERTEX
8
ALIGN
10
10.6044
20
208.2548
30
0.0
0
VERTEX
8
ALIGN
10
11.0972
20
209.4900
30
0.0
0
VERTEX
8
ALIGN
10
11.6008
20
210.7210
30
0.0
0
VERTEX
8
ALIGN
10
12.1151
20
211.9474
30
0.0
0
VERTEX
8
ALIGN
10
12.6400
20
213.1694
30
0.0
0
VERTEX
8
ALIGN
10
13.1757
20
214.3867
30
0.0
0
VERTEX
8
ALIGN
10
13.7219
20
215.5993
30
0.0
0
VERTEX
8
ALIGN
10
14.2787
20
216.8070
30
0.0
0
VERTEX
8
ALIGN
10
14.8460
20
218.0099
30
0.0
0
VERTEX
8
ALIGN
10
15.4238
20
219.2078
30
0.0
0
VERTEX
8
ALIGN
10
16.0120
20
220.4005
30
0.0
0
VERTEX
8
ALIGN
10
16.6106
20
221.5882
30
0.0
0
VERTEX
8
ALIGN
10
17.2195
20
222.7705
30
0.0
0
VERTEX
8
ALIGN
10
17.8388
20
223.9475
30
0.0
0
VERTEX
8
ALIGN
10
18.4683
20
225.1190
30
0.0
0
VERTEX
8
ALIGN
10
19.1080
20
226.2850
30
0.0
0
VERTEX
8
ALIGN
10
19.7578
20
227.4454
30
0.0
0
VERTEX
8
ALIGN
10
20.4177
20
228.6000
30
0.0
0
VERTEX
8
ALIGN
10
21.0877
20
229.7488
30
0.0
0
VERTEX
8
ALIGN
10
21.7677
20
230.8918
30
0.0
0
VERTEX
8
ALIGN
10
22.4576
20
232.0288
30
0.0
0
VERTEX
8
ALIGN
10
23.1575
20
233.1597
30
0.0
0
VERTEX
8
ALIGN
10
23.8671
20
234.2845
30
0.0
0
VERTEX
8
ALIGN
10
24.5866
20
235.4030
30
0.0
0
VERTEX
8
ALIGN
10
25.3158
20
236.5152
30
0.0
0
VERTEX
8
ALIGN
10
26.0547
20
237.6210
30
0.0
0
VERTEX
8
ALIGN
10
26.8032
20
238.7203
30
0.0
0
VERTEX
8
ALIGN
10
27.5612
20
239.8130
30
0.0
0
VERTEX
8
ALIGN
10
28.3288
20
240.8991
30
0.0
0
VERTEX
8
ALIGN
10
29.1058
20
241.9785
30
0.0
0
VERTEX
8
ALIGN
10
29.8922
20
243.0510
30
0.0
0
VERTEX
8
ALIGN
10
30.6879
20
244.1166
30
0.0
0
VERTEX
8
ALIGN
10
31.4930
20
245.1752
30
0.0
0
VERTEX
8
ALIGN
10
32.3072
20
246.2268
30
0.0
0
VERTEX
8
ALIGN
10
33.1305
20
247.2712
30
0.0
0
VERTEX
8
ALIGN
10
33.9630
20
248.3084
30
0.0
0
VERTEX
8
ALIGN
10
34.8044
20
249.3383
30
0.0
0
VERTEX
8
ALIGN
10
35.6548
20
250.3608
30
0.0
0
VERTEX
8
ALIGN
10
36.5141
20
251.3759
30
0.0
0
VERTEX
8
ALIGN
10
37.3823
20
252.3834
30
0.0
0
VERTEX
8
ALIGN
10
38.2591
20
253.3833
30
0.0
0
VERTEX
8
ALIGN
10
39.1447
20
254.3755
30
0.0
0
VERTEX
8
ALIGN
10
40.0389
20
255.3599
30
0.0
0
VERTEX
8
ALIGN
10
40.9417
20
256.3366
30
0.0
0
VERTEX
8
ALIGN
10
41.8529
20
257.3052
30
0.0
0
VERTEX
8
ALIGN
10
42.7726
20
258.2659
30
0.0
0
VERTEX
8
ALIGN
10
43.7006
20
259.2186
30
0.0
0
VERTEX
8
ALIGN
10
44.6369
20
260.1631
30
0.0
0
VERTEX
8
ALIGN
10
45.5814
20
261.0994
30
0.0
0
VERTEX
8
ALIGN
10
46.5341
20
262.0274
30
0.0
0
VERTEX
8
ALIGN
10
47.4948
20
262.9471
30
0.0
0
VERTEX
8
ALIGN
10
48.4634
20
263.8583
30
0.0
0
VERTEX
8
ALIGN
10
49.4401
20
264.7611
30
0.0
0
VERTEX
8
ALIGN
10
50.4245
20
265.6553
30
0.0
0
VERTEX
8
ALIGN
10
51.4167
20
266.5409
30
0.0
0
VERTEX
8
ALIGN
10
52.4166
20
267.4177
30
0.0
0
VERTEX
8
ALIGN
10
53.4241
20
268.2859
30
0.0
0
VERTEX
8
ALIGN
10
54.4392
20
269.1452
30
0.0
0
VERTEX
8
ALIGN
10
55.4617
20
269.9956
30
0.0
0
VERTEX
8
ALIGN
10
56.4916
20
270.8370
30
0.0
0
VERTEX
8
ALIGN
10
57.5288
20
271.6695
30
0.0
0
VERTEX
8
ALIGN
10
58.5732
20
272.4928
30
0.0
0
VERTEX
8
ALIGN
10
59.6248
20
273.3070
30
0.0
0
VERTEX
8
ALIGN
10
60.6834
20
274.1121
30
0.0
0
VERTEX
8
ALIGN
10
61.7490
20
274.9078
30
0.0
0
VERTEX
8
ALIGN
10
62.8215
20
275.6942
30
0.0
0
VERTEX
8
ALIGN
10
63.9009
20
276.4712
30
0.0
0
VERTEX
8
ALIGN
10
64.9870
20
277.2388
30
0.0
0
VERTEX
8
ALIGN
10
66.0797
20
277.9968
30
0.0
0
VERTEX
8
ALIGN
10
67.1790
20
278.7453
30
0.0
0
VERTEX
8
ALIGN
10
68.2848
20
279.4842
30
0.0
0
VERTEX
8
ALIGN
10
69.3970
20
280.2134
30
0.0
0
VERTEX
8
ALIGN
10
70.5155
20
280.9329
30
0.0
0
VERTEX
8
ALIGN
10
71.6403
20
281.6425
30
0.0
0
VERTEX
8
ALIGN
10
72.7712
20
282.3424
30
0.0
0
VERTEX
8
ALIGN
10
73.9082
20
283.0323
30
0.0
0
VERTEX
8
ALIGN
10
75.0512
20
283.7123
30
0.0
0
VERTEX
8
ALIGN
10
76.2000
20
284.3823
30
0.0
0
VERTEX
8
ALIGN
10
77.3546
20
285.0422
30
0.0
0
VERTEX
8
ALIGN
10
78.5150
20
285.6920
30
0.0
0
VERTEX
8
ALIGN
10
79.6810
20
286.3317
30
0.0
0
VERTEX
8
ALIGN
10
80.8525
20
286.9612
30
0.0
0
VERTEX
8
ALIGN
10
82.0295
20
287.5805
30
0.0
0
VERTEX
8
ALIGN
10
83.2118
20
288.1894
30
0.0
0
VERTEX
8
ALIGN
10
84.3995
20
288.7880
30
0.0
0
VERTEX
8
ALIGN
10
85.5922
20
289.3762
30
0.0
0
VERTEX
8
ALIGN
10
86.7901
20
289.9540
30
0.0
0
VERTEX
8
ALIGN
10
87.9930
20
290.5213
30
0.0
0
VERTEX
8
ALIGN
10
89.2007
20
291.0781
30
0.0
0
VERTEX
8
ALIGN
10
90.4133
20
291.6243
30
0.0
0
VERTEX
8
ALIGN
10
91.6306
20
292.1600
30
0.0
0
VERTEX
8
ALIGN
10
92.8526
20
292.6849
30
0.0
0
VERTEX
8
ALIGN
10
94.0790
20
293.1992
30
0.0
0
VERTEX
8
ALIGN
10
95.3100
20
293.7028
30
0.0
0
VERTEX
8
ALIGN
10
96.5452
20
294.1956
30
0.0
0
VERTEX
8
ALIGN
10
97.7847
20
294.6777
30
0.0
0
VERTEX
8
ALIGN
10
99.0284
20
295.1488
30
0.0
0
VERTEX
8
ALIGN
10
100.2761
20
295.6092
30
0.0
0
VERTEX
8
ALIGN
10
101.5278
20
296.0586
30
0.0
0
VERTEX
8
ALIGN
10
102.7834
20
296.4970
30
0.0
0
VERTEX
8
ALIGN
10
104.0428
20
296.9245
30
0.0
0
VERTEX
8
ALIGN
10
105.3058
20
297.3410
30
0.0
0
VERTEX
8
ALIGN
10
106.5724
20
297.7465
30
0.0
0
VERTEX
8
ALIGN
10
107.8426
20
298.1408
30
0.0
0
VERTEX
8
ALIGN
10
109.1161
20
298.5241
30
0.0
0
VERTEX
8
ALIGN
10
110.3929
20
298.8963
30
0.0
0
VERTEX
8
ALIGN
10
111.6729
20
299.2573
30
0.0
0
VERTEX
8
ALIGN
10
112.9560
20
299.6071
30
0.0
0
VERTEX
8
ALIGN
10
114.2421
20
299.9457
30
0.0
0
VERTEX
8
ALIGN
10
115.5311
20
300.2731
30
0.0
0
VERTEX
8
ALIGN
10
116.8229
20
300.5892
30
0.0
0
VERTEX
8
ALIGN
10
118.1175
20
300.8940
30
0.0
0
VERTEX
8
ALIGN
10
119.4146
20
301.1875
30
0.0
0
VERTEX
8
ALIGN
10
120.7143
20
301.4697
30
0.0
0
VERTEX
8
ALIGN
10
122.0163
20
301.7405
30
0.0
0
VERTEX
8
ALIGN
10
123.3207
20
302.0000
30
0.0
0
VERTEX
8
ALIGN
10
124.6273
20
302.2480
30
0.0
0
VERTEX
8
ALIGN
10
125.9360
20
302.4847
30
0.0
0
VERTEX
8
ALIGN
10
127.2467
20
302.7099
30
0.0
0
VERTEX
8
ALIGN
10
128.5594
20
302.9237
30
0.0
0
VERTEX
8
ALIGN
10
129.8738
20
303.1260
30
0.0
0
VERTEX
8
ALIGN
10
131.1900
20
303.3169
30
0.0
0
VERTEX
8
ALIGN
10
132.5078
20
303.4962
30
0.0
0
VERTEX
8
ALIGN
10
133.8271
20
303.6640
30
0.0
0
VERTEX
8
ALIGN
10
135.1478
20
303.8204
30
0.0
0
VERTEX
8
ALIGN
10
136.4699
20
303.9651
30
0.0
0
VERTEX
8
ALIGN
10
137.7931
20
304.0984
30
0.0
0
VERTEX
8
ALIGN
10
139.1175
20
304.2201
30
0.0
0
VERTEX
8
ALIGN
10
140.4428
20
304.3302
30
0.0
0
VERTEX
8
ALIGN
10
141.7691
20
304.4288
30
0.0
0
VERTEX
8
ALIGN
10
143.0962
20
304.5157
30
0.0
0
VERTEX
8
ALIGN
10
144.4240
20
304.5911
30
0.0
0
VERTEX
8
ALIGN
10
145.7524
20
304.6549
30
0.0
0
VERTEX
8
ALIGN
10
147.0813
20
304.7072
30
0.0
0
VERTEX
8
ALIGN
10
148.4106
20
304.7478
30
0.0
0
VERTEX
8
ALIGN
10
149.7403
20
304.7768
30
0.0
0
VERTEX
8
ALIGN
10
151.0701
20
304.7942
30
0.0
0
VERTEX
8
ALIGN
10
152.4000
20
304.8000
30
0.0
0
VERTEX
8
ALIGN
10
153.7299
20
304.7942
30
0.0
0
VERTEX
8
ALIGN
10
155.0597
20
304.7768
30
0.0
0
VERTEX
8
ALIGN
10
156.3894
20
304.7478
30
0.0
0
VERTEX
8
ALIGN
10
157.7187
20
304.7072
30
0.0
0
VERTEX
8
ALIGN
10
159.0476
20
304.6549
30
0.0
0
VERTEX
8
ALIGN
10
160.3760
20
304.5911
30
0.0
0
VERTEX
8
ALIGN
10
161.7038
20
304.5157
30
0.0
0
VERTEX
8
ALIGN
10
163.0309
20
304.4288
30
0.0
0
VERTEX
8
ALIGN
10
164.3572
20
304.3302
30
0.0
0
VERTEX
8
ALIGN
10
165.6825
20
304.2201
30
0.0
0
VERTEX
8
ALIGN
10
167.0069
20
304.0984
30
0.0
0
VERTEX
8
ALIGN
10
168.3301
20
303.9651
30
0.0
0
VERTEX
8
ALIGN
10
169.6522
20
303.8204
30
0.0
0
VERTEX
8
ALIGN
10
170.9729
20
303.6640
30
0.0
0
VERTEX
8
ALIGN
10
172.2922
20
303.4962
30
0.0
0
VERTEX
8
ALIGN
10
173.6100
20
303.3169
30
0.0
0
VERTEX
8
ALIGN
10
174.9262
20
303.1260
30
0.0
0
VERTEX
8
ALIGN
10
176.2406
20
302.9237
30
0.0
0
VERTEX
8
ALIGN
10
177.5533
20
302.7099
30
0.0
0
VERTEX
8
ALIGN
10
178.8640
20
302.4847
30
0.0
0
VERTEX
8
ALIGN
10
180.1727
20
302.2480
30
0.0
0
VERTEX
8
ALIGN
10
181.4793
20
302.0000
30
0.0
0
VERTEX
8
ALIGN
10
182.7837
20
301.7405
30
0.0
0
VERTEX
8
ALIGN
10
184.0857
20
301.4697
30
0.0
0
VERTEX
8
ALIGN
10
185.3854
20
301.1875
30
0.0
0
VERTEX
8
ALIGN
10
186.6825
20
300.8940
30
0.0
0
VERTEX
8
ALIGN
10
187.9771
20
300.5892
30
0.0
0
VERTEX
8
ALIGN
10
189.2689
20
300.2731
30
0.0
0
VERTEX
8
ALIGN
10
190.5579
20
299.9457
30
0.0
0
VERTEX
8
ALIGN
10
191.8440
20
299.6071
30
0.0
0
VERTEX
8
ALIGN
10
193.1271
20
299.2573
30
0.0
0
VERTEX
8
ALIGN
10
194.4071
20
298.8963
30
0.0
0
VERTEX
8
ALIGN
10
195.6839
20
298.5241
30
0.0
0
VERTEX
8
ALIGN
10
196.9574
20
298.1408
30
0.0
0
VERTEX
8
ALIGN
10
198.2276
20
297.7465
30
0.0
0
VERTEX
8
ALIGN
10
199.4942
20
297.3410
30
0.0
0
VERTEX
8
ALIGN
10
200.7572
20
296.9245
30
0.0
0
VERTEX
8
ALIGN
10
202.0166
20
296.4970
30
0.0
0
VERTEX
8
ALIGN
10
203.2722
20
296.0586
30
0.0
0
VERTEX
8
ALIGN
10
204.5239
20
295.6092
30
0.0
0
VERTEX
8
ALIGN
10
205.7716
20
295.1488
30
0.0
0
VERTEX
8
ALIGN
10
207.0153
20
294.6777
30
0.0
0
VERTEX
8
ALIGN
10
208.2548
20
294.1956
30
0.0
0
VERTEX
8
ALIGN
10
209.4900
20
293.7028
30
0.0
0
VERTEX
8
ALIGN
10
210.7210
20
293.1992
30
0.0
0
VERTEX
8
ALIGN
10
211.9474
20
292.6849
30
0.0
0
VERTEX
8
ALIGN
10
213.1694
20
292.1600
30
0.0
0
VERTEX
8
ALIGN
10
214.3867
20
291.6243
30
0.0
0
VERTEX
8
ALIGN
10
215.5993
20
291.0781
30
0.0
0
VERTEX
8
ALIGN
10
216.8070
20
290.5213
30
0.0
0
VERTEX
8
ALIGN
10
218.0099
20
289.9540
30
0.0
0
VERTEX
8
ALIGN
10
219.2078
20
289.3762
30
0.0
0
VERTEX
8
ALIGN
10
220.4005
20
288.7880
30
0.0
0
VERTEX
8
ALIGN
10
221.5882
20
288.1894
30
0.0
0
VERTEX
8
ALIGN
10
222.7705
20
287.5805
30
0.0
0
VERTEX
8
ALIGN
10
223.9475
20
286.9612
30
0.0
0
VERTEX
8
ALIGN
10
225.1190
20
286.3317
30
0.0
0
VERTEX
8
ALIGN
10
226.2850
20
285.6920
30
0.0
0
VERTEX
8
ALIGN
10
227.4454
20
285.0422
30
0.0
0
VERTEX
8
ALIGN
10
228.6000
20
284.3823
30
0.0
0
VERTEX
8
ALIGN
10
229.7488
20
283.7123
30
0.0
0
VERTEX
8
ALIGN
10
230.8918
20
283.0323
30
0.0
0
VERTEX
8
ALIGN
10
232.0288
20
282.3424
30
0.0
0
VERTEX
8
ALIGN
10
233.1597
20
281.6425
30
0.0
0
VERTEX
8
ALIGN
10
234.2845
20
280.9329
30
0.0
0
VERTEX
8
ALIGN
10
235.4030
20
280.2134
30
0.0
0
VERTEX
8
ALIGN
10
236.5152
20
279.4842
30
0.0
0
VERTEX
8
ALIGN
10
237.6210
20
278.7453
30
0.0
0
VERTEX
8
ALIGN
10
238.7203
20
277.9968
30
0.0
0
VERTEX
8
ALIGN
10
239.8130
20
277.2388
30
0.0
0
VERTEX
8
ALIGN
10
240.8991
20
276.4712
30
0.0
0
VERTEX
8
ALIGN
10
241.9785
20
275.6942
30
0.0
0
VERTEX
8
ALIGN
10
243.0510
20
274.9078
30
0.0
0
VERTEX
8
ALIGN
10
244.1166
20
274.1121
30
0.0
0
VERTEX
8
ALIGN
10
245.1752
20
273.3070
30
0.0
0
VERTEX
8
ALIGN
10
246.2268
20
272.4928
30
0.0
0
VERTEX
8
ALIGN
10
247.2712
20
271.6695
30
0.0
0
VERTEX
8
ALIGN
10
248.3084
20
270.8370
30
0.0
0
VERTEX
8
ALIGN
10
249.3383
20
269.9956
30
0.0
0
VERTEX
8
ALIGN
10
250.3608
20
269.1452
30
0.0
0
VERTEX
8
ALIGN
10
251.3759
20
268.2859
30
0.0
0
VERTEX
8
ALIGN
10
252.3834
20
267.4177
30
0.0
0
VERTEX
8
ALIGN
10
253.3833
20
266.5409
30
0.0
0
VERTEX
8
ALIGN
10
254.3755
20
265.6553
30
0.0
0
VERTEX
8
ALIGN
10
255.3599
20
264.7611
30
0.0
0
VERTEX
8
ALIGN
10
256.3366
20
263.8583
30
0.0
0
VERTEX
8
ALIGN
10
257.3052
20
262.9471
30
0.0
0
VERTEX
8
ALIGN
10
258.2659
20
262.0274
30
0.0
0
VERTEX
8
ALIGN
10
259.2186
20
261.0994
30
0.0
0
VERTEX
8
ALIGN
10
260.1631
20
260.1631
30
0.0
0
VERTEX
8
ALIGN
10
261.0994
20
259.2186
30
0.0
0
VERTEX
8
ALIGN
10
262.0274
20
258.2659
30
0.0
0
VERTEX
8
ALIGN
10
262.9471
20
257.3052
30
0.0
0
VERTEX
8
ALIGN
10
263.8583
20
256.3366
30
0.0
0
VERTEX
8
ALIGN
10
264.7611
20
255.3599
30
0.0
0
VERTEX
8
ALIGN
10
265.6553
20
254.3755
30
0.0
0
VERTEX
8
ALIGN
10
266.5409
20
253.3833
30
0.0
0
VERTEX
8
ALIGN
10
267.4177
20
252.3834
30
0.0
0
VERTEX
8
ALIGN
10
268.2859
20
251.3759
30
0.0
0
VERTEX
8
ALIGN
10
269.1452
20
250.3608
30
0.0
0
VERTEX
8
ALIGN
10
269.9956
20
249.3383
30
0.0
0
VERTEX
8
ALIGN
10
270.8370
20
248.3084
30
0.0
0
VERTEX
8
ALIGN
10
271.6695
20
247.2712
30
0.0
0
VERTEX
8
ALIGN
10
272.4928
20
246.2268
30
0.0
0
VERTEX
8
ALIGN
10
273.3070
20
245.1752
30
0.0
0
VERTEX
8
ALIGN
10
274.1121
20
244.1166
30
0.0
0
VERTEX
8
ALIGN
10
274.9078
20
243.0510
30
0.0
0
VERTEX
8
ALIGN
10
275.6942
20
241.9785
30
0.0
0
VERTEX
8
ALIGN
10
276.4712
20
240.8991
30
0.0
0
VERTEX
8
ALIGN
10
277.2388
20
239.8130
30
0.0
0
VERTEX
8
ALIGN
10
277.9968
20
238.7203
30
0.0
0
VERTEX
8
ALIGN
10
278.7453
20
237.6210
30
0.0
0
VERTEX
8
ALIGN
10
279.4842
20
236.5152
30
0.0
0
VERTEX
8
ALIGN
10
280.2134
20
235.4030
30
0.0
0
VERTEX
8
ALIGN
10
280.9329
20
234.2845
30
0.0
0
VERTEX
8
ALIGN
10
281.6425
20
233.1597
30
0.0
0
VERTEX
8
ALIGN
10
282.3424
20
232.0288
30
0.0
0
VERTEX
8
ALIGN
10
283.0323
20
230.8918
30
0.0
0
VERTEX
8
ALIGN
10
283.7123
20
229.7488
30
0.0
0
VERTEX
8
ALIGN
10
284.3823
20
228.6000
30
0.0
0
VERTEX
8
ALIGN
10
285.0422
20
227.4454
30
0.0
0
VERTEX
8
ALIGN
10
285.6920
20
226.2850
30
0.0
0
VERTEX
8
ALIGN
10
286.3317
20
225.1190
30
0.0
0
VERTEX
8
ALIGN
10
286.9612
20
223.9475
30
0.0
0
VERTEX
8
ALIGN
10
287.5805
20
222.7705
30
0.0
0
VERTEX
8
ALIGN
10
288.1894
20
221.5882
30
0.0
0
VERTEX
8
ALIGN
10
288.7880
20
220.4005
30
0.0
0
VERTEX
8
ALIGN
10
289.3762
20
219.2078
30
0.0
0
VERTEX
8
ALIGN
10
289.9540
20
218.0099
30
0.0
0
VERTEX
8
ALIGN
10
290.5213
20
216.8070
30
0.0
0
VERTEX
8
ALIGN
10
291.0781
20
215.5993
30
0.0
0
VERTEX
8
ALIGN
10
291.6243
20
214.3867
30
0.0
0
VERTEX
8
ALIGN
10
292.1600
20
213.1694
30
0.0
0
VERTEX
8
ALIGN
10
292.6849
20
211.9474
30
0.0
0
VERTEX
8
ALIGN
10
293.1992
20
210.7210
30
0.0
0
VERTEX
8
ALIGN
10
293.7028
20
209.4900
30
0.0
0
VERTEX
8
ALIGN
10
294.1956
20
208.2548
30
0.0
0
VERTEX
8
ALIGN
10
294.6777
20
207.0153
30
0.0
0
VERTEX
8
ALIGN
10
295.1488
20
205.7716
30
0.0
0
VERTEX
8
ALIGN
10
295.6092
20
204.5239
30
0.0
0
VERTEX
8
ALIGN
10
296.0586
20
203.2722
30
0.0
0
VERTEX
8
ALIGN
10
296.4970
20
202.0166
30
0.0
0
VERTEX
8
ALIGN
10
296.9245
20
200.7572
30
0.0
0
VERTEX
8
ALIGN
10
297.3410
20
199.4942
30
0.0
0
VERTEX
8
ALIGN
10
297.7465
20
198.2276
30
0.0
0
VERTEX
8
ALIGN
10
298.1408
20
196.9574
30
0.0
0
VERTEX
8
ALIGN
10
298.5241
20
195.6839
30
0.0
0
VERTEX
8
ALIGN
10
298.8963
20
194.4071
30
0.0
0
VERTEX
8
ALIGN
10
299.2573
20
193.1271
30
0.0
0
VERTEX
8
ALIGN
10
299.6071
20
191.8440
30
0.0
0
VERTEX
8
ALIGN
10
299.9457
20
190.5579
30
0.0
0
VERTEX
8
ALIGN
10
300.2731
20
189.2689
30
0.0
0
VERTEX
8
ALIGN
10
300.5892
20
187.9771
30
0.0
0
VERTEX
8
ALIGN
10
300.8940
20
186.6825
30
0.0
0
VERTEX
8
ALIGN
10
301.1875
20
185.3854
30
0.0
0
VERTEX
8
ALIGN
10
301.4697
20
184.0857
30
0.0
0
VERTEX
8
ALIGN
10
301.7405
20
182.7837
30
0.0
0
VERTEX
8
ALIGN
10
302.0000
20
181.4793
30
0.0
0
VERTEX
8
ALIGN
10
302.2480
20
180.1727
30
0.0
0
VERTEX
8
ALIGN
10
302.4847
20
178.8640
30
0.0
0
VERTEX
8
ALIGN
10
302.7099
20
177.5533
30
0.0
0
VERTEX
8
ALIGN
10
302.9237
20
176.2406
30
0.0
0
VERTEX
8
ALIGN
10
303.1260
20
174.9262
30
0.0
0
VERTEX
8
ALIGN
10
303.3169
20
173.6100
30
0.0
0
VERTEX
8
ALIGN
10
303.4962
20
172.2922
30
0.0
0
VERTEX
8
ALIGN
10
303.6640
20
170.9729
30
0.0
0
VERTEX
8
ALIGN
10
303.8204
20
169.6522
30
0.0
0
VERTEX
8
ALIGN
10
303.9651
20
168.3301
30
0.0
0
VERTEX
8
ALIGN
10
304.0984
20
167.0069
30
0.0
0
VERTEX
8
ALIGN
10
304.2201
20
165.6825
30
0.0
0
VERTEX
8
ALIGN
10
304.3302
20
164.3572
30
0.0
0
VERTEX
8
ALIGN
10
304.4288
20
163.0309
30
0.0
0
VERTEX
8
ALIGN
10
304.5157
20
161.7038
30
0.0
0
VERTEX
8
ALIGN
10
304.5911
20
160.3760
30
0.0
0
VERTEX
8
ALIGN
10
304.6549
20
159.0476
30
0.0
0
VERTEX
8
ALIGN
10
304.7072
20
157.7187
30
0.0
0
VERTEX
8
ALIGN
10
304.7478
20
156.3894
30
0.0
0
VERTEX
8
ALIGN
10
304.7768
20
155.0597
30
0.0
0
VERTEX
8
ALIGN
10
304.7942
20
153.7299
30
0.0
0
SEQEND
8
ALIGN
0
POLYLINE
8
CUT_INNER
66
1
70
1
0
VERTEX
8
CUT_INNER
10
155.9077
20
27.2409
30
0.0
0
VERTEX
8
CUT_INNER
10
155.9077
20
27.9873
30
0.0
0
VERTEX
8
CUT_INNER
10
154.2658
20
29.0321
30
0.0
0
VERTEX
8
CUT_INNER
10
146.6533
20
29.3307
30
0.0
0
VERTEX
8
CUT_INNER
10
149.1908
20
33.0623
30
0.0
0
VERTEX
8
CUT_INNER
10
148.5937
20
33.8086
30
0.0
0
VERTEX
8
CUT_INNER
10
145.7577
20
34.1071
30
0.0
0
VERTEX
8
CUT_INNER
10
148.5937
20
38.1373
30
0.0
0
VERTEX
8
CUT_INNER
10
148.2952
20
38.5851
30
0.0
0
VERTEX
8
CUT_INNER
10
146.3548
20
37.9881
30
0.0
0
VERTEX
8
CUT_INNER
10
139.9363
20
33.5101
30
0.0
0
VERTEX
8
CUT_INNER
10
130.8311
20
33.5101
30
0.0
0
VERTEX
8
CUT_INNER
10
127.8458
20
32.6145
30
0.0
0
VERTEX
8
CUT_INNER
10
126.0547
20
31.1218
30
0.0
0
VERTEX
8
CUT_INNER
10
126.3532
20
30.6740
30
0.0
0
VERTEX
8
CUT_INNER
10
142.4738
20
30.5248
30
0.0
0
VERTEX
8
CUT_INNER
10
142.6231
20
30.0770
30
0.0
0
VERTEX
8
CUT_INNER
10
138.4437
20
26.1961
30
0.0
0
VERTEX
8
CUT_INNER
10
138.8915
20
25.5990
30
0.0
0
VERTEX
8
CUT_INNER
10
154.5643
20
25.8976
30
0.0
0
SEQEND
8
CUT_INNER
0
POLYLINE
8
CUT_INNER
66
1
70
1
0
VERTEX
8
CUT_INNER
10
177.1034
20
44.2572
30
0.0
0
VERTEX
8
CUT_INNER
10
181.2829
20
43.2123
30
0.0
0
VERTEX
8
CUT_INNER
10
202.0308
20
42.0182
30
0.0
0
VERTEX
8
CUT_INNER
10
208.4492
20
39.3314
30
0.0
0
VERTEX
8
CUT_INNER
10
227.7044
20
39.0329
30
0.0
0
VERTEX
8
CUT_INNER
10
228.0029
20
39.4807
30
0.0
0
VERTEX
8
CUT_INNER
10
225.9132
20
42.1675
30
0.0
0
VERTEX
8
CUT_INNER
10
231.7346
20
42.7645
30
0.0
0
VERTEX
8
CUT_INNER
10
228.8985
20
44.5557
30
0.0
0
VERTEX
8
CUT_INNER
10
189.1939
20
46.0484
30
0.0
0
VERTEX
8
CUT_INNER
10
180.6858
20
45.7499
30
0.0
0
SEQEND
8
CUT_INNER
0
POLYLINE
8
CUT_INNER
66
1
70
1
0
VERTEX
8
CUT_INNER
10
227.4059
20
49.6308
30
0.0
0
VERTEX
8
CUT_INNER
10
224.7191
20
51.1234
30
0.0
0
VERTEX
8
CUT_INNER
10
215.3154
20
52.6161
30
0.0
0
VERTEX
8
CUT_INNER
10
217.4051
20
55.8999
30
0.0
0
VERTEX
8
CUT_INNER
10
221.1367
20
56.0492
30
0.0
0
VERTEX
8
CUT_INNER
10
223.0772
20
57.0940
30
0.0
0
VERTEX
8
CUT_INNER
10
222.6294
20
57.6911
30
0.0
0
VERTEX
8
CUT_INNER
10
218.3007
20
57.9896
30
0.0
0
VERTEX
8
CUT_INNER
10
218.3007
20
61.2735
30
0.0
0
VERTEX
8
CUT_INNER
10
218.8977
20
62.0198
30
0.0
0
VERTEX
8
CUT_INNER
10
218.3007
20
62.6168
30
0.0
0
VERTEX
8
CUT_INNER
10
217.8529
20
65.6022
30
0.0
0
VERTEX
8
CUT_INNER
10
217.5544
20
63.2139
30
0.0
0
VERTEX
8
CUT_INNER
10
216.5095
20
61.8705
30
0.0
0
VERTEX
8
CUT_INNER
10
216.9573
20
60.8257
30
0.0
0
VERTEX
8
CUT_INNER
10
216.0617
20
58.1389
30
0.0
0
VERTEX
8
CUT_INNER
10
211.7330
20
57.6911
30
0.0
0
VERTEX
8
CUT_INNER
10
211.2852
20
57.0940
30
0.0
0
VERTEX
8
CUT_INNER
10
212.0315
20
55.8999
30
0.0
0
VERTEX
8
CUT_INNER
10
207.7028
20
52.9146
30
0.0
0
VERTEX
8
CUT_INNER
10
203.6727
20
52.9146
30
0.0
0
VERTEX
8
CUT_INNER
10
200.3888
20
51.7205
30
0.0
0
VERTEX
8
CUT_INNER
10
200.9859
20
50.9741
30
0.0
0
VERTEX
8
CUT_INNER
10
211.8823
20
50.3771
30
0.0
0
VERTEX
8
CUT_INNER
10
212.4793
20
49.4815
30
0.0
0
VERTEX
8
CUT_INNER
10
196.5079
20
49.6308
30
0.0
0
VERTEX
8
CUT_INNER
10
194.1197
20
47.6903
30
0.0
0
VERTEX
8
CUT_INNER
10
194.7167
20
47.0932
30
0.0
0
VERTEX
8
CUT_INNER
10
220.8382
20
45.8991
30
0.0
0
VERTEX
8
CUT_INNER
10
221.1367
20
46.3469
30
0.0
0
VERTEX
8
CUT_INNER
10
219.6441
20
48.7352
30
0.0
0
VERTEX
8
CUT_INNER
10
226.8088
20
48.8844
30
0.0
0
SEQEND
8
CUT_INNER
0
POLYLINE
8
CUT_INNER
66
1
70
1
0
VERTEX
8
CUT_INNER
10
128.2936
20
48.7352
30
0.0
0
VERTEX
8
CUT_INNER
10
124.5620
20
49.6308
30
0.0
0
VERTEX
8
CUT_INNER
10
123.3679
20
50.6756
30
0.0
0
VERTEX
8
CUT_INNER
10
121.2782
20
61.4227
30
0.0
0
VERTEX
8
CUT_INNER
10
119.7855
20
64.1095
30
0.0
0
VERTEX
8
CUT_INNER
10
116.6509
20
66.6470
30
0.0
0
VERTEX
8
CUT_INNER
10
112.3222
20
67.2441
30
0.0
0
VERTEX
8
CUT_INNER
10
108.2921
20
69.0353
30
0.0
0
VERTEX
8
CUT_INNER
10
104.2619
20
69.0353
30
0.0
0
VERTEX
8
CUT_INNER
10
99.6347
20
66.6470
30
0.0
0
VERTEX
8
CUT_INNER
10
87.8427
20
67.5426
30
0.0
0
VERTEX
8
CUT_INNER
10
82.1706
20
65.7514
30
0.0
0
VERTEX
8
CUT_INNER
10
77.5434
20
61.4227
30
0.0
0
VERTEX
8
CUT_INNER
10
74.8566
20
55.1536
30
0.0
0
VERTEX
8
CUT_INNER
10
73.6625
20
48.5859
30
0.0
0
VERTEX
8
CUT_INNER
10
71.2742
20
45.8991
30
0.0
0
VERTEX
8
CUT_INNER
10
70.6772
20
42.7645
30
0.0
0
VERTEX
8
CUT_INNER
10
71.5728
20
42.3167
30
0.0
0
VERTEX
8
CUT_INNER
10
73.5132
20
43.9587
30
0.0
0
VERTEX
8
CUT_INNER
10
73.8118
20
46.9440
30
0.0
0
VERTEX
8
CUT_INNER
10
76.3493
20
52.4668
30
0.0
0
VERTEX
8
CUT_INNER
10
76.9463
20
52.0190
30
0.0
0
VERTEX
8
CUT_INNER
10
77.8419
20
44.1079
30
0.0
0
VERTEX
8
CUT_INNER
10
73.9610
20
33.6594
30
0.0
0
VERTEX
8
CUT_INNER
10
76.2000
20
32.1667
30
0.0
0
VERTEX
8
CUT_INNER
10
80.5287
20
32.1667
30
0.0
0
VERTEX
8
CUT_INNER
10
81.2750
20
32.9130
30
0.0
0
VERTEX
8
CUT_INNER
10
81.2750
20
33.9579
30
0.0
0
VERTEX
8
CUT_INNER
10
80.0809
20
35.1520
30
0.0
0
VERTEX
8
CUT_INNER
10
80.3794
20
37.3910
30
0.0
0
VERTEX
8
CUT_INNER
10
81.8721
20
40.0778
30
0.0
0
VERTEX
8
CUT_INNER
10
85.1559
20
43.2123
30
0.0
0
VERTEX
8
CUT_INNER
10
85.6037
20
42.6153
30
0.0
0
VERTEX
8
CUT_INNER
10
84.7081
20
41.2719
30
0.0
0
VERTEX
8
CUT_INNER
10
85.9023
20
36.4954
30
0.0
0
VERTEX
8
CUT_INNER
10
85.9023
20
32.9130
30
0.0
0
VERTEX
8
CUT_INNER
10
86.3500
20
32.4652
30
0.0
0
VERTEX
8
CUT_INNER
10
92.1714
20
32.4652
30
0.0
0
VERTEX
8
CUT_INNER
10
92.9177
20
33.6594
30
0.0
0
VERTEX
8
CUT_INNER
10
90.8280
20
36.0476
30
0.0
0
VERTEX
8
CUT_INNER
10
89.9324
20
43.8094
30
0.0
0
VERTEX
8
CUT_INNER
10
89.1861
20
44.7050
30
0.0
0
VERTEX
8
CUT_INNER
10
97.9928
20
47.8396
30
0.0
0
VERTEX
8
CUT_INNER
10
98.4405
20
47.5410
30
0.0
0
VERTEX
8
CUT_INNER
10
98.1420
20
39.6300
30
0.0
0
VERTEX
8
CUT_INNER
10
97.5450
20
35.7491
30
0.0
0
VERTEX
8
CUT_INNER
10
96.3508
20
33.6594
30
0.0
0
VERTEX
8
CUT_INNER
10
97.0972
20
32.4652
30
0.0
0
VERTEX
8
CUT_INNER
10
102.9185
20
32.4652
30
0.0
0
VERTEX
8
CUT_INNER
10
103.6648
20
33.2116
30
0.0
0
VERTEX
8
CUT_INNER
10
103.3663
20
34.5549
30
0.0
0
VERTEX
8
CUT_INNER
10
102.1722
20
35.7491
30
0.0
0
VERTEX
8
CUT_INNER
10
102.1722
20
37.0925
30
0.0
0
VERTEX
8
CUT_INNER
10
104.4112
20
44.4065
30
0.0
0
VERTEX
8
CUT_INNER
10
107.0979
20
40.3763
30
0.0
0
VERTEX
8
CUT_INNER
10
108.5906
20
36.7939
30
0.0
0
VERTEX
8
CUT_INNER
10
107.9935
20
32.9130
30
0.0
0
VERTEX
8
CUT_INNER
10
108.4413
20
32.4652
30
0.0
0
VERTEX
8
CUT_INNER
10
113.9642
20
32.4652
30
0.0
0
VERTEX
8
CUT_INNER
10
115.3075
20
33.2116
30
0.0
0
VERTEX
8
CUT_INNER
10
115.3075
20
34.2564
30
0.0
0
VERTEX
8
CUT_INNER
10
113.2178
20
36.6447
30
0.0
0
VERTEX
8
CUT_INNER
10
109.3369
20
50.3771
30
0.0
0
VERTEX
8
CUT_INNER
10
109.3369
20
52.0190
30
0.0
0
VERTEX
8
CUT_INNER
10
110.0833
20
52.6161
30
0.0
0
VERTEX
8
CUT_INNER
10
111.7252
20
51.5712
30
0.0
0
VERTEX
8
CUT_INNER
10
113.6656
20
52.6161
30
0.0
0
VERTEX
8
CUT_INNER
10
116.0539
20
52.1683
30
0.0
0
VERTEX
8
CUT_INNER
10
117.2480
20
50.2278
30
0.0
0
VERTEX
8
CUT_INNER
10
119.3377
20
48.7352
30
0.0
0
VERTEX
8
CUT_INNER
10
120.2333
20
44.2572
30
0.0
0
VERTEX
8
CUT_INNER
10
119.9348
20
41.7197
30
0.0
0
VERTEX
8
CUT_INNER
10
119.0392
20
40.9734
30
0.0
0
VERTEX
8
CUT_INNER
10
117.8451
20
41.1226
30
0.0
0
VERTEX
8
CUT_INNER
10
117.5465
20
43.6601
30
0.0
0
VERTEX
8
CUT_INNER
10
116.5017
20
43.6601
30
0.0
0
VERTEX
8
CUT_INNER
10
115.4568
20
42.6153
30
0.0
0
VERTEX
8
CUT_INNER
10
116.0539
20
39.4807
30
0.0
0
VERTEX
8
CUT_INNER
10
117.9943
20
38.1373
30
0.0
0
VERTEX
8
CUT_INNER
10
120.2333
20
38.1373
30
0.0
0
VERTEX
8
CUT_INNER
10
122.7708
20
40.3763
30
0.0
0
VERTEX
8
CUT_INNER
10
123.6664
20
43.0631
30
0.0
0
VERTEX
8
CUT_INNER
10
123.6664
20
47.3918
30
0.0
0
VERTEX
8
CUT_INNER
10
127.3980
20
47.6903
30
0.0
0
SEQEND
8
CUT_INNER
0
POLYLINE
8
CUT_INNER
66
1
70
1
0
VERTEX
8
CUT_INNER
10
274.5738
20
95.6045
30
0.0
0
VERTEX
8
CUT_INNER
10
271.7377
20
96.2016
30
0.0
0
VERTEX
8
CUT_INNER
10
265.9164
20
94.4104
30
0.0
0
VERTEX
8
CUT_INNER
10
263.6774
20
94.4104
30
0.0
0
VERTEX
8
CUT_INNER
10
257.8560
20
96.5001
30
0.0
0
VERTEX
8
CUT_INNER
10
253.8259
20
96.7986
30
0.0
0
VERTEX
8
CUT_INNER
10
247.4074
20
94.7089
30
0.0
0
VERTEX
8
CUT_INNER
10
243.6758
20
94.7089
30
0.0
0
VERTEX
8
CUT_INNER
10
238.7500
20
96.5001
30
0.0
0
VERTEX
8
CUT_INNER
10
234.7199
20
96.5001
30
0.0
0
VERTEX
8
CUT_INNER
10
232.9287
20
95.4552
30
0.0
0
VERTEX
8
CUT_INNER
10
237.5559
20
94.8582
30
0.0
0
VERTEX
8
CUT_INNER
10
242.4817
20
92.4699
30
0.0
0
VERTEX
8
CUT_INNER
10
245.1685
20
91.8729
30
0.0
0
VERTEX
8
CUT_INNER
10
248.9001
20
92.1714
30
0.0
0
VERTEX
8
CUT_INNER
10
253.2288
20
93.6641
30
0.0
0
VERTEX
8
CUT_INNER
10
256.9604
20
93.6641
30
0.0
0
VERTEX
8
CUT_INNER
10
261.5877
20
92.1714
30
0.0
0
VERTEX
8
CUT_INNER
10
265.3193
20
91.8729
30
0.0
0
VERTEX
8
CUT_INNER
10
271.7377
20
94.5596
30
0.0
0
VERTEX
8
CUT_INNER
10
273.9767
20
94.8582
30
0.0
0
SEQEND
8
CUT_INNER
0
POLYLINE
8
CUT_INNER
66
1
70
1
0
VERTEX
8
CUT_INNER
10
167.2519
20
96.2016
30
0.0
0
VERTEX
8
CUT_INNER
10
166.8041
20
95.6045
30
0.0
0
VERTEX
8
CUT_INNER
10
167.4012
20
94.2611
30
0.0
0
VERTEX
8
CUT_INNER
10
164.1173
20
91.2758
30
0.0
0
VERTEX
8
CUT_INNER
10
164.1173
20
90.2310
30
0.0
0
VERTEX
8
CUT_INNER
10
164.5651
20
89.7832
30
0.0
0
VERTEX
8
CUT_INNER
10
166.6548
20
90.3802
30
0.0
0
VERTEX
8
CUT_INNER
10
169.7894
20
90.2310
30
0.0
0
VERTEX
8
CUT_INNER
10
171.8791
20
79.1853
30
0.0
0
VERTEX
8
CUT_INNER
10
173.6703
20
75.0059
30
0.0
0
VERTEX
8
CUT_INNER
10
173.0733
20
69.6323
30
0.0
0
VERTEX
8
CUT_INNER
10
174.2674
20
67.2441
30
0.0
0
VERTEX
8
CUT_INNER
10
174.8644
20
63.3632
30
0.0
0
VERTEX
8
CUT_INNER
10
174.8644
20
55.1536
30
0.0
0
VERTEX
8
CUT_INNER
10
174.2674
20
51.5712
30
0.0
0
VERTEX
8
CUT_INNER
10
173.3718
20
50.2278
30
0.0
0
VERTEX
8
CUT_INNER
10
173.8196
20
49.7800
30
0.0
0
VERTEX
8
CUT_INNER
10
175.6108
20
50.2278
30
0.0
0
VERTEX
8
CUT_INNER
10
176.8049
20
62.1690
30
0.0
0
VERTEX
8
CUT_INNER
10
177.5512
20
63.5124
30
0.0
0
VERTEX
8
CUT_INNER
10
178.1483
20
63.0646
30
0.0
0
VERTEX
8
CUT_INNER
10
179.3424
20
51.8697
30
0.0
0
VERTEX
8
CUT_INNER
10
178.4468
20
50.2278
30
0.0
0
VERTEX
8
CUT_INNER
10
178.8946
20
49.7800
30
0.0
0
VERTEX
8
CUT_INNER
10
180.6858
20
50.2278
30
0.0
0
VERTEX
8
CUT_INNER
10
180.3873
20
64.7066
30
0.0
0
VERTEX
8
CUT_INNER
10
180.8351
20
65.0051
30
0.0
0
VERTEX
8
CUT_INNER
10
184.1189
20
64.4080
30
0.0
0
VERTEX
8
CUT_INNER
10
186.8057
20
58.5867
30
0.0
0
VERTEX
8
CUT_INNER
10
185.9101
20
53.0639
30
0.0
0
VERTEX
8
CUT_INNER
10
184.4174
20
50.2278
30
0.0
0
VERTEX
8
CUT_INNER
10
184.8652
20
49.7800
30
0.0
0
VERTEX
8
CUT_INNER
10
186.6564
20
50.2278
30
0.0
0
VERTEX
8
CUT_INNER
10
187.8505
20
55.6014
30
0.0
0
VERTEX
8
CUT_INNER
10
189.4925
20
59.6315
30
0.0
0
VERTEX
8
CUT_INNER
10
190.3881
20
58.5867
30
0.0
0
VERTEX
8
CUT_INNER
10
191.2836
20
54.4072
30
0.0
0
VERTEX
8
CUT_INNER
10
191.2836
20
51.5712
30
0.0
0
VERTEX
8
CUT_INNER
10
190.3881
20
50.2278
30
0.0
0
VERTEX
8
CUT_INNER
10
192.1792
20
49.7800
30
0.0
0
VERTEX
8
CUT_INNER
10
192.9256
20
51.7205
30
0.0
0
VERTEX
8
CUT_INNER
10
192.3285
20
55.1536
30
0.0
0
VERTEX
8
CUT_INNER
10
192.6270
20
59.0345
30
0.0
0
VERTEX
8
CUT_INNER
10
190.8358
20
62.6168
30
0.0
0
VERTEX
8
CUT_INNER
10
190.9851
20
66.6470
30
0.0
0
VERTEX
8
CUT_INNER
10
191.8807
20
66.3485
30
0.0
0
VERTEX
8
CUT_INNER
10
192.4778
20
63.6617
30
0.0
0
VERTEX
8
CUT_INNER
10
193.3734
20
62.4676
30
0.0
0
VERTEX
8
CUT_INNER
10
193.3734
20
60.6764
30
0.0
0
VERTEX
8
CUT_INNER
10
194.8660
20
58.8852
30
0.0
0
VERTEX
8
CUT_INNER
10
195.6123
20
60.3779
30
0.0
0
VERTEX
8
CUT_INNER
10
195.3138
20
62.0198
30
0.0
0
VERTEX
8
CUT_INNER
10
193.2241
20
63.8110
30
0.0
0
VERTEX
8
CUT_INNER
10
191.1344
20
69.4831
30
0.0
0
VERTEX
8
CUT_INNER
10
188.5969
20
72.0206
30
0.0
0
VERTEX
8
CUT_INNER
10
183.3726
20
74.2595
30
0.0
0
VERTEX
8
CUT_INNER
10
180.9843
20
77.5434
30
0.0
0
VERTEX
8
CUT_INNER
10
177.7005
20
80.5287
30
0.0
0
VERTEX
8
CUT_INNER
10
171.7299
20
93.3655
30
0.0
0
VERTEX
8
CUT_INNER
10
172.6255
20
95.7538
30
0.0
0
VERTEX
8
CUT_INNER
10
172.0284
20
96.2016
30
0.0
0
VERTEX
8
CUT_INNER
10
170.8343
20
95.6045
30
0.0
0
VERTEX
8
CUT_INNER
10
170.3865
20
97.0972
30
0.0
0
VERTEX
8
CUT_INNER
10
169.6402
20
96.5001
30
0.0
0
VERTEX
8
CUT_INNER
10
168.8938
20
96.9479
30
0.0
0
VERTEX
8
CUT_INNER
10
168.2968
20
95.6045
30
0.0
0
SEQEND
8
CUT_INNER
0
POLYLINE
8
CUT_INNER
66
1
70
1
0
VERTEX
8
CUT_INNER
10
228.0029
20
88.4398
30
0.0
0
VERTEX
8
CUT_INNER
10
224.4206
20
90.5295
30
0.0
0
VERTEX
8
CUT_INNER
10
221.1367
20
90.9773
30
0.0
0
VERTEX
8
CUT_INNER
10
220.9875
20
91.8729
30
0.0
0
VERTEX
8
CUT_INNER
10
219.0470
20
93.2163
30
0.0
0
VERTEX
8
CUT_INNER
10
215.9124
20
93.5148
30
0.0
0
VERTEX
8
CUT_INNER
10
213.0764
20
95.9030
30
0.0
0
VERTEX
8
CUT_INNER
10
210.3896
20
95.9030
30
0.0
0
VERTEX
8
CUT_INNER
10
209.1955
20
97.0972
30
0.0
0
VERTEX
8
CUT_INNER
10
205.6131
20
98.2913
30
0.0
0
VERTEX
8
CUT_INNER
10
202.4786
20
97.9928
30
0.0
0
VERTEX
8
CUT_INNER
10
198.2991
20
95.9030
30
0.0
0
VERTEX
8
CUT_INNER
10
192.6270
20
95.9030
30
0.0
0
VERTEX
8
CUT_INNER
10
189.6417
20
93.8133
30
0.0
0
VERTEX
8
CUT_INNER
10
186.3579
20
93.2163
30
0.0
0
VERTEX
8
CUT_INNER
10
185.0145
20
91.4251
30
0.0
0
VERTEX
8
CUT_INNER
10
182.1785
20
91.1265
30
0.0
0
VERTEX
8
CUT_INNER
10
179.3424
20
88.8876
30
0.0
0
VERTEX
8
CUT_INNER
10
180.0887
20
87.6934
30
0.0
0
VERTEX
8
CUT_INNER
10
182.4770
20
87.3949
30
0.0
0
VERTEX
8
CUT_INNER
10
183.9696
20
85.9023
30
0.0
0
VERTEX
8
CUT_INNER
10
187.1042
20
85.9023
30
0.0
0
VERTEX
8
CUT_INNER
10
193.3734
20
83.0662
30
0.0
0
VERTEX
8
CUT_INNER
10
197.5528
20
78.8868
30
0.0
0
VERTEX
8
CUT_INNER
10
201.7322
20
67.5426
30
0.0
0
VERTEX
8
CUT_INNER
10
201.7322
20
62.0198
30
0.0
0
VERTEX
8
CUT_INNER
10
201.1352
20
59.3330
30
0.0
0
VERTEX
8
CUT_INNER
10
199.7918
20
57.0940
30
0.0
0
VERTEX
8
CUT_INNER
10
200.0903
20
56.6462
30
0.0
0
VERTEX
8
CUT_INNER
10
206.8072
20
56.9448
30
0.0
0
VERTEX
8
CUT_INNER
10
205.4639
20
60.2286
30
0.0
0
VERTEX
8
CUT_INNER
10
205.4639
20
65.7514
30
0.0
0
VERTEX
8
CUT_INNER
10
206.6580
20
69.3338
30
0.0
0
VERTEX
8
CUT_INNER
10
208.7477
20
72.0206
30
0.0
0
VERTEX
8
CUT_INNER
10
216.2110
20
75.7522
30
0.0
0
VERTEX
8
CUT_INNER
10
218.4500
20
75.4537
30
0.0
0
VERTEX
8
CUT_INNER
10
221.7338
20
76.3493
30
0.0
0
VERTEX
8
CUT_INNER
10
222.4801
20
77.5434
30
0.0
0
VERTEX
8
CUT_INNER
10
220.2411
20
78.7375
30
0.0
0
VERTEX
8
CUT_INNER
10
219.6441
20
79.7824
30
0.0
0
VERTEX
8
CUT_INNER
10
217.1066
20
80.0809
30
0.0
0
VERTEX
8
CUT_INNER
10
214.5690
20
81.5736
30
0.0
0
VERTEX
8
CUT_INNER
10
210.5389
20
80.9765
30
0.0
0
VERTEX
8
CUT_INNER
10
206.9565
20
79.1853
30
0.0
0
VERTEX
8
CUT_INNER
10
204.7175
20
76.9463
30
0.0
0
VERTEX
8
CUT_INNER
10
205.4639
20
76.0507
30
0.0
0
VERTEX
8
CUT_INNER
10
208.5984
20
75.6029
30
0.0
0
VERTEX
8
CUT_INNER
10
208.2999
20
73.3640
30
0.0
0
VERTEX
8
CUT_INNER
10
204.7175
20
69.6323
30
0.0
0
VERTEX
8
CUT_INNER
10
202.4786
20
73.6625
30
0.0
0
VERTEX
8
CUT_INNER
10
202.4786
20
76.7971
30
0.0
0
VERTEX
8
CUT_INNER
10
204.8668
20
80.6780
30
0.0
0
VERTEX
8
CUT_INNER
10
207.1058
20
82.4691
30
0.0
0
VERTEX
8
CUT_INNER
10
206.3595
20
83.9618
30
0.0
0
VERTEX
8
CUT_INNER
10
204.7175
20
84.2603
30
0.0
0
VERTEX
8
CUT_INNER
10
204.1205
20
82.0214
30
0.0
0
VERTEX
8
CUT_INNER
10
200.5381
20
78.1405
30
0.0
0
VERTEX
8
CUT_INNER
10
199.1947
20
79.6331
30
0.0
0
VERTEX
8
CUT_INNER
10
199.4932
20
82.0214
30
0.0
0
VERTEX
8
CUT_INNER
10
198.1499
20
82.6184
30
0.0
0
VERTEX
8
CUT_INNER
10
197.4035
20
81.7228
30
0.0
0
VERTEX
8
CUT_INNER
10
195.0153
20
83.8125
30
0.0
0
VERTEX
8
CUT_INNER
10
194.4182
20
87.0964
30
0.0
0
VERTEX
8
CUT_INNER
10
194.8660
20
87.3949
30
0.0
0
VERTEX
8
CUT_INNER
10
198.0006
20
85.4545
30
0.0
0
VERTEX
8
CUT_INNER
10
200.0903
20
85.0067
30
0.0
0
VERTEX
8
CUT_INNER
10
202.1800
20
87.9920
30
0.0
0
VERTEX
8
CUT_INNER
10
203.6727
20
86.7978
30
0.0
0
VERTEX
8
CUT_INNER
10
209.1955
20
87.9920
30
0.0
0
VERTEX
8
CUT_INNER
10
210.0911
20
87.2456
30
0.0
0
VERTEX
8
CUT_INNER
10
209.0462
20
85.1559
30
0.0
0
VERTEX
8
CUT_INNER
10
210.0911
20
83.5140
30
0.0
0
VERTEX
8
CUT_INNER
10
215.1661
20
84.1111
30
0.0
0
VERTEX
8
CUT_INNER
10
219.4948
20
85.9023
30
0.0
0
VERTEX
8
CUT_INNER
10
222.9279
20
85.6037
30
0.0
0
VERTEX
8
CUT_INNER
10
224.2713
20
86.3500
30
0.0
0
VERTEX
8
CUT_INNER
10
227.4059
20
86.4993
30
0.0
0
VERTEX
8
CUT_INNER
10
228.4507
20
87.2456
30
0.0
0
SEQEND
8
CUT_INNER
0
POLYLINE
8
CUT_INNER
66
1
70
1
0
VERTEX
8
CUT_INNER
10
114.5612
20
76.9463
30
0.0
0
VERTEX
8
CUT_INNER
10
114.5612
20
69.6323
30
0.0
0
VERTEX
8
CUT_INNER
10
119.9348
20
67.5426
30
0.0
0
VERTEX
8
CUT_INNER
10
122.3230
20
64.8558
30
0.0
0
VERTEX
8
CUT_INNER
10
124.1142
20
60.3779
30
0.0
0
VERTEX
8
CUT_INNER
10
125.0098
20
54.7058
30
0.0
0
VERTEX
8
CUT_INNER
10
125.7561
20
53.3624
30
0.0
0
VERTEX
8
CUT_INNER
10
167.9982
20
53.3624
30
0.0
0
VERTEX
8
CUT_INNER
10
168.4460
20
53.8102
30
0.0
0
VERTEX
8
CUT_INNER
10
168.4460
20
55.1536
30
0.0
0
VERTEX
8
CUT_INNER
10
166.6548
20
56.0492
30
0.0
0
VERTEX
8
CUT_INNER
10
166.6548
20
60.2286
30
0.0
0
VERTEX
8
CUT_INNER
10
163.3710
20
60.9749
30
0.0
0
VERTEX
8
CUT_INNER
10
163.3710
20
69.7816
30
0.0
0
VERTEX
8
CUT_INNER
10
159.1916
20
70.2294
30
0.0
0
VERTEX
8
CUT_INNER
10
158.7438
20
69.7816
30
0.0
0
VERTEX
8
CUT_INNER
10
158.7438
20
65.1544
30
0.0
0
VERTEX
8
CUT_INNER
10
157.6989
20
65.1544
30
0.0
0
VERTEX
8
CUT_INNER
10
157.6989
20
82.6184
30
0.0
0
VERTEX
8
CUT_INNER
10
156.0570
20
83.3647
30
0.0
0
VERTEX
8
CUT_INNER
10
156.2063
20
86.4993
30
0.0
0
VERTEX
8
CUT_INNER
10
155.7585
20
86.9471
30
0.0
0
VERTEX
8
CUT_INNER
10
152.6239
20
86.9471
30
0.0
0
VERTEX
8
CUT_INNER
10
152.1761
20
83.3647
30
0.0
0
VERTEX
8
CUT_INNER
10
150.3849
20
82.6184
30
0.0
0
VERTEX
8
CUT_INNER
10
150.3849
20
60.3779
30
0.0
0
VERTEX
8
CUT_INNER
10
148.4445
20
60.3779
30
0.0
0
VERTEX
8
CUT_INNER
10
148.4445
20
75.4537
30
0.0
0
VERTEX
8
CUT_INNER
10
147.9967
20
75.9015
30
0.0
0
VERTEX
8
CUT_INNER
10
146.3548
20
75.9015
30
0.0
0
VERTEX
8
CUT_INNER
10
145.6084
20
75.1551
30
0.0
0
VERTEX
8
CUT_INNER
10
145.6084
20
66.3485
30
0.0
0
VERTEX
8
CUT_INNER
10
143.6680
20
66.3485
30
0.0
0
VERTEX
8
CUT_INNER
10
143.6680
20
94.5596
30
0.0
0
VERTEX
8
CUT_INNER
10
141.8768
20
95.4552
30
0.0
0
VERTEX
8
CUT_INNER
10
142.0261
20
98.2913
30
0.0
0
VERTEX
8
CUT_INNER
10
140.3841
20
99.1869
30
0.0
0
VERTEX
8
CUT_INNER
10
139.9363
20
103.3663
30
0.0
0
VERTEX
8
CUT_INNER
10
139.3393
20
102.9185
30
0.0
0
VERTEX
8
CUT_INNER
10
139.3393
20
99.1869
30
0.0
0
VERTEX
8
CUT_INNER
10
137.8466
20
98.4405
30
0.0
0
VERTEX
8
CUT_INNER
10
137.8466
20
95.4552
30
0.0
0
VERTEX
8
CUT_INNER
10
136.0554
20
94.5596
30
0.0
0
VERTEX
8
CUT_INNER
10
136.0554
20
72.9162
30
0.0
0
VERTEX
8
CUT_INNER
10
133.3687
20
72.1698
30
0.0
0
VERTEX
8
CUT_INNER
10
133.3687
20
62.7661
30
0.0
0
VERTEX
8
CUT_INNER
10
131.7267
20
62.7661
30
0.0
0
VERTEX
8
CUT_INNER
10
131.7267
20
84.7081
30
0.0
0
VERTEX
8
CUT_INNER
10
129.9356
20
85.4545
30
0.0
0
VERTEX
8
CUT_INNER
10
129.4878
20
88.4398
30
0.0
0
VERTEX
8
CUT_INNER
10
125.7561
20
88.4398
30
0.0
0
VERTEX
8
CUT_INNER
10
125.3083
20
85.4545
30
0.0
0
VERTEX
8
CUT_INNER
10
122.9201
20
84.7081
30
0.0
0
VERTEX
8
CUT_INNER
10
122.7708
20
73.9610
30
0.0
0
VERTEX
8
CUT_INNER
10
120.0840
20
74.1103
30
0.0
0
VERTEX
8
CUT_INNER
10
119.6362
20
77.3941
30
0.0
0
VERTEX
8
CUT_INNER
10
115.0090
20
77.3941
30
0.0
0
SEQEND
8
CUT_INNER
0
POLYLINE
8
CUT_INNER
66
1
70
1
0
VERTEX
8
CUT_INNER
10
220.3904
20
102.1722
30
0.0
0
VERTEX
8
CUT_INNER
10
224.8684
20
100.2317
30
0.0
0
VERTEX
8
CUT_INNER
10
234.5706
20
100.8288
30
0.0
0
VERTEX
8
CUT_INNER
10
242.4817
20
98.1420
30
0.0
0
VERTEX
8
CUT_INNER
10
246.5119
20
98.1420
30
0.0
0
VERTEX
8
CUT_INNER
10
251.4376
20
99.9332
30
0.0
0
VERTEX
8
CUT_INNER
10
255.1692
20
100.2317
30
0.0
0
VERTEX
8
CUT_INNER
10
262.4833
20
97.8435
30
0.0
0
VERTEX
8
CUT_INNER
10
266.8119
20
98.1420
30
0.0
0
VERTEX
8
CUT_INNER
10
272.6333
20
101.1273
30
0.0
0
VERTEX
8
CUT_INNER
10
275.7679
20
102.0229
30
0.0
0
VERTEX
8
CUT_INNER
10
274.5738
20
102.7692
30
0.0
0
VERTEX
8
CUT_INNER
10
271.7377
20
103.0678
30
0.0
0
VERTEX
8
CUT_INNER
10
265.6178
20
100.9781
30
0.0
0
VERTEX
8
CUT_INNER
10
262.7818
20
100.9781
30
0.0
0
VERTEX
8
CUT_INNER
10
256.0648
20
103.3663
30
0.0
0
VERTEX
8
CUT_INNER
10
252.0347
20
103.3663
30
0.0
0
VERTEX
8
CUT_INNER
10
245.9148
20
101.2766
30
0.0
0
VERTEX
8
CUT_INNER
10
242.4817
20
101.2766
30
0.0
0
VERTEX
8
CUT_INNER
10
233.9736
20
103.9634
30
0.0
0
VERTEX
8
CUT_INNER
10
226.5103
20
102.1722
30
0.0
0
SEQEND
8
CUT_INNER
0
POLYLINE
8
CUT_INNER
66
1
70
1
0
VERTEX
8
CUT_INNER
10
27.9873
20
93.2163
30
0.0
0
VERTEX
8
CUT_INNER
10
28.5843
20
90.0817
30
0.0
0
VERTEX
8
CUT_INNER
10
27.3902
20
85.7530
30
0.0
0
VERTEX
8
CUT_INNER
10
28.5843
20
82.3199
30
0.0
0
VERTEX
8
CUT_INNER
10
29.0321
20
86.9471
30
0.0
0
VERTEX
8
CUT_INNER
10
31.1218
20
90.5295
30
0.0
0
VERTEX
8
CUT_INNER
10
31.8682
20
90.3802
30
0.0
0
VERTEX
8
CUT_INNER
10
31.2711
20
85.7530
30
0.0
0
VERTEX
8
CUT_INNER
10
32.1667
20
84.1111
30
0.0
0
VERTEX
8
CUT_INNER
10
32.9130
20
84.4096
30
0.0
0
VERTEX
8
CUT_INNER
10
32.9130
20
87.2456
30
0.0
0
VERTEX
8
CUT_INNER
10
34.4057
20
90.9773
30
0.0
0
VERTEX
8
CUT_INNER
10
36.4954
20
91.4251
30
0.0
0
VERTEX
8
CUT_INNER
10
37.5403
20
89.9324
30
0.0
0
VERTEX
8
CUT_INNER
10
36.6447
20
79.1853
30
0.0
0
VERTEX
8
CUT_INNER
10
35.3013
20
79.0360
30
0.0
0
VERTEX
8
CUT_INNER
10
33.8086
20
81.5736
30
0.0
0
VERTEX
8
CUT_INNER
10
33.2116
20
81.4243
30
0.0
0
VERTEX
8
CUT_INNER
10
33.6594
20
79.1853
30
0.0
0
VERTEX
8
CUT_INNER
10
30.8233
20
78.4390
30
0.0
0
VERTEX
8
CUT_INNER
10
32.1667
20
76.3493
30
0.0
0
VERTEX
8
CUT_INNER
10
39.3314
20
76.3493
30
0.0
0
VERTEX
8
CUT_INNER
10
46.4962
20
75.4537
30
0.0
0
VERTEX
8
CUT_INNER
10
63.3632
20
70.3786
30
0.0
0
VERTEX
8
CUT_INNER
10
70.2294
20
69.1845
30
0.0
0
VERTEX
8
CUT_INNER
10
76.6478
20
69.4831
30
0.0
0
VERTEX
8
CUT_INNER
10
77.0956
20
70.0801
30
0.0
0
VERTEX
8
CUT_INNER
10
74.5581
20
71.5728
30
0.0
0
VERTEX
8
CUT_INNER
10
77.3941
20
72.4684
30
0.0
0
VERTEX
8
CUT_INNER
10
85.4545
20
73.3640
30
0.0
0
VERTEX
8
CUT_INNER
10
97.2464
20
73.6625
30
0.0
0
VERTEX
8
CUT_INNER
10
91.1265
20
75.9015
30
0.0
0
VERTEX
8
CUT_INNER
10
91.7236
20
84.4096
30
0.0
0
VERTEX
8
CUT_INNER
10
92.4699
20
84.5589
30
0.0
0
VERTEX
8
CUT_INNER
10
94.7089
20
82.1706
30
0.0
0
VERTEX
8
CUT_INNER
10
95.0074
20
83.8125
30
0.0
0
VERTEX
8
CUT_INNER
10
93.9626
20
85.7530
30
0.0
0
VERTEX
8
CUT_INNER
10
96.7986
20
86.0515
30
0.0
0
VERTEX
8
CUT_INNER
10
95.7538
20
87.5442
30
0.0
0
VERTEX
8
CUT_INNER
10
92.9177
20
88.1412
30
0.0
0
VERTEX
8
CUT_INNER
10
94.2611
20
90.0817
30
0.0
0
VERTEX
8
CUT_INNER
10
93.8133
20
90.6787
30
0.0
0
VERTEX
8
CUT_INNER
10
92.9177
20
90.5295
30
0.0
0
VERTEX
8
CUT_INNER
10
91.1265
20
88.7383
30
0.0
0
VERTEX
8
CUT_INNER
10
88.4398
20
90.2310
30
0.0
0
VERTEX
8
CUT_INNER
10
87.8427
20
89.4846
30
0.0
0
VERTEX
8
CUT_INNER
10
89.1861
20
88.1412
30
0.0
0
VERTEX
8
CUT_INNER
10
86.9471
20
87.2456
30
0.0
0
VERTEX
8
CUT_INNER
10
85.9023
20
85.9023
30
0.0
0
VERTEX
8
CUT_INNER
10
86.2008
20
85.4545
30
0.0
0
VERTEX
8
CUT_INNER
10
88.7383
20
85.7530
30
0.0
0
VERTEX
8
CUT_INNER
10
87.6934
20
84.1111
30
0.0
0
VERTEX
8
CUT_INNER
10
87.9920
20
82.4691
30
0.0
0
VERTEX
8
CUT_INNER
10
89.9324
20
84.4096
30
0.0
0
VERTEX
8
CUT_INNER
10
90.6787
20
84.2603
30
0.0
0
VERTEX
8
CUT_INNER
10
90.6787
20
80.5287
30
0.0
0
VERTEX
8
CUT_INNER
10
89.4846
20
76.4985
30
0.0
0
VERTEX
8
CUT_INNER
10
86.9471
20
76.2000
30
0.0
0
VERTEX
8
CUT_INNER
10
83.6633
20
76.7971
30
0.0
0
VERTEX
8
CUT_INNER
10
83.6633
20
83.5140
30
0.0
0
VERTEX
8
CUT_INNER
10
83.0662
20
84.1111
30
0.0
0
VERTEX
8
CUT_INNER
10
83.0662
20
89.9324
30
0.0
0
VERTEX
8
CUT_INNER
10
83.6633
20
90.9773
30
0.0
0
VERTEX
8
CUT_INNER
10
82.7677
20
91.7236
30
0.0
0
VERTEX
8
CUT_INNER
10
82.7677
20
95.6045
30
0.0
0
VERTEX
8
CUT_INNER
10
83.3647
20
96.3508
30
0.0
0
VERTEX
8
CUT_INNER
10
82.4691
20
97.0972
30
0.0
0
VERTEX
8
CUT_INNER
10
82.7677
20
99.6347
30
0.0
0
VERTEX
8
CUT_INNER
10
81.5736
20
101.1273
30
0.0
0
VERTEX
8
CUT_INNER
10
79.9316
20
99.3361
30
0.0
0
VERTEX
8
CUT_INNER
10
79.9316
20
91.5743
30
0.0
0
VERTEX
8
CUT_INNER
10
79.3346
20
90.9773
30
0.0
0
VERTEX
8
CUT_INNER
10
79.9316
20
89.6339
30
0.0
0
VERTEX
8
CUT_INNER
10
79.9316
20
83.6633
30
0.0
0
VERTEX
8
CUT_INNER
10
79.4838
20
83.3647
30
0.0
0
VERTEX
8
CUT_INNER
10
77.9912
20
84.8574
30
0.0
0
VERTEX
8
CUT_INNER
10
77.9912
20
87.0964
30
0.0
0
VERTEX
8
CUT_INNER
10
76.2000
20
89.1861
30
0.0
0
VERTEX
8
CUT_INNER
10
74.2595
20
87.0964
30
0.0
0
VERTEX
8
CUT_INNER
10
73.5132
20
87.2456
30
0.0
0
VERTEX
8
CUT_INNER
10
73.5132
20
87.9920
30
0.0
0
VERTEX
8
CUT_INNER
10
72.4684
20
88.7383
30
0.0
0
VERTEX
8
CUT_INNER
10
73.5132
20
90.8280
30
0.0
0
VERTEX
8
CUT_INNER
10
73.2147
20
92.4699
30
0.0
0
VERTEX
8
CUT_INNER
10
71.5728
20
94.7089
30
0.0
0
VERTEX
8
CUT_INNER
10
68.4382
20
96.9479
30
0.0
0
VERTEX
8
CUT_INNER
10
67.9904
20
98.2913
30
0.0
0
VERTEX
8
CUT_INNER
10
67.3933
20
97.8435
30
0.0
0
VERTEX
8
CUT_INNER
10
67.3933
20
96.6494
30
0.0
0
VERTEX
8
CUT_INNER
10
64.8558
20
95.0074
30
0.0
0
VERTEX
8
CUT_INNER
10
62.6168
20
92.1714
30
0.0
0
VERTEX
8
CUT_INNER
10
62.6168
20
89.9324
30
0.0
0
VERTEX
8
CUT_INNER
10
63.6617
20
89.0368
30
0.0
0
VERTEX
8
CUT_INNER
10
62.9154
20
88.4398
30
0.0
0
VERTEX
8
CUT_INNER
10
67.2441
20
84.2603
30
0.0
0
VERTEX
8
CUT_INNER
10
67.8411
20
84.7081
30
0.0
0
VERTEX
8
CUT_INNER
10
68.8860
20
84.2603
30
0.0
0
VERTEX
8
CUT_INNER
10
70.3786
20
82.4691
30
0.0
0
VERTEX
8
CUT_INNER
10
70.3786
20
76.7971
30
0.0
0
VERTEX
8
CUT_INNER
10
69.9309
20
76.4985
30
0.0
0
VERTEX
8
CUT_INNER
10
65.4529
20
76.7971
30
0.0
0
VERTEX
8
CUT_INNER
10
65.4529
20
82.1706
30
0.0
0
VERTEX
8
CUT_INNER
10
60.8257
20
86.6486
30
0.0
0
VERTEX
8
CUT_INNER
10
60.8257
20
87.8427
30
0.0
0
VERTEX
8
CUT_INNER
10
59.6315
20
88.7383
30
0.0
0
VERTEX
8
CUT_INNER
10
57.5418
20
86.7978
30
0.0
0
VERTEX
8
CUT_INNER
10
57.8404
20
84.8574
30
0.0
0
VERTEX
8
CUT_INNER
10
56.3477
20
83.9618
30
0.0
0
VERTEX
8
CUT_INNER
10
55.8999
20
84.2603
30
0.0
0
VERTEX
8
CUT_INNER
10
55.8999
20
89.3354
30
0.0
0
VERTEX
8
CUT_INNER
10
56.4970
20
90.3802
30
0.0
0
VERTEX
8
CUT_INNER
10
55.6014
20
91.1265
30
0.0
0
VERTEX
8
CUT_INNER
10
55.6014
20
98.4405
30
0.0
0
VERTEX
8
CUT_INNER
10
54.4072
20
99.9332
30
0.0
0
VERTEX
8
CUT_INNER
10
53.0639
20
98.7391
30
0.0
0
VERTEX
8
CUT_INNER
10
53.3624
20
96.2016
30
0.0
0
VERTEX
8
CUT_INNER
10
52.4668
20
95.4552
30
0.0
0
VERTEX
8
CUT_INNER
10
53.0639
20
94.4104
30
0.0
0
VERTEX
8
CUT_INNER
10
53.0639
20
91.2758
30
0.0
0
VERTEX
8
CUT_INNER
10
52.1683
20
90.3802
30
0.0
0
VERTEX
8
CUT_INNER
10
52.7653
20
89.3354
30
0.0
0
VERTEX
8
CUT_INNER
10
52.7653
20
77.6927
30
0.0
0
VERTEX
8
CUT_INNER
10
42.7645
20
78.5882
30
0.0
0
VERTEX
8
CUT_INNER
10
41.5704
20
79.6331
30
0.0
0
VERTEX
8
CUT_INNER
10
40.9734
20
81.4243
30
0.0
0
VERTEX
8
CUT_INNER
10
39.9285
20
81.1258
30
0.0
0
VERTEX
8
CUT_INNER
10
40.3763
20
79.0360
30
0.0
0
VERTEX
8
CUT_INNER
10
37.9881
20
79.3346
30
0.0
0
VERTEX
8
CUT_INNER
10
37.9881
20
84.2603
30
0.0
0
VERTEX
8
CUT_INNER
10
38.7344
20
85.0067
30
0.0
0
VERTEX
8
CUT_INNER
10
39.3314
20
83.9618
30
0.0
0
VERTEX
8
CUT_INNER
10
40.3763
20
84.2603
30
0.0
0
VERTEX
8
CUT_INNER
10
39.4807
20
88.2905
30
0.0
0
VERTEX
8
CUT_INNER
10
39.7792
20
91.1265
30
0.0
0
VERTEX
8
CUT_INNER
10
40.8241
20
92.6192
30
0.0
0
VERTEX
8
CUT_INNER
10
42.6153
20
93.0670
30
0.0
0
VERTEX
8
CUT_INNER
10
44.2572
20
94.7089
30
0.0
0
VERTEX
8
CUT_INNER
10
45.1528
20
96.7986
30
0.0
0
VERTEX
8
CUT_INNER
10
45.4513
20
100.3810
30
0.0
0
VERTEX
8
CUT_INNER
10
48.4366
20
101.5751
30
0.0
0
VERTEX
8
CUT_INNER
10
47.6903
20
103.0678
30
0.0
0
VERTEX
8
CUT_INNER
10
44.2572
20
104.2619
30
0.0
0
VERTEX
8
CUT_INNER
10
43.8094
20
103.8141
30
0.0
0
VERTEX
8
CUT_INNER
10
42.9138
20
98.4405
30
0.0
0
VERTEX
8
CUT_INNER
10
41.7197
20
96.9479
30
0.0
0
VERTEX
8
CUT_INNER
10
40.6748
20
97.2464
30
0.0
0
VERTEX
8
CUT_INNER
10
38.4358
20
99.7839
30
0.0
0
VERTEX
8
CUT_INNER
10
36.4954
20
100.0825
30
0.0
0
VERTEX
8
CUT_INNER
10
34.8535
20
101.5751
30
0.0
0
VERTEX
8
CUT_INNER
10
33.2116
20
101.8737
30
0.0
0
VERTEX
8
CUT_INNER
10
28.8829
20
97.5450
30
0.0
0
SEQEND
8
CUT_INNER
0
POLYLINE
8
CUT_INNER
66
1
70
1
0
VERTEX
8
CUT_INNER
10
236.9589
20
152.3254
30
0.0
0
VERTEX
8
CUT_INNER
10
235.6155
20
152.3254
30
0.0
0
VERTEX
8
CUT_INNER
10
234.2721
20
150.6834
30
0.0
0
VERTEX
8
CUT_INNER
10
234.5706
20
149.0415
30
0.0
0
VERTEX
8
CUT_INNER
10
236.0633
20
147.9967
30
0.0
0
VERTEX
8
CUT_INNER
10
235.7647
20
146.8025
30
0.0
0
VERTEX
8
CUT_INNER
10
234.4214
20
145.7577
30
0.0
0
VERTEX
8
CUT_INNER
10
235.0184
20
145.0114
30
0.0
0
VERTEX
8
CUT_INNER
10
238.0037
20
148.1459
30
0.0
0
VERTEX
8
CUT_INNER
10
238.0037
20
150.9820
30
0.0
0
SEQEND
8
CUT_INNER
0
POLYLINE
8
CUT_INNER
66
1
70
1
0
VERTEX
8
CUT_INNER
10
230.9882
20
153.5195
30
0.0
0
VERTEX
8
CUT_INNER
10
229.1971
20
150.6834
30
0.0
0
VERTEX
8
CUT_INNER
10
227.1073
20
149.4893
30
0.0
0
VERTEX
8
CUT_INNER
10
227.5551
20
148.2952
30
0.0
0
VERTEX
8
CUT_INNER
10
231.4360
20
148.7430
30
0.0
0
VERTEX
8
CUT_INNER
10
231.4360
20
153.0717
30
0.0
0
SEQEND
8
CUT_INNER
0
POLYLINE
8
CUT_INNER
66
1
70
1
0
VERTEX
8
CUT_INNER
10
274.8723
20
164.2666
30
0.0
0
VERTEX
8
CUT_INNER
10
271.1406
20
163.9681
30
0.0
0
VERTEX
8
CUT_INNER
10
267.5583
20
161.2813
30
0.0
0
VERTEX
8
CUT_INNER
10
265.6178
20
159.0423
30
0.0
0
VERTEX
8
CUT_INNER
10
264.8715
20
154.7136
30
0.0
0
VERTEX
8
CUT_INNER
10
261.4384
20
156.8033
30
0.0
0
VERTEX
8
CUT_INNER
10
257.7068
20
157.4004
30
0.0
0
VERTEX
8
CUT_INNER
10
253.5273
20
155.9077
30
0.0
0
VERTEX
8
CUT_INNER
10
251.1391
20
153.2210
30
0.0
0
VERTEX
8
CUT_INNER
10
251.5869
20
152.7732
30
0.0
0
VERTEX
8
CUT_INNER
10
254.4229
20
153.6688
30
0.0
0
VERTEX
8
CUT_INNER
10
255.3185
20
153.0717
30
0.0
0
VERTEX
8
CUT_INNER
10
257.7068
20
153.5195
30
0.0
0
VERTEX
8
CUT_INNER
10
259.1994
20
152.4746
30
0.0
0
VERTEX
8
CUT_INNER
10
260.9906
20
152.1761
30
0.0
0
VERTEX
8
CUT_INNER
10
260.5428
20
151.4298
30
0.0
0
VERTEX
8
CUT_INNER
10
256.5126
20
150.2357
30
0.0
0
VERTEX
8
CUT_INNER
10
253.9751
20
147.9967
30
0.0
0
VERTEX
8
CUT_INNER
10
252.4825
20
145.0114
30
0.0
0
VERTEX
8
CUT_INNER
10
252.1839
20
142.4738
30
0.0
0
VERTEX
8
CUT_INNER
10
252.4825
20
140.6827
30
0.0
0
VERTEX
8
CUT_INNER
10
253.3781
20
139.6378
30
0.0
0
VERTEX
8
CUT_INNER
10
255.0200
20
142.7724
30
0.0
0
VERTEX
8
CUT_INNER
10
256.2141
20
143.0709
30
0.0
0
VERTEX
8
CUT_INNER
10
258.0053
20
145.4592
30
0.0
0
VERTEX
8
CUT_INNER
10
262.4833
20
147.5489
30
0.0
0
VERTEX
8
CUT_INNER
10
259.9457
20
142.0261
30
0.0
0
VERTEX
8
CUT_INNER
10
259.9457
20
138.8915
30
0.0
0
VERTEX
8
CUT_INNER
10
261.1399
20
135.3091
30
0.0
0
VERTEX
8
CUT_INNER
10
262.9310
20
133.2194
30
0.0
0
VERTEX
8
CUT_INNER
10
263.3788
20
133.5179
30
0.0
0
VERTEX
8
CUT_INNER
10
263.3788
20
138.1452
30
0.0
0
VERTEX
8
CUT_INNER
10
264.2744
20
138.8915
30
0.0
0
VERTEX
8
CUT_INNER
10
264.5730
20
141.5783
30
0.0
0
VERTEX
8
CUT_INNER
10
266.0656
20
142.4738
30
0.0
0
VERTEX
8
CUT_INNER
10
267.2597
20
146.0562
30
0.0
0
VERTEX
8
CUT_INNER
10
268.0061
20
146.0562
30
0.0
0
VERTEX
8
CUT_INNER
10
270.6929
20
140.6827
30
0.0
0
VERTEX
8
CUT_INNER
10
271.8870
20
135.6076
30
0.0
0
VERTEX
8
CUT_INNER
10
271.8870
20
127.6966
30
0.0
0
VERTEX
8
CUT_INNER
10
269.2002
20
118.7406
30
0.0
0
VERTEX
8
CUT_INNER
10
268.1553
20
118.2929
30
0.0
0
VERTEX
8
CUT_INNER
10
260.5428
20
119.7855
30
0.0
0
VERTEX
8
CUT_INNER
10
248.4523
20
119.4870
30
0.0
0
VERTEX
8
CUT_INNER
10
247.2582
20
125.9054
30
0.0
0
VERTEX
8
CUT_INNER
10
244.5714
20
130.9804
30
0.0
0
VERTEX
8
CUT_INNER
10
245.0192
20
131.2789
30
0.0
0
VERTEX
8
CUT_INNER
10
246.9596
20
129.7863
30
0.0
0
VERTEX
8
CUT_INNER
10
247.8552
20
129.9356
30
0.0
0
VERTEX
8
CUT_INNER
10
250.5420
20
126.6517
30
0.0
0
VERTEX
8
CUT_INNER
10
251.1391
20
128.2936
30
0.0
0
VERTEX
8
CUT_INNER
10
250.2435
20
130.9804
30
0.0
0
VERTEX
8
CUT_INNER
10
248.6016
20
132.9209
30
0.0
0
VERTEX
8
CUT_INNER
10
246.0641
20
133.9657
30
0.0
0
VERTEX
8
CUT_INNER
10
245.9148
20
134.5628
30
0.0
0
VERTEX
8
CUT_INNER
10
247.7060
20
135.3091
30
0.0
0
VERTEX
8
CUT_INNER
10
248.7508
20
134.8613
30
0.0
0
VERTEX
8
CUT_INNER
10
250.3928
20
135.3091
30
0.0
0
VERTEX
8
CUT_INNER
10
252.0347
20
134.5628
30
0.0
0
VERTEX
8
CUT_INNER
10
253.0795
20
135.0106
30
0.0
0
VERTEX
8
CUT_INNER
10
250.6913
20
137.6974
30
0.0
0
VERTEX
8
CUT_INNER
10
249.1986
20
138.2944
30
0.0
0
VERTEX
8
CUT_INNER
10
246.6611
20
138.2944
30
0.0
0
VERTEX
8
CUT_INNER
10
243.8251
20
136.9510
30
0.0
0
VERTEX
8
CUT_INNER
10
243.3773
20
137.2496
30
0.0
0
VERTEX
8
CUT_INNER
10
244.1236
20
139.7871
30
0.0
0
VERTEX
8
CUT_INNER
10
245.7655
20
140.9812
30
0.0
0
VERTEX
8
CUT_INNER
10
245.7655
20
141.8768
30
0.0
0
VERTEX
8
CUT_INNER
10
247.5567
20
142.7724
30
0.0
0
VERTEX
8
CUT_INNER
10
247.1089
20
143.3694
30
0.0
0
VERTEX
8
CUT_INNER
10
244.8699
20
143.3694
30
0.0
0
VERTEX
8
CUT_INNER
10
242.7802
20
142.4738
30
0.0
0
VERTEX
8
CUT_INNER
10
241.1383
20
140.8319
30
0.0
0
VERTEX
8
CUT_INNER
10
240.0934
20
136.8018
30
0.0
0
VERTEX
8
CUT_INNER
10
235.0184
20
138.5929
30
0.0
0
VERTEX
8
CUT_INNER
10
232.0331
20
137.3988
30
0.0
0
VERTEX
8
CUT_INNER
10
230.0927
20
134.7120
30
0.0
0
VERTEX
8
CUT_INNER
10
235.6155
20
135.3091
30
0.0
0
VERTEX
8
CUT_INNER
10
237.1081
20
134.4135
30
0.0
0
VERTEX
8
CUT_INNER
10
233.0780
20
131.5775
30
0.0
0
VERTEX
8
CUT_INNER
10
231.8838
20
129.4878
30
0.0
0
VERTEX
8
CUT_INNER
10
231.5853
20
126.6517
30
0.0
0
VERTEX
8
CUT_INNER
10
232.4809
20
125.0098
30
0.0
0
VERTEX
8
CUT_INNER
10
233.8243
20
127.5473
30
0.0
0
VERTEX
8
CUT_INNER
10
234.8691
20
127.9951
30
0.0
0
VERTEX
8
CUT_INNER
10
235.9140
20
129.6370
30
0.0
0
VERTEX
8
CUT_INNER
10
238.0037
20
130.3833
30
0.0
0
VERTEX
8
CUT_INNER
10
237.2574
20
126.3532
30
0.0
0
VERTEX
8
CUT_INNER
10
237.8545
20
123.9649
30
0.0
0
VERTEX
8
CUT_INNER
10
239.3471
20
122.1738
30
0.0
0
VERTEX
8
CUT_INNER
10
240.0934
20
123.0693
30
0.0
0
VERTEX
8
CUT_INNER
10
239.9442
20
125.3083
30
0.0
0
VERTEX
8
CUT_INNER
10
241.5861
20
130.0848
30
0.0
0
VERTEX
8
CUT_INNER
10
242.6310
20
129.9356
30
0.0
0
VERTEX
8
CUT_INNER
10
245.0192
20
123.9649
30
0.0
0
VERTEX
8
CUT_INNER
10
245.3177
20
118.5914
30
0.0
0
VERTEX
8
CUT_INNER
10
237.4067
20
115.6061
30
0.0
0
VERTEX
8
CUT_INNER
10
232.4809
20
111.4266
30
0.0
0
VERTEX
8
CUT_INNER
10
229.3463
20
111.1281
30
0.0
0
VERTEX
8
CUT_INNER
10
225.1669
20
109.3369
30
0.0
0
VERTEX
8
CUT_INNER
10
222.3309
20
106.7994
30
0.0
0
VERTEX
8
CUT_INNER
10
222.1816
20
105.6053
30
0.0
0
VERTEX
8
CUT_INNER
10
224.7191
20
105.3068
30
0.0
0
VERTEX
8
CUT_INNER
10
231.7346
20
107.0979
30
0.0
0
VERTEX
8
CUT_INNER
10
236.0633
20
107.0979
30
0.0
0
VERTEX
8
CUT_INNER
10
241.8846
20
105.0082
30
0.0
0
VERTEX
8
CUT_INNER
10
245.9148
20
105.0082
30
0.0
0
VERTEX
8
CUT_INNER
10
252.0347
20
107.0979
30
0.0
0
VERTEX
8
CUT_INNER
10
255.7663
20
107.0979
30
0.0
0
VERTEX
8
CUT_INNER
10
261.5877
20
105.0082
30
0.0
0
VERTEX
8
CUT_INNER
10
265.6178
20
104.7097
30
0.0
0
VERTEX
8
CUT_INNER
10
273.8274
20
107.3965
30
0.0
0
VERTEX
8
CUT_INNER
10
279.7980
20
106.7994
30
0.0
0
VERTEX
8
CUT_INNER
10
281.2907
20
107.2472
30
0.0
0
VERTEX
8
CUT_INNER
10
281.5892
20
110.0833
30
0.0
0
VERTEX
8
CUT_INNER
10
280.3951
20
112.1730
30
0.0
0
VERTEX
8
CUT_INNER
10
277.5591
20
114.7105
30
0.0
0
VERTEX
8
CUT_INNER
10
273.8274
20
116.6509
30
0.0
0
VERTEX
8
CUT_INNER
10
275.6186
20
123.6664
30
0.0
0
VERTEX
8
CUT_INNER
10
275.9171
20
132.1745
30
0.0
0
VERTEX
8
CUT_INNER
10
273.8274
20
141.1305
30
0.0
0
VERTEX
8
CUT_INNER
10
270.8421
20
146.9518
30
0.0
0
VERTEX
8
CUT_INNER
10
271.2899
20
147.2503
30
0.0
0
VERTEX
8
CUT_INNER
10
273.6782
20
145.7577
30
0.0
0
VERTEX
8
CUT_INNER
10
274.4245
20
146.2055
30
0.0
0
VERTEX
8
CUT_INNER
10
276.2157
20
144.4143
30
0.0
0
VERTEX
8
CUT_INNER
10
277.1113
20
144.5636
30
0.0
0
VERTEX
8
CUT_INNER
10
278.7532
20
142.4738
30
0.0
0
VERTEX
8
CUT_INNER
10
279.7980
20
142.7724
30
0.0
0
VERTEX
8
CUT_INNER
10
282.1863
20
139.1900
30
0.0
0
VERTEX
8
CUT_INNER
10
282.7833
20
139.7871
30
0.0
0
VERTEX
8
CUT_INNER
10
282.7833
20
143.8172
30
0.0
0
VERTEX
8
CUT_INNER
10
281.5892
20
146.8025
30
0.0
0
VERTEX
8
CUT_INNER
10
277.8576
20
150.2357
30
0.0
0
VERTEX
8
CUT_INNER
10
273.2304
20
151.4298
30
0.0
0
VERTEX
8
CUT_INNER
10
272.7826
20
152.0268
30
0.0
0
VERTEX
8
CUT_INNER
10
274.4245
20
152.7732
30
0.0
0
VERTEX
8
CUT_INNER
10
276.6635
20
152.7732
30
0.0
0
VERTEX
8
CUT_INNER
10
277.5591
20
153.6688
30
0.0
0
VERTEX
8
CUT_INNER
10
278.9024
20
153.0717
30
0.0
0
VERTEX
8
CUT_INNER
10
281.1414
20
153.5195
30
0.0
0
VERTEX
8
CUT_INNER
10
285.0223
20
152.6239
30
0.0
0
VERTEX
8
CUT_INNER
10
282.3356
20
156.2063
30
0.0
0
VERTEX
8
CUT_INNER
10
278.1561
20
157.9975
30
0.0
0
VERTEX
8
CUT_INNER
10
274.1260
20
157.6989
30
0.0
0
VERTEX
8
CUT_INNER
10
269.7973
20
155.3107
30
0.0
0
VERTEX
8
CUT_INNER
10
269.3495
20
155.6092
30
0.0
0
VERTEX
8
CUT_INNER
10
270.9914
20
158.4452
30
0.0
0
VERTEX
8
CUT_INNER
10
270.6929
20
159.3408
30
0.0
0
VERTEX
8
CUT_INNER
10
272.7826
20
161.1320
30
0.0
0
VERTEX
8
CUT_INNER
10
272.6333
20
161.8784
30
0.0
0
VERTEX
8
CUT_INNER
10
275.1708
20
163.8188
30
0.0
0
SEQEND
8
CUT_INNER
0
ENDSEC
0
EOF
