0
SECTION
2
HEADER
9
$ACADVER
1
AC1009
9
$INSUNITS
70
4
0
ENDSEC
0
SECTION
2
ENTITIES
0
POLYLINE
8
ALIGN
66
1
70
1
0
VERTEX
8
ALIGN
10
304.8000
20
152.4000
30
0.0
0
VERTEX
8
ALIGN
10
304.7942
20
151.0701
30
0.0
0
VERTEX
8
ALIGN
10
304.7768
20
149.7403
30
0.0
0
VERTEX
8
ALIGN
10
304.7478
20
148.4106
30
0.0
0
VERTEX
8
ALIGN
10
304.7072
20
147.0813
30
0.0
0
VERTEX
8
ALIGN
10
304.6549
20
145.7524
30
0.0
0
VERTEX
8
ALIGN
10
304.5911
20
144.4240
30
0.0
0
VERTEX
8
ALIGN
10
304.5157
20
143.0962
30
0.0
0
VERTEX
8
ALIGN
10
304.4288
20
141.7691
30
0.0
0
VERTEX
8
ALIGN
10
304.3302
20
140.4428
30
0.0
0
VERTEX
8
ALIGN
10
304.2201
20
139.1175
30
0.0
0
VERTEX
8
ALIGN
10
304.0984
20
137.7931
30
0.0
0
VERTEX
8
ALIGN
10
303.9651
20
136.4699
30
0.0
0
VERTEX
8
ALIGN
10
303.8204
20
135.1478
30
0.0
0
VERTEX
8
ALIGN
10
303.6640
20
133.8271
30
0.0
0
VERTEX
8
ALIGN
10
303.4962
20
132.5078
30
0.0
0
VERTEX
8
ALIGN
10
303.3169
20
131.1900
30
0.0
0
VERTEX
8
ALIGN
10
303.1260
20
129.8738
30
0.0
0
VERTEX
8
ALIGN
10
302.9237
20
128.5594
30
0.0
0
VERTEX
8
ALIGN
10
302.7099
20
127.2467
30
0.0
0
VERTEX
8
ALIGN
10
302.4847
20
125.9360
30
0.0
0
VERTEX
8
ALIGN
10
302.2480
20
124.6273
30
0.0
0
VERTEX
8
ALIGN
10
302.0000
20
123.3207
30
0.0
0
VERTEX
8
ALIGN
10
301.7405
20
122.0163
30
0.0
0
VERTEX
8
ALIGN
10
301.4697
20
120.7143
30
0.0
0
VERTEX
8
ALIGN
10
301.1875
20
119.4146
30
0.0
0
VERTEX
8
ALIGN
10
300.8940
20
118.1175
30
0.0
0
VERTEX
8
ALIGN
10
300.5892
20
116.8229
30
0.0
0
VERTEX
8
ALIGN
10
300.2731
20
115.5311
30
0.0
0
VERTEX
8
ALIGN
10
299.9457
20
114.2421
30
0.0
0
VERTEX
8
ALIGN
10
299.6071
20
112.9560
30
0.0
0
VERTEX
8
ALIGN
10
299.2573
20
111.6729
30
0.0
0
VERTEX
8
ALIGN
10
298.8963
20
110.3929
30
0.0
0
VERTEX
8
ALIGN
10
298.5241
20
109.1161
30
0.0
0
VERTEX
8
ALIGN
10
298.1408
20
107.8426
30
0.0
0
VERTEX
8
ALIGN
10
297.7465
20
106.5724
30
0.0
0
VERTEX
8
ALIGN
10
297.3410
20
105.3058
30
0.0
0
VERTEX
8
ALIGN
10
296.9245
20
104.0428
30
0.0
0
VERTEX
8
ALIGN
10
296.4970
20
102.7834
30
0.0
0
VERTEX
8
ALIGN
10
296.0586
20
101.5278
30
0.0
0
VERTEX
8
ALIGN
10
295.6092
20
100.2761
30
0.0
0
VERTEX
8
ALIGN
10
295.1488
20
99.0284
30
0.0
0
VERTEX
8
ALIGN
10
294.6777
20
97.7847
30
0.0
0
VERTEX
8
ALIGN
10
294.1956
20
96.5452
30
0.0
0
VERTEX
8
ALIGN
10
293.7028
20
95.3100
30
0.0
0
VERTEX
8
ALIGN
10
293.1992
20
94.0790
30
0.0
0
VERTEX
8
ALIGN
10
292.6849
20
92.8526
30
0.0
0
VERTEX
8
ALIGN
10
292.1600
20
91.6306
30
0.0
0
VERTEX
8
ALIGN
10
291.6243
20
90.4133
30
0.0
0
VERTEX
8
ALIGN
10
291.0781
20
89.2007
30
0.0
0
VERTEX
8
ALIGN
10
290.5213
20
87.9930
30
0.0
0
VERTEX
8
ALIGN
10
289.9540
20
86.7901
30
0.0
0
VERTEX
8
ALIGN
10
289.3762
20
85.5922
30
0.0
0
VERTEX
8
ALIGN
10
288.7880
20
84.3995
30
0.0
0
VERTEX
8
ALIGN
10
288.1894
20
83.2118
30
0.0
0
VERTEX
8
ALIGN
10
287.5805
20
82.0295
30
0.0
0
VERTEX
8
ALIGN
10
286.9612
20
80.8525
30
0.0
0
VERTEX
8
ALIGN
10
286.3317
20
79.6810
30
0.0
0
VERTEX
8
ALIGN
10
285.6920
20
78.5150
30
0.0
0
VERTEX
8
ALIGN
10
285.0422
20
77.3546
30
0.0
0
VERTEX
8
ALIGN
10
284.3823
20
76.2000
30
0.0
0
VERTEX
8
ALIGN
10
283.7123
20
75.0512
30
0.0
0
VERTEX
8
ALIGN
10
283.0323
20
73.9082
30
0.0
0
VERTEX
8
ALIGN
10
282.3424
20
72.7712
30
0.0
0
VERTEX
8
ALIGN
10
281.6425
20
71.6403
30
0.0
0
VERTEX
8
ALIGN
10
280.9329
20
70.5155
30
0.0
0
VERTEX
8
ALIGN
10
280.2134
20
69.3970
30
0.0
0
VERTEX
8
ALIGN
10
279.4842
20
68.2848
30
0.0
0
VERTEX
8
ALIGN
10
278.7453
20
67.1790
30
0.0
0
VERTEX
8
ALIGN
10
277.9968
20
66.0797
30
0.0
0
VERTEX
8
ALIGN
10
277.2388
20
64.9870
30
0.0
0
VERTEX
8
ALIGN
10
276.4712
20
63.9009
30
0.0
0
VERTEX
8
ALIGN
10
275.6942
20
62.8215
30
0.0
0
VERTEX
8
ALIGN
10
274.9078
20
61.7490
30
0.0
0
VERTEX
8
ALIGN
10
274.1121
20
60.6834
30
0.0
0
VERTEX
8
ALIGN
10
273.3070
20
59.6248
30
0.0
0
VERTEX
8
ALIGN
10
272.4928
20
58.5732
30
0.0
0
VERTEX
8
ALIGN
10
271.6695
20
57.5288
30
0.0
0
VERTEX
8
ALIGN
10
270.8370
20
56.4916
30
0.0
0
VERTEX
8
ALIGN
10
269.9956
20
55.4617
30
0.0
0
VERTEX
8
ALIGN
10
269.1452
20
54.4392
30
0.0
0
VERTEX
8
ALIGN
10
268.2859
20
53.4241
30
0.0
0
VERTEX
8
ALIGN
10
267.4177
20
52.4166
30
0.0
0
VERTEX
8
ALIGN
10
266.5409
20
51.4167
30
0.0
0
VERTEX
8
ALIGN
10
265.6553
20
50.4245
30
0.0
0
VERTEX
8
ALIGN
10
264.7611
20
49.4401
30
0.0
0
VERTEX
8
ALIGN
10
263.8583
20
48.4634
30
0.0
0
VERTEX
8
ALIGN
10
262.9471
20
47.4948
30
0.0
0
VERTEX
8
ALIGN
10
262.0274
20
46.5341
30
0.0
0
VERTEX
8
ALIGN
10
261.0994
20
45.5814
30
0.0
0
VERTEX
8
ALIGN
10
260.1631
20
44.6369
30
0.0
0
VERTEX
8
ALIGN
10
259.2186
20
43.7006
30
0.0
0
VERTEX
8
ALIGN
10
258.2659
20
42.7726
30
0.0
0
VERTEX
8
ALIGN
10
257.3052
20
41.8529
30
0.0
0
VERTEX
8
ALIGN
10
256.3366
20
40.9417
30
0.0
0
VERTEX
8
ALIGN
10
255.3599
20
40.0389
30
0.0
0
VERTEX
8
ALIGN
10
254.3755
20
39.1447
30
0.0
0
VERTEX
8
ALIGN
10
253.3833
20
38.2591
30
0.0
0
VERTEX
8
ALIGN
10
252.3834
20
37.3823
30
0.0
0
VERTEX
8
ALIGN
10
251.3759
20
36.5141
30
0.0
0
VERTEX
8
ALIGN
10
250.3608
20
35.6548
30
0.0
0
VERTEX
8
ALIGN
10
249.3383
20
34.8044
30
0.0
0
VERTEX
8
ALIGN
10
248.3084
20
33.9630
30
0.0
0
VERTEX
8
ALIGN
10
247.2712
20
33.1305
30
0.0
0
VERTEX
8
ALIGN
10
246.2268
20
32.3072
30
0.0
0
VERTEX
8
ALIGN
10
245.1752
20
31.4930
30
0.0
0
VERTEX
8
ALIGN
10
244.1166
20
30.6879
30
0.0
0
VERTEX
8
ALIGN
10
243.0510
20
29.8922
30
0.0
0
VERTEX
8
ALIGN
10
241.9785
20
29.1058
30
0.0
0
VERTEX
8
ALIGN
10
240.8991
20
28.3288
30
0.0
0
VERTEX
8
ALIGN
10
239.8130
20
27.5612
30
0.0
0
VERTEX
8
ALIGN
10
238.7203
20
26.8032
30
0.0
0
VERTEX
8
ALIGN
10
237.6210
20
26.0547
30
0.0
0
VERTEX
8
ALIGN
10
236.5152
20
25.3158
30
0.0
0
VERTEX
8
ALIGN
10
235.4030
20
24.5866
30
0.0
0
VERTEX
8
ALIGN
10
234.2845
20
23.8671
30
0.0
0
VERTEX
8
ALIGN
10
233.1597
20
23.1575
30
0.0
0
VERTEX
8
ALIGN
10
232.0288
20
22.4576
30
0.0
0
VERTEX
8
ALIGN
10
230.8918
20
21.7677
30
0.0
0
VERTEX
8
ALIGN
10
229.7488
20
21.0877
30
0.0
0
VERTEX
8
ALIGN
10
228.6000
20
20.4177
30
0.0
0
VERTEX
8
ALIGN
10
227.4454
20
19.7578
30
0.0
0
VERTEX
8
ALIGN
10
226.2850
20
19.1080
30
0.0
0
VERTEX
8
ALIGN
10
225.1190
20
18.4683
30
0.0
0
VERTEX
8
ALIGN
10
223.9475
20
17.8388
30
0.0
0
VERTEX
8
ALIGN
10
222.7705
20
17.2195
30
0.0
0
VERTEX
8
ALIGN
10
221.5882
20
16.6106
30
0.0
0
VERTEX
8
ALIGN
10
220.4005
20
16.0120
30
0.0
0
VERTEX
8
ALIGN
10
219.2078
20
15.4238
30
0.0
0
VERTEX
8
ALIGN
10
218.0099
20
14.8460
30
0.0
0
VERTEX
8
ALIGN
10
216.8070
20
14.2787
30
0.0
0
VERTEX
8
ALIGN
10
215.5993
20
13.7219
30
0.0
0
VERTEX
8
ALIGN
10
214.3867
20
13.1757
30
0.0
0
VERTEX
8
ALIGN
10
213.1694
20
12.6400
30
0.0
0
VERTEX
8
ALIGN
10
211.9474
20
12.1151
30
0.0
0
VERTEX
8
ALIGN
10
210.7210
20
11.6008
30
0.0
0
VERTEX
8
ALIGN
10
209.4900
20
11.0972
30
0.0
0
VERTEX
8
ALIGN
10
208.2548
20
10.6044
30
0.0
0
VERTEX
8
ALIGN
10
207.0153
20
10.1223
30
0.0
0
VERTEX
8
ALIGN
10
205.7716
20
9.6512
30
0.0
0
VERTEX
8
ALIGN
10
204.5239
20
9.1908
30
0.0
0
VERTEX
8
ALIGN
10
203.2722
20
8.7414
30
0.0
0
VERTEX
8
ALIGN
10
202.0166
20
8.3030
30
0.0
0
VERTEX
8
ALIGN
10
200.7572
20
7.8755
30
0.0
0
VERTEX
8
ALIGN
10
199.4942
20
7.4590
30
0.0
0
VERTEX
8
ALIGN
10
198.2276
20
7.0535
30
0.0
0
VERTEX
8
ALIGN
10
196.9574
20
6.6592
30
0.0
0
VERTEX
8
ALIGN
10
195.6839
20
6.2759
30
0.0
0
VERTEX
8
ALIGN
10
194.4071
20
5.9037
30
0.0
0
VERTEX
8
ALIGN
10
193.1271
20
5.5427
30
0.0
0
VERTEX
8
ALIGN
10
191.8440
20
5.1929
30
0.0
0
VERTEX
8
ALIGN
10
190.5579
20
4.8543
30
0.0
0
VERTEX
8
ALIGN
10
189.2689
20
4.5269
30
0.0
0
VERTEX
8
ALIGN
10
187.9771
20
4.2108
30
0.0
0
VERTEX
8
ALIGN
10
186.6825
20
3.9060
30
0.0
0
VERTEX
8
ALIGN
10
185.3854
20
3.6125
30
0.0
0
VERTEX
8
ALIGN
10
184.0857
20
3.3303
30
0.0
0
VERTEX
8
ALIGN
10
182.7837
20
3.0595
30
0.0
0
VERTEX
8
ALIGN
10
181.4793
20
2.8000
30
0.0
0
VERTEX
8
ALIGN
10
180.1727
20
2.5520
30
0.0
0
VERTEX
8
ALIGN
10
178.8640
20
2.3153
30
0.0
0
VERTEX
8
ALIGN
10
177.5533
20
2.0901
30
0.0
0
VERTEX
8
ALIGN
10
176.2406
20
1.8763
30
0.0
0
VERTEX
8
ALIGN
10
174.9262
20
1.6740
30
0.0
0
VERTEX
8
ALIGN
10
173.6100
20
1.4831
30
0.0
0
VERTEX
8
ALIGN
10
172.2922
20
1.3038
30
0.0
0
VERTEX
8
ALIGN
10
170.9729
20
1.1360
30
0.0
0
VERTEX
8
ALIGN
10
169.6522
20
0.9796
30
0.0
0
VERTEX
8
ALIGN
10
168.3301
20
0.8349
30
0.0
0
VERTEX
8
ALIGN
10
167.0069
20
0.7016
30
0.0
0
VERTEX
8
ALIGN
10
165.6825
20
0.5799
30
0.0
0
VERTEX
8
ALIGN
10
164.3572
20
0.4698
30
0.0
0
VERTEX
8
ALIGN
10
163.0309
20
0.3712
30
0.0
0
VERTEX
8
ALIGN
10
161.7038
20
0.2843
30
0.0
0
VERTEX
8
ALIGN
10
160.3760
20
0.2089
30
0.0
0
VERTEX
8
ALIGN
10
159.0476
20
0.1451
30
0.0
0
VERTEX
8
ALIGN
10
157.7187
20
0.0928
30
0.0
0
VERTEX
8
ALIGN
10
156.3894
20
0.0522
30
0.0
0
VERTEX
8
ALIGN
10
155.0597
20
0.0232
30
0.0
0
VERTEX
8
ALIGN
10
153.7299
20
0.0058
30
0.0
0
VERTEX
8
ALIGN
10
152.4000
20
0.0000
30
0.0
0
VERTEX
8
ALIGN
10
151.0701
20
0.0058
30
0.0
0
VERTEX
8
ALIGN
10
149.7403
20
0.0232
30
0.0
0
VERTEX
8
ALIGN
10
148.4106
20
0.0522
30
0.0
0
VERTEX
8
ALIGN
10
147.0813
20
0.0928
30
0.0
0
VERTEX
8
ALIGN
10
145.7524
20
0.1451
30
0.0
0
VERTEX
8
ALIGN
10
144.4240
20
0.2089
30
0.0
0
VERTEX
8
ALIGN
10
143.0962
20
0.2843
30
0.0
0
VERTEX
8
ALIGN
10
141.7691
20
0.3712
30
0.0
0
VERTEX
8
ALIGN
10
140.4428
20
0.4698
30
0.0
0
VERTEX
8
ALIGN
10
139.1175
20
0.5799
30
0.0
0
VERTEX
8
ALIGN
10
137.7931
20
0.7016
30
0.0
0
VERTEX
8
ALIGN
10
136.4699
20
0.8349
30
0.0
0
VERTEX
8
ALIGN
10
135.1478
20
0.9796
30
0.0
0
VERTEX
8
ALIGN
10
133.8271
20
1.1360
30
0.0
0
VERTEX
8
ALIGN
10
132.5078
20
1.3038
30
0.0
0
VERTEX
8
ALIGN
10
131.1900
20
1.4831
30
0.0
0
VERTEX
8
ALIGN
10
129.8738
20
1.6740
30
0.0
0
VERTEX
8
ALIGN
10
128.5594
20
1.8763
30
0.0
0
VERTEX
8
ALIGN
10
127.2467
20
2.0901
30
0.0
0
VERTEX
8
ALIGN
10
125.9360
20
2.3153
30
0.0
0
VERTEX
8
ALIGN
10
124.6273
20
2.5520
30
0.0
0
VERTEX
8
ALIGN
10
123.3207
20
2.8000
30
0.0
0
VERTEX
8
ALIGN
10
122.0163
20
3.0595
30
0.0
0
VERTEX
8
ALIGN
10
120.7143
20
3.3303
30
0.0
0
VERTEX
8
ALIGN
10
119.4146
20
3.6125
30
0.0
0
VERTEX
8
ALIGN
10
118.1175
20
3.9060
30
0.0
0
VERTEX
8
ALIGN
10
116.8229
20
4.2108
30
0.0
0
VERTEX
8
ALIGN
10
115.5311
20
4.5269
30
0.0
0
VERTEX
8
ALIGN
10
114.2421
20
4.8543
30
0.0
0
VERTEX
8
ALIGN
10
112.9560
20
5.1929
30
0.0
0
VERTEX
8
ALIGN
10
111.6729
20
5.5427
30
0.0
0
VERTEX
8
ALIGN
10
110.3929
20
5.9037
30
0.0
0
VERTEX
8
ALIGN
10
109.1161
20
6.2759
30
0.0
0
VERTEX
8
ALIGN
10
107.8426
20
6.6592
30
0.0
0
VERTEX
8
ALIGN
10
106.5724
20
7.0535
30
0.0
0
VERTEX
8
ALIGN
10
105.3058
20
7.4590
30
0.0
0
VERTEX
8
ALIGN
10
104.0428
20
7.8755
30
0.0
0
VERTEX
8
ALIGN
10
102.7834
20
8.3030
30
0.0
0
VERTEX
8
ALIGN
10
101.5278
20
8.7414
30
0.0
0
VERTEX
8
ALIGN
10
100.2761
20
9.1908
30
0.0
0
VERTEX
8
ALIGN
10
99.0284
20
9.6512
30
0.0
0
VERTEX
8
ALIGN
10
97.7847
20
10.1223
30
0.0
0
VERTEX
8
ALIGN
10
96.5452
20
10.6044
30
0.0
0
VERTEX
8
ALIGN
10
95.3100
20
11.0972
30
0.0
0
VERTEX
8
ALIGN
10
94.0790
20
11.6008
30
0.0
0
VERTEX
8
ALIGN
10
92.8526
20
12.1151
30
0.0
0
VERTEX
8
ALIGN
10
91.6306
20
12.6400
30
0.0
0
VERTEX
8
ALIGN
10
90.4133
20
13.1757
30
0.0
0
VERTEX
8
ALIGN
10
89.2007
20
13.7219
30
0.0
0
VERTEX
8
ALIGN
10
87.9930
20
14.2787
30
0.0
0
VERTEX
8
ALIGN
10
86.7901
20
14.8460
30
0.0
0
VERTEX
8
ALIGN
10
85.5922
20
15.4238
30
0.0
0
VERTEX
8
ALIGN
10
84.3995
20
16.0120
30
0.0
0
VERTEX
8
ALIGN
10
83.2118
20
16.6106
30
0.0
0
VERTEX
8
ALIGN
10
82.0295
20
17.2195
30
0.0
0
VERTEX
8
ALIGN
10
80.8525
20
17.8388
30
0.0
0
VERTEX
8
ALIGN
10
79.6810
20
18.4683
30
0.0
0
VERTEX
8
ALIGN
10
78.5150
20
19.1080
30
0.0
0
VERTEX
8
ALIGN
10
77.3546
20
19.7578
30
0.0
0
VERTEX
8
ALIGN
10
76.2000
20
20.4177
30
0.0
0
VERTEX
8
ALIGN
10
75.0512
20
21.0877
30
0.0
0
VERTEX
8
ALIGN
10
73.9082
20
21.7677
30
0.0
0
VERTEX
8
ALIGN
10
72.7712
20
22.4576
30
0.0
0
VERTEX
8
ALIGN
10
71.6403
20
23.1575
30
0.0
0
VERTEX
8
ALIGN
10
70.5155
20
23.8671
30
0.0
0
VERTEX
8
ALIGN
10
69.3970
20
24.5866
30
0.0
0
VERTEX
8
ALIGN
10
68.2848
20
25.3158
30
0.0
0
VERTEX
8
ALIGN
10
67.1790
20
26.0547
30
0.0
0
VERTEX
8
ALIGN
10
66.0797
20
26.8032
30
0.0
0
VERTEX
8
ALIGN
10
64.9870
20
27.5612
30
0.0
0
VERTEX
8
ALIGN
10
63.9009
20
28.3288
30
0.0
0
VERTEX
8
ALIGN
10
62.8215
20
29.1058
30
0.0
0
VERTEX
8
ALIGN
10
61.7490
20
29.8922
30
0.0
0
VERTEX
8
ALIGN
10
60.6834
20
30.6879
30
0.0
0
VERTEX
8
ALIGN
10
59.6248
20
31.4930
30
0.0
0
VERTEX
8
ALIGN
10
58.5732
20
32.3072
30
0.0
0
VERTEX
8
ALIGN
10
57.5288
20
33.1305
30
0.0
0
VERTEX
8
ALIGN
10
56.4916
20
33.9630
30
0.0
0
VERTEX
8
ALIGN
10
55.4617
20
34.8044
30
0.0
0
VERTEX
8
ALIGN
10
54.4392
20
35.6548
30
0.0
0
VERTEX
8
ALIGN
10
53.4241
20
36.5141
30
0.0
0
VERTEX
8
ALIGN
10
52.4166
20
37.3823
30
0.0
0
VERTEX
8
ALIGN
10
51.4167
20
38.2591
30
0.0
0
VERTEX
8
ALIGN
10
50.4245
20
39.1447
30
0.0
0
VERTEX
8
ALIGN
10
49.4401
20
40.0389
30
0.0
0
VERTEX
8
ALIGN
10
48.4634
20
40.9417
30
0.0
0
VERTEX
8
ALIGN
10
47.4948
20
41.8529
30
0.0
0
VERTEX
8
ALIGN
10
46.5341
20
42.7726
30
0.0
0
VERTEX
8
ALIGN
10
45.5814
20
43.7006
30
0.0
0
VERTEX
8
ALIGN
10
44.6369
20
44.6369
30
0.0
0
VERTEX
8
ALIGN
10
43.7006
20
45.5814
30
0.0
0
VERTEX
8
ALIGN
10
42.7726
20
46.5341
30
0.0
0
VERTEX
8
ALIGN
10
41.8529
20
47.4948
30
0.0
0
VERTEX
8
ALIGN
10
40.9417
20
48.4634
30
0.0
0
VERTEX
8
ALIGN
10
40.0389
20
49.4401
30
0.0
0
VERTEX
8
ALIGN
10
39.1447
20
50.4245
30
0.0
0
VERTEX
8
ALIGN
10
38.2591
20
51.4167
30
0.0
0
VERTEX
8
ALIGN
10
37.3823
20
52.4166
30
0.0
0
VERTEX
8
ALIGN
10
36.5141
20
53.4241
30
0.0
0
VERTEX
8
ALIGN
10
35.6548
20
54.4392
30
0.0
0
VERTEX
8
ALIGN
10
34.8044
20
55.4617
30
0.0
0
VERTEX
8
ALIGN
10
33.9630
20
56.4916
30
0.0
0
VERTEX
8
ALIGN
10
33.1305
20
57.5288
30
0.0
0
VERTEX
8
ALIGN
10
32.3072
20
58.5732
30
0.0
0
VERTEX
8
ALIGN
10
31.4930
20
59.6248
30
0.0
0
VERTEX
8
ALIGN
10
30.6879
20
60.6834
30
0.0
0
VERTEX
8
ALIGN
10
29.8922
20
61.7490
30
0.0
0
VERTEX
8
ALIGN
10
29.1058
20
62.8215
30
0.0
0
VERTEX
8
ALIGN
10
28.3288
20
63.9009
30
0.0
0
VERTEX
8
ALIGN
10
27.5612
20
64.9870
30
0.0
0
VERTEX
8
ALIGN
10
26.8032
20
66.0797
30
0.0
0
VERTEX
8
ALIGN
10
26.0547
20
67.1790
30
0.0
0
VERTEX
8
ALIGN
10
25.3158
20
68.2848
30
0.0
0
VERTEX
8
ALIGN
10
24.5866
20
69.3970
30
0.0
0
VERTEX
8
ALIGN
10
23.8671
20
70.5155
30
0.0
0
VERTEX
8
ALIGN
10
23.1575
20
71.6403
30
0.0
0
VERTEX
8
ALIGN
10
22.4576
20
72.7712
30
0.0
0
VERTEX
8
ALIGN
10
21.7677
20
73.9082
30
0.0
0
VERTEX
8
ALIGN
10
21.0877
20
75.0512
30
0.0
0
VERTEX
8
ALIGN
10
20.4177
20
76.2000
30
0.0
0
VERTEX
8
ALIGN
10
19.7578
20
77.3546
30
0.0
0
VERTEX
8
ALIGN
10
19.1080
20
78.5150
30
0.0
0
VERTEX
8
ALIGN
10
18.4683
20
79.6810
30
0.0
0
VERTEX
8
ALIGN
10
17.8388
20
80.8525
30
0.0
0
VERTEX
8
ALIGN
10
17.2195
20
82.0295
30
0.0
0
VERTEX
8
ALIGN
10
16.6106
20
83.2118
30
0.0
0
VERTEX
8
ALIGN
10
16.0120
20
84.3995
30
0.0
0
VERTEX
8
ALIGN
10
15.4238
20
85.5922
30
0.0
0
VERTEX
8
ALIGN
10
14.8460
20
86.7901
30
0.0
0
VERTEX
8
ALIGN
10
14.2787
20
87.9930
30
0.0
0
VERTEX
8
ALIGN
10
13.7219
20
89.2007
30
0.0
0
VERTEX
8
ALIGN
10
13.1757
20
90.4133
30
0.0
0
VERTEX
8
ALIGN
10
12.6400
20
91.6306
30
0.0
0
VERTEX
8
ALIGN
10
12.1151
20
92.8526
30
0.0
0
VERTEX
8
ALIGN
10
11.6008
20
94.0790
30
0.0
0
VERTEX
8
ALIGN
10
11.0972
20
95.3100
30
0.0
0
VERTEX
8
ALIGN
10
10.6044
20
96.5452
30
0.0
0
VERTEX
8
ALIGN
10
10.1223
20
97.7847
30
0.0
0
VERTEX
8
ALIGN
10
9.6512
20
99.0284
30
0.0
0
VERTEX
8
ALIGN
10
9.1908
20
100.2761
30
0.0
0
VERTEX
8
ALIGN
10
8.7414
20
101.5278
30
0.0
0
VERTEX
8
ALIGN
10
8.3030
20
102.7834
30
0.0
0
VERTEX
8
ALIGN
10
7.8755
20
104.0428
30
0.0
0
VERTEX
8
ALIGN
10
7.4590
20
105.3058
30
0.0
0
VERTEX
8
ALIGN
10
7.0535
20
106.5724
30
0.0
0
VERTEX
8
ALIGN
10
6.6592
20
107.8426
30
0.0
0
VERTEX
8
ALIGN
10
6.2759
20
109.1161
30
0.0
0
VERTEX
8
ALIGN
10
5.9037
20
110.3929
30
0.0
0
VERTEX
8
ALIGN
10
5.5427
20
111.6729
30
0.0
0
VERTEX
8
ALIGN
10
5.1929
20
112.9560
30
0.0
0
VERTEX
8
ALIGN
10
4.8543
20
114.2421
30
0.0
0
VERTEX
8
ALIGN
10
4.5269
20
115.5311
30
0.0
0
VERTEX
8
ALIGN
10
4.2108
20
116.8229
30
0.0
0
VERTEX
8
ALIGN
10
3.9060
20
118.1175
30
0.0
0
VERTEX
8
ALIGN
10
3.6125
20
119.4146
30
0.0
0
VERTEX
8
ALIGN
10
3.3303
20
120.7143
30
0.0
0
VERTEX
8
ALIGN
10
3.0595
20
122.0163
30
0.0
0
VERTEX
8
ALIGN
10
2.8000
20
123.3207
30
0.0
0
VERTEX
8
ALIGN
10
2.5520
20
124.6273
30
0.0
0
VERTEX
8
ALIGN
10
2.3153
20
125.9360
30
0.0
0
VERTEX
8
ALIGN
10
2.0901
20
127.2467
30
0.0
0
VERTEX
8
ALIGN
10
1.8763
20
128.5594
30
0.0
0
VERTEX
8
ALIGN
10
1.6740
20
129.8738
30
0.0
0
VERTEX
8
ALIGN
10
1.4831
20
131.1900
30
0.0
0
VERTEX
8
ALIGN
10
1.3038
20
132.5078
30
0.0
0
VERTEX
8
ALIGN
10
1.1360
20
133.8271
30
0.0
0
VERTEX
8
ALIGN
10
0.9796
20
135.1478
30
0.0
0
VERTEX
8
ALIGN
10
0.8349
20
136.4699
30
0.0
0
VERTEX
8
ALIGN
10
0.7016
20
137.7931
30
0.0
0
VERTEX
8
ALIGN
10
0.5799
20
139.1175
30
0.0
0
VERTEX
8
ALIGN
10
0.4698
20
140.4428
30
0.0
0
VERTEX
8
ALIGN
10
0.3712
20
141.7691
30
0.0
0
VERTEX
8
ALIGN
10
0.2843
20
143.0962
30
0.0
0
VERTEX
8
ALIGN
10
0.2089
20
144.4240
30
0.0
0
VERTEX
8
ALIGN
10
0.1451
20
145.7524
30
0.0
0
VERTEX
8
ALIGN
10
0.0928
20
147.0813
30
0.0
0
VERTEX
8
ALIGN
10
0.0522
20
148.4106
30
0.0
0
VERTEX
8
ALIGN
10
0.0232
20
149.7403
30
0.0
0
VERTEX
8
ALIGN
10
0.0058
20
151.0701
30
0.0
0
VERTEX
8
ALIGN
10
0.0000
20
152.4000
30
0.0
0
VERTEX
8
ALIGN
10
0.0058
20
153.7299
30
0.0
0
VERTEX
8
ALIGN
10
0.0232
20
155.0597
30
0.0
0
VERTEX
8
ALIGN
10
0.0522
20
156.3894
30
0.0
0
VERTEX
8
ALIGN
10
0.0928
20
157.7187
30
0.0
0
VERTEX
8
ALIGN
10
0.1451
20
159.0476
30
0.0
0
VERTEX
8
ALIGN
10
0.2089
20
160.3760
30
0.0
0
VERTEX
8
ALIGN
10
0.2843
20
161.7038
30
0.0
0
VERTEX
8
ALIGN
10
0.3712
20
163.0309
30
0.0
0
VERTEX
8
ALIGN
10
0.4698
20
164.3572
30
0.0
0
VERTEX
8
ALIGN
10
0.5799
20
165.6825
30
0.0
0
VERTEX
8
ALIGN
10
0.7016
20
167.0069
30
0.0
0
VERTEX
8
ALIGN
10
0.8349
20
168.3301
30
0.0
0
VERTEX
8
ALIGN
10
0.9796
20
169.6522
30
0.0
0
VERTEX
8
ALIGN
10
1.1360
20
170.9729
30
0.0
0
VERTEX
8
ALIGN
10
1.3038
20
172.2922
30
0.0
0
VERTEX
8
ALIGN
10
1.4831
20
173.6100
30
0.0
0
VERTEX
8
ALIGN
10
1.6740
20
174.9262
30
0.0
0
VERTEX
8
ALIGN
10
1.8763
20
176.2406
30
0.0
0
VERTEX
8
ALIGN
10
2.0901
20
177.5533
30
0.0
0
VERTEX
8
ALIGN
10
2.3153
20
178.8640
30
0.0
0
VERTEX
8
ALIGN
10
2.5520
20
180.1727
30
0.0
0
VERTEX
8
ALIGN
10
2.8000
20
181.4793
30
0.0
0
VERTEX
8
ALIGN
10
3.0595
20
182.7837
30
0.0
0
VERTEX
8
ALIGN
10
3.3303
20
184.0857
30
0.0
0
VERTEX
8
ALIGN
10
3.6125
20
185.3854
30
0.0
0
VERTEX
8
ALIGN
10
3.9060
20
186.6825
30
0.0
0
VERTEX
8
ALIGN
10
4.2108
20
187.9771
30
0.0
0
VERTEX
8
ALIGN
10
4.5269
20
189.2689
30
0.0
0
VERTEX
8
ALIGN
10
4.8543
20
190.5579
30
0.0
0
VERTEX
8
ALIGN
10
5.1929
20
191.8440
30
0.0
0
VERTEX
8
ALIGN
10
5.5427
20
193.1271
30
0.0
0
VERTEX
8
ALIGN
10
5.9037
20
194.4071
30
0.0
0
VERTEX
8
ALIGN
10
6.2759
20
195.6839
30
0.0
0
VERTEX
8
ALIGN
10
6.6592
20
196.9574
30
0.0
0
VERTEX
8
ALIGN
10
7.0535
20
198.2276
30
0.0
0
VERTEX
8
ALIGN
10
7.4590
20
199.4942
30
0.0
0
VERTEX
8
ALIGN
10
7.8755
20
200.7572
30
0.0
0
VERTEX
8
ALIGN
10
8.3030
20
202.0166
30
0.0
0
VERTEX
8
ALIGN
10
8.7414
20
203.2722
30
0.0
0
VERTEX
8
ALIGN
10
9.1908
20
204.5239
30
0.0
0
VERTEX
8
ALIGN
10
9.6512
20
205.7716
30
0.0
0
VERTEX
8
ALIGN
10
10.1223
20
207.0153
30
0.0
0
VERTEX
8
ALIGN
10
10.6044
20
208.2548
30
0.0
0
VERTEX
8
ALIGN
10
11.0972
20
209.4900
30
0.0
0
VERTEX
8
ALIGN
10
11.6008
20
210.7210
30
0.0
0
VERTEX
8
ALIGN
10
12.1151
20
211.9474
30
0.0
0
VERTEX
8
ALIGN
10
12.6400
20
213.1694
30
0.0
0
VERTEX
8
ALIGN
10
13.1757
20
214.3867
30
0.0
0
VERTEX
8
ALIGN
10
13.7219
20
215.5993
30
0.0
0
VERTEX
8
ALIGN
10
14.2787
20
216.8070
30
0.0
0
VERTEX
8
ALIGN
10
14.8460
20
218.0099
30
0.0
0
VERTEX
8
ALIGN
10
15.4238
20
219.2078
30
0.0
0
VERTEX
8
ALIGN
10
16.0120
20
220.4005
30
0.0
0
VERTEX
8
ALIGN
10
16.6106
20
221.5882
30
0.0
0
VERTEX
8
ALIGN
10
17.2195
20
222.7705
30
0.0
0
VERTEX
8
ALIGN
10
17.8388
20
223.9475
30
0.0
0
VERTEX
8
ALIGN
10
18.4683
20
225.1190
30
0.0
0
VERTEX
8
ALIGN
10
19.1080
20
226.2850
30
0.0
0
VERTEX
8
ALIGN
10
19.7578
20
227.4454
30
0.0
0
VERTEX
8
ALIGN
10
20.4177
20
228.6000
30
0.0
0
VERTEX
8
ALIGN
10
21.0877
20
229.7488
30
0.0
0
VERTEX
8
ALIGN
10
21.7677
20
230.8918
30
0.0
0
VERTEX
8
ALIGN
10
22.4576
20
232.0288
30
0.0
0
VERTEX
8
ALIGN
10
23.1575
20
233.1597
30
0.0
0
VERTEX
8
ALIGN
10
23.8671
20
234.2845
30
0.0
0
VERTEX
8
ALIGN
10
24.5866
20
235.4030
30
0.0
0
VERTEX
8
ALIGN
10
25.3158
20
236.5152
30
0.0
0
VERTEX
8
ALIGN
10
26.0547
20
237.6210
30
0.0
0
VERTEX
8
ALIGN
10
26.8032
20
238.7203
30
0.0
0
VERTEX
8
ALIGN
10
27.5612
20
239.8130
30
0.0
0
VERTEX
8
ALIGN
10
28.3288
20
240.8991
30
0.0
0
VERTEX
8
ALIGN
10
29.1058
20
241.9785
30
0.0
0
VERTEX
8
ALIGN
10
29.8922
20
243.0510
30
0.0
0
VERTEX
8
ALIGN
10
30.6879
20
244.1166
30
0.0
0
VERTEX
8
ALIGN
10
31.4930
20
245.1752
30
0.0
0
VERTEX
8
ALIGN
10
32.3072
20
246.2268
30
0.0
0
VERTEX
8
ALIGN
10
33.1305
20
247.2712
30
0.0
0
VERTEX
8
ALIGN
10
33.9630
20
248.3084
30
0.0
0
VERTEX
8
ALIGN
10
34.8044
20
249.3383
30
0.0
0
VERTEX
8
ALIGN
10
35.6548
20
250.3608
30
0.0
0
VERTEX
8
ALIGN
10
36.5141
20
251.3759
30
0.0
0
VERTEX
8
ALIGN
10
37.3823
20
252.3834
30
0.0
0
VERTEX
8
ALIGN
10
38.2591
20
253.3833
30
0.0
0
VERTEX
8
ALIGN
10
39.1447
20
254.3755
30
0.0
0
VERTEX
8
ALIGN
10
40.0389
20
255.3599
30
0.0
0
VERTEX
8
ALIGN
10
40.9417
20
256.3366
30
0.0
0
VERTEX
8
ALIGN
10
41.8529
20
257.3052
30
0.0
0
VERTEX
8
ALIGN
10
42.7726
20
258.2659
30
0.0
0
VERTEX
8
ALIGN
10
43.7006
20
259.2186
30
0.0
0
VERTEX
8
ALIGN
10
44.6369
20
260.1631
30
0.0
0
VERTEX
8
ALIGN
10
45.5814
20
261.0994
30
0.0
0
VERTEX
8
ALIGN
10
46.5341
20
262.0274
30
0.0
0
VERTEX
8
ALIGN
10
47.4948
20
262.9471
30
0.0
0
VERTEX
8
ALIGN
10
48.4634
20
263.8583
30
0.0
0
VERTEX
8
ALIGN
10
49.4401
20
264.7611
30
0.0
0
VERTEX
8
ALIGN
10
50.4245
20
265.6553
30
0.0
0
VERTEX
8
ALIGN
10
51.4167
20
266.5409
30
0.0
0
VERTEX
8
ALIGN
10
52.4166
20
267.4177
30
0.0
0
VERTEX
8
ALIGN
10
53.4241
20
268.2859
30
0.0
0
VERTEX
8
ALIGN
10
54.4392
20
269.1452
30
0.0
0
VERTEX
8
ALIGN
10
55.4617
20
269.9956
30
0.0
0
VERTEX
8
ALIGN
10
56.4916
20
270.8370
30
0.0
0
VERTEX
8
ALIGN
10
57.5288
20
271.6695
30
0.0
0
VERTEX
8
ALIGN
10
58.5732
20
272.4928
30
0.0
0
VERTEX
8
ALIGN
10
59.6248
20
273.3070
30
0.0
0
VERTEX
8
ALIGN
10
60.6834
20
274.1121
30
0.0
0
VERTEX
8
ALIGN
10
61.7490
20
274.9078
30
0.0
0
VERTEX
8
ALIGN
10
62.8215
20
275.6942
30
0.0
0
VERTEX
8
ALIGN
10
63.9009
20
276.4712
30
0.0
0
VERTEX
8
ALIGN
10
64.9870
20
277.2388
30
0.0
0
VERTEX
8
ALIGN
10
66.0797
20
277.9968
30
0.0
0
VERTEX
8
ALIGN
10
67.1790
20
278.7453
30
0.0
0
VERTEX
8
ALIGN
10
68.2848
20
279.4842
30
0.0
0
VERTEX
8
ALIGN
10
69.3970
20
280.2134
30
0.0
0
VERTEX
8
ALIGN
10
70.5155
20
280.9329
30
0.0
0
VERTEX
8
ALIGN
10
71.6403
20
281.6425
30
0.0
0
VERTEX
8
ALIGN
10
72.7712
20
282.3424
30
0.0
0
VERTEX
8
ALIGN
10
73.9082
20
283.0323
30
0.0
0
VERTEX
8
ALIGN
10
75.0512
20
283.7123
30
0.0
0
VERTEX
8
ALIGN
10
76.2000
20
284.3823
30
0.0
0
VERTEX
8
ALIGN
10
77.3546
20
285.0422
30
0.0
0
VERTEX
8
ALIGN
10
78.5150
20
285.6920
30
0.0
0
VERTEX
8
ALIGN
10
79.6810
20
286.3317
30
0.0
0
VERTEX
8
ALIGN
10
80.8525
20
286.9612
30
0.0
0
VERTEX
8
ALIGN
10
82.0295
20
287.5805
30
0.0
0
VERTEX
8
ALIGN
10
83.2118
20
288.1894
30
0.0
0
VERTEX
8
ALIGN
10
84.3995
20
288.7880
30
0.0
0
VERTEX
8
ALIGN
10
85.5922
20
289.3762
30
0.0
0
VERTEX
8
ALIGN
10
86.7901
20
289.9540
30
0.0
0
VERTEX
8
ALIGN
10
87.9930
20
290.5213
30
0.0
0
VERTEX
8
ALIGN
10
89.2007
20
291.0781
30
0.0
0
VERTEX
8
ALIGN
10
90.4133
20
291.6243
30
0.0
0
VERTEX
8
ALIGN
10
91.6306
20
292.1600
30
0.0
0
VERTEX
8
ALIGN
10
92.8526
20
292.6849
30
0.0
0
VERTEX
8
ALIGN
10
94.0790
20
293.1992
30
0.0
0
VERTEX
8
ALIGN
10
95.3100
20
293.7028
30
0.0
0
VERTEX
8
ALIGN
10
96.5452
20
294.1956
30
0.0
0
VERTEX
8
ALIGN
10
97.7847
20
294.6777
30
0.0
0
VERTEX
8
ALIGN
10
99.0284
20
295.1488
30
0.0
0
VERTEX
8
ALIGN
10
100.2761
20
295.6092
30
0.0
0
VERTEX
8
ALIGN
10
101.5278
20
296.0586
30
0.0
0
VERTEX
8
ALIGN
10
102.7834
20
296.4970
30
0.0
0
VERTEX
8
ALIGN
10
104.0428
20
296.9245
30
0.0
0
VERTEX
8
ALIGN
10
105.3058
20
297.3410
30
0.0
0
VERTEX
8
ALIGN
10
106.5724
20
297.7465
30
0.0
0
VERTEX
8
ALIGN
10
107.8426
20
298.1408
30
0.0
0
VERTEX
8
ALIGN
10
109.1161
20
298.5241
30
0.0
0
VERTEX
8
ALIGN
10
110.3929
20
298.8963
30
0.0
0
VERTEX
8
ALIGN
10
111.6729
20
299.2573
30
0.0
0
VERTEX
8
ALIGN
10
112.9560
20
299.6071
30
0.0
0
VERTEX
8
ALIGN
10
114.2421
20
299.9457
30
0.0
0
VERTEX
8
ALIGN
10
115.5311
20
300.2731
30
0.0
0
VERTEX
8
ALIGN
10
116.8229
20
300.5892
30
0.0
0
VERTEX
8
ALIGN
10
118.1175
20
300.8940
30
0.0
0
VERTEX
8
ALIGN
10
119.4146
20
301.1875
30
0.0
0
VERTEX
8
ALIGN
10
120.7143
20
301.4697
30
0.0
0
VERTEX
8
ALIGN
10
122.0163
20
301.7405
30
0.0
0
VERTEX
8
ALIGN
10
123.3207
20
302.0000
30
0.0
0
VERTEX
8
ALIGN
10
124.6273
20
302.2480
30
0.0
0
VERTEX
8
ALIGN
10
125.9360
20
302.4847
30
0.0
0
VERTEX
8
ALIGN
10
127.2467
20
302.7099
30
0.0
0
VERTEX
8
ALIGN
10
128.5594
20
302.9237
30
0.0
0
VERTEX
8
ALIGN
10
129.8738
20
303.1260
30
0.0
0
VERTEX
8
ALIGN
10
131.1900
20
303.3169
30
0.0
0
VERTEX
8
ALIGN
10
132.5078
20
303.4962
30
0.0
0
VERTEX
8
ALIGN
10
133.8271
20
303.6640
30
0.0
0
VERTEX
8
ALIGN
10
135.1478
20
303.8204
30
0.0
0
VERTEX
8
ALIGN
10
136.4699
20
303.9651
30
0.0
0
VERTEX
8
ALIGN
10
137.7931
20
304.0984
30
0.0
0
VERTEX
8
ALIGN
10
139.1175
20
304.2201
30
0.0
0
VERTEX
8
ALIGN
10
140.4428
20
304.3302
30
0.0
0
VERTEX
8
ALIGN
10
141.7691
20
304.4288
30
0.0
0
VERTEX
8
ALIGN
10
143.0962
20
304.5157
30
0.0
0
VERTEX
8
ALIGN
10
144.4240
20
304.5911
30
0.0
0
VERTEX
8
ALIGN
10
145.7524
20
304.6549
30
0.0
0
VERTEX
8
ALIGN
10
147.0813
20
304.7072
30
0.0
0
VERTEX
8
ALIGN
10
148.4106
20
304.7478
30
0.0
0
VERTEX
8
ALIGN
10
149.7403
20
304.7768
30
0.0
0
VERTEX
8
ALIGN
10
151.0701
20
304.7942
30
0.0
0
VERTEX
8
ALIGN
10
152.4000
20
304.8000
30
0.0
0
VERTEX
8
ALIGN
10
153.7299
20
304.7942
30
0.0
0
VERTEX
8
ALIGN
10
155.0597
20
304.7768
30
0.0
0
VERTEX
8
ALIGN
10
156.3894
20
304.7478
30
0.0
0
VERTEX
8
ALIGN
10
157.7187
20
304.7072
30
0.0
0
VERTEX
8
ALIGN
10
159.0476
20
304.6549
30
0.0
0
VERTEX
8
ALIGN
10
160.3760
20
304.5911
30
0.0
0
VERTEX
8
ALIGN
10
161.7038
20
304.5157
30
0.0
0
VERTEX
8
ALIGN
10
163.0309
20
304.4288
30
0.0
0
VERTEX
8
ALIGN
10
164.3572
20
304.3302
30
0.0
0
VERTEX
8
ALIGN
10
165.6825
20
304.2201
30
0.0
0
VERTEX
8
ALIGN
10
167.0069
20
304.0984
30
0.0
0
VERTEX
8
ALIGN
10
168.3301
20
303.9651
30
0.0
0
VERTEX
8
ALIGN
10
169.6522
20
303.8204
30
0.0
0
VERTEX
8
ALIGN
10
170.9729
20
303.6640
30
0.0
0
VERTEX
8
ALIGN
10
172.2922
20
303.4962
30
0.0
0
VERTEX
8
ALIGN
10
173.6100
20
303.3169
30
0.0
0
VERTEX
8
ALIGN
10
174.9262
20
303.1260
30
0.0
0
VERTEX
8
ALIGN
10
176.2406
20
302.9237
30
0.0
0
VERTEX
8
ALIGN
10
177.5533
20
302.7099
30
0.0
0
VERTEX
8
ALIGN
10
178.8640
20
302.4847
30
0.0
0
VERTEX
8
ALIGN
10
180.1727
20
302.2480
30
0.0
0
VERTEX
8
ALIGN
10
181.4793
20
302.0000
30
0.0
0
VERTEX
8
ALIGN
10
182.7837
20
301.7405
30
0.0
0
VERTEX
8
ALIGN
10
184.0857
20
301.4697
30
0.0
0
VERTEX
8
ALIGN
10
185.3854
20
301.1875
30
0.0
0
VERTEX
8
ALIGN
10
186.6825
20
300.8940
30
0.0
0
VERTEX
8
ALIGN
10
187.9771
20
300.5892
30
0.0
0
VERTEX
8
ALIGN
10
189.2689
20
300.2731
30
0.0
0
VERTEX
8
ALIGN
10
190.5579
20
299.9457
30
0.0
0
VERTEX
8
ALIGN
10
191.8440
20
299.6071
30
0.0
0
VERTEX
8
ALIGN
10
193.1271
20
299.2573
30
0.0
0
VERTEX
8
ALIGN
10
194.4071
20
298.8963
30
0.0
0
VERTEX
8
ALIGN
10
195.6839
20
298.5241
30
0.0
0
VERTEX
8
ALIGN
10
196.9574
20
298.1408
30
0.0
0
VERTEX
8
ALIGN
10
198.2276
20
297.7465
30
0.0
0
VERTEX
8
ALIGN
10
199.4942
20
297.3410
30
0.0
0
VERTEX
8
ALIGN
10
200.7572
20
296.9245
30
0.0
0
VERTEX
8
ALIGN
10
202.0166
20
296.4970
30
0.0
0
VERTEX
8
ALIGN
10
203.2722
20
296.0586
30
0.0
0
VERTEX
8
ALIGN
10
204.5239
20
295.6092
30
0.0
0
VERTEX
8
ALIGN
10
205.7716
20
295.1488
30
0.0
0
VERTEX
8
ALIGN
10
207.0153
20
294.6777
30
0.0
0
VERTEX
8
ALIGN
10
208.2548
20
294.1956
30
0.0
0
VERTEX
8
ALIGN
10
209.4900
20
293.7028
30
0.0
0
VERTEX
8
ALIGN
10
210.7210
20
293.1992
30
0.0
0
VERTEX
8
ALIGN
10
211.9474
20
292.6849
30
0.0
0
VERTEX
8
ALIGN
10
213.1694
20
292.1600
30
0.0
0
VERTEX
8
ALIGN
10
214.3867
20
291.6243
30
0.0
0
VERTEX
8
ALIGN
10
215.5993
20
291.0781
30
0.0
0
VERTEX
8
ALIGN
10
216.8070
20
290.5213
30
0.0
0
VERTEX
8
ALIGN
10
218.0099
20
289.9540
30
0.0
0
VERTEX
8
ALIGN
10
219.2078
20
289.3762
30
0.0
0
VERTEX
8
ALIGN
10
220.4005
20
288.7880
30
0.0
0
VERTEX
8
ALIGN
10
221.5882
20
288.1894
30
0.0
0
VERTEX
8
ALIGN
10
222.7705
20
287.5805
30
0.0
0
VERTEX
8
ALIGN
10
223.9475
20
286.9612
30
0.0
0
VERTEX
8
ALIGN
10
225.1190
20
286.3317
30
0.0
0
VERTEX
8
ALIGN
10
226.2850
20
285.6920
30
0.0
0
VERTEX
8
ALIGN
10
227.4454
20
285.0422
30
0.0
0
VERTEX
8
ALIGN
10
228.6000
20
284.3823
30
0.0
0
VERTEX
8
ALIGN
10
229.7488
20
283.7123
30
0.0
0
VERTEX
8
ALIGN
10
230.8918
20
283.0323
30
0.0
0
VERTEX
8
ALIGN
10
232.0288
20
282.3424
30
0.0
0
VERTEX
8
ALIGN
10
233.1597
20
281.6425
30
0.0
0
VERTEX
8
ALIGN
10
234.2845
20
280.9329
30
0.0
0
VERTEX
8
ALIGN
10
235.4030
20
280.2134
30
0.0
0
VERTEX
8
ALIGN
10
236.5152
20
279.4842
30
0.0
0
VERTEX
8
ALIGN
10
237.6210
20
278.7453
30
0.0
0
VERTEX
8
ALIGN
10
238.7203
20
277.9968
30
0.0
0
VERTEX
8
ALIGN
10
239.8130
20
277.2388
30
0.0
0
VERTEX
8
ALIGN
10
240.8991
20
276.4712
30
0.0
0
VERTEX
8
ALIGN
10
241.9785
20
275.6942
30
0.0
0
VERTEX
8
ALIGN
10
243.0510
20
274.9078
30
0.0
0
VERTEX
8
ALIGN
10
244.1166
20
274.1121
30
0.0
0
VERTEX
8
ALIGN
10
245.1752
20
273.3070
30
0.0
0
VERTEX
8
ALIGN
10
246.2268
20
272.4928
30
0.0
0
VERTEX
8
ALIGN
10
247.2712
20
271.6695
30
0.0
0
VERTEX
8
ALIGN
10
248.3084
20
270.8370
30
0.0
0
VERTEX
8
ALIGN
10
249.3383
20
269.9956
30
0.0
0
VERTEX
8
ALIGN
10
250.3608
20
269.1452
30
0.0
0
VERTEX
8
ALIGN
10
251.3759
20
268.2859
30
0.0
0
VERTEX
8
ALIGN
10
252.3834
20
267.4177
30
0.0
0
VERTEX
8
ALIGN
10
253.3833
20
266.5409
30
0.0
0
VERTEX
8
ALIGN
10
254.3755
20
265.6553
30
0.0
0
VERTEX
8
ALIGN
10
255.3599
20
264.7611
30
0.0
0
VERTEX
8
ALIGN
10
256.3366
20
263.8583
30
0.0
0
VERTEX
8
ALIGN
10
257.3052
20
262.9471
30
0.0
0
VERTEX
8
ALIGN
10
258.2659
20
262.0274
30
0.0
0
VERTEX
8
ALIGN
10
259.2186
20
261.0994
30
0.0
0
VERTEX
8
ALIGN
10
260.1631
20
260.1631
30
0.0
0
VERTEX
8
ALIGN
10
261.0994
20
259.2186
30
0.0
0
VERTEX
8
ALIGN
10
262.0274
20
258.2659
30
0.0
0
VERTEX
8
ALIGN
10
262.9471
20
257.3052
30
0.0
0
VERTEX
8
ALIGN
10
263.8583
20
256.3366
30
0.0
0
VERTEX
8
ALIGN
10
264.7611
20
255.3599
30
0.0
0
VERTEX
8
ALIGN
10
265.6553
20
254.3755
30
0.0
0
VERTEX
8
ALIGN
10
266.5409
20
253.3833
30
0.0
0
VERTEX
8
ALIGN
10
267.4177
20
252.3834
30
0.0
0
VERTEX
8
ALIGN
10
268.2859
20
251.3759
30
0.0
0
VERTEX
8
ALIGN
10
269.1452
20
250.3608
30
0.0
0
VERTEX
8
ALIGN
10
269.9956
20
249.3383
30
0.0
0
VERTEX
8
ALIGN
10
270.8370
20
248.3084
30
0.0
0
VERTEX
8
ALIGN
10
271.6695
20
247.2712
30
0.0
0
VERTEX
8
ALIGN
10
272.4928
20
246.2268
30
0.0
0
VERTEX
8
ALIGN
10
273.3070
20
245.1752
30
0.0
0
VERTEX
8
ALIGN
10
274.1121
20
244.1166
30
0.0
0
VERTEX
8
ALIGN
10
274.9078
20
243.0510
30
0.0
0
VERTEX
8
ALIGN
10
275.6942
20
241.9785
30
0.0
0
VERTEX
8
ALIGN
10
276.4712
20
240.8991
30
0.0
0
VERTEX
8
ALIGN
10
277.2388
20
239.8130
30
0.0
0
VERTEX
8
ALIGN
10
277.9968
20
238.7203
30
0.0
0
VERTEX
8
ALIGN
10
278.7453
20
237.6210
30
0.0
0
VERTEX
8
ALIGN
10
279.4842
20
236.5152
30
0.0
0
VERTEX
8
ALIGN
10
280.2134
20
235.4030
30
0.0
0
VERTEX
8
ALIGN
10
280.9329
20
234.2845
30
0.0
0
VERTEX
8
ALIGN
10
281.6425
20
233.1597
30
0.0
0
VERTEX
8
ALIGN
10
282.3424
20
232.0288
30
0.0
0
VERTEX
8
ALIGN
10
283.0323
20
230.8918
30
0.0
0
VERTEX
8
ALIGN
10
283.7123
20
229.7488
30
0.0
0
VERTEX
8
ALIGN
10
284.3823
20
228.6000
30
0.0
0
VERTEX
8
ALIGN
10
285.0422
20
227.4454
30
0.0
0
VERTEX
8
ALIGN
10
285.6920
20
226.2850
30
0.0
0
VERTEX
8
ALIGN
10
286.3317
20
225.1190
30
0.0
0
VERTEX
8
ALIGN
10
286.9612
20
223.9475
30
0.0
0
VERTEX
8
ALIGN
10
287.5805
20
222.7705
30
0.0
0
VERTEX
8
ALIGN
10
288.1894
20
221.5882
30
0.0
0
VERTEX
8
ALIGN
10
288.7880
20
220.4005
30
0.0
0
VERTEX
8
ALIGN
10
289.3762
20
219.2078
30
0.0
0
VERTEX
8
ALIGN
10
289.9540
20
218.0099
30
0.0
0
VERTEX
8
ALIGN
10
290.5213
20
216.8070
30
0.0
0
VERTEX
8
ALIGN
10
291.0781
20
215.5993
30
0.0
0
VERTEX
8
ALIGN
10
291.6243
20
214.3867
30
0.0
0
VERTEX
8
ALIGN
10
292.1600
20
213.1694
30
0.0
0
VERTEX
8
ALIGN
10
292.6849
20
211.9474
30
0.0
0
VERTEX
8
ALIGN
10
293.1992
20
210.7210
30
0.0
0
VERTEX
8
ALIGN
10
293.7028
20
209.4900
30
0.0
0
VERTEX
8
ALIGN
10
294.1956
20
208.2548
30
0.0
0
VERTEX
8
ALIGN
10
294.6777
20
207.0153
30
0.0
0
VERTEX
8
ALIGN
10
295.1488
20
205.7716
30
0.0
0
VERTEX
8
ALIGN
10
295.6092
20
204.5239
30
0.0
0
VERTEX
8
ALIGN
10
296.0586
20
203.2722
30
0.0
0
VERTEX
8
ALIGN
10
296.4970
20
202.0166
30
0.0
0
VERTEX
8
ALIGN
10
296.9245
20
200.7572
30
0.0
0
VERTEX
8
ALIGN
10
297.3410
20
199.4942
30
0.0
0
VERTEX
8
ALIGN
10
297.7465
20
198.2276
30
0.0
0
VERTEX
8
ALIGN
10
298.1408
20
196.9574
30
0.0
0
VERTEX
8
ALIGN
10
298.5241
20
195.6839
30
0.0
0
VERTEX
8
ALIGN
10
298.8963
20
194.4071
30
0.0
0
VERTEX
8
ALIGN
10
299.2573
20
193.1271
30
0.0
0
VERTEX
8
ALIGN
10
299.6071
20
191.8440
30
0.0
0
VERTEX
8
ALIGN
10
299.9457
20
190.5579
30
0.0
0
VERTEX
8
ALIGN
10
300.2731
20
189.2689
30
0.0
0
VERTEX
8
ALIGN
10
300.5892
20
187.9771
30
0.0
0
VERTEX
8
ALIGN
10
300.8940
20
186.6825
30
0.0
0
VERTEX
8
ALIGN
10
301.1875
20
185.3854
30
0.0
0
VERTEX
8
ALIGN
10
301.4697
20
184.0857
30
0.0
0
VERTEX
8
ALIGN
10
301.7405
20
182.7837
30
0.0
0
VERTEX
8
ALIGN
10
302.0000
20
181.4793
30
0.0
0
VERTEX
8
ALIGN
10
302.2480
20
180.1727
30
0.0
0
VERTEX
8
ALIGN
10
302.4847
20
178.8640
30
0.0
0
VERTEX
8
ALIGN
10
302.7099
20
177.5533
30
0.0
0
VERTEX
8
ALIGN
10
302.9237
20
176.2406
30
0.0
0
VERTEX
8
ALIGN
10
303.1260
20
174.9262
30
0.0
0
VERTEX
8
ALIGN
10
303.3169
20
173.6100
30
0.0
0
VERTEX
8
ALIGN
10
303.4962
20
172.2922
30
0.0
0
VERTEX
8
ALIGN
10
303.6640
20
170.9729
30
0.0
0
VERTEX
8
ALIGN
10
303.8204
20
169.6522
30
0.0
0
VERTEX
8
ALIGN
10
303.9651
20
168.3301
30
0.0
0
VERTEX
8
ALIGN
10
304.0984
20
167.0069
30
0.0
0
VERTEX
8
ALIGN
10
304.2201
20
165.6825
30
0.0
0
VERTEX
8
ALIGN
10
304.3302
20
164.3572
30
0.0
0
VERTEX
8
ALIGN
10
304.4288
20
163.0309
30
0.0
0
VERTEX
8
ALIGN
10
304.5157
20
161.7038
30
0.0
0
VERTEX
8
ALIGN
10
304.5911
20
160.3760
30
0.0
0
VERTEX
8
ALIGN
10
304.6549
20
159.0476
30
0.0
0
VERTEX
8
ALIGN
10
304.7072
20
157.7187
30
0.0
0
VERTEX
8
ALIGN
10
304.7478
20
156.3894
30
0.0
0
VERTEX
8
ALIGN
10
304.7768
20
155.0597
30
0.0
0
VERTEX
8
ALIGN
10
304.7942
20
153.7299
30
0.0
0
SEQEND
8
ALIGN
0
POLYLINE
8
CUT_INNER
66
1
70
1
0
VERTEX
8
CUT_INNER
10
199.7918
20
110.2325
30
0.0
0
VERTEX
8
CUT_INNER
10
198.1499
20
108.8891
30
0.0
0
VERTEX
8
CUT_INNER
10
198.1499
20
106.9487
30
0.0
0
VERTEX
8
CUT_INNER
10
200.2396
20
105.6053
30
0.0
0
VERTEX
8
CUT_INNER
10
201.8815
20
106.9487
30
0.0
0
VERTEX
8
CUT_INNER
10
202.1800
20
107.9935
30
0.0
0
VERTEX
8
CUT_INNER
10
201.1352
20
109.9340
30
0.0
0
SEQEND
8
CUT_INNER
0
POLYLINE
8
CUT_INNER
66
1
70
1
0
VERTEX
8
CUT_INNER
10
158.8930
20
111.5759
30
0.0
0
VERTEX
8
CUT_INNER
10
157.2511
20
108.5906
30
0.0
0
VERTEX
8
CUT_INNER
10
155.1614
20
107.0979
30
0.0
0
VERTEX
8
CUT_INNER
10
155.6092
20
105.9038
30
0.0
0
VERTEX
8
CUT_INNER
10
159.4901
20
106.3516
30
0.0
0
VERTEX
8
CUT_INNER
10
159.4901
20
110.9788
30
0.0
0
SEQEND
8
CUT_INNER
0
POLYLINE
8
CUT_INNER
66
1
70
1
0
VERTEX
8
CUT_INNER
10
172.0284
20
111.7252
30
0.0
0
VERTEX
8
CUT_INNER
10
171.2821
20
110.9788
30
0.0
0
VERTEX
8
CUT_INNER
10
171.2821
20
106.3516
30
0.0
0
VERTEX
8
CUT_INNER
10
172.1777
20
105.9038
30
0.0
0
VERTEX
8
CUT_INNER
10
173.5211
20
106.5009
30
0.0
0
VERTEX
8
CUT_INNER
10
175.4615
20
105.6053
30
0.0
0
VERTEX
8
CUT_INNER
10
175.9093
20
106.7994
30
0.0
0
VERTEX
8
CUT_INNER
10
173.8196
20
108.2921
30
0.0
0
VERTEX
8
CUT_INNER
10
172.9240
20
110.9788
30
0.0
0
SEQEND
8
CUT_INNER
0
POLYLINE
8
CUT_INNER
66
1
70
1
0
VERTEX
8
CUT_INNER
10
112.4715
20
115.4568
30
0.0
0
VERTEX
8
CUT_INNER
10
112.1730
20
108.2921
30
0.0
0
VERTEX
8
CUT_INNER
10
110.6803
20
106.6501
30
0.0
0
VERTEX
8
CUT_INNER
10
111.4266
20
105.9038
30
0.0
0
VERTEX
8
CUT_INNER
10
114.5612
20
105.9038
30
0.0
0
VERTEX
8
CUT_INNER
10
115.0090
20
106.7994
30
0.0
0
VERTEX
8
CUT_INNER
10
113.5164
20
108.2921
30
0.0
0
VERTEX
8
CUT_INNER
10
113.5164
20
113.3671
30
0.0
0
SEQEND
8
CUT_INNER
0
POLYLINE
8
CUT_INNER
66
1
70
1
0
VERTEX
8
CUT_INNER
10
193.5226
20
121.2782
30
0.0
0
VERTEX
8
CUT_INNER
10
193.0748
20
120.0840
30
0.0
0
VERTEX
8
CUT_INNER
10
195.1645
20
116.0539
30
0.0
0
VERTEX
8
CUT_INNER
10
195.9109
20
120.2333
30
0.0
0
VERTEX
8
CUT_INNER
10
195.1645
20
121.2782
30
0.0
0
SEQEND
8
CUT_INNER
0
POLYLINE
8
CUT_INNER
66
1
70
1
0
VERTEX
8
CUT_INNER
10
188.4476
20
121.2782
30
0.0
0
VERTEX
8
CUT_INNER
10
187.9998
20
120.8304
30
0.0
0
VERTEX
8
CUT_INNER
10
187.9998
20
107.8443
30
0.0
0
VERTEX
8
CUT_INNER
10
186.5071
20
106.6501
30
0.0
0
VERTEX
8
CUT_INNER
10
187.2535
20
105.9038
30
0.0
0
VERTEX
8
CUT_INNER
10
193.0748
20
105.9038
30
0.0
0
VERTEX
8
CUT_INNER
10
193.5226
20
106.7994
30
0.0
0
VERTEX
8
CUT_INNER
10
192.3285
20
107.6950
30
0.0
0
VERTEX
8
CUT_INNER
10
192.0300
20
120.8304
30
0.0
0
SEQEND
8
CUT_INNER
0
POLYLINE
8
CUT_INNER
66
1
70
1
0
VERTEX
8
CUT_INNER
10
186.8057
20
121.2782
30
0.0
0
VERTEX
8
CUT_INNER
10
184.4174
20
120.8304
30
0.0
0
VERTEX
8
CUT_INNER
10
184.4174
20
116.5017
30
0.0
0
VERTEX
8
CUT_INNER
10
184.8652
20
116.0539
30
0.0
0
VERTEX
8
CUT_INNER
10
185.7608
20
116.5017
30
0.0
0
VERTEX
8
CUT_INNER
10
186.0594
20
118.2929
30
0.0
0
VERTEX
8
CUT_INNER
10
187.2535
20
120.0840
30
0.0
0
SEQEND
8
CUT_INNER
0
POLYLINE
8
CUT_INNER
66
1
70
1
0
VERTEX
8
CUT_INNER
10
162.4754
20
121.2782
30
0.0
0
VERTEX
8
CUT_INNER
10
162.0276
20
120.3826
30
0.0
0
VERTEX
8
CUT_INNER
10
163.2217
20
119.6362
30
0.0
0
VERTEX
8
CUT_INNER
10
163.2217
20
107.8443
30
0.0
0
VERTEX
8
CUT_INNER
10
162.0276
20
106.3516
30
0.0
0
VERTEX
8
CUT_INNER
10
162.4754
20
105.9038
30
0.0
0
VERTEX
8
CUT_INNER
10
167.9982
20
105.9038
30
0.0
0
VERTEX
8
CUT_INNER
10
168.4460
20
106.7994
30
0.0
0
VERTEX
8
CUT_INNER
10
167.2519
20
107.9935
30
0.0
0
VERTEX
8
CUT_INNER
10
167.2519
20
119.4870
30
0.0
0
VERTEX
8
CUT_INNER
10
168.4460
20
120.8304
30
0.0
0
VERTEX
8
CUT_INNER
10
167.9982
20
121.2782
30
0.0
0
SEQEND
8
CUT_INNER
0
POLYLINE
8
CUT_INNER
66
1
70
1
0
VERTEX
8
CUT_INNER
10
149.3401
20
121.2782
30
0.0
0
VERTEX
8
CUT_INNER
10
148.8923
20
120.6811
30
0.0
0
VERTEX
8
CUT_INNER
10
150.0864
20
119.6362
30
0.0
0
VERTEX
8
CUT_INNER
10
150.0864
20
107.6950
30
0.0
0
VERTEX
8
CUT_INNER
10
148.8923
20
106.3516
30
0.0
0
VERTEX
8
CUT_INNER
10
149.3401
20
105.9038
30
0.0
0
VERTEX
8
CUT_INNER
10
153.9673
20
105.9038
30
0.0
0
VERTEX
8
CUT_INNER
10
154.4151
20
106.3516
30
0.0
0
VERTEX
8
CUT_INNER
10
154.4151
20
119.6362
30
0.0
0
VERTEX
8
CUT_INNER
10
155.6092
20
120.8304
30
0.0
0
VERTEX
8
CUT_INNER
10
155.1614
20
121.2782
30
0.0
0
SEQEND
8
CUT_INNER
0
POLYLINE
8
CUT_INNER
66
1
70
1
0
VERTEX
8
CUT_INNER
10
140.5334
20
121.2782
30
0.0
0
VERTEX
8
CUT_INNER
10
136.3540
20
120.8304
30
0.0
0
VERTEX
8
CUT_INNER
10
137.8466
20
119.1884
30
0.0
0
VERTEX
8
CUT_INNER
10
136.5032
20
115.9046
30
0.0
0
VERTEX
8
CUT_INNER
10
137.2496
20
114.7105
30
0.0
0
VERTEX
8
CUT_INNER
10
139.1900
20
118.8899
30
0.0
0
VERTEX
8
CUT_INNER
10
140.9812
20
120.6811
30
0.0
0
SEQEND
8
CUT_INNER
0
POLYLINE
8
CUT_INNER
66
1
70
1
0
VERTEX
8
CUT_INNER
10
128.7414
20
121.2782
30
0.0
0
VERTEX
8
CUT_INNER
10
128.2936
20
120.6811
30
0.0
0
VERTEX
8
CUT_INNER
10
129.4878
20
119.4870
30
0.0
0
VERTEX
8
CUT_INNER
10
132.4731
20
112.3222
30
0.0
0
VERTEX
8
CUT_INNER
10
132.4731
20
107.8443
30
0.0
0
VERTEX
8
CUT_INNER
10
131.2789
20
106.3516
30
0.0
0
VERTEX
8
CUT_INNER
10
131.7267
20
105.9038
30
0.0
0
VERTEX
8
CUT_INNER
10
137.5481
20
105.9038
30
0.0
0
VERTEX
8
CUT_INNER
10
137.9959
20
106.7994
30
0.0
0
VERTEX
8
CUT_INNER
10
136.8018
20
107.8443
30
0.0
0
VERTEX
8
CUT_INNER
10
136.8018
20
112.7700
30
0.0
0
VERTEX
8
CUT_INNER
10
134.1150
20
119.0392
30
0.0
0
VERTEX
8
CUT_INNER
10
135.0106
20
120.8304
30
0.0
0
VERTEX
8
CUT_INNER
10
134.5628
20
121.2782
30
0.0
0
SEQEND
8
CUT_INNER
0
POLYLINE
8
CUT_INNER
66
1
70
1
0
VERTEX
8
CUT_INNER
10
120.9796
20
121.2782
30
0.0
0
VERTEX
8
CUT_INNER
10
120.5318
20
120.8304
30
0.0
0
VERTEX
8
CUT_INNER
10
120.5318
20
107.8443
30
0.0
0
VERTEX
8
CUT_INNER
10
119.3377
20
106.3516
30
0.0
0
VERTEX
8
CUT_INNER
10
119.7855
20
105.9038
30
0.0
0
VERTEX
8
CUT_INNER
10
125.6069
20
105.9038
30
0.0
0
VERTEX
8
CUT_INNER
10
126.0547
20
106.7994
30
0.0
0
VERTEX
8
CUT_INNER
10
124.8605
20
107.8443
30
0.0
0
VERTEX
8
CUT_INNER
10
124.8605
20
119.6362
30
0.0
0
VERTEX
8
CUT_INNER
10
126.0547
20
120.8304
30
0.0
0
VERTEX
8
CUT_INNER
10
125.6069
20
121.2782
30
0.0
0
SEQEND
8
CUT_INNER
0
POLYLINE
8
CUT_INNER
66
1
70
1
0
VERTEX
8
CUT_INNER
10
111.1281
20
121.2782
30
0.0
0
VERTEX
8
CUT_INNER
10
110.6803
20
120.6811
30
0.0
0
VERTEX
8
CUT_INNER
10
112.4715
20
119.1884
30
0.0
0
VERTEX
8
CUT_INNER
10
116.3524
20
106.9487
30
0.0
0
VERTEX
8
CUT_INNER
10
116.9495
20
106.5009
30
0.0
0
VERTEX
8
CUT_INNER
10
119.7855
20
114.4119
30
0.0
0
VERTEX
8
CUT_INNER
10
119.7855
20
116.9495
30
0.0
0
VERTEX
8
CUT_INNER
10
119.3377
20
117.2480
30
0.0
0
VERTEX
8
CUT_INNER
10
118.5914
20
115.9046
30
0.0
0
VERTEX
8
CUT_INNER
10
117.9943
20
116.3524
30
0.0
0
VERTEX
8
CUT_INNER
10
116.8002
20
120.5318
30
0.0
0
VERTEX
8
CUT_INNER
10
116.0539
20
121.2782
30
0.0
0
SEQEND
8
CUT_INNER
0
POLYLINE
8
CUT_INNER
66
1
70
1
0
VERTEX
8
CUT_INNER
10
177.7005
20
121.5767
30
0.0
0
VERTEX
8
CUT_INNER
10
176.9542
20
120.6811
30
0.0
0
VERTEX
8
CUT_INNER
10
179.0439
20
119.1884
30
0.0
0
VERTEX
8
CUT_INNER
10
179.9395
20
116.5017
30
0.0
0
VERTEX
8
CUT_INNER
10
180.8351
20
116.0539
30
0.0
0
VERTEX
8
CUT_INNER
10
181.2829
20
116.5017
30
0.0
0
VERTEX
8
CUT_INNER
10
181.2829
20
121.1289
30
0.0
0
VERTEX
8
CUT_INNER
10
180.3873
20
121.5767
30
0.0
0
VERTEX
8
CUT_INNER
10
179.0439
20
120.9796
30
0.0
0
SEQEND
8
CUT_INNER
0
POLYLINE
8
CUT_INNER
66
1
70
1
0
VERTEX
8
CUT_INNER
10
174.7152
20
121.5767
30
0.0
0
VERTEX
8
CUT_INNER
10
173.2225
20
120.6811
30
0.0
0
VERTEX
8
CUT_INNER
10
171.5806
20
118.4421
30
0.0
0
VERTEX
8
CUT_INNER
10
171.5806
20
115.0090
30
0.0
0
VERTEX
8
CUT_INNER
10
173.2225
20
112.7700
30
0.0
0
VERTEX
8
CUT_INNER
10
178.1483
20
109.9340
30
0.0
0
VERTEX
8
CUT_INNER
10
178.1483
20
107.9935
30
0.0
0
VERTEX
8
CUT_INNER
10
176.6556
20
106.7994
30
0.0
0
VERTEX
8
CUT_INNER
10
176.6556
20
106.0531
30
0.0
0
VERTEX
8
CUT_INNER
10
177.5512
20
105.6053
30
0.0
0
VERTEX
8
CUT_INNER
10
179.6409
20
106.5009
30
0.0
0
VERTEX
8
CUT_INNER
10
181.2829
20
108.1428
30
0.0
0
VERTEX
8
CUT_INNER
10
181.8799
20
111.8744
30
0.0
0
VERTEX
8
CUT_INNER
10
181.2829
20
113.3671
30
0.0
0
VERTEX
8
CUT_INNER
10
179.3424
20
115.3075
30
0.0
0
VERTEX
8
CUT_INNER
10
175.3122
20
117.3973
30
0.0
0
VERTEX
8
CUT_INNER
10
175.0137
20
119.4870
30
0.0
0
VERTEX
8
CUT_INNER
10
176.2078
20
121.1289
30
0.0
0
SEQEND
8
CUT_INNER
0
POLYLINE
8
CUT_INNER
66
1
70
1
0
VERTEX
8
CUT_INNER
10
177.1034
20
132.3238
30
0.0
0
VERTEX
8
CUT_INNER
10
176.6556
20
131.8760
30
0.0
0
VERTEX
8
CUT_INNER
10
176.6556
20
127.2488
30
0.0
0
VERTEX
8
CUT_INNER
10
177.4020
20
126.5024
30
0.0
0
VERTEX
8
CUT_INNER
10
178.1483
20
127.0995
30
0.0
0
VERTEX
8
CUT_INNER
10
180.8351
20
126.5024
30
0.0
0
VERTEX
8
CUT_INNER
10
181.2829
20
127.3980
30
0.0
0
VERTEX
8
CUT_INNER
10
178.8946
20
129.4878
30
0.0
0
VERTEX
8
CUT_INNER
10
178.2976
20
131.8760
30
0.0
0
SEQEND
8
CUT_INNER
0
POLYLINE
8
CUT_INNER
66
1
70
1
0
VERTEX
8
CUT_INNER
10
210.9867
20
137.5481
30
0.0
0
VERTEX
8
CUT_INNER
10
210.6881
20
129.4878
30
0.0
0
VERTEX
8
CUT_INNER
10
209.1955
20
127.2488
30
0.0
0
VERTEX
8
CUT_INNER
10
213.0764
20
126.8010
30
0.0
0
VERTEX
8
CUT_INNER
10
213.5242
20
127.3980
30
0.0
0
VERTEX
8
CUT_INNER
10
212.0315
20
128.8907
30
0.0
0
VERTEX
8
CUT_INNER
10
212.0315
20
136.0554
30
0.0
0
SEQEND
8
CUT_INNER
0
POLYLINE
8
CUT_INNER
66
1
70
1
0
VERTEX
8
CUT_INNER
10
218.3007
20
142.4738
30
0.0
0
VERTEX
8
CUT_INNER
10
217.8529
20
141.5783
30
0.0
0
VERTEX
8
CUT_INNER
10
219.3455
20
139.7871
30
0.0
0
VERTEX
8
CUT_INNER
10
219.0470
20
135.9062
30
0.0
0
VERTEX
8
CUT_INNER
10
220.3904
20
133.8165
30
0.0
0
VERTEX
8
CUT_INNER
10
220.6889
20
140.3841
30
0.0
0
VERTEX
8
CUT_INNER
10
222.1816
20
142.0261
30
0.0
0
SEQEND
8
CUT_INNER
0
POLYLINE
8
CUT_INNER
66
1
70
1
0
VERTEX
8
CUT_INNER
10
209.6433
20
142.4738
30
0.0
0
VERTEX
8
CUT_INNER
10
209.1955
20
141.8768
30
0.0
0
VERTEX
8
CUT_INNER
10
210.6881
20
140.6827
30
0.0
0
VERTEX
8
CUT_INNER
10
217.2558
20
127.5473
30
0.0
0
VERTEX
8
CUT_INNER
10
218.0022
20
126.8010
30
0.0
0
VERTEX
8
CUT_INNER
10
220.2411
20
126.8010
30
0.0
0
VERTEX
8
CUT_INNER
10
220.6889
20
130.9804
30
0.0
0
VERTEX
8
CUT_INNER
10
214.5690
20
142.4738
30
0.0
0
SEQEND
8
CUT_INNER
0
POLYLINE
8
CUT_INNER
66
1
70
1
0
VERTEX
8
CUT_INNER
10
165.4607
20
142.4738
30
0.0
0
VERTEX
8
CUT_INNER
10
165.0129
20
140.9812
30
0.0
0
VERTEX
8
CUT_INNER
10
165.9085
20
139.7871
30
0.0
0
VERTEX
8
CUT_INNER
10
166.2071
20
137.6974
30
0.0
0
VERTEX
8
CUT_INNER
10
167.1026
20
136.9510
30
0.0
0
VERTEX
8
CUT_INNER
10
167.8490
20
138.5929
30
0.0
0
VERTEX
8
CUT_INNER
10
167.5504
20
142.0261
30
0.0
0
SEQEND
8
CUT_INNER
0
POLYLINE
8
CUT_INNER
66
1
70
1
0
VERTEX
8
CUT_INNER
10
160.3857
20
142.4738
30
0.0
0
VERTEX
8
CUT_INNER
10
159.9379
20
142.0261
30
0.0
0
VERTEX
8
CUT_INNER
10
159.9379
20
128.4429
30
0.0
0
VERTEX
8
CUT_INNER
10
158.7438
20
127.2488
30
0.0
0
VERTEX
8
CUT_INNER
10
159.1916
20
126.8010
30
0.0
0
VERTEX
8
CUT_INNER
10
165.0129
20
126.8010
30
0.0
0
VERTEX
8
CUT_INNER
10
165.4607
20
127.6966
30
0.0
0
VERTEX
8
CUT_INNER
10
164.2666
20
128.4429
30
0.0
0
VERTEX
8
CUT_INNER
10
164.2666
20
142.0261
30
0.0
0
SEQEND
8
CUT_INNER
0
POLYLINE
8
CUT_INNER
66
1
70
1
0
VERTEX
8
CUT_INNER
10
158.7438
20
142.4738
30
0.0
0
VERTEX
8
CUT_INNER
10
156.3555
20
142.0261
30
0.0
0
VERTEX
8
CUT_INNER
10
156.3555
20
137.3988
30
0.0
0
VERTEX
8
CUT_INNER
10
156.8033
20
136.9510
30
0.0
0
VERTEX
8
CUT_INNER
10
157.6989
20
137.3988
30
0.0
0
VERTEX
8
CUT_INNER
10
157.9975
20
139.4885
30
0.0
0
VERTEX
8
CUT_INNER
10
159.1916
20
140.9812
30
0.0
0
SEQEND
8
CUT_INNER
0
POLYLINE
8
CUT_INNER
66
1
70
1
0
VERTEX
8
CUT_INNER
10
147.8474
20
142.4738
30
0.0
0
VERTEX
8
CUT_INNER
10
147.3996
20
141.8768
30
0.0
0
VERTEX
8
CUT_INNER
10
148.5937
20
140.8319
30
0.0
0
VERTEX
8
CUT_INNER
10
148.5937
20
128.4429
30
0.0
0
VERTEX
8
CUT_INNER
10
147.3996
20
127.2488
30
0.0
0
VERTEX
8
CUT_INNER
10
147.8474
20
126.8010
30
0.0
0
VERTEX
8
CUT_INNER
10
153.6688
20
126.8010
30
0.0
0
VERTEX
8
CUT_INNER
10
154.1166
20
127.3980
30
0.0
0
VERTEX
8
CUT_INNER
10
152.9224
20
128.4429
30
0.0
0
VERTEX
8
CUT_INNER
10
152.9224
20
140.8319
30
0.0
0
VERTEX
8
CUT_INNER
10
154.1166
20
142.0261
30
0.0
0
VERTEX
8
CUT_INNER
10
153.6688
20
142.4738
30
0.0
0
SEQEND
8
CUT_INNER
0
POLYLINE
8
CUT_INNER
66
1
70
1
0
VERTEX
8
CUT_INNER
10
136.8018
20
142.4738
30
0.0
0
VERTEX
8
CUT_INNER
10
136.3540
20
140.9812
30
0.0
0
VERTEX
8
CUT_INNER
10
137.2496
20
139.7871
30
0.0
0
VERTEX
8
CUT_INNER
10
137.5481
20
137.6974
30
0.0
0
VERTEX
8
CUT_INNER
10
138.4437
20
136.9510
30
0.0
0
VERTEX
8
CUT_INNER
10
138.8915
20
137.3988
30
0.0
0
VERTEX
8
CUT_INNER
10
138.8915
20
142.0261
30
0.0
0
SEQEND
8
CUT_INNER
0
POLYLINE
8
CUT_INNER
66
1
70
1
0
VERTEX
8
CUT_INNER
10
131.7267
20
142.4738
30
0.0
0
VERTEX
8
CUT_INNER
10
131.2789
20
142.0261
30
0.0
0
VERTEX
8
CUT_INNER
10
131.2789
20
128.4429
30
0.0
0
VERTEX
8
CUT_INNER
10
129.9356
20
127.3980
30
0.0
0
VERTEX
8
CUT_INNER
10
130.5326
20
126.8010
30
0.0
0
VERTEX
8
CUT_INNER
10
136.3540
20
126.8010
30
0.0
0
VERTEX
8
CUT_INNER
10
136.8018
20
127.3980
30
0.0
0
VERTEX
8
CUT_INNER
10
135.3091
20
128.5922
30
0.0
0
VERTEX
8
CUT_INNER
10
135.6076
20
141.4290
30
0.0
0
VERTEX
8
CUT_INNER
10
134.8613
20
142.4738
30
0.0
0
SEQEND
8
CUT_INNER
0
POLYLINE
8
CUT_INNER
66
1
70
1
0
VERTEX
8
CUT_INNER
10
130.0848
20
142.4738
30
0.0
0
VERTEX
8
CUT_INNER
10
127.6966
20
142.0261
30
0.0
0
VERTEX
8
CUT_INNER
10
127.6966
20
137.3988
30
0.0
0
VERTEX
8
CUT_INNER
10
128.1444
20
136.9510
30
0.0
0
VERTEX
8
CUT_INNER
10
129.0400
20
137.3988
30
0.0
0
VERTEX
8
CUT_INNER
10
129.3385
20
139.4885
30
0.0
0
VERTEX
8
CUT_INNER
10
130.5326
20
141.2797
30
0.0
0
SEQEND
8
CUT_INNER
0
POLYLINE
8
CUT_INNER
66
1
70
1
0
VERTEX
8
CUT_INNER
10
125.0098
20
142.4738
30
0.0
0
VERTEX
8
CUT_INNER
10
120.8304
20
142.0261
30
0.0
0
VERTEX
8
CUT_INNER
10
122.6215
20
139.7871
30
0.0
0
VERTEX
8
CUT_INNER
10
122.3230
20
129.7863
30
0.0
0
VERTEX
8
CUT_INNER
10
119.9348
20
127.6966
30
0.0
0
VERTEX
8
CUT_INNER
10
120.3826
20
126.5024
30
0.0
0
VERTEX
8
CUT_INNER
10
122.0245
20
127.0995
30
0.0
0
VERTEX
8
CUT_INNER
10
123.6664
20
129.6370
30
0.0
0
VERTEX
8
CUT_INNER
10
123.9649
20
140.3841
30
0.0
0
VERTEX
8
CUT_INNER
10
125.4576
20
141.8768
30
0.0
0
SEQEND
8
CUT_INNER
0
POLYLINE
8
CUT_INNER
66
1
70
1
0
VERTEX
8
CUT_INNER
10
112.9193
20
142.4738
30
0.0
0
VERTEX
8
CUT_INNER
10
112.4715
20
141.5783
30
0.0
0
VERTEX
8
CUT_INNER
10
113.3671
20
140.8319
30
0.0
0
VERTEX
8
CUT_INNER
10
113.6656
20
129.3385
30
0.0
0
VERTEX
8
CUT_INNER
10
115.9046
20
126.8010
30
0.0
0
VERTEX
8
CUT_INNER
10
118.4421
20
126.2039
30
0.0
0
VERTEX
8
CUT_INNER
10
118.8899
20
127.6966
30
0.0
0
VERTEX
8
CUT_INNER
10
117.6958
20
129.4878
30
0.0
0
VERTEX
8
CUT_INNER
10
117.6958
20
140.6827
30
0.0
0
VERTEX
8
CUT_INNER
10
118.8899
20
142.0261
30
0.0
0
VERTEX
8
CUT_INNER
10
118.4421
20
142.4738
30
0.0
0
SEQEND
8
CUT_INNER
0
POLYLINE
8
CUT_INNER
66
1
70
1
0
VERTEX
8
CUT_INNER
10
104.2619
20
142.4738
30
0.0
0
VERTEX
8
CUT_INNER
10
103.8141
20
141.5783
30
0.0
0
VERTEX
8
CUT_INNER
10
105.6053
20
140.0856
30
0.0
0
VERTEX
8
CUT_INNER
10
105.6053
20
136.9510
30
0.0
0
VERTEX
8
CUT_INNER
10
103.8141
20
135.1598
30
0.0
0
VERTEX
8
CUT_INNER
10
103.8141
20
134.4135
30
0.0
0
VERTEX
8
CUT_INNER
10
105.6053
20
133.2194
30
0.0
0
VERTEX
8
CUT_INNER
10
105.9038
20
130.3833
30
0.0
0
VERTEX
8
CUT_INNER
10
105.6053
20
128.8907
30
0.0
0
VERTEX
8
CUT_INNER
10
103.8141
20
127.2488
30
0.0
0
VERTEX
8
CUT_INNER
10
107.0979
20
126.8010
30
0.0
0
VERTEX
8
CUT_INNER
10
108.5906
20
127.3980
30
0.0
0
VERTEX
8
CUT_INNER
10
110.2325
20
129.6370
30
0.0
0
VERTEX
8
CUT_INNER
10
109.9340
20
132.7716
30
0.0
0
VERTEX
8
CUT_INNER
10
107.2472
20
134.8613
30
0.0
0
VERTEX
8
CUT_INNER
10
109.3369
20
136.5032
30
0.0
0
VERTEX
8
CUT_INNER
10
109.9340
20
139.6378
30
0.0
0
VERTEX
8
CUT_INNER
10
108.2921
20
141.8768
30
0.0
0
VERTEX
8
CUT_INNER
10
107.0979
20
142.4738
30
0.0
0
SEQEND
8
CUT_INNER
0
POLYLINE
8
CUT_INNER
66
1
70
1
0
VERTEX
8
CUT_INNER
10
98.2913
20
142.4738
30
0.0
0
VERTEX
8
CUT_INNER
10
97.8435
20
141.5783
30
0.0
0
VERTEX
8
CUT_INNER
10
98.7391
20
140.8319
30
0.0
0
VERTEX
8
CUT_INNER
10
98.7391
20
128.4429
30
0.0
0
VERTEX
8
CUT_INNER
10
97.5450
20
127.2488
30
0.0
0
VERTEX
8
CUT_INNER
10
97.9928
20
126.8010
30
0.0
0
VERTEX
8
CUT_INNER
10
102.6200
20
126.8010
30
0.0
0
VERTEX
8
CUT_INNER
10
103.0678
20
127.2488
30
0.0
0
VERTEX
8
CUT_INNER
10
103.0678
20
142.0261
30
0.0
0
VERTEX
8
CUT_INNER
10
102.6200
20
142.4738
30
0.0
0
SEQEND
8
CUT_INNER
0
POLYLINE
8
CUT_INNER
66
1
70
1
0
VERTEX
8
CUT_INNER
10
202.4786
20
142.7724
30
0.0
0
VERTEX
8
CUT_INNER
10
202.0308
20
141.5783
30
0.0
0
VERTEX
8
CUT_INNER
10
202.9263
20
140.6827
30
0.0
0
VERTEX
8
CUT_INNER
10
202.9263
20
128.5922
30
0.0
0
VERTEX
8
CUT_INNER
10
202.0308
20
126.9502
30
0.0
0
VERTEX
8
CUT_INNER
10
203.2249
20
126.5024
30
0.0
0
VERTEX
8
CUT_INNER
10
206.6580
20
129.6370
30
0.0
0
VERTEX
8
CUT_INNER
10
207.5536
20
132.6223
30
0.0
0
VERTEX
8
CUT_INNER
10
207.5536
20
136.3540
30
0.0
0
VERTEX
8
CUT_INNER
10
206.0609
20
140.5334
30
0.0
0
VERTEX
8
CUT_INNER
10
203.8219
20
142.4738
30
0.0
0
SEQEND
8
CUT_INNER
0
POLYLINE
8
CUT_INNER
66
1
70
1
0
VERTEX
8
CUT_INNER
10
200.0903
20
142.7724
30
0.0
0
VERTEX
8
CUT_INNER
10
198.2991
20
141.8768
30
0.0
0
VERTEX
8
CUT_INNER
10
196.0601
20
138.7422
30
0.0
0
VERTEX
8
CUT_INNER
10
195.4631
20
132.9209
30
0.0
0
VERTEX
8
CUT_INNER
10
196.9557
20
128.7414
30
0.0
0
VERTEX
8
CUT_INNER
10
198.5976
20
127.0995
30
0.0
0
VERTEX
8
CUT_INNER
10
200.5381
20
126.5024
30
0.0
0
VERTEX
8
CUT_INNER
10
200.9859
20
127.6966
30
0.0
0
VERTEX
8
CUT_INNER
10
200.0903
20
128.5922
30
0.0
0
VERTEX
8
CUT_INNER
10
200.0903
20
140.6827
30
0.0
0
VERTEX
8
CUT_INNER
10
200.9859
20
142.3246
30
0.0
0
SEQEND
8
CUT_INNER
0
POLYLINE
8
CUT_INNER
66
1
70
1
0
VERTEX
8
CUT_INNER
10
182.7755
20
142.7724
30
0.0
0
VERTEX
8
CUT_INNER
10
182.3277
20
141.5783
30
0.0
0
VERTEX
8
CUT_INNER
10
184.7160
20
139.7871
30
0.0
0
VERTEX
8
CUT_INNER
10
185.3130
20
137.6974
30
0.0
0
VERTEX
8
CUT_INNER
10
186.2086
20
137.2496
30
0.0
0
VERTEX
8
CUT_INNER
10
186.6564
20
137.6974
30
0.0
0
VERTEX
8
CUT_INNER
10
186.6564
20
142.3246
30
0.0
0
VERTEX
8
CUT_INNER
10
186.0594
20
142.7724
30
0.0
0
VERTEX
8
CUT_INNER
10
184.7160
20
141.8768
30
0.0
0
SEQEND
8
CUT_INNER
0
POLYLINE
8
CUT_INNER
66
1
70
1
0
VERTEX
8
CUT_INNER
10
180.3873
20
142.7724
30
0.0
0
VERTEX
8
CUT_INNER
10
177.5512
20
140.5334
30
0.0
0
VERTEX
8
CUT_INNER
10
176.9542
20
139.3393
30
0.0
0
VERTEX
8
CUT_INNER
10
176.9542
20
136.2047
30
0.0
0
VERTEX
8
CUT_INNER
10
178.8946
20
133.3687
30
0.0
0
VERTEX
8
CUT_INNER
10
183.5218
20
130.5326
30
0.0
0
VERTEX
8
CUT_INNER
10
183.5218
20
128.8907
30
0.0
0
VERTEX
8
CUT_INNER
10
182.0292
20
127.3980
30
0.0
0
VERTEX
8
CUT_INNER
10
182.3277
20
126.3532
30
0.0
0
VERTEX
8
CUT_INNER
10
183.5218
20
126.5024
30
0.0
0
VERTEX
8
CUT_INNER
10
186.3579
20
128.4429
30
0.0
0
VERTEX
8
CUT_INNER
10
187.2535
20
130.5326
30
0.0
0
VERTEX
8
CUT_INNER
10
187.2535
20
132.7716
30
0.0
0
VERTEX
8
CUT_INNER
10
186.6564
20
134.2643
30
0.0
0
VERTEX
8
CUT_INNER
10
184.7160
20
136.2047
30
0.0
0
VERTEX
8
CUT_INNER
10
180.3873
20
138.7422
30
0.0
0
VERTEX
8
CUT_INNER
10
180.3873
20
140.3841
30
0.0
0
VERTEX
8
CUT_INNER
10
181.5814
20
141.5783
30
0.0
0
VERTEX
8
CUT_INNER
10
181.5814
20
142.3246
30
0.0
0
SEQEND
8
CUT_INNER
0
POLYLINE
8
CUT_INNER
66
1
70
1
0
VERTEX
8
CUT_INNER
10
173.0733
20
142.7724
30
0.0
0
VERTEX
8
CUT_INNER
10
171.7299
20
142.7724
30
0.0
0
VERTEX
8
CUT_INNER
10
170.3865
20
141.1305
30
0.0
0
VERTEX
8
CUT_INNER
10
170.9835
20
139.1900
30
0.0
0
VERTEX
8
CUT_INNER
10
172.4762
20
138.4437
30
0.0
0
VERTEX
8
CUT_INNER
10
170.5357
20
136.2047
30
0.0
0
VERTEX
8
CUT_INNER
10
171.1328
20
135.4584
30
0.0
0
VERTEX
8
CUT_INNER
10
173.2225
20
136.8018
30
0.0
0
VERTEX
8
CUT_INNER
10
174.4167
20
138.8915
30
0.0
0
VERTEX
8
CUT_INNER
10
174.4167
20
141.1305
30
0.0
0
SEQEND
8
CUT_INNER
0
POLYLINE
8
CUT_INNER
66
1
70
1
0
VERTEX
8
CUT_INNER
10
123.3679
20
153.6688
30
0.0
0
VERTEX
8
CUT_INNER
10
121.7260
20
150.9820
30
0.0
0
VERTEX
8
CUT_INNER
10
119.3377
20
149.4893
30
0.0
0
VERTEX
8
CUT_INNER
10
119.7855
20
148.2952
30
0.0
0
VERTEX
8
CUT_INNER
10
123.9649
20
148.7430
30
0.0
0
VERTEX
8
CUT_INNER
10
123.9649
20
153.0717
30
0.0
0
SEQEND
8
CUT_INNER
0
POLYLINE
8
CUT_INNER
66
1
70
1
0
VERTEX
8
CUT_INNER
10
94.7089
20
153.6688
30
0.0
0
VERTEX
8
CUT_INNER
10
93.3655
20
151.2805
30
0.0
0
VERTEX
8
CUT_INNER
10
90.6787
20
149.4893
30
0.0
0
VERTEX
8
CUT_INNER
10
91.1265
20
148.2952
30
0.0
0
VERTEX
8
CUT_INNER
10
95.3060
20
148.7430
30
0.0
0
VERTEX
8
CUT_INNER
10
95.3060
20
153.0717
30
0.0
0
SEQEND
8
CUT_INNER
0
POLYLINE
8
CUT_INNER
66
1
70
1
0
VERTEX
8
CUT_INNER
10
202.3293
20
153.8180
30
0.0
0
VERTEX
8
CUT_INNER
10
200.8366
20
151.2805
30
0.0
0
VERTEX
8
CUT_INNER
10
198.1499
20
149.4893
30
0.0
0
VERTEX
8
CUT_INNER
10
198.5976
20
148.2952
30
0.0
0
VERTEX
8
CUT_INNER
10
202.7771
20
148.7430
30
0.0
0
VERTEX
8
CUT_INNER
10
202.7771
20
153.3702
30
0.0
0
SEQEND
8
CUT_INNER
0
POLYLINE
8
CUT_INNER
66
1
70
1
0
VERTEX
8
CUT_INNER
10
200.2396
20
159.7886
30
0.0
0
VERTEX
8
CUT_INNER
10
198.1499
20
156.9526
30
0.0
0
VERTEX
8
CUT_INNER
10
199.9410
20
153.5195
30
0.0
0
VERTEX
8
CUT_INNER
10
200.6874
20
154.1166
30
0.0
0
VERTEX
8
CUT_INNER
10
200.6874
20
159.3408
30
0.0
0
SEQEND
8
CUT_INNER
0
POLYLINE
8
CUT_INNER
66
1
70
1
0
VERTEX
8
CUT_INNER
10
120.9796
20
159.7886
30
0.0
0
VERTEX
8
CUT_INNER
10
119.3377
20
157.2511
30
0.0
0
VERTEX
8
CUT_INNER
10
119.3377
20
156.2063
30
0.0
0
VERTEX
8
CUT_INNER
10
120.5318
20
154.1166
30
0.0
0
VERTEX
8
CUT_INNER
10
121.4274
20
153.6688
30
0.0
0
VERTEX
8
CUT_INNER
10
121.8752
20
154.1166
30
0.0
0
VERTEX
8
CUT_INNER
10
121.8752
20
159.3408
30
0.0
0
SEQEND
8
CUT_INNER
0
POLYLINE
8
CUT_INNER
66
1
70
1
0
VERTEX
8
CUT_INNER
10
92.7685
20
159.7886
30
0.0
0
VERTEX
8
CUT_INNER
10
90.6787
20
157.2511
30
0.0
0
VERTEX
8
CUT_INNER
10
90.6787
20
156.2063
30
0.0
0
VERTEX
8
CUT_INNER
10
92.3207
20
153.6688
30
0.0
0
VERTEX
8
CUT_INNER
10
93.2163
20
154.1166
30
0.0
0
VERTEX
8
CUT_INNER
10
93.2163
20
159.3408
30
0.0
0
SEQEND
8
CUT_INNER
0
POLYLINE
8
CUT_INNER
66
1
70
1
0
VERTEX
8
CUT_INNER
10
221.2860
20
164.5651
30
0.0
0
VERTEX
8
CUT_INNER
10
220.8382
20
163.9681
30
0.0
0
VERTEX
8
CUT_INNER
10
222.0323
20
162.9232
30
0.0
0
VERTEX
8
CUT_INNER
10
222.0323
20
150.2357
30
0.0
0
VERTEX
8
CUT_INNER
10
220.8382
20
148.7430
30
0.0
0
VERTEX
8
CUT_INNER
10
221.2860
20
148.2952
30
0.0
0
VERTEX
8
CUT_INNER
10
225.6147
20
148.2952
30
0.0
0
VERTEX
8
CUT_INNER
10
226.0625
20
148.7430
30
0.0
0
VERTEX
8
CUT_INNER
10
226.0625
20
164.1173
30
0.0
0
VERTEX
8
CUT_INNER
10
225.6147
20
164.5651
30
0.0
0
SEQEND
8
CUT_INNER
0
POLYLINE
8
CUT_INNER
66
1
70
1
0
VERTEX
8
CUT_INNER
10
212.6286
20
164.5651
30
0.0
0
VERTEX
8
CUT_INNER
10
211.8823
20
163.6695
30
0.0
0
VERTEX
8
CUT_INNER
10
213.3749
20
162.1769
30
0.0
0
VERTEX
8
CUT_INNER
10
213.3749
20
158.1467
30
0.0
0
VERTEX
8
CUT_INNER
10
211.8823
20
156.2063
30
0.0
0
VERTEX
8
CUT_INNER
10
213.3749
20
154.4151
30
0.0
0
VERTEX
8
CUT_INNER
10
213.3749
20
149.9371
30
0.0
0
VERTEX
8
CUT_INNER
10
214.7183
20
148.2952
30
0.0
0
VERTEX
8
CUT_INNER
10
216.6588
20
147.9967
30
0.0
0
VERTEX
8
CUT_INNER
10
219.1963
20
150.2357
30
0.0
0
VERTEX
8
CUT_INNER
10
218.7485
20
151.4298
30
0.0
0
VERTEX
8
CUT_INNER
10
218.0022
20
150.8327
30
0.0
0
VERTEX
8
CUT_INNER
10
217.4051
20
151.1312
30
0.0
0
VERTEX
8
CUT_INNER
10
217.4051
20
154.2658
30
0.0
0
VERTEX
8
CUT_INNER
10
215.0168
20
156.5048
30
0.0
0
VERTEX
8
CUT_INNER
10
217.1066
20
158.2960
30
0.0
0
VERTEX
8
CUT_INNER
10
217.7036
20
161.4306
30
0.0
0
VERTEX
8
CUT_INNER
10
216.0617
20
163.9681
30
0.0
0
SEQEND
8
CUT_INNER
0
POLYLINE
8
CUT_INNER
66
1
70
1
0
VERTEX
8
CUT_INNER
10
206.3595
20
164.5651
30
0.0
0
VERTEX
8
CUT_INNER
10
205.9117
20
163.6695
30
0.0
0
VERTEX
8
CUT_INNER
10
207.1058
20
162.9232
30
0.0
0
VERTEX
8
CUT_INNER
10
207.1058
20
150.2357
30
0.0
0
VERTEX
8
CUT_INNER
10
205.9117
20
149.4893
30
0.0
0
VERTEX
8
CUT_INNER
10
206.3595
20
148.2952
30
0.0
0
VERTEX
8
CUT_INNER
10
211.8823
20
148.2952
30
0.0
0
VERTEX
8
CUT_INNER
10
212.3301
20
149.4893
30
0.0
0
VERTEX
8
CUT_INNER
10
211.1359
20
150.2357
30
0.0
0
VERTEX
8
CUT_INNER
10
211.1359
20
164.1173
30
0.0
0
VERTEX
8
CUT_INNER
10
210.6881
20
164.5651
30
0.0
0
SEQEND
8
CUT_INNER
0
POLYLINE
8
CUT_INNER
66
1
70
1
0
VERTEX
8
CUT_INNER
10
198.5976
20
164.5651
30
0.0
0
VERTEX
8
CUT_INNER
10
198.1499
20
163.6695
30
0.0
0
VERTEX
8
CUT_INNER
10
200.8366
20
161.8784
30
0.0
0
VERTEX
8
CUT_INNER
10
202.0308
20
159.6394
30
0.0
0
VERTEX
8
CUT_INNER
10
202.4786
20
164.1173
30
0.0
0
SEQEND
8
CUT_INNER
0
POLYLINE
8
CUT_INNER
66
1
70
1
0
VERTEX
8
CUT_INNER
10
192.6270
20
164.5651
30
0.0
0
VERTEX
8
CUT_INNER
10
192.1792
20
163.6695
30
0.0
0
VERTEX
8
CUT_INNER
10
193.3734
20
162.7739
30
0.0
0
VERTEX
8
CUT_INNER
10
193.3734
20
150.3849
30
0.0
0
VERTEX
8
CUT_INNER
10
192.1792
20
149.4893
30
0.0
0
VERTEX
8
CUT_INNER
10
192.6270
20
148.2952
30
0.0
0
VERTEX
8
CUT_INNER
10
196.9557
20
148.2952
30
0.0
0
VERTEX
8
CUT_INNER
10
197.4035
20
148.7430
30
0.0
0
VERTEX
8
CUT_INNER
10
197.4035
20
164.1173
30
0.0
0
VERTEX
8
CUT_INNER
10
196.9557
20
164.5651
30
0.0
0
SEQEND
8
CUT_INNER
0
POLYLINE
8
CUT_INNER
66
1
70
1
0
VERTEX
8
CUT_INNER
10
183.3726
20
164.5651
30
0.0
0
VERTEX
8
CUT_INNER
10
182.9248
20
163.9681
30
0.0
0
VERTEX
8
CUT_INNER
10
184.1189
20
162.9232
30
0.0
0
VERTEX
8
CUT_INNER
10
184.1189
20
157.6989
30
0.0
0
VERTEX
8
CUT_INNER
10
182.4770
20
157.4004
30
0.0
0
VERTEX
8
CUT_INNER
10
182.0292
20
156.5048
30
0.0
0
VERTEX
8
CUT_INNER
10
184.1189
20
155.6092
30
0.0
0
VERTEX
8
CUT_INNER
10
184.1189
20
150.2357
30
0.0
0
VERTEX
8
CUT_INNER
10
182.9248
20
149.0415
30
0.0
0
VERTEX
8
CUT_INNER
10
183.6711
20
148.2952
30
0.0
0
VERTEX
8
CUT_INNER
10
188.8954
20
148.2952
30
0.0
0
VERTEX
8
CUT_INNER
10
189.3432
20
149.4893
30
0.0
0
VERTEX
8
CUT_INNER
10
188.1491
20
150.3849
30
0.0
0
VERTEX
8
CUT_INNER
10
188.1491
20
162.7739
30
0.0
0
VERTEX
8
CUT_INNER
10
189.3432
20
164.1173
30
0.0
0
VERTEX
8
CUT_INNER
10
188.8954
20
164.5651
30
0.0
0
SEQEND
8
CUT_INNER
0
POLYLINE
8
CUT_INNER
66
1
70
1
0
VERTEX
8
CUT_INNER
10
176.5064
20
164.5651
30
0.0
0
VERTEX
8
CUT_INNER
10
176.0586
20
163.6695
30
0.0
0
VERTEX
8
CUT_INNER
10
177.2527
20
162.7739
30
0.0
0
VERTEX
8
CUT_INNER
10
177.2527
20
150.3849
30
0.0
0
VERTEX
8
CUT_INNER
10
176.0586
20
149.4893
30
0.0
0
VERTEX
8
CUT_INNER
10
176.5064
20
148.2952
30
0.0
0
VERTEX
8
CUT_INNER
10
181.7307
20
148.2952
30
0.0
0
VERTEX
8
CUT_INNER
10
182.4770
20
149.1908
30
0.0
0
VERTEX
8
CUT_INNER
10
181.2829
20
150.2357
30
0.0
0
VERTEX
8
CUT_INNER
10
181.2829
20
162.9232
30
0.0
0
VERTEX
8
CUT_INNER
10
182.4770
20
164.1173
30
0.0
0
VERTEX
8
CUT_INNER
10
182.0292
20
164.5651
30
0.0
0
SEQEND
8
CUT_INNER
0
POLYLINE
8
CUT_INNER
66
1
70
1
0
VERTEX
8
CUT_INNER
10
173.0733
20
164.5651
30
0.0
0
VERTEX
8
CUT_INNER
10
169.1924
20
164.1173
30
0.0
0
VERTEX
8
CUT_INNER
10
170.6850
20
162.7739
30
0.0
0
VERTEX
8
CUT_INNER
10
169.7894
20
158.7438
30
0.0
0
VERTEX
8
CUT_INNER
10
170.3865
20
155.9077
30
0.0
0
VERTEX
8
CUT_INNER
10
172.0284
20
162.1769
30
0.0
0
VERTEX
8
CUT_INNER
10
173.5211
20
163.6695
30
0.0
0
SEQEND
8
CUT_INNER
0
POLYLINE
8
CUT_INNER
66
1
70
1
0
VERTEX
8
CUT_INNER
10
165.1622
20
164.5651
30
0.0
0
VERTEX
8
CUT_INNER
10
163.8188
20
160.5350
30
0.0
0
VERTEX
8
CUT_INNER
10
164.1173
20
156.5048
30
0.0
0
VERTEX
8
CUT_INNER
10
164.7144
20
155.9077
30
0.0
0
VERTEX
8
CUT_INNER
10
166.2071
20
148.7430
30
0.0
0
VERTEX
8
CUT_INNER
10
168.5953
20
148.2952
30
0.0
0
VERTEX
8
CUT_INNER
10
169.9387
20
153.3702
30
0.0
0
VERTEX
8
CUT_INNER
10
167.2519
20
164.1173
30
0.0
0
SEQEND
8
CUT_INNER
0
POLYLINE
8
CUT_INNER
66
1
70
1
0
VERTEX
8
CUT_INNER
10
156.5048
20
164.5651
30
0.0
0
VERTEX
8
CUT_INNER
10
156.0570
20
163.6695
30
0.0
0
VERTEX
8
CUT_INNER
10
157.2511
20
162.7739
30
0.0
0
VERTEX
8
CUT_INNER
10
160.2364
20
148.7430
30
0.0
0
VERTEX
8
CUT_INNER
10
162.3262
20
148.2952
30
0.0
0
VERTEX
8
CUT_INNER
10
163.6695
20
152.6239
30
0.0
0
VERTEX
8
CUT_INNER
10
161.5798
20
162.0276
30
0.0
0
VERTEX
8
CUT_INNER
10
162.4754
20
164.1173
30
0.0
0
VERTEX
8
CUT_INNER
10
162.0276
20
164.5651
30
0.0
0
SEQEND
8
CUT_INNER
0
POLYLINE
8
CUT_INNER
66
1
70
1
0
VERTEX
8
CUT_INNER
10
153.9673
20
164.5651
30
0.0
0
VERTEX
8
CUT_INNER
10
149.7879
20
164.1173
30
0.0
0
VERTEX
8
CUT_INNER
10
151.2805
20
162.7739
30
0.0
0
VERTEX
8
CUT_INNER
10
149.9371
20
158.8930
30
0.0
0
VERTEX
8
CUT_INNER
10
150.6834
20
157.4004
30
0.0
0
VERTEX
8
CUT_INNER
10
152.6239
20
162.1769
30
0.0
0
VERTEX
8
CUT_INNER
10
154.4151
20
163.9681
30
0.0
0
SEQEND
8
CUT_INNER
0
POLYLINE
8
CUT_INNER
66
1
70
1
0
VERTEX
8
CUT_INNER
10
142.1753
20
164.5651
30
0.0
0
VERTEX
8
CUT_INNER
10
141.7275
20
163.9681
30
0.0
0
VERTEX
8
CUT_INNER
10
143.2202
20
162.1769
30
0.0
0
VERTEX
8
CUT_INNER
10
145.9070
20
155.3107
30
0.0
0
VERTEX
8
CUT_INNER
10
145.9070
20
150.2357
30
0.0
0
VERTEX
8
CUT_INNER
10
144.7128
20
149.4893
30
0.0
0
VERTEX
8
CUT_INNER
10
145.1606
20
148.2952
30
0.0
0
VERTEX
8
CUT_INNER
10
150.9820
20
148.2952
30
0.0
0
VERTEX
8
CUT_INNER
10
151.4298
20
149.4893
30
0.0
0
VERTEX
8
CUT_INNER
10
150.2357
20
150.2357
30
0.0
0
VERTEX
8
CUT_INNER
10
150.2357
20
155.4599
30
0.0
0
VERTEX
8
CUT_INNER
10
147.5489
20
162.0276
30
0.0
0
VERTEX
8
CUT_INNER
10
147.5489
20
163.0725
30
0.0
0
VERTEX
8
CUT_INNER
10
148.4445
20
164.1173
30
0.0
0
VERTEX
8
CUT_INNER
10
147.9967
20
164.5651
30
0.0
0
SEQEND
8
CUT_INNER
0
POLYLINE
8
CUT_INNER
66
1
70
1
0
VERTEX
8
CUT_INNER
10
133.8165
20
164.5651
30
0.0
0
VERTEX
8
CUT_INNER
10
133.3687
20
163.6695
30
0.0
0
VERTEX
8
CUT_INNER
10
134.5628
20
162.4754
30
0.0
0
VERTEX
8
CUT_INNER
10
134.5628
20
158.1467
30
0.0
0
VERTEX
8
CUT_INNER
10
133.3687
20
156.9526
30
0.0
0
VERTEX
8
CUT_INNER
10
133.3687
20
155.9077
30
0.0
0
VERTEX
8
CUT_INNER
10
134.5628
20
154.7136
30
0.0
0
VERTEX
8
CUT_INNER
10
134.5628
20
150.2357
30
0.0
0
VERTEX
8
CUT_INNER
10
136.2047
20
148.2952
30
0.0
0
VERTEX
8
CUT_INNER
10
137.8466
20
147.9967
30
0.0
0
VERTEX
8
CUT_INNER
10
140.3841
20
150.2357
30
0.0
0
VERTEX
8
CUT_INNER
10
139.9363
20
151.4298
30
0.0
0
VERTEX
8
CUT_INNER
10
138.8915
20
151.1312
30
0.0
0
VERTEX
8
CUT_INNER
10
138.5929
20
154.5643
30
0.0
0
VERTEX
8
CUT_INNER
10
136.2047
20
156.5048
30
0.0
0
VERTEX
8
CUT_INNER
10
138.2944
20
157.9975
30
0.0
0
VERTEX
8
CUT_INNER
10
138.8915
20
161.7291
30
0.0
0
VERTEX
8
CUT_INNER
10
137.2496
20
163.9681
30
0.0
0
SEQEND
8
CUT_INNER
0
POLYLINE
8
CUT_INNER
66
1
70
1
0
VERTEX
8
CUT_INNER
10
127.5473
20
164.5651
30
0.0
0
VERTEX
8
CUT_INNER
10
127.0995
20
163.6695
30
0.0
0
VERTEX
8
CUT_INNER
10
128.2936
20
162.9232
30
0.0
0
VERTEX
8
CUT_INNER
10
128.2936
20
150.2357
30
0.0
0
VERTEX
8
CUT_INNER
10
127.0995
20
149.4893
30
0.0
0
VERTEX
8
CUT_INNER
10
127.5473
20
148.2952
30
0.0
0
VERTEX
8
CUT_INNER
10
133.0701
20
148.2952
30
0.0
0
VERTEX
8
CUT_INNER
10
133.8165
20
149.1908
30
0.0
0
VERTEX
8
CUT_INNER
10
132.6223
20
150.2357
30
0.0
0
VERTEX
8
CUT_INNER
10
132.6223
20
163.8188
30
0.0
0
VERTEX
8
CUT_INNER
10
131.8760
20
164.5651
30
0.0
0
SEQEND
8
CUT_INNER
0
POLYLINE
8
CUT_INNER
66
1
70
1
0
VERTEX
8
CUT_INNER
10
119.7855
20
164.5651
30
0.0
0
VERTEX
8
CUT_INNER
10
119.3377
20
163.6695
30
0.0
0
VERTEX
8
CUT_INNER
10
121.7260
20
162.1769
30
0.0
0
VERTEX
8
CUT_INNER
10
123.0693
20
159.7886
30
0.0
0
VERTEX
8
CUT_INNER
10
123.6664
20
160.3857
30
0.0
0
VERTEX
8
CUT_INNER
10
123.6664
20
164.1173
30
0.0
0
SEQEND
8
CUT_INNER
0
POLYLINE
8
CUT_INNER
66
1
70
1
0
VERTEX
8
CUT_INNER
10
113.8149
20
164.5651
30
0.0
0
VERTEX
8
CUT_INNER
10
113.2178
20
163.8188
30
0.0
0
VERTEX
8
CUT_INNER
10
114.2627
20
162.9232
30
0.0
0
VERTEX
8
CUT_INNER
10
114.2627
20
150.2357
30
0.0
0
VERTEX
8
CUT_INNER
10
113.0686
20
149.0415
30
0.0
0
VERTEX
8
CUT_INNER
10
113.8149
20
148.2952
30
0.0
0
VERTEX
8
CUT_INNER
10
118.1436
20
148.2952
30
0.0
0
VERTEX
8
CUT_INNER
10
118.5914
20
148.7430
30
0.0
0
VERTEX
8
CUT_INNER
10
118.5914
20
164.1173
30
0.0
0
VERTEX
8
CUT_INNER
10
118.1436
20
164.5651
30
0.0
0
SEQEND
8
CUT_INNER
0
POLYLINE
8
CUT_INNER
66
1
70
1
0
VERTEX
8
CUT_INNER
10
110.0833
20
164.5651
30
0.0
0
VERTEX
8
CUT_INNER
10
106.2024
20
164.1173
30
0.0
0
VERTEX
8
CUT_INNER
10
107.3965
20
162.7739
30
0.0
0
VERTEX
8
CUT_INNER
10
106.2024
20
157.2511
30
0.0
0
VERTEX
8
CUT_INNER
10
106.7994
20
154.4151
30
0.0
0
VERTEX
8
CUT_INNER
10
108.7399
20
161.5798
30
0.0
0
VERTEX
8
CUT_INNER
10
110.5310
20
163.6695
30
0.0
0
SEQEND
8
CUT_INNER
0
POLYLINE
8
CUT_INNER
66
1
70
1
0
VERTEX
8
CUT_INNER
10
98.2913
20
164.5651
30
0.0
0
VERTEX
8
CUT_INNER
10
97.8435
20
163.9681
30
0.0
0
VERTEX
8
CUT_INNER
10
99.3361
20
162.1769
30
0.0
0
VERTEX
8
CUT_INNER
10
102.3214
20
149.3401
30
0.0
0
VERTEX
8
CUT_INNER
10
103.0678
20
148.2952
30
0.0
0
VERTEX
8
CUT_INNER
10
105.0082
20
148.2952
30
0.0
0
VERTEX
8
CUT_INNER
10
106.3516
20
151.8776
30
0.0
0
VERTEX
8
CUT_INNER
10
103.6648
20
161.4306
30
0.0
0
VERTEX
8
CUT_INNER
10
103.6648
20
162.9232
30
0.0
0
VERTEX
8
CUT_INNER
10
104.5604
20
164.1173
30
0.0
0
VERTEX
8
CUT_INNER
10
104.1126
20
164.5651
30
0.0
0
SEQEND
8
CUT_INNER
0
POLYLINE
8
CUT_INNER
66
1
70
1
0
VERTEX
8
CUT_INNER
10
91.1265
20
164.5651
30
0.0
0
VERTEX
8
CUT_INNER
10
90.6787
20
163.6695
30
0.0
0
VERTEX
8
CUT_INNER
10
93.0670
20
162.1769
30
0.0
0
VERTEX
8
CUT_INNER
10
94.4104
20
159.7886
30
0.0
0
VERTEX
8
CUT_INNER
10
95.0074
20
160.3857
30
0.0
0
VERTEX
8
CUT_INNER
10
95.0074
20
164.1173
30
0.0
0
SEQEND
8
CUT_INNER
0
POLYLINE
8
CUT_INNER
66
1
70
1
0
VERTEX
8
CUT_INNER
10
84.8574
20
164.5651
30
0.0
0
VERTEX
8
CUT_INNER
10
84.4096
20
163.9681
30
0.0
0
VERTEX
8
CUT_INNER
10
85.6037
20
162.9232
30
0.0
0
VERTEX
8
CUT_INNER
10
85.6037
20
150.2357
30
0.0
0
VERTEX
8
CUT_INNER
10
84.4096
20
149.0415
30
0.0
0
VERTEX
8
CUT_INNER
10
85.1559
20
148.2952
30
0.0
0
VERTEX
8
CUT_INNER
10
89.4846
20
148.2952
30
0.0
0
VERTEX
8
CUT_INNER
10
89.9324
20
148.7430
30
0.0
0
VERTEX
8
CUT_INNER
10
89.9324
20
164.1173
30
0.0
0
VERTEX
8
CUT_INNER
10
89.4846
20
164.5651
30
0.0
0
SEQEND
8
CUT_INNER
0
POLYLINE
8
CUT_INNER
66
1
70
1
0
VERTEX
8
CUT_INNER
10
213.9720
20
175.6108
30
0.0
0
VERTEX
8
CUT_INNER
10
213.0764
20
175.1630
30
0.0
0
VERTEX
8
CUT_INNER
10
212.4793
20
173.3718
30
0.0
0
VERTEX
8
CUT_INNER
10
210.0911
20
171.5806
30
0.0
0
VERTEX
8
CUT_INNER
10
210.5389
20
170.6850
30
0.0
0
VERTEX
8
CUT_INNER
10
214.4198
20
171.1328
30
0.0
0
SEQEND
8
CUT_INNER
0
POLYLINE
8
CUT_INNER
66
1
70
1
0
VERTEX
8
CUT_INNER
10
146.3548
20
175.7600
30
0.0
0
VERTEX
8
CUT_INNER
10
145.0114
20
173.3718
30
0.0
0
VERTEX
8
CUT_INNER
10
142.3246
20
171.5806
30
0.0
0
VERTEX
8
CUT_INNER
10
142.7724
20
170.6850
30
0.0
0
VERTEX
8
CUT_INNER
10
146.9518
20
171.1328
30
0.0
0
VERTEX
8
CUT_INNER
10
146.9518
20
175.1630
30
0.0
0
SEQEND
8
CUT_INNER
0
POLYLINE
8
CUT_INNER
66
1
70
1
0
VERTEX
8
CUT_INNER
10
226.8088
20
175.9093
30
0.0
0
VERTEX
8
CUT_INNER
10
225.6147
20
173.6703
30
0.0
0
VERTEX
8
CUT_INNER
10
222.9279
20
171.5806
30
0.0
0
VERTEX
8
CUT_INNER
10
223.3757
20
170.6850
30
0.0
0
VERTEX
8
CUT_INNER
10
227.2566
20
171.1328
30
0.0
0
VERTEX
8
CUT_INNER
10
227.2566
20
175.4615
30
0.0
0
SEQEND
8
CUT_INNER
0
POLYLINE
8
CUT_INNER
66
1
70
1
0
VERTEX
8
CUT_INNER
10
150.9820
20
181.7307
30
0.0
0
VERTEX
8
CUT_INNER
10
150.6834
20
173.3718
30
0.0
0
VERTEX
8
CUT_INNER
10
149.1908
20
171.1328
30
0.0
0
VERTEX
8
CUT_INNER
10
152.7732
20
170.6850
30
0.0
0
VERTEX
8
CUT_INNER
10
153.2210
20
171.5806
30
0.0
0
VERTEX
8
CUT_INNER
10
152.0268
20
172.7747
30
0.0
0
VERTEX
8
CUT_INNER
10
152.0268
20
179.9395
30
0.0
0
SEQEND
8
CUT_INNER
0
POLYLINE
8
CUT_INNER
66
1
70
1
0
VERTEX
8
CUT_INNER
10
225.0176
20
182.1785
30
0.0
0
VERTEX
8
CUT_INNER
10
224.1220
20
181.7307
30
0.0
0
VERTEX
8
CUT_INNER
10
222.9279
20
179.3424
30
0.0
0
VERTEX
8
CUT_INNER
10
222.9279
20
178.2976
30
0.0
0
VERTEX
8
CUT_INNER
10
224.5698
20
175.7600
30
0.0
0
VERTEX
8
CUT_INNER
10
225.1669
20
176.2078
30
0.0
0
VERTEX
8
CUT_INNER
10
225.4654
20
181.7307
30
0.0
0
SEQEND
8
CUT_INNER
0
POLYLINE
8
CUT_INNER
66
1
70
1
0
VERTEX
8
CUT_INNER
10
211.7330
20
182.1785
30
0.0
0
VERTEX
8
CUT_INNER
10
210.0911
20
179.3424
30
0.0
0
VERTEX
8
CUT_INNER
10
210.0911
20
178.2976
30
0.0
0
VERTEX
8
CUT_INNER
10
211.8823
20
175.7600
30
0.0
0
VERTEX
8
CUT_INNER
10
212.3301
20
176.2078
30
0.0
0
VERTEX
8
CUT_INNER
10
212.3301
20
181.7307
30
0.0
0
SEQEND
8
CUT_INNER
0
POLYLINE
8
CUT_INNER
66
1
70
1
0
VERTEX
8
CUT_INNER
10
144.2650
20
182.1785
30
0.0
0
VERTEX
8
CUT_INNER
10
142.6231
20
179.3424
30
0.0
0
VERTEX
8
CUT_INNER
10
142.6231
20
178.2976
30
0.0
0
VERTEX
8
CUT_INNER
10
144.4143
20
175.7600
30
0.0
0
VERTEX
8
CUT_INNER
10
144.8621
20
176.2078
30
0.0
0
VERTEX
8
CUT_INNER
10
144.8621
20
181.7307
30
0.0
0
SEQEND
8
CUT_INNER
0
POLYLINE
8
CUT_INNER
66
1
70
1
0
VERTEX
8
CUT_INNER
10
113.8149
20
182.9248
30
0.0
0
VERTEX
8
CUT_INNER
10
113.0686
20
181.7307
30
0.0
0
VERTEX
8
CUT_INNER
10
111.2774
20
173.0733
30
0.0
0
VERTEX
8
CUT_INNER
10
109.7847
20
171.5806
30
0.0
0
VERTEX
8
CUT_INNER
10
110.2325
20
170.6850
30
0.0
0
VERTEX
8
CUT_INNER
10
114.1134
20
171.1328
30
0.0
0
VERTEX
8
CUT_INNER
10
112.6208
20
172.7747
30
0.0
0
VERTEX
8
CUT_INNER
10
114.4119
20
180.6858
30
0.0
0
SEQEND
8
CUT_INNER
0
POLYLINE
8
CUT_INNER
66
1
70
1
0
VERTEX
8
CUT_INNER
10
223.3757
20
186.9549
30
0.0
0
VERTEX
8
CUT_INNER
10
222.9279
20
185.7608
30
0.0
0
VERTEX
8
CUT_INNER
10
224.5698
20
185.0145
30
0.0
0
VERTEX
8
CUT_INNER
10
225.9132
20
182.4770
30
0.0
0
VERTEX
8
CUT_INNER
10
226.8088
20
182.0292
30
0.0
0
VERTEX
8
CUT_INNER
10
227.2566
20
186.5071
30
0.0
0
SEQEND
8
CUT_INNER
0
POLYLINE
8
CUT_INNER
66
1
70
1
0
VERTEX
8
CUT_INNER
10
217.4051
20
186.9549
30
0.0
0
VERTEX
8
CUT_INNER
10
216.9573
20
186.0594
30
0.0
0
VERTEX
8
CUT_INNER
10
218.1514
20
185.1638
30
0.0
0
VERTEX
8
CUT_INNER
10
218.1514
20
172.4762
30
0.0
0
VERTEX
8
CUT_INNER
10
216.9573
20
171.1328
30
0.0
0
VERTEX
8
CUT_INNER
10
217.4051
20
170.6850
30
0.0
0
VERTEX
8
CUT_INNER
10
221.7338
20
170.6850
30
0.0
0
VERTEX
8
CUT_INNER
10
222.1816
20
171.1328
30
0.0
0
VERTEX
8
CUT_INNER
10
222.1816
20
186.5071
30
0.0
0
VERTEX
8
CUT_INNER
10
221.7338
20
186.9549
30
0.0
0
SEQEND
8
CUT_INNER
0
POLYLINE
8
CUT_INNER
66
1
70
1
0
VERTEX
8
CUT_INNER
10
210.5389
20
186.9549
30
0.0
0
VERTEX
8
CUT_INNER
10
210.0911
20
185.7608
30
0.0
0
VERTEX
8
CUT_INNER
10
212.1808
20
184.4174
30
0.0
0
VERTEX
8
CUT_INNER
10
213.6735
20
182.0292
30
0.0
0
VERTEX
8
CUT_INNER
10
214.1213
20
186.5071
30
0.0
0
SEQEND
8
CUT_INNER
0
POLYLINE
8
CUT_INNER
66
1
70
1
0
VERTEX
8
CUT_INNER
10
204.5683
20
186.9549
30
0.0
0
VERTEX
8
CUT_INNER
10
204.1205
20
186.0594
30
0.0
0
VERTEX
8
CUT_INNER
10
205.0161
20
185.1638
30
0.0
0
VERTEX
8
CUT_INNER
10
205.0161
20
172.3269
30
0.0
0
VERTEX
8
CUT_INNER
10
204.1205
20
171.1328
30
0.0
0
VERTEX
8
CUT_INNER
10
208.5984
20
170.6850
30
0.0
0
VERTEX
8
CUT_INNER
10
209.0462
20
171.1328
30
0.0
0
VERTEX
8
CUT_INNER
10
209.0462
20
186.5071
30
0.0
0
SEQEND
8
CUT_INNER
0
POLYLINE
8
CUT_INNER
66
1
70
1
0
VERTEX
8
CUT_INNER
10
195.9109
20
186.9549
30
0.0
0
VERTEX
8
CUT_INNER
10
195.4631
20
185.7608
30
0.0
0
VERTEX
8
CUT_INNER
10
197.2543
20
184.2682
30
0.0
0
VERTEX
8
CUT_INNER
10
197.2543
20
181.1336
30
0.0
0
VERTEX
8
CUT_INNER
10
195.4631
20
178.8946
30
0.0
0
VERTEX
8
CUT_INNER
10
197.2543
20
177.1034
30
0.0
0
VERTEX
8
CUT_INNER
10
197.2543
20
173.0733
30
0.0
0
VERTEX
8
CUT_INNER
10
195.4631
20
171.1328
30
0.0
0
VERTEX
8
CUT_INNER
10
198.7469
20
170.6850
30
0.0
0
VERTEX
8
CUT_INNER
10
199.9410
20
171.2821
30
0.0
0
VERTEX
8
CUT_INNER
10
201.5830
20
173.5211
30
0.0
0
VERTEX
8
CUT_INNER
10
201.2844
20
176.9542
30
0.0
0
VERTEX
8
CUT_INNER
10
198.5976
20
179.0439
30
0.0
0
VERTEX
8
CUT_INNER
10
200.9859
20
180.9843
30
0.0
0
VERTEX
8
CUT_INNER
10
201.2844
20
184.1189
30
0.0
0
VERTEX
8
CUT_INNER
10
199.9410
20
186.0594
30
0.0
0
VERTEX
8
CUT_INNER
10
197.8513
20
186.9549
30
0.0
0
SEQEND
8
CUT_INNER
0
POLYLINE
8
CUT_INNER
66
1
70
1
0
VERTEX
8
CUT_INNER
10
189.9403
20
186.9549
30
0.0
0
VERTEX
8
CUT_INNER
10
189.4925
20
186.0594
30
0.0
0
VERTEX
8
CUT_INNER
10
190.6866
20
185.1638
30
0.0
0
VERTEX
8
CUT_INNER
10
190.6866
20
172.4762
30
0.0
0
VERTEX
8
CUT_INNER
10
189.4925
20
171.1328
30
0.0
0
VERTEX
8
CUT_INNER
10
189.9403
20
170.6850
30
0.0
0
VERTEX
8
CUT_INNER
10
194.2690
20
170.6850
30
0.0
0
VERTEX
8
CUT_INNER
10
194.7167
20
171.1328
30
0.0
0
VERTEX
8
CUT_INNER
10
194.7167
20
186.5071
30
0.0
0
VERTEX
8
CUT_INNER
10
194.2690
20
186.9549
30
0.0
0
SEQEND
8
CUT_INNER
0
POLYLINE
8
CUT_INNER
66
1
70
1
0
VERTEX
8
CUT_INNER
10
178.8946
20
186.9549
30
0.0
0
VERTEX
8
CUT_INNER
10
178.4468
20
185.4623
30
0.0
0
VERTEX
8
CUT_INNER
10
179.3424
20
184.2682
30
0.0
0
VERTEX
8
CUT_INNER
10
179.6409
20
181.8799
30
0.0
0
VERTEX
8
CUT_INNER
10
180.5365
20
181.1336
30
0.0
0
VERTEX
8
CUT_INNER
10
180.9843
20
181.5814
30
0.0
0
VERTEX
8
CUT_INNER
10
180.9843
20
186.5071
30
0.0
0
SEQEND
8
CUT_INNER
0
POLYLINE
8
CUT_INNER
66
1
70
1
0
VERTEX
8
CUT_INNER
10
174.1181
20
186.9549
30
0.0
0
VERTEX
8
CUT_INNER
10
173.6703
20
186.5071
30
0.0
0
VERTEX
8
CUT_INNER
10
173.3718
20
172.3269
30
0.0
0
VERTEX
8
CUT_INNER
10
172.1777
20
171.1328
30
0.0
0
VERTEX
8
CUT_INNER
10
172.6255
20
170.6850
30
0.0
0
VERTEX
8
CUT_INNER
10
178.4468
20
170.6850
30
0.0
0
VERTEX
8
CUT_INNER
10
178.8946
20
171.5806
30
0.0
0
VERTEX
8
CUT_INNER
10
177.7005
20
172.3269
30
0.0
0
VERTEX
8
CUT_INNER
10
177.7005
20
186.5071
30
0.0
0
SEQEND
8
CUT_INNER
0
POLYLINE
8
CUT_INNER
66
1
70
1
0
VERTEX
8
CUT_INNER
10
172.4762
20
186.9549
30
0.0
0
VERTEX
8
CUT_INNER
10
170.0880
20
186.5071
30
0.0
0
VERTEX
8
CUT_INNER
10
170.0880
20
181.5814
30
0.0
0
VERTEX
8
CUT_INNER
10
170.5357
20
181.1336
30
0.0
0
VERTEX
8
CUT_INNER
10
171.4313
20
181.5814
30
0.0
0
VERTEX
8
CUT_INNER
10
171.7299
20
183.9696
30
0.0
0
VERTEX
8
CUT_INNER
10
172.9240
20
185.4623
30
0.0
0
SEQEND
8
CUT_INNER
0
POLYLINE
8
CUT_INNER
66
1
70
1
0
VERTEX
8
CUT_INNER
10
157.6989
20
186.9549
30
0.0
0
VERTEX
8
CUT_INNER
10
157.2511
20
186.0594
30
0.0
0
VERTEX
8
CUT_INNER
10
158.7438
20
184.8652
30
0.0
0
VERTEX
8
CUT_INNER
10
158.7438
20
180.0887
30
0.0
0
VERTEX
8
CUT_INNER
10
160.0872
20
177.7005
30
0.0
0
VERTEX
8
CUT_INNER
10
160.3857
20
184.8652
30
0.0
0
VERTEX
8
CUT_INNER
10
161.8784
20
186.5071
30
0.0
0
SEQEND
8
CUT_INNER
0
POLYLINE
8
CUT_INNER
66
1
70
1
0
VERTEX
8
CUT_INNER
10
149.9371
20
186.9549
30
0.0
0
VERTEX
8
CUT_INNER
10
149.4893
20
186.0594
30
0.0
0
VERTEX
8
CUT_INNER
10
150.6834
20
184.8652
30
0.0
0
VERTEX
8
CUT_INNER
10
156.9526
20
171.4313
30
0.0
0
VERTEX
8
CUT_INNER
10
157.6989
20
170.6850
30
0.0
0
VERTEX
8
CUT_INNER
10
159.6394
20
170.6850
30
0.0
0
VERTEX
8
CUT_INNER
10
160.0872
20
175.1630
30
0.0
0
VERTEX
8
CUT_INNER
10
155.0121
20
186.2086
30
0.0
0
VERTEX
8
CUT_INNER
10
154.2658
20
186.9549
30
0.0
0
SEQEND
8
CUT_INNER
0
POLYLINE
8
CUT_INNER
66
1
70
1
0
VERTEX
8
CUT_INNER
10
143.0709
20
186.9549
30
0.0
0
VERTEX
8
CUT_INNER
10
142.6231
20
185.7608
30
0.0
0
VERTEX
8
CUT_INNER
10
144.7128
20
184.5667
30
0.0
0
VERTEX
8
CUT_INNER
10
146.2055
20
182.0292
30
0.0
0
VERTEX
8
CUT_INNER
10
146.6533
20
186.5071
30
0.0
0
SEQEND
8
CUT_INNER
0
POLYLINE
8
CUT_INNER
66
1
70
1
0
VERTEX
8
CUT_INNER
10
137.1003
20
186.9549
30
0.0
0
VERTEX
8
CUT_INNER
10
136.6525
20
186.0594
30
0.0
0
VERTEX
8
CUT_INNER
10
137.5481
20
185.3130
30
0.0
0
VERTEX
8
CUT_INNER
10
137.5481
20
172.3269
30
0.0
0
VERTEX
8
CUT_INNER
10
136.3540
20
171.1328
30
0.0
0
VERTEX
8
CUT_INNER
10
136.8018
20
170.6850
30
0.0
0
VERTEX
8
CUT_INNER
10
141.1305
20
170.6850
30
0.0
0
VERTEX
8
CUT_INNER
10
141.5783
20
171.1328
30
0.0
0
VERTEX
8
CUT_INNER
10
141.5783
20
186.5071
30
0.0
0
SEQEND
8
CUT_INNER
0
POLYLINE
8
CUT_INNER
66
1
70
1
0
VERTEX
8
CUT_INNER
10
133.9657
20
186.9549
30
0.0
0
VERTEX
8
CUT_INNER
10
130.8311
20
186.9549
30
0.0
0
VERTEX
8
CUT_INNER
10
130.0848
20
186.2086
30
0.0
0
VERTEX
8
CUT_INNER
10
131.5775
20
184.5667
30
0.0
0
VERTEX
8
CUT_INNER
10
130.0848
20
178.7453
30
0.0
0
VERTEX
8
CUT_INNER
10
130.6819
20
176.8049
30
0.0
0
VERTEX
8
CUT_INNER
10
131.4282
20
177.7005
30
0.0
0
VERTEX
8
CUT_INNER
10
132.9209
20
184.5667
30
0.0
0
VERTEX
8
CUT_INNER
10
134.4135
20
186.0594
30
0.0
0
SEQEND
8
CUT_INNER
0
POLYLINE
8
CUT_INNER
66
1
70
1
0
VERTEX
8
CUT_INNER
10
122.7708
20
186.9549
30
0.0
0
VERTEX
8
CUT_INNER
10
122.3230
20
186.0594
30
0.0
0
VERTEX
8
CUT_INNER
10
123.5171
20
184.5667
30
0.0
0
VERTEX
8
CUT_INNER
10
126.5024
20
171.4313
30
0.0
0
VERTEX
8
CUT_INNER
10
127.2488
20
170.6850
30
0.0
0
VERTEX
8
CUT_INNER
10
129.1892
20
170.6850
30
0.0
0
VERTEX
8
CUT_INNER
10
130.2341
20
174.5659
30
0.0
0
VERTEX
8
CUT_INNER
10
127.5473
20
184.7160
30
0.0
0
VERTEX
8
CUT_INNER
10
128.7414
20
186.5071
30
0.0
0
VERTEX
8
CUT_INNER
10
128.2936
20
186.9549
30
0.0
0
SEQEND
8
CUT_INNER
0
POLYLINE
8
CUT_INNER
66
1
70
1
0
VERTEX
8
CUT_INNER
10
115.0090
20
186.9549
30
0.0
0
VERTEX
8
CUT_INNER
10
114.2627
20
185.4623
30
0.0
0
VERTEX
8
CUT_INNER
10
116.0539
20
176.5064
30
0.0
0
VERTEX
8
CUT_INNER
10
114.4119
20
176.2078
30
0.0
0
VERTEX
8
CUT_INNER
10
113.9642
20
175.3122
30
0.0
0
VERTEX
8
CUT_INNER
10
116.6509
20
174.5659
30
0.0
0
VERTEX
8
CUT_INNER
10
116.9495
20
172.3269
30
0.0
0
VERTEX
8
CUT_INNER
10
116.0539
20
171.5806
30
0.0
0
VERTEX
8
CUT_INNER
10
116.5017
20
170.6850
30
0.0
0
VERTEX
8
CUT_INNER
10
122.0245
20
170.6850
30
0.0
0
VERTEX
8
CUT_INNER
10
122.4723
20
171.5806
30
0.0
0
VERTEX
8
CUT_INNER
10
121.2782
20
172.4762
30
0.0
0
VERTEX
8
CUT_INNER
10
118.5914
20
185.9101
30
0.0
0
VERTEX
8
CUT_INNER
10
117.8451
20
186.9549
30
0.0
0
SEQEND
8
CUT_INNER
0
POLYLINE
8
CUT_INNER
66
1
70
1
0
VERTEX
8
CUT_INNER
10
102.1722
20
186.9549
30
0.0
0
VERTEX
8
CUT_INNER
10
101.7244
20
186.0594
30
0.0
0
VERTEX
8
CUT_INNER
10
102.6200
20
185.1638
30
0.0
0
VERTEX
8
CUT_INNER
10
102.6200
20
179.9395
30
0.0
0
VERTEX
8
CUT_INNER
10
100.8288
20
179.3424
30
0.0
0
VERTEX
8
CUT_INNER
10
101.2766
20
178.1483
30
0.0
0
VERTEX
8
CUT_INNER
10
102.6200
20
177.8498
30
0.0
0
VERTEX
8
CUT_INNER
10
102.6200
20
172.3269
30
0.0
0
VERTEX
8
CUT_INNER
10
101.5751
20
171.2821
30
0.0
0
VERTEX
8
CUT_INNER
10
102.1722
20
170.6850
30
0.0
0
VERTEX
8
CUT_INNER
10
107.3965
20
170.6850
30
0.0
0
VERTEX
8
CUT_INNER
10
107.8443
20
171.5806
30
0.0
0
VERTEX
8
CUT_INNER
10
106.6501
20
172.4762
30
0.0
0
VERTEX
8
CUT_INNER
10
106.6501
20
185.1638
30
0.0
0
VERTEX
8
CUT_INNER
10
107.8443
20
186.5071
30
0.0
0
VERTEX
8
CUT_INNER
10
107.3965
20
186.9549
30
0.0
0
SEQEND
8
CUT_INNER
0
POLYLINE
8
CUT_INNER
66
1
70
1
0
VERTEX
8
CUT_INNER
10
95.3060
20
186.9549
30
0.0
0
VERTEX
8
CUT_INNER
10
94.7089
20
186.2086
30
0.0
0
VERTEX
8
CUT_INNER
10
95.7538
20
185.1638
30
0.0
0
VERTEX
8
CUT_INNER
10
95.7538
20
172.3269
30
0.0
0
VERTEX
8
CUT_INNER
10
94.5596
20
171.1328
30
0.0
0
VERTEX
8
CUT_INNER
10
95.0074
20
170.6850
30
0.0
0
VERTEX
8
CUT_INNER
10
100.5303
20
170.6850
30
0.0
0
VERTEX
8
CUT_INNER
10
100.9781
20
171.5806
30
0.0
0
VERTEX
8
CUT_INNER
10
99.7839
20
173.0733
30
0.0
0
VERTEX
8
CUT_INNER
10
100.0825
20
185.1638
30
0.0
0
VERTEX
8
CUT_INNER
10
100.9781
20
186.5071
30
0.0
0
VERTEX
8
CUT_INNER
10
100.5303
20
186.9549
30
0.0
0
SEQEND
8
CUT_INNER
0
POLYLINE
8
CUT_INNER
66
1
70
1
0
VERTEX
8
CUT_INNER
10
80.3794
20
186.9549
30
0.0
0
VERTEX
8
CUT_INNER
10
79.9316
20
186.0594
30
0.0
0
VERTEX
8
CUT_INNER
10
81.1258
20
185.1638
30
0.0
0
VERTEX
8
CUT_INNER
10
81.1258
20
172.3269
30
0.0
0
VERTEX
8
CUT_INNER
10
79.9316
20
171.1328
30
0.0
0
VERTEX
8
CUT_INNER
10
80.3794
20
170.6850
30
0.0
0
VERTEX
8
CUT_INNER
10
85.9023
20
170.6850
30
0.0
0
VERTEX
8
CUT_INNER
10
86.3500
20
171.5806
30
0.0
0
VERTEX
8
CUT_INNER
10
85.1559
20
172.4762
30
0.0
0
VERTEX
8
CUT_INNER
10
85.1559
20
185.1638
30
0.0
0
VERTEX
8
CUT_INNER
10
86.3500
20
186.5071
30
0.0
0
VERTEX
8
CUT_INNER
10
85.9023
20
186.9549
30
0.0
0
SEQEND
8
CUT_INNER
0
POLYLINE
8
CUT_INNER
66
1
70
1
0
VERTEX
8
CUT_INNER
10
166.2071
20
187.2535
30
0.0
0
VERTEX
8
CUT_INNER
10
164.8637
20
186.9549
30
0.0
0
VERTEX
8
CUT_INNER
10
163.8188
20
185.3130
30
0.0
0
VERTEX
8
CUT_INNER
10
164.1173
20
183.9696
30
0.0
0
VERTEX
8
CUT_INNER
10
165.9085
20
182.6262
30
0.0
0
VERTEX
8
CUT_INNER
10
163.8188
20
180.5365
30
0.0
0
VERTEX
8
CUT_INNER
10
164.2666
20
179.9395
30
0.0
0
VERTEX
8
CUT_INNER
10
166.6548
20
181.2829
30
0.0
0
VERTEX
8
CUT_INNER
10
167.8490
20
183.6711
30
0.0
0
VERTEX
8
CUT_INNER
10
167.8490
20
185.3130
30
0.0
0
SEQEND
8
CUT_INNER
0
ENDSEC
0
EOF
