0
SECTION
2
HEADER
9
$ACADVER
1
AC1009
9
$INSUNITS
70
4
0
ENDSEC
0
SECTION
2
ENTITIES
0
POLYLINE
8
CUT_OUTER
66
1
70
1
0
VERTEX
8
CUT_OUTER
10
304.8000
20
152.4000
30
0.0
0
VERTEX
8
CUT_OUTER
10
304.7942
20
151.0701
30
0.0
0
VERTEX
8
CUT_OUTER
10
304.7768
20
149.7403
30
0.0
0
VERTEX
8
CUT_OUTER
10
304.7478
20
148.4106
30
0.0
0
VERTEX
8
CUT_OUTER
10
304.7072
20
147.0813
30
0.0
0
VERTEX
8
CUT_OUTER
10
304.6549
20
145.7524
30
0.0
0
VERTEX
8
CUT_OUTER
10
304.5911
20
144.4240
30
0.0
0
VERTEX
8
CUT_OUTER
10
304.5157
20
143.0962
30
0.0
0
VERTEX
8
CUT_OUTER
10
304.4288
20
141.7691
30
0.0
0
VERTEX
8
CUT_OUTER
10
304.3302
20
140.4428
30
0.0
0
VERTEX
8
CUT_OUTER
10
304.2201
20
139.1175
30
0.0
0
VERTEX
8
CUT_OUTER
10
304.0984
20
137.7931
30
0.0
0
VERTEX
8
CUT_OUTER
10
303.9651
20
136.4699
30
0.0
0
VERTEX
8
CUT_OUTER
10
303.8204
20
135.1478
30
0.0
0
VERTEX
8
CUT_OUTER
10
303.6640
20
133.8271
30
0.0
0
VERTEX
8
CUT_OUTER
10
303.4962
20
132.5078
30
0.0
0
VERTEX
8
CUT_OUTER
10
303.3169
20
131.1900
30
0.0
0
VERTEX
8
CUT_OUTER
10
303.1260
20
129.8738
30
0.0
0
VERTEX
8
CUT_OUTER
10
302.9237
20
128.5594
30
0.0
0
VERTEX
8
CUT_OUTER
10
302.7099
20
127.2467
30
0.0
0
VERTEX
8
CUT_OUTER
10
302.4847
20
125.9360
30
0.0
0
VERTEX
8
CUT_OUTER
10
302.2480
20
124.6273
30
0.0
0
VERTEX
8
CUT_OUTER
10
302.0000
20
123.3207
30
0.0
0
VERTEX
8
CUT_OUTER
10
301.7405
20
122.0163
30
0.0
0
VERTEX
8
CUT_OUTER
10
301.4697
20
120.7143
30
0.0
0
VERTEX
8
CUT_OUTER
10
301.1875
20
119.4146
30
0.0
0
VERTEX
8
CUT_OUTER
10
300.8940
20
118.1175
30
0.0
0
VERTEX
8
CUT_OUTER
10
300.5892
20
116.8229
30
0.0
0
VERTEX
8
CUT_OUTER
10
300.2731
20
115.5311
30
0.0
0
VERTEX
8
CUT_OUTER
10
299.9457
20
114.2421
30
0.0
0
VERTEX
8
CUT_OUTER
10
299.6071
20
112.9560
30
0.0
0
VERTEX
8
CUT_OUTER
10
299.2573
20
111.6729
30
0.0
0
VERTEX
8
CUT_OUTER
10
298.8963
20
110.3929
30
0.0
0
VERTEX
8
CUT_OUTER
10
298.5241
20
109.1161
30
0.0
0
VERTEX
8
CUT_OUTER
10
298.1408
20
107.8426
30
0.0
0
VERTEX
8
CUT_OUTER
10
297.7465
20
106.5724
30
0.0
0
VERTEX
8
CUT_OUTER
10
297.3410
20
105.3058
30
0.0
0
VERTEX
8
CUT_OUTER
10
296.9245
20
104.0428
30
0.0
0
VERTEX
8
CUT_OUTER
10
296.4970
20
102.7834
30
0.0
0
VERTEX
8
CUT_OUTER
10
296.0586
20
101.5278
30
0.0
0
VERTEX
8
CUT_OUTER
10
295.6092
20
100.2761
30
0.0
0
VERTEX
8
CUT_OUTER
10
295.1488
20
99.0284
30
0.0
0
VERTEX
8
CUT_OUTER
10
294.6777
20
97.7847
30
0.0
0
VERTEX
8
CUT_OUTER
10
294.1956
20
96.5452
30
0.0
0
VERTEX
8
CUT_OUTER
10
293.7028
20
95.3100
30
0.0
0
VERTEX
8
CUT_OUTER
10
293.1992
20
94.0790
30
0.0
0
VERTEX
8
CUT_OUTER
10
292.6849
20
92.8526
30
0.0
0
VERTEX
8
CUT_OUTER
10
292.1600
20
91.6306
30
0.0
0
VERTEX
8
CUT_OUTER
10
291.6243
20
90.4133
30
0.0
0
VERTEX
8
CUT_OUTER
10
291.0781
20
89.2007
30
0.0
0
VERTEX
8
CUT_OUTER
10
290.5213
20
87.9930
30
0.0
0
VERTEX
8
CUT_OUTER
10
289.9540
20
86.7901
30
0.0
0
VERTEX
8
CUT_OUTER
10
289.3762
20
85.5922
30
0.0
0
VERTEX
8
CUT_OUTER
10
288.7880
20
84.3995
30
0.0
0
VERTEX
8
CUT_OUTER
10
288.1894
20
83.2118
30
0.0
0
VERTEX
8
CUT_OUTER
10
287.5805
20
82.0295
30
0.0
0
VERTEX
8
CUT_OUTER
10
286.9612
20
80.8525
30
0.0
0
VERTEX
8
CUT_OUTER
10
286.3317
20
79.6810
30
0.0
0
VERTEX
8
CUT_OUTER
10
285.6920
20
78.5150
30
0.0
0
VERTEX
8
CUT_OUTER
10
285.0422
20
77.3546
30
0.0
0
VERTEX
8
CUT_OUTER
10
284.3823
20
76.2000
30
0.0
0
VERTEX
8
CUT_OUTER
10
283.7123
20
75.0512
30
0.0
0
VERTEX
8
CUT_OUTER
10
283.0323
20
73.9082
30
0.0
0
VERTEX
8
CUT_OUTER
10
282.3424
20
72.7712
30
0.0
0
VERTEX
8
CUT_OUTER
10
281.6425
20
71.6403
30
0.0
0
VERTEX
8
CUT_OUTER
10
280.9329
20
70.5155
30
0.0
0
VERTEX
8
CUT_OUTER
10
280.2134
20
69.3970
30
0.0
0
VERTEX
8
CUT_OUTER
10
279.4842
20
68.2848
30
0.0
0
VERTEX
8
CUT_OUTER
10
278.7453
20
67.1790
30
0.0
0
VERTEX
8
CUT_OUTER
10
277.9968
20
66.0797
30
0.0
0
VERTEX
8
CUT_OUTER
10
277.2388
20
64.9870
30
0.0
0
VERTEX
8
CUT_OUTER
10
276.4712
20
63.9009
30
0.0
0
VERTEX
8
CUT_OUTER
10
275.6942
20
62.8215
30
0.0
0
VERTEX
8
CUT_OUTER
10
274.9078
20
61.7490
30
0.0
0
VERTEX
8
CUT_OUTER
10
274.1121
20
60.6834
30
0.0
0
VERTEX
8
CUT_OUTER
10
273.3070
20
59.6248
30
0.0
0
VERTEX
8
CUT_OUTER
10
272.4928
20
58.5732
30
0.0
0
VERTEX
8
CUT_OUTER
10
271.6695
20
57.5288
30
0.0
0
VERTEX
8
CUT_OUTER
10
270.8370
20
56.4916
30
0.0
0
VERTEX
8
CUT_OUTER
10
269.9956
20
55.4617
30
0.0
0
VERTEX
8
CUT_OUTER
10
269.1452
20
54.4392
30
0.0
0
VERTEX
8
CUT_OUTER
10
268.2859
20
53.4241
30
0.0
0
VERTEX
8
CUT_OUTER
10
267.4177
20
52.4166
30
0.0
0
VERTEX
8
CUT_OUTER
10
266.5409
20
51.4167
30
0.0
0
VERTEX
8
CUT_OUTER
10
265.6553
20
50.4245
30
0.0
0
VERTEX
8
CUT_OUTER
10
264.7611
20
49.4401
30
0.0
0
VERTEX
8
CUT_OUTER
10
263.8583
20
48.4634
30
0.0
0
VERTEX
8
CUT_OUTER
10
262.9471
20
47.4948
30
0.0
0
VERTEX
8
CUT_OUTER
10
262.0274
20
46.5341
30
0.0
0
VERTEX
8
CUT_OUTER
10
261.0994
20
45.5814
30
0.0
0
VERTEX
8
CUT_OUTER
10
260.1631
20
44.6369
30
0.0
0
VERTEX
8
CUT_OUTER
10
259.2186
20
43.7006
30
0.0
0
VERTEX
8
CUT_OUTER
10
258.2659
20
42.7726
30
0.0
0
VERTEX
8
CUT_OUTER
10
257.3052
20
41.8529
30
0.0
0
VERTEX
8
CUT_OUTER
10
256.3366
20
40.9417
30
0.0
0
VERTEX
8
CUT_OUTER
10
255.3599
20
40.0389
30
0.0
0
VERTEX
8
CUT_OUTER
10
254.3755
20
39.1447
30
0.0
0
VERTEX
8
CUT_OUTER
10
253.3833
20
38.2591
30
0.0
0
VERTEX
8
CUT_OUTER
10
252.3834
20
37.3823
30
0.0
0
VERTEX
8
CUT_OUTER
10
251.3759
20
36.5141
30
0.0
0
VERTEX
8
CUT_OUTER
10
250.3608
20
35.6548
30
0.0
0
VERTEX
8
CUT_OUTER
10
249.3383
20
34.8044
30
0.0
0
VERTEX
8
CUT_OUTER
10
248.3084
20
33.9630
30
0.0
0
VERTEX
8
CUT_OUTER
10
247.2712
20
33.1305
30
0.0
0
VERTEX
8
CUT_OUTER
10
246.2268
20
32.3072
30
0.0
0
VERTEX
8
CUT_OUTER
10
245.1752
20
31.4930
30
0.0
0
VERTEX
8
CUT_OUTER
10
244.1166
20
30.6879
30
0.0
0
VERTEX
8
CUT_OUTER
10
243.0510
20
29.8922
30
0.0
0
VERTEX
8
CUT_OUTER
10
241.9785
20
29.1058
30
0.0
0
VERTEX
8
CUT_OUTER
10
240.8991
20
28.3288
30
0.0
0
VERTEX
8
CUT_OUTER
10
239.8130
20
27.5612
30
0.0
0
VERTEX
8
CUT_OUTER
10
238.7203
20
26.8032
30
0.0
0
VERTEX
8
CUT_OUTER
10
237.6210
20
26.0547
30
0.0
0
VERTEX
8
CUT_OUTER
10
236.5152
20
25.3158
30
0.0
0
VERTEX
8
CUT_OUTER
10
235.4030
20
24.5866
30
0.0
0
VERTEX
8
CUT_OUTER
10
234.2845
20
23.8671
30
0.0
0
VERTEX
8
CUT_OUTER
10
233.1597
20
23.1575
30
0.0
0
VERTEX
8
CUT_OUTER
10
232.0288
20
22.4576
30
0.0
0
VERTEX
8
CUT_OUTER
10
230.8918
20
21.7677
30
0.0
0
VERTEX
8
CUT_OUTER
10
229.7488
20
21.0877
30
0.0
0
VERTEX
8
CUT_OUTER
10
228.6000
20
20.4177
30
0.0
0
VERTEX
8
CUT_OUTER
10
227.4454
20
19.7578
30
0.0
0
VERTEX
8
CUT_OUTER
10
226.2850
20
19.1080
30
0.0
0
VERTEX
8
CUT_OUTER
10
225.1190
20
18.4683
30
0.0
0
VERTEX
8
CUT_OUTER
10
223.9475
20
17.8388
30
0.0
0
VERTEX
8
CUT_OUTER
10
222.7705
20
17.2195
30
0.0
0
VERTEX
8
CUT_OUTER
10
221.5882
20
16.6106
30
0.0
0
VERTEX
8
CUT_OUTER
10
220.4005
20
16.0120
30
0.0
0
VERTEX
8
CUT_OUTER
10
219.2078
20
15.4238
30
0.0
0
VERTEX
8
CUT_OUTER
10
218.0099
20
14.8460
30
0.0
0
VERTEX
8
CUT_OUTER
10
216.8070
20
14.2787
30
0.0
0
VERTEX
8
CUT_OUTER
10
215.5993
20
13.7219
30
0.0
0
VERTEX
8
CUT_OUTER
10
214.3867
20
13.1757
30
0.0
0
VERTEX
8
CUT_OUTER
10
213.1694
20
12.6400
30
0.0
0
VERTEX
8
CUT_OUTER
10
211.9474
20
12.1151
30
0.0
0
VERTEX
8
CUT_OUTER
10
210.7210
20
11.6008
30
0.0
0
VERTEX
8
CUT_OUTER
10
209.4900
20
11.0972
30
0.0
0
VERTEX
8
CUT_OUTER
10
208.2548
20
10.6044
30
0.0
0
VERTEX
8
CUT_OUTER
10
207.0153
20
10.1223
30
0.0
0
VERTEX
8
CUT_OUTER
10
205.7716
20
9.6512
30
0.0
0
VERTEX
8
CUT_OUTER
10
204.5239
20
9.1908
30
0.0
0
VERTEX
8
CUT_OUTER
10
203.2722
20
8.7414
30
0.0
0
VERTEX
8
CUT_OUTER
10
202.0166
20
8.3030
30
0.0
0
VERTEX
8
CUT_OUTER
10
200.7572
20
7.8755
30
0.0
0
VERTEX
8
CUT_OUTER
10
199.4942
20
7.4590
30
0.0
0
VERTEX
8
CUT_OUTER
10
198.2276
20
7.0535
30
0.0
0
VERTEX
8
CUT_OUTER
10
196.9574
20
6.6592
30
0.0
0
VERTEX
8
CUT_OUTER
10
195.6839
20
6.2759
30
0.0
0
VERTEX
8
CUT_OUTER
10
194.4071
20
5.9037
30
0.0
0
VERTEX
8
CUT_OUTER
10
193.1271
20
5.5427
30
0.0
0
VERTEX
8
CUT_OUTER
10
191.8440
20
5.1929
30
0.0
0
VERTEX
8
CUT_OUTER
10
190.5579
20
4.8543
30
0.0
0
VERTEX
8
CUT_OUTER
10
189.2689
20
4.5269
30
0.0
0
VERTEX
8
CUT_OUTER
10
187.9771
20
4.2108
30
0.0
0
VERTEX
8
CUT_OUTER
10
186.6825
20
3.9060
30
0.0
0
VERTEX
8
CUT_OUTER
10
185.3854
20
3.6125
30
0.0
0
VERTEX
8
CUT_OUTER
10
184.0857
20
3.3303
30
0.0
0
VERTEX
8
CUT_OUTER
10
182.7837
20
3.0595
30
0.0
0
VERTEX
8
CUT_OUTER
10
181.4793
20
2.8000
30
0.0
0
VERTEX
8
CUT_OUTER
10
180.1727
20
2.5520
30
0.0
0
VERTEX
8
CUT_OUTER
10
178.8640
20
2.3153
30
0.0
0
VERTEX
8
CUT_OUTER
10
177.5533
20
2.0901
30
0.0
0
VERTEX
8
CUT_OUTER
10
176.2406
20
1.8763
30
0.0
0
VERTEX
8
CUT_OUTER
10
174.9262
20
1.6740
30
0.0
0
VERTEX
8
CUT_OUTER
10
173.6100
20
1.4831
30
0.0
0
VERTEX
8
CUT_OUTER
10
172.2922
20
1.3038
30
0.0
0
VERTEX
8
CUT_OUTER
10
170.9729
20
1.1360
30
0.0
0
VERTEX
8
CUT_OUTER
10
169.6522
20
0.9796
30
0.0
0
VERTEX
8
CUT_OUTER
10
168.3301
20
0.8349
30
0.0
0
VERTEX
8
CUT_OUTER
10
167.0069
20
0.7016
30
0.0
0
VERTEX
8
CUT_OUTER
10
165.6825
20
0.5799
30
0.0
0
VERTEX
8
CUT_OUTER
10
164.3572
20
0.4698
30
0.0
0
VERTEX
8
CUT_OUTER
10
163.0309
20
0.3712
30
0.0
0
VERTEX
8
CUT_OUTER
10
161.7038
20
0.2843
30
0.0
0
VERTEX
8
CUT_OUTER
10
160.3760
20
0.2089
30
0.0
0
VERTEX
8
CUT_OUTER
10
159.0476
20
0.1451
30
0.0
0
VERTEX
8
CUT_OUTER
10
157.7187
20
0.0928
30
0.0
0
VERTEX
8
CUT_OUTER
10
156.3894
20
0.0522
30
0.0
0
VERTEX
8
CUT_OUTER
10
155.0597
20
0.0232
30
0.0
0
VERTEX
8
CUT_OUTER
10
153.7299
20
0.0058
30
0.0
0
VERTEX
8
CUT_OUTER
10
152.4000
20
0.0000
30
0.0
0
VERTEX
8
CUT_OUTER
10
151.0701
20
0.0058
30
0.0
0
VERTEX
8
CUT_OUTER
10
149.7403
20
0.0232
30
0.0
0
VERTEX
8
CUT_OUTER
10
148.4106
20
0.0522
30
0.0
0
VERTEX
8
CUT_OUTER
10
147.0813
20
0.0928
30
0.0
0
VERTEX
8
CUT_OUTER
10
145.7524
20
0.1451
30
0.0
0
VERTEX
8
CUT_OUTER
10
144.4240
20
0.2089
30
0.0
0
VERTEX
8
CUT_OUTER
10
143.0962
20
0.2843
30
0.0
0
VERTEX
8
CUT_OUTER
10
141.7691
20
0.3712
30
0.0
0
VERTEX
8
CUT_OUTER
10
140.4428
20
0.4698
30
0.0
0
VERTEX
8
CUT_OUTER
10
139.1175
20
0.5799
30
0.0
0
VERTEX
8
CUT_OUTER
10
137.7931
20
0.7016
30
0.0
0
VERTEX
8
CUT_OUTER
10
136.4699
20
0.8349
30
0.0
0
VERTEX
8
CUT_OUTER
10
135.1478
20
0.9796
30
0.0
0
VERTEX
8
CUT_OUTER
10
133.8271
20
1.1360
30
0.0
0
VERTEX
8
CUT_OUTER
10
132.5078
20
1.3038
30
0.0
0
VERTEX
8
CUT_OUTER
10
131.1900
20
1.4831
30
0.0
0
VERTEX
8
CUT_OUTER
10
129.8738
20
1.6740
30
0.0
0
VERTEX
8
CUT_OUTER
10
128.5594
20
1.8763
30
0.0
0
VERTEX
8
CUT_OUTER
10
127.2467
20
2.0901
30
0.0
0
VERTEX
8
CUT_OUTER
10
125.9360
20
2.3153
30
0.0
0
VERTEX
8
CUT_OUTER
10
124.6273
20
2.5520
30
0.0
0
VERTEX
8
CUT_OUTER
10
123.3207
20
2.8000
30
0.0
0
VERTEX
8
CUT_OUTER
10
122.0163
20
3.0595
30
0.0
0
VERTEX
8
CUT_OUTER
10
120.7143
20
3.3303
30
0.0
0
VERTEX
8
CUT_OUTER
10
119.4146
20
3.6125
30
0.0
0
VERTEX
8
CUT_OUTER
10
118.1175
20
3.9060
30
0.0
0
VERTEX
8
CUT_OUTER
10
116.8229
20
4.2108
30
0.0
0
VERTEX
8
CUT_OUTER
10
115.5311
20
4.5269
30
0.0
0
VERTEX
8
CUT_OUTER
10
114.2421
20
4.8543
30
0.0
0
VERTEX
8
CUT_OUTER
10
112.9560
20
5.1929
30
0.0
0
VERTEX
8
CUT_OUTER
10
111.6729
20
5.5427
30
0.0
0
VERTEX
8
CUT_OUTER
10
110.3929
20
5.9037
30
0.0
0
VERTEX
8
CUT_OUTER
10
109.1161
20
6.2759
30
0.0
0
VERTEX
8
CUT_OUTER
10
107.8426
20
6.6592
30
0.0
0
VERTEX
8
CUT_OUTER
10
106.5724
20
7.0535
30
0.0
0
VERTEX
8
CUT_OUTER
10
105.3058
20
7.4590
30
0.0
0
VERTEX
8
CUT_OUTER
10
104.0428
20
7.8755
30
0.0
0
VERTEX
8
CUT_OUTER
10
102.7834
20
8.3030
30
0.0
0
VERTEX
8
CUT_OUTER
10
101.5278
20
8.7414
30
0.0
0
VERTEX
8
CUT_OUTER
10
100.2761
20
9.1908
30
0.0
0
VERTEX
8
CUT_OUTER
10
99.0284
20
9.6512
30
0.0
0
VERTEX
8
CUT_OUTER
10
97.7847
20
10.1223
30
0.0
0
VERTEX
8
CUT_OUTER
10
96.5452
20
10.6044
30
0.0
0
VERTEX
8
CUT_OUTER
10
95.3100
20
11.0972
30
0.0
0
VERTEX
8
CUT_OUTER
10
94.0790
20
11.6008
30
0.0
0
VERTEX
8
CUT_OUTER
10
92.8526
20
12.1151
30
0.0
0
VERTEX
8
CUT_OUTER
10
91.6306
20
12.6400
30
0.0
0
VERTEX
8
CUT_OUTER
10
90.4133
20
13.1757
30
0.0
0
VERTEX
8
CUT_OUTER
10
89.2007
20
13.7219
30
0.0
0
VERTEX
8
CUT_OUTER
10
87.9930
20
14.2787
30
0.0
0
VERTEX
8
CUT_OUTER
10
86.7901
20
14.8460
30
0.0
0
VERTEX
8
CUT_OUTER
10
85.5922
20
15.4238
30
0.0
0
VERTEX
8
CUT_OUTER
10
84.3995
20
16.0120
30
0.0
0
VERTEX
8
CUT_OUTER
10
83.2118
20
16.6106
30
0.0
0
VERTEX
8
CUT_OUTER
10
82.0295
20
17.2195
30
0.0
0
VERTEX
8
CUT_OUTER
10
80.8525
20
17.8388
30
0.0
0
VERTEX
8
CUT_OUTER
10
79.6810
20
18.4683
30
0.0
0
VERTEX
8
CUT_OUTER
10
78.5150
20
19.1080
30
0.0
0
VERTEX
8
CUT_OUTER
10
77.3546
20
19.7578
30
0.0
0
VERTEX
8
CUT_OUTER
10
76.2000
20
20.4177
30
0.0
0
VERTEX
8
CUT_OUTER
10
75.0512
20
21.0877
30
0.0
0
VERTEX
8
CUT_OUTER
10
73.9082
20
21.7677
30
0.0
0
VERTEX
8
CUT_OUTER
10
72.7712
20
22.4576
30
0.0
0
VERTEX
8
CUT_OUTER
10
71.6403
20
23.1575
30
0.0
0
VERTEX
8
CUT_OUTER
10
70.5155
20
23.8671
30
0.0
0
VERTEX
8
CUT_OUTER
10
69.3970
20
24.5866
30
0.0
0
VERTEX
8
CUT_OUTER
10
68.2848
20
25.3158
30
0.0
0
VERTEX
8
CUT_OUTER
10
67.1790
20
26.0547
30
0.0
0
VERTEX
8
CUT_OUTER
10
66.0797
20
26.8032
30
0.0
0
VERTEX
8
CUT_OUTER
10
64.9870
20
27.5612
30
0.0
0
VERTEX
8
CUT_OUTER
10
63.9009
20
28.3288
30
0.0
0
VERTEX
8
CUT_OUTER
10
62.8215
20
29.1058
30
0.0
0
VERTEX
8
CUT_OUTER
10
61.7490
20
29.8922
30
0.0
0
VERTEX
8
CUT_OUTER
10
60.6834
20
30.6879
30
0.0
0
VERTEX
8
CUT_OUTER
10
59.6248
20
31.4930
30
0.0
0
VERTEX
8
CUT_OUTER
10
58.5732
20
32.3072
30
0.0
0
VERTEX
8
CUT_OUTER
10
57.5288
20
33.1305
30
0.0
0
VERTEX
8
CUT_OUTER
10
56.4916
20
33.9630
30
0.0
0
VERTEX
8
CUT_OUTER
10
55.4617
20
34.8044
30
0.0
0
VERTEX
8
CUT_OUTER
10
54.4392
20
35.6548
30
0.0
0
VERTEX
8
CUT_OUTER
10
53.4241
20
36.5141
30
0.0
0
VERTEX
8
CUT_OUTER
10
52.4166
20
37.3823
30
0.0
0
VERTEX
8
CUT_OUTER
10
51.4167
20
38.2591
30
0.0
0
VERTEX
8
CUT_OUTER
10
50.4245
20
39.1447
30
0.0
0
VERTEX
8
CUT_OUTER
10
49.4401
20
40.0389
30
0.0
0
VERTEX
8
CUT_OUTER
10
48.4634
20
40.9417
30
0.0
0
VERTEX
8
CUT_OUTER
10
47.4948
20
41.8529
30
0.0
0
VERTEX
8
CUT_OUTER
10
46.5341
20
42.7726
30
0.0
0
VERTEX
8
CUT_OUTER
10
45.5814
20
43.7006
30
0.0
0
VERTEX
8
CUT_OUTER
10
44.6369
20
44.6369
30
0.0
0
VERTEX
8
CUT_OUTER
10
43.7006
20
45.5814
30
0.0
0
VERTEX
8
CUT_OUTER
10
42.7726
20
46.5341
30
0.0
0
VERTEX
8
CUT_OUTER
10
41.8529
20
47.4948
30
0.0
0
VERTEX
8
CUT_OUTER
10
40.9417
20
48.4634
30
0.0
0
VERTEX
8
CUT_OUTER
10
40.0389
20
49.4401
30
0.0
0
VERTEX
8
CUT_OUTER
10
39.1447
20
50.4245
30
0.0
0
VERTEX
8
CUT_OUTER
10
38.2591
20
51.4167
30
0.0
0
VERTEX
8
CUT_OUTER
10
37.3823
20
52.4166
30
0.0
0
VERTEX
8
CUT_OUTER
10
36.5141
20
53.4241
30
0.0
0
VERTEX
8
CUT_OUTER
10
35.6548
20
54.4392
30
0.0
0
VERTEX
8
CUT_OUTER
10
34.8044
20
55.4617
30
0.0
0
VERTEX
8
CUT_OUTER
10
33.9630
20
56.4916
30
0.0
0
VERTEX
8
CUT_OUTER
10
33.1305
20
57.5288
30
0.0
0
VERTEX
8
CUT_OUTER
10
32.3072
20
58.5732
30
0.0
0
VERTEX
8
CUT_OUTER
10
31.4930
20
59.6248
30
0.0
0
VERTEX
8
CUT_OUTER
10
30.6879
20
60.6834
30
0.0
0
VERTEX
8
CUT_OUTER
10
29.8922
20
61.7490
30
0.0
0
VERTEX
8
CUT_OUTER
10
29.1058
20
62.8215
30
0.0
0
VERTEX
8
CUT_OUTER
10
28.3288
20
63.9009
30
0.0
0
VERTEX
8
CUT_OUTER
10
27.5612
20
64.9870
30
0.0
0
VERTEX
8
CUT_OUTER
10
26.8032
20
66.0797
30
0.0
0
VERTEX
8
CUT_OUTER
10
26.0547
20
67.1790
30
0.0
0
VERTEX
8
CUT_OUTER
10
25.3158
20
68.2848
30
0.0
0
VERTEX
8
CUT_OUTER
10
24.5866
20
69.3970
30
0.0
0
VERTEX
8
CUT_OUTER
10
23.8671
20
70.5155
30
0.0
0
VERTEX
8
CUT_OUTER
10
23.1575
20
71.6403
30
0.0
0
VERTEX
8
CUT_OUTER
10
22.4576
20
72.7712
30
0.0
0
VERTEX
8
CUT_OUTER
10
21.7677
20
73.9082
30
0.0
0
VERTEX
8
CUT_OUTER
10
21.0877
20
75.0512
30
0.0
0
VERTEX
8
CUT_OUTER
10
20.4177
20
76.2000
30
0.0
0
VERTEX
8
CUT_OUTER
10
19.7578
20
77.3546
30
0.0
0
VERTEX
8
CUT_OUTER
10
19.1080
20
78.5150
30
0.0
0
VERTEX
8
CUT_OUTER
10
18.4683
20
79.6810
30
0.0
0
VERTEX
8
CUT_OUTER
10
17.8388
20
80.8525
30
0.0
0
VERTEX
8
CUT_OUTER
10
17.2195
20
82.0295
30
0.0
0
VERTEX
8
CUT_OUTER
10
16.6106
20
83.2118
30
0.0
0
VERTEX
8
CUT_OUTER
10
16.0120
20
84.3995
30
0.0
0
VERTEX
8
CUT_OUTER
10
15.4238
20
85.5922
30
0.0
0
VERTEX
8
CUT_OUTER
10
14.8460
20
86.7901
30
0.0
0
VERTEX
8
CUT_OUTER
10
14.2787
20
87.9930
30
0.0
0
VERTEX
8
CUT_OUTER
10
13.7219
20
89.2007
30
0.0
0
VERTEX
8
CUT_OUTER
10
13.1757
20
90.4133
30
0.0
0
VERTEX
8
CUT_OUTER
10
12.6400
20
91.6306
30
0.0
0
VERTEX
8
CUT_OUTER
10
12.1151
20
92.8526
30
0.0
0
VERTEX
8
CUT_OUTER
10
11.6008
20
94.0790
30
0.0
0
VERTEX
8
CUT_OUTER
10
11.0972
20
95.3100
30
0.0
0
VERTEX
8
CUT_OUTER
10
10.6044
20
96.5452
30
0.0
0
VERTEX
8
CUT_OUTER
10
10.1223
20
97.7847
30
0.0
0
VERTEX
8
CUT_OUTER
10
9.6512
20
99.0284
30
0.0
0
VERTEX
8
CUT_OUTER
10
9.1908
20
100.2761
30
0.0
0
VERTEX
8
CUT_OUTER
10
8.7414
20
101.5278
30
0.0
0
VERTEX
8
CUT_OUTER
10
8.3030
20
102.7834
30
0.0
0
VERTEX
8
CUT_OUTER
10
7.8755
20
104.0428
30
0.0
0
VERTEX
8
CUT_OUTER
10
7.4590
20
105.3058
30
0.0
0
VERTEX
8
CUT_OUTER
10
7.0535
20
106.5724
30
0.0
0
VERTEX
8
CUT_OUTER
10
6.6592
20
107.8426
30
0.0
0
VERTEX
8
CUT_OUTER
10
6.2759
20
109.1161
30
0.0
0
VERTEX
8
CUT_OUTER
10
5.9037
20
110.3929
30
0.0
0
VERTEX
8
CUT_OUTER
10
5.5427
20
111.6729
30
0.0
0
VERTEX
8
CUT_OUTER
10
5.1929
20
112.9560
30
0.0
0
VERTEX
8
CUT_OUTER
10
4.8543
20
114.2421
30
0.0
0
VERTEX
8
CUT_OUTER
10
4.5269
20
115.5311
30
0.0
0
VERTEX
8
CUT_OUTER
10
4.2108
20
116.8229
30
0.0
0
VERTEX
8
CUT_OUTER
10
3.9060
20
118.1175
30
0.0
0
VERTEX
8
CUT_OUTER
10
3.6125
20
119.4146
30
0.0
0
VERTEX
8
CUT_OUTER
10
3.3303
20
120.7143
30
0.0
0
VERTEX
8
CUT_OUTER
10
3.0595
20
122.0163
30
0.0
0
VERTEX
8
CUT_OUTER
10
2.8000
20
123.3207
30
0.0
0
VERTEX
8
CUT_OUTER
10
2.5520
20
124.6273
30
0.0
0
VERTEX
8
CUT_OUTER
10
2.3153
20
125.9360
30
0.0
0
VERTEX
8
CUT_OUTER
10
2.0901
20
127.2467
30
0.0
0
VERTEX
8
CUT_OUTER
10
1.8763
20
128.5594
30
0.0
0
VERTEX
8
CUT_OUTER
10
1.6740
20
129.8738
30
0.0
0
VERTEX
8
CUT_OUTER
10
1.4831
20
131.1900
30
0.0
0
VERTEX
8
CUT_OUTER
10
1.3038
20
132.5078
30
0.0
0
VERTEX
8
CUT_OUTER
10
1.1360
20
133.8271
30
0.0
0
VERTEX
8
CUT_OUTER
10
0.9796
20
135.1478
30
0.0
0
VERTEX
8
CUT_OUTER
10
0.8349
20
136.4699
30
0.0
0
VERTEX
8
CUT_OUTER
10
0.7016
20
137.7931
30
0.0
0
VERTEX
8
CUT_OUTER
10
0.5799
20
139.1175
30
0.0
0
VERTEX
8
CUT_OUTER
10
0.4698
20
140.4428
30
0.0
0
VERTEX
8
CUT_OUTER
10
0.3712
20
141.7691
30
0.0
0
VERTEX
8
CUT_OUTER
10
0.2843
20
143.0962
30
0.0
0
VERTEX
8
CUT_OUTER
10
0.2089
20
144.4240
30
0.0
0
VERTEX
8
CUT_OUTER
10
0.1451
20
145.7524
30
0.0
0
VERTEX
8
CUT_OUTER
10
0.0928
20
147.0813
30
0.0
0
VERTEX
8
CUT_OUTER
10
0.0522
20
148.4106
30
0.0
0
VERTEX
8
CUT_OUTER
10
0.0232
20
149.7403
30
0.0
0
VERTEX
8
CUT_OUTER
10
0.0058
20
151.0701
30
0.0
0
VERTEX
8
CUT_OUTER
10
0.0000
20
152.4000
30
0.0
0
VERTEX
8
CUT_OUTER
10
0.0058
20
153.7299
30
0.0
0
VERTEX
8
CUT_OUTER
10
0.0232
20
155.0597
30
0.0
0
VERTEX
8
CUT_OUTER
10
0.0522
20
156.3894
30
0.0
0
VERTEX
8
CUT_OUTER
10
0.0928
20
157.7187
30
0.0
0
VERTEX
8
CUT_OUTER
10
0.1451
20
159.0476
30
0.0
0
VERTEX
8
CUT_OUTER
10
0.2089
20
160.3760
30
0.0
0
VERTEX
8
CUT_OUTER
10
0.2843
20
161.7038
30
0.0
0
VERTEX
8
CUT_OUTER
10
0.3712
20
163.0309
30
0.0
0
VERTEX
8
CUT_OUTER
10
0.4698
20
164.3572
30
0.0
0
VERTEX
8
CUT_OUTER
10
0.5799
20
165.6825
30
0.0
0
VERTEX
8
CUT_OUTER
10
0.7016
20
167.0069
30
0.0
0
VERTEX
8
CUT_OUTER
10
0.8349
20
168.3301
30
0.0
0
VERTEX
8
CUT_OUTER
10
0.9796
20
169.6522
30
0.0
0
VERTEX
8
CUT_OUTER
10
1.1360
20
170.9729
30
0.0
0
VERTEX
8
CUT_OUTER
10
1.3038
20
172.2922
30
0.0
0
VERTEX
8
CUT_OUTER
10
1.4831
20
173.6100
30
0.0
0
VERTEX
8
CUT_OUTER
10
1.6740
20
174.9262
30
0.0
0
VERTEX
8
CUT_OUTER
10
1.8763
20
176.2406
30
0.0
0
VERTEX
8
CUT_OUTER
10
2.0901
20
177.5533
30
0.0
0
VERTEX
8
CUT_OUTER
10
2.3153
20
178.8640
30
0.0
0
VERTEX
8
CUT_OUTER
10
2.5520
20
180.1727
30
0.0
0
VERTEX
8
CUT_OUTER
10
2.8000
20
181.4793
30
0.0
0
VERTEX
8
CUT_OUTER
10
3.0595
20
182.7837
30
0.0
0
VERTEX
8
CUT_OUTER
10
3.3303
20
184.0857
30
0.0
0
VERTEX
8
CUT_OUTER
10
3.6125
20
185.3854
30
0.0
0
VERTEX
8
CUT_OUTER
10
3.9060
20
186.6825
30
0.0
0
VERTEX
8
CUT_OUTER
10
4.2108
20
187.9771
30
0.0
0
VERTEX
8
CUT_OUTER
10
4.5269
20
189.2689
30
0.0
0
VERTEX
8
CUT_OUTER
10
4.8543
20
190.5579
30
0.0
0
VERTEX
8
CUT_OUTER
10
5.1929
20
191.8440
30
0.0
0
VERTEX
8
CUT_OUTER
10
5.5427
20
193.1271
30
0.0
0
VERTEX
8
CUT_OUTER
10
5.9037
20
194.4071
30
0.0
0
VERTEX
8
CUT_OUTER
10
6.2759
20
195.6839
30
0.0
0
VERTEX
8
CUT_OUTER
10
6.6592
20
196.9574
30
0.0
0
VERTEX
8
CUT_OUTER
10
7.0535
20
198.2276
30
0.0
0
VERTEX
8
CUT_OUTER
10
7.4590
20
199.4942
30
0.0
0
VERTEX
8
CUT_OUTER
10
7.8755
20
200.7572
30
0.0
0
VERTEX
8
CUT_OUTER
10
8.3030
20
202.0166
30
0.0
0
VERTEX
8
CUT_OUTER
10
8.7414
20
203.2722
30
0.0
0
VERTEX
8
CUT_OUTER
10
9.1908
20
204.5239
30
0.0
0
VERTEX
8
CUT_OUTER
10
9.6512
20
205.7716
30
0.0
0
VERTEX
8
CUT_OUTER
10
10.1223
20
207.0153
30
0.0
0
VERTEX
8
CUT_OUTER
10
10.6044
20
208.2548
30
0.0
0
VERTEX
8
CUT_OUTER
10
11.0972
20
209.4900
30
0.0
0
VERTEX
8
CUT_OUTER
10
11.6008
20
210.7210
30
0.0
0
VERTEX
8
CUT_OUTER
10
12.1151
20
211.9474
30
0.0
0
VERTEX
8
CUT_OUTER
10
12.6400
20
213.1694
30
0.0
0
VERTEX
8
CUT_OUTER
10
13.1757
20
214.3867
30
0.0
0
VERTEX
8
CUT_OUTER
10
13.7219
20
215.5993
30
0.0
0
VERTEX
8
CUT_OUTER
10
14.2787
20
216.8070
30
0.0
0
VERTEX
8
CUT_OUTER
10
14.8460
20
218.0099
30
0.0
0
VERTEX
8
CUT_OUTER
10
15.4238
20
219.2078
30
0.0
0
VERTEX
8
CUT_OUTER
10
16.0120
20
220.4005
30
0.0
0
VERTEX
8
CUT_OUTER
10
16.6106
20
221.5882
30
0.0
0
VERTEX
8
CUT_OUTER
10
17.2195
20
222.7705
30
0.0
0
VERTEX
8
CUT_OUTER
10
17.8388
20
223.9475
30
0.0
0
VERTEX
8
CUT_OUTER
10
18.4683
20
225.1190
30
0.0
0
VERTEX
8
CUT_OUTER
10
19.1080
20
226.2850
30
0.0
0
VERTEX
8
CUT_OUTER
10
19.7578
20
227.4454
30
0.0
0
VERTEX
8
CUT_OUTER
10
20.4177
20
228.6000
30
0.0
0
VERTEX
8
CUT_OUTER
10
21.0877
20
229.7488
30
0.0
0
VERTEX
8
CUT_OUTER
10
21.7677
20
230.8918
30
0.0
0
VERTEX
8
CUT_OUTER
10
22.4576
20
232.0288
30
0.0
0
VERTEX
8
CUT_OUTER
10
23.1575
20
233.1597
30
0.0
0
VERTEX
8
CUT_OUTER
10
23.8671
20
234.2845
30
0.0
0
VERTEX
8
CUT_OUTER
10
24.5866
20
235.4030
30
0.0
0
VERTEX
8
CUT_OUTER
10
25.3158
20
236.5152
30
0.0
0
VERTEX
8
CUT_OUTER
10
26.0547
20
237.6210
30
0.0
0
VERTEX
8
CUT_OUTER
10
26.8032
20
238.7203
30
0.0
0
VERTEX
8
CUT_OUTER
10
27.5612
20
239.8130
30
0.0
0
VERTEX
8
CUT_OUTER
10
28.3288
20
240.8991
30
0.0
0
VERTEX
8
CUT_OUTER
10
29.1058
20
241.9785
30
0.0
0
VERTEX
8
CUT_OUTER
10
29.8922
20
243.0510
30
0.0
0
VERTEX
8
CUT_OUTER
10
30.6879
20
244.1166
30
0.0
0
VERTEX
8
CUT_OUTER
10
31.4930
20
245.1752
30
0.0
0
VERTEX
8
CUT_OUTER
10
32.3072
20
246.2268
30
0.0
0
VERTEX
8
CUT_OUTER
10
33.1305
20
247.2712
30
0.0
0
VERTEX
8
CUT_OUTER
10
33.9630
20
248.3084
30
0.0
0
VERTEX
8
CUT_OUTER
10
34.8044
20
249.3383
30
0.0
0
VERTEX
8
CUT_OUTER
10
35.6548
20
250.3608
30
0.0
0
VERTEX
8
CUT_OUTER
10
36.5141
20
251.3759
30
0.0
0
VERTEX
8
CUT_OUTER
10
37.3823
20
252.3834
30
0.0
0
VERTEX
8
CUT_OUTER
10
38.2591
20
253.3833
30
0.0
0
VERTEX
8
CUT_OUTER
10
39.1447
20
254.3755
30
0.0
0
VERTEX
8
CUT_OUTER
10
40.0389
20
255.3599
30
0.0
0
VERTEX
8
CUT_OUTER
10
40.9417
20
256.3366
30
0.0
0
VERTEX
8
CUT_OUTER
10
41.8529
20
257.3052
30
0.0
0
VERTEX
8
CUT_OUTER
10
42.7726
20
258.2659
30
0.0
0
VERTEX
8
CUT_OUTER
10
43.7006
20
259.2186
30
0.0
0
VERTEX
8
CUT_OUTER
10
44.6369
20
260.1631
30
0.0
0
VERTEX
8
CUT_OUTER
10
45.5814
20
261.0994
30
0.0
0
VERTEX
8
CUT_OUTER
10
46.5341
20
262.0274
30
0.0
0
VERTEX
8
CUT_OUTER
10
47.4948
20
262.9471
30
0.0
0
VERTEX
8
CUT_OUTER
10
48.4634
20
263.8583
30
0.0
0
VERTEX
8
CUT_OUTER
10
49.4401
20
264.7611
30
0.0
0
VERTEX
8
CUT_OUTER
10
50.4245
20
265.6553
30
0.0
0
VERTEX
8
CUT_OUTER
10
51.4167
20
266.5409
30
0.0
0
VERTEX
8
CUT_OUTER
10
52.4166
20
267.4177
30
0.0
0
VERTEX
8
CUT_OUTER
10
53.4241
20
268.2859
30
0.0
0
VERTEX
8
CUT_OUTER
10
54.4392
20
269.1452
30
0.0
0
VERTEX
8
CUT_OUTER
10
55.4617
20
269.9956
30
0.0
0
VERTEX
8
CUT_OUTER
10
56.4916
20
270.8370
30
0.0
0
VERTEX
8
CUT_OUTER
10
57.5288
20
271.6695
30
0.0
0
VERTEX
8
CUT_OUTER
10
58.5732
20
272.4928
30
0.0
0
VERTEX
8
CUT_OUTER
10
59.6248
20
273.3070
30
0.0
0
VERTEX
8
CUT_OUTER
10
60.6834
20
274.1121
30
0.0
0
VERTEX
8
CUT_OUTER
10
61.7490
20
274.9078
30
0.0
0
VERTEX
8
CUT_OUTER
10
62.8215
20
275.6942
30
0.0
0
VERTEX
8
CUT_OUTER
10
63.9009
20
276.4712
30
0.0
0
VERTEX
8
CUT_OUTER
10
64.9870
20
277.2388
30
0.0
0
VERTEX
8
CUT_OUTER
10
66.0797
20
277.9968
30
0.0
0
VERTEX
8
CUT_OUTER
10
67.1790
20
278.7453
30
0.0
0
VERTEX
8
CUT_OUTER
10
68.2848
20
279.4842
30
0.0
0
VERTEX
8
CUT_OUTER
10
69.3970
20
280.2134
30
0.0
0
VERTEX
8
CUT_OUTER
10
70.5155
20
280.9329
30
0.0
0
VERTEX
8
CUT_OUTER
10
71.6403
20
281.6425
30
0.0
0
VERTEX
8
CUT_OUTER
10
72.7712
20
282.3424
30
0.0
0
VERTEX
8
CUT_OUTER
10
73.9082
20
283.0323
30
0.0
0
VERTEX
8
CUT_OUTER
10
75.0512
20
283.7123
30
0.0
0
VERTEX
8
CUT_OUTER
10
76.2000
20
284.3823
30
0.0
0
VERTEX
8
CUT_OUTER
10
77.3546
20
285.0422
30
0.0
0
VERTEX
8
CUT_OUTER
10
78.5150
20
285.6920
30
0.0
0
VERTEX
8
CUT_OUTER
10
79.6810
20
286.3317
30
0.0
0
VERTEX
8
CUT_OUTER
10
80.8525
20
286.9612
30
0.0
0
VERTEX
8
CUT_OUTER
10
82.0295
20
287.5805
30
0.0
0
VERTEX
8
CUT_OUTER
10
83.2118
20
288.1894
30
0.0
0
VERTEX
8
CUT_OUTER
10
84.3995
20
288.7880
30
0.0
0
VERTEX
8
CUT_OUTER
10
85.5922
20
289.3762
30
0.0
0
VERTEX
8
CUT_OUTER
10
86.7901
20
289.9540
30
0.0
0
VERTEX
8
CUT_OUTER
10
87.9930
20
290.5213
30
0.0
0
VERTEX
8
CUT_OUTER
10
89.2007
20
291.0781
30
0.0
0
VERTEX
8
CUT_OUTER
10
90.4133
20
291.6243
30
0.0
0
VERTEX
8
CUT_OUTER
10
91.6306
20
292.1600
30
0.0
0
VERTEX
8
CUT_OUTER
10
92.8526
20
292.6849
30
0.0
0
VERTEX
8
CUT_OUTER
10
94.0790
20
293.1992
30
0.0
0
VERTEX
8
CUT_OUTER
10
95.3100
20
293.7028
30
0.0
0
VERTEX
8
CUT_OUTER
10
96.5452
20
294.1956
30
0.0
0
VERTEX
8
CUT_OUTER
10
97.7847
20
294.6777
30
0.0
0
VERTEX
8
CUT_OUTER
10
99.0284
20
295.1488
30
0.0
0
VERTEX
8
CUT_OUTER
10
100.2761
20
295.6092
30
0.0
0
VERTEX
8
CUT_OUTER
10
101.5278
20
296.0586
30
0.0
0
VERTEX
8
CUT_OUTER
10
102.7834
20
296.4970
30
0.0
0
VERTEX
8
CUT_OUTER
10
104.0428
20
296.9245
30
0.0
0
VERTEX
8
CUT_OUTER
10
105.3058
20
297.3410
30
0.0
0
VERTEX
8
CUT_OUTER
10
106.5724
20
297.7465
30
0.0
0
VERTEX
8
CUT_OUTER
10
107.8426
20
298.1408
30
0.0
0
VERTEX
8
CUT_OUTER
10
109.1161
20
298.5241
30
0.0
0
VERTEX
8
CUT_OUTER
10
110.3929
20
298.8963
30
0.0
0
VERTEX
8
CUT_OUTER
10
111.6729
20
299.2573
30
0.0
0
VERTEX
8
CUT_OUTER
10
112.9560
20
299.6071
30
0.0
0
VERTEX
8
CUT_OUTER
10
114.2421
20
299.9457
30
0.0
0
VERTEX
8
CUT_OUTER
10
115.5311
20
300.2731
30
0.0
0
VERTEX
8
CUT_OUTER
10
116.8229
20
300.5892
30
0.0
0
VERTEX
8
CUT_OUTER
10
118.1175
20
300.8940
30
0.0
0
VERTEX
8
CUT_OUTER
10
119.4146
20
301.1875
30
0.0
0
VERTEX
8
CUT_OUTER
10
120.7143
20
301.4697
30
0.0
0
VERTEX
8
CUT_OUTER
10
122.0163
20
301.7405
30
0.0
0
VERTEX
8
CUT_OUTER
10
123.3207
20
302.0000
30
0.0
0
VERTEX
8
CUT_OUTER
10
124.6273
20
302.2480
30
0.0
0
VERTEX
8
CUT_OUTER
10
125.9360
20
302.4847
30
0.0
0
VERTEX
8
CUT_OUTER
10
127.2467
20
302.7099
30
0.0
0
VERTEX
8
CUT_OUTER
10
128.5594
20
302.9237
30
0.0
0
VERTEX
8
CUT_OUTER
10
129.8738
20
303.1260
30
0.0
0
VERTEX
8
CUT_OUTER
10
131.1900
20
303.3169
30
0.0
0
VERTEX
8
CUT_OUTER
10
132.5078
20
303.4962
30
0.0
0
VERTEX
8
CUT_OUTER
10
133.8271
20
303.6640
30
0.0
0
VERTEX
8
CUT_OUTER
10
135.1478
20
303.8204
30
0.0
0
VERTEX
8
CUT_OUTER
10
136.4699
20
303.9651
30
0.0
0
VERTEX
8
CUT_OUTER
10
137.7931
20
304.0984
30
0.0
0
VERTEX
8
CUT_OUTER
10
139.1175
20
304.2201
30
0.0
0
VERTEX
8
CUT_OUTER
10
140.4428
20
304.3302
30
0.0
0
VERTEX
8
CUT_OUTER
10
141.7691
20
304.4288
30
0.0
0
VERTEX
8
CUT_OUTER
10
143.0962
20
304.5157
30
0.0
0
VERTEX
8
CUT_OUTER
10
144.4240
20
304.5911
30
0.0
0
VERTEX
8
CUT_OUTER
10
145.7524
20
304.6549
30
0.0
0
VERTEX
8
CUT_OUTER
10
147.0813
20
304.7072
30
0.0
0
VERTEX
8
CUT_OUTER
10
148.4106
20
304.7478
30
0.0
0
VERTEX
8
CUT_OUTER
10
149.7403
20
304.7768
30
0.0
0
VERTEX
8
CUT_OUTER
10
151.0701
20
304.7942
30
0.0
0
VERTEX
8
CUT_OUTER
10
152.4000
20
304.8000
30
0.0
0
VERTEX
8
CUT_OUTER
10
153.7299
20
304.7942
30
0.0
0
VERTEX
8
CUT_OUTER
10
155.0597
20
304.7768
30
0.0
0
VERTEX
8
CUT_OUTER
10
156.3894
20
304.7478
30
0.0
0
VERTEX
8
CUT_OUTER
10
157.7187
20
304.7072
30
0.0
0
VERTEX
8
CUT_OUTER
10
159.0476
20
304.6549
30
0.0
0
VERTEX
8
CUT_OUTER
10
160.3760
20
304.5911
30
0.0
0
VERTEX
8
CUT_OUTER
10
161.7038
20
304.5157
30
0.0
0
VERTEX
8
CUT_OUTER
10
163.0309
20
304.4288
30
0.0
0
VERTEX
8
CUT_OUTER
10
164.3572
20
304.3302
30
0.0
0
VERTEX
8
CUT_OUTER
10
165.6825
20
304.2201
30
0.0
0
VERTEX
8
CUT_OUTER
10
167.0069
20
304.0984
30
0.0
0
VERTEX
8
CUT_OUTER
10
168.3301
20
303.9651
30
0.0
0
VERTEX
8
CUT_OUTER
10
169.6522
20
303.8204
30
0.0
0
VERTEX
8
CUT_OUTER
10
170.9729
20
303.6640
30
0.0
0
VERTEX
8
CUT_OUTER
10
172.2922
20
303.4962
30
0.0
0
VERTEX
8
CUT_OUTER
10
173.6100
20
303.3169
30
0.0
0
VERTEX
8
CUT_OUTER
10
174.9262
20
303.1260
30
0.0
0
VERTEX
8
CUT_OUTER
10
176.2406
20
302.9237
30
0.0
0
VERTEX
8
CUT_OUTER
10
177.5533
20
302.7099
30
0.0
0
VERTEX
8
CUT_OUTER
10
178.8640
20
302.4847
30
0.0
0
VERTEX
8
CUT_OUTER
10
180.1727
20
302.2480
30
0.0
0
VERTEX
8
CUT_OUTER
10
181.4793
20
302.0000
30
0.0
0
VERTEX
8
CUT_OUTER
10
182.7837
20
301.7405
30
0.0
0
VERTEX
8
CUT_OUTER
10
184.0857
20
301.4697
30
0.0
0
VERTEX
8
CUT_OUTER
10
185.3854
20
301.1875
30
0.0
0
VERTEX
8
CUT_OUTER
10
186.6825
20
300.8940
30
0.0
0
VERTEX
8
CUT_OUTER
10
187.9771
20
300.5892
30
0.0
0
VERTEX
8
CUT_OUTER
10
189.2689
20
300.2731
30
0.0
0
VERTEX
8
CUT_OUTER
10
190.5579
20
299.9457
30
0.0
0
VERTEX
8
CUT_OUTER
10
191.8440
20
299.6071
30
0.0
0
VERTEX
8
CUT_OUTER
10
193.1271
20
299.2573
30
0.0
0
VERTEX
8
CUT_OUTER
10
194.4071
20
298.8963
30
0.0
0
VERTEX
8
CUT_OUTER
10
195.6839
20
298.5241
30
0.0
0
VERTEX
8
CUT_OUTER
10
196.9574
20
298.1408
30
0.0
0
VERTEX
8
CUT_OUTER
10
198.2276
20
297.7465
30
0.0
0
VERTEX
8
CUT_OUTER
10
199.4942
20
297.3410
30
0.0
0
VERTEX
8
CUT_OUTER
10
200.7572
20
296.9245
30
0.0
0
VERTEX
8
CUT_OUTER
10
202.0166
20
296.4970
30
0.0
0
VERTEX
8
CUT_OUTER
10
203.2722
20
296.0586
30
0.0
0
VERTEX
8
CUT_OUTER
10
204.5239
20
295.6092
30
0.0
0
VERTEX
8
CUT_OUTER
10
205.7716
20
295.1488
30
0.0
0
VERTEX
8
CUT_OUTER
10
207.0153
20
294.6777
30
0.0
0
VERTEX
8
CUT_OUTER
10
208.2548
20
294.1956
30
0.0
0
VERTEX
8
CUT_OUTER
10
209.4900
20
293.7028
30
0.0
0
VERTEX
8
CUT_OUTER
10
210.7210
20
293.1992
30
0.0
0
VERTEX
8
CUT_OUTER
10
211.9474
20
292.6849
30
0.0
0
VERTEX
8
CUT_OUTER
10
213.1694
20
292.1600
30
0.0
0
VERTEX
8
CUT_OUTER
10
214.3867
20
291.6243
30
0.0
0
VERTEX
8
CUT_OUTER
10
215.5993
20
291.0781
30
0.0
0
VERTEX
8
CUT_OUTER
10
216.8070
20
290.5213
30
0.0
0
VERTEX
8
CUT_OUTER
10
218.0099
20
289.9540
30
0.0
0
VERTEX
8
CUT_OUTER
10
219.2078
20
289.3762
30
0.0
0
VERTEX
8
CUT_OUTER
10
220.4005
20
288.7880
30
0.0
0
VERTEX
8
CUT_OUTER
10
221.5882
20
288.1894
30
0.0
0
VERTEX
8
CUT_OUTER
10
222.7705
20
287.5805
30
0.0
0
VERTEX
8
CUT_OUTER
10
223.9475
20
286.9612
30
0.0
0
VERTEX
8
CUT_OUTER
10
225.1190
20
286.3317
30
0.0
0
VERTEX
8
CUT_OUTER
10
226.2850
20
285.6920
30
0.0
0
VERTEX
8
CUT_OUTER
10
227.4454
20
285.0422
30
0.0
0
VERTEX
8
CUT_OUTER
10
228.6000
20
284.3823
30
0.0
0
VERTEX
8
CUT_OUTER
10
229.7488
20
283.7123
30
0.0
0
VERTEX
8
CUT_OUTER
10
230.8918
20
283.0323
30
0.0
0
VERTEX
8
CUT_OUTER
10
232.0288
20
282.3424
30
0.0
0
VERTEX
8
CUT_OUTER
10
233.1597
20
281.6425
30
0.0
0
VERTEX
8
CUT_OUTER
10
234.2845
20
280.9329
30
0.0
0
VERTEX
8
CUT_OUTER
10
235.4030
20
280.2134
30
0.0
0
VERTEX
8
CUT_OUTER
10
236.5152
20
279.4842
30
0.0
0
VERTEX
8
CUT_OUTER
10
237.6210
20
278.7453
30
0.0
0
VERTEX
8
CUT_OUTER
10
238.7203
20
277.9968
30
0.0
0
VERTEX
8
CUT_OUTER
10
239.8130
20
277.2388
30
0.0
0
VERTEX
8
CUT_OUTER
10
240.8991
20
276.4712
30
0.0
0
VERTEX
8
CUT_OUTER
10
241.9785
20
275.6942
30
0.0
0
VERTEX
8
CUT_OUTER
10
243.0510
20
274.9078
30
0.0
0
VERTEX
8
CUT_OUTER
10
244.1166
20
274.1121
30
0.0
0
VERTEX
8
CUT_OUTER
10
245.1752
20
273.3070
30
0.0
0
VERTEX
8
CUT_OUTER
10
246.2268
20
272.4928
30
0.0
0
VERTEX
8
CUT_OUTER
10
247.2712
20
271.6695
30
0.0
0
VERTEX
8
CUT_OUTER
10
248.3084
20
270.8370
30
0.0
0
VERTEX
8
CUT_OUTER
10
249.3383
20
269.9956
30
0.0
0
VERTEX
8
CUT_OUTER
10
250.3608
20
269.1452
30
0.0
0
VERTEX
8
CUT_OUTER
10
251.3759
20
268.2859
30
0.0
0
VERTEX
8
CUT_OUTER
10
252.3834
20
267.4177
30
0.0
0
VERTEX
8
CUT_OUTER
10
253.3833
20
266.5409
30
0.0
0
VERTEX
8
CUT_OUTER
10
254.3755
20
265.6553
30
0.0
0
VERTEX
8
CUT_OUTER
10
255.3599
20
264.7611
30
0.0
0
VERTEX
8
CUT_OUTER
10
256.3366
20
263.8583
30
0.0
0
VERTEX
8
CUT_OUTER
10
257.3052
20
262.9471
30
0.0
0
VERTEX
8
CUT_OUTER
10
258.2659
20
262.0274
30
0.0
0
VERTEX
8
CUT_OUTER
10
259.2186
20
261.0994
30
0.0
0
VERTEX
8
CUT_OUTER
10
260.1631
20
260.1631
30
0.0
0
VERTEX
8
CUT_OUTER
10
261.0994
20
259.2186
30
0.0
0
VERTEX
8
CUT_OUTER
10
262.0274
20
258.2659
30
0.0
0
VERTEX
8
CUT_OUTER
10
262.9471
20
257.3052
30
0.0
0
VERTEX
8
CUT_OUTER
10
263.8583
20
256.3366
30
0.0
0
VERTEX
8
CUT_OUTER
10
264.7611
20
255.3599
30
0.0
0
VERTEX
8
CUT_OUTER
10
265.6553
20
254.3755
30
0.0
0
VERTEX
8
CUT_OUTER
10
266.5409
20
253.3833
30
0.0
0
VERTEX
8
CUT_OUTER
10
267.4177
20
252.3834
30
0.0
0
VERTEX
8
CUT_OUTER
10
268.2859
20
251.3759
30
0.0
0
VERTEX
8
CUT_OUTER
10
269.1452
20
250.3608
30
0.0
0
VERTEX
8
CUT_OUTER
10
269.9956
20
249.3383
30
0.0
0
VERTEX
8
CUT_OUTER
10
270.8370
20
248.3084
30
0.0
0
VERTEX
8
CUT_OUTER
10
271.6695
20
247.2712
30
0.0
0
VERTEX
8
CUT_OUTER
10
272.4928
20
246.2268
30
0.0
0
VERTEX
8
CUT_OUTER
10
273.3070
20
245.1752
30
0.0
0
VERTEX
8
CUT_OUTER
10
274.1121
20
244.1166
30
0.0
0
VERTEX
8
CUT_OUTER
10
274.9078
20
243.0510
30
0.0
0
VERTEX
8
CUT_OUTER
10
275.6942
20
241.9785
30
0.0
0
VERTEX
8
CUT_OUTER
10
276.4712
20
240.8991
30
0.0
0
VERTEX
8
CUT_OUTER
10
277.2388
20
239.8130
30
0.0
0
VERTEX
8
CUT_OUTER
10
277.9968
20
238.7203
30
0.0
0
VERTEX
8
CUT_OUTER
10
278.7453
20
237.6210
30
0.0
0
VERTEX
8
CUT_OUTER
10
279.4842
20
236.5152
30
0.0
0
VERTEX
8
CUT_OUTER
10
280.2134
20
235.4030
30
0.0
0
VERTEX
8
CUT_OUTER
10
280.9329
20
234.2845
30
0.0
0
VERTEX
8
CUT_OUTER
10
281.6425
20
233.1597
30
0.0
0
VERTEX
8
CUT_OUTER
10
282.3424
20
232.0288
30
0.0
0
VERTEX
8
CUT_OUTER
10
283.0323
20
230.8918
30
0.0
0
VERTEX
8
CUT_OUTER
10
283.7123
20
229.7488
30
0.0
0
VERTEX
8
CUT_OUTER
10
284.3823
20
228.6000
30
0.0
0
VERTEX
8
CUT_OUTER
10
285.0422
20
227.4454
30
0.0
0
VERTEX
8
CUT_OUTER
10
285.6920
20
226.2850
30
0.0
0
VERTEX
8
CUT_OUTER
10
286.3317
20
225.1190
30
0.0
0
VERTEX
8
CUT_OUTER
10
286.9612
20
223.9475
30
0.0
0
VERTEX
8
CUT_OUTER
10
287.5805
20
222.7705
30
0.0
0
VERTEX
8
CUT_OUTER
10
288.1894
20
221.5882
30
0.0
0
VERTEX
8
CUT_OUTER
10
288.7880
20
220.4005
30
0.0
0
VERTEX
8
CUT_OUTER
10
289.3762
20
219.2078
30
0.0
0
VERTEX
8
CUT_OUTER
10
289.9540
20
218.0099
30
0.0
0
VERTEX
8
CUT_OUTER
10
290.5213
20
216.8070
30
0.0
0
VERTEX
8
CUT_OUTER
10
291.0781
20
215.5993
30
0.0
0
VERTEX
8
CUT_OUTER
10
291.6243
20
214.3867
30
0.0
0
VERTEX
8
CUT_OUTER
10
292.1600
20
213.1694
30
0.0
0
VERTEX
8
CUT_OUTER
10
292.6849
20
211.9474
30
0.0
0
VERTEX
8
CUT_OUTER
10
293.1992
20
210.7210
30
0.0
0
VERTEX
8
CUT_OUTER
10
293.7028
20
209.4900
30
0.0
0
VERTEX
8
CUT_OUTER
10
294.1956
20
208.2548
30
0.0
0
VERTEX
8
CUT_OUTER
10
294.6777
20
207.0153
30
0.0
0
VERTEX
8
CUT_OUTER
10
295.1488
20
205.7716
30
0.0
0
VERTEX
8
CUT_OUTER
10
295.6092
20
204.5239
30
0.0
0
VERTEX
8
CUT_OUTER
10
296.0586
20
203.2722
30
0.0
0
VERTEX
8
CUT_OUTER
10
296.4970
20
202.0166
30
0.0
0
VERTEX
8
CUT_OUTER
10
296.9245
20
200.7572
30
0.0
0
VERTEX
8
CUT_OUTER
10
297.3410
20
199.4942
30
0.0
0
VERTEX
8
CUT_OUTER
10
297.7465
20
198.2276
30
0.0
0
VERTEX
8
CUT_OUTER
10
298.1408
20
196.9574
30
0.0
0
VERTEX
8
CUT_OUTER
10
298.5241
20
195.6839
30
0.0
0
VERTEX
8
CUT_OUTER
10
298.8963
20
194.4071
30
0.0
0
VERTEX
8
CUT_OUTER
10
299.2573
20
193.1271
30
0.0
0
VERTEX
8
CUT_OUTER
10
299.6071
20
191.8440
30
0.0
0
VERTEX
8
CUT_OUTER
10
299.9457
20
190.5579
30
0.0
0
VERTEX
8
CUT_OUTER
10
300.2731
20
189.2689
30
0.0
0
VERTEX
8
CUT_OUTER
10
300.5892
20
187.9771
30
0.0
0
VERTEX
8
CUT_OUTER
10
300.8940
20
186.6825
30
0.0
0
VERTEX
8
CUT_OUTER
10
301.1875
20
185.3854
30
0.0
0
VERTEX
8
CUT_OUTER
10
301.4697
20
184.0857
30
0.0
0
VERTEX
8
CUT_OUTER
10
301.7405
20
182.7837
30
0.0
0
VERTEX
8
CUT_OUTER
10
302.0000
20
181.4793
30
0.0
0
VERTEX
8
CUT_OUTER
10
302.2480
20
180.1727
30
0.0
0
VERTEX
8
CUT_OUTER
10
302.4847
20
178.8640
30
0.0
0
VERTEX
8
CUT_OUTER
10
302.7099
20
177.5533
30
0.0
0
VERTEX
8
CUT_OUTER
10
302.9237
20
176.2406
30
0.0
0
VERTEX
8
CUT_OUTER
10
303.1260
20
174.9262
30
0.0
0
VERTEX
8
CUT_OUTER
10
303.3169
20
173.6100
30
0.0
0
VERTEX
8
CUT_OUTER
10
303.4962
20
172.2922
30
0.0
0
VERTEX
8
CUT_OUTER
10
303.6640
20
170.9729
30
0.0
0
VERTEX
8
CUT_OUTER
10
303.8204
20
169.6522
30
0.0
0
VERTEX
8
CUT_OUTER
10
303.9651
20
168.3301
30
0.0
0
VERTEX
8
CUT_OUTER
10
304.0984
20
167.0069
30
0.0
0
VERTEX
8
CUT_OUTER
10
304.2201
20
165.6825
30
0.0
0
VERTEX
8
CUT_OUTER
10
304.3302
20
164.3572
30
0.0
0
VERTEX
8
CUT_OUTER
10
304.4288
20
163.0309
30
0.0
0
VERTEX
8
CUT_OUTER
10
304.5157
20
161.7038
30
0.0
0
VERTEX
8
CUT_OUTER
10
304.5911
20
160.3760
30
0.0
0
VERTEX
8
CUT_OUTER
10
304.6549
20
159.0476
30
0.0
0
VERTEX
8
CUT_OUTER
10
304.7072
20
157.7187
30
0.0
0
VERTEX
8
CUT_OUTER
10
304.7478
20
156.3894
30
0.0
0
VERTEX
8
CUT_OUTER
10
304.7768
20
155.0597
30
0.0
0
VERTEX
8
CUT_OUTER
10
304.7942
20
153.7299
30
0.0
0
SEQEND
8
CUT_OUTER
0
ENDSEC
0
EOF
