0
SECTION
2
HEADER
9
$ACADVER
1
AC1009
9
$INSUNITS
70
4
0
ENDSEC
0
SECTION
2
ENTITIES
0
POLYLINE
8
ALIGN
66
1
70
1
0
VERTEX
8
ALIGN
10
304.8000
20
152.4000
30
0.0
0
VERTEX
8
ALIGN
10
304.7942
20
151.0701
30
0.0
0
VERTEX
8
ALIGN
10
304.7768
20
149.7403
30
0.0
0
VERTEX
8
ALIGN
10
304.7478
20
148.4106
30
0.0
0
VERTEX
8
ALIGN
10
304.7072
20
147.0813
30
0.0
0
VERTEX
8
ALIGN
10
304.6549
20
145.7524
30
0.0
0
VERTEX
8
ALIGN
10
304.5911
20
144.4240
30
0.0
0
VERTEX
8
ALIGN
10
304.5157
20
143.0962
30
0.0
0
VERTEX
8
ALIGN
10
304.4288
20
141.7691
30
0.0
0
VERTEX
8
ALIGN
10
304.3302
20
140.4428
30
0.0
0
VERTEX
8
ALIGN
10
304.2201
20
139.1175
30
0.0
0
VERTEX
8
ALIGN
10
304.0984
20
137.7931
30
0.0
0
VERTEX
8
ALIGN
10
303.9651
20
136.4699
30
0.0
0
VERTEX
8
ALIGN
10
303.8204
20
135.1478
30
0.0
0
VERTEX
8
ALIGN
10
303.6640
20
133.8271
30
0.0
0
VERTEX
8
ALIGN
10
303.4962
20
132.5078
30
0.0
0
VERTEX
8
ALIGN
10
303.3169
20
131.1900
30
0.0
0
VERTEX
8
ALIGN
10
303.1260
20
129.8738
30
0.0
0
VERTEX
8
ALIGN
10
302.9237
20
128.5594
30
0.0
0
VERTEX
8
ALIGN
10
302.7099
20
127.2467
30
0.0
0
VERTEX
8
ALIGN
10
302.4847
20
125.9360
30
0.0
0
VERTEX
8
ALIGN
10
302.2480
20
124.6273
30
0.0
0
VERTEX
8
ALIGN
10
302.0000
20
123.3207
30
0.0
0
VERTEX
8
ALIGN
10
301.7405
20
122.0163
30
0.0
0
VERTEX
8
ALIGN
10
301.4697
20
120.7143
30
0.0
0
VERTEX
8
ALIGN
10
301.1875
20
119.4146
30
0.0
0
VERTEX
8
ALIGN
10
300.8940
20
118.1175
30
0.0
0
VERTEX
8
ALIGN
10
300.5892
20
116.8229
30
0.0
0
VERTEX
8
ALIGN
10
300.2731
20
115.5311
30
0.0
0
VERTEX
8
ALIGN
10
299.9457
20
114.2421
30
0.0
0
VERTEX
8
ALIGN
10
299.6071
20
112.9560
30
0.0
0
VERTEX
8
ALIGN
10
299.2573
20
111.6729
30
0.0
0
VERTEX
8
ALIGN
10
298.8963
20
110.3929
30
0.0
0
VERTEX
8
ALIGN
10
298.5241
20
109.1161
30
0.0
0
VERTEX
8
ALIGN
10
298.1408
20
107.8426
30
0.0
0
VERTEX
8
ALIGN
10
297.7465
20
106.5724
30
0.0
0
VERTEX
8
ALIGN
10
297.3410
20
105.3058
30
0.0
0
VERTEX
8
ALIGN
10
296.9245
20
104.0428
30
0.0
0
VERTEX
8
ALIGN
10
296.4970
20
102.7834
30
0.0
0
VERTEX
8
ALIGN
10
296.0586
20
101.5278
30
0.0
0
VERTEX
8
ALIGN
10
295.6092
20
100.2761
30
0.0
0
VERTEX
8
ALIGN
10
295.1488
20
99.0284
30
0.0
0
VERTEX
8
ALIGN
10
294.6777
20
97.7847
30
0.0
0
VERTEX
8
ALIGN
10
294.1956
20
96.5452
30
0.0
0
VERTEX
8
ALIGN
10
293.7028
20
95.3100
30
0.0
0
VERTEX
8
ALIGN
10
293.1992
20
94.0790
30
0.0
0
VERTEX
8
ALIGN
10
292.6849
20
92.8526
30
0.0
0
VERTEX
8
ALIGN
10
292.1600
20
91.6306
30
0.0
0
VERTEX
8
ALIGN
10
291.6243
20
90.4133
30
0.0
0
VERTEX
8
ALIGN
10
291.0781
20
89.2007
30
0.0
0
VERTEX
8
ALIGN
10
290.5213
20
87.9930
30
0.0
0
VERTEX
8
ALIGN
10
289.9540
20
86.7901
30
0.0
0
VERTEX
8
ALIGN
10
289.3762
20
85.5922
30
0.0
0
VERTEX
8
ALIGN
10
288.7880
20
84.3995
30
0.0
0
VERTEX
8
ALIGN
10
288.1894
20
83.2118
30
0.0
0
VERTEX
8
ALIGN
10
287.5805
20
82.0295
30
0.0
0
VERTEX
8
ALIGN
10
286.9612
20
80.8525
30
0.0
0
VERTEX
8
ALIGN
10
286.3317
20
79.6810
30
0.0
0
VERTEX
8
ALIGN
10
285.6920
20
78.5150
30
0.0
0
VERTEX
8
ALIGN
10
285.0422
20
77.3546
30
0.0
0
VERTEX
8
ALIGN
10
284.3823
20
76.2000
30
0.0
0
VERTEX
8
ALIGN
10
283.7123
20
75.0512
30
0.0
0
VERTEX
8
ALIGN
10
283.0323
20
73.9082
30
0.0
0
VERTEX
8
ALIGN
10
282.3424
20
72.7712
30
0.0
0
VERTEX
8
ALIGN
10
281.6425
20
71.6403
30
0.0
0
VERTEX
8
ALIGN
10
280.9329
20
70.5155
30
0.0
0
VERTEX
8
ALIGN
10
280.2134
20
69.3970
30
0.0
0
VERTEX
8
ALIGN
10
279.4842
20
68.2848
30
0.0
0
VERTEX
8
ALIGN
10
278.7453
20
67.1790
30
0.0
0
VERTEX
8
ALIGN
10
277.9968
20
66.0797
30
0.0
0
VERTEX
8
ALIGN
10
277.2388
20
64.9870
30
0.0
0
VERTEX
8
ALIGN
10
276.4712
20
63.9009
30
0.0
0
VERTEX
8
ALIGN
10
275.6942
20
62.8215
30
0.0
0
VERTEX
8
ALIGN
10
274.9078
20
61.7490
30
0.0
0
VERTEX
8
ALIGN
10
274.1121
20
60.6834
30
0.0
0
VERTEX
8
ALIGN
10
273.3070
20
59.6248
30
0.0
0
VERTEX
8
ALIGN
10
272.4928
20
58.5732
30
0.0
0
VERTEX
8
ALIGN
10
271.6695
20
57.5288
30
0.0
0
VERTEX
8
ALIGN
10
270.8370
20
56.4916
30
0.0
0
VERTEX
8
ALIGN
10
269.9956
20
55.4617
30
0.0
0
VERTEX
8
ALIGN
10
269.1452
20
54.4392
30
0.0
0
VERTEX
8
ALIGN
10
268.2859
20
53.4241
30
0.0
0
VERTEX
8
ALIGN
10
267.4177
20
52.4166
30
0.0
0
VERTEX
8
ALIGN
10
266.5409
20
51.4167
30
0.0
0
VERTEX
8
ALIGN
10
265.6553
20
50.4245
30
0.0
0
VERTEX
8
ALIGN
10
264.7611
20
49.4401
30
0.0
0
VERTEX
8
ALIGN
10
263.8583
20
48.4634
30
0.0
0
VERTEX
8
ALIGN
10
262.9471
20
47.4948
30
0.0
0
VERTEX
8
ALIGN
10
262.0274
20
46.5341
30
0.0
0
VERTEX
8
ALIGN
10
261.0994
20
45.5814
30
0.0
0
VERTEX
8
ALIGN
10
260.1631
20
44.6369
30
0.0
0
VERTEX
8
ALIGN
10
259.2186
20
43.7006
30
0.0
0
VERTEX
8
ALIGN
10
258.2659
20
42.7726
30
0.0
0
VERTEX
8
ALIGN
10
257.3052
20
41.8529
30
0.0
0
VERTEX
8
ALIGN
10
256.3366
20
40.9417
30
0.0
0
VERTEX
8
ALIGN
10
255.3599
20
40.0389
30
0.0
0
VERTEX
8
ALIGN
10
254.3755
20
39.1447
30
0.0
0
VERTEX
8
ALIGN
10
253.3833
20
38.2591
30
0.0
0
VERTEX
8
ALIGN
10
252.3834
20
37.3823
30
0.0
0
VERTEX
8
ALIGN
10
251.3759
20
36.5141
30
0.0
0
VERTEX
8
ALIGN
10
250.3608
20
35.6548
30
0.0
0
VERTEX
8
ALIGN
10
249.3383
20
34.8044
30
0.0
0
VERTEX
8
ALIGN
10
248.3084
20
33.9630
30
0.0
0
VERTEX
8
ALIGN
10
247.2712
20
33.1305
30
0.0
0
VERTEX
8
ALIGN
10
246.2268
20
32.3072
30
0.0
0
VERTEX
8
ALIGN
10
245.1752
20
31.4930
30
0.0
0
VERTEX
8
ALIGN
10
244.1166
20
30.6879
30
0.0
0
VERTEX
8
ALIGN
10
243.0510
20
29.8922
30
0.0
0
VERTEX
8
ALIGN
10
241.9785
20
29.1058
30
0.0
0
VERTEX
8
ALIGN
10
240.8991
20
28.3288
30
0.0
0
VERTEX
8
ALIGN
10
239.8130
20
27.5612
30
0.0
0
VERTEX
8
ALIGN
10
238.7203
20
26.8032
30
0.0
0
VERTEX
8
ALIGN
10
237.6210
20
26.0547
30
0.0
0
VERTEX
8
ALIGN
10
236.5152
20
25.3158
30
0.0
0
VERTEX
8
ALIGN
10
235.4030
20
24.5866
30
0.0
0
VERTEX
8
ALIGN
10
234.2845
20
23.8671
30
0.0
0
VERTEX
8
ALIGN
10
233.1597
20
23.1575
30
0.0
0
VERTEX
8
ALIGN
10
232.0288
20
22.4576
30
0.0
0
VERTEX
8
ALIGN
10
230.8918
20
21.7677
30
0.0
0
VERTEX
8
ALIGN
10
229.7488
20
21.0877
30
0.0
0
VERTEX
8
ALIGN
10
228.6000
20
20.4177
30
0.0
0
VERTEX
8
ALIGN
10
227.4454
20
19.7578
30
0.0
0
VERTEX
8
ALIGN
10
226.2850
20
19.1080
30
0.0
0
VERTEX
8
ALIGN
10
225.1190
20
18.4683
30
0.0
0
VERTEX
8
ALIGN
10
223.9475
20
17.8388
30
0.0
0
VERTEX
8
ALIGN
10
222.7705
20
17.2195
30
0.0
0
VERTEX
8
ALIGN
10
221.5882
20
16.6106
30
0.0
0
VERTEX
8
ALIGN
10
220.4005
20
16.0120
30
0.0
0
VERTEX
8
ALIGN
10
219.2078
20
15.4238
30
0.0
0
VERTEX
8
ALIGN
10
218.0099
20
14.8460
30
0.0
0
VERTEX
8
ALIGN
10
216.8070
20
14.2787
30
0.0
0
VERTEX
8
ALIGN
10
215.5993
20
13.7219
30
0.0
0
VERTEX
8
ALIGN
10
214.3867
20
13.1757
30
0.0
0
VERTEX
8
ALIGN
10
213.1694
20
12.6400
30
0.0
0
VERTEX
8
ALIGN
10
211.9474
20
12.1151
30
0.0
0
VERTEX
8
ALIGN
10
210.7210
20
11.6008
30
0.0
0
VERTEX
8
ALIGN
10
209.4900
20
11.0972
30
0.0
0
VERTEX
8
ALIGN
10
208.2548
20
10.6044
30
0.0
0
VERTEX
8
ALIGN
10
207.0153
20
10.1223
30
0.0
0
VERTEX
8
ALIGN
10
205.7716
20
9.6512
30
0.0
0
VERTEX
8
ALIGN
10
204.5239
20
9.1908
30
0.0
0
VERTEX
8
ALIGN
10
203.2722
20
8.7414
30
0.0
0
VERTEX
8
ALIGN
10
202.0166
20
8.3030
30
0.0
0
VERTEX
8
ALIGN
10
200.7572
20
7.8755
30
0.0
0
VERTEX
8
ALIGN
10
199.4942
20
7.4590
30
0.0
0
VERTEX
8
ALIGN
10
198.2276
20
7.0535
30
0.0
0
VERTEX
8
ALIGN
10
196.9574
20
6.6592
30
0.0
0
VERTEX
8
ALIGN
10
195.6839
20
6.2759
30
0.0
0
VERTEX
8
ALIGN
10
194.4071
20
5.9037
30
0.0
0
VERTEX
8
ALIGN
10
193.1271
20
5.5427
30
0.0
0
VERTEX
8
ALIGN
10
191.8440
20
5.1929
30
0.0
0
VERTEX
8
ALIGN
10
190.5579
20
4.8543
30
0.0
0
VERTEX
8
ALIGN
10
189.2689
20
4.5269
30
0.0
0
VERTEX
8
ALIGN
10
187.9771
20
4.2108
30
0.0
0
VERTEX
8
ALIGN
10
186.6825
20
3.9060
30
0.0
0
VERTEX
8
ALIGN
10
185.3854
20
3.6125
30
0.0
0
VERTEX
8
ALIGN
10
184.0857
20
3.3303
30
0.0
0
VERTEX
8
ALIGN
10
182.7837
20
3.0595
30
0.0
0
VERTEX
8
ALIGN
10
181.4793
20
2.8000
30
0.0
0
VERTEX
8
ALIGN
10
180.1727
20
2.5520
30
0.0
0
VERTEX
8
ALIGN
10
178.8640
20
2.3153
30
0.0
0
VERTEX
8
ALIGN
10
177.5533
20
2.0901
30
0.0
0
VERTEX
8
ALIGN
10
176.2406
20
1.8763
30
0.0
0
VERTEX
8
ALIGN
10
174.9262
20
1.6740
30
0.0
0
VERTEX
8
ALIGN
10
173.6100
20
1.4831
30
0.0
0
VERTEX
8
ALIGN
10
172.2922
20
1.3038
30
0.0
0
VERTEX
8
ALIGN
10
170.9729
20
1.1360
30
0.0
0
VERTEX
8
ALIGN
10
169.6522
20
0.9796
30
0.0
0
VERTEX
8
ALIGN
10
168.3301
20
0.8349
30
0.0
0
VERTEX
8
ALIGN
10
167.0069
20
0.7016
30
0.0
0
VERTEX
8
ALIGN
10
165.6825
20
0.5799
30
0.0
0
VERTEX
8
ALIGN
10
164.3572
20
0.4698
30
0.0
0
VERTEX
8
ALIGN
10
163.0309
20
0.3712
30
0.0
0
VERTEX
8
ALIGN
10
161.7038
20
0.2843
30
0.0
0
VERTEX
8
ALIGN
10
160.3760
20
0.2089
30
0.0
0
VERTEX
8
ALIGN
10
159.0476
20
0.1451
30
0.0
0
VERTEX
8
ALIGN
10
157.7187
20
0.0928
30
0.0
0
VERTEX
8
ALIGN
10
156.3894
20
0.0522
30
0.0
0
VERTEX
8
ALIGN
10
155.0597
20
0.0232
30
0.0
0
VERTEX
8
ALIGN
10
153.7299
20
0.0058
30
0.0
0
VERTEX
8
ALIGN
10
152.4000
20
0.0000
30
0.0
0
VERTEX
8
ALIGN
10
151.0701
20
0.0058
30
0.0
0
VERTEX
8
ALIGN
10
149.7403
20
0.0232
30
0.0
0
VERTEX
8
ALIGN
10
148.4106
20
0.0522
30
0.0
0
VERTEX
8
ALIGN
10
147.0813
20
0.0928
30
0.0
0
VERTEX
8
ALIGN
10
145.7524
20
0.1451
30
0.0
0
VERTEX
8
ALIGN
10
144.4240
20
0.2089
30
0.0
0
VERTEX
8
ALIGN
10
143.0962
20
0.2843
30
0.0
0
VERTEX
8
ALIGN
10
141.7691
20
0.3712
30
0.0
0
VERTEX
8
ALIGN
10
140.4428
20
0.4698
30
0.0
0
VERTEX
8
ALIGN
10
139.1175
20
0.5799
30
0.0
0
VERTEX
8
ALIGN
10
137.7931
20
0.7016
30
0.0
0
VERTEX
8
ALIGN
10
136.4699
20
0.8349
30
0.0
0
VERTEX
8
ALIGN
10
135.1478
20
0.9796
30
0.0
0
VERTEX
8
ALIGN
10
133.8271
20
1.1360
30
0.0
0
VERTEX
8
ALIGN
10
132.5078
20
1.3038
30
0.0
0
VERTEX
8
ALIGN
10
131.1900
20
1.4831
30
0.0
0
VERTEX
8
ALIGN
10
129.8738
20
1.6740
30
0.0
0
VERTEX
8
ALIGN
10
128.5594
20
1.8763
30
0.0
0
VERTEX
8
ALIGN
10
127.2467
20
2.0901
30
0.0
0
VERTEX
8
ALIGN
10
125.9360
20
2.3153
30
0.0
0
VERTEX
8
ALIGN
10
124.6273
20
2.5520
30
0.0
0
VERTEX
8
ALIGN
10
123.3207
20
2.8000
30
0.0
0
VERTEX
8
ALIGN
10
122.0163
20
3.0595
30
0.0
0
VERTEX
8
ALIGN
10
120.7143
20
3.3303
30
0.0
0
VERTEX
8
ALIGN
10
119.4146
20
3.6125
30
0.0
0
VERTEX
8
ALIGN
10
118.1175
20
3.9060
30
0.0
0
VERTEX
8
ALIGN
10
116.8229
20
4.2108
30
0.0
0
VERTEX
8
ALIGN
10
115.5311
20
4.5269
30
0.0
0
VERTEX
8
ALIGN
10
114.2421
20
4.8543
30
0.0
0
VERTEX
8
ALIGN
10
112.9560
20
5.1929
30
0.0
0
VERTEX
8
ALIGN
10
111.6729
20
5.5427
30
0.0
0
VERTEX
8
ALIGN
10
110.3929
20
5.9037
30
0.0
0
VERTEX
8
ALIGN
10
109.1161
20
6.2759
30
0.0
0
VERTEX
8
ALIGN
10
107.8426
20
6.6592
30
0.0
0
VERTEX
8
ALIGN
10
106.5724
20
7.0535
30
0.0
0
VERTEX
8
ALIGN
10
105.3058
20
7.4590
30
0.0
0
VERTEX
8
ALIGN
10
104.0428
20
7.8755
30
0.0
0
VERTEX
8
ALIGN
10
102.7834
20
8.3030
30
0.0
0
VERTEX
8
ALIGN
10
101.5278
20
8.7414
30
0.0
0
VERTEX
8
ALIGN
10
100.2761
20
9.1908
30
0.0
0
VERTEX
8
ALIGN
10
99.0284
20
9.6512
30
0.0
0
VERTEX
8
ALIGN
10
97.7847
20
10.1223
30
0.0
0
VERTEX
8
ALIGN
10
96.5452
20
10.6044
30
0.0
0
VERTEX
8
ALIGN
10
95.3100
20
11.0972
30
0.0
0
VERTEX
8
ALIGN
10
94.0790
20
11.6008
30
0.0
0
VERTEX
8
ALIGN
10
92.8526
20
12.1151
30
0.0
0
VERTEX
8
ALIGN
10
91.6306
20
12.6400
30
0.0
0
VERTEX
8
ALIGN
10
90.4133
20
13.1757
30
0.0
0
VERTEX
8
ALIGN
10
89.2007
20
13.7219
30
0.0
0
VERTEX
8
ALIGN
10
87.9930
20
14.2787
30
0.0
0
VERTEX
8
ALIGN
10
86.7901
20
14.8460
30
0.0
0
VERTEX
8
ALIGN
10
85.5922
20
15.4238
30
0.0
0
VERTEX
8
ALIGN
10
84.3995
20
16.0120
30
0.0
0
VERTEX
8
ALIGN
10
83.2118
20
16.6106
30
0.0
0
VERTEX
8
ALIGN
10
82.0295
20
17.2195
30
0.0
0
VERTEX
8
ALIGN
10
80.8525
20
17.8388
30
0.0
0
VERTEX
8
ALIGN
10
79.6810
20
18.4683
30
0.0
0
VERTEX
8
ALIGN
10
78.5150
20
19.1080
30
0.0
0
VERTEX
8
ALIGN
10
77.3546
20
19.7578
30
0.0
0
VERTEX
8
ALIGN
10
76.2000
20
20.4177
30
0.0
0
VERTEX
8
ALIGN
10
75.0512
20
21.0877
30
0.0
0
VERTEX
8
ALIGN
10
73.9082
20
21.7677
30
0.0
0
VERTEX
8
ALIGN
10
72.7712
20
22.4576
30
0.0
0
VERTEX
8
ALIGN
10
71.6403
20
23.1575
30
0.0
0
VERTEX
8
ALIGN
10
70.5155
20
23.8671
30
0.0
0
VERTEX
8
ALIGN
10
69.3970
20
24.5866
30
0.0
0
VERTEX
8
ALIGN
10
68.2848
20
25.3158
30
0.0
0
VERTEX
8
ALIGN
10
67.1790
20
26.0547
30
0.0
0
VERTEX
8
ALIGN
10
66.0797
20
26.8032
30
0.0
0
VERTEX
8
ALIGN
10
64.9870
20
27.5612
30
0.0
0
VERTEX
8
ALIGN
10
63.9009
20
28.3288
30
0.0
0
VERTEX
8
ALIGN
10
62.8215
20
29.1058
30
0.0
0
VERTEX
8
ALIGN
10
61.7490
20
29.8922
30
0.0
0
VERTEX
8
ALIGN
10
60.6834
20
30.6879
30
0.0
0
VERTEX
8
ALIGN
10
59.6248
20
31.4930
30
0.0
0
VERTEX
8
ALIGN
10
58.5732
20
32.3072
30
0.0
0
VERTEX
8
ALIGN
10
57.5288
20
33.1305
30
0.0
0
VERTEX
8
ALIGN
10
56.4916
20
33.9630
30
0.0
0
VERTEX
8
ALIGN
10
55.4617
20
34.8044
30
0.0
0
VERTEX
8
ALIGN
10
54.4392
20
35.6548
30
0.0
0
VERTEX
8
ALIGN
10
53.4241
20
36.5141
30
0.0
0
VERTEX
8
ALIGN
10
52.4166
20
37.3823
30
0.0
0
VERTEX
8
ALIGN
10
51.4167
20
38.2591
30
0.0
0
VERTEX
8
ALIGN
10
50.4245
20
39.1447
30
0.0
0
VERTEX
8
ALIGN
10
49.4401
20
40.0389
30
0.0
0
VERTEX
8
ALIGN
10
48.4634
20
40.9417
30
0.0
0
VERTEX
8
ALIGN
10
47.4948
20
41.8529
30
0.0
0
VERTEX
8
ALIGN
10
46.5341
20
42.7726
30
0.0
0
VERTEX
8
ALIGN
10
45.5814
20
43.7006
30
0.0
0
VERTEX
8
ALIGN
10
44.6369
20
44.6369
30
0.0
0
VERTEX
8
ALIGN
10
43.7006
20
45.5814
30
0.0
0
VERTEX
8
ALIGN
10
42.7726
20
46.5341
30
0.0
0
VERTEX
8
ALIGN
10
41.8529
20
47.4948
30
0.0
0
VERTEX
8
ALIGN
10
40.9417
20
48.4634
30
0.0
0
VERTEX
8
ALIGN
10
40.0389
20
49.4401
30
0.0
0
VERTEX
8
ALIGN
10
39.1447
20
50.4245
30
0.0
0
VERTEX
8
ALIGN
10
38.2591
20
51.4167
30
0.0
0
VERTEX
8
ALIGN
10
37.3823
20
52.4166
30
0.0
0
VERTEX
8
ALIGN
10
36.5141
20
53.4241
30
0.0
0
VERTEX
8
ALIGN
10
35.6548
20
54.4392
30
0.0
0
VERTEX
8
ALIGN
10
34.8044
20
55.4617
30
0.0
0
VERTEX
8
ALIGN
10
33.9630
20
56.4916
30
0.0
0
VERTEX
8
ALIGN
10
33.1305
20
57.5288
30
0.0
0
VERTEX
8
ALIGN
10
32.3072
20
58.5732
30
0.0
0
VERTEX
8
ALIGN
10
31.4930
20
59.6248
30
0.0
0
VERTEX
8
ALIGN
10
30.6879
20
60.6834
30
0.0
0
VERTEX
8
ALIGN
10
29.8922
20
61.7490
30
0.0
0
VERTEX
8
ALIGN
10
29.1058
20
62.8215
30
0.0
0
VERTEX
8
ALIGN
10
28.3288
20
63.9009
30
0.0
0
VERTEX
8
ALIGN
10
27.5612
20
64.9870
30
0.0
0
VERTEX
8
ALIGN
10
26.8032
20
66.0797
30
0.0
0
VERTEX
8
ALIGN
10
26.0547
20
67.1790
30
0.0
0
VERTEX
8
ALIGN
10
25.3158
20
68.2848
30
0.0
0
VERTEX
8
ALIGN
10
24.5866
20
69.3970
30
0.0
0
VERTEX
8
ALIGN
10
23.8671
20
70.5155
30
0.0
0
VERTEX
8
ALIGN
10
23.1575
20
71.6403
30
0.0
0
VERTEX
8
ALIGN
10
22.4576
20
72.7712
30
0.0
0
VERTEX
8
ALIGN
10
21.7677
20
73.9082
30
0.0
0
VERTEX
8
ALIGN
10
21.0877
20
75.0512
30
0.0
0
VERTEX
8
ALIGN
10
20.4177
20
76.2000
30
0.0
0
VERTEX
8
ALIGN
10
19.7578
20
77.3546
30
0.0
0
VERTEX
8
ALIGN
10
19.1080
20
78.5150
30
0.0
0
VERTEX
8
ALIGN
10
18.4683
20
79.6810
30
0.0
0
VERTEX
8
ALIGN
10
17.8388
20
80.8525
30
0.0
0
VERTEX
8
ALIGN
10
17.2195
20
82.0295
30
0.0
0
VERTEX
8
ALIGN
10
16.6106
20
83.2118
30
0.0
0
VERTEX
8
ALIGN
10
16.0120
20
84.3995
30
0.0
0
VERTEX
8
ALIGN
10
15.4238
20
85.5922
30
0.0
0
VERTEX
8
ALIGN
10
14.8460
20
86.7901
30
0.0
0
VERTEX
8
ALIGN
10
14.2787
20
87.9930
30
0.0
0
VERTEX
8
ALIGN
10
13.7219
20
89.2007
30
0.0
0
VERTEX
8
ALIGN
10
13.1757
20
90.4133
30
0.0
0
VERTEX
8
ALIGN
10
12.6400
20
91.6306
30
0.0
0
VERTEX
8
ALIGN
10
12.1151
20
92.8526
30
0.0
0
VERTEX
8
ALIGN
10
11.6008
20
94.0790
30
0.0
0
VERTEX
8
ALIGN
10
11.0972
20
95.3100
30
0.0
0
VERTEX
8
ALIGN
10
10.6044
20
96.5452
30
0.0
0
VERTEX
8
ALIGN
10
10.1223
20
97.7847
30
0.0
0
VERTEX
8
ALIGN
10
9.6512
20
99.0284
30
0.0
0
VERTEX
8
ALIGN
10
9.1908
20
100.2761
30
0.0
0
VERTEX
8
ALIGN
10
8.7414
20
101.5278
30
0.0
0
VERTEX
8
ALIGN
10
8.3030
20
102.7834
30
0.0
0
VERTEX
8
ALIGN
10
7.8755
20
104.0428
30
0.0
0
VERTEX
8
ALIGN
10
7.4590
20
105.3058
30
0.0
0
VERTEX
8
ALIGN
10
7.0535
20
106.5724
30
0.0
0
VERTEX
8
ALIGN
10
6.6592
20
107.8426
30
0.0
0
VERTEX
8
ALIGN
10
6.2759
20
109.1161
30
0.0
0
VERTEX
8
ALIGN
10
5.9037
20
110.3929
30
0.0
0
VERTEX
8
ALIGN
10
5.5427
20
111.6729
30
0.0
0
VERTEX
8
ALIGN
10
5.1929
20
112.9560
30
0.0
0
VERTEX
8
ALIGN
10
4.8543
20
114.2421
30
0.0
0
VERTEX
8
ALIGN
10
4.5269
20
115.5311
30
0.0
0
VERTEX
8
ALIGN
10
4.2108
20
116.8229
30
0.0
0
VERTEX
8
ALIGN
10
3.9060
20
118.1175
30
0.0
0
VERTEX
8
ALIGN
10
3.6125
20
119.4146
30
0.0
0
VERTEX
8
ALIGN
10
3.3303
20
120.7143
30
0.0
0
VERTEX
8
ALIGN
10
3.0595
20
122.0163
30
0.0
0
VERTEX
8
ALIGN
10
2.8000
20
123.3207
30
0.0
0
VERTEX
8
ALIGN
10
2.5520
20
124.6273
30
0.0
0
VERTEX
8
ALIGN
10
2.3153
20
125.9360
30
0.0
0
VERTEX
8
ALIGN
10
2.0901
20
127.2467
30
0.0
0
VERTEX
8
ALIGN
10
1.8763
20
128.5594
30
0.0
0
VERTEX
8
ALIGN
10
1.6740
20
129.8738
30
0.0
0
VERTEX
8
ALIGN
10
1.4831
20
131.1900
30
0.0
0
VERTEX
8
ALIGN
10
1.3038
20
132.5078
30
0.0
0
VERTEX
8
ALIGN
10
1.1360
20
133.8271
30
0.0
0
VERTEX
8
ALIGN
10
0.9796
20
135.1478
30
0.0
0
VERTEX
8
ALIGN
10
0.8349
20
136.4699
30
0.0
0
VERTEX
8
ALIGN
10
0.7016
20
137.7931
30
0.0
0
VERTEX
8
ALIGN
10
0.5799
20
139.1175
30
0.0
0
VERTEX
8
ALIGN
10
0.4698
20
140.4428
30
0.0
0
VERTEX
8
ALIGN
10
0.3712
20
141.7691
30
0.0
0
VERTEX
8
ALIGN
10
0.2843
20
143.0962
30
0.0
0
VERTEX
8
ALIGN
10
0.2089
20
144.4240
30
0.0
0
VERTEX
8
ALIGN
10
0.1451
20
145.7524
30
0.0
0
VERTEX
8
ALIGN
10
0.0928
20
147.0813
30
0.0
0
VERTEX
8
ALIGN
10
0.0522
20
148.4106
30
0.0
0
VERTEX
8
ALIGN
10
0.0232
20
149.7403
30
0.0
0
VERTEX
8
ALIGN
10
0.0058
20
151.0701
30
0.0
0
VERTEX
8
ALIGN
10
0.0000
20
152.4000
30
0.0
0
VERTEX
8
ALIGN
10
0.0058
20
153.7299
30
0.0
0
VERTEX
8
ALIGN
10
0.0232
20
155.0597
30
0.0
0
VERTEX
8
ALIGN
10
0.0522
20
156.3894
30
0.0
0
VERTEX
8
ALIGN
10
0.0928
20
157.7187
30
0.0
0
VERTEX
8
ALIGN
10
0.1451
20
159.0476
30
0.0
0
VERTEX
8
ALIGN
10
0.2089
20
160.3760
30
0.0
0
VERTEX
8
ALIGN
10
0.2843
20
161.7038
30
0.0
0
VERTEX
8
ALIGN
10
0.3712
20
163.0309
30
0.0
0
VERTEX
8
ALIGN
10
0.4698
20
164.3572
30
0.0
0
VERTEX
8
ALIGN
10
0.5799
20
165.6825
30
0.0
0
VERTEX
8
ALIGN
10
0.7016
20
167.0069
30
0.0
0
VERTEX
8
ALIGN
10
0.8349
20
168.3301
30
0.0
0
VERTEX
8
ALIGN
10
0.9796
20
169.6522
30
0.0
0
VERTEX
8
ALIGN
10
1.1360
20
170.9729
30
0.0
0
VERTEX
8
ALIGN
10
1.3038
20
172.2922
30
0.0
0
VERTEX
8
ALIGN
10
1.4831
20
173.6100
30
0.0
0
VERTEX
8
ALIGN
10
1.6740
20
174.9262
30
0.0
0
VERTEX
8
ALIGN
10
1.8763
20
176.2406
30
0.0
0
VERTEX
8
ALIGN
10
2.0901
20
177.5533
30
0.0
0
VERTEX
8
ALIGN
10
2.3153
20
178.8640
30
0.0
0
VERTEX
8
ALIGN
10
2.5520
20
180.1727
30
0.0
0
VERTEX
8
ALIGN
10
2.8000
20
181.4793
30
0.0
0
VERTEX
8
ALIGN
10
3.0595
20
182.7837
30
0.0
0
VERTEX
8
ALIGN
10
3.3303
20
184.0857
30
0.0
0
VERTEX
8
ALIGN
10
3.6125
20
185.3854
30
0.0
0
VERTEX
8
ALIGN
10
3.9060
20
186.6825
30
0.0
0
VERTEX
8
ALIGN
10
4.2108
20
187.9771
30
0.0
0
VERTEX
8
ALIGN
10
4.5269
20
189.2689
30
0.0
0
VERTEX
8
ALIGN
10
4.8543
20
190.5579
30
0.0
0
VERTEX
8
ALIGN
10
5.1929
20
191.8440
30
0.0
0
VERTEX
8
ALIGN
10
5.5427
20
193.1271
30
0.0
0
VERTEX
8
ALIGN
10
5.9037
20
194.4071
30
0.0
0
VERTEX
8
ALIGN
10
6.2759
20
195.6839
30
0.0
0
VERTEX
8
ALIGN
10
6.6592
20
196.9574
30
0.0
0
VERTEX
8
ALIGN
10
7.0535
20
198.2276
30
0.0
0
VERTEX
8
ALIGN
10
7.4590
20
199.4942
30
0.0
0
VERTEX
8
ALIGN
10
7.8755
20
200.7572
30
0.0
0
VERTEX
8
ALIGN
10
8.3030
20
202.0166
30
0.0
0
VERTEX
8
ALIGN
10
8.7414
20
203.2722
30
0.0
0
VERTEX
8
ALIGN
10
9.1908
20
204.5239
30
0.0
0
VERTEX
8
ALIGN
10
9.6512
20
205.7716
30
0.0
0
VERTEX
8
ALIGN
10
10.1223
20
207.0153
30
0.0
0
VERTEX
8
ALIGN
10
10.6044
20
208.2548
30
0.0
0
VERTEX
8
ALIGN
10
11.0972
20
209.4900
30
0.0
0
VERTEX
8
ALIGN
10
11.6008
20
210.7210
30
0.0
0
VERTEX
8
ALIGN
10
12.1151
20
211.9474
30
0.0
0
VERTEX
8
ALIGN
10
12.6400
20
213.1694
30
0.0
0
VERTEX
8
ALIGN
10
13.1757
20
214.3867
30
0.0
0
VERTEX
8
ALIGN
10
13.7219
20
215.5993
30
0.0
0
VERTEX
8
ALIGN
10
14.2787
20
216.8070
30
0.0
0
VERTEX
8
ALIGN
10
14.8460
20
218.0099
30
0.0
0
VERTEX
8
ALIGN
10
15.4238
20
219.2078
30
0.0
0
VERTEX
8
ALIGN
10
16.0120
20
220.4005
30
0.0
0
VERTEX
8
ALIGN
10
16.6106
20
221.5882
30
0.0
0
VERTEX
8
ALIGN
10
17.2195
20
222.7705
30
0.0
0
VERTEX
8
ALIGN
10
17.8388
20
223.9475
30
0.0
0
VERTEX
8
ALIGN
10
18.4683
20
225.1190
30
0.0
0
VERTEX
8
ALIGN
10
19.1080
20
226.2850
30
0.0
0
VERTEX
8
ALIGN
10
19.7578
20
227.4454
30
0.0
0
VERTEX
8
ALIGN
10
20.4177
20
228.6000
30
0.0
0
VERTEX
8
ALIGN
10
21.0877
20
229.7488
30
0.0
0
VERTEX
8
ALIGN
10
21.7677
20
230.8918
30
0.0
0
VERTEX
8
ALIGN
10
22.4576
20
232.0288
30
0.0
0
VERTEX
8
ALIGN
10
23.1575
20
233.1597
30
0.0
0
VERTEX
8
ALIGN
10
23.8671
20
234.2845
30
0.0
0
VERTEX
8
ALIGN
10
24.5866
20
235.4030
30
0.0
0
VERTEX
8
ALIGN
10
25.3158
20
236.5152
30
0.0
0
VERTEX
8
ALIGN
10
26.0547
20
237.6210
30
0.0
0
VERTEX
8
ALIGN
10
26.8032
20
238.7203
30
0.0
0
VERTEX
8
ALIGN
10
27.5612
20
239.8130
30
0.0
0
VERTEX
8
ALIGN
10
28.3288
20
240.8991
30
0.0
0
VERTEX
8
ALIGN
10
29.1058
20
241.9785
30
0.0
0
VERTEX
8
ALIGN
10
29.8922
20
243.0510
30
0.0
0
VERTEX
8
ALIGN
10
30.6879
20
244.1166
30
0.0
0
VERTEX
8
ALIGN
10
31.4930
20
245.1752
30
0.0
0
VERTEX
8
ALIGN
10
32.3072
20
246.2268
30
0.0
0
VERTEX
8
ALIGN
10
33.1305
20
247.2712
30
0.0
0
VERTEX
8
ALIGN
10
33.9630
20
248.3084
30
0.0
0
VERTEX
8
ALIGN
10
34.8044
20
249.3383
30
0.0
0
VERTEX
8
ALIGN
10
35.6548
20
250.3608
30
0.0
0
VERTEX
8
ALIGN
10
36.5141
20
251.3759
30
0.0
0
VERTEX
8
ALIGN
10
37.3823
20
252.3834
30
0.0
0
VERTEX
8
ALIGN
10
38.2591
20
253.3833
30
0.0
0
VERTEX
8
ALIGN
10
39.1447
20
254.3755
30
0.0
0
VERTEX
8
ALIGN
10
40.0389
20
255.3599
30
0.0
0
VERTEX
8
ALIGN
10
40.9417
20
256.3366
30
0.0
0
VERTEX
8
ALIGN
10
41.8529
20
257.3052
30
0.0
0
VERTEX
8
ALIGN
10
42.7726
20
258.2659
30
0.0
0
VERTEX
8
ALIGN
10
43.7006
20
259.2186
30
0.0
0
VERTEX
8
ALIGN
10
44.6369
20
260.1631
30
0.0
0
VERTEX
8
ALIGN
10
45.5814
20
261.0994
30
0.0
0
VERTEX
8
ALIGN
10
46.5341
20
262.0274
30
0.0
0
VERTEX
8
ALIGN
10
47.4948
20
262.9471
30
0.0
0
VERTEX
8
ALIGN
10
48.4634
20
263.8583
30
0.0
0
VERTEX
8
ALIGN
10
49.4401
20
264.7611
30
0.0
0
VERTEX
8
ALIGN
10
50.4245
20
265.6553
30
0.0
0
VERTEX
8
ALIGN
10
51.4167
20
266.5409
30
0.0
0
VERTEX
8
ALIGN
10
52.4166
20
267.4177
30
0.0
0
VERTEX
8
ALIGN
10
53.4241
20
268.2859
30
0.0
0
VERTEX
8
ALIGN
10
54.4392
20
269.1452
30
0.0
0
VERTEX
8
ALIGN
10
55.4617
20
269.9956
30
0.0
0
VERTEX
8
ALIGN
10
56.4916
20
270.8370
30
0.0
0
VERTEX
8
ALIGN
10
57.5288
20
271.6695
30
0.0
0
VERTEX
8
ALIGN
10
58.5732
20
272.4928
30
0.0
0
VERTEX
8
ALIGN
10
59.6248
20
273.3070
30
0.0
0
VERTEX
8
ALIGN
10
60.6834
20
274.1121
30
0.0
0
VERTEX
8
ALIGN
10
61.7490
20
274.9078
30
0.0
0
VERTEX
8
ALIGN
10
62.8215
20
275.6942
30
0.0
0
VERTEX
8
ALIGN
10
63.9009
20
276.4712
30
0.0
0
VERTEX
8
ALIGN
10
64.9870
20
277.2388
30
0.0
0
VERTEX
8
ALIGN
10
66.0797
20
277.9968
30
0.0
0
VERTEX
8
ALIGN
10
67.1790
20
278.7453
30
0.0
0
VERTEX
8
ALIGN
10
68.2848
20
279.4842
30
0.0
0
VERTEX
8
ALIGN
10
69.3970
20
280.2134
30
0.0
0
VERTEX
8
ALIGN
10
70.5155
20
280.9329
30
0.0
0
VERTEX
8
ALIGN
10
71.6403
20
281.6425
30
0.0
0
VERTEX
8
ALIGN
10
72.7712
20
282.3424
30
0.0
0
VERTEX
8
ALIGN
10
73.9082
20
283.0323
30
0.0
0
VERTEX
8
ALIGN
10
75.0512
20
283.7123
30
0.0
0
VERTEX
8
ALIGN
10
76.2000
20
284.3823
30
0.0
0
VERTEX
8
ALIGN
10
77.3546
20
285.0422
30
0.0
0
VERTEX
8
ALIGN
10
78.5150
20
285.6920
30
0.0
0
VERTEX
8
ALIGN
10
79.6810
20
286.3317
30
0.0
0
VERTEX
8
ALIGN
10
80.8525
20
286.9612
30
0.0
0
VERTEX
8
ALIGN
10
82.0295
20
287.5805
30
0.0
0
VERTEX
8
ALIGN
10
83.2118
20
288.1894
30
0.0
0
VERTEX
8
ALIGN
10
84.3995
20
288.7880
30
0.0
0
VERTEX
8
ALIGN
10
85.5922
20
289.3762
30
0.0
0
VERTEX
8
ALIGN
10
86.7901
20
289.9540
30
0.0
0
VERTEX
8
ALIGN
10
87.9930
20
290.5213
30
0.0
0
VERTEX
8
ALIGN
10
89.2007
20
291.0781
30
0.0
0
VERTEX
8
ALIGN
10
90.4133
20
291.6243
30
0.0
0
VERTEX
8
ALIGN
10
91.6306
20
292.1600
30
0.0
0
VERTEX
8
ALIGN
10
92.8526
20
292.6849
30
0.0
0
VERTEX
8
ALIGN
10
94.0790
20
293.1992
30
0.0
0
VERTEX
8
ALIGN
10
95.3100
20
293.7028
30
0.0
0
VERTEX
8
ALIGN
10
96.5452
20
294.1956
30
0.0
0
VERTEX
8
ALIGN
10
97.7847
20
294.6777
30
0.0
0
VERTEX
8
ALIGN
10
99.0284
20
295.1488
30
0.0
0
VERTEX
8
ALIGN
10
100.2761
20
295.6092
30
0.0
0
VERTEX
8
ALIGN
10
101.5278
20
296.0586
30
0.0
0
VERTEX
8
ALIGN
10
102.7834
20
296.4970
30
0.0
0
VERTEX
8
ALIGN
10
104.0428
20
296.9245
30
0.0
0
VERTEX
8
ALIGN
10
105.3058
20
297.3410
30
0.0
0
VERTEX
8
ALIGN
10
106.5724
20
297.7465
30
0.0
0
VERTEX
8
ALIGN
10
107.8426
20
298.1408
30
0.0
0
VERTEX
8
ALIGN
10
109.1161
20
298.5241
30
0.0
0
VERTEX
8
ALIGN
10
110.3929
20
298.8963
30
0.0
0
VERTEX
8
ALIGN
10
111.6729
20
299.2573
30
0.0
0
VERTEX
8
ALIGN
10
112.9560
20
299.6071
30
0.0
0
VERTEX
8
ALIGN
10
114.2421
20
299.9457
30
0.0
0
VERTEX
8
ALIGN
10
115.5311
20
300.2731
30
0.0
0
VERTEX
8
ALIGN
10
116.8229
20
300.5892
30
0.0
0
VERTEX
8
ALIGN
10
118.1175
20
300.8940
30
0.0
0
VERTEX
8
ALIGN
10
119.4146
20
301.1875
30
0.0
0
VERTEX
8
ALIGN
10
120.7143
20
301.4697
30
0.0
0
VERTEX
8
ALIGN
10
122.0163
20
301.7405
30
0.0
0
VERTEX
8
ALIGN
10
123.3207
20
302.0000
30
0.0
0
VERTEX
8
ALIGN
10
124.6273
20
302.2480
30
0.0
0
VERTEX
8
ALIGN
10
125.9360
20
302.4847
30
0.0
0
VERTEX
8
ALIGN
10
127.2467
20
302.7099
30
0.0
0
VERTEX
8
ALIGN
10
128.5594
20
302.9237
30
0.0
0
VERTEX
8
ALIGN
10
129.8738
20
303.1260
30
0.0
0
VERTEX
8
ALIGN
10
131.1900
20
303.3169
30
0.0
0
VERTEX
8
ALIGN
10
132.5078
20
303.4962
30
0.0
0
VERTEX
8
ALIGN
10
133.8271
20
303.6640
30
0.0
0
VERTEX
8
ALIGN
10
135.1478
20
303.8204
30
0.0
0
VERTEX
8
ALIGN
10
136.4699
20
303.9651
30
0.0
0
VERTEX
8
ALIGN
10
137.7931
20
304.0984
30
0.0
0
VERTEX
8
ALIGN
10
139.1175
20
304.2201
30
0.0
0
VERTEX
8
ALIGN
10
140.4428
20
304.3302
30
0.0
0
VERTEX
8
ALIGN
10
141.7691
20
304.4288
30
0.0
0
VERTEX
8
ALIGN
10
143.0962
20
304.5157
30
0.0
0
VERTEX
8
ALIGN
10
144.4240
20
304.5911
30
0.0
0
VERTEX
8
ALIGN
10
145.7524
20
304.6549
30
0.0
0
VERTEX
8
ALIGN
10
147.0813
20
304.7072
30
0.0
0
VERTEX
8
ALIGN
10
148.4106
20
304.7478
30
0.0
0
VERTEX
8
ALIGN
10
149.7403
20
304.7768
30
0.0
0
VERTEX
8
ALIGN
10
151.0701
20
304.7942
30
0.0
0
VERTEX
8
ALIGN
10
152.4000
20
304.8000
30
0.0
0
VERTEX
8
ALIGN
10
153.7299
20
304.7942
30
0.0
0
VERTEX
8
ALIGN
10
155.0597
20
304.7768
30
0.0
0
VERTEX
8
ALIGN
10
156.3894
20
304.7478
30
0.0
0
VERTEX
8
ALIGN
10
157.7187
20
304.7072
30
0.0
0
VERTEX
8
ALIGN
10
159.0476
20
304.6549
30
0.0
0
VERTEX
8
ALIGN
10
160.3760
20
304.5911
30
0.0
0
VERTEX
8
ALIGN
10
161.7038
20
304.5157
30
0.0
0
VERTEX
8
ALIGN
10
163.0309
20
304.4288
30
0.0
0
VERTEX
8
ALIGN
10
164.3572
20
304.3302
30
0.0
0
VERTEX
8
ALIGN
10
165.6825
20
304.2201
30
0.0
0
VERTEX
8
ALIGN
10
167.0069
20
304.0984
30
0.0
0
VERTEX
8
ALIGN
10
168.3301
20
303.9651
30
0.0
0
VERTEX
8
ALIGN
10
169.6522
20
303.8204
30
0.0
0
VERTEX
8
ALIGN
10
170.9729
20
303.6640
30
0.0
0
VERTEX
8
ALIGN
10
172.2922
20
303.4962
30
0.0
0
VERTEX
8
ALIGN
10
173.6100
20
303.3169
30
0.0
0
VERTEX
8
ALIGN
10
174.9262
20
303.1260
30
0.0
0
VERTEX
8
ALIGN
10
176.2406
20
302.9237
30
0.0
0
VERTEX
8
ALIGN
10
177.5533
20
302.7099
30
0.0
0
VERTEX
8
ALIGN
10
178.8640
20
302.4847
30
0.0
0
VERTEX
8
ALIGN
10
180.1727
20
302.2480
30
0.0
0
VERTEX
8
ALIGN
10
181.4793
20
302.0000
30
0.0
0
VERTEX
8
ALIGN
10
182.7837
20
301.7405
30
0.0
0
VERTEX
8
ALIGN
10
184.0857
20
301.4697
30
0.0
0
VERTEX
8
ALIGN
10
185.3854
20
301.1875
30
0.0
0
VERTEX
8
ALIGN
10
186.6825
20
300.8940
30
0.0
0
VERTEX
8
ALIGN
10
187.9771
20
300.5892
30
0.0
0
VERTEX
8
ALIGN
10
189.2689
20
300.2731
30
0.0
0
VERTEX
8
ALIGN
10
190.5579
20
299.9457
30
0.0
0
VERTEX
8
ALIGN
10
191.8440
20
299.6071
30
0.0
0
VERTEX
8
ALIGN
10
193.1271
20
299.2573
30
0.0
0
VERTEX
8
ALIGN
10
194.4071
20
298.8963
30
0.0
0
VERTEX
8
ALIGN
10
195.6839
20
298.5241
30
0.0
0
VERTEX
8
ALIGN
10
196.9574
20
298.1408
30
0.0
0
VERTEX
8
ALIGN
10
198.2276
20
297.7465
30
0.0
0
VERTEX
8
ALIGN
10
199.4942
20
297.3410
30
0.0
0
VERTEX
8
ALIGN
10
200.7572
20
296.9245
30
0.0
0
VERTEX
8
ALIGN
10
202.0166
20
296.4970
30
0.0
0
VERTEX
8
ALIGN
10
203.2722
20
296.0586
30
0.0
0
VERTEX
8
ALIGN
10
204.5239
20
295.6092
30
0.0
0
VERTEX
8
ALIGN
10
205.7716
20
295.1488
30
0.0
0
VERTEX
8
ALIGN
10
207.0153
20
294.6777
30
0.0
0
VERTEX
8
ALIGN
10
208.2548
20
294.1956
30
0.0
0
VERTEX
8
ALIGN
10
209.4900
20
293.7028
30
0.0
0
VERTEX
8
ALIGN
10
210.7210
20
293.1992
30
0.0
0
VERTEX
8
ALIGN
10
211.9474
20
292.6849
30
0.0
0
VERTEX
8
ALIGN
10
213.1694
20
292.1600
30
0.0
0
VERTEX
8
ALIGN
10
214.3867
20
291.6243
30
0.0
0
VERTEX
8
ALIGN
10
215.5993
20
291.0781
30
0.0
0
VERTEX
8
ALIGN
10
216.8070
20
290.5213
30
0.0
0
VERTEX
8
ALIGN
10
218.0099
20
289.9540
30
0.0
0
VERTEX
8
ALIGN
10
219.2078
20
289.3762
30
0.0
0
VERTEX
8
ALIGN
10
220.4005
20
288.7880
30
0.0
0
VERTEX
8
ALIGN
10
221.5882
20
288.1894
30
0.0
0
VERTEX
8
ALIGN
10
222.7705
20
287.5805
30
0.0
0
VERTEX
8
ALIGN
10
223.9475
20
286.9612
30
0.0
0
VERTEX
8
ALIGN
10
225.1190
20
286.3317
30
0.0
0
VERTEX
8
ALIGN
10
226.2850
20
285.6920
30
0.0
0
VERTEX
8
ALIGN
10
227.4454
20
285.0422
30
0.0
0
VERTEX
8
ALIGN
10
228.6000
20
284.3823
30
0.0
0
VERTEX
8
ALIGN
10
229.7488
20
283.7123
30
0.0
0
VERTEX
8
ALIGN
10
230.8918
20
283.0323
30
0.0
0
VERTEX
8
ALIGN
10
232.0288
20
282.3424
30
0.0
0
VERTEX
8
ALIGN
10
233.1597
20
281.6425
30
0.0
0
VERTEX
8
ALIGN
10
234.2845
20
280.9329
30
0.0
0
VERTEX
8
ALIGN
10
235.4030
20
280.2134
30
0.0
0
VERTEX
8
ALIGN
10
236.5152
20
279.4842
30
0.0
0
VERTEX
8
ALIGN
10
237.6210
20
278.7453
30
0.0
0
VERTEX
8
ALIGN
10
238.7203
20
277.9968
30
0.0
0
VERTEX
8
ALIGN
10
239.8130
20
277.2388
30
0.0
0
VERTEX
8
ALIGN
10
240.8991
20
276.4712
30
0.0
0
VERTEX
8
ALIGN
10
241.9785
20
275.6942
30
0.0
0
VERTEX
8
ALIGN
10
243.0510
20
274.9078
30
0.0
0
VERTEX
8
ALIGN
10
244.1166
20
274.1121
30
0.0
0
VERTEX
8
ALIGN
10
245.1752
20
273.3070
30
0.0
0
VERTEX
8
ALIGN
10
246.2268
20
272.4928
30
0.0
0
VERTEX
8
ALIGN
10
247.2712
20
271.6695
30
0.0
0
VERTEX
8
ALIGN
10
248.3084
20
270.8370
30
0.0
0
VERTEX
8
ALIGN
10
249.3383
20
269.9956
30
0.0
0
VERTEX
8
ALIGN
10
250.3608
20
269.1452
30
0.0
0
VERTEX
8
ALIGN
10
251.3759
20
268.2859
30
0.0
0
VERTEX
8
ALIGN
10
252.3834
20
267.4177
30
0.0
0
VERTEX
8
ALIGN
10
253.3833
20
266.5409
30
0.0
0
VERTEX
8
ALIGN
10
254.3755
20
265.6553
30
0.0
0
VERTEX
8
ALIGN
10
255.3599
20
264.7611
30
0.0
0
VERTEX
8
ALIGN
10
256.3366
20
263.8583
30
0.0
0
VERTEX
8
ALIGN
10
257.3052
20
262.9471
30
0.0
0
VERTEX
8
ALIGN
10
258.2659
20
262.0274
30
0.0
0
VERTEX
8
ALIGN
10
259.2186
20
261.0994
30
0.0
0
VERTEX
8
ALIGN
10
260.1631
20
260.1631
30
0.0
0
VERTEX
8
ALIGN
10
261.0994
20
259.2186
30
0.0
0
VERTEX
8
ALIGN
10
262.0274
20
258.2659
30
0.0
0
VERTEX
8
ALIGN
10
262.9471
20
257.3052
30
0.0
0
VERTEX
8
ALIGN
10
263.8583
20
256.3366
30
0.0
0
VERTEX
8
ALIGN
10
264.7611
20
255.3599
30
0.0
0
VERTEX
8
ALIGN
10
265.6553
20
254.3755
30
0.0
0
VERTEX
8
ALIGN
10
266.5409
20
253.3833
30
0.0
0
VERTEX
8
ALIGN
10
267.4177
20
252.3834
30
0.0
0
VERTEX
8
ALIGN
10
268.2859
20
251.3759
30
0.0
0
VERTEX
8
ALIGN
10
269.1452
20
250.3608
30
0.0
0
VERTEX
8
ALIGN
10
269.9956
20
249.3383
30
0.0
0
VERTEX
8
ALIGN
10
270.8370
20
248.3084
30
0.0
0
VERTEX
8
ALIGN
10
271.6695
20
247.2712
30
0.0
0
VERTEX
8
ALIGN
10
272.4928
20
246.2268
30
0.0
0
VERTEX
8
ALIGN
10
273.3070
20
245.1752
30
0.0
0
VERTEX
8
ALIGN
10
274.1121
20
244.1166
30
0.0
0
VERTEX
8
ALIGN
10
274.9078
20
243.0510
30
0.0
0
VERTEX
8
ALIGN
10
275.6942
20
241.9785
30
0.0
0
VERTEX
8
ALIGN
10
276.4712
20
240.8991
30
0.0
0
VERTEX
8
ALIGN
10
277.2388
20
239.8130
30
0.0
0
VERTEX
8
ALIGN
10
277.9968
20
238.7203
30
0.0
0
VERTEX
8
ALIGN
10
278.7453
20
237.6210
30
0.0
0
VERTEX
8
ALIGN
10
279.4842
20
236.5152
30
0.0
0
VERTEX
8
ALIGN
10
280.2134
20
235.4030
30
0.0
0
VERTEX
8
ALIGN
10
280.9329
20
234.2845
30
0.0
0
VERTEX
8
ALIGN
10
281.6425
20
233.1597
30
0.0
0
VERTEX
8
ALIGN
10
282.3424
20
232.0288
30
0.0
0
VERTEX
8
ALIGN
10
283.0323
20
230.8918
30
0.0
0
VERTEX
8
ALIGN
10
283.7123
20
229.7488
30
0.0
0
VERTEX
8
ALIGN
10
284.3823
20
228.6000
30
0.0
0
VERTEX
8
ALIGN
10
285.0422
20
227.4454
30
0.0
0
VERTEX
8
ALIGN
10
285.6920
20
226.2850
30
0.0
0
VERTEX
8
ALIGN
10
286.3317
20
225.1190
30
0.0
0
VERTEX
8
ALIGN
10
286.9612
20
223.9475
30
0.0
0
VERTEX
8
ALIGN
10
287.5805
20
222.7705
30
0.0
0
VERTEX
8
ALIGN
10
288.1894
20
221.5882
30
0.0
0
VERTEX
8
ALIGN
10
288.7880
20
220.4005
30
0.0
0
VERTEX
8
ALIGN
10
289.3762
20
219.2078
30
0.0
0
VERTEX
8
ALIGN
10
289.9540
20
218.0099
30
0.0
0
VERTEX
8
ALIGN
10
290.5213
20
216.8070
30
0.0
0
VERTEX
8
ALIGN
10
291.0781
20
215.5993
30
0.0
0
VERTEX
8
ALIGN
10
291.6243
20
214.3867
30
0.0
0
VERTEX
8
ALIGN
10
292.1600
20
213.1694
30
0.0
0
VERTEX
8
ALIGN
10
292.6849
20
211.9474
30
0.0
0
VERTEX
8
ALIGN
10
293.1992
20
210.7210
30
0.0
0
VERTEX
8
ALIGN
10
293.7028
20
209.4900
30
0.0
0
VERTEX
8
ALIGN
10
294.1956
20
208.2548
30
0.0
0
VERTEX
8
ALIGN
10
294.6777
20
207.0153
30
0.0
0
VERTEX
8
ALIGN
10
295.1488
20
205.7716
30
0.0
0
VERTEX
8
ALIGN
10
295.6092
20
204.5239
30
0.0
0
VERTEX
8
ALIGN
10
296.0586
20
203.2722
30
0.0
0
VERTEX
8
ALIGN
10
296.4970
20
202.0166
30
0.0
0
VERTEX
8
ALIGN
10
296.9245
20
200.7572
30
0.0
0
VERTEX
8
ALIGN
10
297.3410
20
199.4942
30
0.0
0
VERTEX
8
ALIGN
10
297.7465
20
198.2276
30
0.0
0
VERTEX
8
ALIGN
10
298.1408
20
196.9574
30
0.0
0
VERTEX
8
ALIGN
10
298.5241
20
195.6839
30
0.0
0
VERTEX
8
ALIGN
10
298.8963
20
194.4071
30
0.0
0
VERTEX
8
ALIGN
10
299.2573
20
193.1271
30
0.0
0
VERTEX
8
ALIGN
10
299.6071
20
191.8440
30
0.0
0
VERTEX
8
ALIGN
10
299.9457
20
190.5579
30
0.0
0
VERTEX
8
ALIGN
10
300.2731
20
189.2689
30
0.0
0
VERTEX
8
ALIGN
10
300.5892
20
187.9771
30
0.0
0
VERTEX
8
ALIGN
10
300.8940
20
186.6825
30
0.0
0
VERTEX
8
ALIGN
10
301.1875
20
185.3854
30
0.0
0
VERTEX
8
ALIGN
10
301.4697
20
184.0857
30
0.0
0
VERTEX
8
ALIGN
10
301.7405
20
182.7837
30
0.0
0
VERTEX
8
ALIGN
10
302.0000
20
181.4793
30
0.0
0
VERTEX
8
ALIGN
10
302.2480
20
180.1727
30
0.0
0
VERTEX
8
ALIGN
10
302.4847
20
178.8640
30
0.0
0
VERTEX
8
ALIGN
10
302.7099
20
177.5533
30
0.0
0
VERTEX
8
ALIGN
10
302.9237
20
176.2406
30
0.0
0
VERTEX
8
ALIGN
10
303.1260
20
174.9262
30
0.0
0
VERTEX
8
ALIGN
10
303.3169
20
173.6100
30
0.0
0
VERTEX
8
ALIGN
10
303.4962
20
172.2922
30
0.0
0
VERTEX
8
ALIGN
10
303.6640
20
170.9729
30
0.0
0
VERTEX
8
ALIGN
10
303.8204
20
169.6522
30
0.0
0
VERTEX
8
ALIGN
10
303.9651
20
168.3301
30
0.0
0
VERTEX
8
ALIGN
10
304.0984
20
167.0069
30
0.0
0
VERTEX
8
ALIGN
10
304.2201
20
165.6825
30
0.0
0
VERTEX
8
ALIGN
10
304.3302
20
164.3572
30
0.0
0
VERTEX
8
ALIGN
10
304.4288
20
163.0309
30
0.0
0
VERTEX
8
ALIGN
10
304.5157
20
161.7038
30
0.0
0
VERTEX
8
ALIGN
10
304.5911
20
160.3760
30
0.0
0
VERTEX
8
ALIGN
10
304.6549
20
159.0476
30
0.0
0
VERTEX
8
ALIGN
10
304.7072
20
157.7187
30
0.0
0
VERTEX
8
ALIGN
10
304.7478
20
156.3894
30
0.0
0
VERTEX
8
ALIGN
10
304.7768
20
155.0597
30
0.0
0
VERTEX
8
ALIGN
10
304.7942
20
153.7299
30
0.0
0
SEQEND
8
ALIGN
0
POLYLINE
8
CUT_INNER
66
1
70
1
0
VERTEX
8
CUT_INNER
10
120.6811
20
15.2997
30
0.0
0
VERTEX
8
CUT_INNER
10
122.4723
20
13.9563
30
0.0
0
VERTEX
8
CUT_INNER
10
127.3980
20
13.9563
30
0.0
0
VERTEX
8
CUT_INNER
10
132.0253
20
11.8666
30
0.0
0
VERTEX
8
CUT_INNER
10
139.6378
20
13.3593
30
0.0
0
VERTEX
8
CUT_INNER
10
143.9665
20
11.5681
30
0.0
0
VERTEX
8
CUT_INNER
10
146.2055
20
11.5681
30
0.0
0
VERTEX
8
CUT_INNER
10
150.5342
20
13.3593
30
0.0
0
VERTEX
8
CUT_INNER
10
152.1761
20
13.3593
30
0.0
0
VERTEX
8
CUT_INNER
10
155.3107
20
11.8666
30
0.0
0
VERTEX
8
CUT_INNER
10
158.4452
20
11.8666
30
0.0
0
VERTEX
8
CUT_INNER
10
161.5798
20
13.3593
30
0.0
0
VERTEX
8
CUT_INNER
10
168.2968
20
12.1651
30
0.0
0
VERTEX
8
CUT_INNER
10
172.7747
20
14.8519
30
0.0
0
VERTEX
8
CUT_INNER
10
172.3269
20
15.2997
30
0.0
0
VERTEX
8
CUT_INNER
10
169.7894
20
14.4041
30
0.0
0
VERTEX
8
CUT_INNER
10
166.6548
20
14.4041
30
0.0
0
VERTEX
8
CUT_INNER
10
163.5203
20
15.8968
30
0.0
0
VERTEX
8
CUT_INNER
10
161.8784
20
15.8968
30
0.0
0
VERTEX
8
CUT_INNER
10
158.7438
20
14.4041
30
0.0
0
VERTEX
8
CUT_INNER
10
156.5048
20
14.1056
30
0.0
0
VERTEX
8
CUT_INNER
10
152.1761
20
15.8968
30
0.0
0
VERTEX
8
CUT_INNER
10
150.5342
20
15.8968
30
0.0
0
VERTEX
8
CUT_INNER
10
145.9070
20
14.1056
30
0.0
0
VERTEX
8
CUT_INNER
10
143.9665
20
14.1056
30
0.0
0
VERTEX
8
CUT_INNER
10
139.6378
20
15.8968
30
0.0
0
VERTEX
8
CUT_INNER
10
137.3988
20
15.8968
30
0.0
0
VERTEX
8
CUT_INNER
10
132.0253
20
14.1056
30
0.0
0
VERTEX
8
CUT_INNER
10
127.6966
20
15.8968
30
0.0
0
SEQEND
8
CUT_INNER
0
POLYLINE
8
CUT_INNER
66
1
70
1
0
VERTEX
8
CUT_INNER
10
107.0979
20
17.5387
30
0.0
0
VERTEX
8
CUT_INNER
10
118.4421
20
14.4041
30
0.0
0
VERTEX
8
CUT_INNER
10
112.4715
20
17.3894
30
0.0
0
SEQEND
8
CUT_INNER
0
POLYLINE
8
CUT_INNER
66
1
70
1
0
VERTEX
8
CUT_INNER
10
202.6278
20
19.3299
30
0.0
0
VERTEX
8
CUT_INNER
10
196.3587
20
21.2703
30
0.0
0
VERTEX
8
CUT_INNER
10
194.4182
20
21.2703
30
0.0
0
VERTEX
8
CUT_INNER
10
187.7013
20
18.8821
30
0.0
0
VERTEX
8
CUT_INNER
10
182.3277
20
20.0762
30
0.0
0
VERTEX
8
CUT_INNER
10
181.2829
20
19.7777
30
0.0
0
VERTEX
8
CUT_INNER
10
183.6711
20
17.8372
30
0.0
0
VERTEX
8
CUT_INNER
10
186.9549
20
16.6431
30
0.0
0
VERTEX
8
CUT_INNER
10
190.3881
20
16.9416
30
0.0
0
VERTEX
8
CUT_INNER
10
194.1197
20
18.4343
30
0.0
0
VERTEX
8
CUT_INNER
10
198.8962
20
17.8372
30
0.0
0
SEQEND
8
CUT_INNER
0
POLYLINE
8
CUT_INNER
66
1
70
1
0
VERTEX
8
CUT_INNER
10
169.1924
20
18.7328
30
0.0
0
VERTEX
8
CUT_INNER
10
167.6997
20
20.0762
30
0.0
0
VERTEX
8
CUT_INNER
10
161.4306
20
20.2255
30
0.0
0
VERTEX
8
CUT_INNER
10
161.2813
20
20.9718
30
0.0
0
VERTEX
8
CUT_INNER
10
163.3710
20
23.6586
30
0.0
0
VERTEX
8
CUT_INNER
10
162.6247
20
24.5542
30
0.0
0
VERTEX
8
CUT_INNER
10
114.1134
20
23.9571
30
0.0
0
VERTEX
8
CUT_INNER
10
113.6656
20
23.5093
30
0.0
0
VERTEX
8
CUT_INNER
10
120.9796
20
17.8372
30
0.0
0
VERTEX
8
CUT_INNER
10
124.1142
20
17.5387
30
0.0
0
VERTEX
8
CUT_INNER
10
127.6966
20
18.1357
30
0.0
0
VERTEX
8
CUT_INNER
10
131.4282
20
16.6431
30
0.0
0
VERTEX
8
CUT_INNER
10
133.6672
20
16.6431
30
0.0
0
VERTEX
8
CUT_INNER
10
137.6974
20
18.1357
30
0.0
0
VERTEX
8
CUT_INNER
10
139.9363
20
18.1357
30
0.0
0
VERTEX
8
CUT_INNER
10
143.6680
20
16.6431
30
0.0
0
VERTEX
8
CUT_INNER
10
146.2055
20
16.6431
30
0.0
0
VERTEX
8
CUT_INNER
10
150.2357
20
18.1357
30
0.0
0
VERTEX
8
CUT_INNER
10
158.1467
20
16.6431
30
0.0
0
VERTEX
8
CUT_INNER
10
162.1769
20
18.1357
30
0.0
0
VERTEX
8
CUT_INNER
10
167.4012
20
17.2402
30
0.0
0
SEQEND
8
CUT_INNER
0
POLYLINE
8
CUT_INNER
66
1
70
1
0
VERTEX
8
CUT_INNER
10
165.4607
20
27.8380
30
0.0
0
VERTEX
8
CUT_INNER
10
167.5504
20
25.8976
30
0.0
0
VERTEX
8
CUT_INNER
10
171.7299
20
23.8078
30
0.0
0
VERTEX
8
CUT_INNER
10
179.0439
20
24.1064
30
0.0
0
VERTEX
8
CUT_INNER
10
186.3579
20
21.4196
30
0.0
0
VERTEX
8
CUT_INNER
10
188.8954
20
21.7181
30
0.0
0
VERTEX
8
CUT_INNER
10
194.4182
20
23.8078
30
0.0
0
VERTEX
8
CUT_INNER
10
196.6572
20
23.8078
30
0.0
0
VERTEX
8
CUT_INNER
10
201.5830
20
22.0167
30
0.0
0
VERTEX
8
CUT_INNER
10
205.0161
20
22.0167
30
0.0
0
VERTEX
8
CUT_INNER
10
209.6433
20
24.1064
30
0.0
0
VERTEX
8
CUT_INNER
10
214.1213
20
24.1064
30
0.0
0
VERTEX
8
CUT_INNER
10
216.9573
20
25.5990
30
0.0
0
VERTEX
8
CUT_INNER
10
213.6735
20
26.9424
30
0.0
0
VERTEX
8
CUT_INNER
10
209.9418
20
26.9424
30
0.0
0
VERTEX
8
CUT_INNER
10
203.3741
20
24.8527
30
0.0
0
VERTEX
8
CUT_INNER
10
196.9557
20
26.9424
30
0.0
0
VERTEX
8
CUT_INNER
10
194.1197
20
26.9424
30
0.0
0
VERTEX
8
CUT_INNER
10
188.8954
20
24.8527
30
0.0
0
VERTEX
8
CUT_INNER
10
185.7608
20
24.5542
30
0.0
0
VERTEX
8
CUT_INNER
10
178.7453
20
26.9424
30
0.0
0
VERTEX
8
CUT_INNER
10
172.3269
20
26.0468
30
0.0
0
SEQEND
8
CUT_INNER
0
POLYLINE
8
CUT_INNER
66
1
70
1
0
VERTEX
8
CUT_INNER
10
116.2031
20
25.8976
30
0.0
0
VERTEX
8
CUT_INNER
10
135.4584
20
25.5990
30
0.0
0
VERTEX
8
CUT_INNER
10
138.7422
20
28.7336
30
0.0
0
VERTEX
8
CUT_INNER
10
122.4723
20
29.0321
30
0.0
0
VERTEX
8
CUT_INNER
10
118.5914
20
27.8380
30
0.0
0
SEQEND
8
CUT_INNER
0
POLYLINE
8
CUT_INNER
66
1
70
1
0
VERTEX
8
CUT_INNER
10
157.4004
20
43.6601
30
0.0
0
VERTEX
8
CUT_INNER
10
172.0284
20
28.2858
30
0.0
0
VERTEX
8
CUT_INNER
10
178.7453
20
29.1814
30
0.0
0
VERTEX
8
CUT_INNER
10
184.8652
20
27.0917
30
0.0
0
VERTEX
8
CUT_INNER
10
188.5969
20
27.0917
30
0.0
0
VERTEX
8
CUT_INNER
10
193.2241
20
28.8829
30
0.0
0
VERTEX
8
CUT_INNER
10
196.6572
20
29.1814
30
0.0
0
VERTEX
8
CUT_INNER
10
202.1800
20
27.3902
30
0.0
0
VERTEX
8
CUT_INNER
10
205.3146
20
27.3902
30
0.0
0
VERTEX
8
CUT_INNER
10
210.5389
20
29.1814
30
0.0
0
VERTEX
8
CUT_INNER
10
213.3749
20
29.1814
30
0.0
0
VERTEX
8
CUT_INNER
10
220.3904
20
27.3902
30
0.0
0
VERTEX
8
CUT_INNER
10
234.5706
20
36.1969
30
0.0
0
VERTEX
8
CUT_INNER
10
233.6750
20
37.6895
30
0.0
0
VERTEX
8
CUT_INNER
10
208.1506
20
37.6895
30
0.0
0
VERTEX
8
CUT_INNER
10
202.0308
20
40.3763
30
0.0
0
VERTEX
8
CUT_INNER
10
178.8946
20
41.8690
30
0.0
0
VERTEX
8
CUT_INNER
10
160.5350
20
43.9587
30
0.0
0
SEQEND
8
CUT_INNER
0
POLYLINE
8
CUT_INNER
66
1
70
1
0
VERTEX
8
CUT_INNER
10
234.1228
20
48.4366
30
0.0
0
VERTEX
8
CUT_INNER
10
237.1081
20
46.4962
30
0.0
0
VERTEX
8
CUT_INNER
10
242.9295
20
47.3918
30
0.0
0
VERTEX
8
CUT_INNER
10
246.0641
20
46.1976
30
0.0
0
VERTEX
8
CUT_INNER
10
247.1089
20
46.1976
30
0.0
0
VERTEX
8
CUT_INNER
10
249.3479
20
48.2874
30
0.0
0
VERTEX
8
CUT_INNER
10
245.7655
20
48.1381
30
0.0
0
VERTEX
8
CUT_INNER
10
243.8251
20
49.0337
30
0.0
0
VERTEX
8
CUT_INNER
10
241.5861
20
49.0337
30
0.0
0
VERTEX
8
CUT_INNER
10
239.0486
20
48.1381
30
0.0
0
SEQEND
8
CUT_INNER
0
POLYLINE
8
CUT_INNER
66
1
70
1
0
VERTEX
8
CUT_INNER
10
50.2278
20
53.3624
30
0.0
0
VERTEX
8
CUT_INNER
10
54.1087
20
49.4815
30
0.0
0
VERTEX
8
CUT_INNER
10
56.9448
20
49.0337
30
0.0
0
VERTEX
8
CUT_INNER
10
57.5418
20
47.9888
30
0.0
0
VERTEX
8
CUT_INNER
10
56.4970
20
47.2425
30
0.0
0
VERTEX
8
CUT_INNER
10
60.8257
20
43.5109
30
0.0
0
VERTEX
8
CUT_INNER
10
65.4529
20
47.5410
30
0.0
0
VERTEX
8
CUT_INNER
10
65.4529
20
48.8844
30
0.0
0
VERTEX
8
CUT_INNER
10
63.8110
20
50.5263
30
0.0
0
VERTEX
8
CUT_INNER
10
60.8257
20
52.0190
30
0.0
0
VERTEX
8
CUT_INNER
10
55.4521
20
53.2131
30
0.0
0
SEQEND
8
CUT_INNER
0
POLYLINE
8
CUT_INNER
66
1
70
1
0
VERTEX
8
CUT_INNER
10
45.1528
20
71.1250
30
0.0
0
VERTEX
8
CUT_INNER
10
44.7050
20
70.6772
30
0.0
0
VERTEX
8
CUT_INNER
10
44.7050
20
59.3330
30
0.0
0
VERTEX
8
CUT_INNER
10
46.1976
20
57.6911
30
0.0
0
VERTEX
8
CUT_INNER
10
46.4962
20
61.8705
30
0.0
0
VERTEX
8
CUT_INNER
10
47.5410
20
61.4227
30
0.0
0
VERTEX
8
CUT_INNER
10
50.3771
20
61.7213
30
0.0
0
VERTEX
8
CUT_INNER
10
56.6462
20
64.8558
30
0.0
0
VERTEX
8
CUT_INNER
10
47.9888
20
69.0353
30
0.0
0
VERTEX
8
CUT_INNER
10
46.7947
20
68.4382
30
0.0
0
VERTEX
8
CUT_INNER
10
47.0932
20
67.2441
30
0.0
0
VERTEX
8
CUT_INNER
10
46.3469
20
67.0948
30
0.0
0
VERTEX
8
CUT_INNER
10
46.3469
20
70.3786
30
0.0
0
SEQEND
8
CUT_INNER
0
POLYLINE
8
CUT_INNER
66
1
70
1
0
VERTEX
8
CUT_INNER
10
251.1391
20
80.8272
30
0.0
0
VERTEX
8
CUT_INNER
10
235.4662
20
57.5418
30
0.0
0
VERTEX
8
CUT_INNER
10
235.9140
20
56.9448
30
0.0
0
VERTEX
8
CUT_INNER
10
246.8104
20
56.9448
30
0.0
0
VERTEX
8
CUT_INNER
10
247.2582
20
57.3926
30
0.0
0
VERTEX
8
CUT_INNER
10
251.4376
20
79.7824
30
0.0
0
SEQEND
8
CUT_INNER
0
POLYLINE
8
CUT_INNER
66
1
70
1
0
VERTEX
8
CUT_INNER
10
279.2010
20
88.1412
30
0.0
0
VERTEX
8
CUT_INNER
10
277.4098
20
87.2456
30
0.0
0
VERTEX
8
CUT_INNER
10
274.8723
20
84.4096
30
0.0
0
VERTEX
8
CUT_INNER
10
273.0811
20
80.2302
30
0.0
0
VERTEX
8
CUT_INNER
10
272.9318
20
76.9463
30
0.0
0
SEQEND
8
CUT_INNER
0
POLYLINE
8
CUT_INNER
66
1
70
1
0
VERTEX
8
CUT_INNER
10
254.1244
20
89.7832
30
0.0
0
VERTEX
8
CUT_INNER
10
253.3781
20
88.5890
30
0.0
0
VERTEX
8
CUT_INNER
10
252.1839
20
73.9610
30
0.0
0
VERTEX
8
CUT_INNER
10
249.1986
20
56.0492
30
0.0
0
VERTEX
8
CUT_INNER
10
244.7207
20
55.3028
30
0.0
0
VERTEX
8
CUT_INNER
10
232.3316
20
55.3028
30
0.0
0
VERTEX
8
CUT_INNER
10
232.4809
20
54.1087
30
0.0
0
VERTEX
8
CUT_INNER
10
235.9140
20
50.9741
30
0.0
0
VERTEX
8
CUT_INNER
10
244.1236
20
50.9741
30
0.0
0
VERTEX
8
CUT_INNER
10
246.6611
20
50.3771
30
0.0
0
VERTEX
8
CUT_INNER
10
252.1839
20
50.9741
30
0.0
0
VERTEX
8
CUT_INNER
10
258.0053
20
56.9448
30
0.0
0
VERTEX
8
CUT_INNER
10
251.2883
20
56.7955
30
0.0
0
VERTEX
8
CUT_INNER
10
250.8405
20
57.9896
30
0.0
0
VERTEX
8
CUT_INNER
10
255.9156
20
59.0345
30
0.0
0
VERTEX
8
CUT_INNER
10
259.7965
20
59.0345
30
0.0
0
VERTEX
8
CUT_INNER
10
262.1847
20
61.8705
30
0.0
0
VERTEX
8
CUT_INNER
10
261.5877
20
68.5875
30
0.0
0
VERTEX
8
CUT_INNER
10
259.7965
20
76.0507
30
0.0
0
VERTEX
8
CUT_INNER
10
257.1097
20
83.8125
30
0.0
0
SEQEND
8
CUT_INNER
0
POLYLINE
8
CUT_INNER
66
1
70
1
0
VERTEX
8
CUT_INNER
10
18.7328
20
104.2619
30
0.0
0
VERTEX
8
CUT_INNER
10
23.2108
20
92.7685
30
0.0
0
VERTEX
8
CUT_INNER
10
23.3600
20
95.7538
30
0.0
0
VERTEX
8
CUT_INNER
10
22.4644
20
99.0376
30
0.0
0
VERTEX
8
CUT_INNER
10
20.3747
20
102.9185
30
0.0
0
SEQEND
8
CUT_INNER
0
POLYLINE
8
CUT_INNER
66
1
70
1
0
VERTEX
8
CUT_INNER
10
286.2165
20
104.4112
30
0.0
0
VERTEX
8
CUT_INNER
10
282.3356
20
101.1273
30
0.0
0
VERTEX
8
CUT_INNER
10
281.1414
20
99.0376
30
0.0
0
VERTEX
8
CUT_INNER
10
279.6488
20
93.9626
30
0.0
0
VERTEX
8
CUT_INNER
10
280.0966
20
91.8729
30
0.0
0
VERTEX
8
CUT_INNER
10
281.7385
20
92.9177
30
0.0
0
SEQEND
8
CUT_INNER
0
POLYLINE
8
CUT_INNER
66
1
70
1
0
VERTEX
8
CUT_INNER
10
290.8437
20
120.3826
30
0.0
0
VERTEX
8
CUT_INNER
10
288.9032
20
118.7406
30
0.0
0
VERTEX
8
CUT_INNER
10
286.5150
20
114.8597
30
0.0
0
VERTEX
8
CUT_INNER
10
285.6194
20
111.2774
30
0.0
0
VERTEX
8
CUT_INNER
10
286.0672
20
107.6950
30
0.0
0
VERTEX
8
CUT_INNER
10
287.7091
20
108.1428
30
0.0
0
SEQEND
8
CUT_INNER
0
POLYLINE
8
CUT_INNER
66
1
70
1
0
VERTEX
8
CUT_INNER
10
13.9563
20
120.5318
30
0.0
0
VERTEX
8
CUT_INNER
10
17.0909
20
108.4413
30
0.0
0
VERTEX
8
CUT_INNER
10
17.6880
20
109.9340
30
0.0
0
VERTEX
8
CUT_INNER
10
17.0909
20
115.7553
30
0.0
0
VERTEX
8
CUT_INNER
10
15.5982
20
119.0392
30
0.0
0
SEQEND
8
CUT_INNER
0
POLYLINE
8
CUT_INNER
66
1
70
1
0
VERTEX
8
CUT_INNER
10
293.6797
20
136.6525
30
0.0
0
VERTEX
8
CUT_INNER
10
291.8885
20
134.5628
30
0.0
0
VERTEX
8
CUT_INNER
10
290.3959
20
130.6819
30
0.0
0
VERTEX
8
CUT_INNER
10
290.0974
20
125.4576
30
0.0
0
VERTEX
8
CUT_INNER
10
290.9929
20
123.6664
30
0.0
0
VERTEX
8
CUT_INNER
10
291.8885
20
123.9649
30
0.0
0
SEQEND
8
CUT_INNER
0
POLYLINE
8
CUT_INNER
66
1
70
1
0
VERTEX
8
CUT_INNER
10
11.4188
20
137.3988
30
0.0
0
VERTEX
8
CUT_INNER
10
10.9710
20
136.9510
30
0.0
0
VERTEX
8
CUT_INNER
10
13.0607
20
124.4127
30
0.0
0
VERTEX
8
CUT_INNER
10
14.1056
20
127.2488
30
0.0
0
VERTEX
8
CUT_INNER
10
14.1056
20
131.8760
30
0.0
0
VERTEX
8
CUT_INNER
10
13.2100
20
135.1598
30
0.0
0
SEQEND
8
CUT_INNER
0
POLYLINE
8
CUT_INNER
66
1
70
1
0
VERTEX
8
CUT_INNER
10
21.8674
20
149.9371
30
0.0
0
VERTEX
8
CUT_INNER
10
20.8225
20
149.1908
30
0.0
0
VERTEX
8
CUT_INNER
10
20.5240
20
147.5489
30
0.0
0
VERTEX
8
CUT_INNER
10
21.4196
20
146.6533
30
0.0
0
VERTEX
8
CUT_INNER
10
24.7034
20
107.5457
30
0.0
0
VERTEX
8
CUT_INNER
10
25.4498
20
106.5009
30
0.0
0
VERTEX
8
CUT_INNER
10
26.1961
20
106.5009
30
0.0
0
VERTEX
8
CUT_INNER
10
26.9424
20
107.3965
30
0.0
0
VERTEX
8
CUT_INNER
10
23.0615
20
146.2055
30
0.0
0
VERTEX
8
CUT_INNER
10
23.9571
20
148.2952
30
0.0
0
VERTEX
8
CUT_INNER
10
22.9122
20
149.6386
30
0.0
0
SEQEND
8
CUT_INNER
0
POLYLINE
8
CUT_INNER
66
1
70
1
0
VERTEX
8
CUT_INNER
10
294.5753
20
153.3702
30
0.0
0
VERTEX
8
CUT_INNER
10
292.4856
20
150.0864
30
0.0
0
VERTEX
8
CUT_INNER
10
291.8885
20
147.6981
30
0.0
0
VERTEX
8
CUT_INNER
10
291.8885
20
143.6680
30
0.0
0
VERTEX
8
CUT_INNER
10
293.2319
20
140.2349
30
0.0
0
VERTEX
8
CUT_INNER
10
294.2768
20
140.6827
30
0.0
0
SEQEND
8
CUT_INNER
0
POLYLINE
8
CUT_INNER
66
1
70
1
0
VERTEX
8
CUT_INNER
10
10.9710
20
154.1166
30
0.0
0
VERTEX
8
CUT_INNER
10
10.0754
20
153.6688
30
0.0
0
VERTEX
8
CUT_INNER
10
10.6725
20
140.8319
30
0.0
0
VERTEX
8
CUT_INNER
10
12.6129
20
145.1606
30
0.0
0
VERTEX
8
CUT_INNER
10
12.6129
20
150.3849
30
0.0
0
SEQEND
8
CUT_INNER
0
POLYLINE
8
CUT_INNER
66
1
70
1
0
VERTEX
8
CUT_INNER
10
293.3812
20
170.3865
30
0.0
0
VERTEX
8
CUT_INNER
10
291.5900
20
166.5056
30
0.0
0
VERTEX
8
CUT_INNER
10
291.5900
20
161.5798
30
0.0
0
VERTEX
8
CUT_INNER
10
293.0827
20
157.4004
30
0.0
0
VERTEX
8
CUT_INNER
10
293.9783
20
156.9526
30
0.0
0
VERTEX
8
CUT_INNER
10
294.5753
20
157.5497
30
0.0
0
SEQEND
8
CUT_INNER
0
POLYLINE
8
CUT_INNER
66
1
70
1
0
VERTEX
8
CUT_INNER
10
12.1651
20
170.8343
30
0.0
0
VERTEX
8
CUT_INNER
10
11.1203
20
169.9387
30
0.0
0
VERTEX
8
CUT_INNER
10
10.3739
20
157.8482
30
0.0
0
VERTEX
8
CUT_INNER
10
12.3144
20
160.3857
30
0.0
0
VERTEX
8
CUT_INNER
10
13.2100
20
163.3710
30
0.0
0
VERTEX
8
CUT_INNER
10
13.2100
20
168.8938
30
0.0
0
SEQEND
8
CUT_INNER
0
POLYLINE
8
CUT_INNER
66
1
70
1
0
VERTEX
8
CUT_INNER
10
15.2997
20
187.1042
30
0.0
0
VERTEX
8
CUT_INNER
10
14.1056
20
186.2086
30
0.0
0
VERTEX
8
CUT_INNER
10
12.0159
20
174.4167
30
0.0
0
VERTEX
8
CUT_INNER
10
14.1056
20
176.5064
30
0.0
0
VERTEX
8
CUT_INNER
10
15.5982
20
179.4917
30
0.0
0
VERTEX
8
CUT_INNER
10
16.1953
20
185.6116
30
0.0
0
SEQEND
8
CUT_INNER
0
POLYLINE
8
CUT_INNER
66
1
70
1
0
VERTEX
8
CUT_INNER
10
290.2466
20
187.5520
30
0.0
0
VERTEX
8
CUT_INNER
10
288.9032
20
184.4174
30
0.0
0
VERTEX
8
CUT_INNER
10
288.9032
20
179.1931
30
0.0
0
VERTEX
8
CUT_INNER
10
290.6944
20
174.7152
30
0.0
0
VERTEX
8
CUT_INNER
10
292.1871
20
173.6703
30
0.0
0
VERTEX
8
CUT_INNER
10
292.9334
20
175.1630
30
0.0
0
SEQEND
8
CUT_INNER
0
POLYLINE
8
CUT_INNER
66
1
70
1
0
VERTEX
8
CUT_INNER
10
20.2255
20
203.0756
30
0.0
0
VERTEX
8
CUT_INNER
10
19.0313
20
202.1800
30
0.0
0
VERTEX
8
CUT_INNER
10
15.4490
20
190.3881
30
0.0
0
VERTEX
8
CUT_INNER
10
18.5835
20
193.2241
30
0.0
0
VERTEX
8
CUT_INNER
10
20.0762
20
196.2094
30
0.0
0
VERTEX
8
CUT_INNER
10
20.9718
20
199.7918
30
0.0
0
VERTEX
8
CUT_INNER
10
20.9718
20
202.3293
30
0.0
0
SEQEND
8
CUT_INNER
0
POLYLINE
8
CUT_INNER
66
1
70
1
0
VERTEX
8
CUT_INNER
10
284.8731
20
203.9712
30
0.0
0
VERTEX
8
CUT_INNER
10
283.8282
20
200.8366
30
0.0
0
VERTEX
8
CUT_INNER
10
283.8282
20
197.7021
30
0.0
0
VERTEX
8
CUT_INNER
10
285.9179
20
192.3285
30
0.0
0
VERTEX
8
CUT_INNER
10
288.3062
20
189.7910
30
0.0
0
VERTEX
8
CUT_INNER
10
289.3510
20
191.2836
30
0.0
0
SEQEND
8
CUT_INNER
0
POLYLINE
8
CUT_INNER
66
1
70
1
0
VERTEX
8
CUT_INNER
10
27.3902
20
218.3007
30
0.0
0
VERTEX
8
CUT_INNER
10
25.8976
20
217.7036
30
0.0
0
VERTEX
8
CUT_INNER
10
20.8225
20
206.2102
30
0.0
0
VERTEX
8
CUT_INNER
10
23.5093
20
207.7028
30
0.0
0
VERTEX
8
CUT_INNER
10
26.0468
20
210.8374
30
0.0
0
VERTEX
8
CUT_INNER
10
27.8380
20
215.3154
30
0.0
0
VERTEX
8
CUT_INNER
10
28.1365
20
217.5544
30
0.0
0
SEQEND
8
CUT_INNER
0
POLYLINE
8
CUT_INNER
66
1
70
1
0
VERTEX
8
CUT_INNER
10
277.7083
20
219.7933
30
0.0
0
VERTEX
8
CUT_INNER
10
276.9620
20
217.5544
30
0.0
0
VERTEX
8
CUT_INNER
10
276.9620
20
213.5242
30
0.0
0
VERTEX
8
CUT_INNER
10
279.0517
20
208.7477
30
0.0
0
VERTEX
8
CUT_INNER
10
282.3356
20
205.6131
30
0.0
0
VERTEX
8
CUT_INNER
10
283.5297
20
207.7028
30
0.0
0
SEQEND
8
CUT_INNER
0
POLYLINE
8
CUT_INNER
66
1
70
1
0
VERTEX
8
CUT_INNER
10
36.3461
20
232.3316
30
0.0
0
VERTEX
8
CUT_INNER
10
34.4057
20
232.0331
30
0.0
0
VERTEX
8
CUT_INNER
10
27.9873
20
221.1367
30
0.0
0
VERTEX
8
CUT_INNER
10
31.2711
20
222.6294
30
0.0
0
VERTEX
8
CUT_INNER
10
33.8086
20
225.1669
30
0.0
0
VERTEX
8
CUT_INNER
10
36.4954
20
229.9434
30
0.0
0
VERTEX
8
CUT_INNER
10
36.7939
20
231.8838
30
0.0
0
SEQEND
8
CUT_INNER
0
POLYLINE
8
CUT_INNER
66
1
70
1
0
VERTEX
8
CUT_INNER
10
269.0509
20
233.8243
30
0.0
0
VERTEX
8
CUT_INNER
10
268.3046
20
230.2419
30
0.0
0
VERTEX
8
CUT_INNER
10
269.2002
20
226.6595
30
0.0
0
VERTEX
8
CUT_INNER
10
271.2899
20
223.3757
30
0.0
0
VERTEX
8
CUT_INNER
10
274.5738
20
220.5397
30
0.0
0
VERTEX
8
CUT_INNER
10
275.9171
20
223.0772
30
0.0
0
SEQEND
8
CUT_INNER
0
POLYLINE
8
CUT_INNER
66
1
70
1
0
VERTEX
8
CUT_INNER
10
46.4962
20
245.7655
30
0.0
0
VERTEX
8
CUT_INNER
10
45.0035
20
245.7655
30
0.0
0
VERTEX
8
CUT_INNER
10
36.9432
20
235.1677
30
0.0
0
VERTEX
8
CUT_INNER
10
41.1226
20
236.6603
30
0.0
0
VERTEX
8
CUT_INNER
10
43.6601
20
238.8993
30
0.0
0
VERTEX
8
CUT_INNER
10
46.6454
20
243.6758
30
0.0
0
VERTEX
8
CUT_INNER
10
46.9440
20
245.3177
30
0.0
0
SEQEND
8
CUT_INNER
0
POLYLINE
8
CUT_INNER
66
1
70
1
0
VERTEX
8
CUT_INNER
10
258.6024
20
247.1089
30
0.0
0
VERTEX
8
CUT_INNER
10
258.4531
20
243.3773
30
0.0
0
VERTEX
8
CUT_INNER
10
259.9457
20
239.7949
30
0.0
0
VERTEX
8
CUT_INNER
10
262.7818
20
236.3618
30
0.0
0
VERTEX
8
CUT_INNER
10
265.9164
20
234.5706
30
0.0
0
VERTEX
8
CUT_INNER
10
266.8119
20
237.1081
30
0.0
0
SEQEND
8
CUT_INNER
0
POLYLINE
8
CUT_INNER
66
1
70
1
0
VERTEX
8
CUT_INNER
10
58.5867
20
257.2590
30
0.0
0
VERTEX
8
CUT_INNER
10
56.9448
20
258.0053
30
0.0
0
VERTEX
8
CUT_INNER
10
47.3918
20
248.4523
30
0.0
0
VERTEX
8
CUT_INNER
10
50.6756
20
248.9001
30
0.0
0
VERTEX
8
CUT_INNER
10
54.2580
20
250.9898
30
0.0
0
VERTEX
8
CUT_INNER
10
57.0940
20
254.1244
30
0.0
0
SEQEND
8
CUT_INNER
0
POLYLINE
8
CUT_INNER
66
1
70
1
0
VERTEX
8
CUT_INNER
10
246.9596
20
258.7516
30
0.0
0
VERTEX
8
CUT_INNER
10
247.1089
20
255.6170
30
0.0
0
VERTEX
8
CUT_INNER
10
248.9001
20
252.0347
30
0.0
0
VERTEX
8
CUT_INNER
10
252.0347
20
248.9001
30
0.0
0
VERTEX
8
CUT_INNER
10
255.4678
20
247.4074
30
0.0
0
VERTEX
8
CUT_INNER
10
256.2141
20
249.7957
30
0.0
0
SEQEND
8
CUT_INNER
0
POLYLINE
8
CUT_INNER
66
1
70
1
0
VERTEX
8
CUT_INNER
10
72.0206
20
268.0061
30
0.0
0
VERTEX
8
CUT_INNER
10
70.3786
20
268.7524
30
0.0
0
VERTEX
8
CUT_INNER
10
59.7808
20
260.3935
30
0.0
0
VERTEX
8
CUT_INNER
10
62.0198
20
260.2443
30
0.0
0
VERTEX
8
CUT_INNER
10
66.4977
20
261.7369
30
0.0
0
VERTEX
8
CUT_INNER
10
70.8264
20
265.4686
30
0.0
0
SEQEND
8
CUT_INNER
0
POLYLINE
8
CUT_INNER
66
1
70
1
0
VERTEX
8
CUT_INNER
10
233.6750
20
268.9017
30
0.0
0
VERTEX
8
CUT_INNER
10
234.8691
20
265.1700
30
0.0
0
VERTEX
8
CUT_INNER
10
238.3023
20
261.4384
30
0.0
0
VERTEX
8
CUT_INNER
10
243.3773
20
258.7516
30
0.0
0
VERTEX
8
CUT_INNER
10
244.2729
20
259.4979
30
0.0
0
VERTEX
8
CUT_INNER
10
244.2729
20
260.9906
30
0.0
0
SEQEND
8
CUT_INNER
0
POLYLINE
8
CUT_INNER
66
1
70
1
0
VERTEX
8
CUT_INNER
10
86.3500
20
276.9620
30
0.0
0
VERTEX
8
CUT_INNER
10
84.8574
20
277.7083
30
0.0
0
VERTEX
8
CUT_INNER
10
73.5132
20
270.8421
30
0.0
0
VERTEX
8
CUT_INNER
10
79.3346
20
270.9914
30
0.0
0
VERTEX
8
CUT_INNER
10
83.5140
20
273.3796
30
0.0
0
VERTEX
8
CUT_INNER
10
86.0515
20
275.9171
30
0.0
0
SEQEND
8
CUT_INNER
0
POLYLINE
8
CUT_INNER
66
1
70
1
0
VERTEX
8
CUT_INNER
10
219.1963
20
277.8576
30
0.0
0
VERTEX
8
CUT_INNER
10
220.2411
20
275.3201
30
0.0
0
VERTEX
8
CUT_INNER
10
223.6742
20
271.8870
30
0.0
0
VERTEX
8
CUT_INNER
10
228.7493
20
269.4987
30
0.0
0
VERTEX
8
CUT_INNER
10
230.2419
20
269.3495
30
0.0
0
VERTEX
8
CUT_INNER
10
230.8390
20
269.9465
30
0.0
0
VERTEX
8
CUT_INNER
10
230.6897
20
271.2899
30
0.0
0
SEQEND
8
CUT_INNER
0
POLYLINE
8
CUT_INNER
66
1
70
1
0
VERTEX
8
CUT_INNER
10
139.9363
20
281.2907
30
0.0
0
VERTEX
8
CUT_INNER
10
137.1003
20
281.2907
30
0.0
0
VERTEX
8
CUT_INNER
10
133.6672
20
278.3054
30
0.0
0
VERTEX
8
CUT_INNER
10
128.7414
20
278.9024
30
0.0
0
VERTEX
8
CUT_INNER
10
126.6517
20
277.2605
30
0.0
0
VERTEX
8
CUT_INNER
10
131.5775
20
276.9620
30
0.0
0
VERTEX
8
CUT_INNER
10
132.3238
20
275.1708
30
0.0
0
VERTEX
8
CUT_INNER
10
136.0554
20
275.4693
30
0.0
0
VERTEX
8
CUT_INNER
10
136.6525
20
276.2157
30
0.0
0
VERTEX
8
CUT_INNER
10
135.6076
20
276.9620
30
0.0
0
VERTEX
8
CUT_INNER
10
135.6076
20
277.7083
30
0.0
0
VERTEX
8
CUT_INNER
10
137.1003
20
279.4995
30
0.0
0
SEQEND
8
CUT_INNER
0
POLYLINE
8
CUT_INNER
66
1
70
1
0
VERTEX
8
CUT_INNER
10
101.5751
20
283.8282
30
0.0
0
VERTEX
8
CUT_INNER
10
99.9332
20
284.7238
30
0.0
0
VERTEX
8
CUT_INNER
10
88.4398
20
279.4995
30
0.0
0
VERTEX
8
CUT_INNER
10
90.2310
20
278.7532
30
0.0
0
VERTEX
8
CUT_INNER
10
94.8582
20
279.0517
30
0.0
0
VERTEX
8
CUT_INNER
10
99.6347
20
281.4400
30
0.0
0
SEQEND
8
CUT_INNER
0
POLYLINE
8
CUT_INNER
66
1
70
1
0
VERTEX
8
CUT_INNER
10
203.2249
20
285.1716
30
0.0
0
VERTEX
8
CUT_INNER
10
204.7175
20
282.7833
30
0.0
0
VERTEX
8
CUT_INNER
10
207.5536
20
280.2458
30
0.0
0
VERTEX
8
CUT_INNER
10
214.1213
20
277.8576
30
0.0
0
VERTEX
8
CUT_INNER
10
215.4646
20
277.8576
30
0.0
0
VERTEX
8
CUT_INNER
10
216.2110
20
278.6039
30
0.0
0
VERTEX
8
CUT_INNER
10
215.6139
20
279.9473
30
0.0
0
SEQEND
8
CUT_INNER
0
POLYLINE
8
CUT_INNER
66
1
70
1
0
VERTEX
8
CUT_INNER
10
117.9943
20
288.9032
30
0.0
0
VERTEX
8
CUT_INNER
10
116.3524
20
290.0974
30
0.0
0
VERTEX
8
CUT_INNER
10
103.8141
20
286.0672
30
0.0
0
VERTEX
8
CUT_INNER
10
106.3516
20
285.0223
30
0.0
0
VERTEX
8
CUT_INNER
10
110.9788
20
285.0223
30
0.0
0
VERTEX
8
CUT_INNER
10
115.7553
20
286.8135
30
0.0
0
SEQEND
8
CUT_INNER
0
POLYLINE
8
CUT_INNER
66
1
70
1
0
VERTEX
8
CUT_INNER
10
187.4027
20
290.0974
30
0.0
0
VERTEX
8
CUT_INNER
10
190.2388
20
286.8135
30
0.0
0
VERTEX
8
CUT_INNER
10
192.6270
20
285.6194
30
0.0
0
VERTEX
8
CUT_INNER
10
195.9109
20
284.7238
30
0.0
0
VERTEX
8
CUT_INNER
10
198.8962
20
284.5745
30
0.0
0
VERTEX
8
CUT_INNER
10
200.3888
20
285.1716
30
0.0
0
VERTEX
8
CUT_INNER
10
200.0903
20
286.3657
30
0.0
0
SEQEND
8
CUT_INNER
0
POLYLINE
8
CUT_INNER
66
1
70
1
0
VERTEX
8
CUT_INNER
10
135.0106
20
291.5900
30
0.0
0
VERTEX
8
CUT_INNER
10
132.6223
20
293.3812
30
0.0
0
VERTEX
8
CUT_INNER
10
119.9348
20
290.8437
30
0.0
0
VERTEX
8
CUT_INNER
10
123.6664
20
289.2018
30
0.0
0
VERTEX
8
CUT_INNER
10
127.0995
20
288.9032
30
0.0
0
VERTEX
8
CUT_INNER
10
133.6672
20
290.3959
30
0.0
0
SEQEND
8
CUT_INNER
0
POLYLINE
8
CUT_INNER
66
1
70
1
0
VERTEX
8
CUT_INNER
10
170.5357
20
293.3812
30
0.0
0
VERTEX
8
CUT_INNER
10
172.9240
20
290.9929
30
0.0
0
VERTEX
8
CUT_INNER
10
176.2078
20
289.5003
30
0.0
0
VERTEX
8
CUT_INNER
10
181.4321
20
288.9032
30
0.0
0
VERTEX
8
CUT_INNER
10
183.5218
20
289.2018
30
0.0
0
VERTEX
8
CUT_INNER
10
184.2682
20
289.9481
30
0.0
0
VERTEX
8
CUT_INNER
10
183.5218
20
291.2915
30
0.0
0
SEQEND
8
CUT_INNER
0
POLYLINE
8
CUT_INNER
66
1
70
1
0
VERTEX
8
CUT_INNER
10
153.5195
20
294.5753
30
0.0
0
VERTEX
8
CUT_INNER
10
156.5048
20
292.1871
30
0.0
0
VERTEX
8
CUT_INNER
10
159.4901
20
291.2915
30
0.0
0
VERTEX
8
CUT_INNER
10
165.0129
20
291.2915
30
0.0
0
VERTEX
8
CUT_INNER
10
167.5504
20
292.6349
30
0.0
0
VERTEX
8
CUT_INNER
10
166.9534
20
293.9783
30
0.0
0
SEQEND
8
CUT_INNER
0
POLYLINE
8
CUT_INNER
66
1
70
1
0
VERTEX
8
CUT_INNER
10
150.8327
20
293.2319
30
0.0
0
VERTEX
8
CUT_INNER
10
149.7879
20
294.7246
30
0.0
0
VERTEX
8
CUT_INNER
10
136.8018
20
293.6797
30
0.0
0
VERTEX
8
CUT_INNER
10
140.9812
20
291.2915
30
0.0
0
VERTEX
8
CUT_INNER
10
146.5040
20
291.2915
30
0.0
0
VERTEX
8
CUT_INNER
10
148.8923
20
291.8885
30
0.0
0
SEQEND
8
CUT_INNER
0
ENDSEC
0
EOF
